<?xml version="1.0" encoding="UTF-8" standalone="no"?><svg xmlns="http://www.w3.org/2000/svg" xmlns:xlink="http://www.w3.org/1999/xlink" contentStyleType="text/css" height="526px" preserveAspectRatio="none" style="width:854px;height:526px;background:#FFFFFF;" version="1.1" viewBox="0 0 854 526" width="854px" zoomAndPan="magnify"><defs/><g><!--MD5=[a5ad3856b0c65e07b10297b4477b22bb]
class SNSUserStore--><g id="elem_SNSUserStore"><rect codeLine="4" fill="#F1F1F1" height="83.2188" id="SNSUserStore" rx="2.5" ry="2.5" style="stroke:#181818;stroke-width:0.5;" width="181" x="7" y="428"/><ellipse cx="48.55" cy="444" fill="#ADD1B2" rx="11" ry="11" style="stroke:#181818;stroke-width:1.0;"/><path d="M50.55,440.5 Q50.7531,440 50.9875,439.75 Q51.2219,439.5 51.4875,439.5 Q51.9563,439.5 52.2531,439.7813 Q52.55,440.0625 52.55,440.7188 L52.55,442.2813 Q52.55,442.9375 52.2688,443.2188 Q51.9875,443.5 51.55,443.5 Q51.1594,443.5 50.9094,443.3281 Q50.6594,443.1563 50.55,442.7031 Q50.5031,442.3906 50.3313,442.2188 Q50.0188,441.8906 49.4563,441.7031 Q48.8938,441.5 48.3313,441.5 Q47.6281,441.5 47.0344,441.7813 Q46.4563,442.0625 46.0031,442.6875 Q45.55,443.3125 45.55,444.1719 L45.55,445.0938 Q45.55,446.125 46.3938,446.8125 Q47.2375,447.5 48.7375,447.5 Q49.6281,447.5 50.2531,447.2969 Q50.6125,447.1875 51.0188,446.8281 Q51.2844,446.625 51.425,446.5625 Q51.5656,446.5 51.7375,446.5 Q52.0656,446.5 52.3,446.7656 Q52.55,447.0156 52.55,447.375 Q52.55,447.7188 52.2063,448.125 Q51.7063,448.7188 50.9094,449.0469 Q49.8625,449.5 48.5813,449.5 Q47.0813,449.5 45.8781,448.9063 Q44.9094,448.4375 44.2219,447.4219 Q43.55,446.4063 43.55,445.2031 L43.55,444.1094 Q43.55,442.8594 44.1438,441.7656 Q44.7531,440.6719 45.8,440.0938 Q46.8625,439.5 48.05,439.5 Q48.7688,439.5 49.3938,439.75 Q50.0188,440 50.55,440.5 Z " fill="#000000"/><text fill="#000000" font-family="sans-serif" font-size="14" lengthAdjust="spacing" textLength="90" x="68.45" y="449.7285">SNSUserStore</text><line style="stroke:#181818;stroke-width:0.5;" x1="8" x2="187" y1="460" y2="460"/><text fill="#000000" font-family="sans-serif" font-size="14" lengthAdjust="spacing" textLength="129" x="13" y="478.5332">-int SNSUserNumber</text><line style="stroke:#181818;stroke-width:1.0;" x1="8" x2="187" y1="485.6094" y2="485.6094"/><text fill="#000000" font-family="sans-serif" font-size="14" lengthAdjust="spacing" textLength="169" x="13" y="504.1426">+boolean verifyIfUserExists</text></g><!--MD5=[0477ed937fc025f73336243a9c4b23f5]
class VaccineScheduleStore--><g id="elem_VaccineScheduleStore"><rect codeLine="10" fill="#F1F1F1" height="100.8281" id="VaccineScheduleStore" rx="2.5" ry="2.5" style="stroke:#181818;stroke-width:0.5;" width="228" x="223.5" y="419"/><ellipse cx="262.35" cy="435" fill="#ADD1B2" rx="11" ry="11" style="stroke:#181818;stroke-width:1.0;"/><path d="M264.35,431.5 Q264.5531,431 264.7875,430.75 Q265.0219,430.5 265.2875,430.5 Q265.7563,430.5 266.0531,430.7813 Q266.35,431.0625 266.35,431.7188 L266.35,433.2813 Q266.35,433.9375 266.0688,434.2188 Q265.7875,434.5 265.35,434.5 Q264.9594,434.5 264.7094,434.3281 Q264.4594,434.1563 264.35,433.7031 Q264.3031,433.3906 264.1313,433.2188 Q263.8188,432.8906 263.2563,432.7031 Q262.6938,432.5 262.1313,432.5 Q261.4281,432.5 260.8344,432.7813 Q260.2563,433.0625 259.8031,433.6875 Q259.35,434.3125 259.35,435.1719 L259.35,436.0938 Q259.35,437.125 260.1938,437.8125 Q261.0375,438.5 262.5375,438.5 Q263.4281,438.5 264.0531,438.2969 Q264.4125,438.1875 264.8188,437.8281 Q265.0844,437.625 265.225,437.5625 Q265.3656,437.5 265.5375,437.5 Q265.8656,437.5 266.1,437.7656 Q266.35,438.0156 266.35,438.375 Q266.35,438.7188 266.0063,439.125 Q265.5063,439.7188 264.7094,440.0469 Q263.6625,440.5 262.3813,440.5 Q260.8813,440.5 259.6781,439.9063 Q258.7094,439.4375 258.0219,438.4219 Q257.35,437.4063 257.35,436.2031 L257.35,435.1094 Q257.35,433.8594 257.9438,432.7656 Q258.5531,431.6719 259.6,431.0938 Q260.6625,430.5 261.85,430.5 Q262.5688,430.5 263.1938,430.75 Q263.8188,431 264.35,431.5 Z " fill="#000000"/><text fill="#000000" font-family="sans-serif" font-size="14" lengthAdjust="spacing" textLength="143" x="281.65" y="440.7285">VaccineScheduleStore</text><line style="stroke:#181818;stroke-width:0.5;" x1="224.5" x2="450.5" y1="451" y2="451"/><text fill="#000000" font-family="sans-serif" font-size="14" lengthAdjust="spacing" textLength="129" x="229.5" y="469.5332">-int SNSUserNumber</text><line style="stroke:#181818;stroke-width:1.0;" x1="224.5" x2="450.5" y1="476.6094" y2="476.6094"/><text fill="#000000" font-family="sans-serif" font-size="14" lengthAdjust="spacing" textLength="216" x="229.5" y="495.1426">+boolean verifyIfUserHasSchedule</text><text fill="#000000" font-family="sans-serif" font-size="14" lengthAdjust="spacing" textLength="194" x="229.5" y="512.752">+String vaccineScheduledData</text></g><!--MD5=[aaa7e27c4ec43917c82a021675d2c87a]
class WaitingRoom--><g id="elem_WaitingRoom"><rect codeLine="17" fill="#F1F1F1" height="65.6094" id="WaitingRoom" rx="2.5" ry="2.5" style="stroke:#181818;stroke-width:0.5;" width="170" x="486.5" y="436.5"/><ellipse cx="525.8" cy="452.5" fill="#ADD1B2" rx="11" ry="11" style="stroke:#181818;stroke-width:1.0;"/><path d="M527.8,449 Q528.0031,448.5 528.2375,448.25 Q528.4719,448 528.7375,448 Q529.2063,448 529.5031,448.2813 Q529.8,448.5625 529.8,449.2188 L529.8,450.7813 Q529.8,451.4375 529.5188,451.7188 Q529.2375,452 528.8,452 Q528.4094,452 528.1594,451.8281 Q527.9094,451.6563 527.8,451.2031 Q527.7531,450.8906 527.5813,450.7188 Q527.2688,450.3906 526.7063,450.2031 Q526.1438,450 525.5813,450 Q524.8781,450 524.2844,450.2813 Q523.7063,450.5625 523.2531,451.1875 Q522.8,451.8125 522.8,452.6719 L522.8,453.5938 Q522.8,454.625 523.6438,455.3125 Q524.4875,456 525.9875,456 Q526.8781,456 527.5031,455.7969 Q527.8625,455.6875 528.2688,455.3281 Q528.5344,455.125 528.675,455.0625 Q528.8156,455 528.9875,455 Q529.3156,455 529.55,455.2656 Q529.8,455.5156 529.8,455.875 Q529.8,456.2188 529.4563,456.625 Q528.9563,457.2188 528.1594,457.5469 Q527.1125,458 525.8313,458 Q524.3313,458 523.1281,457.4063 Q522.1594,456.9375 521.4719,455.9219 Q520.8,454.9063 520.8,453.7031 L520.8,452.6094 Q520.8,451.3594 521.3938,450.2656 Q522.0031,449.1719 523.05,448.5938 Q524.1125,448 525.3,448 Q526.0188,448 526.6438,448.25 Q527.2688,448.5 527.8,449 Z " fill="#000000"/><text fill="#000000" font-family="sans-serif" font-size="14" lengthAdjust="spacing" textLength="84" x="545.2" y="458.2285">WaitingRoom</text><line style="stroke:#181818;stroke-width:0.5;" x1="487.5" x2="655.5" y1="468.5" y2="468.5"/><text fill="#000000" font-family="sans-serif" font-size="14" lengthAdjust="spacing" textLength="158" x="492.5" y="487.0332">-checkVaccinationCenter</text><line style="stroke:#181818;stroke-width:0.5;" x1="487.5" x2="655.5" y1="494.1094" y2="494.1094"/></g><!--MD5=[d00c33ad4edfd500cc17726e3f087f0b]
class UserArrivalReceptionistController--><g id="elem_UserArrivalReceptionistController"><rect codeLine="21" fill="#F1F1F1" height="136.0469" id="UserArrivalReceptionistController" rx="2.5" ry="2.5" style="stroke:#181818;stroke-width:0.5;" width="241" x="334" y="223"/><ellipse cx="349" cy="239" fill="#ADD1B2" rx="11" ry="11" style="stroke:#181818;stroke-width:1.0;"/><path d="M351,235.5 Q351.2031,235 351.4375,234.75 Q351.6719,234.5 351.9375,234.5 Q352.4063,234.5 352.7031,234.7813 Q353,235.0625 353,235.7188 L353,237.2813 Q353,237.9375 352.7188,238.2188 Q352.4375,238.5 352,238.5 Q351.6094,238.5 351.3594,238.3281 Q351.1094,238.1563 351,237.7031 Q350.9531,237.3906 350.7813,237.2188 Q350.4688,236.8906 349.9063,236.7031 Q349.3438,236.5 348.7813,236.5 Q348.0781,236.5 347.4844,236.7813 Q346.9063,237.0625 346.4531,237.6875 Q346,238.3125 346,239.1719 L346,240.0938 Q346,241.125 346.8438,241.8125 Q347.6875,242.5 349.1875,242.5 Q350.0781,242.5 350.7031,242.2969 Q351.0625,242.1875 351.4688,241.8281 Q351.7344,241.625 351.875,241.5625 Q352.0156,241.5 352.1875,241.5 Q352.5156,241.5 352.75,241.7656 Q353,242.0156 353,242.375 Q353,242.7188 352.6563,243.125 Q352.1563,243.7188 351.3594,244.0469 Q350.3125,244.5 349.0313,244.5 Q347.5313,244.5 346.3281,243.9063 Q345.3594,243.4375 344.6719,242.4219 Q344,241.4063 344,240.2031 L344,239.1094 Q344,237.8594 344.5938,236.7656 Q345.2031,235.6719 346.25,235.0938 Q347.3125,234.5 348.5,234.5 Q349.2188,234.5 349.8438,234.75 Q350.4688,235 351,235.5 Z " fill="#000000"/><text fill="#000000" font-family="sans-serif" font-size="14" lengthAdjust="spacing" textLength="209" x="363" y="244.7285">UserArrivalReceptionistController</text><line style="stroke:#181818;stroke-width:0.5;" x1="335" x2="574" y1="255" y2="255"/><text fill="#000000" font-family="sans-serif" font-size="14" lengthAdjust="spacing" textLength="161" x="340" y="273.5332">+verifyIfUserHasSchedule</text><text fill="#000000" font-family="sans-serif" font-size="14" lengthAdjust="spacing" textLength="114" x="340" y="291.1426">+verifyIfUserExists</text><text fill="#000000" font-family="sans-serif" font-size="14" lengthAdjust="spacing" textLength="117" x="340" y="308.752">+getScheduleData</text><text fill="#000000" font-family="sans-serif" font-size="14" lengthAdjust="spacing" textLength="168" x="340" y="326.3613">+checkIfUserIsInCorrectVC</text><text fill="#000000" font-family="sans-serif" font-size="14" lengthAdjust="spacing" textLength="172" x="340" y="343.9707">+moveUserToWaitingRoom</text><line style="stroke:#181818;stroke-width:0.5;" x1="335" x2="574" y1="351.0469" y2="351.0469"/></g><!--MD5=[802daa582a17669c3ad2adb9278f3df6]
class ReceptinoistUI--><g id="elem_ReceptinoistUI"><rect codeLine="30" fill="#F1F1F1" height="48" id="ReceptinoistUI" rx="2.5" ry="2.5" style="stroke:#181818;stroke-width:0.5;" width="122" x="393.5" y="7"/><ellipse cx="408.5" cy="23" fill="#ADD1B2" rx="11" ry="11" style="stroke:#181818;stroke-width:1.0;"/><path d="M410.5,19.5 Q410.7031,19 410.9375,18.75 Q411.1719,18.5 411.4375,18.5 Q411.9063,18.5 412.2031,18.7813 Q412.5,19.0625 412.5,19.7188 L412.5,21.2813 Q412.5,21.9375 412.2188,22.2188 Q411.9375,22.5 411.5,22.5 Q411.1094,22.5 410.8594,22.3281 Q410.6094,22.1563 410.5,21.7031 Q410.4531,21.3906 410.2813,21.2188 Q409.9688,20.8906 409.4063,20.7031 Q408.8438,20.5 408.2813,20.5 Q407.5781,20.5 406.9844,20.7813 Q406.4063,21.0625 405.9531,21.6875 Q405.5,22.3125 405.5,23.1719 L405.5,24.0938 Q405.5,25.125 406.3438,25.8125 Q407.1875,26.5 408.6875,26.5 Q409.5781,26.5 410.2031,26.2969 Q410.5625,26.1875 410.9688,25.8281 Q411.2344,25.625 411.375,25.5625 Q411.5156,25.5 411.6875,25.5 Q412.0156,25.5 412.25,25.7656 Q412.5,26.0156 412.5,26.375 Q412.5,26.7188 412.1563,27.125 Q411.6563,27.7188 410.8594,28.0469 Q409.8125,28.5 408.5313,28.5 Q407.0313,28.5 405.8281,27.9063 Q404.8594,27.4375 404.1719,26.4219 Q403.5,25.4063 403.5,24.2031 L403.5,23.1094 Q403.5,21.8594 404.0938,20.7656 Q404.7031,19.6719 405.75,19.0938 Q406.8125,18.5 408,18.5 Q408.7188,18.5 409.3438,18.75 Q409.9688,19 410.5,19.5 Z " fill="#000000"/><text fill="#000000" font-family="sans-serif" font-size="14" lengthAdjust="spacing" textLength="90" x="422.5" y="28.7285">ReceptinoistUI</text><line style="stroke:#181818;stroke-width:0.5;" x1="394.5" x2="514.5" y1="39" y2="39"/><line style="stroke:#181818;stroke-width:0.5;" x1="394.5" x2="514.5" y1="47" y2="47"/></g><!--MD5=[142cab700f8124b129a4793eba80d171]
class UserArrivalReceptionistUI--><g id="elem_UserArrivalReceptionistUI"><rect codeLine="33" fill="#F1F1F1" height="48" id="UserArrivalReceptionistUI" rx="2.5" ry="2.5" style="stroke:#181818;stroke-width:0.5;" width="191" x="359" y="115"/><ellipse cx="374" cy="131" fill="#ADD1B2" rx="11" ry="11" style="stroke:#181818;stroke-width:1.0;"/><path d="M376,127.5 Q376.2031,127 376.4375,126.75 Q376.6719,126.5 376.9375,126.5 Q377.4063,126.5 377.7031,126.7813 Q378,127.0625 378,127.7188 L378,129.2813 Q378,129.9375 377.7188,130.2188 Q377.4375,130.5 377,130.5 Q376.6094,130.5 376.3594,130.3281 Q376.1094,130.1563 376,129.7031 Q375.9531,129.3906 375.7813,129.2188 Q375.4688,128.8906 374.9063,128.7031 Q374.3438,128.5 373.7813,128.5 Q373.0781,128.5 372.4844,128.7813 Q371.9063,129.0625 371.4531,129.6875 Q371,130.3125 371,131.1719 L371,132.0938 Q371,133.125 371.8438,133.8125 Q372.6875,134.5 374.1875,134.5 Q375.0781,134.5 375.7031,134.2969 Q376.0625,134.1875 376.4688,133.8281 Q376.7344,133.625 376.875,133.5625 Q377.0156,133.5 377.1875,133.5 Q377.5156,133.5 377.75,133.7656 Q378,134.0156 378,134.375 Q378,134.7188 377.6563,135.125 Q377.1563,135.7188 376.3594,136.0469 Q375.3125,136.5 374.0313,136.5 Q372.5313,136.5 371.3281,135.9063 Q370.3594,135.4375 369.6719,134.4219 Q369,133.4063 369,132.2031 L369,131.1094 Q369,129.8594 369.5938,128.7656 Q370.2031,127.6719 371.25,127.0938 Q372.3125,126.5 373.5,126.5 Q374.2188,126.5 374.8438,126.75 Q375.4688,127 376,127.5 Z " fill="#000000"/><text fill="#000000" font-family="sans-serif" font-size="14" lengthAdjust="spacing" textLength="159" x="388" y="136.7285">UserArrivalReceptionistUI</text><line style="stroke:#181818;stroke-width:0.5;" x1="360" x2="549" y1="147" y2="147"/><line style="stroke:#181818;stroke-width:0.5;" x1="360" x2="549" y1="155" y2="155"/></g><!--MD5=[02e4b9b7573f1156f41e60aa5b4e25a4]
class Company--><g id="elem_Company"><rect codeLine="36" fill="#F1F1F1" height="65.6094" id="Company" rx="2.5" ry="2.5" style="stroke:#181818;stroke-width:0.5;" width="155" x="692" y="436.5"/><ellipse cx="735.35" cy="452.5" fill="#ADD1B2" rx="11" ry="11" style="stroke:#181818;stroke-width:1.0;"/><path d="M737.35,449 Q737.5531,448.5 737.7875,448.25 Q738.0219,448 738.2875,448 Q738.7563,448 739.0531,448.2813 Q739.35,448.5625 739.35,449.2188 L739.35,450.7813 Q739.35,451.4375 739.0688,451.7188 Q738.7875,452 738.35,452 Q737.9594,452 737.7094,451.8281 Q737.4594,451.6563 737.35,451.2031 Q737.3031,450.8906 737.1313,450.7188 Q736.8188,450.3906 736.2563,450.2031 Q735.6938,450 735.1313,450 Q734.4281,450 733.8344,450.2813 Q733.2563,450.5625 732.8031,451.1875 Q732.35,451.8125 732.35,452.6719 L732.35,453.5938 Q732.35,454.625 733.1938,455.3125 Q734.0375,456 735.5375,456 Q736.4281,456 737.0531,455.7969 Q737.4125,455.6875 737.8188,455.3281 Q738.0844,455.125 738.225,455.0625 Q738.3656,455 738.5375,455 Q738.8656,455 739.1,455.2656 Q739.35,455.5156 739.35,455.875 Q739.35,456.2188 739.0063,456.625 Q738.5063,457.2188 737.7094,457.5469 Q736.6625,458 735.3813,458 Q733.8813,458 732.6781,457.4063 Q731.7094,456.9375 731.0219,455.9219 Q730.35,454.9063 730.35,453.7031 L730.35,452.6094 Q730.35,451.3594 730.9438,450.2656 Q731.5531,449.1719 732.6,448.5938 Q733.6625,448 734.85,448 Q735.5688,448 736.1938,448.25 Q736.8188,448.5 737.35,449 Z " fill="#000000"/><text fill="#000000" font-family="sans-serif" font-size="14" lengthAdjust="spacing" textLength="60" x="755.65" y="458.2285">Company</text><line style="stroke:#181818;stroke-width:0.5;" x1="693" x2="846" y1="468.5" y2="468.5"/><text fill="#000000" font-family="sans-serif" font-size="14" lengthAdjust="spacing" textLength="143" x="698" y="487.0332">-getWaitingRoomStore</text><line style="stroke:#181818;stroke-width:0.5;" x1="693" x2="846" y1="494.1094" y2="494.1094"/></g><!--MD5=[152bcf0cc0a680aba2ecda597e69d5eb]
link ReceptinoistUI to UserArrivalReceptionistUI--><g id="link_ReceptinoistUI_UserArrivalReceptionistUI"><path codeLine="40" d="M454.5,55 C454.5,71 454.5,92.45 454.5,109.53 " fill="none" id="ReceptinoistUI-to-UserArrivalReceptionistUI" style="stroke:#181818;stroke-width:1.0;stroke-dasharray:7.0,7.0;"/><polygon fill="#181818" points="454.5,114.68,458.5,105.68,454.5,109.68,450.5,105.68,454.5,114.68" style="stroke:#181818;stroke-width:1.0;"/></g><!--MD5=[44f86ecad8a216ad8309fa919f425d18]
link UserArrivalReceptionistUI to UserArrivalReceptionistController--><g id="link_UserArrivalReceptionistUI_UserArrivalReceptionistController"><path codeLine="41" d="M454.5,163.11 C454.5,177.88 454.5,197.92 454.5,217.71 " fill="none" id="UserArrivalReceptionistUI-to-UserArrivalReceptionistController" style="stroke:#181818;stroke-width:1.0;stroke-dasharray:7.0,7.0;"/><polygon fill="#181818" points="454.5,222.74,458.5,213.74,454.5,217.74,450.5,213.74,454.5,222.74" style="stroke:#181818;stroke-width:1.0;"/></g><!--MD5=[3caa876477f30050901dc723fd0e08b5]
link UserArrivalReceptionistController to WaitingRoom--><g id="link_UserArrivalReceptionistController_WaitingRoom"><path codeLine="42" d="M499.07,359.23 C515.47,383.97 533.42,411.05 547.34,432.06 " fill="none" id="UserArrivalReceptionistController-to-WaitingRoom" style="stroke:#181818;stroke-width:1.0;stroke-dasharray:7.0,7.0;"/><polygon fill="#181818" points="550.25,436.45,548.6013,426.7401,547.4831,432.2854,541.9378,431.1672,550.25,436.45" style="stroke:#181818;stroke-width:1.0;"/></g><!--MD5=[540958d3d9f7887dcaa5a8bd2c78a725]
link UserArrivalReceptionistController to VaccineScheduleStore--><g id="link_UserArrivalReceptionistController_VaccineScheduleStore"><path codeLine="43" d="M409.93,359.23 C397.85,377.46 384.92,396.96 373.38,414.37 " fill="none" id="UserArrivalReceptionistController-to-VaccineScheduleStore" style="stroke:#181818;stroke-width:1.0;stroke-dasharray:7.0,7.0;"/><polygon fill="#181818" points="370.48,418.75,378.7796,413.4474,373.237,414.5788,372.1056,409.0362,370.48,418.75" style="stroke:#181818;stroke-width:1.0;"/></g><!--MD5=[eee70a8bc11e376d878774acae3e3771]
link UserArrivalReceptionistController to SNSUserStore--><g id="link_UserArrivalReceptionistController_SNSUserStore"><path codeLine="44" d="M333.64,351.75 C284.55,376.02 228.95,403.51 184.03,425.72 " fill="none" id="UserArrivalReceptionistController-to-SNSUserStore" style="stroke:#181818;stroke-width:1.0;stroke-dasharray:7.0,7.0;"/><polygon fill="#181818" points="179.45,427.99,189.2909,427.5931,183.9335,425.7768,185.7497,420.4195,179.45,427.99" style="stroke:#181818;stroke-width:1.0;"/></g><!--MD5=[551c43152d2aa5170dfc4dd27ba43596]
link UserArrivalReceptionistController to Company--><g id="link_UserArrivalReceptionistController_Company"><path codeLine="45" d="M574.49,359.23 C619.93,384.69 669.8,412.64 707.73,433.89 " fill="none" id="UserArrivalReceptionistController-to-Company" style="stroke:#181818;stroke-width:1.0;stroke-dasharray:7.0,7.0;"/><polygon fill="#181818" points="712.3,436.45,706.4058,428.5596,707.9387,434.0048,702.4935,435.5377,712.3,436.45" style="stroke:#181818;stroke-width:1.0;"/></g><!--MD5=[048a8a0c2f1b67e14ebf73ce6e7c62aa]
@startuml
skinparam classAttributeIconSize 0


class SNSUserStore {
  -int SNSUserNumber
  - - -
  +boolean verifyIfUserExists
}

class VaccineScheduleStore {
  -int SNSUserNumber
 - - -
 +boolean verifyIfUserHasSchedule
 +String vaccineScheduledData
}

class WaitingRoom {
-checkVaccinationCenter
}

class UserArrivalReceptionistController {
  +verifyIfUserHasSchedule
  +verifyIfUserExists
  +getScheduleData
  +checkIfUserIsInCorrectVC
  +moveUserToWaitingRoom

  }

class ReceptinoistUI {
}

class UserArrivalReceptionistUI {
}

class Company {
-getWaitingRoomStore
}

ReceptinoistUI ..> UserArrivalReceptionistUI
UserArrivalReceptionistUI ..> UserArrivalReceptionistController
UserArrivalReceptionistController ..> WaitingRoom
UserArrivalReceptionistController ..> VaccineScheduleStore
UserArrivalReceptionistController ..> SNSUserStore
UserArrivalReceptionistController ..> Company

@enduml

PlantUML version 1.2022.5(Sat Apr 30 11:55:52 BST 2022)
(GPL source distribution)
Java Runtime: OpenJDK Runtime Environment
JVM: OpenJDK 64-Bit Server VM
Default Encoding: Cp1252
Language: pt
Country: PT
--></g></svg>