<?xml version="1.0" encoding="UTF-8" standalone="no"?><svg xmlns="http://www.w3.org/2000/svg" xmlns:xlink="http://www.w3.org/1999/xlink" contentStyleType="text/css" height="602px" preserveAspectRatio="none" style="width:511px;height:602px;background:#FFFFFF;" version="1.1" viewBox="0 0 511 602" width="511px" zoomAndPan="magnify"><defs/><g><rect fill="#FFFFFF" height="417.7266" style="stroke:#181818;stroke-width:1.0;" width="10" x="77" y="92.6094"/><rect fill="#FFFFFF" height="402.7266" style="stroke:#181818;stroke-width:1.0;" width="10" x="439" y="92.6094"/><rect height="312.6719" style="stroke:#000000;stroke-width:1.5;fill:none;" width="494" x="10" y="190.6641"/><rect height="234.1328" style="stroke:#000000;stroke-width:1.5;fill:none;" width="474" x="20" y="216.0156"/><rect height="94.8906" style="stroke:#000000;stroke-width:1.5;fill:none;" width="454" x="30" y="302.0703"/><line style="stroke:#181818;stroke-width:0.5;fill:none;stroke-dasharray:5.0,5.0;" x1="82" x2="82" y1="82.6094" y2="520.3359"/><line style="stroke:#181818;stroke-width:0.5;fill:none;stroke-dasharray:5.0,5.0;" x1="444" x2="444" y1="82.6094" y2="520.3359"/><text fill="#000000" font-family="sans-serif" font-size="14" lengthAdjust="spacing" textLength="78" x="40" y="79.5332">Receptionist</text><ellipse cx="82" cy="13.5" fill="#E2E2F0" rx="8" ry="8" style="stroke:#181818;stroke-width:0.5;"/><path d="M82,21.5 L82,48.5 M69,29.5 L95,29.5 M82,48.5 L69,63.5 M82,48.5 L95,63.5 " fill="none" style="stroke:#181818;stroke-width:0.5;"/><text fill="#000000" font-family="sans-serif" font-size="14" lengthAdjust="spacing" textLength="78" x="40" y="533.8691">Receptionist</text><ellipse cx="82" cy="545.4453" fill="#E2E2F0" rx="8" ry="8" style="stroke:#181818;stroke-width:0.5;"/><path d="M82,553.4453 L82,580.4453 M69,561.4453 L95,561.4453 M82,580.4453 L69,595.4453 M82,580.4453 L95,595.4453 " fill="none" style="stroke:#181818;stroke-width:0.5;"/><rect fill="#E2E2F0" height="31.6094" rx="2.5" ry="2.5" style="stroke:#181818;stroke-width:0.5;" width="60" x="414" y="50"/><text fill="#000000" font-family="sans-serif" font-size="14" lengthAdjust="spacing" textLength="46" x="421" y="71.5332">System</text><rect fill="#E2E2F0" height="31.6094" rx="2.5" ry="2.5" style="stroke:#181818;stroke-width:0.5;" width="60" x="414" y="519.3359"/><text fill="#000000" font-family="sans-serif" font-size="14" lengthAdjust="spacing" textLength="46" x="421" y="540.8691">System</text><rect fill="#FFFFFF" height="417.7266" style="stroke:#181818;stroke-width:1.0;" width="10" x="77" y="92.6094"/><rect fill="#FFFFFF" height="402.7266" style="stroke:#181818;stroke-width:1.0;" width="10" x="439" y="92.6094"/><polygon fill="#181818" points="427,110.9609,437,114.9609,427,118.9609,431,114.9609" style="stroke:#181818;stroke-width:1.0;"/><line style="stroke:#181818;stroke-width:1.0;" x1="87" x2="433" y1="114.9609" y2="114.9609"/><text fill="#000000" font-family="sans-serif" font-size="13" font-weight="bold" lengthAdjust="spacing" textLength="7" x="94" y="110.1045">1</text><text fill="#000000" font-family="sans-serif" font-size="13" lengthAdjust="spacing" textLength="294" x="105" y="110.1045">selects option to register the arrival of an SNS user</text><polygon fill="#181818" points="98,141.3125,88,145.3125,98,149.3125,94,145.3125" style="stroke:#181818;stroke-width:1.0;"/><line style="stroke:#181818;stroke-width:1.0;stroke-dasharray:2.0,2.0;" x1="92" x2="438" y1="145.3125" y2="145.3125"/><text fill="#000000" font-family="sans-serif" font-size="13" font-weight="bold" lengthAdjust="spacing" textLength="7" x="104" y="140.4561">2</text><text fill="#000000" font-family="sans-serif" font-size="13" lengthAdjust="spacing" textLength="166" x="115" y="140.4561">requests SNS user's number</text><polygon fill="#181818" points="427,171.6641,437,175.6641,427,179.6641,431,175.6641" style="stroke:#181818;stroke-width:1.0;"/><line style="stroke:#181818;stroke-width:1.0;" x1="87" x2="433" y1="175.6641" y2="175.6641"/><text fill="#000000" font-family="sans-serif" font-size="13" font-weight="bold" lengthAdjust="spacing" textLength="7" x="94" y="170.8076">3</text><text fill="#000000" font-family="sans-serif" font-size="13" lengthAdjust="spacing" textLength="122" x="105" y="170.8076">types requested data</text><path d="M10,190.6641 L71,190.6641 L71,199.0156 L61,209.0156 L10,209.0156 L10,190.6641 " fill="#EEEEEE" style="stroke:#000000;stroke-width:1.5;"/><rect fill="none" height="312.6719" style="stroke:#000000;stroke-width:1.5;" width="494" x="10" y="190.6641"/><text fill="#000000" font-family="sans-serif" font-size="13" font-weight="bold" lengthAdjust="spacing" textLength="16" x="25" y="205.1592">alt</text><text fill="#000000" font-family="sans-serif" font-size="11" font-weight="bold" lengthAdjust="spacing" textLength="154" x="86" y="204.083">[(user exists) is (true) then]</text><path d="M20,216.0156 L81,216.0156 L81,224.3672 L71,234.3672 L20,234.3672 L20,216.0156 " fill="#EEEEEE" style="stroke:#000000;stroke-width:1.5;"/><rect fill="none" height="234.1328" style="stroke:#000000;stroke-width:1.5;" width="474" x="20" y="216.0156"/><text fill="#000000" font-family="sans-serif" font-size="13" font-weight="bold" lengthAdjust="spacing" textLength="16" x="35" y="230.5107">alt</text><text fill="#000000" font-family="sans-serif" font-size="11" font-weight="bold" lengthAdjust="spacing" textLength="245" x="96" y="229.4346">[(user has vaccine scheduled) is (true) then]</text><polygon fill="#181818" points="98,252.7188,88,256.7188,98,260.7188,94,256.7188" style="stroke:#181818;stroke-width:1.0;"/><line style="stroke:#181818;stroke-width:1.0;stroke-dasharray:2.0,2.0;" x1="92" x2="438" y1="256.7188" y2="256.7188"/><text fill="#000000" font-family="sans-serif" font-size="13" font-weight="bold" lengthAdjust="spacing" textLength="7" x="104" y="251.8623">4</text><text fill="#000000" font-family="sans-serif" font-size="13" lengthAdjust="spacing" textLength="236" x="115" y="251.8623">shows all data and requests confirmation</text><polygon fill="#181818" points="427,283.0703,437,287.0703,427,291.0703,431,287.0703" style="stroke:#181818;stroke-width:1.0;"/><line style="stroke:#181818;stroke-width:1.0;" x1="87" x2="433" y1="287.0703" y2="287.0703"/><text fill="#000000" font-family="sans-serif" font-size="13" font-weight="bold" lengthAdjust="spacing" textLength="7" x="94" y="282.2139">5</text><text fill="#000000" font-family="sans-serif" font-size="13" lengthAdjust="spacing" textLength="78" x="105" y="282.2139">confirms data</text><path d="M30,302.0703 L91,302.0703 L91,310.4219 L81,320.4219 L30,320.4219 L30,302.0703 " fill="#EEEEEE" style="stroke:#000000;stroke-width:1.5;"/><rect fill="none" height="94.8906" style="stroke:#000000;stroke-width:1.5;" width="454" x="30" y="302.0703"/><text fill="#000000" font-family="sans-serif" font-size="13" font-weight="bold" lengthAdjust="spacing" textLength="16" x="45" y="316.5654">alt</text><text fill="#000000" font-family="sans-serif" font-size="11" font-weight="bold" lengthAdjust="spacing" textLength="289" x="106" y="315.4893">[(user is in correct vaccination center) is (true) then]</text><polygon fill="#181818" points="98,338.7734,88,342.7734,98,346.7734,94,342.7734" style="stroke:#181818;stroke-width:1.0;"/><line style="stroke:#181818;stroke-width:1.0;stroke-dasharray:2.0,2.0;" x1="92" x2="438" y1="342.7734" y2="342.7734"/><text fill="#000000" font-family="sans-serif" font-size="13" font-weight="bold" lengthAdjust="spacing" textLength="7" x="104" y="337.917">6</text><text fill="#000000" font-family="sans-serif" font-size="13" lengthAdjust="spacing" textLength="152" x="115" y="337.917">informs operation success</text><line style="stroke:#000000;stroke-width:1.0;stroke-dasharray:2.0,2.0;" x1="30" x2="484" y1="351.7734" y2="351.7734"/><text fill="#000000" font-family="sans-serif" font-size="11" font-weight="bold" lengthAdjust="spacing" textLength="43" x="35" y="363.1924">[(false)]</text><polygon fill="#181818" points="98,384.9609,88,388.9609,98,392.9609,94,388.9609" style="stroke:#181818;stroke-width:1.0;"/><line style="stroke:#181818;stroke-width:1.0;stroke-dasharray:2.0,2.0;" x1="92" x2="438" y1="388.9609" y2="388.9609"/><text fill="#000000" font-family="sans-serif" font-size="13" font-weight="bold" lengthAdjust="spacing" textLength="7" x="104" y="384.1045">7</text><text fill="#000000" font-family="sans-serif" font-size="13" lengthAdjust="spacing" textLength="317" x="115" y="384.1045">informs the user is not in the correct vaccination center</text><line style="stroke:#000000;stroke-width:1.0;stroke-dasharray:2.0,2.0;" x1="20" x2="494" y1="404.9609" y2="404.9609"/><text fill="#000000" font-family="sans-serif" font-size="11" font-weight="bold" lengthAdjust="spacing" textLength="43" x="25" y="416.3799">[(false)]</text><polygon fill="#181818" points="98,438.1484,88,442.1484,98,446.1484,94,442.1484" style="stroke:#181818;stroke-width:1.0;"/><line style="stroke:#181818;stroke-width:1.0;stroke-dasharray:2.0,2.0;" x1="92" x2="438" y1="442.1484" y2="442.1484"/><text fill="#000000" font-family="sans-serif" font-size="13" font-weight="bold" lengthAdjust="spacing" textLength="7" x="104" y="437.292">8</text><text fill="#000000" font-family="sans-serif" font-size="13" lengthAdjust="spacing" textLength="298" x="115" y="437.292">informs the user does not have a vaccine scheduled</text><line style="stroke:#000000;stroke-width:1.0;stroke-dasharray:2.0,2.0;" x1="10" x2="504" y1="458.1484" y2="458.1484"/><text fill="#000000" font-family="sans-serif" font-size="11" font-weight="bold" lengthAdjust="spacing" textLength="43" x="15" y="469.5674">[(false)]</text><polygon fill="#181818" points="98,491.3359,88,495.3359,98,499.3359,94,495.3359" style="stroke:#181818;stroke-width:1.0;"/><line style="stroke:#181818;stroke-width:1.0;stroke-dasharray:2.0,2.0;" x1="92" x2="443" y1="495.3359" y2="495.3359"/><text fill="#000000" font-family="sans-serif" font-size="13" font-weight="bold" lengthAdjust="spacing" textLength="7" x="104" y="490.4795">9</text><text fill="#000000" font-family="sans-serif" font-size="13" lengthAdjust="spacing" textLength="179" x="115" y="490.4795">informs the user does not exist</text><!--MD5=[c827e8369a08efe5dd1f4ee4377d2ab6]
@startuml
autonumber
actor "Receptionist" as VCR

activate VCR
activate "System"
VCR -> "System" : selects option to register the arrival of an SNS user

"System" - -> VCR : requests SNS user's number

VCR -> "System" : types requested data

alt (user exists) is (true) then

alt (user has vaccine scheduled) is (true) then

"System" - -> VCR : shows all data and requests confirmation

VCR -> "System" : confirms data

alt (user is in correct vaccination center) is (true) then

"System" - -> VCR : informs operation success
else (false)

"System" - -> VCR : informs the user is not in the correct vaccination center

end
else (false)

"System" - -> VCR : informs the user does not have a vaccine scheduled

end
else (false)

"System" - -> VCR : informs the user does not exist

deactivate "System"
end

deactivate VCR

@enduml

PlantUML version 1.2022.5(Sat Apr 30 11:55:52 BST 2022)
(GPL source distribution)
Java Runtime: OpenJDK Runtime Environment
JVM: OpenJDK 64-Bit Server VM
Default Encoding: Cp1252
Language: pt
Country: PT
--></g></svg>