<?xml version="1.0" encoding="UTF-8" standalone="no"?><svg xmlns="http://www.w3.org/2000/svg" xmlns:xlink="http://www.w3.org/1999/xlink" contentStyleType="text/css" height="542.5px" preserveAspectRatio="none" style="width:265px;height:542px;background:#FFFFFF;" version="1.1" viewBox="0 0 265 542" width="265.3px" zoomAndPan="magnify"><defs/><g><!--MD5=[86c7c362de55a38b660185a1328fe18d]
class Organization--><g id="elem_Organization"><rect codeLine="34" fill="#F1F1F1" height="45.9266" id="Organization" rx="1.75" ry="1.75" style="stroke:#181818;stroke-width:0.3499999999999999;" width="78.4" x="66.15" y="93.1"/><ellipse cx="76.65" cy="104.3" fill="#ADD1B2" rx="7.7" ry="7.7" style="stroke:#181818;stroke-width:0.6999999999999998;"/><path d="M78.05,101.85 Q78.1922,101.5 78.3562,101.325 Q78.5203,101.15 78.7062,101.15 Q79.0344,101.15 79.2422,101.3469 Q79.45,101.5437 79.45,102.0031 L79.45,103.0969 Q79.45,103.5562 79.2531,103.7531 Q79.0562,103.95 78.75,103.95 Q78.4766,103.95 78.3016,103.8297 Q78.1266,103.7094 78.05,103.3922 Q78.0172,103.1734 77.8969,103.0531 Q77.6781,102.8234 77.2844,102.6922 Q76.8906,102.55 76.4969,102.55 Q76.0047,102.55 75.5891,102.7469 Q75.1844,102.9437 74.8672,103.3812 Q74.55,103.8187 74.55,104.4203 L74.55,105.0656 Q74.55,105.7875 75.1406,106.2687 Q75.7312,106.75 76.7812,106.75 Q77.4047,106.75 77.8422,106.6078 Q78.0937,106.5312 78.3781,106.2797 Q78.5641,106.1375 78.6625,106.0937 Q78.7609,106.05 78.8812,106.05 Q79.1109,106.05 79.275,106.2359 Q79.45,106.4109 79.45,106.6625 Q79.45,106.9031 79.2094,107.1875 Q78.8594,107.6031 78.3016,107.8328 Q77.5687,108.15 76.6719,108.15 Q75.6219,108.15 74.7797,107.7344 Q74.1016,107.4062 73.6203,106.6953 Q73.15,105.9844 73.15,105.1422 L73.15,104.3766 Q73.15,103.5016 73.5656,102.7359 Q73.9922,101.9703 74.725,101.5656 Q75.4687,101.15 76.3,101.15 Q76.8031,101.15 77.2406,101.325 Q77.6781,101.5 78.05,101.85 Z " fill="#000000"/><text fill="#000000" font-family="sans-serif" font-size="9.8" lengthAdjust="spacing" textLength="56" x="86.45" y="108.31">Organization</text><line style="stroke:#181818;stroke-width:0.3499999999999999;" x1="66.85" x2="143.85" y1="115.5" y2="115.5"/><rect fill="none" height="4.2" style="stroke:#C82930;stroke-width:0.6999999999999998;" width="4.2" x="71.75" y="121.1"/><text fill="#000000" font-family="sans-serif" font-size="9.8" lengthAdjust="spacing" textLength="24.5" x="80.15" y="128.4732">name</text><line style="stroke:#181818;stroke-width:0.3499999999999999;" x1="66.85" x2="143.85" y1="133.4266" y2="133.4266"/></g><!--MD5=[de60e6d4f424ae4d0522096f76a59010]
class VaccinationCenter--><g id="elem_VaccinationCenter"><rect codeLine="10" fill="#F1F1F1" height="169.1922" id="VaccinationCenter" rx="1.75" ry="1.75" style="stroke:#181818;stroke-width:0.3499999999999999;" width="147.7" x="4.9" y="193.9"/><ellipse cx="35.245" cy="205.1" fill="#ADD1B2" rx="7.7" ry="7.7" style="stroke:#181818;stroke-width:0.6999999999999998;"/><path d="M36.645,202.65 Q36.7872,202.3 36.9512,202.125 Q37.1153,201.95 37.3012,201.95 Q37.6294,201.95 37.8372,202.1469 Q38.045,202.3437 38.045,202.8031 L38.045,203.8969 Q38.045,204.3562 37.8481,204.5531 Q37.6512,204.75 37.345,204.75 Q37.0716,204.75 36.8966,204.6297 Q36.7216,204.5094 36.645,204.1922 Q36.6122,203.9734 36.4919,203.8531 Q36.2731,203.6234 35.8794,203.4922 Q35.4856,203.35 35.0919,203.35 Q34.5997,203.35 34.1841,203.5469 Q33.7794,203.7437 33.4622,204.1812 Q33.145,204.6187 33.145,205.2203 L33.145,205.8656 Q33.145,206.5875 33.7356,207.0687 Q34.3262,207.55 35.3762,207.55 Q35.9997,207.55 36.4372,207.4078 Q36.6887,207.3312 36.9731,207.0797 Q37.1591,206.9375 37.2575,206.8937 Q37.3559,206.85 37.4762,206.85 Q37.7059,206.85 37.87,207.0359 Q38.045,207.2109 38.045,207.4625 Q38.045,207.7031 37.8044,207.9875 Q37.4544,208.4031 36.8966,208.6328 Q36.1637,208.95 35.2669,208.95 Q34.2169,208.95 33.3747,208.5344 Q32.6966,208.2062 32.2153,207.4953 Q31.745,206.7844 31.745,205.9422 L31.745,205.1766 Q31.745,204.3016 32.1606,203.5359 Q32.5872,202.7703 33.32,202.3656 Q34.0637,201.95 34.895,201.95 Q35.3981,201.95 35.8356,202.125 Q36.2731,202.3 36.645,202.65 Z " fill="#000000"/><text fill="#000000" font-family="sans-serif" font-size="9.8" lengthAdjust="spacing" textLength="81.2" x="49.455" y="209.11">VaccinationCenter</text><line style="stroke:#181818;stroke-width:0.3499999999999999;" x1="5.6" x2="151.9" y1="216.3" y2="216.3"/><rect fill="none" height="4.2" style="stroke:#C82930;stroke-width:0.6999999999999998;" width="4.2" x="10.5" y="221.9"/><text fill="#000000" font-family="sans-serif" font-size="9.8" lengthAdjust="spacing" textLength="24.5" x="18.9" y="229.2732">name</text><rect fill="none" height="4.2" style="stroke:#C82930;stroke-width:0.6999999999999998;" width="4.2" x="10.5" y="234.2266"/><text fill="#000000" font-family="sans-serif" font-size="9.8" lengthAdjust="spacing" textLength="30.8" x="18.9" y="241.5998">addres</text><rect fill="none" height="4.2" style="stroke:#C82930;stroke-width:0.6999999999999998;" width="4.2" x="10.5" y="246.5531"/><text fill="#000000" font-family="sans-serif" font-size="9.8" lengthAdjust="spacing" textLength="64.4" x="18.9" y="253.9264">phone number</text><rect fill="none" height="4.2" style="stroke:#C82930;stroke-width:0.6999999999999998;" width="4.2" x="10.5" y="258.8797"/><text fill="#000000" font-family="sans-serif" font-size="9.8" lengthAdjust="spacing" textLength="60.2" x="18.9" y="266.2529">e-mail addres</text><rect fill="none" height="4.2" style="stroke:#C82930;stroke-width:0.6999999999999998;" width="4.2" x="10.5" y="271.2062"/><text fill="#000000" font-family="sans-serif" font-size="9.8" lengthAdjust="spacing" textLength="49" x="18.9" y="278.5795">fax number</text><rect fill="none" height="4.2" style="stroke:#C82930;stroke-width:0.6999999999999998;" width="4.2" x="10.5" y="283.5328"/><text fill="#000000" font-family="sans-serif" font-size="9.8" lengthAdjust="spacing" textLength="66.5" x="18.9" y="290.9061">website addres</text><rect fill="none" height="4.2" style="stroke:#C82930;stroke-width:0.6999999999999998;" width="4.2" x="10.5" y="295.8594"/><text fill="#000000" font-family="sans-serif" font-size="9.8" lengthAdjust="spacing" textLength="63.7" x="18.9" y="303.2326">opening hours</text><rect fill="none" height="4.2" style="stroke:#C82930;stroke-width:0.6999999999999998;" width="4.2" x="10.5" y="308.1859"/><text fill="#000000" font-family="sans-serif" font-size="9.8" lengthAdjust="spacing" textLength="58.8" x="18.9" y="315.5592">closing hours</text><rect fill="none" height="4.2" style="stroke:#C82930;stroke-width:0.6999999999999998;" width="4.2" x="10.5" y="320.5125"/><text fill="#000000" font-family="sans-serif" font-size="9.8" lengthAdjust="spacing" textLength="54.6" x="18.9" y="327.8857">slot duration</text><rect fill="none" height="4.2" style="stroke:#C82930;stroke-width:0.6999999999999998;" width="4.2" x="10.5" y="332.8391"/><text fill="#000000" font-family="sans-serif" font-size="9.8" lengthAdjust="spacing" textLength="129.5" x="18.9" y="340.2123">maximum number of vaccines</text><rect fill="none" height="4.2" style="stroke:#C82930;stroke-width:0.6999999999999998;" width="4.2" x="10.5" y="345.1656"/><text fill="#000000" font-family="sans-serif" font-size="9.8" lengthAdjust="spacing" textLength="50.4" x="18.9" y="352.5389">coordinator</text><line style="stroke:#181818;stroke-width:0.3499999999999999;" x1="5.6" x2="151.9" y1="357.4922" y2="357.4922"/></g><!--MD5=[19e445fc4d3b48519cbe33da05496394]
class Vaccine--><g id="elem_Vaccine"><rect codeLine="24" fill="#F1F1F1" height="119.8859" id="Vaccine" rx="1.75" ry="1.75" style="stroke:#181818;stroke-width:0.3499999999999999;" width="253.4" x="7.35" y="417.9"/><ellipse cx="113.575" cy="429.1" fill="#ADD1B2" rx="7.7" ry="7.7" style="stroke:#181818;stroke-width:0.6999999999999998;"/><path d="M114.975,426.65 Q115.1172,426.3 115.2812,426.125 Q115.4453,425.95 115.6312,425.95 Q115.9594,425.95 116.1672,426.1469 Q116.375,426.3437 116.375,426.8031 L116.375,427.8969 Q116.375,428.3562 116.1781,428.5531 Q115.9812,428.75 115.675,428.75 Q115.4016,428.75 115.2266,428.6297 Q115.0516,428.5094 114.975,428.1922 Q114.9422,427.9734 114.8219,427.8531 Q114.6031,427.6234 114.2094,427.4922 Q113.8156,427.35 113.4219,427.35 Q112.9297,427.35 112.5141,427.5469 Q112.1094,427.7437 111.7922,428.1812 Q111.475,428.6187 111.475,429.2203 L111.475,429.8656 Q111.475,430.5875 112.0656,431.0687 Q112.6562,431.55 113.7062,431.55 Q114.3297,431.55 114.7672,431.4078 Q115.0187,431.3312 115.3031,431.0797 Q115.4891,430.9375 115.5875,430.8937 Q115.6859,430.85 115.8062,430.85 Q116.0359,430.85 116.2,431.0359 Q116.375,431.2109 116.375,431.4625 Q116.375,431.7031 116.1344,431.9875 Q115.7844,432.4031 115.2266,432.6328 Q114.4937,432.95 113.5969,432.95 Q112.5469,432.95 111.7047,432.5344 Q111.0266,432.2062 110.5453,431.4953 Q110.075,430.7844 110.075,429.9422 L110.075,429.1766 Q110.075,428.3016 110.4906,427.5359 Q110.9172,426.7703 111.65,426.3656 Q112.3937,425.95 113.225,425.95 Q113.7281,425.95 114.1656,426.125 Q114.6031,426.3 114.975,426.65 Z " fill="#000000"/><text fill="#000000" font-family="sans-serif" font-size="9.8" lengthAdjust="spacing" textLength="35" x="127.925" y="433.11">Vaccine</text><line style="stroke:#181818;stroke-width:0.3499999999999999;" x1="8.05" x2="260.05" y1="440.3" y2="440.3"/><rect fill="none" height="4.2" style="stroke:#C82930;stroke-width:0.6999999999999998;" width="4.2" x="12.95" y="445.9"/><text fill="#000000" font-family="sans-serif" font-size="9.8" lengthAdjust="spacing" textLength="24.5" x="21.35" y="453.2732">name</text><rect fill="none" height="4.2" style="stroke:#C82930;stroke-width:0.6999999999999998;" width="4.2" x="12.95" y="458.2266"/><text fill="#000000" font-family="sans-serif" font-size="9.8" lengthAdjust="spacing" textLength="25.9" x="21.35" y="465.5998">brand</text><rect fill="none" height="4.2" style="stroke:#C82930;stroke-width:0.6999999999999998;" width="4.2" x="12.95" y="470.5531"/><text fill="#000000" font-family="sans-serif" font-size="9.8" lengthAdjust="spacing" textLength="18.9" x="21.35" y="477.9264">type</text><rect fill="none" height="4.2" style="stroke:#C82930;stroke-width:0.6999999999999998;" width="4.2" x="12.95" y="482.8797"/><text fill="#000000" font-family="sans-serif" font-size="9.8" lengthAdjust="spacing" textLength="50.4" x="21.35" y="490.2529">age groups</text><rect fill="none" height="4.2" style="stroke:#C82930;stroke-width:0.6999999999999998;" width="4.2" x="12.95" y="495.2062"/><text fill="#000000" font-family="sans-serif" font-size="9.8" lengthAdjust="spacing" textLength="104.3" x="21.35" y="502.5795">vaccines per age group</text><rect fill="none" height="4.2" style="stroke:#C82930;stroke-width:0.6999999999999998;" width="4.2" x="12.95" y="507.5328"/><text fill="#000000" font-family="sans-serif" font-size="9.8" lengthAdjust="spacing" textLength="32.9" x="21.35" y="514.9061">dosage</text><rect fill="none" height="4.2" style="stroke:#C82930;stroke-width:0.6999999999999998;" width="4.2" x="12.95" y="519.8594"/><text fill="#000000" font-family="sans-serif" font-size="9.8" lengthAdjust="spacing" textLength="235.2" x="21.35" y="527.2326">time interval regarding previous vaccine administered</text><line style="stroke:#181818;stroke-width:0.3499999999999999;" x1="8.05" x2="260.05" y1="532.1859" y2="532.1859"/></g><!--MD5=[da547346deef918ea16944ba046651ef]
class Administrator--><g id="elem_Administrator"><rect codeLine="6" fill="#F1F1F1" height="33.6" id="Administrator" rx="1.75" ry="1.75" style="stroke:#181818;stroke-width:0.3499999999999999;" width="80.5" x="112" y="4.9"/><ellipse cx="122.5" cy="16.1" fill="#ADD1B2" rx="7.7" ry="7.7" style="stroke:#181818;stroke-width:0.6999999999999998;"/><path d="M123.9,13.65 Q124.0422,13.3 124.2062,13.125 Q124.3703,12.95 124.5562,12.95 Q124.8844,12.95 125.0922,13.1469 Q125.3,13.3437 125.3,13.8031 L125.3,14.8969 Q125.3,15.3562 125.1031,15.5531 Q124.9062,15.75 124.6,15.75 Q124.3266,15.75 124.1516,15.6297 Q123.9766,15.5094 123.9,15.1922 Q123.8672,14.9734 123.7469,14.8531 Q123.5281,14.6234 123.1344,14.4922 Q122.7406,14.35 122.3469,14.35 Q121.8547,14.35 121.4391,14.5469 Q121.0344,14.7437 120.7172,15.1812 Q120.4,15.6187 120.4,16.2203 L120.4,16.8656 Q120.4,17.5875 120.9906,18.0687 Q121.5812,18.55 122.6312,18.55 Q123.2547,18.55 123.6922,18.4078 Q123.9437,18.3312 124.2281,18.0797 Q124.4141,17.9375 124.5125,17.8937 Q124.6109,17.85 124.7312,17.85 Q124.9609,17.85 125.125,18.0359 Q125.3,18.2109 125.3,18.4625 Q125.3,18.7031 125.0594,18.9875 Q124.7094,19.4031 124.1516,19.6328 Q123.4187,19.95 122.5219,19.95 Q121.4719,19.95 120.6297,19.5344 Q119.9516,19.2062 119.4703,18.4953 Q119,17.7844 119,16.9422 L119,16.1766 Q119,15.3016 119.4156,14.5359 Q119.8422,13.7703 120.575,13.3656 Q121.3187,12.95 122.15,12.95 Q122.6531,12.95 123.0906,13.125 Q123.5281,13.3 123.9,13.65 Z " fill="#000000"/><text fill="#000000" font-family="sans-serif" font-size="9.8" lengthAdjust="spacing" textLength="58.1" x="132.3" y="20.11">Administrator</text><line style="stroke:#181818;stroke-width:0.3499999999999999;" x1="112.7" x2="191.8" y1="27.3" y2="27.3"/><line style="stroke:#181818;stroke-width:0.3499999999999999;" x1="112.7" x2="191.8" y1="32.9" y2="32.9"/></g><!--MD5=[ee48e7f218e419c69ba71c5a6bf84314]
link Organization to VaccinationCenter--><g id="link_Organization_VaccinationCenter"><path codeLine="39" d="M101.598,139.629 C99.204,154.098 95.942,173.845 92.631,193.879 " fill="none" id="Organization-VaccinationCenter" style="stroke:#181818;stroke-width:0.6999999999999998;"/><polygon fill="#000000" points="100.5792,170.1762,103.6415,164.2649,99.5821,163.5939,100.5792,170.1762" style="stroke:#000000;stroke-width:0.6999999999999998;"/><text fill="#000000" font-family="sans-serif" font-size="9.1" lengthAdjust="spacing" textLength="21" x="107.45" y="170.4466">owns</text></g><!--MD5=[2a41c1af413c0662bf55a6b8913ea24f]
link Administrator to Organization--><g id="link_Administrator_Organization"><path codeLine="40" d="M138.768,38.507 C133.966,44.786 128.793,52.213 124.95,59.5 C119.371,70.07 114.828,82.558 111.524,93.058 " fill="none" id="Administrator-Organization" style="stroke:#181818;stroke-width:0.6999999999999998;"/><polygon fill="#000000" points="126.8862,69.0543,131.5556,64.309,127.8747,62.4707,126.8862,69.0543" style="stroke:#000000;stroke-width:0.6999999999999998;"/><text fill="#000000" font-family="sans-serif" font-size="9.1" lengthAdjust="spacing" textLength="36.4" x="134.75" y="69.6466">works for</text></g><!--MD5=[0e439f75a3d966f965fe5f237a1bacbe]
link Administrator to Vaccine--><g id="link_Administrator_Vaccine"><path codeLine="41" d="M164.696,38.682 C168.693,44.863 172.613,52.178 174.65,59.5 C176.155,64.897 174.741,66.5 174.65,72.1 C172.473,201.579 172.41,234.024 164.85,363.3 C163.975,378.259 165.165,382.242 162.05,396.9 C160.594,403.746 158.711,410.816 156.618,417.781 " fill="none" id="Administrator-Vaccine" style="stroke:#181818;stroke-width:0.6999999999999998;"/><polygon fill="#000000" points="175.9754,170.2223,178.1671,163.936,174.0535,163.8483,175.9754,170.2223" style="stroke:#000000;stroke-width:0.6999999999999998;"/><text fill="#000000" font-family="sans-serif" font-size="9.1" lengthAdjust="spacing" textLength="65.1" x="182.35" y="170.4466">can specify new</text></g><!--MD5=[759c7f6dbf62b13e16002bff783a0fa8]
link VaccinationCenter to Vaccine--><g id="link_VaccinationCenter_Vaccine"><path codeLine="42" d="M102.284,363.454 C107.394,381.745 112.707,400.722 117.481,417.809 " fill="none" id="VaccinationCenter-Vaccine" style="stroke:#181818;stroke-width:0.6999999999999998;"/><polygon fill="#000000" points="116.0924,394.0938,116.3688,387.4421,112.4063,388.55,116.0924,394.0938" style="stroke:#000000;stroke-width:0.6999999999999998;"/><text fill="#000000" font-family="sans-serif" font-size="9.1" lengthAdjust="spacing" textLength="34.3" x="121.45" y="394.4466">contains</text></g><!--MD5=[1daf05321eb9f4a69fe18e8c37972c31]
@startuml

'class enumeration
class Organization
class VaccinationCenter
class Vaccine
class Administrator

'class componets

class VaccinationCenter {
-name
-addres
-phone number
-e-mail addres
-fax number
-website addres
-opening hours
-closing hours
-slot duration
-maximum number of vaccines
-coordinator
}

class Vaccine {
-name
-brand
-type
-age groups
-vaccines per age group
-dosage
-time interval regarding previous vaccine administered
}

class Organization {
-name
}

'class relation
Organization -d- VaccinationCenter : owns >
Administrator - - Organization : works for >
Administrator - - Vaccine : can specify new >
VaccinationCenter - - Vaccine : contains >

@enduml

@startuml

class Organization
class VaccinationCenter
class Vaccine
class Administrator


class VaccinationCenter {
-name
-addres
-phone number
-e-mail addres
-fax number
-website addres
-opening hours
-closing hours
-slot duration
-maximum number of vaccines
-coordinator
}

class Vaccine {
-name
-brand
-type
-age groups
-vaccines per age group
-dosage
-time interval regarding previous vaccine administered
}

class Organization {
-name
}

Organization -d- VaccinationCenter : owns >
Administrator - - Organization : works for >
Administrator - - Vaccine : can specify new >
VaccinationCenter - - Vaccine : contains >

@enduml

PlantUML version 1.2022.4(Sat Apr 09 14:29:17 BST 2022)
(GPL source distribution)
Java Runtime: OpenJDK Runtime Environment
JVM: OpenJDK 64-Bit Server VM
Default Encoding: Cp1252
Language: pt
Country: PT
--></g></svg>