<?xml version="1.0" encoding="UTF-8" standalone="no"?><svg xmlns="http://www.w3.org/2000/svg" xmlns:xlink="http://www.w3.org/1999/xlink" contentStyleType="text/css" height="652px" preserveAspectRatio="none" style="width:1188px;height:652px;background:#FFFFFF;" version="1.1" viewBox="0 0 1188 652" width="1188px" zoomAndPan="magnify"><defs/><g><!--MD5=[19e445fc4d3b48519cbe33da05496394]
class Vaccine--><g id="elem_Vaccine"><rect codeLine="4" fill="#F1F1F1" height="153.6563" id="Vaccine" rx="2.5" ry="2.5" style="stroke:#181818;stroke-width:0.5;" width="571" x="7" y="492"/><ellipse cx="263.25" cy="508" fill="#ADD1B2" rx="11" ry="11" style="stroke:#181818;stroke-width:1.0;"/><path d="M265.25,504.5 Q265.4531,504 265.6875,503.75 Q265.9219,503.5 266.1875,503.5 Q266.6563,503.5 266.9531,503.7813 Q267.25,504.0625 267.25,504.7188 L267.25,506.2813 Q267.25,506.9375 266.9688,507.2188 Q266.6875,507.5 266.25,507.5 Q265.8594,507.5 265.6094,507.3281 Q265.3594,507.1563 265.25,506.7031 Q265.2031,506.3906 265.0313,506.2188 Q264.7188,505.8906 264.1563,505.7031 Q263.5938,505.5 263.0313,505.5 Q262.3281,505.5 261.7344,505.7813 Q261.1563,506.0625 260.7031,506.6875 Q260.25,507.3125 260.25,508.1719 L260.25,509.0938 Q260.25,510.125 261.0938,510.8125 Q261.9375,511.5 263.4375,511.5 Q264.3281,511.5 264.9531,511.2969 Q265.3125,511.1875 265.7188,510.8281 Q265.9844,510.625 266.125,510.5625 Q266.2656,510.5 266.4375,510.5 Q266.7656,510.5 267,510.7656 Q267.25,511.0156 267.25,511.375 Q267.25,511.7188 266.9063,512.125 Q266.4063,512.7188 265.6094,513.0469 Q264.5625,513.5 263.2813,513.5 Q261.7813,513.5 260.5781,512.9063 Q259.6094,512.4375 258.9219,511.4219 Q258.25,510.4063 258.25,509.2031 L258.25,508.1094 Q258.25,506.8594 258.8438,505.7656 Q259.4531,504.6719 260.5,504.0938 Q261.5625,503.5 262.75,503.5 Q263.4688,503.5 264.0938,503.75 Q264.7188,504 265.25,504.5 Z " fill="#000000"/><text fill="#000000" font-family="sans-serif" font-size="14" lengthAdjust="spacing" textLength="50" x="283.75" y="513.7285">Vaccine</text><line style="stroke:#181818;stroke-width:0.5;" x1="8" x2="577" y1="524" y2="524"/><text fill="#000000" font-family="sans-serif" font-size="14" lengthAdjust="spacing" textLength="81" x="13" y="542.5332">-String name</text><text fill="#000000" font-family="sans-serif" font-size="14" lengthAdjust="spacing" textLength="83" x="13" y="560.1426">-String brand</text><text fill="#000000" font-family="sans-serif" font-size="14" lengthAdjust="spacing" textLength="73" x="13" y="577.752">-String type</text><line style="stroke:#181818;stroke-width:0.5;" x1="8" x2="577" y1="584.8281" y2="584.8281"/><text fill="#000000" font-family="sans-serif" font-size="14" lengthAdjust="spacing" textLength="559" x="13" y="603.3613">+createVaccineAdministration(dosage, number of doses, min age group, max age group)</text><text fill="#000000" font-family="sans-serif" font-size="14" lengthAdjust="spacing" textLength="238" x="13" y="620.9707">-createNewVaccine(name,brand,type)</text><text fill="#000000" font-family="sans-serif" font-size="14" lengthAdjust="spacing" textLength="114" x="13" y="638.5801">-validateVaccine()</text></g><!--MD5=[107cfa23aa516ff83d0cf17a6f9fe7ba]
class VaccineAdministration--><g id="elem_VaccineAdministration"><rect codeLine="13" fill="#F1F1F1" height="153.6563" id="VaccineAdministration" rx="2.5" ry="2.5" style="stroke:#181818;stroke-width:0.5;" width="568" x="613.5" y="492"/><ellipse cx="823.75" cy="508" fill="#ADD1B2" rx="11" ry="11" style="stroke:#181818;stroke-width:1.0;"/><path d="M825.75,504.5 Q825.9531,504 826.1875,503.75 Q826.4219,503.5 826.6875,503.5 Q827.1563,503.5 827.4531,503.7813 Q827.75,504.0625 827.75,504.7188 L827.75,506.2813 Q827.75,506.9375 827.4688,507.2188 Q827.1875,507.5 826.75,507.5 Q826.3594,507.5 826.1094,507.3281 Q825.8594,507.1563 825.75,506.7031 Q825.7031,506.3906 825.5313,506.2188 Q825.2188,505.8906 824.6563,505.7031 Q824.0938,505.5 823.5313,505.5 Q822.8281,505.5 822.2344,505.7813 Q821.6563,506.0625 821.2031,506.6875 Q820.75,507.3125 820.75,508.1719 L820.75,509.0938 Q820.75,510.125 821.5938,510.8125 Q822.4375,511.5 823.9375,511.5 Q824.8281,511.5 825.4531,511.2969 Q825.8125,511.1875 826.2188,510.8281 Q826.4844,510.625 826.625,510.5625 Q826.7656,510.5 826.9375,510.5 Q827.2656,510.5 827.5,510.7656 Q827.75,511.0156 827.75,511.375 Q827.75,511.7188 827.4063,512.125 Q826.9063,512.7188 826.1094,513.0469 Q825.0625,513.5 823.7813,513.5 Q822.2813,513.5 821.0781,512.9063 Q820.1094,512.4375 819.4219,511.4219 Q818.75,510.4063 818.75,509.2031 L818.75,508.1094 Q818.75,506.8594 819.3438,505.7656 Q819.9531,504.6719 821,504.0938 Q822.0625,503.5 823.25,503.5 Q823.9688,503.5 824.5938,503.75 Q825.2188,504 825.75,504.5 Z " fill="#000000"/><text fill="#000000" font-family="sans-serif" font-size="14" lengthAdjust="spacing" textLength="139" x="844.25" y="513.7285">VaccineAdministration</text><line style="stroke:#181818;stroke-width:0.5;" x1="614.5" x2="1180.5" y1="524" y2="524"/><text fill="#000000" font-family="sans-serif" font-size="14" lengthAdjust="spacing" textLength="93" x="619.5" y="542.5332">-String dosage</text><text fill="#000000" font-family="sans-serif" font-size="14" lengthAdjust="spacing" textLength="111" x="619.5" y="560.1426">-int minAgeGroup</text><text fill="#000000" font-family="sans-serif" font-size="14" lengthAdjust="spacing" textLength="114" x="619.5" y="577.752">-int maxAgeGroup</text><text fill="#000000" font-family="sans-serif" font-size="14" lengthAdjust="spacing" textLength="127" x="619.5" y="595.3613">-int numberOfDoses</text><line style="stroke:#181818;stroke-width:0.5;" x1="614.5" x2="1180.5" y1="602.4375" y2="602.4375"/><text fill="#000000" font-family="sans-serif" font-size="14" lengthAdjust="spacing" textLength="203" x="619.5" y="620.9707">-validateVaccineAdministration()</text><text fill="#000000" font-family="sans-serif" font-size="14" lengthAdjust="spacing" textLength="556" x="619.5" y="638.5801">-createVaccineAdministration(dosage, number of doses, min age group, max age group)</text></g><!--MD5=[02e4b9b7573f1156f41e60aa5b4e25a4]
class Company--><g id="elem_Company"><rect codeLine="22" fill="#F1F1F1" height="136.0469" id="Company" rx="2.5" ry="2.5" style="stroke:#181818;stroke-width:0.5;" width="571" x="309" y="278"/><ellipse cx="560.25" cy="294" fill="#ADD1B2" rx="11" ry="11" style="stroke:#181818;stroke-width:1.0;"/><path d="M562.25,290.5 Q562.4531,290 562.6875,289.75 Q562.9219,289.5 563.1875,289.5 Q563.6563,289.5 563.9531,289.7813 Q564.25,290.0625 564.25,290.7188 L564.25,292.2813 Q564.25,292.9375 563.9688,293.2188 Q563.6875,293.5 563.25,293.5 Q562.8594,293.5 562.6094,293.3281 Q562.3594,293.1563 562.25,292.7031 Q562.2031,292.3906 562.0313,292.2188 Q561.7188,291.8906 561.1563,291.7031 Q560.5938,291.5 560.0313,291.5 Q559.3281,291.5 558.7344,291.7813 Q558.1563,292.0625 557.7031,292.6875 Q557.25,293.3125 557.25,294.1719 L557.25,295.0938 Q557.25,296.125 558.0938,296.8125 Q558.9375,297.5 560.4375,297.5 Q561.3281,297.5 561.9531,297.2969 Q562.3125,297.1875 562.7188,296.8281 Q562.9844,296.625 563.125,296.5625 Q563.2656,296.5 563.4375,296.5 Q563.7656,296.5 564,296.7656 Q564.25,297.0156 564.25,297.375 Q564.25,297.7188 563.9063,298.125 Q563.4063,298.7188 562.6094,299.0469 Q561.5625,299.5 560.2813,299.5 Q558.7813,299.5 557.5781,298.9063 Q556.6094,298.4375 555.9219,297.4219 Q555.25,296.4063 555.25,295.2031 L555.25,294.1094 Q555.25,292.8594 555.8438,291.7656 Q556.4531,290.6719 557.5,290.0938 Q558.5625,289.5 559.75,289.5 Q560.4688,289.5 561.0938,289.75 Q561.7188,290 562.25,290.5 Z " fill="#000000"/><text fill="#000000" font-family="sans-serif" font-size="14" lengthAdjust="spacing" textLength="60" x="580.75" y="299.7285">Company</text><line style="stroke:#181818;stroke-width:0.5;" x1="310" x2="879" y1="310" y2="310"/><text fill="#000000" font-family="sans-serif" font-size="14" lengthAdjust="spacing" textLength="55" x="315" y="328.5332">-Vaccine</text><text fill="#000000" font-family="sans-serif" font-size="14" lengthAdjust="spacing" textLength="144" x="315" y="346.1426">-VaccineAdministration</text><line style="stroke:#181818;stroke-width:1.0;" x1="310" x2="879" y1="353.2188" y2="353.2188"/><text fill="#000000" font-family="sans-serif" font-size="14" lengthAdjust="spacing" textLength="241" x="315" y="371.752">+createNewVaccine(name,brand,type)</text><text fill="#000000" font-family="sans-serif" font-size="14" lengthAdjust="spacing" textLength="559" x="315" y="389.3613">+createVaccineAdministration(dosage, number of doses, min age group, max age group)</text><text fill="#000000" font-family="sans-serif" font-size="14" lengthAdjust="spacing" textLength="274" x="315" y="406.9707">-storeVaccineAndAministrationProcessData</text></g><!--MD5=[e602103cd4340b2e2fe34859fa66782a]
class SpecifyNewVaccineAndAdministrationProcessController--><g id="elem_SpecifyNewVaccineAndAdministrationProcessController"><rect codeLine="32" fill="#F1F1F1" height="100.8281" id="SpecifyNewVaccineAndAdministrationProcessController" rx="2.5" ry="2.5" style="stroke:#181818;stroke-width:0.5;" width="571" x="309" y="116"/><ellipse cx="415.75" cy="132" fill="#ADD1B2" rx="11" ry="11" style="stroke:#181818;stroke-width:1.0;"/><path d="M417.75,128.5 Q417.9531,128 418.1875,127.75 Q418.4219,127.5 418.6875,127.5 Q419.1563,127.5 419.4531,127.7813 Q419.75,128.0625 419.75,128.7188 L419.75,130.2813 Q419.75,130.9375 419.4688,131.2188 Q419.1875,131.5 418.75,131.5 Q418.3594,131.5 418.1094,131.3281 Q417.8594,131.1563 417.75,130.7031 Q417.7031,130.3906 417.5313,130.2188 Q417.2188,129.8906 416.6563,129.7031 Q416.0938,129.5 415.5313,129.5 Q414.8281,129.5 414.2344,129.7813 Q413.6563,130.0625 413.2031,130.6875 Q412.75,131.3125 412.75,132.1719 L412.75,133.0938 Q412.75,134.125 413.5938,134.8125 Q414.4375,135.5 415.9375,135.5 Q416.8281,135.5 417.4531,135.2969 Q417.8125,135.1875 418.2188,134.8281 Q418.4844,134.625 418.625,134.5625 Q418.7656,134.5 418.9375,134.5 Q419.2656,134.5 419.5,134.7656 Q419.75,135.0156 419.75,135.375 Q419.75,135.7188 419.4063,136.125 Q418.9063,136.7188 418.1094,137.0469 Q417.0625,137.5 415.7813,137.5 Q414.2813,137.5 413.0781,136.9063 Q412.1094,136.4375 411.4219,135.4219 Q410.75,134.4063 410.75,133.2031 L410.75,132.1094 Q410.75,130.8594 411.3438,129.7656 Q411.9531,128.6719 413,128.0938 Q414.0625,127.5 415.25,127.5 Q415.9688,127.5 416.5938,127.75 Q417.2188,128 417.75,128.5 Z " fill="#000000"/><text fill="#000000" font-family="sans-serif" font-size="14" lengthAdjust="spacing" textLength="349" x="436.25" y="137.7285">SpecifyNewVaccineAndAdministrationProcessController</text><line style="stroke:#181818;stroke-width:0.5;" x1="310" x2="879" y1="148" y2="148"/><text fill="#000000" font-family="sans-serif" font-size="14" lengthAdjust="spacing" textLength="55" x="315" y="166.5332">-Vaccine</text><line style="stroke:#181818;stroke-width:0.5;" x1="310" x2="879" y1="173.6094" y2="173.6094"/><text fill="#000000" font-family="sans-serif" font-size="14" lengthAdjust="spacing" textLength="241" x="315" y="192.1426">+createNewVaccine(name,brand,type)</text><text fill="#000000" font-family="sans-serif" font-size="14" lengthAdjust="spacing" textLength="559" x="315" y="209.752">+createVaccineAdministration(dosage, number of doses, min age group, max age group)</text></g><!--MD5=[832d43040af0aa48366ea431c6a446ca]
class SpecifyNewVaccineAndAdministrationProcessUI--><g id="elem_SpecifyNewVaccineAndAdministrationProcessUI"><rect codeLine="38" fill="#F1F1F1" height="48" id="SpecifyNewVaccineAndAdministrationProcessUI" rx="2.5" ry="2.5" style="stroke:#181818;stroke-width:0.5;" width="331" x="429" y="7"/><ellipse cx="444" cy="23" fill="#ADD1B2" rx="11" ry="11" style="stroke:#181818;stroke-width:1.0;"/><path d="M446,19.5 Q446.2031,19 446.4375,18.75 Q446.6719,18.5 446.9375,18.5 Q447.4063,18.5 447.7031,18.7813 Q448,19.0625 448,19.7188 L448,21.2813 Q448,21.9375 447.7188,22.2188 Q447.4375,22.5 447,22.5 Q446.6094,22.5 446.3594,22.3281 Q446.1094,22.1563 446,21.7031 Q445.9531,21.3906 445.7813,21.2188 Q445.4688,20.8906 444.9063,20.7031 Q444.3438,20.5 443.7813,20.5 Q443.0781,20.5 442.4844,20.7813 Q441.9063,21.0625 441.4531,21.6875 Q441,22.3125 441,23.1719 L441,24.0938 Q441,25.125 441.8438,25.8125 Q442.6875,26.5 444.1875,26.5 Q445.0781,26.5 445.7031,26.2969 Q446.0625,26.1875 446.4688,25.8281 Q446.7344,25.625 446.875,25.5625 Q447.0156,25.5 447.1875,25.5 Q447.5156,25.5 447.75,25.7656 Q448,26.0156 448,26.375 Q448,26.7188 447.6563,27.125 Q447.1563,27.7188 446.3594,28.0469 Q445.3125,28.5 444.0313,28.5 Q442.5313,28.5 441.3281,27.9063 Q440.3594,27.4375 439.6719,26.4219 Q439,25.4063 439,24.2031 L439,23.1094 Q439,21.8594 439.5938,20.7656 Q440.2031,19.6719 441.25,19.0938 Q442.3125,18.5 443.5,18.5 Q444.2188,18.5 444.8438,18.75 Q445.4688,19 446,19.5 Z " fill="#000000"/><text fill="#000000" font-family="sans-serif" font-size="14" lengthAdjust="spacing" textLength="299" x="458" y="28.7285">SpecifyNewVaccineAndAdministrationProcessUI</text><line style="stroke:#181818;stroke-width:0.5;" x1="430" x2="759" y1="39" y2="39"/><line style="stroke:#181818;stroke-width:0.5;" x1="430" x2="759" y1="47" y2="47"/></g><!--MD5=[dc77fcb8c02a536b28cf4bc57182f04b]
link SpecifyNewVaccineAndAdministrationProcessUI to SpecifyNewVaccineAndAdministrationProcessController--><g id="link_SpecifyNewVaccineAndAdministrationProcessUI_SpecifyNewVaccineAndAdministrationProcessController"><path codeLine="41" d="M594.5,55.25 C594.5,70.55 594.5,91.24 594.5,110.57 " fill="none" id="SpecifyNewVaccineAndAdministrationProcessUI-to-SpecifyNewVaccineAndAdministrationProcessController" style="stroke:#181818;stroke-width:1.0;stroke-dasharray:7.0,7.0;"/><polygon fill="#181818" points="594.5,115.98,598.5,106.98,594.5,110.98,590.5,106.98,594.5,115.98" style="stroke:#181818;stroke-width:1.0;"/></g><!--MD5=[4b95a27bce246bdb434d8597bbee7935]
link SpecifyNewVaccineAndAdministrationProcessController to Company--><g id="link_SpecifyNewVaccineAndAdministrationProcessController_Company"><path codeLine="42" d="M594.5,217.42 C594.5,234.57 594.5,254.13 594.5,272.7 " fill="none" id="SpecifyNewVaccineAndAdministrationProcessController-to-Company" style="stroke:#181818;stroke-width:1.0;stroke-dasharray:7.0,7.0;"/><polygon fill="#181818" points="594.5,277.91,598.5,268.91,594.5,272.91,590.5,268.91,594.5,277.91" style="stroke:#181818;stroke-width:1.0;"/></g><!--MD5=[ddd910a488776a510fa57bf44fb01dce]
link Company to VaccineAdministration--><g id="link_Company_VaccineAdministration"><path codeLine="43" d="M686.64,414.21 C718.93,437.76 755.5,464.43 789,488.87 " fill="none" id="Company-to-VaccineAdministration" style="stroke:#181818;stroke-width:1.0;"/><polygon fill="#181818" points="793.07,491.83,788.1476,483.2994,789.0276,488.8874,783.4396,489.7674,793.07,491.83" style="stroke:#181818;stroke-width:1.0;"/><text fill="#000000" font-family="sans-serif" font-size="13" lengthAdjust="spacing" textLength="21" x="746.5" y="458.4951">has</text><text fill="#000000" font-family="sans-serif" font-size="13" lengthAdjust="spacing" textLength="5" x="690.8841" y="435.58">*</text><text fill="#000000" font-family="sans-serif" font-size="13" lengthAdjust="spacing" textLength="7" x="775.7829" y="481.2405">1</text></g><!--MD5=[c29c8d42883934cbaf5793c72a334947]
link Company to Vaccine--><g id="link_Company_Vaccine"><path codeLine="44" d="M502.66,414.21 C470.48,437.76 434.03,464.43 400.64,488.87 " fill="none" id="Company-to-Vaccine" style="stroke:#181818;stroke-width:1.0;"/><polygon fill="#181818" points="396.58,491.83,406.2021,489.7289,400.6107,488.8713,401.4682,483.2799,396.58,491.83" style="stroke:#181818;stroke-width:1.0;"/><text fill="#000000" font-family="sans-serif" font-size="13" lengthAdjust="spacing" textLength="21" x="463.5" y="458.4951">has</text><text fill="#000000" font-family="sans-serif" font-size="13" lengthAdjust="spacing" textLength="7" x="485.8281" y="435.58">1</text><text fill="#000000" font-family="sans-serif" font-size="13" lengthAdjust="spacing" textLength="5" x="401.2618" y="481.2405">*</text></g><!--MD5=[b8c685222e5e237c3cacf929834c58c6]
@startuml
skinparam classAttributeIconSize 0


class Vaccine {
  -String name
  -String brand
  -String type
 +createVaccineAdministration(dosage, number of doses, min age group, max age group)
 -createNewVaccine(name,brand,type)
 -validateVaccine()
}

class VaccineAdministration {
  -String dosage
  -int minAgeGroup
  -int maxAgeGroup
  -int numberOfDoses
  -validateVaccineAdministration()
  -createVaccineAdministration(dosage, number of doses, min age group, max age group)
}

class Company {
  -Vaccine
  -VaccineAdministration
  - - -
  +createNewVaccine(name,brand,type)
  +createVaccineAdministration(dosage, number of doses, min age group, max age group)
  -storeVaccineAndAministrationProcessData
}


class SpecifyNewVaccineAndAdministrationProcessController {
- Vaccine
  + createNewVaccine(name,brand,type)
  + createVaccineAdministration(dosage, number of doses, min age group, max age group)
}

class SpecifyNewVaccineAndAdministrationProcessUI {
}

SpecifyNewVaccineAndAdministrationProcessUI ..> SpecifyNewVaccineAndAdministrationProcessController
SpecifyNewVaccineAndAdministrationProcessController ..> Company
Company "*" - -> "1" VaccineAdministration : has
Company "1" - -> "*" Vaccine : has

@enduml

PlantUML version 1.2022.4(Sat Apr 09 14:29:17 BST 2022)
(GPL source distribution)
Java Runtime: OpenJDK Runtime Environment
JVM: OpenJDK 64-Bit Server VM
Default Encoding: Cp1252
Language: pt
Country: PT
--></g></svg>