<?xml version="1.0" encoding="UTF-8" standalone="no"?><svg xmlns="http://www.w3.org/2000/svg" xmlns:xlink="http://www.w3.org/1999/xlink" contentStyleType="text/css" height="791px" preserveAspectRatio="none" style="width:486px;height:791px;background:#FFFFFF;" version="1.1" viewBox="0 0 486 791" width="486px" zoomAndPan="magnify"><defs/><g><rect fill="#FFFFFF" height="608.0313" style="stroke:#181818;stroke-width:1.0;" width="10" x="32.5" y="92.6094"/><rect fill="#FFFFFF" height="30.3516" style="stroke:#181818;stroke-width:1.0;" width="10" x="443.5" y="114.9609"/><rect fill="#FFFFFF" height="30.3516" style="stroke:#181818;stroke-width:1.0;" width="10" x="443.5" y="175.6641"/><rect fill="#FFFFFF" height="30.3516" style="stroke:#181818;stroke-width:1.0;" width="10" x="443.5" y="236.3672"/><rect fill="#FFFFFF" height="30.3516" style="stroke:#181818;stroke-width:1.0;" width="10" x="443.5" y="297.0703"/><rect fill="#FFFFFF" height="30.3516" style="stroke:#181818;stroke-width:1.0;" width="10" x="443.5" y="357.7734"/><rect fill="#FFFFFF" height="30.3516" style="stroke:#181818;stroke-width:1.0;" width="10" x="443.5" y="418.4766"/><rect fill="#FFFFFF" height="30.3516" style="stroke:#181818;stroke-width:1.0;" width="10" x="443.5" y="479.1797"/><rect fill="#FFFFFF" height="30.3516" style="stroke:#181818;stroke-width:1.0;" width="10" x="443.5" y="539.8828"/><rect fill="#FFFFFF" height="30.3516" style="stroke:#181818;stroke-width:1.0;" width="10" x="443.5" y="600.5859"/><rect fill="#FFFFFF" height="30.3516" style="stroke:#181818;stroke-width:1.0;" width="10" x="443.5" y="661.2891"/><line style="stroke:#181818;stroke-width:0.5;stroke-dasharray:5.0,5.0;" x1="37" x2="37" y1="82.6094" y2="709.6406"/><line style="stroke:#181818;stroke-width:0.5;stroke-dasharray:5.0,5.0;" x1="448.5" x2="448.5" y1="82.6094" y2="709.6406"/><text fill="#000000" font-family="sans-serif" font-size="14" lengthAdjust="spacing" textLength="59" x="5" y="79.5332">SNS user</text><ellipse cx="37.5" cy="13.5" fill="#E2E2F0" rx="8" ry="8" style="stroke:#181818;stroke-width:0.5;"/><path d="M37.5,21.5 L37.5,48.5 M24.5,29.5 L50.5,29.5 M37.5,48.5 L24.5,63.5 M37.5,48.5 L50.5,63.5 " fill="none" style="stroke:#181818;stroke-width:0.5;"/><text fill="#000000" font-family="sans-serif" font-size="14" lengthAdjust="spacing" textLength="59" x="5" y="723.1738">SNS user</text><ellipse cx="37.5" cy="734.75" fill="#E2E2F0" rx="8" ry="8" style="stroke:#181818;stroke-width:0.5;"/><path d="M37.5,742.75 L37.5,769.75 M24.5,750.75 L50.5,750.75 M37.5,769.75 L24.5,784.75 M37.5,769.75 L50.5,784.75 " fill="none" style="stroke:#181818;stroke-width:0.5;"/><rect fill="#E2E2F0" height="31.6094" rx="2.5" ry="2.5" style="stroke:#181818;stroke-width:0.5;" width="64" x="416.5" y="50"/><text fill="#000000" font-family="sans-serif" font-size="14" lengthAdjust="spacing" textLength="50" x="423.5" y="71.5332">:System</text><rect fill="#E2E2F0" height="31.6094" rx="2.5" ry="2.5" style="stroke:#181818;stroke-width:0.5;" width="64" x="416.5" y="708.6406"/><text fill="#000000" font-family="sans-serif" font-size="14" lengthAdjust="spacing" textLength="50" x="423.5" y="730.1738">:System</text><rect fill="#FFFFFF" height="608.0313" style="stroke:#181818;stroke-width:1.0;" width="10" x="32.5" y="92.6094"/><rect fill="#FFFFFF" height="30.3516" style="stroke:#181818;stroke-width:1.0;" width="10" x="443.5" y="114.9609"/><rect fill="#FFFFFF" height="30.3516" style="stroke:#181818;stroke-width:1.0;" width="10" x="443.5" y="175.6641"/><rect fill="#FFFFFF" height="30.3516" style="stroke:#181818;stroke-width:1.0;" width="10" x="443.5" y="236.3672"/><rect fill="#FFFFFF" height="30.3516" style="stroke:#181818;stroke-width:1.0;" width="10" x="443.5" y="297.0703"/><rect fill="#FFFFFF" height="30.3516" style="stroke:#181818;stroke-width:1.0;" width="10" x="443.5" y="357.7734"/><rect fill="#FFFFFF" height="30.3516" style="stroke:#181818;stroke-width:1.0;" width="10" x="443.5" y="418.4766"/><rect fill="#FFFFFF" height="30.3516" style="stroke:#181818;stroke-width:1.0;" width="10" x="443.5" y="479.1797"/><rect fill="#FFFFFF" height="30.3516" style="stroke:#181818;stroke-width:1.0;" width="10" x="443.5" y="539.8828"/><rect fill="#FFFFFF" height="30.3516" style="stroke:#181818;stroke-width:1.0;" width="10" x="443.5" y="600.5859"/><rect fill="#FFFFFF" height="30.3516" style="stroke:#181818;stroke-width:1.0;" width="10" x="443.5" y="661.2891"/><polygon fill="#181818" points="431.5,110.9609,441.5,114.9609,431.5,118.9609,435.5,114.9609" style="stroke:#181818;stroke-width:1.0;"/><line style="stroke:#181818;stroke-width:1.0;" x1="42.5" x2="437.5" y1="114.9609" y2="114.9609"/><text fill="#000000" font-family="sans-serif" font-size="13" font-weight="bold" lengthAdjust="spacing" textLength="7" x="49.5" y="110.1045">1</text><text fill="#000000" font-family="sans-serif" font-size="13" lengthAdjust="spacing" textLength="157" x="60.5" y="110.1045">starts scheduling a vaccine</text><polygon fill="#181818" points="53.5,141.3125,43.5,145.3125,53.5,149.3125,49.5,145.3125" style="stroke:#181818;stroke-width:1.0;"/><line style="stroke:#181818;stroke-width:1.0;stroke-dasharray:2.0,2.0;" x1="47.5" x2="447.5" y1="145.3125" y2="145.3125"/><text fill="#000000" font-family="sans-serif" font-size="13" font-weight="bold" lengthAdjust="spacing" textLength="7" x="59.5" y="140.4561">2</text><text fill="#000000" font-family="sans-serif" font-size="13" lengthAdjust="spacing" textLength="183" x="70.5" y="140.4561">request data (Sns user number)</text><polygon fill="#181818" points="431.5,171.6641,441.5,175.6641,431.5,179.6641,435.5,175.6641" style="stroke:#181818;stroke-width:1.0;"/><line style="stroke:#181818;stroke-width:1.0;" x1="42.5" x2="437.5" y1="175.6641" y2="175.6641"/><text fill="#000000" font-family="sans-serif" font-size="13" font-weight="bold" lengthAdjust="spacing" textLength="7" x="49.5" y="170.8076">3</text><text fill="#000000" font-family="sans-serif" font-size="13" lengthAdjust="spacing" textLength="144" x="60.5" y="170.8076">types the requested data</text><polygon fill="#181818" points="53.5,202.0156,43.5,206.0156,53.5,210.0156,49.5,206.0156" style="stroke:#181818;stroke-width:1.0;"/><line style="stroke:#181818;stroke-width:1.0;stroke-dasharray:2.0,2.0;" x1="47.5" x2="447.5" y1="206.0156" y2="206.0156"/><text fill="#000000" font-family="sans-serif" font-size="13" font-weight="bold" lengthAdjust="spacing" textLength="7" x="59.5" y="201.1592">4</text><text fill="#000000" font-family="sans-serif" font-size="13" lengthAdjust="spacing" textLength="240" x="70.5" y="201.1592">Show the data and request a confirmation</text><polygon fill="#181818" points="431.5,232.3672,441.5,236.3672,431.5,240.3672,435.5,236.3672" style="stroke:#181818;stroke-width:1.0;"/><line style="stroke:#181818;stroke-width:1.0;" x1="42.5" x2="437.5" y1="236.3672" y2="236.3672"/><text fill="#000000" font-family="sans-serif" font-size="13" font-weight="bold" lengthAdjust="spacing" textLength="7" x="49.5" y="231.5107">5</text><text fill="#000000" font-family="sans-serif" font-size="13" lengthAdjust="spacing" textLength="102" x="60.5" y="231.5107">Confirms the data</text><polygon fill="#181818" points="53.5,262.7188,43.5,266.7188,53.5,270.7188,49.5,266.7188" style="stroke:#181818;stroke-width:1.0;"/><line style="stroke:#181818;stroke-width:1.0;stroke-dasharray:2.0,2.0;" x1="47.5" x2="447.5" y1="266.7188" y2="266.7188"/><text fill="#000000" font-family="sans-serif" font-size="13" font-weight="bold" lengthAdjust="spacing" textLength="7" x="59.5" y="261.8623">6</text><text fill="#000000" font-family="sans-serif" font-size="13" lengthAdjust="spacing" textLength="245" x="70.5" y="261.8623">Show a list of Vaccination Center available</text><polygon fill="#181818" points="431.5,293.0703,441.5,297.0703,431.5,301.0703,435.5,297.0703" style="stroke:#181818;stroke-width:1.0;"/><line style="stroke:#181818;stroke-width:1.0;" x1="42.5" x2="437.5" y1="297.0703" y2="297.0703"/><text fill="#000000" font-family="sans-serif" font-size="13" font-weight="bold" lengthAdjust="spacing" textLength="7" x="49.5" y="292.2139">7</text><text fill="#000000" font-family="sans-serif" font-size="13" lengthAdjust="spacing" textLength="162" x="60.5" y="292.2139">Select a Vaccination Center</text><polygon fill="#181818" points="53.5,323.4219,43.5,327.4219,53.5,331.4219,49.5,327.4219" style="stroke:#181818;stroke-width:1.0;"/><line style="stroke:#181818;stroke-width:1.0;stroke-dasharray:2.0,2.0;" x1="47.5" x2="447.5" y1="327.4219" y2="327.4219"/><text fill="#000000" font-family="sans-serif" font-size="13" font-weight="bold" lengthAdjust="spacing" textLength="7" x="59.5" y="322.5654">8</text><text fill="#000000" font-family="sans-serif" font-size="13" lengthAdjust="spacing" textLength="214" x="70.5" y="322.5654">Show a list of Vaccine Type available</text><polygon fill="#181818" points="431.5,353.7734,441.5,357.7734,431.5,361.7734,435.5,357.7734" style="stroke:#181818;stroke-width:1.0;"/><line style="stroke:#181818;stroke-width:1.0;" x1="42.5" x2="437.5" y1="357.7734" y2="357.7734"/><text fill="#000000" font-family="sans-serif" font-size="13" font-weight="bold" lengthAdjust="spacing" textLength="7" x="49.5" y="352.917">9</text><text fill="#000000" font-family="sans-serif" font-size="13" lengthAdjust="spacing" textLength="131" x="60.5" y="352.917">Select a Vaccine Type</text><polygon fill="#181818" points="53.5,384.125,43.5,388.125,53.5,392.125,49.5,388.125" style="stroke:#181818;stroke-width:1.0;"/><line style="stroke:#181818;stroke-width:1.0;stroke-dasharray:2.0,2.0;" x1="47.5" x2="447.5" y1="388.125" y2="388.125"/><text fill="#000000" font-family="sans-serif" font-size="13" font-weight="bold" lengthAdjust="spacing" textLength="14" x="59.5" y="383.2686">10</text><text fill="#000000" font-family="sans-serif" font-size="13" lengthAdjust="spacing" textLength="105" x="77.5" y="383.2686">request data (day)</text><polygon fill="#181818" points="431.5,414.4766,441.5,418.4766,431.5,422.4766,435.5,418.4766" style="stroke:#181818;stroke-width:1.0;"/><line style="stroke:#181818;stroke-width:1.0;" x1="42.5" x2="437.5" y1="418.4766" y2="418.4766"/><text fill="#000000" font-family="sans-serif" font-size="13" font-weight="bold" lengthAdjust="spacing" textLength="14" x="49.5" y="413.6201">11</text><text fill="#000000" font-family="sans-serif" font-size="13" lengthAdjust="spacing" textLength="122" x="67.5" y="413.6201">types requested data</text><polygon fill="#181818" points="53.5,444.8281,43.5,448.8281,53.5,452.8281,49.5,448.8281" style="stroke:#181818;stroke-width:1.0;"/><line style="stroke:#181818;stroke-width:1.0;stroke-dasharray:2.0,2.0;" x1="47.5" x2="447.5" y1="448.8281" y2="448.8281"/><text fill="#000000" font-family="sans-serif" font-size="13" font-weight="bold" lengthAdjust="spacing" textLength="14" x="59.5" y="443.9717">12</text><text fill="#000000" font-family="sans-serif" font-size="13" lengthAdjust="spacing" textLength="240" x="77.5" y="443.9717">Show the data and request a confirmation</text><polygon fill="#181818" points="431.5,475.1797,441.5,479.1797,431.5,483.1797,435.5,479.1797" style="stroke:#181818;stroke-width:1.0;"/><line style="stroke:#181818;stroke-width:1.0;" x1="42.5" x2="437.5" y1="479.1797" y2="479.1797"/><text fill="#000000" font-family="sans-serif" font-size="13" font-weight="bold" lengthAdjust="spacing" textLength="14" x="49.5" y="474.3232">13</text><text fill="#000000" font-family="sans-serif" font-size="13" lengthAdjust="spacing" textLength="102" x="67.5" y="474.3232">Confirms the data</text><polygon fill="#181818" points="53.5,505.5313,43.5,509.5313,53.5,513.5313,49.5,509.5313" style="stroke:#181818;stroke-width:1.0;"/><line style="stroke:#181818;stroke-width:1.0;stroke-dasharray:2.0,2.0;" x1="47.5" x2="447.5" y1="509.5313" y2="509.5313"/><text fill="#000000" font-family="sans-serif" font-size="13" font-weight="bold" lengthAdjust="spacing" textLength="14" x="59.5" y="504.6748">14</text><text fill="#000000" font-family="sans-serif" font-size="13" lengthAdjust="spacing" textLength="283" x="77.5" y="504.6748">Show the hours available to schedule the vaccine</text><polygon fill="#181818" points="431.5,535.8828,441.5,539.8828,431.5,543.8828,435.5,539.8828" style="stroke:#181818;stroke-width:1.0;"/><line style="stroke:#181818;stroke-width:1.0;" x1="42.5" x2="437.5" y1="539.8828" y2="539.8828"/><text fill="#000000" font-family="sans-serif" font-size="13" font-weight="bold" lengthAdjust="spacing" textLength="14" x="49.5" y="535.0264">15</text><text fill="#000000" font-family="sans-serif" font-size="13" lengthAdjust="spacing" textLength="84" x="67.5" y="535.0264">Select an hour</text><polygon fill="#181818" points="53.5,566.2344,43.5,570.2344,53.5,574.2344,49.5,570.2344" style="stroke:#181818;stroke-width:1.0;"/><line style="stroke:#181818;stroke-width:1.0;stroke-dasharray:2.0,2.0;" x1="47.5" x2="447.5" y1="570.2344" y2="570.2344"/><text fill="#000000" font-family="sans-serif" font-size="13" font-weight="bold" lengthAdjust="spacing" textLength="14" x="59.5" y="565.3779">16</text><text fill="#000000" font-family="sans-serif" font-size="13" lengthAdjust="spacing" textLength="254" x="77.5" y="565.3779">Shows the data and requests a confirmation</text><polygon fill="#181818" points="431.5,596.5859,441.5,600.5859,431.5,604.5859,435.5,600.5859" style="stroke:#181818;stroke-width:1.0;"/><line style="stroke:#181818;stroke-width:1.0;" x1="42.5" x2="437.5" y1="600.5859" y2="600.5859"/><text fill="#000000" font-family="sans-serif" font-size="13" font-weight="bold" lengthAdjust="spacing" textLength="14" x="49.5" y="595.7295">17</text><text fill="#000000" font-family="sans-serif" font-size="13" lengthAdjust="spacing" textLength="100" x="67.5" y="595.7295">confirms the data</text><polygon fill="#181818" points="53.5,626.9375,43.5,630.9375,53.5,634.9375,49.5,630.9375" style="stroke:#181818;stroke-width:1.0;"/><line style="stroke:#181818;stroke-width:1.0;stroke-dasharray:2.0,2.0;" x1="47.5" x2="447.5" y1="630.9375" y2="630.9375"/><text fill="#000000" font-family="sans-serif" font-size="13" font-weight="bold" lengthAdjust="spacing" textLength="14" x="59.5" y="626.0811">18</text><text fill="#000000" font-family="sans-serif" font-size="13" lengthAdjust="spacing" textLength="359" x="77.5" y="626.0811">Ask the user to receive a sms whit schedule data informations</text><polygon fill="#181818" points="431.5,657.2891,441.5,661.2891,431.5,665.2891,435.5,661.2891" style="stroke:#181818;stroke-width:1.0;"/><line style="stroke:#181818;stroke-width:1.0;" x1="42.5" x2="437.5" y1="661.2891" y2="661.2891"/><text fill="#000000" font-family="sans-serif" font-size="13" font-weight="bold" lengthAdjust="spacing" textLength="14" x="49.5" y="656.4326">19</text><text fill="#000000" font-family="sans-serif" font-size="13" lengthAdjust="spacing" textLength="149" x="67.5" y="656.4326">Types the answer(yes/no)</text><polygon fill="#181818" points="53.5,687.6406,43.5,691.6406,53.5,695.6406,49.5,691.6406" style="stroke:#181818;stroke-width:1.0;"/><line style="stroke:#181818;stroke-width:1.0;stroke-dasharray:2.0,2.0;" x1="47.5" x2="447.5" y1="691.6406" y2="691.6406"/><text fill="#000000" font-family="sans-serif" font-size="13" font-weight="bold" lengthAdjust="spacing" textLength="14" x="59.5" y="686.7842">20</text><text fill="#000000" font-family="sans-serif" font-size="13" lengthAdjust="spacing" textLength="159" x="77.5" y="686.7842">confirms operation success</text><!--MD5=[1ec2439906e3dab6ab91e0009f6a80a5]
@startuml
'https://plantuml.com/sequence-diagram

autonumber
actor "SNS user"
activate "SNS user"
"SNS user" -> ":System": starts scheduling a vaccine
activate ":System"
":System" - -> "SNS user": request data (Sns user number)
deactivate ":System"
"SNS user" -> ":System": types the requested data
activate ":System"
":System" - -> "SNS user": Show the data and request a confirmation
deactivate ":System"
"SNS user" -> ":System":  Confirms the data
activate ":System"
":System" - -> "SNS user": Show a list of Vaccination Center available
deactivate ":System"
"SNS user" -> ":System": Select a Vaccination Center
activate ":System"
":System" - -> "SNS user": Show a list of Vaccine Type available
deactivate ":System"
"SNS user" -> ":System": Select a Vaccine Type
activate ":System"
":System" - -> "SNS user": request data (day)
deactivate ":System"
"SNS user" -> ":System": types requested data
activate ":System"
":System" - -> "SNS user": Show the data and request a confirmation
deactivate ":System"
"SNS user" -> ":System":  Confirms the data
activate ":System"
":System" - -> "SNS user": Show the hours available to schedule the vaccine
deactivate ":System"
"SNS user" -> ":System": Select an hour
activate ":System"
":System" - -> "SNS user": Shows the data and requests a confirmation
deactivate ":System"
"SNS user" -> ":System": confirms the data
activate ":System"
":System" - -> "SNS user": Ask the user to receive a sms whit schedule data informations
deactivate ":System"
"SNS user" -> ":System": Types the answer(yes/no)
activate ":System"
":System" - -> "SNS user": confirms operation success
deactivate ":System"

@enduml

@startuml

autonumber
actor "SNS user"
activate "SNS user"
"SNS user" -> ":System": starts scheduling a vaccine
activate ":System"
":System" - -> "SNS user": request data (Sns user number)
deactivate ":System"
"SNS user" -> ":System": types the requested data
activate ":System"
":System" - -> "SNS user": Show the data and request a confirmation
deactivate ":System"
"SNS user" -> ":System":  Confirms the data
activate ":System"
":System" - -> "SNS user": Show a list of Vaccination Center available
deactivate ":System"
"SNS user" -> ":System": Select a Vaccination Center
activate ":System"
":System" - -> "SNS user": Show a list of Vaccine Type available
deactivate ":System"
"SNS user" -> ":System": Select a Vaccine Type
activate ":System"
":System" - -> "SNS user": request data (day)
deactivate ":System"
"SNS user" -> ":System": types requested data
activate ":System"
":System" - -> "SNS user": Show the data and request a confirmation
deactivate ":System"
"SNS user" -> ":System":  Confirms the data
activate ":System"
":System" - -> "SNS user": Show the hours available to schedule the vaccine
deactivate ":System"
"SNS user" -> ":System": Select an hour
activate ":System"
":System" - -> "SNS user": Shows the data and requests a confirmation
deactivate ":System"
"SNS user" -> ":System": confirms the data
activate ":System"
":System" - -> "SNS user": Ask the user to receive a sms whit schedule data informations
deactivate ":System"
"SNS user" -> ":System": Types the answer(yes/no)
activate ":System"
":System" - -> "SNS user": confirms operation success
deactivate ":System"

@enduml

PlantUML version 1.2022.4(Sat Apr 09 14:29:17 BST 2022)
(GPL source distribution)
Java Runtime: OpenJDK Runtime Environment
JVM: OpenJDK 64-Bit Server VM
Default Encoding: Cp1252
Language: pt
Country: PT
--></g></svg>