<?xml version="1.0" encoding="UTF-8" standalone="no"?><svg xmlns="http://www.w3.org/2000/svg" xmlns:xlink="http://www.w3.org/1999/xlink" contentStyleType="text/css" height="438px" preserveAspectRatio="none" style="width:1039px;height:438px;background:#FFFFFF;" version="1.1" viewBox="0 0 1039 438" width="1039px" zoomAndPan="magnify"><defs/><g><!--MD5=[5e64baa95a5ab0a9b96099759ffd45f3]
class SpecifyNewEmployeeUI--><g id="elem_SpecifyNewEmployeeUI"><rect codeLine="2" fill="#F1F1F1" height="48" id="SpecifyNewEmployeeUI" rx="2.5" ry="2.5" style="stroke:#181818;stroke-width:0.5;" width="178" x="854" y="212.5"/><ellipse cx="869" cy="228.5" fill="#ADD1B2" rx="11" ry="11" style="stroke:#181818;stroke-width:1.0;"/><path d="M871,225 Q871.2031,224.5 871.4375,224.25 Q871.6719,224 871.9375,224 Q872.4063,224 872.7031,224.2813 Q873,224.5625 873,225.2188 L873,226.7813 Q873,227.4375 872.7188,227.7188 Q872.4375,228 872,228 Q871.6094,228 871.3594,227.8281 Q871.1094,227.6563 871,227.2031 Q870.9531,226.8906 870.7813,226.7188 Q870.4688,226.3906 869.9063,226.2031 Q869.3438,226 868.7813,226 Q868.0781,226 867.4844,226.2813 Q866.9063,226.5625 866.4531,227.1875 Q866,227.8125 866,228.6719 L866,229.5938 Q866,230.625 866.8438,231.3125 Q867.6875,232 869.1875,232 Q870.0781,232 870.7031,231.7969 Q871.0625,231.6875 871.4688,231.3281 Q871.7344,231.125 871.875,231.0625 Q872.0156,231 872.1875,231 Q872.5156,231 872.75,231.2656 Q873,231.5156 873,231.875 Q873,232.2188 872.6563,232.625 Q872.1563,233.2188 871.3594,233.5469 Q870.3125,234 869.0313,234 Q867.5313,234 866.3281,233.4063 Q865.3594,232.9375 864.6719,231.9219 Q864,230.9063 864,229.7031 L864,228.6094 Q864,227.3594 864.5938,226.2656 Q865.2031,225.1719 866.25,224.5938 Q867.3125,224 868.5,224 Q869.2188,224 869.8438,224.25 Q870.4688,224.5 871,225 Z " fill="#000000"/><text fill="#000000" font-family="sans-serif" font-size="14" lengthAdjust="spacing" textLength="146" x="883" y="234.2285">SpecifyNewEmployeeUI</text><line style="stroke:#181818;stroke-width:0.5;" x1="855" x2="1031" y1="244.5" y2="244.5"/><line style="stroke:#181818;stroke-width:0.5;" x1="855" x2="1031" y1="252.5" y2="252.5"/></g><!--MD5=[48ba75c4824eb2956ec44760cf823b64]
class SpecifyNewEmployeeController--><g id="elem_SpecifyNewEmployeeController"><rect codeLine="10" fill="#F1F1F1" height="83.2188" id="SpecifyNewEmployeeController" rx="2.5" ry="2.5" style="stroke:#181818;stroke-width:0.5;" width="605" x="320.5" y="7"/><ellipse cx="520.75" cy="23" fill="#ADD1B2" rx="11" ry="11" style="stroke:#181818;stroke-width:1.0;"/><path d="M522.75,19.5 Q522.9531,19 523.1875,18.75 Q523.4219,18.5 523.6875,18.5 Q524.1563,18.5 524.4531,18.7813 Q524.75,19.0625 524.75,19.7188 L524.75,21.2813 Q524.75,21.9375 524.4688,22.2188 Q524.1875,22.5 523.75,22.5 Q523.3594,22.5 523.1094,22.3281 Q522.8594,22.1563 522.75,21.7031 Q522.7031,21.3906 522.5313,21.2188 Q522.2188,20.8906 521.6563,20.7031 Q521.0938,20.5 520.5313,20.5 Q519.8281,20.5 519.2344,20.7813 Q518.6563,21.0625 518.2031,21.6875 Q517.75,22.3125 517.75,23.1719 L517.75,24.0938 Q517.75,25.125 518.5938,25.8125 Q519.4375,26.5 520.9375,26.5 Q521.8281,26.5 522.4531,26.2969 Q522.8125,26.1875 523.2188,25.8281 Q523.4844,25.625 523.625,25.5625 Q523.7656,25.5 523.9375,25.5 Q524.2656,25.5 524.5,25.7656 Q524.75,26.0156 524.75,26.375 Q524.75,26.7188 524.4063,27.125 Q523.9063,27.7188 523.1094,28.0469 Q522.0625,28.5 520.7813,28.5 Q519.2813,28.5 518.0781,27.9063 Q517.1094,27.4375 516.4219,26.4219 Q515.75,25.4063 515.75,24.2031 L515.75,23.1094 Q515.75,21.8594 516.3438,20.7656 Q516.9531,19.6719 518,19.0938 Q519.0625,18.5 520.25,18.5 Q520.9688,18.5 521.5938,18.75 Q522.2188,19 522.75,19.5 Z " fill="#000000"/><text fill="#000000" font-family="sans-serif" font-size="14" lengthAdjust="spacing" textLength="196" x="541.25" y="28.7285">SpecifyNewEmployeeController</text><line style="stroke:#181818;stroke-width:0.5;" x1="321.5" x2="924.5" y1="39" y2="39"/><line style="stroke:#181818;stroke-width:0.5;" x1="321.5" x2="924.5" y1="47" y2="47"/><ellipse cx="331.5" cy="58" fill="#84BE84" rx="3" ry="3" style="stroke:#038048;stroke-width:1.0;"/><text fill="#000000" font-family="sans-serif" font-size="14" lengthAdjust="spacing" textLength="579" x="340.5" y="65.5332">createNewEmployee(name, addres, phone number, e-mail, citizen card number, occupation)</text><ellipse cx="331.5" cy="75.6094" fill="#84BE84" rx="3" ry="3" style="stroke:#038048;stroke-width:1.0;"/><text fill="#000000" font-family="sans-serif" font-size="14" lengthAdjust="spacing" textLength="128" x="340.5" y="83.1426">saveNewEmployee()</text></g><!--MD5=[7421f545a0d8420c5bec41e74b387d9c]
class Employee--><g id="elem_Employee"><rect codeLine="25" fill="#F1F1F1" height="136.0469" id="Employee" rx="2.5" ry="2.5" style="stroke:#181818;stroke-width:0.5;" width="149" x="669.5" y="168.5"/><ellipse cx="709.25" cy="184.5" fill="#ADD1B2" rx="11" ry="11" style="stroke:#181818;stroke-width:1.0;"/><path d="M711.25,181 Q711.4531,180.5 711.6875,180.25 Q711.9219,180 712.1875,180 Q712.6563,180 712.9531,180.2813 Q713.25,180.5625 713.25,181.2188 L713.25,182.7813 Q713.25,183.4375 712.9688,183.7188 Q712.6875,184 712.25,184 Q711.8594,184 711.6094,183.8281 Q711.3594,183.6563 711.25,183.2031 Q711.2031,182.8906 711.0313,182.7188 Q710.7188,182.3906 710.1563,182.2031 Q709.5938,182 709.0313,182 Q708.3281,182 707.7344,182.2813 Q707.1563,182.5625 706.7031,183.1875 Q706.25,183.8125 706.25,184.6719 L706.25,185.5938 Q706.25,186.625 707.0938,187.3125 Q707.9375,188 709.4375,188 Q710.3281,188 710.9531,187.7969 Q711.3125,187.6875 711.7188,187.3281 Q711.9844,187.125 712.125,187.0625 Q712.2656,187 712.4375,187 Q712.7656,187 713,187.2656 Q713.25,187.5156 713.25,187.875 Q713.25,188.2188 712.9063,188.625 Q712.4063,189.2188 711.6094,189.5469 Q710.5625,190 709.2813,190 Q707.7813,190 706.5781,189.4063 Q705.6094,188.9375 704.9219,187.9219 Q704.25,186.9063 704.25,185.7031 L704.25,184.6094 Q704.25,183.3594 704.8438,182.2656 Q705.4531,181.1719 706.5,180.5938 Q707.5625,180 708.75,180 Q709.4688,180 710.0938,180.25 Q710.7188,180.5 711.25,181 Z " fill="#000000"/><text fill="#000000" font-family="sans-serif" font-size="14" lengthAdjust="spacing" textLength="62" x="728.75" y="190.2285">Employee</text><line style="stroke:#181818;stroke-width:0.5;" x1="670.5" x2="817.5" y1="200.5" y2="200.5"/><rect fill="none" height="6" style="stroke:#C82930;stroke-width:1.0;" width="6" x="677.5" y="208.5"/><text fill="#000000" font-family="sans-serif" font-size="14" lengthAdjust="spacing" textLength="35" x="689.5" y="219.0332">name</text><rect fill="none" height="6" style="stroke:#C82930;stroke-width:1.0;" width="6" x="677.5" y="226.1094"/><text fill="#000000" font-family="sans-serif" font-size="14" lengthAdjust="spacing" textLength="51" x="689.5" y="236.6426">address</text><rect fill="none" height="6" style="stroke:#C82930;stroke-width:1.0;" width="6" x="677.5" y="243.7188"/><text fill="#000000" font-family="sans-serif" font-size="14" lengthAdjust="spacing" textLength="92" x="689.5" y="254.252">phone number</text><rect fill="none" height="6" style="stroke:#C82930;stroke-width:1.0;" width="6" x="677.5" y="261.3281"/><text fill="#000000" font-family="sans-serif" font-size="14" lengthAdjust="spacing" textLength="38" x="689.5" y="271.8613">e-mail</text><rect fill="none" height="6" style="stroke:#C82930;stroke-width:1.0;" width="6" x="677.5" y="278.9375"/><text fill="#000000" font-family="sans-serif" font-size="14" lengthAdjust="spacing" textLength="123" x="689.5" y="289.4707">citizen card number</text><line style="stroke:#181818;stroke-width:0.5;" x1="670.5" x2="817.5" y1="296.5469" y2="296.5469"/></g><!--MD5=[a059576e163b46f56762f12600c49258]
class Nurse--><g id="elem_Nurse"><rect codeLine="5" fill="#F1F1F1" height="48" id="Nurse" rx="2.5" ry="2.5" style="stroke:#181818;stroke-width:0.5;" width="69" x="564.5" y="383"/><ellipse cx="579.5" cy="399" fill="#ADD1B2" rx="11" ry="11" style="stroke:#181818;stroke-width:1.0;"/><path d="M581.5,395.5 Q581.7031,395 581.9375,394.75 Q582.1719,394.5 582.4375,394.5 Q582.9063,394.5 583.2031,394.7813 Q583.5,395.0625 583.5,395.7188 L583.5,397.2813 Q583.5,397.9375 583.2188,398.2188 Q582.9375,398.5 582.5,398.5 Q582.1094,398.5 581.8594,398.3281 Q581.6094,398.1563 581.5,397.7031 Q581.4531,397.3906 581.2813,397.2188 Q580.9688,396.8906 580.4063,396.7031 Q579.8438,396.5 579.2813,396.5 Q578.5781,396.5 577.9844,396.7813 Q577.4063,397.0625 576.9531,397.6875 Q576.5,398.3125 576.5,399.1719 L576.5,400.0938 Q576.5,401.125 577.3438,401.8125 Q578.1875,402.5 579.6875,402.5 Q580.5781,402.5 581.2031,402.2969 Q581.5625,402.1875 581.9688,401.8281 Q582.2344,401.625 582.375,401.5625 Q582.5156,401.5 582.6875,401.5 Q583.0156,401.5 583.25,401.7656 Q583.5,402.0156 583.5,402.375 Q583.5,402.7188 583.1563,403.125 Q582.6563,403.7188 581.8594,404.0469 Q580.8125,404.5 579.5313,404.5 Q578.0313,404.5 576.8281,403.9063 Q575.8594,403.4375 575.1719,402.4219 Q574.5,401.4063 574.5,400.2031 L574.5,399.1094 Q574.5,397.8594 575.0938,396.7656 Q575.7031,395.6719 576.75,395.0938 Q577.8125,394.5 579,394.5 Q579.7188,394.5 580.3438,394.75 Q580.9688,395 581.5,395.5 Z " fill="#000000"/><text fill="#000000" font-family="sans-serif" font-size="14" lengthAdjust="spacing" textLength="37" x="593.5" y="404.7285">Nurse</text><line style="stroke:#181818;stroke-width:0.5;" x1="565.5" x2="632.5" y1="415" y2="415"/><line style="stroke:#181818;stroke-width:0.5;" x1="565.5" x2="632.5" y1="423" y2="423"/></g><!--MD5=[2d935fd2dd068a13da1ae531f9857c4f]
class CenterCoordinator--><g id="elem_CenterCoordinator"><rect codeLine="6" fill="#F1F1F1" height="48" id="CenterCoordinator" rx="2.5" ry="2.5" style="stroke:#181818;stroke-width:0.5;" width="150" x="669" y="383"/><ellipse cx="684" cy="399" fill="#ADD1B2" rx="11" ry="11" style="stroke:#181818;stroke-width:1.0;"/><path d="M686,395.5 Q686.2031,395 686.4375,394.75 Q686.6719,394.5 686.9375,394.5 Q687.4063,394.5 687.7031,394.7813 Q688,395.0625 688,395.7188 L688,397.2813 Q688,397.9375 687.7188,398.2188 Q687.4375,398.5 687,398.5 Q686.6094,398.5 686.3594,398.3281 Q686.1094,398.1563 686,397.7031 Q685.9531,397.3906 685.7813,397.2188 Q685.4688,396.8906 684.9063,396.7031 Q684.3438,396.5 683.7813,396.5 Q683.0781,396.5 682.4844,396.7813 Q681.9063,397.0625 681.4531,397.6875 Q681,398.3125 681,399.1719 L681,400.0938 Q681,401.125 681.8438,401.8125 Q682.6875,402.5 684.1875,402.5 Q685.0781,402.5 685.7031,402.2969 Q686.0625,402.1875 686.4688,401.8281 Q686.7344,401.625 686.875,401.5625 Q687.0156,401.5 687.1875,401.5 Q687.5156,401.5 687.75,401.7656 Q688,402.0156 688,402.375 Q688,402.7188 687.6563,403.125 Q687.1563,403.7188 686.3594,404.0469 Q685.3125,404.5 684.0313,404.5 Q682.5313,404.5 681.3281,403.9063 Q680.3594,403.4375 679.6719,402.4219 Q679,401.4063 679,400.2031 L679,399.1094 Q679,397.8594 679.5938,396.7656 Q680.2031,395.6719 681.25,395.0938 Q682.3125,394.5 683.5,394.5 Q684.2188,394.5 684.8438,394.75 Q685.4688,395 686,395.5 Z " fill="#000000"/><text fill="#000000" font-family="sans-serif" font-size="14" lengthAdjust="spacing" textLength="118" x="698" y="404.7285">CenterCoordinator</text><line style="stroke:#181818;stroke-width:0.5;" x1="670" x2="818" y1="415" y2="415"/><line style="stroke:#181818;stroke-width:0.5;" x1="670" x2="818" y1="423" y2="423"/></g><!--MD5=[03960189e81aa2c066c762ffabbee709]
class Receptionist--><g id="elem_Receptionist"><rect codeLine="7" fill="#F1F1F1" height="48" id="Receptionist" rx="2.5" ry="2.5" style="stroke:#181818;stroke-width:0.5;" width="110" x="854" y="383"/><ellipse cx="869" cy="399" fill="#ADD1B2" rx="11" ry="11" style="stroke:#181818;stroke-width:1.0;"/><path d="M871,395.5 Q871.2031,395 871.4375,394.75 Q871.6719,394.5 871.9375,394.5 Q872.4063,394.5 872.7031,394.7813 Q873,395.0625 873,395.7188 L873,397.2813 Q873,397.9375 872.7188,398.2188 Q872.4375,398.5 872,398.5 Q871.6094,398.5 871.3594,398.3281 Q871.1094,398.1563 871,397.7031 Q870.9531,397.3906 870.7813,397.2188 Q870.4688,396.8906 869.9063,396.7031 Q869.3438,396.5 868.7813,396.5 Q868.0781,396.5 867.4844,396.7813 Q866.9063,397.0625 866.4531,397.6875 Q866,398.3125 866,399.1719 L866,400.0938 Q866,401.125 866.8438,401.8125 Q867.6875,402.5 869.1875,402.5 Q870.0781,402.5 870.7031,402.2969 Q871.0625,402.1875 871.4688,401.8281 Q871.7344,401.625 871.875,401.5625 Q872.0156,401.5 872.1875,401.5 Q872.5156,401.5 872.75,401.7656 Q873,402.0156 873,402.375 Q873,402.7188 872.6563,403.125 Q872.1563,403.7188 871.3594,404.0469 Q870.3125,404.5 869.0313,404.5 Q867.5313,404.5 866.3281,403.9063 Q865.3594,403.4375 864.6719,402.4219 Q864,401.4063 864,400.2031 L864,399.1094 Q864,397.8594 864.5938,396.7656 Q865.2031,395.6719 866.25,395.0938 Q867.3125,394.5 868.5,394.5 Q869.2188,394.5 869.8438,394.75 Q870.4688,395 871,395.5 Z " fill="#000000"/><text fill="#000000" font-family="sans-serif" font-size="14" lengthAdjust="spacing" textLength="78" x="883" y="404.7285">Receptionist</text><line style="stroke:#181818;stroke-width:0.5;" x1="855" x2="963" y1="415" y2="415"/><line style="stroke:#181818;stroke-width:0.5;" x1="855" x2="963" y1="423" y2="423"/></g><!--MD5=[02e4b9b7573f1156f41e60aa5b4e25a4]
class Company--><g id="elem_Company"><rect codeLine="15" fill="#F1F1F1" height="171.2656" id="Company" rx="2.5" ry="2.5" style="stroke:#181818;stroke-width:0.5;" width="592" x="7" y="151"/><ellipse cx="268.75" cy="167" fill="#ADD1B2" rx="11" ry="11" style="stroke:#181818;stroke-width:1.0;"/><path d="M270.75,163.5 Q270.9531,163 271.1875,162.75 Q271.4219,162.5 271.6875,162.5 Q272.1563,162.5 272.4531,162.7813 Q272.75,163.0625 272.75,163.7188 L272.75,165.2813 Q272.75,165.9375 272.4688,166.2188 Q272.1875,166.5 271.75,166.5 Q271.3594,166.5 271.1094,166.3281 Q270.8594,166.1563 270.75,165.7031 Q270.7031,165.3906 270.5313,165.2188 Q270.2188,164.8906 269.6563,164.7031 Q269.0938,164.5 268.5313,164.5 Q267.8281,164.5 267.2344,164.7813 Q266.6563,165.0625 266.2031,165.6875 Q265.75,166.3125 265.75,167.1719 L265.75,168.0938 Q265.75,169.125 266.5938,169.8125 Q267.4375,170.5 268.9375,170.5 Q269.8281,170.5 270.4531,170.2969 Q270.8125,170.1875 271.2188,169.8281 Q271.4844,169.625 271.625,169.5625 Q271.7656,169.5 271.9375,169.5 Q272.2656,169.5 272.5,169.7656 Q272.75,170.0156 272.75,170.375 Q272.75,170.7188 272.4063,171.125 Q271.9063,171.7188 271.1094,172.0469 Q270.0625,172.5 268.7813,172.5 Q267.2813,172.5 266.0781,171.9063 Q265.1094,171.4375 264.4219,170.4219 Q263.75,169.4063 263.75,168.2031 L263.75,167.1094 Q263.75,165.8594 264.3438,164.7656 Q264.9531,163.6719 266,163.0938 Q267.0625,162.5 268.25,162.5 Q268.9688,162.5 269.5938,162.75 Q270.2188,163 270.75,163.5 Z " fill="#000000"/><text fill="#000000" font-family="sans-serif" font-size="14" lengthAdjust="spacing" textLength="60" x="289.25" y="172.7285">Company</text><line style="stroke:#181818;stroke-width:0.5;" x1="8" x2="598" y1="183" y2="183"/><rect fill="none" height="6" style="stroke:#C82930;stroke-width:1.0;" width="6" x="15" y="191"/><text fill="#000000" font-family="sans-serif" font-size="14" lengthAdjust="spacing" textLength="73" x="27" y="201.5332">designation</text><line style="stroke:#181818;stroke-width:0.5;" x1="8" x2="598" y1="208.6094" y2="208.6094"/><ellipse cx="18" cy="219.6094" fill="#84BE84" rx="3" ry="3" style="stroke:#038048;stroke-width:1.0;"/><text fill="#000000" font-family="sans-serif" font-size="14" lengthAdjust="spacing" textLength="542" x="27" y="227.1426">registerNewEmployee(name, addres, phone number, e-mail, citizen card number, role)</text><rect fill="#F24D5C" height="6" style="stroke:#C82930;stroke-width:1.0;" width="6" x="15" y="234.2188"/><text fill="#000000" font-family="sans-serif" font-size="14" lengthAdjust="spacing" textLength="485" x="27" y="244.752">registerNewNurse(name, addres, phone number, e-mail, citizen card number)</text><rect fill="#F24D5C" height="6" style="stroke:#C82930;stroke-width:1.0;" width="6" x="15" y="251.8281"/><text fill="#000000" font-family="sans-serif" font-size="14" lengthAdjust="spacing" textLength="526" x="27" y="262.3613">registerNewReceptionist(name, addres, phone number, e-mail, citizen card number)</text><rect fill="#F24D5C" height="6" style="stroke:#C82930;stroke-width:1.0;" width="6" x="15" y="269.4375"/><text fill="#000000" font-family="sans-serif" font-size="14" lengthAdjust="spacing" textLength="566" x="27" y="279.9707">registerNewCenterCoordinator(name, addres, phone number, e-mail, citizen card number)</text><ellipse cx="18" cy="290.0469" fill="#84BE84" rx="3" ry="3" style="stroke:#038048;stroke-width:1.0;"/><text fill="#000000" font-family="sans-serif" font-size="14" lengthAdjust="spacing" textLength="248" x="27" y="297.5801">validateEmployee(Employee employee)</text><ellipse cx="18" cy="307.6563" fill="#84BE84" rx="3" ry="3" style="stroke:#038048;stroke-width:1.0;"/><text fill="#000000" font-family="sans-serif" font-size="14" lengthAdjust="spacing" textLength="223" x="27" y="315.1895">addEmployee(Employee employee)</text></g><!--MD5=[6716344a46572fc99c27bf4e50ddbd3d]
reverse link Employee to Nurse--><g id="link_Employee_Nurse"><path d="M672.98,320.03 C653.14,343.08 633.15,366.31 618.97,382.8 " fill="none" id="Employee-backto-Nurse" style="stroke:#181818;stroke-width:1.0;"/><polygon fill="none" points="667.92,315.17,686.28,304.58,678.54,324.31,667.92,315.17" style="stroke:#181818;stroke-width:1.0;"/></g><!--MD5=[98f7f3dc8d9719d04ad14614c4ea123f]
reverse link Employee to CenterCoordinator--><g id="link_Employee_CenterCoordinator"><path d="M744,324.66 C744,346.16 744,367.41 744,382.8 " fill="none" id="Employee-backto-CenterCoordinator" style="stroke:#181818;stroke-width:1.0;"/><polygon fill="none" points="737,324.58,744,304.58,751,324.58,737,324.58" style="stroke:#181818;stroke-width:1.0;"/></g><!--MD5=[bfff716514ca687b645fe473c6e098a4]
reverse link Employee to Receptionist--><g id="link_Employee_Receptionist"><path d="M823.84,319.04 C846.74,342.41 869.9,366.07 886.28,382.8 " fill="none" id="Employee-backto-Receptionist" style="stroke:#181818;stroke-width:1.0;"/><polygon fill="none" points="818.68,323.77,809.69,304.58,828.68,313.97,818.68,323.77" style="stroke:#181818;stroke-width:1.0;"/></g><!--MD5=[5bed5975b17dfe546fb5fe2a2474353c]
reverse link SpecifyNewEmployeeController to SpecifyNewEmployeeUI--><g id="link_SpecifyNewEmployeeController_SpecifyNewEmployeeUI"><path codeLine="33" d="M724.62,92.29 C760.72,108.94 801.05,129.25 836,151 C865.34,169.26 896.02,194.17 916.96,212.22 " fill="none" id="SpecifyNewEmployeeController-backto-SpecifyNewEmployeeUI" style="stroke:#181818;stroke-width:1.0;stroke-dasharray:7.0,7.0;"/><polygon fill="#181818" points="719.78,90.07,726.2902,97.4604,724.324,92.1562,729.6281,90.19,719.78,90.07" style="stroke:#181818;stroke-width:1.0;"/></g><!--MD5=[f7b8f66441771accfca54426cc31d01d]
link SpecifyNewEmployeeController to Company--><g id="link_SpecifyNewEmployeeController_Company"><path codeLine="34" d="M553.17,90.09 C523.69,107.22 488.15,127.88 453.23,148.18 " fill="none" id="SpecifyNewEmployeeController-to-Company" style="stroke:#181818;stroke-width:1.0;stroke-dasharray:7.0,7.0;"/><polygon fill="#181818" points="448.53,150.91,458.3199,149.8343,452.8499,148.3924,454.2918,142.9224,448.53,150.91" style="stroke:#181818;stroke-width:1.0;"/></g><!--MD5=[09366576ee87d48d594df10cacc83f45]
link Company to Employee--><g id="link_Company_Employee"><path codeLine="35" d="M599.29,236.5 C622.55,236.5 644.52,236.5 663.99,236.5 " fill="none" id="Company-to-Employee" style="stroke:#181818;stroke-width:1.0;"/><polygon fill="#181818" points="669.42,236.5,660.42,232.5,664.42,236.5,660.42,240.5,669.42,236.5" style="stroke:#181818;stroke-width:1.0;"/><polygon fill="#000000" points="626.25,224.6758,617.2049,221.7369,617.2049,227.6147,626.25,224.6758" style="stroke:#000000;stroke-width:1.0;"/><text fill="#000000" font-family="sans-serif" font-size="13" lengthAdjust="spacing" textLength="21" x="630.25" y="229.9951">has</text><text fill="#000000" font-family="sans-serif" font-size="13" lengthAdjust="spacing" textLength="7" x="607.2532" y="233.7838">1</text><text fill="#000000" font-family="sans-serif" font-size="13" lengthAdjust="spacing" textLength="20" x="641.6228" y="250.7467">1..*</text></g><!--MD5=[65814c4a4b6de94b99c9005a244f824d]
@startuml

class SpecifyNewEmployeeUI
class SpecifyNewEmployeeController
class Employee
class Nurse extends Employee
class CenterCoordinator extends Employee
class Receptionist extends Employee
class Company

class SpecifyNewEmployeeController {
+createNewEmployee(name, addres, phone number, e-mail, citizen card number, occupation)
+saveNewEmployee()
}

class Company {
-designation
+registerNewEmployee(name, addres, phone number, e-mail, citizen card number, role)
-registerNewNurse(name, addres, phone number, e-mail, citizen card number)
-registerNewReceptionist(name, addres, phone number, e-mail, citizen card number)
-registerNewCenterCoordinator(name, addres, phone number, e-mail, citizen card number)
+validateEmployee(Employee employee)
+addEmployee(Employee employee)
}

class Employee {
-name
-address
-phone number
-e-mail
-citizen card number
}

SpecifyNewEmployeeUI .u-> SpecifyNewEmployeeController
SpecifyNewEmployeeController .-> Company
Company "1" -> "1..*" Employee : has >



@enduml

PlantUML version 1.2022.4(Sat Apr 09 14:29:17 BST 2022)
(GPL source distribution)
Java Runtime: OpenJDK Runtime Environment
JVM: OpenJDK 64-Bit Server VM
Default Encoding: Cp1252
Language: en
Country: GB
--></g></svg>