<?xml version="1.0" encoding="UTF-8" standalone="no"?><svg xmlns="http://www.w3.org/2000/svg" xmlns:xlink="http://www.w3.org/1999/xlink" contentStyleType="text/css" height="525px" preserveAspectRatio="none" style="width:776px;height:525px;background:#FFFFFF;" version="1.1" viewBox="0 0 776 525" width="776px" zoomAndPan="magnify"><defs/><g><!--MD5=[86c7c362de55a38b660185a1328fe18d]
class Organization--><g id="elem_Organization"><rect codeLine="26" fill="#F1F1F1" height="65.6094" id="Organization" rx="2.5" ry="2.5" style="stroke:#181818;stroke-width:0.5;" width="112" x="101.5" y="133"/><ellipse cx="116.5" cy="149" fill="#ADD1B2" rx="11" ry="11" style="stroke:#181818;stroke-width:1.0;"/><path d="M118.5,145.5 Q118.7031,145 118.9375,144.75 Q119.1719,144.5 119.4375,144.5 Q119.9063,144.5 120.2031,144.7813 Q120.5,145.0625 120.5,145.7188 L120.5,147.2813 Q120.5,147.9375 120.2188,148.2188 Q119.9375,148.5 119.5,148.5 Q119.1094,148.5 118.8594,148.3281 Q118.6094,148.1563 118.5,147.7031 Q118.4531,147.3906 118.2813,147.2188 Q117.9688,146.8906 117.4063,146.7031 Q116.8438,146.5 116.2813,146.5 Q115.5781,146.5 114.9844,146.7813 Q114.4063,147.0625 113.9531,147.6875 Q113.5,148.3125 113.5,149.1719 L113.5,150.0938 Q113.5,151.125 114.3438,151.8125 Q115.1875,152.5 116.6875,152.5 Q117.5781,152.5 118.2031,152.2969 Q118.5625,152.1875 118.9688,151.8281 Q119.2344,151.625 119.375,151.5625 Q119.5156,151.5 119.6875,151.5 Q120.0156,151.5 120.25,151.7656 Q120.5,152.0156 120.5,152.375 Q120.5,152.7188 120.1563,153.125 Q119.6563,153.7188 118.8594,154.0469 Q117.8125,154.5 116.5313,154.5 Q115.0313,154.5 113.8281,153.9063 Q112.8594,153.4375 112.1719,152.4219 Q111.5,151.4063 111.5,150.2031 L111.5,149.1094 Q111.5,147.8594 112.0938,146.7656 Q112.7031,145.6719 113.75,145.0938 Q114.8125,144.5 116,144.5 Q116.7188,144.5 117.3438,144.75 Q117.9688,145 118.5,145.5 Z " fill="#000000"/><text fill="#000000" font-family="sans-serif" font-size="14" lengthAdjust="spacing" textLength="80" x="130.5" y="154.7285">Organization</text><line style="stroke:#181818;stroke-width:0.5;" x1="102.5" x2="212.5" y1="165" y2="165"/><rect fill="none" height="6" style="stroke:#C82930;stroke-width:1.0;" width="6" x="109.5" y="173"/><text fill="#000000" font-family="sans-serif" font-size="14" lengthAdjust="spacing" textLength="35" x="121.5" y="183.5332">name</text><line style="stroke:#181818;stroke-width:0.5;" x1="102.5" x2="212.5" y1="190.6094" y2="190.6094"/></g><!--MD5=[de60e6d4f424ae4d0522096f76a59010]
class VaccinationCenter--><g id="elem_VaccinationCenter"><rect codeLine="12" fill="#F1F1F1" height="241.7031" id="VaccinationCenter" rx="2.5" ry="2.5" style="stroke:#181818;stroke-width:0.5;" width="211" x="7" y="277"/><ellipse cx="50.35" cy="293" fill="#ADD1B2" rx="11" ry="11" style="stroke:#181818;stroke-width:1.0;"/><path d="M52.35,289.5 Q52.5531,289 52.7875,288.75 Q53.0219,288.5 53.2875,288.5 Q53.7563,288.5 54.0531,288.7813 Q54.35,289.0625 54.35,289.7188 L54.35,291.2813 Q54.35,291.9375 54.0688,292.2188 Q53.7875,292.5 53.35,292.5 Q52.9594,292.5 52.7094,292.3281 Q52.4594,292.1563 52.35,291.7031 Q52.3031,291.3906 52.1313,291.2188 Q51.8188,290.8906 51.2563,290.7031 Q50.6938,290.5 50.1313,290.5 Q49.4281,290.5 48.8344,290.7813 Q48.2563,291.0625 47.8031,291.6875 Q47.35,292.3125 47.35,293.1719 L47.35,294.0938 Q47.35,295.125 48.1938,295.8125 Q49.0375,296.5 50.5375,296.5 Q51.4281,296.5 52.0531,296.2969 Q52.4125,296.1875 52.8188,295.8281 Q53.0844,295.625 53.225,295.5625 Q53.3656,295.5 53.5375,295.5 Q53.8656,295.5 54.1,295.7656 Q54.35,296.0156 54.35,296.375 Q54.35,296.7188 54.0063,297.125 Q53.5063,297.7188 52.7094,298.0469 Q51.6625,298.5 50.3813,298.5 Q48.8813,298.5 47.6781,297.9063 Q46.7094,297.4375 46.0219,296.4219 Q45.35,295.4063 45.35,294.2031 L45.35,293.1094 Q45.35,291.8594 45.9438,290.7656 Q46.5531,289.6719 47.6,289.0938 Q48.6625,288.5 49.85,288.5 Q50.5688,288.5 51.1938,288.75 Q51.8188,289 52.35,289.5 Z " fill="#000000"/><text fill="#000000" font-family="sans-serif" font-size="14" lengthAdjust="spacing" textLength="116" x="70.65" y="298.7285">VaccinationCenter</text><line style="stroke:#181818;stroke-width:0.5;" x1="8" x2="217" y1="309" y2="309"/><rect fill="none" height="6" style="stroke:#C82930;stroke-width:1.0;" width="6" x="15" y="317"/><text fill="#000000" font-family="sans-serif" font-size="14" lengthAdjust="spacing" textLength="35" x="27" y="327.5332">name</text><rect fill="none" height="6" style="stroke:#C82930;stroke-width:1.0;" width="6" x="15" y="334.6094"/><text fill="#000000" font-family="sans-serif" font-size="14" lengthAdjust="spacing" textLength="44" x="27" y="345.1426">addres</text><rect fill="none" height="6" style="stroke:#C82930;stroke-width:1.0;" width="6" x="15" y="352.2188"/><text fill="#000000" font-family="sans-serif" font-size="14" lengthAdjust="spacing" textLength="92" x="27" y="362.752">phone number</text><rect fill="none" height="6" style="stroke:#C82930;stroke-width:1.0;" width="6" x="15" y="369.8281"/><text fill="#000000" font-family="sans-serif" font-size="14" lengthAdjust="spacing" textLength="86" x="27" y="380.3613">e-mail addres</text><rect fill="none" height="6" style="stroke:#C82930;stroke-width:1.0;" width="6" x="15" y="387.4375"/><text fill="#000000" font-family="sans-serif" font-size="14" lengthAdjust="spacing" textLength="70" x="27" y="397.9707">fax number</text><rect fill="none" height="6" style="stroke:#C82930;stroke-width:1.0;" width="6" x="15" y="405.0469"/><text fill="#000000" font-family="sans-serif" font-size="14" lengthAdjust="spacing" textLength="95" x="27" y="415.5801">website addres</text><rect fill="none" height="6" style="stroke:#C82930;stroke-width:1.0;" width="6" x="15" y="422.6563"/><text fill="#000000" font-family="sans-serif" font-size="14" lengthAdjust="spacing" textLength="91" x="27" y="433.1895">opening hours</text><rect fill="none" height="6" style="stroke:#C82930;stroke-width:1.0;" width="6" x="15" y="440.2656"/><text fill="#000000" font-family="sans-serif" font-size="14" lengthAdjust="spacing" textLength="84" x="27" y="450.7988">closing hours</text><rect fill="none" height="6" style="stroke:#C82930;stroke-width:1.0;" width="6" x="15" y="457.875"/><text fill="#000000" font-family="sans-serif" font-size="14" lengthAdjust="spacing" textLength="78" x="27" y="468.4082">slot duration</text><rect fill="none" height="6" style="stroke:#C82930;stroke-width:1.0;" width="6" x="15" y="475.4844"/><text fill="#000000" font-family="sans-serif" font-size="14" lengthAdjust="spacing" textLength="185" x="27" y="486.0176">maximum number of vaccines</text><rect fill="none" height="6" style="stroke:#C82930;stroke-width:1.0;" width="6" x="15" y="493.0938"/><text fill="#000000" font-family="sans-serif" font-size="14" lengthAdjust="spacing" textLength="72" x="27" y="503.627">coordinator</text><line style="stroke:#181818;stroke-width:0.5;" x1="8" x2="217" y1="510.7031" y2="510.7031"/></g><!--MD5=[2d935fd2dd068a13da1ae531f9857c4f]
class CenterCoordinator--><g id="elem_CenterCoordinator"><rect codeLine="5" fill="#F1F1F1" height="48" id="CenterCoordinator" rx="2.5" ry="2.5" style="stroke:#181818;stroke-width:0.5;" width="150" x="253.5" y="374"/><ellipse cx="268.5" cy="390" fill="#ADD1B2" rx="11" ry="11" style="stroke:#181818;stroke-width:1.0;"/><path d="M270.5,386.5 Q270.7031,386 270.9375,385.75 Q271.1719,385.5 271.4375,385.5 Q271.9063,385.5 272.2031,385.7813 Q272.5,386.0625 272.5,386.7188 L272.5,388.2813 Q272.5,388.9375 272.2188,389.2188 Q271.9375,389.5 271.5,389.5 Q271.1094,389.5 270.8594,389.3281 Q270.6094,389.1563 270.5,388.7031 Q270.4531,388.3906 270.2813,388.2188 Q269.9688,387.8906 269.4063,387.7031 Q268.8438,387.5 268.2813,387.5 Q267.5781,387.5 266.9844,387.7813 Q266.4063,388.0625 265.9531,388.6875 Q265.5,389.3125 265.5,390.1719 L265.5,391.0938 Q265.5,392.125 266.3438,392.8125 Q267.1875,393.5 268.6875,393.5 Q269.5781,393.5 270.2031,393.2969 Q270.5625,393.1875 270.9688,392.8281 Q271.2344,392.625 271.375,392.5625 Q271.5156,392.5 271.6875,392.5 Q272.0156,392.5 272.25,392.7656 Q272.5,393.0156 272.5,393.375 Q272.5,393.7188 272.1563,394.125 Q271.6563,394.7188 270.8594,395.0469 Q269.8125,395.5 268.5313,395.5 Q267.0313,395.5 265.8281,394.9063 Q264.8594,394.4375 264.1719,393.4219 Q263.5,392.4063 263.5,391.2031 L263.5,390.1094 Q263.5,388.8594 264.0938,387.7656 Q264.7031,386.6719 265.75,386.0938 Q266.8125,385.5 268,385.5 Q268.7188,385.5 269.3438,385.75 Q269.9688,386 270.5,386.5 Z " fill="#000000"/><text fill="#000000" font-family="sans-serif" font-size="14" lengthAdjust="spacing" textLength="118" x="282.5" y="395.7285">CenterCoordinator</text><line style="stroke:#181818;stroke-width:0.5;" x1="254.5" x2="402.5" y1="406" y2="406"/><line style="stroke:#181818;stroke-width:0.5;" x1="254.5" x2="402.5" y1="414" y2="414"/></g><!--MD5=[7421f545a0d8420c5bec41e74b387d9c]
class Employee--><g id="elem_Employee"><rect codeLine="6" fill="#F1F1F1" height="48" id="Employee" rx="2.5" ry="2.5" style="stroke:#181818;stroke-width:0.5;" width="94" x="281.5" y="142"/><ellipse cx="296.5" cy="158" fill="#ADD1B2" rx="11" ry="11" style="stroke:#181818;stroke-width:1.0;"/><path d="M298.5,154.5 Q298.7031,154 298.9375,153.75 Q299.1719,153.5 299.4375,153.5 Q299.9063,153.5 300.2031,153.7813 Q300.5,154.0625 300.5,154.7188 L300.5,156.2813 Q300.5,156.9375 300.2188,157.2188 Q299.9375,157.5 299.5,157.5 Q299.1094,157.5 298.8594,157.3281 Q298.6094,157.1563 298.5,156.7031 Q298.4531,156.3906 298.2813,156.2188 Q297.9688,155.8906 297.4063,155.7031 Q296.8438,155.5 296.2813,155.5 Q295.5781,155.5 294.9844,155.7813 Q294.4063,156.0625 293.9531,156.6875 Q293.5,157.3125 293.5,158.1719 L293.5,159.0938 Q293.5,160.125 294.3438,160.8125 Q295.1875,161.5 296.6875,161.5 Q297.5781,161.5 298.2031,161.2969 Q298.5625,161.1875 298.9688,160.8281 Q299.2344,160.625 299.375,160.5625 Q299.5156,160.5 299.6875,160.5 Q300.0156,160.5 300.25,160.7656 Q300.5,161.0156 300.5,161.375 Q300.5,161.7188 300.1563,162.125 Q299.6563,162.7188 298.8594,163.0469 Q297.8125,163.5 296.5313,163.5 Q295.0313,163.5 293.8281,162.9063 Q292.8594,162.4375 292.1719,161.4219 Q291.5,160.4063 291.5,159.2031 L291.5,158.1094 Q291.5,156.8594 292.0938,155.7656 Q292.7031,154.6719 293.75,154.0938 Q294.8125,153.5 296,153.5 Q296.7188,153.5 297.3438,153.75 Q297.9688,154 298.5,154.5 Z " fill="#000000"/><text fill="#000000" font-family="sans-serif" font-size="14" lengthAdjust="spacing" textLength="62" x="310.5" y="163.7285">Employee</text><line style="stroke:#181818;stroke-width:0.5;" x1="282.5" x2="374.5" y1="174" y2="174"/><line style="stroke:#181818;stroke-width:0.5;" x1="282.5" x2="374.5" y1="182" y2="182"/></g><!--MD5=[a059576e163b46f56762f12600c49258]
class Nurse--><g id="elem_Nurse"><rect codeLine="7" fill="#F1F1F1" height="48" id="Nurse" rx="2.5" ry="2.5" style="stroke:#181818;stroke-width:0.5;" width="69" x="439" y="374"/><ellipse cx="454" cy="390" fill="#ADD1B2" rx="11" ry="11" style="stroke:#181818;stroke-width:1.0;"/><path d="M456,386.5 Q456.2031,386 456.4375,385.75 Q456.6719,385.5 456.9375,385.5 Q457.4063,385.5 457.7031,385.7813 Q458,386.0625 458,386.7188 L458,388.2813 Q458,388.9375 457.7188,389.2188 Q457.4375,389.5 457,389.5 Q456.6094,389.5 456.3594,389.3281 Q456.1094,389.1563 456,388.7031 Q455.9531,388.3906 455.7813,388.2188 Q455.4688,387.8906 454.9063,387.7031 Q454.3438,387.5 453.7813,387.5 Q453.0781,387.5 452.4844,387.7813 Q451.9063,388.0625 451.4531,388.6875 Q451,389.3125 451,390.1719 L451,391.0938 Q451,392.125 451.8438,392.8125 Q452.6875,393.5 454.1875,393.5 Q455.0781,393.5 455.7031,393.2969 Q456.0625,393.1875 456.4688,392.8281 Q456.7344,392.625 456.875,392.5625 Q457.0156,392.5 457.1875,392.5 Q457.5156,392.5 457.75,392.7656 Q458,393.0156 458,393.375 Q458,393.7188 457.6563,394.125 Q457.1563,394.7188 456.3594,395.0469 Q455.3125,395.5 454.0313,395.5 Q452.5313,395.5 451.3281,394.9063 Q450.3594,394.4375 449.6719,393.4219 Q449,392.4063 449,391.2031 L449,390.1094 Q449,388.8594 449.5938,387.7656 Q450.2031,386.6719 451.25,386.0938 Q452.3125,385.5 453.5,385.5 Q454.2188,385.5 454.8438,385.75 Q455.4688,386 456,386.5 Z " fill="#000000"/><text fill="#000000" font-family="sans-serif" font-size="14" lengthAdjust="spacing" textLength="37" x="468" y="395.7285">Nurse</text><line style="stroke:#181818;stroke-width:0.5;" x1="440" x2="507" y1="406" y2="406"/><line style="stroke:#181818;stroke-width:0.5;" x1="440" x2="507" y1="414" y2="414"/></g><!--MD5=[52313708f2ec8e9ddeeca04977bc3672]
class VaccinationCenterReceptionist--><g id="elem_VaccinationCenterReceptionist"><rect codeLine="8" fill="#F1F1F1" height="48" id="VaccinationCenterReceptionist" rx="2.5" ry="2.5" style="stroke:#181818;stroke-width:0.5;" width="226" x="543.5" y="374"/><ellipse cx="558.5" cy="390" fill="#ADD1B2" rx="11" ry="11" style="stroke:#181818;stroke-width:1.0;"/><path d="M560.5,386.5 Q560.7031,386 560.9375,385.75 Q561.1719,385.5 561.4375,385.5 Q561.9063,385.5 562.2031,385.7813 Q562.5,386.0625 562.5,386.7188 L562.5,388.2813 Q562.5,388.9375 562.2188,389.2188 Q561.9375,389.5 561.5,389.5 Q561.1094,389.5 560.8594,389.3281 Q560.6094,389.1563 560.5,388.7031 Q560.4531,388.3906 560.2813,388.2188 Q559.9688,387.8906 559.4063,387.7031 Q558.8438,387.5 558.2813,387.5 Q557.5781,387.5 556.9844,387.7813 Q556.4063,388.0625 555.9531,388.6875 Q555.5,389.3125 555.5,390.1719 L555.5,391.0938 Q555.5,392.125 556.3438,392.8125 Q557.1875,393.5 558.6875,393.5 Q559.5781,393.5 560.2031,393.2969 Q560.5625,393.1875 560.9688,392.8281 Q561.2344,392.625 561.375,392.5625 Q561.5156,392.5 561.6875,392.5 Q562.0156,392.5 562.25,392.7656 Q562.5,393.0156 562.5,393.375 Q562.5,393.7188 562.1563,394.125 Q561.6563,394.7188 560.8594,395.0469 Q559.8125,395.5 558.5313,395.5 Q557.0313,395.5 555.8281,394.9063 Q554.8594,394.4375 554.1719,393.4219 Q553.5,392.4063 553.5,391.2031 L553.5,390.1094 Q553.5,388.8594 554.0938,387.7656 Q554.7031,386.6719 555.75,386.0938 Q556.8125,385.5 558,385.5 Q558.7188,385.5 559.3438,385.75 Q559.9688,386 560.5,386.5 Z " fill="#000000"/><text fill="#000000" font-family="sans-serif" font-size="14" lengthAdjust="spacing" textLength="194" x="572.5" y="395.7285">VaccinationCenterReceptionist</text><line style="stroke:#181818;stroke-width:0.5;" x1="544.5" x2="768.5" y1="406" y2="406"/><line style="stroke:#181818;stroke-width:0.5;" x1="544.5" x2="768.5" y1="414" y2="414"/></g><!--MD5=[da547346deef918ea16944ba046651ef]
class Administrator--><g id="elem_Administrator"><rect codeLine="9" fill="#F1F1F1" height="48" id="Administrator" rx="2.5" ry="2.5" style="stroke:#181818;stroke-width:0.5;" width="115" x="271" y="7"/><ellipse cx="286" cy="23" fill="#ADD1B2" rx="11" ry="11" style="stroke:#181818;stroke-width:1.0;"/><path d="M288,19.5 Q288.2031,19 288.4375,18.75 Q288.6719,18.5 288.9375,18.5 Q289.4063,18.5 289.7031,18.7813 Q290,19.0625 290,19.7188 L290,21.2813 Q290,21.9375 289.7188,22.2188 Q289.4375,22.5 289,22.5 Q288.6094,22.5 288.3594,22.3281 Q288.1094,22.1563 288,21.7031 Q287.9531,21.3906 287.7813,21.2188 Q287.4688,20.8906 286.9063,20.7031 Q286.3438,20.5 285.7813,20.5 Q285.0781,20.5 284.4844,20.7813 Q283.9063,21.0625 283.4531,21.6875 Q283,22.3125 283,23.1719 L283,24.0938 Q283,25.125 283.8438,25.8125 Q284.6875,26.5 286.1875,26.5 Q287.0781,26.5 287.7031,26.2969 Q288.0625,26.1875 288.4688,25.8281 Q288.7344,25.625 288.875,25.5625 Q289.0156,25.5 289.1875,25.5 Q289.5156,25.5 289.75,25.7656 Q290,26.0156 290,26.375 Q290,26.7188 289.6563,27.125 Q289.1563,27.7188 288.3594,28.0469 Q287.3125,28.5 286.0313,28.5 Q284.5313,28.5 283.3281,27.9063 Q282.3594,27.4375 281.6719,26.4219 Q281,25.4063 281,24.2031 L281,23.1094 Q281,21.8594 281.5938,20.7656 Q282.2031,19.6719 283.25,19.0938 Q284.3125,18.5 285.5,18.5 Q286.2188,18.5 286.8438,18.75 Q287.4688,19 288,19.5 Z " fill="#000000"/><text fill="#000000" font-family="sans-serif" font-size="14" lengthAdjust="spacing" textLength="83" x="300" y="28.7285">Administrator</text><line style="stroke:#181818;stroke-width:0.5;" x1="272" x2="385" y1="39" y2="39"/><line style="stroke:#181818;stroke-width:0.5;" x1="272" x2="385" y1="47" y2="47"/></g><!--MD5=[19e445fc4d3b48519cbe33da05496394]
class Vaccine--><g id="elem_Vaccine"><rect fill="#F1F1F1" height="48" id="Vaccine" rx="2.5" ry="2.5" style="stroke:#181818;stroke-width:0.5;" width="82" x="410.5" y="142"/><ellipse cx="425.5" cy="158" fill="#ADD1B2" rx="11" ry="11" style="stroke:#181818;stroke-width:1.0;"/><path d="M427.5,154.5 Q427.7031,154 427.9375,153.75 Q428.1719,153.5 428.4375,153.5 Q428.9063,153.5 429.2031,153.7813 Q429.5,154.0625 429.5,154.7188 L429.5,156.2813 Q429.5,156.9375 429.2188,157.2188 Q428.9375,157.5 428.5,157.5 Q428.1094,157.5 427.8594,157.3281 Q427.6094,157.1563 427.5,156.7031 Q427.4531,156.3906 427.2813,156.2188 Q426.9688,155.8906 426.4063,155.7031 Q425.8438,155.5 425.2813,155.5 Q424.5781,155.5 423.9844,155.7813 Q423.4063,156.0625 422.9531,156.6875 Q422.5,157.3125 422.5,158.1719 L422.5,159.0938 Q422.5,160.125 423.3438,160.8125 Q424.1875,161.5 425.6875,161.5 Q426.5781,161.5 427.2031,161.2969 Q427.5625,161.1875 427.9688,160.8281 Q428.2344,160.625 428.375,160.5625 Q428.5156,160.5 428.6875,160.5 Q429.0156,160.5 429.25,160.7656 Q429.5,161.0156 429.5,161.375 Q429.5,161.7188 429.1563,162.125 Q428.6563,162.7188 427.8594,163.0469 Q426.8125,163.5 425.5313,163.5 Q424.0313,163.5 422.8281,162.9063 Q421.8594,162.4375 421.1719,161.4219 Q420.5,160.4063 420.5,159.2031 L420.5,158.1094 Q420.5,156.8594 421.0938,155.7656 Q421.7031,154.6719 422.75,154.0938 Q423.8125,153.5 425,153.5 Q425.7188,153.5 426.3438,153.75 Q426.9688,154 427.5,154.5 Z " fill="#000000"/><text fill="#000000" font-family="sans-serif" font-size="14" lengthAdjust="spacing" textLength="50" x="439.5" y="163.7285">Vaccine</text><line style="stroke:#181818;stroke-width:0.5;" x1="411.5" x2="491.5" y1="174" y2="174"/><line style="stroke:#181818;stroke-width:0.5;" x1="411.5" x2="491.5" y1="182" y2="182"/></g><!--MD5=[98f7f3dc8d9719d04ad14614c4ea123f]
reverse link Employee to CenterCoordinator--><g id="link_Employee_CenterCoordinator"><path d="M328.5,210.4 C328.5,258.97 328.5,335.82 328.5,373.96 " fill="none" id="Employee-backto-CenterCoordinator" style="stroke:#181818;stroke-width:1.0;"/><polygon fill="none" points="321.5,210.32,328.5,190.32,335.5,210.32,321.5,210.32" style="stroke:#181818;stroke-width:1.0;"/></g><!--MD5=[6716344a46572fc99c27bf4e50ddbd3d]
reverse link Employee to Nurse--><g id="link_Employee_Nurse"><path d="M365.62,205.19 C383.99,225.43 405.58,251.35 421.5,277 C441.13,308.64 456.95,348.99 465.79,373.9 " fill="none" id="Employee-backto-Nurse" style="stroke:#181818;stroke-width:1.0;"/><polygon fill="none" points="360.26,209.71,351.75,190.3,370.51,200.17,360.26,209.71" style="stroke:#181818;stroke-width:1.0;"/></g><!--MD5=[fd5d71c6aff74adc0c6af8e67eeeabac]
reverse link Employee to VaccinationCenterReceptionist--><g id="link_Employee_VaccinationCenterReceptionist"><path d="M390.61,199.65 C439.01,225.47 501.85,259.92 525.5,277 C566.76,306.79 609.25,348.03 634.25,373.58 " fill="none" id="Employee-backto-VaccinationCenterReceptionist" style="stroke:#181818;stroke-width:1.0;"/><polygon fill="none" points="387.25,205.79,372.87,190.23,393.82,193.43,387.25,205.79" style="stroke:#181818;stroke-width:1.0;"/></g><!--MD5=[ee48e7f218e419c69ba71c5a6bf84314]
link Organization to VaccinationCenter--><g id="link_Organization_VaccinationCenter"><path codeLine="31" d="M148.05,199.02 C145.4,208.61 142.66,219.19 140.5,229 C137.1,244.45 133.9,260.78 130.97,276.95 " fill="none" id="Organization-VaccinationCenter" style="stroke:#181818;stroke-width:1.0;"/><polygon fill="#000000" points="144.4296,243.0599,149.2368,234.8537,143.4952,233.5953,144.4296,243.0599" style="stroke:#000000;stroke-width:1.0;"/><text fill="#000000" font-family="sans-serif" font-size="13" lengthAdjust="spacing" textLength="30" x="154.5" y="243.4951">owns</text><text fill="#000000" font-family="sans-serif" font-size="13" lengthAdjust="spacing" textLength="7" x="138.6623" y="220.1466">1</text><text fill="#000000" font-family="sans-serif" font-size="13" lengthAdjust="spacing" textLength="5" x="126.9931" y="266.1986">*</text></g><!--MD5=[8f7dd94d56b58fc07b233ccd3dd98f8c]
link Administrator to Employee--><g id="link_Administrator_Employee"><path codeLine="32" d="M328.5,55.17 C328.5,79.43 328.5,117.32 328.5,141.65 " fill="none" id="Administrator-Employee" style="stroke:#181818;stroke-width:1.0;"/><polygon fill="#000000" points="333.5,99.1758,336.4389,90.1307,330.5611,90.1307,333.5,99.1758" style="stroke:#000000;stroke-width:1.0;"/><text fill="#000000" font-family="sans-serif" font-size="13" lengthAdjust="spacing" textLength="50" x="342.5" y="99.4951">registers</text><text fill="#000000" font-family="sans-serif" font-size="13" lengthAdjust="spacing" textLength="7" x="320.6469" y="76.5494">1</text><text fill="#000000" font-family="sans-serif" font-size="13" lengthAdjust="spacing" textLength="20" x="306.0625" y="131.3027">1..*</text></g><!--MD5=[2a41c1af413c0662bf55a6b8913ea24f]
link Administrator to Organization--><g id="link_Administrator_Organization"><path codeLine="33" d="M294.48,55.18 C281.49,64.26 266.65,74.9 253.5,85 C233.71,100.2 212.33,117.88 194.78,132.76 " fill="none" id="Administrator-Organization" style="stroke:#181818;stroke-width:1.0;"/><polygon fill="#000000" points="254.5539,97.2464,263.4973,94.0111,259.8876,89.3722,254.5539,97.2464" style="stroke:#000000;stroke-width:1.0;"/><text fill="#000000" font-family="sans-serif" font-size="13" lengthAdjust="spacing" textLength="52" x="267.5" y="99.4951">works for</text><text fill="#000000" font-family="sans-serif" font-size="13" lengthAdjust="spacing" textLength="7" x="278.3345" y="76.5618">1</text><text fill="#000000" font-family="sans-serif" font-size="13" lengthAdjust="spacing" textLength="7" x="194.4304" y="122.2091">1</text></g><!--MD5=[0e439f75a3d966f965fe5f237a1bacbe]
link Administrator to Vaccine--><g id="link_Administrator_Vaccine"><path codeLine="34" d="M366.01,55.08 C378.15,63.59 391.14,73.89 401.5,85 C417.37,102.01 431.01,124.76 440.02,141.65 " fill="none" id="Administrator-Vaccine" style="stroke:#181818;stroke-width:1.0;"/><polygon fill="#000000" points="423.7491,97.9762,420.1053,89.1914,415.6376,93.0109,423.7491,97.9762" style="stroke:#000000;stroke-width:1.0;"/><text fill="#000000" font-family="sans-serif" font-size="13" lengthAdjust="spacing" textLength="93" x="429.5" y="99.4951">can specify new</text><text fill="#000000" font-family="sans-serif" font-size="13" lengthAdjust="spacing" textLength="7" x="367.2999" y="76.4375">1</text><text fill="#000000" font-family="sans-serif" font-size="13" lengthAdjust="spacing" textLength="20" x="414.7843" y="131.3027">1..*</text></g><!--MD5=[7454cd36f47ee2c1597ee5b79ae5e9ce]
link Employee to VaccinationCenter--><g id="link_Employee_VaccinationCenter"><path codeLine="35" d="M297.86,190.25 C283.82,201.41 267.29,215.31 253.5,229 C238.5,243.89 223.38,260.22 208.89,276.66 " fill="none" id="Employee-VaccinationCenter" style="stroke:#181818;stroke-width:1.0;"/><polygon fill="#000000" points="254.9132,241.6593,263.4493,237.4658,259.3542,233.2493,254.9132,241.6593" style="stroke:#000000;stroke-width:1.0;"/><text fill="#000000" font-family="sans-serif" font-size="13" lengthAdjust="spacing" textLength="52" x="267.5" y="243.4951">works for</text><text fill="#000000" font-family="sans-serif" font-size="13" lengthAdjust="spacing" textLength="20" x="267.954" y="211.6489">1..*</text><text fill="#000000" font-family="sans-serif" font-size="13" lengthAdjust="spacing" textLength="7" x="207.5505" y="266.2932">1</text></g><!--MD5=[0ac713b949fd774fbd0c035351043749]
@startuml

'class enumeration
class Organization
class VaccinationCenter
class CenterCoordinator extends Employee
class Employee
class Nurse extends Employee
class VaccinationCenterReceptionist extends Employee
class Administrator

'class componets
class VaccinationCenter {
-name
-addres
-phone number
-e-mail addres
-fax number
-website addres
-opening hours
-closing hours
-slot duration
-maximum number of vaccines
-coordinator
}

class Organization {
-name
}

'class relation
Organization "1" - - "*" VaccinationCenter : owns >
Administrator "1" - - "1..*" Employee : registers >
Administrator "1" - - "1" Organization : works for >
Administrator "1" - - "1..*" Vaccine : can specify new >
Employee "1..*" - - "1" VaccinationCenter : works for >
@enduml

@startuml

class Organization
class VaccinationCenter
class CenterCoordinator extends Employee
class Employee
class Nurse extends Employee
class VaccinationCenterReceptionist extends Employee
class Administrator

class VaccinationCenter {
-name
-addres
-phone number
-e-mail addres
-fax number
-website addres
-opening hours
-closing hours
-slot duration
-maximum number of vaccines
-coordinator
}

class Organization {
-name
}

Organization "1" - - "*" VaccinationCenter : owns >
Administrator "1" - - "1..*" Employee : registers >
Administrator "1" - - "1" Organization : works for >
Administrator "1" - - "1..*" Vaccine : can specify new >
Employee "1..*" - - "1" VaccinationCenter : works for >
@enduml

PlantUML version 1.2022.4(Sat Apr 09 14:29:17 BST 2022)
(GPL source distribution)
Java Runtime: OpenJDK Runtime Environment
JVM: OpenJDK 64-Bit Server VM
Default Encoding: Cp1252
Language: en
Country: GB
--></g></svg>