<?xml version="1.0" encoding="UTF-8" standalone="no"?><svg xmlns="http://www.w3.org/2000/svg" xmlns:xlink="http://www.w3.org/1999/xlink" contentStyleType="text/css" height="856px" preserveAspectRatio="none" style="width:2085px;height:856px;background:#FFFFFF;" version="1.1" viewBox="0 0 2085 856" width="2085px" zoomAndPan="magnify"><defs/><g><rect fill="#FFFFFF" height="672.7344" style="stroke:#181818;stroke-width:1.0;" width="10" x="44.5" y="92.6094"/><rect fill="#FFFFFF" height="63.0547" style="stroke:#181818;stroke-width:1.0;" width="10" x="511.5" y="114.9609"/><rect fill="#FFFFFF" height="279.8672" style="stroke:#181818;stroke-width:1.0;" width="10" x="511.5" y="208.3672"/><rect fill="#FFFFFF" height="237.7578" style="stroke:#181818;stroke-width:1.0;" width="10" x="511.5" y="518.5859"/><rect fill="#FFFFFF" height="186.4609" style="stroke:#181818;stroke-width:1.0;" width="10" x="973.5" y="271.4219"/><rect fill="#FFFFFF" height="170.0547" style="stroke:#181818;stroke-width:1.0;" width="10" x="973.5" y="548.9375"/><rect fill="#FFFFFF" height="63.0547" style="stroke:#181818;stroke-width:1.0;" width="10" x="1456.5" y="334.4766"/><rect fill="#FFFFFF" height="30" style="stroke:#181818;stroke-width:1.0;" width="10" x="1456.5" y="427.8828"/><rect fill="#FFFFFF" height="139.7031" style="stroke:#181818;stroke-width:1.0;" width="10" x="1456.5" y="579.2891"/><rect fill="#FFFFFF" height="28" style="stroke:#181818;stroke-width:1.0;" width="10" x="1461.5" y="617.6406"/><rect fill="#FFFFFF" height="28" style="stroke:#181818;stroke-width:1.0;" width="10" x="1461.5" y="690.9922"/><line style="stroke:#181818;stroke-width:0.5;stroke-dasharray:5.0,5.0;" x1="49" x2="49" y1="82.6094" y2="774.3438"/><line style="stroke:#181818;stroke-width:0.5;stroke-dasharray:5.0,5.0;" x1="516" x2="516" y1="82.6094" y2="774.3438"/><line style="stroke:#181818;stroke-width:0.5;stroke-dasharray:5.0,5.0;" x1="978" x2="978" y1="82.6094" y2="774.3438"/><line style="stroke:#181818;stroke-width:0.5;stroke-dasharray:5.0,5.0;" x1="1461.5" x2="1461.5" y1="82.6094" y2="774.3438"/><line style="stroke:#181818;stroke-width:0.5;stroke-dasharray:5.0,5.0;" x1="2001.5" x2="2001.5" y1="384.0039" y2="774.3438"/><text fill="#000000" font-family="sans-serif" font-size="14" lengthAdjust="spacing" textLength="83" x="5" y="79.5332">Administrator</text><ellipse cx="49.5" cy="13.5" fill="#E2E2F0" rx="8" ry="8" style="stroke:#181818;stroke-width:0.5;"/><path d="M49.5,21.5 L49.5,48.5 M36.5,29.5 L62.5,29.5 M49.5,48.5 L36.5,63.5 M49.5,48.5 L62.5,63.5 " fill="none" style="stroke:#181818;stroke-width:0.5;"/><text fill="#000000" font-family="sans-serif" font-size="14" lengthAdjust="spacing" textLength="83" x="5" y="787.877">Administrator</text><ellipse cx="49.5" cy="799.4531" fill="#E2E2F0" rx="8" ry="8" style="stroke:#181818;stroke-width:0.5;"/><path d="M49.5,807.4531 L49.5,834.4531 M36.5,815.4531 L62.5,815.4531 M49.5,834.4531 L36.5,849.4531 M49.5,834.4531 L62.5,849.4531 " fill="none" style="stroke:#181818;stroke-width:0.5;"/><rect fill="#E2E2F0" height="31.6094" rx="2.5" ry="2.5" style="stroke:#181818;stroke-width:0.5;" width="195" x="419" y="50"/><text fill="#000000" font-family="sans-serif" font-size="14" lengthAdjust="spacing" textLength="181" x="426" y="71.5332">RegisterVaccinationCenterUI</text><rect fill="#E2E2F0" height="31.6094" rx="2.5" ry="2.5" style="stroke:#181818;stroke-width:0.5;" width="195" x="419" y="773.3438"/><text fill="#000000" font-family="sans-serif" font-size="14" lengthAdjust="spacing" textLength="181" x="426" y="794.877">RegisterVaccinationCenterUI</text><rect fill="#E2E2F0" height="31.6094" rx="2.5" ry="2.5" style="stroke:#181818;stroke-width:0.5;" width="245" x="856" y="50"/><text fill="#000000" font-family="sans-serif" font-size="14" lengthAdjust="spacing" textLength="231" x="863" y="71.5332">RegisterVaccinationCenterController</text><rect fill="#E2E2F0" height="31.6094" rx="2.5" ry="2.5" style="stroke:#181818;stroke-width:0.5;" width="245" x="856" y="773.3438"/><text fill="#000000" font-family="sans-serif" font-size="14" lengthAdjust="spacing" textLength="231" x="863" y="794.877">RegisterVaccinationCenterController</text><rect fill="#E2E2F0" height="31.6094" rx="2.5" ry="2.5" style="stroke:#181818;stroke-width:0.5;" width="78" x="1422.5" y="50"/><text fill="#000000" font-family="sans-serif" font-size="14" lengthAdjust="spacing" textLength="64" x="1429.5" y="71.5332">:Company</text><rect fill="#E2E2F0" height="31.6094" rx="2.5" ry="2.5" style="stroke:#181818;stroke-width:0.5;" width="78" x="1422.5" y="773.3438"/><text fill="#000000" font-family="sans-serif" font-size="14" lengthAdjust="spacing" textLength="64" x="1429.5" y="794.877">:Company</text><rect fill="#E2E2F0" height="31.6094" rx="2.5" ry="2.5" style="stroke:#181818;stroke-width:0.5;" width="156" x="1923.5" y="773.3438"/><text fill="#000000" font-family="sans-serif" font-size="14" lengthAdjust="spacing" textLength="142" x="1930.5" y="794.877">:vc: VaccinationCenter</text><rect fill="#FFFFFF" height="672.7344" style="stroke:#181818;stroke-width:1.0;" width="10" x="44.5" y="92.6094"/><rect fill="#FFFFFF" height="63.0547" style="stroke:#181818;stroke-width:1.0;" width="10" x="511.5" y="114.9609"/><rect fill="#FFFFFF" height="279.8672" style="stroke:#181818;stroke-width:1.0;" width="10" x="511.5" y="208.3672"/><rect fill="#FFFFFF" height="237.7578" style="stroke:#181818;stroke-width:1.0;" width="10" x="511.5" y="518.5859"/><rect fill="#FFFFFF" height="186.4609" style="stroke:#181818;stroke-width:1.0;" width="10" x="973.5" y="271.4219"/><rect fill="#FFFFFF" height="170.0547" style="stroke:#181818;stroke-width:1.0;" width="10" x="973.5" y="548.9375"/><rect fill="#FFFFFF" height="63.0547" style="stroke:#181818;stroke-width:1.0;" width="10" x="1456.5" y="334.4766"/><rect fill="#FFFFFF" height="30" style="stroke:#181818;stroke-width:1.0;" width="10" x="1456.5" y="427.8828"/><rect fill="#FFFFFF" height="139.7031" style="stroke:#181818;stroke-width:1.0;" width="10" x="1456.5" y="579.2891"/><rect fill="#FFFFFF" height="28" style="stroke:#181818;stroke-width:1.0;" width="10" x="1461.5" y="617.6406"/><rect fill="#FFFFFF" height="28" style="stroke:#181818;stroke-width:1.0;" width="10" x="1461.5" y="690.9922"/><polygon fill="#181818" points="499.5,110.9609,509.5,114.9609,499.5,118.9609,503.5,114.9609" style="stroke:#181818;stroke-width:1.0;"/><line style="stroke:#181818;stroke-width:1.0;" x1="54.5" x2="505.5" y1="114.9609" y2="114.9609"/><text fill="#000000" font-family="sans-serif" font-size="13" font-weight="bold" lengthAdjust="spacing" textLength="7" x="61.5" y="110.1045">1</text><text fill="#000000" font-family="sans-serif" font-size="13" lengthAdjust="spacing" textLength="168" x="72.5" y="110.1045">starts new vaccination center</text><polygon fill="#181818" points="65.5,174.0156,55.5,178.0156,65.5,182.0156,61.5,178.0156" style="stroke:#181818;stroke-width:1.0;"/><line style="stroke:#181818;stroke-width:1.0;stroke-dasharray:2.0,2.0;" x1="59.5" x2="515.5" y1="178.0156" y2="178.0156"/><text fill="#000000" font-family="sans-serif" font-size="13" font-weight="bold" lengthAdjust="spacing" textLength="7" x="71.5" y="156.8076">2</text><text fill="#000000" font-family="sans-serif" font-size="13" lengthAdjust="spacing" textLength="345" x="82.5" y="140.4561">request data(name, address,phone number, e-mail address,</text><text fill="#000000" font-family="sans-serif" font-size="13" lengthAdjust="spacing" textLength="344" x="86.5" y="156.8076">fax number, website address, opening hours, closing hours,</text><text fill="#000000" font-family="sans-serif" font-size="13" lengthAdjust="spacing" textLength="418" x="86.5" y="173.1592">slot duration, maximum number of vaccines per slot, Center Coordinator)</text><polygon fill="#181818" points="499.5,204.3672,509.5,208.3672,499.5,212.3672,503.5,208.3672" style="stroke:#181818;stroke-width:1.0;"/><line style="stroke:#181818;stroke-width:1.0;" x1="54.5" x2="505.5" y1="208.3672" y2="208.3672"/><text fill="#000000" font-family="sans-serif" font-size="13" font-weight="bold" lengthAdjust="spacing" textLength="7" x="61.5" y="203.5107">3</text><text fill="#000000" font-family="sans-serif" font-size="13" lengthAdjust="spacing" textLength="122" x="72.5" y="203.5107">types requested data</text><polygon fill="#181818" points="961.5,267.4219,971.5,271.4219,961.5,275.4219,965.5,271.4219" style="stroke:#181818;stroke-width:1.0;"/><line style="stroke:#181818;stroke-width:1.0;" x1="521.5" x2="967.5" y1="271.4219" y2="271.4219"/><text fill="#000000" font-family="sans-serif" font-size="13" font-weight="bold" lengthAdjust="spacing" textLength="7" x="528.5" y="250.2139">4</text><text fill="#000000" font-family="sans-serif" font-size="13" lengthAdjust="spacing" textLength="417" x="539.5" y="233.8623">CreateVaccinationCenter(name, address,phone number, e-mail address,</text><text fill="#000000" font-family="sans-serif" font-size="13" lengthAdjust="spacing" textLength="344" x="543.5" y="250.2139">fax number, website address, opening hours, closing hours,</text><text fill="#000000" font-family="sans-serif" font-size="13" lengthAdjust="spacing" textLength="418" x="543.5" y="266.5654">slot duration, maximum number of vaccines per slot, Center Coordinator)</text><polygon fill="#181818" points="1444.5,330.4766,1454.5,334.4766,1444.5,338.4766,1448.5,334.4766" style="stroke:#181818;stroke-width:1.0;"/><line style="stroke:#181818;stroke-width:1.0;" x1="983.5" x2="1450.5" y1="334.4766" y2="334.4766"/><text fill="#000000" font-family="sans-serif" font-size="13" font-weight="bold" lengthAdjust="spacing" textLength="7" x="990.5" y="313.2686">5</text><text fill="#000000" font-family="sans-serif" font-size="13" lengthAdjust="spacing" textLength="443" x="1001.5" y="296.917">vc = createVaccinationCenter(name, address,phone number, e-mail address,</text><text fill="#000000" font-family="sans-serif" font-size="13" lengthAdjust="spacing" textLength="344" x="1005.5" y="313.2686">fax number, website address, opening hours, closing hours,</text><text fill="#000000" font-family="sans-serif" font-size="13" lengthAdjust="spacing" textLength="418" x="1005.5" y="329.6201">slot duration, maximum number of vaccines per slot, Center Coordinator)</text><polygon fill="#181818" points="1911.5,393.5313,1921.5,397.5313,1911.5,401.5313,1915.5,397.5313" style="stroke:#181818;stroke-width:1.0;"/><line style="stroke:#181818;stroke-width:1.0;stroke-dasharray:2.0,2.0;" x1="1461.5" x2="1917.5" y1="397.5313" y2="397.5313"/><text fill="#000000" font-family="sans-serif" font-size="13" font-weight="bold" lengthAdjust="spacing" textLength="7" x="1468.5" y="376.3232">6</text><text fill="#000000" font-family="sans-serif" font-size="13" lengthAdjust="spacing" textLength="309" x="1479.5" y="359.9717">create(name, address,phone number, e-mail address,</text><text fill="#000000" font-family="sans-serif" font-size="13" lengthAdjust="spacing" textLength="344" x="1483.5" y="376.3232">fax number, website address, opening hours, closing hours,</text><text fill="#000000" font-family="sans-serif" font-size="13" lengthAdjust="spacing" textLength="418" x="1483.5" y="392.6748">slot duration, maximum number of vaccines per slot, Center Coordinator)</text><rect fill="#E2E2F0" height="31.6094" rx="2.5" ry="2.5" style="stroke:#181818;stroke-width:0.5;" width="156" x="1923.5" y="362.9219"/><text fill="#000000" font-family="sans-serif" font-size="14" lengthAdjust="spacing" textLength="142" x="1930.5" y="384.4551">:vc: VaccinationCenter</text><polygon fill="#181818" points="1444.5,423.8828,1454.5,427.8828,1444.5,431.8828,1448.5,427.8828" style="stroke:#181818;stroke-width:1.0;"/><line style="stroke:#181818;stroke-width:1.0;" x1="983.5" x2="1450.5" y1="427.8828" y2="427.8828"/><text fill="#000000" font-family="sans-serif" font-size="13" font-weight="bold" lengthAdjust="spacing" textLength="7" x="990.5" y="423.0264">7</text><text fill="#000000" font-family="sans-serif" font-size="13" lengthAdjust="spacing" textLength="169" x="1001.5" y="423.0264">validateVaccinationCenter(vc)</text><polygon fill="#181818" points="65.5,484.2344,55.5,488.2344,65.5,492.2344,61.5,488.2344" style="stroke:#181818;stroke-width:1.0;"/><line style="stroke:#181818;stroke-width:1.0;stroke-dasharray:2.0,2.0;" x1="59.5" x2="515.5" y1="488.2344" y2="488.2344"/><text fill="#000000" font-family="sans-serif" font-size="13" font-weight="bold" lengthAdjust="spacing" textLength="7" x="71.5" y="483.3779">8</text><text fill="#000000" font-family="sans-serif" font-size="13" lengthAdjust="spacing" textLength="252" x="82.5" y="483.3779">shows the data and requests a confirmation</text><polygon fill="#181818" points="499.5,514.5859,509.5,518.5859,499.5,522.5859,503.5,518.5859" style="stroke:#181818;stroke-width:1.0;"/><line style="stroke:#181818;stroke-width:1.0;" x1="54.5" x2="505.5" y1="518.5859" y2="518.5859"/><text fill="#000000" font-family="sans-serif" font-size="13" font-weight="bold" lengthAdjust="spacing" textLength="7" x="61.5" y="513.7295">9</text><text fill="#000000" font-family="sans-serif" font-size="13" lengthAdjust="spacing" textLength="100" x="72.5" y="513.7295">confirms the data</text><polygon fill="#181818" points="961.5,544.9375,971.5,548.9375,961.5,552.9375,965.5,548.9375" style="stroke:#181818;stroke-width:1.0;"/><line style="stroke:#181818;stroke-width:1.0;" x1="521.5" x2="967.5" y1="548.9375" y2="548.9375"/><text fill="#000000" font-family="sans-serif" font-size="13" font-weight="bold" lengthAdjust="spacing" textLength="14" x="528.5" y="544.0811">10</text><text fill="#000000" font-family="sans-serif" font-size="13" lengthAdjust="spacing" textLength="140" x="546.5" y="544.0811">saveVaccinationCenter()</text><polygon fill="#181818" points="1444.5,575.2891,1454.5,579.2891,1444.5,583.2891,1448.5,579.2891" style="stroke:#181818;stroke-width:1.0;"/><line style="stroke:#181818;stroke-width:1.0;" x1="983.5" x2="1450.5" y1="579.2891" y2="579.2891"/><text fill="#000000" font-family="sans-serif" font-size="13" font-weight="bold" lengthAdjust="spacing" textLength="14" x="990.5" y="574.4326">11</text><text fill="#000000" font-family="sans-serif" font-size="13" lengthAdjust="spacing" textLength="152" x="1008.5" y="574.4326">saveVaccinationCenter(vc)</text><line style="stroke:#181818;stroke-width:1.0;" x1="1471.5" x2="1513.5" y1="609.6406" y2="609.6406"/><line style="stroke:#181818;stroke-width:1.0;" x1="1513.5" x2="1513.5" y1="609.6406" y2="622.6406"/><line style="stroke:#181818;stroke-width:1.0;" x1="1472.5" x2="1513.5" y1="622.6406" y2="622.6406"/><polygon fill="#181818" points="1482.5,618.6406,1472.5,622.6406,1482.5,626.6406,1478.5,622.6406" style="stroke:#181818;stroke-width:1.0;"/><text fill="#000000" font-family="sans-serif" font-size="13" font-weight="bold" lengthAdjust="spacing" textLength="14" x="1478.5" y="604.7842">12</text><text fill="#000000" font-family="sans-serif" font-size="13" lengthAdjust="spacing" textLength="169" x="1496.5" y="604.7842">validateVaccinationCenter(vc)</text><line style="stroke:#181818;stroke-width:1.0;" x1="1471.5" x2="1513.5" y1="682.9922" y2="682.9922"/><line style="stroke:#181818;stroke-width:1.0;" x1="1513.5" x2="1513.5" y1="682.9922" y2="695.9922"/><line style="stroke:#181818;stroke-width:1.0;" x1="1472.5" x2="1513.5" y1="695.9922" y2="695.9922"/><polygon fill="#181818" points="1482.5,691.9922,1472.5,695.9922,1482.5,699.9922,1478.5,695.9922" style="stroke:#181818;stroke-width:1.0;"/><text fill="#000000" font-family="sans-serif" font-size="13" font-weight="bold" lengthAdjust="spacing" textLength="14" x="1478.5" y="678.1357">13</text><text fill="#000000" font-family="sans-serif" font-size="13" lengthAdjust="spacing" textLength="147" x="1496.5" y="678.1357">addVaccinationCenter(vc)</text><polygon fill="#181818" points="65.5,752.3438,55.5,756.3438,65.5,760.3438,61.5,756.3438" style="stroke:#181818;stroke-width:1.0;"/><line style="stroke:#181818;stroke-width:1.0;" x1="59.5" x2="515.5" y1="756.3438" y2="756.3438"/><text fill="#000000" font-family="sans-serif" font-size="13" font-weight="bold" lengthAdjust="spacing" textLength="14" x="71.5" y="751.4873">14</text><text fill="#000000" font-family="sans-serif" font-size="13" lengthAdjust="spacing" textLength="152" x="89.5" y="751.4873">informs operation success</text><!--MD5=[bb0c88412f235c28087a43e3efae9fb1]
@startuml
autonumber

actor Administrator
activate Administrator
Administrator -> RegisterVaccinationCenterUI: starts new vaccination center
activate RegisterVaccinationCenterUI
RegisterVaccinationCenterUI - -> Administrator: request data(name, address,phone number, e-mail address,\n fax number, website address, opening hours, closing hours,\n slot duration, maximum number of vaccines per slot, Center Coordinator)
deactivate RegisterVaccinationCenterUI
Administrator -> RegisterVaccinationCenterUI: types requested data
activate RegisterVaccinationCenterUI
RegisterVaccinationCenterUI -> RegisterVaccinationCenterController: CreateVaccinationCenter(name, address,phone number, e-mail address,\n fax number, website address, opening hours, closing hours,\n slot duration, maximum number of vaccines per slot, Center Coordinator)
activate RegisterVaccinationCenterController
RegisterVaccinationCenterController -> ":Company": vc = createVaccinationCenter(name, address,phone number, e-mail address,\n fax number, website address, opening hours, closing hours,\n slot duration, maximum number of vaccines per slot, Center Coordinator)
activate ":Company"
":Company" - -> ":vc: VaccinationCenter"**: create(name, address,phone number, e-mail address,\n fax number, website address, opening hours, closing hours,\n slot duration, maximum number of vaccines per slot, Center Coordinator)
deactivate ":Company"
RegisterVaccinationCenterController -> ":Company" : validateVaccinationCenter(vc)
activate ":Company"
deactivate ":Company"
deactivate RegisterVaccinationCenterController
RegisterVaccinationCenterUI - -> Administrator: shows the data and requests a confirmation
deactivate RegisterVaccinationCenterUI
Administrator -> RegisterVaccinationCenterUI: confirms the data
activate RegisterVaccinationCenterUI
RegisterVaccinationCenterUI -> RegisterVaccinationCenterController: saveVaccinationCenter()
activate RegisterVaccinationCenterController
RegisterVaccinationCenterController -> ":Company": saveVaccinationCenter(vc)
activate ":Company"
":Company" -> ":Company": validateVaccinationCenter(vc)
activate ":Company"
deactivate ":Company"
":Company" -> ":Company": addVaccinationCenter(vc)
activate ":Company"
deactivate ":Company"
deactivate ":Company"
deactivate RegisterVaccinationCenterController
RegisterVaccinationCenterUI -> Administrator: informs operation success
deactivate RegisterVaccinationCenterUI


@enduml

PlantUML version 1.2022.4(Sat Apr 09 14:29:17 BST 2022)
(GPL source distribution)
Java Runtime: OpenJDK Runtime Environment
JVM: OpenJDK 64-Bit Server VM
Default Encoding: Cp1252
Language: pt
Country: PT
--></g></svg>