<?xml version="1.0" encoding="UTF-8" standalone="no"?><svg xmlns="http://www.w3.org/2000/svg" xmlns:xlink="http://www.w3.org/1999/xlink" contentStyleType="text/css" height="644px" preserveAspectRatio="none" style="width:881px;height:644px;background:#FFFFFF;" version="1.1" viewBox="0 0 881 644" width="881px" zoomAndPan="magnify"><defs/><g><!--MD5=[de60e6d4f424ae4d0522096f76a59010]
class VaccinationCenter--><g id="elem_VaccinationCenter"><rect codeLine="7" fill="#F1F1F1" height="241.7031" id="VaccinationCenter" rx="2.5" ry="2.5" style="stroke:#181818;stroke-width:0.5;" width="211" x="297" y="396"/><ellipse cx="340.35" cy="412" fill="#ADD1B2" rx="11" ry="11" style="stroke:#181818;stroke-width:1.0;"/><path d="M342.35,408.5 Q342.5531,408 342.7875,407.75 Q343.0219,407.5 343.2875,407.5 Q343.7563,407.5 344.0531,407.7813 Q344.35,408.0625 344.35,408.7188 L344.35,410.2813 Q344.35,410.9375 344.0688,411.2188 Q343.7875,411.5 343.35,411.5 Q342.9594,411.5 342.7094,411.3281 Q342.4594,411.1563 342.35,410.7031 Q342.3031,410.3906 342.1313,410.2188 Q341.8188,409.8906 341.2563,409.7031 Q340.6938,409.5 340.1313,409.5 Q339.4281,409.5 338.8344,409.7813 Q338.2563,410.0625 337.8031,410.6875 Q337.35,411.3125 337.35,412.1719 L337.35,413.0938 Q337.35,414.125 338.1938,414.8125 Q339.0375,415.5 340.5375,415.5 Q341.4281,415.5 342.0531,415.2969 Q342.4125,415.1875 342.8188,414.8281 Q343.0844,414.625 343.225,414.5625 Q343.3656,414.5 343.5375,414.5 Q343.8656,414.5 344.1,414.7656 Q344.35,415.0156 344.35,415.375 Q344.35,415.7188 344.0063,416.125 Q343.5063,416.7188 342.7094,417.0469 Q341.6625,417.5 340.3813,417.5 Q338.8813,417.5 337.6781,416.9063 Q336.7094,416.4375 336.0219,415.4219 Q335.35,414.4063 335.35,413.2031 L335.35,412.1094 Q335.35,410.8594 335.9438,409.7656 Q336.5531,408.6719 337.6,408.0938 Q338.6625,407.5 339.85,407.5 Q340.5688,407.5 341.1938,407.75 Q341.8188,408 342.35,408.5 Z " fill="#000000"/><text fill="#000000" font-family="sans-serif" font-size="14" lengthAdjust="spacing" textLength="116" x="360.65" y="417.7285">VaccinationCenter</text><line style="stroke:#181818;stroke-width:0.5;" x1="298" x2="507" y1="428" y2="428"/><rect fill="none" height="6" style="stroke:#C82930;stroke-width:1.0;" width="6" x="305" y="436"/><text fill="#000000" font-family="sans-serif" font-size="14" lengthAdjust="spacing" textLength="35" x="317" y="446.5332">name</text><rect fill="none" height="6" style="stroke:#C82930;stroke-width:1.0;" width="6" x="305" y="453.6094"/><text fill="#000000" font-family="sans-serif" font-size="14" lengthAdjust="spacing" textLength="44" x="317" y="464.1426">addres</text><rect fill="none" height="6" style="stroke:#C82930;stroke-width:1.0;" width="6" x="305" y="471.2188"/><text fill="#000000" font-family="sans-serif" font-size="14" lengthAdjust="spacing" textLength="92" x="317" y="481.752">phone number</text><rect fill="none" height="6" style="stroke:#C82930;stroke-width:1.0;" width="6" x="305" y="488.8281"/><text fill="#000000" font-family="sans-serif" font-size="14" lengthAdjust="spacing" textLength="86" x="317" y="499.3613">e-mail addres</text><rect fill="none" height="6" style="stroke:#C82930;stroke-width:1.0;" width="6" x="305" y="506.4375"/><text fill="#000000" font-family="sans-serif" font-size="14" lengthAdjust="spacing" textLength="70" x="317" y="516.9707">fax number</text><rect fill="none" height="6" style="stroke:#C82930;stroke-width:1.0;" width="6" x="305" y="524.0469"/><text fill="#000000" font-family="sans-serif" font-size="14" lengthAdjust="spacing" textLength="95" x="317" y="534.5801">website addres</text><rect fill="none" height="6" style="stroke:#C82930;stroke-width:1.0;" width="6" x="305" y="541.6563"/><text fill="#000000" font-family="sans-serif" font-size="14" lengthAdjust="spacing" textLength="91" x="317" y="552.1895">opening hours</text><rect fill="none" height="6" style="stroke:#C82930;stroke-width:1.0;" width="6" x="305" y="559.2656"/><text fill="#000000" font-family="sans-serif" font-size="14" lengthAdjust="spacing" textLength="84" x="317" y="569.7988">closing hours</text><rect fill="none" height="6" style="stroke:#C82930;stroke-width:1.0;" width="6" x="305" y="576.875"/><text fill="#000000" font-family="sans-serif" font-size="14" lengthAdjust="spacing" textLength="78" x="317" y="587.4082">slot duration</text><rect fill="none" height="6" style="stroke:#C82930;stroke-width:1.0;" width="6" x="305" y="594.4844"/><text fill="#000000" font-family="sans-serif" font-size="14" lengthAdjust="spacing" textLength="185" x="317" y="605.0176">maximum number of vaccines</text><rect fill="none" height="6" style="stroke:#C82930;stroke-width:1.0;" width="6" x="305" y="612.0938"/><text fill="#000000" font-family="sans-serif" font-size="14" lengthAdjust="spacing" textLength="72" x="317" y="622.627">coordinator</text><line style="stroke:#181818;stroke-width:0.5;" x1="298" x2="507" y1="629.7031" y2="629.7031"/></g><!--MD5=[a059576e163b46f56762f12600c49258]
class Nurse--><g id="elem_Nurse"><rect codeLine="20" fill="#F1F1F1" height="48" id="Nurse" rx="2.5" ry="2.5" style="stroke:#181818;stroke-width:0.5;" width="69" x="7" y="270"/><ellipse cx="22" cy="286" fill="#ADD1B2" rx="11" ry="11" style="stroke:#181818;stroke-width:1.0;"/><path d="M24,282.5 Q24.2031,282 24.4375,281.75 Q24.6719,281.5 24.9375,281.5 Q25.4063,281.5 25.7031,281.7813 Q26,282.0625 26,282.7188 L26,284.2813 Q26,284.9375 25.7188,285.2188 Q25.4375,285.5 25,285.5 Q24.6094,285.5 24.3594,285.3281 Q24.1094,285.1563 24,284.7031 Q23.9531,284.3906 23.7813,284.2188 Q23.4688,283.8906 22.9063,283.7031 Q22.3438,283.5 21.7813,283.5 Q21.0781,283.5 20.4844,283.7813 Q19.9063,284.0625 19.4531,284.6875 Q19,285.3125 19,286.1719 L19,287.0938 Q19,288.125 19.8438,288.8125 Q20.6875,289.5 22.1875,289.5 Q23.0781,289.5 23.7031,289.2969 Q24.0625,289.1875 24.4688,288.8281 Q24.7344,288.625 24.875,288.5625 Q25.0156,288.5 25.1875,288.5 Q25.5156,288.5 25.75,288.7656 Q26,289.0156 26,289.375 Q26,289.7188 25.6563,290.125 Q25.1563,290.7188 24.3594,291.0469 Q23.3125,291.5 22.0313,291.5 Q20.5313,291.5 19.3281,290.9063 Q18.3594,290.4375 17.6719,289.4219 Q17,288.4063 17,287.2031 L17,286.1094 Q17,284.8594 17.5938,283.7656 Q18.2031,282.6719 19.25,282.0938 Q20.3125,281.5 21.5,281.5 Q22.2188,281.5 22.8438,281.75 Q23.4688,282 24,282.5 Z " fill="#000000"/><text fill="#000000" font-family="sans-serif" font-size="14" lengthAdjust="spacing" textLength="37" x="36" y="291.7285">Nurse</text><line style="stroke:#181818;stroke-width:0.5;" x1="8" x2="75" y1="302" y2="302"/><line style="stroke:#181818;stroke-width:0.5;" x1="8" x2="75" y1="310" y2="310"/></g><!--MD5=[02e4b9b7573f1156f41e60aa5b4e25a4]
class Company--><g id="elem_Company"><rect codeLine="21" fill="#F1F1F1" height="58.7031" id="Company" rx="2.5" ry="2.5" style="stroke:#181818;stroke-width:0.5;" width="92" x="543.5" y="133"/><ellipse cx="558.5" cy="154.3516" fill="#ADD1B2" rx="11" ry="11" style="stroke:#181818;stroke-width:1.0;"/><path d="M560.5,150.8516 Q560.7031,150.3516 560.9375,150.1016 Q561.1719,149.8516 561.4375,149.8516 Q561.9063,149.8516 562.2031,150.1328 Q562.5,150.4141 562.5,151.0703 L562.5,152.6328 Q562.5,153.2891 562.2188,153.5703 Q561.9375,153.8516 561.5,153.8516 Q561.1094,153.8516 560.8594,153.6797 Q560.6094,153.5078 560.5,153.0547 Q560.4531,152.7422 560.2813,152.5703 Q559.9688,152.2422 559.4063,152.0547 Q558.8438,151.8516 558.2813,151.8516 Q557.5781,151.8516 556.9844,152.1328 Q556.4063,152.4141 555.9531,153.0391 Q555.5,153.6641 555.5,154.5234 L555.5,155.4453 Q555.5,156.4766 556.3438,157.1641 Q557.1875,157.8516 558.6875,157.8516 Q559.5781,157.8516 560.2031,157.6484 Q560.5625,157.5391 560.9688,157.1797 Q561.2344,156.9766 561.375,156.9141 Q561.5156,156.8516 561.6875,156.8516 Q562.0156,156.8516 562.25,157.1172 Q562.5,157.3672 562.5,157.7266 Q562.5,158.0703 562.1563,158.4766 Q561.6563,159.0703 560.8594,159.3984 Q559.8125,159.8516 558.5313,159.8516 Q557.0313,159.8516 555.8281,159.2578 Q554.8594,158.7891 554.1719,157.7734 Q553.5,156.7578 553.5,155.5547 L553.5,154.4609 Q553.5,153.2109 554.0938,152.1172 Q554.7031,151.0234 555.75,150.4453 Q556.8125,149.8516 558,149.8516 Q558.7188,149.8516 559.3438,150.1016 Q559.9688,150.3516 560.5,150.8516 Z " fill="#000000"/><text fill="#000000" font-family="sans-serif" font-size="12" font-style="italic" lengthAdjust="spacing" textLength="55" x="575" y="150.457">«SprintC»</text><text fill="#000000" font-family="sans-serif" font-size="14" lengthAdjust="spacing" textLength="60" x="572.5" y="167.627">Company</text><line style="stroke:#181818;stroke-width:0.5;" x1="544.5" x2="634.5" y1="175.7031" y2="175.7031"/><line style="stroke:#181818;stroke-width:0.5;" x1="544.5" x2="634.5" y1="183.7031" y2="183.7031"/></g><!--MD5=[2d935fd2dd068a13da1ae531f9857c4f]
class CenterCoordinator--><g id="elem_CenterCoordinator"><rect codeLine="22" fill="#F1F1F1" height="48" id="CenterCoordinator" rx="2.5" ry="2.5" style="stroke:#181818;stroke-width:0.5;" width="150" x="514.5" y="270"/><ellipse cx="529.5" cy="286" fill="#ADD1B2" rx="11" ry="11" style="stroke:#181818;stroke-width:1.0;"/><path d="M531.5,282.5 Q531.7031,282 531.9375,281.75 Q532.1719,281.5 532.4375,281.5 Q532.9063,281.5 533.2031,281.7813 Q533.5,282.0625 533.5,282.7188 L533.5,284.2813 Q533.5,284.9375 533.2188,285.2188 Q532.9375,285.5 532.5,285.5 Q532.1094,285.5 531.8594,285.3281 Q531.6094,285.1563 531.5,284.7031 Q531.4531,284.3906 531.2813,284.2188 Q530.9688,283.8906 530.4063,283.7031 Q529.8438,283.5 529.2813,283.5 Q528.5781,283.5 527.9844,283.7813 Q527.4063,284.0625 526.9531,284.6875 Q526.5,285.3125 526.5,286.1719 L526.5,287.0938 Q526.5,288.125 527.3438,288.8125 Q528.1875,289.5 529.6875,289.5 Q530.5781,289.5 531.2031,289.2969 Q531.5625,289.1875 531.9688,288.8281 Q532.2344,288.625 532.375,288.5625 Q532.5156,288.5 532.6875,288.5 Q533.0156,288.5 533.25,288.7656 Q533.5,289.0156 533.5,289.375 Q533.5,289.7188 533.1563,290.125 Q532.6563,290.7188 531.8594,291.0469 Q530.8125,291.5 529.5313,291.5 Q528.0313,291.5 526.8281,290.9063 Q525.8594,290.4375 525.1719,289.4219 Q524.5,288.4063 524.5,287.2031 L524.5,286.1094 Q524.5,284.8594 525.0938,283.7656 Q525.7031,282.6719 526.75,282.0938 Q527.8125,281.5 529,281.5 Q529.7188,281.5 530.3438,281.75 Q530.9688,282 531.5,282.5 Z " fill="#000000"/><text fill="#000000" font-family="sans-serif" font-size="14" lengthAdjust="spacing" textLength="118" x="543.5" y="291.7285">CenterCoordinator</text><line style="stroke:#181818;stroke-width:0.5;" x1="515.5" x2="663.5" y1="302" y2="302"/><line style="stroke:#181818;stroke-width:0.5;" x1="515.5" x2="663.5" y1="310" y2="310"/></g><!--MD5=[aaa7e27c4ec43917c82a021675d2c87a]
class WaitingRoom--><g id="elem_WaitingRoom"><rect codeLine="24" fill="#F1F1F1" height="48" id="WaitingRoom" rx="2.5" ry="2.5" style="stroke:#181818;stroke-width:0.5;" width="116" x="248.5" y="270"/><ellipse cx="263.5" cy="286" fill="#ADD1B2" rx="11" ry="11" style="stroke:#181818;stroke-width:1.0;"/><path d="M265.5,282.5 Q265.7031,282 265.9375,281.75 Q266.1719,281.5 266.4375,281.5 Q266.9063,281.5 267.2031,281.7813 Q267.5,282.0625 267.5,282.7188 L267.5,284.2813 Q267.5,284.9375 267.2188,285.2188 Q266.9375,285.5 266.5,285.5 Q266.1094,285.5 265.8594,285.3281 Q265.6094,285.1563 265.5,284.7031 Q265.4531,284.3906 265.2813,284.2188 Q264.9688,283.8906 264.4063,283.7031 Q263.8438,283.5 263.2813,283.5 Q262.5781,283.5 261.9844,283.7813 Q261.4063,284.0625 260.9531,284.6875 Q260.5,285.3125 260.5,286.1719 L260.5,287.0938 Q260.5,288.125 261.3438,288.8125 Q262.1875,289.5 263.6875,289.5 Q264.5781,289.5 265.2031,289.2969 Q265.5625,289.1875 265.9688,288.8281 Q266.2344,288.625 266.375,288.5625 Q266.5156,288.5 266.6875,288.5 Q267.0156,288.5 267.25,288.7656 Q267.5,289.0156 267.5,289.375 Q267.5,289.7188 267.1563,290.125 Q266.6563,290.7188 265.8594,291.0469 Q264.8125,291.5 263.5313,291.5 Q262.0313,291.5 260.8281,290.9063 Q259.8594,290.4375 259.1719,289.4219 Q258.5,288.4063 258.5,287.2031 L258.5,286.1094 Q258.5,284.8594 259.0938,283.7656 Q259.7031,282.6719 260.75,282.0938 Q261.8125,281.5 263,281.5 Q263.7188,281.5 264.3438,281.75 Q264.9688,282 265.5,282.5 Z " fill="#000000"/><text fill="#000000" font-family="sans-serif" font-size="14" lengthAdjust="spacing" textLength="84" x="277.5" y="291.7285">WaitingRoom</text><line style="stroke:#181818;stroke-width:0.5;" x1="249.5" x2="363.5" y1="302" y2="302"/><line style="stroke:#181818;stroke-width:0.5;" x1="249.5" x2="363.5" y1="310" y2="310"/></g><!--MD5=[52313708f2ec8e9ddeeca04977bc3672]
class VaccinationCenterReceptionist--><g id="elem_VaccinationCenterReceptionist"><rect codeLine="25" fill="#F1F1F1" height="48" id="VaccinationCenterReceptionist" rx="2.5" ry="2.5" style="stroke:#181818;stroke-width:0.5;" width="226" x="88.5" y="138.5"/><ellipse cx="103.5" cy="154.5" fill="#ADD1B2" rx="11" ry="11" style="stroke:#181818;stroke-width:1.0;"/><path d="M105.5,151 Q105.7031,150.5 105.9375,150.25 Q106.1719,150 106.4375,150 Q106.9063,150 107.2031,150.2813 Q107.5,150.5625 107.5,151.2188 L107.5,152.7813 Q107.5,153.4375 107.2188,153.7188 Q106.9375,154 106.5,154 Q106.1094,154 105.8594,153.8281 Q105.6094,153.6563 105.5,153.2031 Q105.4531,152.8906 105.2813,152.7188 Q104.9688,152.3906 104.4063,152.2031 Q103.8438,152 103.2813,152 Q102.5781,152 101.9844,152.2813 Q101.4063,152.5625 100.9531,153.1875 Q100.5,153.8125 100.5,154.6719 L100.5,155.5938 Q100.5,156.625 101.3438,157.3125 Q102.1875,158 103.6875,158 Q104.5781,158 105.2031,157.7969 Q105.5625,157.6875 105.9688,157.3281 Q106.2344,157.125 106.375,157.0625 Q106.5156,157 106.6875,157 Q107.0156,157 107.25,157.2656 Q107.5,157.5156 107.5,157.875 Q107.5,158.2188 107.1563,158.625 Q106.6563,159.2188 105.8594,159.5469 Q104.8125,160 103.5313,160 Q102.0313,160 100.8281,159.4063 Q99.8594,158.9375 99.1719,157.9219 Q98.5,156.9063 98.5,155.7031 L98.5,154.6094 Q98.5,153.3594 99.0938,152.2656 Q99.7031,151.1719 100.75,150.5938 Q101.8125,150 103,150 Q103.7188,150 104.3438,150.25 Q104.9688,150.5 105.5,151 Z " fill="#000000"/><text fill="#000000" font-family="sans-serif" font-size="14" lengthAdjust="spacing" textLength="194" x="117.5" y="160.2285">VaccinationCenterReceptionist</text><line style="stroke:#181818;stroke-width:0.5;" x1="89.5" x2="313.5" y1="170.5" y2="170.5"/><line style="stroke:#181818;stroke-width:0.5;" x1="89.5" x2="313.5" y1="178.5" y2="178.5"/></g><!--MD5=[da547346deef918ea16944ba046651ef]
class Administrator--><g id="elem_Administrator"><rect codeLine="37" fill="#F1F1F1" height="48" id="Administrator" rx="2.5" ry="2.5" style="stroke:#181818;stroke-width:0.5;" width="115" x="660" y="7"/><ellipse cx="675" cy="23" fill="#ADD1B2" rx="11" ry="11" style="stroke:#181818;stroke-width:1.0;"/><path d="M677,19.5 Q677.2031,19 677.4375,18.75 Q677.6719,18.5 677.9375,18.5 Q678.4063,18.5 678.7031,18.7813 Q679,19.0625 679,19.7188 L679,21.2813 Q679,21.9375 678.7188,22.2188 Q678.4375,22.5 678,22.5 Q677.6094,22.5 677.3594,22.3281 Q677.1094,22.1563 677,21.7031 Q676.9531,21.3906 676.7813,21.2188 Q676.4688,20.8906 675.9063,20.7031 Q675.3438,20.5 674.7813,20.5 Q674.0781,20.5 673.4844,20.7813 Q672.9063,21.0625 672.4531,21.6875 Q672,22.3125 672,23.1719 L672,24.0938 Q672,25.125 672.8438,25.8125 Q673.6875,26.5 675.1875,26.5 Q676.0781,26.5 676.7031,26.2969 Q677.0625,26.1875 677.4688,25.8281 Q677.7344,25.625 677.875,25.5625 Q678.0156,25.5 678.1875,25.5 Q678.5156,25.5 678.75,25.7656 Q679,26.0156 679,26.375 Q679,26.7188 678.6563,27.125 Q678.1563,27.7188 677.3594,28.0469 Q676.3125,28.5 675.0313,28.5 Q673.5313,28.5 672.3281,27.9063 Q671.3594,27.4375 670.6719,26.4219 Q670,25.4063 670,24.2031 L670,23.1094 Q670,21.8594 670.5938,20.7656 Q671.2031,19.6719 672.25,19.0938 Q673.3125,18.5 674.5,18.5 Q675.2188,18.5 675.8438,18.75 Q676.4688,19 677,19.5 Z " fill="#000000"/><text fill="#000000" font-family="sans-serif" font-size="14" lengthAdjust="spacing" textLength="83" x="689" y="28.7285">Administrator</text><line style="stroke:#181818;stroke-width:0.5;" x1="661" x2="774" y1="39" y2="39"/><line style="stroke:#181818;stroke-width:0.5;" x1="661" x2="774" y1="47" y2="47"/></g><!--MD5=[19e445fc4d3b48519cbe33da05496394]
class Vaccine--><g id="elem_Vaccine"><rect fill="#F1F1F1" height="48" id="Vaccine" rx="2.5" ry="2.5" style="stroke:#181818;stroke-width:0.5;" width="82" x="770.5" y="138.5"/><ellipse cx="785.5" cy="154.5" fill="#ADD1B2" rx="11" ry="11" style="stroke:#181818;stroke-width:1.0;"/><path d="M787.5,151 Q787.7031,150.5 787.9375,150.25 Q788.1719,150 788.4375,150 Q788.9063,150 789.2031,150.2813 Q789.5,150.5625 789.5,151.2188 L789.5,152.7813 Q789.5,153.4375 789.2188,153.7188 Q788.9375,154 788.5,154 Q788.1094,154 787.8594,153.8281 Q787.6094,153.6563 787.5,153.2031 Q787.4531,152.8906 787.2813,152.7188 Q786.9688,152.3906 786.4063,152.2031 Q785.8438,152 785.2813,152 Q784.5781,152 783.9844,152.2813 Q783.4063,152.5625 782.9531,153.1875 Q782.5,153.8125 782.5,154.6719 L782.5,155.5938 Q782.5,156.625 783.3438,157.3125 Q784.1875,158 785.6875,158 Q786.5781,158 787.2031,157.7969 Q787.5625,157.6875 787.9688,157.3281 Q788.2344,157.125 788.375,157.0625 Q788.5156,157 788.6875,157 Q789.0156,157 789.25,157.2656 Q789.5,157.5156 789.5,157.875 Q789.5,158.2188 789.1563,158.625 Q788.6563,159.2188 787.8594,159.5469 Q786.8125,160 785.5313,160 Q784.0313,160 782.8281,159.4063 Q781.8594,158.9375 781.1719,157.9219 Q780.5,156.9063 780.5,155.7031 L780.5,154.6094 Q780.5,153.3594 781.0938,152.2656 Q781.7031,151.1719 782.75,150.5938 Q783.8125,150 785,150 Q785.7188,150 786.3438,150.25 Q786.9688,150.5 787.5,151 Z " fill="#000000"/><text fill="#000000" font-family="sans-serif" font-size="14" lengthAdjust="spacing" textLength="50" x="799.5" y="160.2285">Vaccine</text><line style="stroke:#181818;stroke-width:0.5;" x1="771.5" x2="851.5" y1="170.5" y2="170.5"/><line style="stroke:#181818;stroke-width:0.5;" x1="771.5" x2="851.5" y1="178.5" y2="178.5"/></g><!--MD5=[acb5d1129714769191577de0c65a7622]
link WaitingRoom to VaccinationCenter--><g id="link_WaitingRoom_VaccinationCenter"><path codeLine="31" d="M316.59,318.23 C324.92,337.41 337.43,366.2 350.34,395.93 " fill="none" id="WaitingRoom-VaccinationCenter" style="stroke:#181818;stroke-width:1.0;"/><polygon fill="#000000" points="342.492,361.7618,341.584,352.2947,336.1928,354.6365,342.492,361.7618" style="stroke:#000000;stroke-width:1.0;"/><text fill="#000000" font-family="sans-serif" font-size="13" lengthAdjust="spacing" textLength="25" x="349.5" y="362.4951">from</text></g><!--MD5=[03efd8c9f90c050219bacdb83332548b]
link Nurse to VaccinationCenter--><g id="link_Nurse_VaccinationCenter"><path codeLine="32" d="M40.01,318.03 C40.22,333.15 42.92,352.53 53.5,366 C112.8,441.44 217.43,479.58 296.71,498.45 " fill="none" id="Nurse-VaccinationCenter" style="stroke:#181818;stroke-width:1.0;"/><polygon fill="#000000" points="62.5907,360.0509,56.8805,352.4453,53.5006,357.2542,62.5907,360.0509" style="stroke:#000000;stroke-width:1.0;"/><text fill="#000000" font-family="sans-serif" font-size="13" lengthAdjust="spacing" textLength="52" x="67.5" y="362.4951">works for</text></g><!--MD5=[d5cf03d886352995267197dc535618ec]
link CenterCoordinator to VaccinationCenter--><g id="link_CenterCoordinator_VaccinationCenter"><path codeLine="33" d="M569.84,318.23 C553.62,337.41 529.25,366.2 504.1,395.93 " fill="none" id="CenterCoordinator-VaccinationCenter" style="stroke:#181818;stroke-width:1.0;"/><polygon fill="#000000" points="546.2705,360.9929,554.3564,355.986,549.8691,352.1894,546.2705,360.9929" style="stroke:#000000;stroke-width:1.0;"/><text fill="#000000" font-family="sans-serif" font-size="13" lengthAdjust="spacing" textLength="114" x="558.5" y="362.4951">creates relatories of</text></g><!--MD5=[eebe9b198877275d05dd12630ed9e401]
link Company to VaccinationCenter--><g id="link_Company_VaccinationCenter"><path codeLine="34" d="M543.26,187.5 C512.45,205.92 473.67,234.25 451.5,270 C428.32,307.38 415.8,353.56 409.15,395.77 " fill="none" id="Company-VaccinationCenter" style="stroke:#181818;stroke-width:1.0;"/><polygon fill="#000000" points="453.793,298.3796,461.1609,292.3659,456.219,289.1837,453.793,298.3796" style="stroke:#000000;stroke-width:1.0;"/><text fill="#000000" font-family="sans-serif" font-size="13" lengthAdjust="spacing" textLength="30" x="465.5" y="299.4951">owns</text></g><!--MD5=[30a739c1afedca5b7ab0cfb7cf711dcd]
link Company to CenterCoordinator--><g id="link_Company_CenterCoordinator"><path codeLine="35" d="M589.5,192.24 C589.5,215.64 589.5,248.23 589.5,269.95 " fill="none" id="Company-CenterCoordinator" style="stroke:#181818;stroke-width:1.0;"/><polygon fill="#000000" points="594.5,226.1758,591.5611,235.2209,597.4389,235.2209,594.5,226.1758" style="stroke:#000000;stroke-width:1.0;"/><text fill="#000000" font-family="sans-serif" font-size="13" lengthAdjust="spacing" textLength="52" x="603.5" y="236.4951">works for</text></g><!--MD5=[b7c420a35f713cf1260bff9e1457387d]
link VaccinationCenterReceptionist to VaccinationCenter--><g id="link_VaccinationCenterReceptionist_VaccinationCenter"><path codeLine="36" d="M186.47,186.71 C168.39,217.8 142.87,274.13 163.5,318 C191.35,377.25 246.6,424.86 296.97,458.53 " fill="none" id="VaccinationCenterReceptionist-VaccinationCenter" style="stroke:#181818;stroke-width:1.0;"/><polygon fill="#000000" points="170.383,298.8077,169.6992,289.3217,164.2541,291.5353,170.383,298.8077" style="stroke:#000000;stroke-width:1.0;"/><text fill="#000000" font-family="sans-serif" font-size="13" lengthAdjust="spacing" textLength="52" x="177.5" y="299.4951">works for</text></g><!--MD5=[304db59a05c0da2cdffc3c882f2d9e9b]
link Administrator to Company--><g id="link_Administrator_Company"><path codeLine="38" d="M663.69,55.2 C649.65,63.13 635.41,73.07 624.5,85 C612.08,98.58 603.41,117.32 597.8,132.86 " fill="none" id="Administrator-Company" style="stroke:#181818;stroke-width:1.0;"/><polygon fill="#000000" points="626.2652,97.9884,634.358,92.9927,629.876,89.1899,626.2652,97.9884" style="stroke:#000000;stroke-width:1.0;"/><text fill="#000000" font-family="sans-serif" font-size="13" lengthAdjust="spacing" textLength="52" x="638.5" y="99.4951">works for</text></g><!--MD5=[0e439f75a3d966f965fe5f237a1bacbe]
link Administrator to Vaccine--><g id="link_Administrator_Vaccine"><path codeLine="39" d="M734.31,55.15 C751.31,78.58 777.46,114.6 794.52,138.11 " fill="none" id="Administrator-Vaccine" style="stroke:#181818;stroke-width:1.0;"/><polygon fill="#000000" points="774.4369,98.2223,771.5025,89.1758,766.7455,92.6283,774.4369,98.2223" style="stroke:#000000;stroke-width:1.0;"/><text fill="#000000" font-family="sans-serif" font-size="13" lengthAdjust="spacing" textLength="93" x="780.5" y="99.4951">can specify new</text></g><!--MD5=[37305fa66144d349c9b91992df7c98af]
link VaccinationCenterReceptionist to WaitingRoom--><g id="link_VaccinationCenterReceptionist_WaitingRoom"><path codeLine="40" d="M220.27,186.65 C239.27,210.08 268.47,246.1 287.54,269.61 " fill="none" id="VaccinationCenterReceptionist-WaitingRoom" style="stroke:#181818;stroke-width:1.0;"/><polygon fill="#000000" points="271.6492,235.0594,268.235,226.1828,263.6695,229.8849,271.6492,235.0594" style="stroke:#000000;stroke-width:1.0;"/><text fill="#000000" font-family="sans-serif" font-size="13" lengthAdjust="spacing" textLength="86" x="277.5" y="236.4951">send patient to</text></g><!--MD5=[d497e8607f1e7b3d570c70d67196006d]
link Administrator to VaccinationCenter--><g id="link_Administrator_VaccinationCenter"><path codeLine="41" d="M721.8,55.1 C731.27,113.06 748.1,267.06 681.5,366 C641.27,425.77 569.16,463.64 508.32,486.38 " fill="none" id="Administrator-VaccinationCenter" style="stroke:#181818;stroke-width:1.0;"/><text fill="#000000" font-family="sans-serif" font-size="13" font-weight="bold" lengthAdjust="spacing" textLength="46" x="728.5" y="236.4951">creates</text></g><!--MD5=[b683bcec358dfde19f716b03132152a7]
@startuml
'https://plantuml.com/sequence-diagram
skinparam usecase{

BackgroundColor<< SprintC >> Red

}
class VaccinationCenter {
-name
-addres
-phone number
-e-mail addres
-fax number
-website addres
-opening hours
-closing hours
-slot duration
-maximum number of vaccines
-coordinator
}
class Nurse
class Company <<SprintC>>
class CenterCoordinator

class WaitingRoom
class VaccinationCenterReceptionist





WaitingRoom - - VaccinationCenter : from >
Nurse - - VaccinationCenter : works for >
CenterCoordinator - - VaccinationCenter : creates relatories of >
Company -d- VaccinationCenter : owns >
CenterCoordinator -u- Company : works for >
VaccinationCenterReceptionist - - VaccinationCenter : works for >
class Administrator
Administrator - - Company : works for >
Administrator - - Vaccine : can specify new >
VaccinationCenterReceptionist - - WaitingRoom : send patient to >
Administrator - - VaccinationCenter: **creates**



@enduml

@startuml
skinparam usecase{

BackgroundColor<< SprintC >> Red

}
class VaccinationCenter {
-name
-addres
-phone number
-e-mail addres
-fax number
-website addres
-opening hours
-closing hours
-slot duration
-maximum number of vaccines
-coordinator
}
class Nurse
class Company <<SprintC>>
class CenterCoordinator

class WaitingRoom
class VaccinationCenterReceptionist





WaitingRoom - - VaccinationCenter : from >
Nurse - - VaccinationCenter : works for >
CenterCoordinator - - VaccinationCenter : creates relatories of >
Company -d- VaccinationCenter : owns >
CenterCoordinator -u- Company : works for >
VaccinationCenterReceptionist - - VaccinationCenter : works for >
class Administrator
Administrator - - Company : works for >
Administrator - - Vaccine : can specify new >
VaccinationCenterReceptionist - - WaitingRoom : send patient to >
Administrator - - VaccinationCenter: **creates**



@enduml

PlantUML version 1.2022.4(Sat Apr 09 14:29:17 BST 2022)
(GPL source distribution)
Java Runtime: OpenJDK Runtime Environment
JVM: OpenJDK 64-Bit Server VM
Default Encoding: Cp1252
Language: pt
Country: PT
--></g></svg>