<?xml version="1.0" encoding="UTF-8" standalone="no"?><svg xmlns="http://www.w3.org/2000/svg" xmlns:xlink="http://www.w3.org/1999/xlink" contentStyleType="text/css" height="1816px" preserveAspectRatio="none" style="width:2014px;height:1816px;background:#FFFFFF;" version="1.1" viewBox="0 0 2014 1816" width="2014px" zoomAndPan="magnify"><defs/><g><rect fill="#FFFFFF" height="1632.8828" style="stroke:#181818;stroke-width:1.0;" width="10" x="79" y="92.6094"/><rect fill="#FFFFFF" height="30.3516" style="stroke:#181818;stroke-width:1.0;" width="10" x="472" y="114.9609"/><rect fill="#FFFFFF" height="1283.7578" style="stroke:#181818;stroke-width:1.0;" width="10" x="472" y="175.6641"/><rect fill="#FFFFFF" height="55.7031" style="stroke:#181818;stroke-width:1.0;" width="10" x="472" y="1489.7734"/><rect fill="#FFFFFF" height="140.6641" style="stroke:#181818;stroke-width:1.0;" width="10" x="472" y="1575.8281"/><rect fill="#FFFFFF" height="1185.7031" style="stroke:#181818;stroke-width:1.0;" width="10" x="661" y="206.0156"/><rect fill="#FFFFFF" height="60.7031" style="stroke:#181818;stroke-width:1.0;" width="10" x="661" y="1606.1797"/><rect fill="#FFFFFF" height="30" style="stroke:#181818;stroke-width:1.0;" width="10" x="1005" y="236.3672"/><rect fill="#FFFFFF" height="30" style="stroke:#181818;stroke-width:1.0;" width="10" x="1005" y="357.0703"/><rect fill="#FFFFFF" height="689.5391" style="stroke:#181818;stroke-width:1.0;" width="10" x="1128.5" y="417.4219"/><rect fill="#FFFFFF" height="259.2422" style="stroke:#181818;stroke-width:1.0;" width="10" x="1138.5" y="455.7734"/><rect fill="#FFFFFF" height="259.2422" style="stroke:#181818;stroke-width:1.0;" width="10" x="1138.5" y="455.7734"/><rect fill="#FFFFFF" height="28" style="stroke:#181818;stroke-width:1.0;" width="10" x="1143.5" y="499.125"/><rect fill="#FFFFFF" height="28" style="stroke:#181818;stroke-width:1.0;" width="10" x="1143.5" y="597.8281"/><rect fill="#FFFFFF" height="28" style="stroke:#181818;stroke-width:1.0;" width="10" x="1143.5" y="687.0156"/><rect fill="#FFFFFF" height="259.2422" style="stroke:#181818;stroke-width:1.0;" width="10" x="1138.5" y="767.3672"/><rect fill="#FFFFFF" height="259.2422" style="stroke:#181818;stroke-width:1.0;" width="10" x="1138.5" y="767.3672"/><rect fill="#FFFFFF" height="28" style="stroke:#181818;stroke-width:1.0;" width="10" x="1143.5" y="810.7188"/><rect fill="#FFFFFF" height="28" style="stroke:#181818;stroke-width:1.0;" width="10" x="1143.5" y="909.4219"/><rect fill="#FFFFFF" height="28" style="stroke:#181818;stroke-width:1.0;" width="10" x="1143.5" y="998.6094"/><rect fill="#FFFFFF" height="28" style="stroke:#181818;stroke-width:1.0;" width="10" x="1133.5" y="1078.9609"/><rect fill="#FFFFFF" height="247.4063" style="stroke:#181818;stroke-width:1.0;" width="10" x="1133.5" y="1144.3125"/><rect fill="#FFFFFF" height="247.4063" style="stroke:#181818;stroke-width:1.0;" width="10" x="1133.5" y="1144.3125"/><rect fill="#FFFFFF" height="28" style="stroke:#181818;stroke-width:1.0;" width="10" x="1138.5" y="1363.7188"/><rect fill="#FFFFFF" height="30.3516" style="stroke:#181818;stroke-width:1.0;" width="10" x="1128.5" y="1636.5313"/><rect fill="#FFFFFF" height="30" style="stroke:#181818;stroke-width:1.0;" width="10" x="1541.5" y="296.7188"/><rect fill="#FFFFFF" height="30" style="stroke:#181818;stroke-width:1.0;" width="10" x="1649.5" y="1174.6641"/><rect fill="#FFFFFF" height="30" style="stroke:#181818;stroke-width:1.0;" width="10" x="1714.5" y="1235.0156"/><rect fill="#FFFFFF" height="30" style="stroke:#181818;stroke-width:1.0;" width="10" x="1834.5" y="1295.3672"/><rect height="180.8906" style="stroke:#000000;stroke-width:1.5;fill:none;" width="427.5" x="1047" y="549.125"/><rect height="180.8906" style="stroke:#000000;stroke-width:1.5;fill:none;" width="427.5" x="1047" y="860.7188"/><rect height="182.3672" style="stroke:#000000;stroke-width:1.5;fill:none;" width="1998" x="10" y="1504.7734"/><line style="stroke:#181818;stroke-width:0.5;fill:none;stroke-dasharray:5.0,5.0;" x1="84" x2="84" y1="82.6094" y2="1734.4922"/><line style="stroke:#181818;stroke-width:0.5;fill:none;stroke-dasharray:5.0,5.0;" x1="476.5" x2="476.5" y1="82.6094" y2="1734.4922"/><line style="stroke:#181818;stroke-width:0.5;fill:none;stroke-dasharray:5.0,5.0;" x1="665.5" x2="665.5" y1="82.6094" y2="1734.4922"/><line style="stroke:#181818;stroke-width:0.5;fill:none;stroke-dasharray:5.0,5.0;" x1="1010" x2="1010" y1="82.6094" y2="1734.4922"/><line style="stroke:#181818;stroke-width:0.5;fill:none;stroke-dasharray:5.0,5.0;" x1="1133" x2="1133" y1="82.6094" y2="1734.4922"/><line style="stroke:#181818;stroke-width:0.5;fill:none;stroke-dasharray:5.0,5.0;" x1="1546" x2="1546" y1="82.6094" y2="1734.4922"/><line style="stroke:#181818;stroke-width:0.5;fill:none;stroke-dasharray:5.0,5.0;" x1="1654" x2="1654" y1="82.6094" y2="1734.4922"/><line style="stroke:#181818;stroke-width:0.5;fill:none;stroke-dasharray:5.0,5.0;" x1="1719" x2="1719" y1="82.6094" y2="1734.4922"/><line style="stroke:#181818;stroke-width:0.5;fill:none;stroke-dasharray:5.0,5.0;" x1="1839" x2="1839" y1="82.6094" y2="1734.4922"/><line style="stroke:#181818;stroke-width:0.5;fill:none;stroke-dasharray:5.0,5.0;" x1="1961" x2="1961" y1="1675.8359" y2="1734.4922"/><text fill="#000000" font-family="sans-serif" font-size="14" lengthAdjust="spacing" textLength="122" x="20" y="79.5332">Center Coordinator</text><ellipse cx="84" cy="13.5" fill="#E2E2F0" rx="8" ry="8" style="stroke:#181818;stroke-width:0.5;"/><path d="M84,21.5 L84,48.5 M71,29.5 L97,29.5 M84,48.5 L71,63.5 M84,48.5 L97,63.5 " fill="none" style="stroke:#181818;stroke-width:0.5;"/><text fill="#000000" font-family="sans-serif" font-size="14" lengthAdjust="spacing" textLength="122" x="20" y="1748.0254">Center Coordinator</text><ellipse cx="84" cy="1759.6016" fill="#E2E2F0" rx="8" ry="8" style="stroke:#181818;stroke-width:0.5;"/><path d="M84,1767.6016 L84,1794.6016 M71,1775.6016 L97,1775.6016 M84,1794.6016 L71,1809.6016 M84,1794.6016 L97,1809.6016 " fill="none" style="stroke:#181818;stroke-width:0.5;"/><rect fill="#E2E2F0" height="31.6094" rx="2.5" ry="2.5" style="stroke:#181818;stroke-width:0.5;" width="131" x="411.5" y="50"/><text fill="#000000" font-family="sans-serif" font-size="14" lengthAdjust="spacing" textLength="117" x="418.5" y="71.5332">CheckAndExportUI</text><rect fill="#E2E2F0" height="31.6094" rx="2.5" ry="2.5" style="stroke:#181818;stroke-width:0.5;" width="131" x="411.5" y="1733.4922"/><text fill="#000000" font-family="sans-serif" font-size="14" lengthAdjust="spacing" textLength="117" x="418.5" y="1755.0254">CheckAndExportUI</text><rect fill="#E2E2F0" height="31.6094" rx="2.5" ry="2.5" style="stroke:#181818;stroke-width:0.5;" width="181" x="575.5" y="50"/><text fill="#000000" font-family="sans-serif" font-size="14" lengthAdjust="spacing" textLength="167" x="582.5" y="71.5332">CheckAndExportController</text><rect fill="#E2E2F0" height="31.6094" rx="2.5" ry="2.5" style="stroke:#181818;stroke-width:0.5;" width="181" x="575.5" y="1733.4922"/><text fill="#000000" font-family="sans-serif" font-size="14" lengthAdjust="spacing" textLength="167" x="582.5" y="1755.0254">CheckAndExportController</text><rect fill="#E2E2F0" height="31.6094" rx="2.5" ry="2.5" style="stroke:#181818;stroke-width:0.5;" width="74" x="973" y="50"/><text fill="#000000" font-family="sans-serif" font-size="14" lengthAdjust="spacing" textLength="60" x="980" y="71.5332">Company</text><rect fill="#E2E2F0" height="31.6094" rx="2.5" ry="2.5" style="stroke:#181818;stroke-width:0.5;" width="74" x="973" y="1733.4922"/><text fill="#000000" font-family="sans-serif" font-size="14" lengthAdjust="spacing" textLength="60" x="980" y="1755.0254">Company</text><rect fill="#E2E2F0" height="31.6094" rx="2.5" ry="2.5" style="stroke:#181818;stroke-width:0.5;" width="153" x="1057" y="50"/><text fill="#000000" font-family="sans-serif" font-size="14" lengthAdjust="spacing" textLength="139" x="1064" y="71.5332">CheckAndExportStore</text><rect fill="#E2E2F0" height="31.6094" rx="2.5" ry="2.5" style="stroke:#181818;stroke-width:0.5;" width="153" x="1057" y="1733.4922"/><text fill="#000000" font-family="sans-serif" font-size="14" lengthAdjust="spacing" textLength="139" x="1064" y="1755.0254">CheckAndExportStore</text><rect fill="#E2E2F0" height="31.6094" rx="2.5" ry="2.5" style="stroke:#181818;stroke-width:0.5;" width="157" x="1468" y="50"/><text fill="#000000" font-family="sans-serif" font-size="14" lengthAdjust="spacing" textLength="143" x="1475" y="71.5332">VaccinationEventStore</text><rect fill="#E2E2F0" height="31.6094" rx="2.5" ry="2.5" style="stroke:#181818;stroke-width:0.5;" width="157" x="1468" y="1733.4922"/><text fill="#000000" font-family="sans-serif" font-size="14" lengthAdjust="spacing" textLength="143" x="1475" y="1755.0254">VaccinationEventStore</text><rect fill="#E2E2F0" height="31.6094" rx="2.5" ry="2.5" style="stroke:#181818;stroke-width:0.5;" width="39" x="1635" y="50"/><text fill="#000000" font-family="sans-serif" font-size="14" lengthAdjust="spacing" textLength="25" x="1642" y="71.5332">App</text><rect fill="#E2E2F0" height="31.6094" rx="2.5" ry="2.5" style="stroke:#181818;stroke-width:0.5;" width="39" x="1635" y="1733.4922"/><text fill="#000000" font-family="sans-serif" font-size="14" lengthAdjust="spacing" textLength="25" x="1642" y="1755.0254">App</text><rect fill="#E2E2F0" height="31.6094" rx="2.5" ry="2.5" style="stroke:#181818;stroke-width:0.5;" width="71" x="1684" y="50"/><text fill="#000000" font-family="sans-serif" font-size="14" lengthAdjust="spacing" textLength="57" x="1691" y="71.5332">app: App</text><rect fill="#E2E2F0" height="31.6094" rx="2.5" ry="2.5" style="stroke:#181818;stroke-width:0.5;" width="71" x="1684" y="1733.4922"/><text fill="#000000" font-family="sans-serif" font-size="14" lengthAdjust="spacing" textLength="57" x="1691" y="1755.0254">app: App</text><rect fill="#E2E2F0" height="31.6094" rx="2.5" ry="2.5" style="stroke:#181818;stroke-width:0.5;" width="149" x="1765" y="50"/><text fill="#000000" font-family="sans-serif" font-size="14" lengthAdjust="spacing" textLength="135" x="1772" y="71.5332">session :UserSession</text><rect fill="#E2E2F0" height="31.6094" rx="2.5" ry="2.5" style="stroke:#181818;stroke-width:0.5;" width="149" x="1765" y="1733.4922"/><text fill="#000000" font-family="sans-serif" font-size="14" lengthAdjust="spacing" textLength="135" x="1772" y="1755.0254">session :UserSession</text><rect fill="#E2E2F0" height="31.6094" rx="2.5" ry="2.5" style="stroke:#181818;stroke-width:0.5;" width="74" x="1924" y="1733.4922"/><text fill="#000000" font-family="sans-serif" font-size="14" lengthAdjust="spacing" textLength="60" x="1931" y="1755.0254">name.csv</text><rect fill="#FFFFFF" height="1632.8828" style="stroke:#181818;stroke-width:1.0;" width="10" x="79" y="92.6094"/><rect fill="#FFFFFF" height="30.3516" style="stroke:#181818;stroke-width:1.0;" width="10" x="472" y="114.9609"/><rect fill="#FFFFFF" height="1283.7578" style="stroke:#181818;stroke-width:1.0;" width="10" x="472" y="175.6641"/><rect fill="#FFFFFF" height="55.7031" style="stroke:#181818;stroke-width:1.0;" width="10" x="472" y="1489.7734"/><rect fill="#FFFFFF" height="140.6641" style="stroke:#181818;stroke-width:1.0;" width="10" x="472" y="1575.8281"/><rect fill="#FFFFFF" height="1185.7031" style="stroke:#181818;stroke-width:1.0;" width="10" x="661" y="206.0156"/><rect fill="#FFFFFF" height="60.7031" style="stroke:#181818;stroke-width:1.0;" width="10" x="661" y="1606.1797"/><rect fill="#FFFFFF" height="30" style="stroke:#181818;stroke-width:1.0;" width="10" x="1005" y="236.3672"/><rect fill="#FFFFFF" height="30" style="stroke:#181818;stroke-width:1.0;" width="10" x="1005" y="357.0703"/><rect fill="#FFFFFF" height="689.5391" style="stroke:#181818;stroke-width:1.0;" width="10" x="1128.5" y="417.4219"/><rect fill="#FFFFFF" height="259.2422" style="stroke:#181818;stroke-width:1.0;" width="10" x="1138.5" y="455.7734"/><rect fill="#FFFFFF" height="259.2422" style="stroke:#181818;stroke-width:1.0;" width="10" x="1138.5" y="455.7734"/><rect fill="#FFFFFF" height="28" style="stroke:#181818;stroke-width:1.0;" width="10" x="1143.5" y="499.125"/><rect fill="#FFFFFF" height="28" style="stroke:#181818;stroke-width:1.0;" width="10" x="1143.5" y="597.8281"/><rect fill="#FFFFFF" height="28" style="stroke:#181818;stroke-width:1.0;" width="10" x="1143.5" y="687.0156"/><rect fill="#FFFFFF" height="259.2422" style="stroke:#181818;stroke-width:1.0;" width="10" x="1138.5" y="767.3672"/><rect fill="#FFFFFF" height="259.2422" style="stroke:#181818;stroke-width:1.0;" width="10" x="1138.5" y="767.3672"/><rect fill="#FFFFFF" height="28" style="stroke:#181818;stroke-width:1.0;" width="10" x="1143.5" y="810.7188"/><rect fill="#FFFFFF" height="28" style="stroke:#181818;stroke-width:1.0;" width="10" x="1143.5" y="909.4219"/><rect fill="#FFFFFF" height="28" style="stroke:#181818;stroke-width:1.0;" width="10" x="1143.5" y="998.6094"/><rect fill="#FFFFFF" height="28" style="stroke:#181818;stroke-width:1.0;" width="10" x="1133.5" y="1078.9609"/><rect fill="#FFFFFF" height="247.4063" style="stroke:#181818;stroke-width:1.0;" width="10" x="1133.5" y="1144.3125"/><rect fill="#FFFFFF" height="247.4063" style="stroke:#181818;stroke-width:1.0;" width="10" x="1133.5" y="1144.3125"/><rect fill="#FFFFFF" height="28" style="stroke:#181818;stroke-width:1.0;" width="10" x="1138.5" y="1363.7188"/><rect fill="#FFFFFF" height="30.3516" style="stroke:#181818;stroke-width:1.0;" width="10" x="1128.5" y="1636.5313"/><rect fill="#FFFFFF" height="30" style="stroke:#181818;stroke-width:1.0;" width="10" x="1541.5" y="296.7188"/><rect fill="#FFFFFF" height="30" style="stroke:#181818;stroke-width:1.0;" width="10" x="1649.5" y="1174.6641"/><rect fill="#FFFFFF" height="30" style="stroke:#181818;stroke-width:1.0;" width="10" x="1714.5" y="1235.0156"/><rect fill="#FFFFFF" height="30" style="stroke:#181818;stroke-width:1.0;" width="10" x="1834.5" y="1295.3672"/><polygon fill="#181818" points="460,110.9609,470,114.9609,460,118.9609,464,114.9609" style="stroke:#181818;stroke-width:1.0;"/><line style="stroke:#181818;stroke-width:1.0;" x1="89" x2="466" y1="114.9609" y2="114.9609"/><text fill="#000000" font-family="sans-serif" font-size="13" font-weight="bold" lengthAdjust="spacing" textLength="7" x="96" y="110.1045">1</text><text fill="#000000" font-family="sans-serif" font-size="13" lengthAdjust="spacing" textLength="353" x="107" y="110.1045">Starts the feature of Check and Export Vaccination Statistics</text><polygon fill="#181818" points="100,141.3125,90,145.3125,100,149.3125,96,145.3125" style="stroke:#181818;stroke-width:1.0;"/><line style="stroke:#181818;stroke-width:1.0;stroke-dasharray:2.0,2.0;" x1="94" x2="476" y1="145.3125" y2="145.3125"/><text fill="#000000" font-family="sans-serif" font-size="13" font-weight="bold" lengthAdjust="spacing" textLength="7" x="106" y="140.4561">2</text><text fill="#000000" font-family="sans-serif" font-size="13" lengthAdjust="spacing" textLength="190" x="117" y="140.4561">Request data(start day, end day)</text><polygon fill="#181818" points="460,171.6641,470,175.6641,460,179.6641,464,175.6641" style="stroke:#181818;stroke-width:1.0;"/><line style="stroke:#181818;stroke-width:1.0;" x1="89" x2="466" y1="175.6641" y2="175.6641"/><text fill="#000000" font-family="sans-serif" font-size="13" font-weight="bold" lengthAdjust="spacing" textLength="7" x="96" y="170.8076">3</text><text fill="#000000" font-family="sans-serif" font-size="13" lengthAdjust="spacing" textLength="125" x="107" y="170.8076">Types requested data</text><polygon fill="#181818" points="649,202.0156,659,206.0156,649,210.0156,653,206.0156" style="stroke:#181818;stroke-width:1.0;"/><line style="stroke:#181818;stroke-width:1.0;" x1="482" x2="655" y1="206.0156" y2="206.0156"/><text fill="#000000" font-family="sans-serif" font-size="13" font-weight="bold" lengthAdjust="spacing" textLength="7" x="489" y="201.1592">4</text><text fill="#000000" font-family="sans-serif" font-size="13" lengthAdjust="spacing" textLength="149" x="500" y="201.1592">getVaccinationStatistics()</text><polygon fill="#181818" points="993,232.3672,1003,236.3672,993,240.3672,997,236.3672" style="stroke:#181818;stroke-width:1.0;"/><line style="stroke:#181818;stroke-width:1.0;" x1="671" x2="999" y1="236.3672" y2="236.3672"/><text fill="#000000" font-family="sans-serif" font-size="13" font-weight="bold" lengthAdjust="spacing" textLength="7" x="678" y="231.5107">5</text><text fill="#000000" font-family="sans-serif" font-size="13" lengthAdjust="spacing" textLength="304" x="689" y="231.5107">VaccinationEventStore = getVaccinationEventStore()</text><polygon fill="#181818" points="1529.5,292.7188,1539.5,296.7188,1529.5,300.7188,1533.5,296.7188" style="stroke:#181818;stroke-width:1.0;"/><line style="stroke:#181818;stroke-width:1.0;" x1="671" x2="1535.5" y1="296.7188" y2="296.7188"/><text fill="#000000" font-family="sans-serif" font-size="13" font-weight="bold" lengthAdjust="spacing" textLength="7" x="678" y="291.8623">6</text><text fill="#000000" font-family="sans-serif" font-size="13" lengthAdjust="spacing" textLength="280" x="689" y="291.8623">vaccinationEventList = getVaccinationEventList()</text><polygon fill="#181818" points="993,353.0703,1003,357.0703,993,361.0703,997,357.0703" style="stroke:#181818;stroke-width:1.0;"/><line style="stroke:#181818;stroke-width:1.0;" x1="671" x2="999" y1="357.0703" y2="357.0703"/><text fill="#000000" font-family="sans-serif" font-size="13" font-weight="bold" lengthAdjust="spacing" textLength="7" x="678" y="352.2139">7</text><text fill="#000000" font-family="sans-serif" font-size="13" lengthAdjust="spacing" textLength="300" x="689" y="352.2139">CheckAndExportStore = getCheckAndExportStore()</text><polygon fill="#181818" points="1116.5,413.4219,1126.5,417.4219,1116.5,421.4219,1120.5,417.4219" style="stroke:#181818;stroke-width:1.0;"/><line style="stroke:#181818;stroke-width:1.0;" x1="671" x2="1122.5" y1="417.4219" y2="417.4219"/><text fill="#000000" font-family="sans-serif" font-size="13" font-weight="bold" lengthAdjust="spacing" textLength="7" x="678" y="412.5654">8</text><text fill="#000000" font-family="sans-serif" font-size="13" lengthAdjust="spacing" textLength="247" x="689" y="412.5654">checkIntervalTimeRules(dayInitial, dayEnd)</text><line style="stroke:#181818;stroke-width:1.0;" x1="1138.5" x2="1185.5" y1="442.7734" y2="442.7734"/><line style="stroke:#181818;stroke-width:1.0;" x1="1185.5" x2="1185.5" y1="442.7734" y2="455.7734"/><line style="stroke:#181818;stroke-width:1.0;" x1="1144.5" x2="1185.5" y1="455.7734" y2="455.7734"/><polygon fill="#181818" points="1154.5,451.7734,1144.5,455.7734,1154.5,459.7734,1150.5,455.7734" style="stroke:#181818;stroke-width:1.0;"/><text fill="#000000" font-family="sans-serif" font-size="13" font-weight="bold" lengthAdjust="spacing" textLength="7" x="1150.5" y="437.917">9</text><text fill="#000000" font-family="sans-serif" font-size="13" lengthAdjust="spacing" textLength="170" x="1161.5" y="437.917">chekDayDateRules(dayInitial)</text><line style="stroke:#181818;stroke-width:1.0;" x1="1153.5" x2="1195.5" y1="491.125" y2="491.125"/><line style="stroke:#181818;stroke-width:1.0;" x1="1195.5" x2="1195.5" y1="491.125" y2="504.125"/><line style="stroke:#181818;stroke-width:1.0;" x1="1154.5" x2="1195.5" y1="504.125" y2="504.125"/><polygon fill="#181818" points="1164.5,500.125,1154.5,504.125,1164.5,508.125,1160.5,504.125" style="stroke:#181818;stroke-width:1.0;"/><text fill="#000000" font-family="sans-serif" font-size="13" font-weight="bold" lengthAdjust="spacing" textLength="14" x="1160.5" y="486.2686">10</text><text fill="#000000" font-family="sans-serif" font-size="13" lengthAdjust="spacing" textLength="66" x="1178.5" y="486.2686">isLapYear()</text><path d="M1047,549.125 L1108,549.125 L1108,557.4766 L1098,567.4766 L1047,567.4766 L1047,549.125 " fill="#EEEEEE" style="stroke:#000000;stroke-width:1.5;"/><rect fill="none" height="180.8906" style="stroke:#000000;stroke-width:1.5;" width="427.5" x="1047" y="549.125"/><text fill="#000000" font-family="sans-serif" font-size="13" font-weight="bold" lengthAdjust="spacing" textLength="16" x="1062" y="563.6201">alt</text><text fill="#000000" font-family="sans-serif" font-size="11" font-weight="bold" lengthAdjust="spacing" textLength="98" x="1123" y="562.5439">[isLapYear = true]</text><line style="stroke:#181818;stroke-width:1.0;" x1="1153.5" x2="1195.5" y1="589.8281" y2="589.8281"/><line style="stroke:#181818;stroke-width:1.0;" x1="1195.5" x2="1195.5" y1="589.8281" y2="602.8281"/><line style="stroke:#181818;stroke-width:1.0;" x1="1154.5" x2="1195.5" y1="602.8281" y2="602.8281"/><polygon fill="#181818" points="1164.5,598.8281,1154.5,602.8281,1164.5,606.8281,1160.5,602.8281" style="stroke:#181818;stroke-width:1.0;"/><text fill="#000000" font-family="sans-serif" font-size="13" font-weight="bold" lengthAdjust="spacing" textLength="14" x="1160.5" y="584.9717">11</text><text fill="#000000" font-family="sans-serif" font-size="13" lengthAdjust="spacing" textLength="264" x="1178.5" y="584.9717">verifieDateParametersInLapYear(dayy, month)</text><line style="stroke:#000000;stroke-width:1.0;stroke-dasharray:2.0,2.0;" x1="1047" x2="1474.5" y1="641.8281" y2="641.8281"/><text fill="#000000" font-family="sans-serif" font-size="11" font-weight="bold" lengthAdjust="spacing" textLength="102" x="1052" y="653.2471">[isLapYear = false]</text><line style="stroke:#181818;stroke-width:1.0;" x1="1153.5" x2="1195.5" y1="679.0156" y2="679.0156"/><line style="stroke:#181818;stroke-width:1.0;" x1="1195.5" x2="1195.5" y1="679.0156" y2="692.0156"/><line style="stroke:#181818;stroke-width:1.0;" x1="1154.5" x2="1195.5" y1="692.0156" y2="692.0156"/><polygon fill="#181818" points="1164.5,688.0156,1154.5,692.0156,1164.5,696.0156,1160.5,692.0156" style="stroke:#181818;stroke-width:1.0;"/><text fill="#000000" font-family="sans-serif" font-size="13" font-weight="bold" lengthAdjust="spacing" textLength="14" x="1160.5" y="674.1592">12</text><text fill="#000000" font-family="sans-serif" font-size="13" lengthAdjust="spacing" textLength="284" x="1178.5" y="674.1592">verifieDateParametersInNormalYear(dayy, month)</text><line style="stroke:#181818;stroke-width:1.0;" x1="1138.5" x2="1185.5" y1="754.3672" y2="754.3672"/><line style="stroke:#181818;stroke-width:1.0;" x1="1185.5" x2="1185.5" y1="754.3672" y2="767.3672"/><line style="stroke:#181818;stroke-width:1.0;" x1="1144.5" x2="1185.5" y1="767.3672" y2="767.3672"/><polygon fill="#181818" points="1154.5,763.3672,1144.5,767.3672,1154.5,771.3672,1150.5,767.3672" style="stroke:#181818;stroke-width:1.0;"/><text fill="#000000" font-family="sans-serif" font-size="13" font-weight="bold" lengthAdjust="spacing" textLength="14" x="1150.5" y="749.5107">13</text><text fill="#000000" font-family="sans-serif" font-size="13" lengthAdjust="spacing" textLength="163" x="1168.5" y="749.5107">chekDayDateRules(dayEnd)</text><line style="stroke:#181818;stroke-width:1.0;" x1="1153.5" x2="1195.5" y1="802.7188" y2="802.7188"/><line style="stroke:#181818;stroke-width:1.0;" x1="1195.5" x2="1195.5" y1="802.7188" y2="815.7188"/><line style="stroke:#181818;stroke-width:1.0;" x1="1154.5" x2="1195.5" y1="815.7188" y2="815.7188"/><polygon fill="#181818" points="1164.5,811.7188,1154.5,815.7188,1164.5,819.7188,1160.5,815.7188" style="stroke:#181818;stroke-width:1.0;"/><text fill="#000000" font-family="sans-serif" font-size="13" font-weight="bold" lengthAdjust="spacing" textLength="14" x="1160.5" y="797.8623">14</text><text fill="#000000" font-family="sans-serif" font-size="13" lengthAdjust="spacing" textLength="66" x="1178.5" y="797.8623">isLapYear()</text><path d="M1047,860.7188 L1108,860.7188 L1108,869.0703 L1098,879.0703 L1047,879.0703 L1047,860.7188 " fill="#EEEEEE" style="stroke:#000000;stroke-width:1.5;"/><rect fill="none" height="180.8906" style="stroke:#000000;stroke-width:1.5;" width="427.5" x="1047" y="860.7188"/><text fill="#000000" font-family="sans-serif" font-size="13" font-weight="bold" lengthAdjust="spacing" textLength="16" x="1062" y="875.2139">alt</text><text fill="#000000" font-family="sans-serif" font-size="11" font-weight="bold" lengthAdjust="spacing" textLength="98" x="1123" y="874.1377">[isLapYear = true]</text><line style="stroke:#181818;stroke-width:1.0;" x1="1153.5" x2="1195.5" y1="901.4219" y2="901.4219"/><line style="stroke:#181818;stroke-width:1.0;" x1="1195.5" x2="1195.5" y1="901.4219" y2="914.4219"/><line style="stroke:#181818;stroke-width:1.0;" x1="1154.5" x2="1195.5" y1="914.4219" y2="914.4219"/><polygon fill="#181818" points="1164.5,910.4219,1154.5,914.4219,1164.5,918.4219,1160.5,914.4219" style="stroke:#181818;stroke-width:1.0;"/><text fill="#000000" font-family="sans-serif" font-size="13" font-weight="bold" lengthAdjust="spacing" textLength="14" x="1160.5" y="896.5654">15</text><text fill="#000000" font-family="sans-serif" font-size="13" lengthAdjust="spacing" textLength="264" x="1178.5" y="896.5654">verifieDateParametersInLapYear(dayy, month)</text><line style="stroke:#000000;stroke-width:1.0;stroke-dasharray:2.0,2.0;" x1="1047" x2="1474.5" y1="953.4219" y2="953.4219"/><text fill="#000000" font-family="sans-serif" font-size="11" font-weight="bold" lengthAdjust="spacing" textLength="102" x="1052" y="964.8408">[isLapYear = false]</text><line style="stroke:#181818;stroke-width:1.0;" x1="1153.5" x2="1195.5" y1="990.6094" y2="990.6094"/><line style="stroke:#181818;stroke-width:1.0;" x1="1195.5" x2="1195.5" y1="990.6094" y2="1003.6094"/><line style="stroke:#181818;stroke-width:1.0;" x1="1154.5" x2="1195.5" y1="1003.6094" y2="1003.6094"/><polygon fill="#181818" points="1164.5,999.6094,1154.5,1003.6094,1164.5,1007.6094,1160.5,1003.6094" style="stroke:#181818;stroke-width:1.0;"/><text fill="#000000" font-family="sans-serif" font-size="13" font-weight="bold" lengthAdjust="spacing" textLength="14" x="1160.5" y="985.7529">16</text><text fill="#000000" font-family="sans-serif" font-size="13" lengthAdjust="spacing" textLength="284" x="1178.5" y="985.7529">verifieDateParametersInNormalYear(dayy, month)</text><line style="stroke:#181818;stroke-width:1.0;" x1="1143.5" x2="1185.5" y1="1070.9609" y2="1070.9609"/><line style="stroke:#181818;stroke-width:1.0;" x1="1185.5" x2="1185.5" y1="1070.9609" y2="1083.9609"/><line style="stroke:#181818;stroke-width:1.0;" x1="1144.5" x2="1185.5" y1="1083.9609" y2="1083.9609"/><polygon fill="#181818" points="1154.5,1079.9609,1144.5,1083.9609,1154.5,1087.9609,1150.5,1083.9609" style="stroke:#181818;stroke-width:1.0;"/><text fill="#000000" font-family="sans-serif" font-size="13" font-weight="bold" lengthAdjust="spacing" textLength="14" x="1150.5" y="1066.1045">17</text><text fill="#000000" font-family="sans-serif" font-size="13" lengthAdjust="spacing" textLength="182" x="1168.5" y="1066.1045">checkInterval(dayInitial,dayEnd)</text><polygon fill="#181818" points="1121.5,1140.3125,1131.5,1144.3125,1121.5,1148.3125,1125.5,1144.3125" style="stroke:#181818;stroke-width:1.0;"/><line style="stroke:#181818;stroke-width:1.0;" x1="671" x2="1127.5" y1="1144.3125" y2="1144.3125"/><text fill="#000000" font-family="sans-serif" font-size="13" font-weight="bold" lengthAdjust="spacing" textLength="14" x="678" y="1139.4561">18</text><text fill="#000000" font-family="sans-serif" font-size="13" lengthAdjust="spacing" textLength="150" x="696" y="1139.4561">getText(dayInitial,dayEnd)</text><polygon fill="#181818" points="1637.5,1170.6641,1647.5,1174.6641,1637.5,1178.6641,1641.5,1174.6641" style="stroke:#181818;stroke-width:1.0;"/><line style="stroke:#181818;stroke-width:1.0;" x1="1143.5" x2="1643.5" y1="1174.6641" y2="1174.6641"/><text fill="#000000" font-family="sans-serif" font-size="13" font-weight="bold" lengthAdjust="spacing" textLength="14" x="1150.5" y="1169.8076">19</text><text fill="#000000" font-family="sans-serif" font-size="13" lengthAdjust="spacing" textLength="104" x="1168.5" y="1169.8076">app=getInstance()</text><polygon fill="#181818" points="1702.5,1231.0156,1712.5,1235.0156,1702.5,1239.0156,1706.5,1235.0156" style="stroke:#181818;stroke-width:1.0;"/><line style="stroke:#181818;stroke-width:1.0;" x1="1143.5" x2="1708.5" y1="1235.0156" y2="1235.0156"/><text fill="#000000" font-family="sans-serif" font-size="13" font-weight="bold" lengthAdjust="spacing" textLength="14" x="1150.5" y="1230.1592">20</text><text fill="#000000" font-family="sans-serif" font-size="13" lengthAdjust="spacing" textLength="203" x="1168.5" y="1230.1592">session = getCurrentUserSession()</text><polygon fill="#181818" points="1822.5,1291.3672,1832.5,1295.3672,1822.5,1299.3672,1826.5,1295.3672" style="stroke:#181818;stroke-width:1.0;"/><line style="stroke:#181818;stroke-width:1.0;" x1="1143.5" x2="1828.5" y1="1295.3672" y2="1295.3672"/><text fill="#000000" font-family="sans-serif" font-size="13" font-weight="bold" lengthAdjust="spacing" textLength="14" x="1150.5" y="1290.5107">21</text><text fill="#000000" font-family="sans-serif" font-size="13" lengthAdjust="spacing" textLength="163" x="1168.5" y="1290.5107">email= getUserID.getEmail()</text><line style="stroke:#181818;stroke-width:1.0;" x1="1148.5" x2="1190.5" y1="1355.7188" y2="1355.7188"/><line style="stroke:#181818;stroke-width:1.0;" x1="1190.5" x2="1190.5" y1="1355.7188" y2="1368.7188"/><line style="stroke:#181818;stroke-width:1.0;" x1="1149.5" x2="1190.5" y1="1368.7188" y2="1368.7188"/><polygon fill="#181818" points="1159.5,1364.7188,1149.5,1368.7188,1159.5,1372.7188,1155.5,1368.7188" style="stroke:#181818;stroke-width:1.0;"/><text fill="#000000" font-family="sans-serif" font-size="13" font-weight="bold" lengthAdjust="spacing" textLength="14" x="1155.5" y="1350.8623">22</text><text fill="#000000" font-family="sans-serif" font-size="13" lengthAdjust="spacing" textLength="366" x="1173.5" y="1350.8623">doListOfStatistics(vaccinationEventList,dayInitial,dayEnd,email)</text><polygon fill="#181818" points="100,1425.0703,90,1429.0703,100,1433.0703,96,1429.0703" style="stroke:#181818;stroke-width:1.0;"/><line style="stroke:#181818;stroke-width:1.0;stroke-dasharray:2.0,2.0;" x1="94" x2="471" y1="1429.0703" y2="1429.0703"/><text fill="#000000" font-family="sans-serif" font-size="13" font-weight="bold" lengthAdjust="spacing" textLength="14" x="106" y="1424.2139">23</text><text fill="#000000" font-family="sans-serif" font-size="13" lengthAdjust="spacing" textLength="185" x="124" y="1424.2139">Show the Vaccination Statistics</text><polygon fill="#181818" points="100,1455.4219,90,1459.4219,100,1463.4219,96,1459.4219" style="stroke:#181818;stroke-width:1.0;"/><line style="stroke:#181818;stroke-width:1.0;stroke-dasharray:2.0,2.0;" x1="94" x2="476" y1="1459.4219" y2="1459.4219"/><text fill="#000000" font-family="sans-serif" font-size="13" font-weight="bold" lengthAdjust="spacing" textLength="14" x="106" y="1454.5654">24</text><text fill="#000000" font-family="sans-serif" font-size="13" lengthAdjust="spacing" textLength="158" x="124" y="1454.5654">Ask the user to export data</text><polygon fill="#181818" points="460,1485.7734,470,1489.7734,460,1493.7734,464,1489.7734" style="stroke:#181818;stroke-width:1.0;"/><line style="stroke:#181818;stroke-width:1.0;" x1="89" x2="466" y1="1489.7734" y2="1489.7734"/><text fill="#000000" font-family="sans-serif" font-size="13" font-weight="bold" lengthAdjust="spacing" textLength="14" x="96" y="1484.917">25</text><text fill="#000000" font-family="sans-serif" font-size="13" lengthAdjust="spacing" textLength="175" x="114" y="1484.917">Selects the answer(ok/cancel)</text><path d="M10,1504.7734 L71,1504.7734 L71,1513.125 L61,1523.125 L10,1523.125 L10,1504.7734 " fill="#EEEEEE" style="stroke:#000000;stroke-width:1.5;"/><rect fill="none" height="182.3672" style="stroke:#000000;stroke-width:1.5;" width="1998" x="10" y="1504.7734"/><text fill="#000000" font-family="sans-serif" font-size="13" font-weight="bold" lengthAdjust="spacing" textLength="16" x="25" y="1519.2686">alt</text><text fill="#000000" font-family="sans-serif" font-size="11" font-weight="bold" lengthAdjust="spacing" textLength="82" x="86" y="1518.1924">[answer = yes]</text><polygon fill="#181818" points="100,1541.4766,90,1545.4766,100,1549.4766,96,1545.4766" style="stroke:#181818;stroke-width:1.0;"/><line style="stroke:#181818;stroke-width:1.0;stroke-dasharray:2.0,2.0;" x1="94" x2="476" y1="1545.4766" y2="1545.4766"/><text fill="#000000" font-family="sans-serif" font-size="13" font-weight="bold" lengthAdjust="spacing" textLength="14" x="106" y="1540.6201">26</text><text fill="#000000" font-family="sans-serif" font-size="13" lengthAdjust="spacing" textLength="255" x="124" y="1540.6201">Ask for the name that will be given to the file</text><polygon fill="#181818" points="460,1571.8281,470,1575.8281,460,1579.8281,464,1575.8281" style="stroke:#181818;stroke-width:1.0;"/><line style="stroke:#181818;stroke-width:1.0;" x1="89" x2="466" y1="1575.8281" y2="1575.8281"/><text fill="#000000" font-family="sans-serif" font-size="13" font-weight="bold" lengthAdjust="spacing" textLength="14" x="96" y="1570.9717">27</text><text fill="#000000" font-family="sans-serif" font-size="13" lengthAdjust="spacing" textLength="147" x="114" y="1570.9717">Types the requested data</text><polygon fill="#181818" points="649,1602.1797,659,1606.1797,649,1610.1797,653,1606.1797" style="stroke:#181818;stroke-width:1.0;"/><line style="stroke:#181818;stroke-width:1.0;" x1="482" x2="655" y1="1606.1797" y2="1606.1797"/><text fill="#000000" font-family="sans-serif" font-size="13" font-weight="bold" lengthAdjust="spacing" textLength="14" x="489" y="1601.3232">28</text><text fill="#000000" font-family="sans-serif" font-size="13" lengthAdjust="spacing" textLength="111" x="507" y="1601.3232">saveToFile(file,text)</text><polygon fill="#181818" points="1116.5,1632.5313,1126.5,1636.5313,1116.5,1640.5313,1120.5,1636.5313" style="stroke:#181818;stroke-width:1.0;"/><line style="stroke:#181818;stroke-width:1.0;" x1="671" x2="1122.5" y1="1636.5313" y2="1636.5313"/><text fill="#000000" font-family="sans-serif" font-size="13" font-weight="bold" lengthAdjust="spacing" textLength="14" x="678" y="1631.6748">29</text><text fill="#000000" font-family="sans-serif" font-size="13" lengthAdjust="spacing" textLength="121" x="696" y="1631.6748">saveSystem(file,text)</text><polygon fill="#181818" points="1912,1662.8828,1922,1666.8828,1912,1670.8828,1916,1666.8828" style="stroke:#181818;stroke-width:1.0;"/><line style="stroke:#181818;stroke-width:1.0;" x1="1133.5" x2="1918" y1="1666.8828" y2="1666.8828"/><text fill="#000000" font-family="sans-serif" font-size="13" font-weight="bold" lengthAdjust="spacing" textLength="14" x="1140.5" y="1662.0264">30</text><text fill="#000000" font-family="sans-serif" font-size="13" lengthAdjust="spacing" textLength="83" x="1158.5" y="1662.0264">create .csv file</text><rect fill="#E2E2F0" height="31.6094" rx="2.5" ry="2.5" style="stroke:#181818;stroke-width:0.5;" width="74" x="1924" y="1644.5313"/><text fill="#000000" font-family="sans-serif" font-size="14" lengthAdjust="spacing" textLength="60" x="1931" y="1666.0645">name.csv</text><polygon fill="#181818" points="100,1712.4922,90,1716.4922,100,1720.4922,96,1716.4922" style="stroke:#181818;stroke-width:1.0;"/><line style="stroke:#181818;stroke-width:1.0;stroke-dasharray:2.0,2.0;" x1="94" x2="476" y1="1716.4922" y2="1716.4922"/><text fill="#000000" font-family="sans-serif" font-size="13" font-weight="bold" lengthAdjust="spacing" textLength="14" x="106" y="1711.6357">31</text><text fill="#000000" font-family="sans-serif" font-size="13" lengthAdjust="spacing" textLength="172" x="124" y="1711.6357">informs operation (in)Success</text><!--MD5=[b1cf99267c98cac9a584f5a857e90421]
@startuml
'https://plantuml.com/sequence-diagram

autonumber

actor "Center Coordinator" as CC
participant "CheckAndExportUI" as UI
participant "CheckAndExportController" as CTRL
participant Company as CMP
participant "CheckAndExportStore" as STR
participant VaccinationEventStore as VESTR
participant App as App
participant "app: App" as app2
participant "session :UserSession" as SESSION


activate CC
CC->UI: Starts the feature of Check and Export Vaccination Statistics
activate UI
UI- ->CC: Request data(start day, end day)
deactivate UI
CC-> UI:Types requested data
activate UI
UI->CTRL: getVaccinationStatistics()
activate CTRL
CTRL->CMP: VaccinationEventStore = getVaccinationEventStore()
activate CMP
deactivate CMP
CTRL->VESTR: vaccinationEventList = getVaccinationEventList()
activate VESTR
deactivate VESTR
CTRL -> CMP : CheckAndExportStore = getCheckAndExportStore()
activate CMP
deactivate CMP
CTRL->STR: checkIntervalTimeRules(dayInitial, dayEnd)
activate STR
STR->STR:chekDayDateRules(dayInitial)
activate STR
activate STR
STR -> STR: isLapYear()
alt isLapYear = true
activate STR
deactivate STR
STR -> STR:verifieDateParametersInLapYear(dayy, month)
activate STR
deactivate STR
else isLapYear = false
STR -> STR:verifieDateParametersInNormalYear(dayy, month)
activate STR
deactivate STR
deactivate STR
deactivate STR
end

STR->STR:chekDayDateRules(dayEnd)
activate STR
activate STR
STR -> STR: isLapYear()
alt isLapYear = true
activate STR
deactivate STR
STR -> STR:verifieDateParametersInLapYear(dayy, month)
activate STR
deactivate STR
else isLapYear = false
STR -> STR:verifieDateParametersInNormalYear(dayy, month)
activate STR
deactivate STR
deactivate STR
deactivate STR
end
STR->STR: checkInterval(dayInitial,dayEnd)
activate STR
deactivate STR
deactivate STR
deactivate STR

CTRL->STR: getText(dayInitial,dayEnd)
activate STR

activate STR
STR->App:app=getInstance()
activate App
deactivate App
STR-> app2: session = getCurrentUserSession()
activate app2
deactivate app2
STR-> SESSION: email= getUserID.getEmail()
activate SESSION
deactivate SESSION
STR->STR:doListOfStatistics(vaccinationEventList,dayInitial,dayEnd,email)
activate STR
deactivate STR
deactivate STR
deactivate STR
deactivate CTRL
UI- ->CC: Show the Vaccination Statistics
UI- ->CC: Ask the user to export data
deactivate UI
CC->UI: Selects the answer(ok/cancel)
activate UI
alt answer = yes
UI- - ->CC: Ask for the name that will be given to the file
deactivate UI
CC->UI: Types the requested data
activate UI
UI->CTRL:saveToFile(file,text)
activate CTRL
CTRL->STR:saveSystem(file,text)
activate STR
STR-> name.csv**: create .csv file
deactivate STR
deactivate CTRL
end
activate UI
UI- -> CC: informs operation (in)Success
deactivate UI


@enduml

@startuml

autonumber

actor "Center Coordinator" as CC
participant "CheckAndExportUI" as UI
participant "CheckAndExportController" as CTRL
participant Company as CMP
participant "CheckAndExportStore" as STR
participant VaccinationEventStore as VESTR
participant App as App
participant "app: App" as app2
participant "session :UserSession" as SESSION


activate CC
CC->UI: Starts the feature of Check and Export Vaccination Statistics
activate UI
UI- ->CC: Request data(start day, end day)
deactivate UI
CC-> UI:Types requested data
activate UI
UI->CTRL: getVaccinationStatistics()
activate CTRL
CTRL->CMP: VaccinationEventStore = getVaccinationEventStore()
activate CMP
deactivate CMP
CTRL->VESTR: vaccinationEventList = getVaccinationEventList()
activate VESTR
deactivate VESTR
CTRL -> CMP : CheckAndExportStore = getCheckAndExportStore()
activate CMP
deactivate CMP
CTRL->STR: checkIntervalTimeRules(dayInitial, dayEnd)
activate STR
STR->STR:chekDayDateRules(dayInitial)
activate STR
activate STR
STR -> STR: isLapYear()
alt isLapYear = true
activate STR
deactivate STR
STR -> STR:verifieDateParametersInLapYear(dayy, month)
activate STR
deactivate STR
else isLapYear = false
STR -> STR:verifieDateParametersInNormalYear(dayy, month)
activate STR
deactivate STR
deactivate STR
deactivate STR
end

STR->STR:chekDayDateRules(dayEnd)
activate STR
activate STR
STR -> STR: isLapYear()
alt isLapYear = true
activate STR
deactivate STR
STR -> STR:verifieDateParametersInLapYear(dayy, month)
activate STR
deactivate STR
else isLapYear = false
STR -> STR:verifieDateParametersInNormalYear(dayy, month)
activate STR
deactivate STR
deactivate STR
deactivate STR
end
STR->STR: checkInterval(dayInitial,dayEnd)
activate STR
deactivate STR
deactivate STR
deactivate STR

CTRL->STR: getText(dayInitial,dayEnd)
activate STR

activate STR
STR->App:app=getInstance()
activate App
deactivate App
STR-> app2: session = getCurrentUserSession()
activate app2
deactivate app2
STR-> SESSION: email= getUserID.getEmail()
activate SESSION
deactivate SESSION
STR->STR:doListOfStatistics(vaccinationEventList,dayInitial,dayEnd,email)
activate STR
deactivate STR
deactivate STR
deactivate STR
deactivate CTRL
UI- ->CC: Show the Vaccination Statistics
UI- ->CC: Ask the user to export data
deactivate UI
CC->UI: Selects the answer(ok/cancel)
activate UI
alt answer = yes
UI- - ->CC: Ask for the name that will be given to the file
deactivate UI
CC->UI: Types the requested data
activate UI
UI->CTRL:saveToFile(file,text)
activate CTRL
CTRL->STR:saveSystem(file,text)
activate STR
STR-> name.csv**: create .csv file
deactivate STR
deactivate CTRL
end
activate UI
UI- -> CC: informs operation (in)Success
deactivate UI


@enduml

PlantUML version 1.2022.4(Sat Apr 09 14:29:17 BST 2022)
(GPL source distribution)
Java Runtime: OpenJDK Runtime Environment
JVM: OpenJDK 64-Bit Server VM
Default Encoding: Cp1252
Language: pt
Country: PT
--></g></svg>