<?xml version="1.0" encoding="UTF-8" standalone="no"?><svg xmlns="http://www.w3.org/2000/svg" xmlns:xlink="http://www.w3.org/1999/xlink" contentStyleType="text/css" height="490px" preserveAspectRatio="none" style="width:525px;height:490px;background:#FFFFFF;" version="1.1" viewBox="0 0 525 490" width="525px" zoomAndPan="magnify"><defs/><g><rect fill="#FFFFFF" height="306.5156" style="stroke:#181818;stroke-width:1.0;" width="10" x="79" y="92.6094"/><rect fill="#FFFFFF" height="30.3516" style="stroke:#181818;stroke-width:1.0;" width="10" x="472" y="114.9609"/><rect fill="#FFFFFF" height="60.7031" style="stroke:#181818;stroke-width:1.0;" width="10" x="472" y="175.6641"/><rect fill="#FFFFFF" height="55.7031" style="stroke:#181818;stroke-width:1.0;" width="10" x="472" y="266.7188"/><rect fill="#FFFFFF" height="37.3516" style="stroke:#181818;stroke-width:1.0;" width="10" x="472" y="352.7734"/><rect height="79.0547" style="stroke:#000000;stroke-width:1.5;fill:none;" width="509" x="10" y="281.7188"/><line style="stroke:#181818;stroke-width:0.5;fill:none;stroke-dasharray:5.0,5.0;" x1="84" x2="84" y1="82.6094" y2="408.125"/><line style="stroke:#181818;stroke-width:0.5;fill:none;stroke-dasharray:5.0,5.0;" x1="477" x2="477" y1="82.6094" y2="408.125"/><text fill="#000000" font-family="sans-serif" font-size="14" lengthAdjust="spacing" textLength="122" x="20" y="79.5332">Center Coordinator</text><ellipse cx="84" cy="13.5" fill="#E2E2F0" rx="8" ry="8" style="stroke:#181818;stroke-width:0.5;"/><path d="M84,21.5 L84,48.5 M71,29.5 L97,29.5 M84,48.5 L71,63.5 M84,48.5 L97,63.5 " fill="none" style="stroke:#181818;stroke-width:0.5;"/><text fill="#000000" font-family="sans-serif" font-size="14" lengthAdjust="spacing" textLength="122" x="20" y="421.6582">Center Coordinator</text><ellipse cx="84" cy="433.2344" fill="#E2E2F0" rx="8" ry="8" style="stroke:#181818;stroke-width:0.5;"/><path d="M84,441.2344 L84,468.2344 M71,449.2344 L97,449.2344 M84,468.2344 L71,483.2344 M84,468.2344 L97,483.2344 " fill="none" style="stroke:#181818;stroke-width:0.5;"/><rect fill="#E2E2F0" height="31.6094" rx="2.5" ry="2.5" style="stroke:#181818;stroke-width:0.5;" width="64" x="445" y="50"/><text fill="#000000" font-family="sans-serif" font-size="14" lengthAdjust="spacing" textLength="50" x="452" y="71.5332">:System</text><rect fill="#E2E2F0" height="31.6094" rx="2.5" ry="2.5" style="stroke:#181818;stroke-width:0.5;" width="64" x="445" y="407.125"/><text fill="#000000" font-family="sans-serif" font-size="14" lengthAdjust="spacing" textLength="50" x="452" y="428.6582">:System</text><rect fill="#FFFFFF" height="306.5156" style="stroke:#181818;stroke-width:1.0;" width="10" x="79" y="92.6094"/><rect fill="#FFFFFF" height="30.3516" style="stroke:#181818;stroke-width:1.0;" width="10" x="472" y="114.9609"/><rect fill="#FFFFFF" height="60.7031" style="stroke:#181818;stroke-width:1.0;" width="10" x="472" y="175.6641"/><rect fill="#FFFFFF" height="55.7031" style="stroke:#181818;stroke-width:1.0;" width="10" x="472" y="266.7188"/><rect fill="#FFFFFF" height="37.3516" style="stroke:#181818;stroke-width:1.0;" width="10" x="472" y="352.7734"/><polygon fill="#181818" points="460,110.9609,470,114.9609,460,118.9609,464,114.9609" style="stroke:#181818;stroke-width:1.0;"/><line style="stroke:#181818;stroke-width:1.0;" x1="89" x2="466" y1="114.9609" y2="114.9609"/><text fill="#000000" font-family="sans-serif" font-size="13" font-weight="bold" lengthAdjust="spacing" textLength="7" x="96" y="110.1045">1</text><text fill="#000000" font-family="sans-serif" font-size="13" lengthAdjust="spacing" textLength="353" x="107" y="110.1045">Starts the feature of Check and Export Vaccination Statistics</text><polygon fill="#181818" points="100,141.3125,90,145.3125,100,149.3125,96,145.3125" style="stroke:#181818;stroke-width:1.0;"/><line style="stroke:#181818;stroke-width:1.0;stroke-dasharray:2.0,2.0;" x1="94" x2="476" y1="145.3125" y2="145.3125"/><text fill="#000000" font-family="sans-serif" font-size="13" font-weight="bold" lengthAdjust="spacing" textLength="7" x="106" y="140.4561">2</text><text fill="#000000" font-family="sans-serif" font-size="13" lengthAdjust="spacing" textLength="190" x="117" y="140.4561">Request data(start day, end day)</text><polygon fill="#181818" points="460,171.6641,470,175.6641,460,179.6641,464,175.6641" style="stroke:#181818;stroke-width:1.0;"/><line style="stroke:#181818;stroke-width:1.0;" x1="89" x2="466" y1="175.6641" y2="175.6641"/><text fill="#000000" font-family="sans-serif" font-size="13" font-weight="bold" lengthAdjust="spacing" textLength="7" x="96" y="170.8076">3</text><text fill="#000000" font-family="sans-serif" font-size="13" lengthAdjust="spacing" textLength="125" x="107" y="170.8076">Types requested data</text><polygon fill="#181818" points="100,202.0156,90,206.0156,100,210.0156,96,206.0156" style="stroke:#181818;stroke-width:1.0;"/><line style="stroke:#181818;stroke-width:1.0;stroke-dasharray:2.0,2.0;" x1="94" x2="471" y1="206.0156" y2="206.0156"/><text fill="#000000" font-family="sans-serif" font-size="13" font-weight="bold" lengthAdjust="spacing" textLength="7" x="106" y="201.1592">4</text><text fill="#000000" font-family="sans-serif" font-size="13" lengthAdjust="spacing" textLength="185" x="117" y="201.1592">Show the Vaccination Statistics</text><polygon fill="#181818" points="100,232.3672,90,236.3672,100,240.3672,96,236.3672" style="stroke:#181818;stroke-width:1.0;"/><line style="stroke:#181818;stroke-width:1.0;stroke-dasharray:2.0,2.0;" x1="94" x2="476" y1="236.3672" y2="236.3672"/><text fill="#000000" font-family="sans-serif" font-size="13" font-weight="bold" lengthAdjust="spacing" textLength="7" x="106" y="231.5107">5</text><text fill="#000000" font-family="sans-serif" font-size="13" lengthAdjust="spacing" textLength="158" x="117" y="231.5107">Ask the user to export data</text><polygon fill="#181818" points="460,262.7188,470,266.7188,460,270.7188,464,266.7188" style="stroke:#181818;stroke-width:1.0;"/><line style="stroke:#181818;stroke-width:1.0;" x1="89" x2="466" y1="266.7188" y2="266.7188"/><text fill="#000000" font-family="sans-serif" font-size="13" font-weight="bold" lengthAdjust="spacing" textLength="7" x="96" y="261.8623">6</text><text fill="#000000" font-family="sans-serif" font-size="13" lengthAdjust="spacing" textLength="175" x="107" y="261.8623">Selects the answer(ok/cancel)</text><path d="M10,281.7188 L71,281.7188 L71,290.0703 L61,300.0703 L10,300.0703 L10,281.7188 " fill="#EEEEEE" style="stroke:#000000;stroke-width:1.5;"/><rect fill="none" height="79.0547" style="stroke:#000000;stroke-width:1.5;" width="509" x="10" y="281.7188"/><text fill="#000000" font-family="sans-serif" font-size="13" font-weight="bold" lengthAdjust="spacing" textLength="16" x="25" y="296.2139">alt</text><text fill="#000000" font-family="sans-serif" font-size="11" font-weight="bold" lengthAdjust="spacing" textLength="82" x="86" y="295.1377">[answer = yes]</text><polygon fill="#181818" points="100,318.4219,90,322.4219,100,326.4219,96,322.4219" style="stroke:#181818;stroke-width:1.0;"/><line style="stroke:#181818;stroke-width:1.0;stroke-dasharray:2.0,2.0;" x1="94" x2="476" y1="322.4219" y2="322.4219"/><text fill="#000000" font-family="sans-serif" font-size="13" font-weight="bold" lengthAdjust="spacing" textLength="7" x="106" y="317.5654">7</text><text fill="#000000" font-family="sans-serif" font-size="13" lengthAdjust="spacing" textLength="255" x="117" y="317.5654">Ask for the name that will be given to the file</text><polygon fill="#181818" points="460,348.7734,470,352.7734,460,356.7734,464,352.7734" style="stroke:#181818;stroke-width:1.0;"/><line style="stroke:#181818;stroke-width:1.0;" x1="89" x2="466" y1="352.7734" y2="352.7734"/><text fill="#000000" font-family="sans-serif" font-size="13" font-weight="bold" lengthAdjust="spacing" textLength="7" x="96" y="347.917">8</text><text fill="#000000" font-family="sans-serif" font-size="13" lengthAdjust="spacing" textLength="147" x="107" y="347.917">Types the requested data</text><polygon fill="#181818" points="100,386.125,90,390.125,100,394.125,96,390.125" style="stroke:#181818;stroke-width:1.0;"/><line style="stroke:#181818;stroke-width:1.0;stroke-dasharray:2.0,2.0;" x1="94" x2="476" y1="390.125" y2="390.125"/><text fill="#000000" font-family="sans-serif" font-size="13" font-weight="bold" lengthAdjust="spacing" textLength="7" x="106" y="385.2686">9</text><text fill="#000000" font-family="sans-serif" font-size="13" lengthAdjust="spacing" textLength="172" x="117" y="385.2686">informs operation (in)Success</text><!--MD5=[7797e627e66a2617fac76d979a526f6c]
@startuml
'https://plantuml.com/sequence-diagram

autonumber

actor "Center Coordinator" as CC
participant ":System" as S

activate CC
CC->S: Starts the feature of Check and Export Vaccination Statistics
activate S
S- ->CC: Request data(start day, end day)
deactivate S
CC-> S:Types requested data
activate S
S- ->CC: Show the Vaccination Statistics
S- ->CC: Ask the user to export data
deactivate S
CC->S: Selects the answer(ok/cancel)
activate S
alt answer = yes
S- - ->CC: Ask for the name that will be given to the file
deactivate S
CC->S: Types the requested data
activate S
end
activate S
S- -> CC: informs operation (in)Success
deactivate S


@enduml

@startuml

autonumber

actor "Center Coordinator" as CC
participant ":System" as S

activate CC
CC->S: Starts the feature of Check and Export Vaccination Statistics
activate S
S- ->CC: Request data(start day, end day)
deactivate S
CC-> S:Types requested data
activate S
S- ->CC: Show the Vaccination Statistics
S- ->CC: Ask the user to export data
deactivate S
CC->S: Selects the answer(ok/cancel)
activate S
alt answer = yes
S- - ->CC: Ask for the name that will be given to the file
deactivate S
CC->S: Types the requested data
activate S
end
activate S
S- -> CC: informs operation (in)Success
deactivate S


@enduml

PlantUML version 1.2022.4(Sat Apr 09 14:29:17 BST 2022)
(GPL source distribution)
Java Runtime: OpenJDK Runtime Environment
JVM: OpenJDK 64-Bit Server VM
Default Encoding: Cp1252
Language: pt
Country: PT
--></g></svg>