<?xml version="1.0" encoding="UTF-8" standalone="no"?><svg xmlns="http://www.w3.org/2000/svg" xmlns:xlink="http://www.w3.org/1999/xlink" contentStyleType="text/css" height="1010px" preserveAspectRatio="none" style="width:586px;height:1010px;background:#FFFFFF;" version="1.1" viewBox="0 0 586 1010" width="586px" zoomAndPan="magnify"><defs/><g><!--MD5=[02e4b9b7573f1156f41e60aa5b4e25a4]
class Company--><g id="elem_Company"><rect codeLine="3" fill="#F1F1F1" height="65.6094" id="Company" rx="2.5" ry="2.5" style="stroke:#181818;stroke-width:0.5;" width="92" x="61.5" y="330"/><ellipse cx="76.5" cy="346" fill="#ADD1B2" rx="11" ry="11" style="stroke:#181818;stroke-width:1.0;"/><path d="M78.5,342.5 Q78.7031,342 78.9375,341.75 Q79.1719,341.5 79.4375,341.5 Q79.9063,341.5 80.2031,341.7813 Q80.5,342.0625 80.5,342.7188 L80.5,344.2813 Q80.5,344.9375 80.2188,345.2188 Q79.9375,345.5 79.5,345.5 Q79.1094,345.5 78.8594,345.3281 Q78.6094,345.1563 78.5,344.7031 Q78.4531,344.3906 78.2813,344.2188 Q77.9688,343.8906 77.4063,343.7031 Q76.8438,343.5 76.2813,343.5 Q75.5781,343.5 74.9844,343.7813 Q74.4063,344.0625 73.9531,344.6875 Q73.5,345.3125 73.5,346.1719 L73.5,347.0938 Q73.5,348.125 74.3438,348.8125 Q75.1875,349.5 76.6875,349.5 Q77.5781,349.5 78.2031,349.2969 Q78.5625,349.1875 78.9688,348.8281 Q79.2344,348.625 79.375,348.5625 Q79.5156,348.5 79.6875,348.5 Q80.0156,348.5 80.25,348.7656 Q80.5,349.0156 80.5,349.375 Q80.5,349.7188 80.1563,350.125 Q79.6563,350.7188 78.8594,351.0469 Q77.8125,351.5 76.5313,351.5 Q75.0313,351.5 73.8281,350.9063 Q72.8594,350.4375 72.1719,349.4219 Q71.5,348.4063 71.5,347.2031 L71.5,346.1094 Q71.5,344.8594 72.0938,343.7656 Q72.7031,342.6719 73.75,342.0938 Q74.8125,341.5 76,341.5 Q76.7188,341.5 77.3438,341.75 Q77.9688,342 78.5,342.5 Z " fill="#000000"/><text fill="#000000" font-family="sans-serif" font-size="14" lengthAdjust="spacing" textLength="60" x="90.5" y="351.7285">Company</text><line style="stroke:#181818;stroke-width:0.5;" x1="62.5" x2="152.5" y1="362" y2="362"/><rect fill="none" height="6" style="stroke:#C82930;stroke-width:1.0;" width="6" x="69.5" y="370"/><text fill="#000000" font-family="sans-serif" font-size="14" lengthAdjust="spacing" textLength="35" x="81.5" y="380.5332">name</text><line style="stroke:#181818;stroke-width:0.5;" x1="62.5" x2="152.5" y1="387.6094" y2="387.6094"/></g><!--MD5=[72be06cc7ae02ccc98efe28a50e62246]
class SNSUser--><g id="elem_SNSUser"><rect codeLine="7" fill="#F1F1F1" height="188.875" id="SNSUser" rx="2.5" ry="2.5" style="stroke:#181818;stroke-width:0.5;" width="152" x="29.5" y="474"/><ellipse cx="73.3" cy="490" fill="#ADD1B2" rx="11" ry="11" style="stroke:#181818;stroke-width:1.0;"/><path d="M75.3,486.5 Q75.5031,486 75.7375,485.75 Q75.9719,485.5 76.2375,485.5 Q76.7063,485.5 77.0031,485.7813 Q77.3,486.0625 77.3,486.7188 L77.3,488.2813 Q77.3,488.9375 77.0188,489.2188 Q76.7375,489.5 76.3,489.5 Q75.9094,489.5 75.6594,489.3281 Q75.4094,489.1563 75.3,488.7031 Q75.2531,488.3906 75.0813,488.2188 Q74.7688,487.8906 74.2063,487.7031 Q73.6438,487.5 73.0813,487.5 Q72.3781,487.5 71.7844,487.7813 Q71.2063,488.0625 70.7531,488.6875 Q70.3,489.3125 70.3,490.1719 L70.3,491.0938 Q70.3,492.125 71.1438,492.8125 Q71.9875,493.5 73.4875,493.5 Q74.3781,493.5 75.0031,493.2969 Q75.3625,493.1875 75.7688,492.8281 Q76.0344,492.625 76.175,492.5625 Q76.3156,492.5 76.4875,492.5 Q76.8156,492.5 77.05,492.7656 Q77.3,493.0156 77.3,493.375 Q77.3,493.7188 76.9563,494.125 Q76.4563,494.7188 75.6594,495.0469 Q74.6125,495.5 73.3313,495.5 Q71.8313,495.5 70.6281,494.9063 Q69.6594,494.4375 68.9719,493.4219 Q68.3,492.4063 68.3,491.2031 L68.3,490.1094 Q68.3,488.8594 68.8938,487.7656 Q69.5031,486.6719 70.55,486.0938 Q71.6125,485.5 72.8,485.5 Q73.5188,485.5 74.1438,485.75 Q74.7688,486 75.3,486.5 Z " fill="#000000"/><text fill="#000000" font-family="sans-serif" font-size="14" lengthAdjust="spacing" textLength="56" x="93.7" y="495.7285">SNSUser</text><line style="stroke:#181818;stroke-width:0.5;" x1="30.5" x2="180.5" y1="506" y2="506"/><rect fill="none" height="6" style="stroke:#C82930;stroke-width:1.0;" width="6" x="37.5" y="514"/><text fill="#000000" font-family="sans-serif" font-size="14" lengthAdjust="spacing" textLength="35" x="49.5" y="524.5332">name</text><rect fill="none" height="6" style="stroke:#C82930;stroke-width:1.0;" width="6" x="37.5" y="531.6094"/><text fill="#000000" font-family="sans-serif" font-size="14" lengthAdjust="spacing" textLength="21" x="49.5" y="542.1426">sex</text><rect fill="none" height="6" style="stroke:#C82930;stroke-width:1.0;" width="6" x="37.5" y="549.2188"/><text fill="#000000" font-family="sans-serif" font-size="14" lengthAdjust="spacing" textLength="63" x="49.5" y="559.752">Birth Date</text><rect fill="none" height="6" style="stroke:#C82930;stroke-width:1.0;" width="6" x="37.5" y="566.8281"/><text fill="#000000" font-family="sans-serif" font-size="14" lengthAdjust="spacing" textLength="52" x="49.5" y="577.3613">Address</text><rect fill="none" height="6" style="stroke:#C82930;stroke-width:1.0;" width="6" x="37.5" y="584.4375"/><text fill="#000000" font-family="sans-serif" font-size="14" lengthAdjust="spacing" textLength="93" x="49.5" y="594.9707">Phone number</text><rect fill="none" height="6" style="stroke:#C82930;stroke-width:1.0;" width="6" x="37.5" y="602.0469"/><text fill="#000000" font-family="sans-serif" font-size="14" lengthAdjust="spacing" textLength="39" x="49.5" y="612.5801">E-mail</text><rect fill="none" height="6" style="stroke:#C82930;stroke-width:1.0;" width="6" x="37.5" y="619.6563"/><text fill="#000000" font-family="sans-serif" font-size="14" lengthAdjust="spacing" textLength="79" x="49.5" y="630.1895">SNS number</text><rect fill="none" height="6" style="stroke:#C82930;stroke-width:1.0;" width="6" x="37.5" y="637.2656"/><text fill="#000000" font-family="sans-serif" font-size="14" lengthAdjust="spacing" textLength="126" x="49.5" y="647.7988">Citizen card number</text><line style="stroke:#181818;stroke-width:0.5;" x1="30.5" x2="180.5" y1="654.875" y2="654.875"/></g><!--MD5=[5628facc55072381560df56593e20db3]
class SNSUserVaccineSchedule--><g id="elem_SNSUserVaccineSchedule"><rect codeLine="18" fill="#F1F1F1" height="136.0469" id="SNSUserVaccineSchedule" rx="2.5" ry="2.5" style="stroke:#181818;stroke-width:0.5;" width="197" x="7" y="741"/><ellipse cx="22" cy="757" fill="#ADD1B2" rx="11" ry="11" style="stroke:#181818;stroke-width:1.0;"/><path d="M24,753.5 Q24.2031,753 24.4375,752.75 Q24.6719,752.5 24.9375,752.5 Q25.4063,752.5 25.7031,752.7813 Q26,753.0625 26,753.7188 L26,755.2813 Q26,755.9375 25.7188,756.2188 Q25.4375,756.5 25,756.5 Q24.6094,756.5 24.3594,756.3281 Q24.1094,756.1563 24,755.7031 Q23.9531,755.3906 23.7813,755.2188 Q23.4688,754.8906 22.9063,754.7031 Q22.3438,754.5 21.7813,754.5 Q21.0781,754.5 20.4844,754.7813 Q19.9063,755.0625 19.4531,755.6875 Q19,756.3125 19,757.1719 L19,758.0938 Q19,759.125 19.8438,759.8125 Q20.6875,760.5 22.1875,760.5 Q23.0781,760.5 23.7031,760.2969 Q24.0625,760.1875 24.4688,759.8281 Q24.7344,759.625 24.875,759.5625 Q25.0156,759.5 25.1875,759.5 Q25.5156,759.5 25.75,759.7656 Q26,760.0156 26,760.375 Q26,760.7188 25.6563,761.125 Q25.1563,761.7188 24.3594,762.0469 Q23.3125,762.5 22.0313,762.5 Q20.5313,762.5 19.3281,761.9063 Q18.3594,761.4375 17.6719,760.4219 Q17,759.4063 17,758.2031 L17,757.1094 Q17,755.8594 17.5938,754.7656 Q18.2031,753.6719 19.25,753.0938 Q20.3125,752.5 21.5,752.5 Q22.2188,752.5 22.8438,752.75 Q23.4688,753 24,753.5 Z " fill="#000000"/><text fill="#000000" font-family="sans-serif" font-size="14" lengthAdjust="spacing" textLength="165" x="36" y="762.7285">SNSUserVaccineSchedule</text><line style="stroke:#181818;stroke-width:0.5;" x1="8" x2="203" y1="773" y2="773"/><rect fill="none" height="6" style="stroke:#C82930;stroke-width:1.0;" width="6" x="15" y="781"/><text fill="#000000" font-family="sans-serif" font-size="14" lengthAdjust="spacing" textLength="79" x="27" y="791.5332">SNS number</text><rect fill="none" height="6" style="stroke:#C82930;stroke-width:1.0;" width="6" x="15" y="798.6094"/><text fill="#000000" font-family="sans-serif" font-size="14" lengthAdjust="spacing" textLength="120" x="27" y="809.1426">Vaccination Center</text><rect fill="none" height="6" style="stroke:#C82930;stroke-width:1.0;" width="6" x="15" y="816.2188"/><text fill="#000000" font-family="sans-serif" font-size="14" lengthAdjust="spacing" textLength="86" x="27" y="826.752">Vaccine Type</text><rect fill="none" height="6" style="stroke:#C82930;stroke-width:1.0;" width="6" x="15" y="833.8281"/><text fill="#000000" font-family="sans-serif" font-size="14" lengthAdjust="spacing" textLength="25" x="27" y="844.3613">Day</text><rect fill="none" height="6" style="stroke:#C82930;stroke-width:1.0;" width="6" x="15" y="851.4375"/><text fill="#000000" font-family="sans-serif" font-size="14" lengthAdjust="spacing" textLength="30" x="27" y="861.9707">Hour</text><line style="stroke:#181818;stroke-width:0.5;" x1="8" x2="203" y1="869.0469" y2="869.0469"/></g><!--MD5=[a87fd7e31e08e6ee61dd7fb9ab974181]
class VaccinationEvent--><g id="elem_VaccinationEvent"><rect codeLine="26" fill="#F1F1F1" height="48" id="VaccinationEvent" rx="2.5" ry="2.5" style="stroke:#181818;stroke-width:0.5;" width="141" x="35" y="955"/><ellipse cx="50" cy="971" fill="#ADD1B2" rx="11" ry="11" style="stroke:#181818;stroke-width:1.0;"/><path d="M52,967.5 Q52.2031,967 52.4375,966.75 Q52.6719,966.5 52.9375,966.5 Q53.4063,966.5 53.7031,966.7813 Q54,967.0625 54,967.7188 L54,969.2813 Q54,969.9375 53.7188,970.2188 Q53.4375,970.5 53,970.5 Q52.6094,970.5 52.3594,970.3281 Q52.1094,970.1563 52,969.7031 Q51.9531,969.3906 51.7813,969.2188 Q51.4688,968.8906 50.9063,968.7031 Q50.3438,968.5 49.7813,968.5 Q49.0781,968.5 48.4844,968.7813 Q47.9063,969.0625 47.4531,969.6875 Q47,970.3125 47,971.1719 L47,972.0938 Q47,973.125 47.8438,973.8125 Q48.6875,974.5 50.1875,974.5 Q51.0781,974.5 51.7031,974.2969 Q52.0625,974.1875 52.4688,973.8281 Q52.7344,973.625 52.875,973.5625 Q53.0156,973.5 53.1875,973.5 Q53.5156,973.5 53.75,973.7656 Q54,974.0156 54,974.375 Q54,974.7188 53.6563,975.125 Q53.1563,975.7188 52.3594,976.0469 Q51.3125,976.5 50.0313,976.5 Q48.5313,976.5 47.3281,975.9063 Q46.3594,975.4375 45.6719,974.4219 Q45,973.4063 45,972.2031 L45,971.1094 Q45,969.8594 45.5938,968.7656 Q46.2031,967.6719 47.25,967.0938 Q48.3125,966.5 49.5,966.5 Q50.2188,966.5 50.8438,966.75 Q51.4688,967 52,967.5 Z " fill="#000000"/><text fill="#000000" font-family="sans-serif" font-size="14" lengthAdjust="spacing" textLength="109" x="64" y="976.7285">VaccinationEvent</text><line style="stroke:#181818;stroke-width:0.5;" x1="36" x2="175" y1="987" y2="987"/><line style="stroke:#181818;stroke-width:0.5;" x1="36" x2="175" y1="995" y2="995"/></g><!--MD5=[7421f545a0d8420c5bec41e74b387d9c]
class Employee--><g id="elem_Employee"><rect codeLine="29" fill="#F1F1F1" height="136.0469" id="Employee" rx="2.5" ry="2.5" style="stroke:#181818;stroke-width:0.5;" width="152" x="123.5" y="7"/><ellipse cx="164.6" cy="23" fill="#A9DCDF" rx="11" ry="11" style="stroke:#181818;stroke-width:1.0;"/><path d="M166.35,24.5 L163.0531,24.5 L162.6156,25.5 L162.6156,25.5 L163.0844,25.5 L163.6,26.125 L163.6,26.5 L163.6,26.875 L163.0844,27.5 L162.6156,27.5 L160.725,27.5 L160.1156,27.5 L159.6,26.875 L159.6,26.5 L159.6,26.125 L160.1156,25.5 L160.725,25.5 L163.0375,19.5 L162.1625,19.5 L161.1156,19.5 L160.6,18.875 L160.6,18.5 L160.6,18.125 L161.1156,17.5 L162.1625,17.5 L165.8344,17.5 L168.5219,25.5 L169.0844,25.5 L169.0844,25.5 L169.6,26.125 L169.6,26.5 L169.6,26.875 L169.0844,27.5 L168.5219,27.5 L166.6313,27.5 L166.1156,27.5 L165.6,26.875 L165.6,26.5 L165.6,26.125 L166.1156,25.5 L166.6313,25.5 L166.6313,25.5 L166.35,24.5 Z M165.8031,22.5 L164.6,18.9219 L163.5688,22.5 L165.8031,22.5 Z " fill="#000000"/><text fill="#000000" font-family="sans-serif" font-size="14" font-style="italic" lengthAdjust="spacing" textLength="62" x="184.4" y="28.7285">Employee</text><line style="stroke:#181818;stroke-width:0.5;" x1="124.5" x2="274.5" y1="39" y2="39"/><rect fill="none" height="6" style="stroke:#C82930;stroke-width:1.0;" width="6" x="131.5" y="47"/><text fill="#000000" font-family="sans-serif" font-size="14" lengthAdjust="spacing" textLength="36" x="143.5" y="57.5332">Name</text><rect fill="none" height="6" style="stroke:#C82930;stroke-width:1.0;" width="6" x="131.5" y="64.6094"/><text fill="#000000" font-family="sans-serif" font-size="14" lengthAdjust="spacing" textLength="52" x="143.5" y="75.1426">Address</text><rect fill="none" height="6" style="stroke:#C82930;stroke-width:1.0;" width="6" x="131.5" y="82.2188"/><text fill="#000000" font-family="sans-serif" font-size="14" lengthAdjust="spacing" textLength="93" x="143.5" y="92.752">Phone number</text><rect fill="none" height="6" style="stroke:#C82930;stroke-width:1.0;" width="6" x="131.5" y="99.8281"/><text fill="#000000" font-family="sans-serif" font-size="14" lengthAdjust="spacing" textLength="39" x="143.5" y="110.3613">E-mail</text><rect fill="none" height="6" style="stroke:#C82930;stroke-width:1.0;" width="6" x="131.5" y="117.4375"/><text fill="#000000" font-family="sans-serif" font-size="14" lengthAdjust="spacing" textLength="126" x="143.5" y="127.9707">Citizen card number</text><line style="stroke:#181818;stroke-width:0.5;" x1="124.5" x2="274.5" y1="135.0469" y2="135.0469"/></g><!--MD5=[1db03e903fe0a044a2ca0dcbef10799a]
class HealthCareCenter--><g id="elem_HealthCareCenter"><rect codeLine="36" fill="#F1F1F1" height="65.6094" id="HealthCareCenter" rx="2.5" ry="2.5" style="stroke:#181818;stroke-width:0.5;" width="146" x="216.5" y="535.5"/><ellipse cx="231.5" cy="551.5" fill="#ADD1B2" rx="11" ry="11" style="stroke:#181818;stroke-width:1.0;"/><path d="M233.5,548 Q233.7031,547.5 233.9375,547.25 Q234.1719,547 234.4375,547 Q234.9063,547 235.2031,547.2813 Q235.5,547.5625 235.5,548.2188 L235.5,549.7813 Q235.5,550.4375 235.2188,550.7188 Q234.9375,551 234.5,551 Q234.1094,551 233.8594,550.8281 Q233.6094,550.6563 233.5,550.2031 Q233.4531,549.8906 233.2813,549.7188 Q232.9688,549.3906 232.4063,549.2031 Q231.8438,549 231.2813,549 Q230.5781,549 229.9844,549.2813 Q229.4063,549.5625 228.9531,550.1875 Q228.5,550.8125 228.5,551.6719 L228.5,552.5938 Q228.5,553.625 229.3438,554.3125 Q230.1875,555 231.6875,555 Q232.5781,555 233.2031,554.7969 Q233.5625,554.6875 233.9688,554.3281 Q234.2344,554.125 234.375,554.0625 Q234.5156,554 234.6875,554 Q235.0156,554 235.25,554.2656 Q235.5,554.5156 235.5,554.875 Q235.5,555.2188 235.1563,555.625 Q234.6563,556.2188 233.8594,556.5469 Q232.8125,557 231.5313,557 Q230.0313,557 228.8281,556.4063 Q227.8594,555.9375 227.1719,554.9219 Q226.5,553.9063 226.5,552.7031 L226.5,551.6094 Q226.5,550.3594 227.0938,549.2656 Q227.7031,548.1719 228.75,547.5938 Q229.8125,547 231,547 Q231.7188,547 232.3438,547.25 Q232.9688,547.5 233.5,548 Z " fill="#000000"/><text fill="#000000" font-family="sans-serif" font-size="14" lengthAdjust="spacing" textLength="114" x="245.5" y="557.2285">HealthCareCenter</text><line style="stroke:#181818;stroke-width:0.5;" x1="217.5" x2="361.5" y1="567.5" y2="567.5"/><rect fill="none" height="6" style="stroke:#C82930;stroke-width:1.0;" width="6" x="224.5" y="575.5"/><text fill="#000000" font-family="sans-serif" font-size="14" lengthAdjust="spacing" textLength="72" x="236.5" y="586.0332">ARG/AGES</text><line style="stroke:#181818;stroke-width:0.5;" x1="217.5" x2="361.5" y1="593.1094" y2="593.1094"/></g><!--MD5=[de60e6d4f424ae4d0522096f76a59010]
class VaccinationCenter--><g id="elem_VaccinationCenter"><rect fill="#F1F1F1" height="48" id="VaccinationCenter" rx="2.5" ry="2.5" style="stroke:#181818;stroke-width:0.5;" width="148" x="215.5" y="339"/><ellipse cx="230.5" cy="355" fill="#ADD1B2" rx="11" ry="11" style="stroke:#181818;stroke-width:1.0;"/><path d="M232.5,351.5 Q232.7031,351 232.9375,350.75 Q233.1719,350.5 233.4375,350.5 Q233.9063,350.5 234.2031,350.7813 Q234.5,351.0625 234.5,351.7188 L234.5,353.2813 Q234.5,353.9375 234.2188,354.2188 Q233.9375,354.5 233.5,354.5 Q233.1094,354.5 232.8594,354.3281 Q232.6094,354.1563 232.5,353.7031 Q232.4531,353.3906 232.2813,353.2188 Q231.9688,352.8906 231.4063,352.7031 Q230.8438,352.5 230.2813,352.5 Q229.5781,352.5 228.9844,352.7813 Q228.4063,353.0625 227.9531,353.6875 Q227.5,354.3125 227.5,355.1719 L227.5,356.0938 Q227.5,357.125 228.3438,357.8125 Q229.1875,358.5 230.6875,358.5 Q231.5781,358.5 232.2031,358.2969 Q232.5625,358.1875 232.9688,357.8281 Q233.2344,357.625 233.375,357.5625 Q233.5156,357.5 233.6875,357.5 Q234.0156,357.5 234.25,357.7656 Q234.5,358.0156 234.5,358.375 Q234.5,358.7188 234.1563,359.125 Q233.6563,359.7188 232.8594,360.0469 Q231.8125,360.5 230.5313,360.5 Q229.0313,360.5 227.8281,359.9063 Q226.8594,359.4375 226.1719,358.4219 Q225.5,357.4063 225.5,356.2031 L225.5,355.1094 Q225.5,353.8594 226.0938,352.7656 Q226.7031,351.6719 227.75,351.0938 Q228.8125,350.5 230,350.5 Q230.7188,350.5 231.3438,350.75 Q231.9688,351 232.5,351.5 Z " fill="#000000"/><text fill="#000000" font-family="sans-serif" font-size="14" lengthAdjust="spacing" textLength="116" x="244.5" y="360.7285">VaccinationCenter</text><line style="stroke:#181818;stroke-width:0.5;" x1="216.5" x2="362.5" y1="371" y2="371"/><line style="stroke:#181818;stroke-width:0.5;" x1="216.5" x2="362.5" y1="379" y2="379"/></g><!--MD5=[76480a6701b5d2883bc606a2560c3cfe]
class MassVaccinationCenter--><g id="elem_MassVaccinationCenter"><rect codeLine="39" fill="#F1F1F1" height="65.6094" id="MassVaccinationCenter" rx="2.5" ry="2.5" style="stroke:#181818;stroke-width:0.5;" width="181" x="398" y="535.5"/><ellipse cx="413" cy="551.5" fill="#ADD1B2" rx="11" ry="11" style="stroke:#181818;stroke-width:1.0;"/><path d="M415,548 Q415.2031,547.5 415.4375,547.25 Q415.6719,547 415.9375,547 Q416.4063,547 416.7031,547.2813 Q417,547.5625 417,548.2188 L417,549.7813 Q417,550.4375 416.7188,550.7188 Q416.4375,551 416,551 Q415.6094,551 415.3594,550.8281 Q415.1094,550.6563 415,550.2031 Q414.9531,549.8906 414.7813,549.7188 Q414.4688,549.3906 413.9063,549.2031 Q413.3438,549 412.7813,549 Q412.0781,549 411.4844,549.2813 Q410.9063,549.5625 410.4531,550.1875 Q410,550.8125 410,551.6719 L410,552.5938 Q410,553.625 410.8438,554.3125 Q411.6875,555 413.1875,555 Q414.0781,555 414.7031,554.7969 Q415.0625,554.6875 415.4688,554.3281 Q415.7344,554.125 415.875,554.0625 Q416.0156,554 416.1875,554 Q416.5156,554 416.75,554.2656 Q417,554.5156 417,554.875 Q417,555.2188 416.6563,555.625 Q416.1563,556.2188 415.3594,556.5469 Q414.3125,557 413.0313,557 Q411.5313,557 410.3281,556.4063 Q409.3594,555.9375 408.6719,554.9219 Q408,553.9063 408,552.7031 L408,551.6094 Q408,550.3594 408.5938,549.2656 Q409.2031,548.1719 410.25,547.5938 Q411.3125,547 412.5,547 Q413.2188,547 413.8438,547.25 Q414.4688,547.5 415,548 Z " fill="#000000"/><text fill="#000000" font-family="sans-serif" font-size="14" lengthAdjust="spacing" textLength="149" x="427" y="557.2285">MassVaccinationCenter</text><line style="stroke:#181818;stroke-width:0.5;" x1="399" x2="578" y1="567.5" y2="567.5"/><rect fill="none" height="6" style="stroke:#C82930;stroke-width:1.0;" width="6" x="406" y="575.5"/><text fill="#000000" font-family="sans-serif" font-size="14" lengthAdjust="spacing" textLength="82" x="418" y="586.0332">VaccineType</text><line style="stroke:#181818;stroke-width:0.5;" x1="399" x2="578" y1="593.1094" y2="593.1094"/></g><!--MD5=[2d935fd2dd068a13da1ae531f9857c4f]
class CenterCoordinator--><g id="elem_CenterCoordinator"><rect codeLine="42" fill="#F1F1F1" height="48" id="CenterCoordinator" rx="2.5" ry="2.5" style="stroke:#181818;stroke-width:0.5;" width="150" x="124.5" y="204"/><ellipse cx="139.5" cy="220" fill="#ADD1B2" rx="11" ry="11" style="stroke:#181818;stroke-width:1.0;"/><path d="M141.5,216.5 Q141.7031,216 141.9375,215.75 Q142.1719,215.5 142.4375,215.5 Q142.9063,215.5 143.2031,215.7813 Q143.5,216.0625 143.5,216.7188 L143.5,218.2813 Q143.5,218.9375 143.2188,219.2188 Q142.9375,219.5 142.5,219.5 Q142.1094,219.5 141.8594,219.3281 Q141.6094,219.1563 141.5,218.7031 Q141.4531,218.3906 141.2813,218.2188 Q140.9688,217.8906 140.4063,217.7031 Q139.8438,217.5 139.2813,217.5 Q138.5781,217.5 137.9844,217.7813 Q137.4063,218.0625 136.9531,218.6875 Q136.5,219.3125 136.5,220.1719 L136.5,221.0938 Q136.5,222.125 137.3438,222.8125 Q138.1875,223.5 139.6875,223.5 Q140.5781,223.5 141.2031,223.2969 Q141.5625,223.1875 141.9688,222.8281 Q142.2344,222.625 142.375,222.5625 Q142.5156,222.5 142.6875,222.5 Q143.0156,222.5 143.25,222.7656 Q143.5,223.0156 143.5,223.375 Q143.5,223.7188 143.1563,224.125 Q142.6563,224.7188 141.8594,225.0469 Q140.8125,225.5 139.5313,225.5 Q138.0313,225.5 136.8281,224.9063 Q135.8594,224.4375 135.1719,223.4219 Q134.5,222.4063 134.5,221.2031 L134.5,220.1094 Q134.5,218.8594 135.0938,217.7656 Q135.7031,216.6719 136.75,216.0938 Q137.8125,215.5 139,215.5 Q139.7188,215.5 140.3438,215.75 Q140.9688,216 141.5,216.5 Z " fill="#000000"/><text fill="#000000" font-family="sans-serif" font-size="14" lengthAdjust="spacing" textLength="118" x="153.5" y="225.7285">CenterCoordinator</text><line style="stroke:#181818;stroke-width:0.5;" x1="125.5" x2="273.5" y1="236" y2="236"/><line style="stroke:#181818;stroke-width:0.5;" x1="125.5" x2="273.5" y1="244" y2="244"/></g><!--MD5=[4d7f47162e377c4884c583baac9698b3]
reverse link VaccinationCenter to HealthCareCenter--><g id="link_VaccinationCenter_HealthCareCenter"><path d="M289.5,407.48 C289.5,445.86 289.5,500.93 289.5,535.43 " fill="none" id="VaccinationCenter-backto-HealthCareCenter" style="stroke:#181818;stroke-width:1.0;"/><polygon fill="none" points="282.5,407.34,289.5,387.34,296.5,407.34,282.5,407.34" style="stroke:#181818;stroke-width:1.0;"/></g><!--MD5=[a09fc339ad85d4e67aa3195beeccb7d9]
reverse link VaccinationCenter to MassVaccinationCenter--><g id="link_VaccinationCenter_MassVaccinationCenter"><path d="M326.38,401.71 C363.97,440.16 421.67,499.16 457.14,535.43 " fill="none" id="VaccinationCenter-backto-MassVaccinationCenter" style="stroke:#181818;stroke-width:1.0;"/><polygon fill="none" points="321.31,406.54,312.33,387.34,331.32,396.75,321.31,406.54" style="stroke:#181818;stroke-width:1.0;"/></g><!--MD5=[98f7f3dc8d9719d04ad14614c4ea123f]
reverse link Employee to CenterCoordinator--><g id="link_Employee_CenterCoordinator"><path d="M199.5,163.29 C199.5,178.24 199.5,192.56 199.5,203.82 " fill="none" id="Employee-backto-CenterCoordinator" style="stroke:#181818;stroke-width:1.0;"/><polygon fill="none" points="192.5,163.11,199.5,143.11,206.5,163.11,192.5,163.11" style="stroke:#181818;stroke-width:1.0;"/></g><!--MD5=[0c362e058b245eb7048c06c3315de318]
link SNSUser to SNSUserVaccineSchedule--><g id="link_SNSUser_SNSUserVaccineSchedule"><path codeLine="47" d="M105.5,663.08 C105.5,689.05 105.5,716.72 105.5,740.85 " fill="none" id="SNSUser-SNSUserVaccineSchedule" style="stroke:#181818;stroke-width:1.0;"/><polygon fill="#000000" points="110.5,707.1758,113.4389,698.1307,107.5611,698.1307,110.5,707.1758" style="stroke:#000000;stroke-width:1.0;"/><text fill="#000000" font-family="sans-serif" font-size="13" lengthAdjust="spacing" textLength="70" x="119.5" y="707.4951">can shedule</text><text fill="#000000" font-family="sans-serif" font-size="13" lengthAdjust="spacing" textLength="20" x="84.7344" y="684.4471">1..*</text><text fill="#000000" font-family="sans-serif" font-size="13" lengthAdjust="spacing" textLength="20" x="84.4063" y="730.0329">1..*</text></g><!--MD5=[689a6b220a40aadd620d4cf0d1475c3a]
link SNSUserVaccineSchedule to VaccinationEvent--><g id="link_SNSUserVaccineSchedule_VaccinationEvent"><path codeLine="48" d="M105.5,877.36 C105.5,904.75 105.5,934.59 105.5,954.61 " fill="none" id="SNSUserVaccineSchedule-VaccinationEvent" style="stroke:#181818;stroke-width:1.0;"/><polygon fill="#000000" points="110.5,921.1758,113.4389,912.1307,107.5611,912.1307,110.5,921.1758" style="stroke:#000000;stroke-width:1.0;"/><text fill="#000000" font-family="sans-serif" font-size="13" lengthAdjust="spacing" textLength="45" x="119.5" y="921.4951">fullfilling</text><text fill="#000000" font-family="sans-serif" font-size="13" lengthAdjust="spacing" textLength="7" x="98.1391" y="898.7455">1</text><text fill="#000000" font-family="sans-serif" font-size="13" lengthAdjust="spacing" textLength="7" x="97.6469" y="944.2529">1</text></g><!--MD5=[1a8aa2b864b87f860d28abceaa28b7a5]
link Company to SNSUser--><g id="link_Company_SNSUser"><path codeLine="49" d="M107.18,396.25 C106.98,417.31 106.69,446 106.42,473.87 " fill="none" id="Company-SNSUser" style="stroke:#181818;stroke-width:1.0;"/><polygon fill="#000000" points="112.451,440.1755,115.4784,431.1597,109.6008,431.1021,112.451,440.1755" style="stroke:#000000;stroke-width:1.0;"/><text fill="#000000" font-family="sans-serif" font-size="13" lengthAdjust="spacing" textLength="21" x="121.5" y="440.4951">has</text><text fill="#000000" font-family="sans-serif" font-size="13" lengthAdjust="spacing" textLength="7" x="99.4996" y="417.1589">1</text><text fill="#000000" font-family="sans-serif" font-size="13" lengthAdjust="spacing" textLength="5" x="101.2941" y="463.2058">*</text></g><!--MD5=[d5cf03d886352995267197dc535618ec]
link CenterCoordinator to VaccinationCenter--><g id="link_CenterCoordinator_VaccinationCenter"><path codeLine="50" d="M224.82,252.13 C233.62,260.95 243.11,271.43 250.5,282 C262.98,299.86 273.54,322.31 280.51,338.88 " fill="none" id="CenterCoordinator-VaccinationCenter" style="stroke:#181818;stroke-width:1.0;"/><polygon fill="#000000" points="269.2011,295.3834,266.7879,286.1841,261.8416,289.3594,269.2011,295.3834" style="stroke:#000000;stroke-width:1.0;"/><text fill="#000000" font-family="sans-serif" font-size="13" lengthAdjust="spacing" textLength="84" x="275.5" y="296.4951">responsible for</text><text fill="#000000" font-family="sans-serif" font-size="13" lengthAdjust="spacing" textLength="7" x="223.1386" y="273.4997">1</text><text fill="#000000" font-family="sans-serif" font-size="13" lengthAdjust="spacing" textLength="7" x="270.3094" y="328.1894">1</text></g><!--MD5=[96b780800fd67c3bd7a45a9497409787]
link CenterCoordinator to Company--><g id="link_CenterCoordinator_Company"><path codeLine="51" d="M134.11,252.16 C121.51,259.69 109.94,269.46 102.5,282 C94.12,296.12 94.53,314.22 97.4,329.63 " fill="none" id="CenterCoordinator-Company" style="stroke:#181818;stroke-width:1.0;"/><polygon fill="#000000" points="105.3589,295.6942,111.888,288.7788,106.5763,286.2618,105.3589,295.6942" style="stroke:#000000;stroke-width:1.0;"/><text fill="#000000" font-family="sans-serif" font-size="13" lengthAdjust="spacing" textLength="125" x="116.5" y="296.4951">elaborate relatories to</text><text fill="#000000" font-family="sans-serif" font-size="13" lengthAdjust="spacing" textLength="7" x="110.3181" y="273.537">1</text><text fill="#000000" font-family="sans-serif" font-size="13" lengthAdjust="spacing" textLength="20" x="73.4428" y="319.0535">1..*</text></g><!--MD5=[365ff630f9f838a80248091f1b038ffe]
link VaccinationCenter to SNSUser--><g id="link_VaccinationCenter_SNSUser"><path codeLine="52" d="M261.26,387.12 C248.09,398.37 232.5,412.38 219.5,426 C205.23,440.95 190.81,457.51 177.23,473.88 " fill="none" id="VaccinationCenter-SNSUser" style="stroke:#181818;stroke-width:1.0;"/><polygon fill="#000000" points="221.0214,438.7674,229.4253,434.3148,225.2031,430.2255,221.0214,438.7674" style="stroke:#000000;stroke-width:1.0;"/><text fill="#000000" font-family="sans-serif" font-size="13" lengthAdjust="spacing" textLength="47" x="233.5" y="440.4951">recieves</text><text fill="#000000" font-family="sans-serif" font-size="13" lengthAdjust="spacing" textLength="20" x="231.939" y="408.4872">1..*</text><text fill="#000000" font-family="sans-serif" font-size="13" lengthAdjust="spacing" textLength="20" x="162.1491" y="463.2166">1..*</text></g><!--MD5=[bab8880042299af054acd5909d415bd0]
@startuml
'https://plantuml.com/sequence-diagram

class Company {
-name
}

class SNSUser {
-name
-sex
-Birth Date
-Address
-Phone number
-E-mail
-SNS number
-Citizen card number
}

class SNSUserVaccineSchedule {
- SNS number
- Vaccination Center
- Vaccine Type
- Day
- Hour
}

class VaccinationEvent{
}

abstract Employee {
-Name
-Address
-Phone number
-E-mail
-Citizen card number
}
class HealthCareCenter extends VaccinationCenter{
-ARG/AGES
}
class MassVaccinationCenter extends VaccinationCenter{
-VaccineType
}
class CenterCoordinator extends Employee




SNSUser "1..*" - - "1..*" SNSUserVaccineSchedule : can shedule >
SNSUserVaccineSchedule "1" - - "1" VaccinationEvent : fullfilling >
Company "1" - - "*" SNSUser : has >
CenterCoordinator "1" - - "1" VaccinationCenter : responsible for >
CenterCoordinator "1" - - "1..*" Company : elaborate relatories to >
VaccinationCenter "1..*" - - "1..*" SNSUser : recieves >





@enduml

@startuml

class Company {
-name
}

class SNSUser {
-name
-sex
-Birth Date
-Address
-Phone number
-E-mail
-SNS number
-Citizen card number
}

class SNSUserVaccineSchedule {
- SNS number
- Vaccination Center
- Vaccine Type
- Day
- Hour
}

class VaccinationEvent{
}

abstract Employee {
-Name
-Address
-Phone number
-E-mail
-Citizen card number
}
class HealthCareCenter extends VaccinationCenter{
-ARG/AGES
}
class MassVaccinationCenter extends VaccinationCenter{
-VaccineType
}
class CenterCoordinator extends Employee




SNSUser "1..*" - - "1..*" SNSUserVaccineSchedule : can shedule >
SNSUserVaccineSchedule "1" - - "1" VaccinationEvent : fullfilling >
Company "1" - - "*" SNSUser : has >
CenterCoordinator "1" - - "1" VaccinationCenter : responsible for >
CenterCoordinator "1" - - "1..*" Company : elaborate relatories to >
VaccinationCenter "1..*" - - "1..*" SNSUser : recieves >





@enduml

PlantUML version 1.2022.4(Sat Apr 09 14:29:17 BST 2022)
(GPL source distribution)
Java Runtime: OpenJDK Runtime Environment
JVM: OpenJDK 64-Bit Server VM
Default Encoding: Cp1252
Language: pt
Country: PT
--></g></svg>