<?xml version="1.0" encoding="UTF-8" standalone="no"?><svg xmlns="http://www.w3.org/2000/svg" xmlns:xlink="http://www.w3.org/1999/xlink" contentStyleType="text/css" height="622px" preserveAspectRatio="none" style="width:614px;height:622px;background:#FFFFFF;" version="1.1" viewBox="0 0 614 622" width="614px" zoomAndPan="magnify"><defs/><g><!--MD5=[c83fedea286ad617fcddfa50cfbf3c46]
class ListEmployeesUI--><g id="elem_ListEmployeesUI"><rect codeLine="4" fill="#F1F1F1" height="48" id="ListEmployeesUI" rx="2.5" ry="2.5" style="stroke:#181818;stroke-width:0.5;" width="135" x="84" y="7"/><ellipse cx="99" cy="23" fill="#ADD1B2" rx="11" ry="11" style="stroke:#181818;stroke-width:1.0;"/><path d="M101,19.5 Q101.2031,19 101.4375,18.75 Q101.6719,18.5 101.9375,18.5 Q102.4063,18.5 102.7031,18.7813 Q103,19.0625 103,19.7188 L103,21.2813 Q103,21.9375 102.7188,22.2188 Q102.4375,22.5 102,22.5 Q101.6094,22.5 101.3594,22.3281 Q101.1094,22.1563 101,21.7031 Q100.9531,21.3906 100.7813,21.2188 Q100.4688,20.8906 99.9063,20.7031 Q99.3438,20.5 98.7813,20.5 Q98.0781,20.5 97.4844,20.7813 Q96.9063,21.0625 96.4531,21.6875 Q96,22.3125 96,23.1719 L96,24.0938 Q96,25.125 96.8438,25.8125 Q97.6875,26.5 99.1875,26.5 Q100.0781,26.5 100.7031,26.2969 Q101.0625,26.1875 101.4688,25.8281 Q101.7344,25.625 101.875,25.5625 Q102.0156,25.5 102.1875,25.5 Q102.5156,25.5 102.75,25.7656 Q103,26.0156 103,26.375 Q103,26.7188 102.6563,27.125 Q102.1563,27.7188 101.3594,28.0469 Q100.3125,28.5 99.0313,28.5 Q97.5313,28.5 96.3281,27.9063 Q95.3594,27.4375 94.6719,26.4219 Q94,25.4063 94,24.2031 L94,23.1094 Q94,21.8594 94.5938,20.7656 Q95.2031,19.6719 96.25,19.0938 Q97.3125,18.5 98.5,18.5 Q99.2188,18.5 99.8438,18.75 Q100.4688,19 101,19.5 Z " fill="#000000"/><text fill="#000000" font-family="sans-serif" font-size="14" lengthAdjust="spacing" textLength="103" x="113" y="28.7285">ListEmployeesUI</text><line style="stroke:#181818;stroke-width:0.5;" x1="85" x2="218" y1="39" y2="39"/><line style="stroke:#181818;stroke-width:0.5;" x1="85" x2="218" y1="47" y2="47"/></g><!--MD5=[c965f96328c76f4a67994668cc18633e]
class ListEmployeesController--><g id="elem_ListEmployeesController"><rect codeLine="6" fill="#F1F1F1" height="65.6094" id="ListEmployeesController" rx="2.5" ry="2.5" style="stroke:#181818;stroke-width:0.5;" width="289" x="7" y="116"/><ellipse cx="70.75" cy="132" fill="#ADD1B2" rx="11" ry="11" style="stroke:#181818;stroke-width:1.0;"/><path d="M72.75,128.5 Q72.9531,128 73.1875,127.75 Q73.4219,127.5 73.6875,127.5 Q74.1563,127.5 74.4531,127.7813 Q74.75,128.0625 74.75,128.7188 L74.75,130.2813 Q74.75,130.9375 74.4688,131.2188 Q74.1875,131.5 73.75,131.5 Q73.3594,131.5 73.1094,131.3281 Q72.8594,131.1563 72.75,130.7031 Q72.7031,130.3906 72.5313,130.2188 Q72.2188,129.8906 71.6563,129.7031 Q71.0938,129.5 70.5313,129.5 Q69.8281,129.5 69.2344,129.7813 Q68.6563,130.0625 68.2031,130.6875 Q67.75,131.3125 67.75,132.1719 L67.75,133.0938 Q67.75,134.125 68.5938,134.8125 Q69.4375,135.5 70.9375,135.5 Q71.8281,135.5 72.4531,135.2969 Q72.8125,135.1875 73.2188,134.8281 Q73.4844,134.625 73.625,134.5625 Q73.7656,134.5 73.9375,134.5 Q74.2656,134.5 74.5,134.7656 Q74.75,135.0156 74.75,135.375 Q74.75,135.7188 74.4063,136.125 Q73.9063,136.7188 73.1094,137.0469 Q72.0625,137.5 70.7813,137.5 Q69.2813,137.5 68.0781,136.9063 Q67.1094,136.4375 66.4219,135.4219 Q65.75,134.4063 65.75,133.2031 L65.75,132.1094 Q65.75,130.8594 66.3438,129.7656 Q66.9531,128.6719 68,128.0938 Q69.0625,127.5 70.25,127.5 Q70.9688,127.5 71.5938,127.75 Q72.2188,128 72.75,128.5 Z " fill="#000000"/><text fill="#000000" font-family="sans-serif" font-size="14" lengthAdjust="spacing" textLength="153" x="91.25" y="137.7285">ListEmployeesController</text><line style="stroke:#181818;stroke-width:0.5;" x1="8" x2="295" y1="148" y2="148"/><line style="stroke:#181818;stroke-width:0.5;" x1="8" x2="295" y1="156" y2="156"/><ellipse cx="18" cy="167" fill="#84BE84" rx="3" ry="3" style="stroke:#038048;stroke-width:1.0;"/><text fill="#000000" font-family="sans-serif" font-size="14" lengthAdjust="spacing" textLength="263" x="27" y="174.5332">getEmployeeWithWantedRole(role, index)</text></g><!--MD5=[4911afb31639b3e5a6b8e8b5d594dea9]
class ListEmployees--><g id="elem_ListEmployees"><rect codeLine="10" fill="#F1F1F1" height="65.6094" id="ListEmployees" rx="2.5" ry="2.5" style="stroke:#181818;stroke-width:0.5;" width="289" x="7" y="243"/><ellipse cx="101.75" cy="259" fill="#ADD1B2" rx="11" ry="11" style="stroke:#181818;stroke-width:1.0;"/><path d="M103.75,255.5 Q103.9531,255 104.1875,254.75 Q104.4219,254.5 104.6875,254.5 Q105.1563,254.5 105.4531,254.7813 Q105.75,255.0625 105.75,255.7188 L105.75,257.2813 Q105.75,257.9375 105.4688,258.2188 Q105.1875,258.5 104.75,258.5 Q104.3594,258.5 104.1094,258.3281 Q103.8594,258.1563 103.75,257.7031 Q103.7031,257.3906 103.5313,257.2188 Q103.2188,256.8906 102.6563,256.7031 Q102.0938,256.5 101.5313,256.5 Q100.8281,256.5 100.2344,256.7813 Q99.6563,257.0625 99.2031,257.6875 Q98.75,258.3125 98.75,259.1719 L98.75,260.0938 Q98.75,261.125 99.5938,261.8125 Q100.4375,262.5 101.9375,262.5 Q102.8281,262.5 103.4531,262.2969 Q103.8125,262.1875 104.2188,261.8281 Q104.4844,261.625 104.625,261.5625 Q104.7656,261.5 104.9375,261.5 Q105.2656,261.5 105.5,261.7656 Q105.75,262.0156 105.75,262.375 Q105.75,262.7188 105.4063,263.125 Q104.9063,263.7188 104.1094,264.0469 Q103.0625,264.5 101.7813,264.5 Q100.2813,264.5 99.0781,263.9063 Q98.1094,263.4375 97.4219,262.4219 Q96.75,261.4063 96.75,260.2031 L96.75,259.1094 Q96.75,257.8594 97.3438,256.7656 Q97.9531,255.6719 99,255.0938 Q100.0625,254.5 101.25,254.5 Q101.9688,254.5 102.5938,254.75 Q103.2188,255 103.75,255.5 Z " fill="#000000"/><text fill="#000000" font-family="sans-serif" font-size="14" lengthAdjust="spacing" textLength="91" x="122.25" y="264.7285">ListEmployees</text><line style="stroke:#181818;stroke-width:0.5;" x1="8" x2="295" y1="275" y2="275"/><line style="stroke:#181818;stroke-width:0.5;" x1="8" x2="295" y1="283" y2="283"/><ellipse cx="18" cy="294" fill="#84BE84" rx="3" ry="3" style="stroke:#038048;stroke-width:1.0;"/><text fill="#000000" font-family="sans-serif" font-size="14" lengthAdjust="spacing" textLength="263" x="27" y="301.5332">getEmployeeWithWantedRole(role, index)</text></g><!--MD5=[02e4b9b7573f1156f41e60aa5b4e25a4]
class Company--><g id="elem_Company"><rect codeLine="14" fill="#F1F1F1" height="118.4375" id="Company" rx="2.5" ry="2.5" style="stroke:#181818;stroke-width:0.5;" width="182" x="60.5" y="379"/><ellipse cx="117.25" cy="395" fill="#ADD1B2" rx="11" ry="11" style="stroke:#181818;stroke-width:1.0;"/><path d="M119.25,391.5 Q119.4531,391 119.6875,390.75 Q119.9219,390.5 120.1875,390.5 Q120.6563,390.5 120.9531,390.7813 Q121.25,391.0625 121.25,391.7188 L121.25,393.2813 Q121.25,393.9375 120.9688,394.2188 Q120.6875,394.5 120.25,394.5 Q119.8594,394.5 119.6094,394.3281 Q119.3594,394.1563 119.25,393.7031 Q119.2031,393.3906 119.0313,393.2188 Q118.7188,392.8906 118.1563,392.7031 Q117.5938,392.5 117.0313,392.5 Q116.3281,392.5 115.7344,392.7813 Q115.1563,393.0625 114.7031,393.6875 Q114.25,394.3125 114.25,395.1719 L114.25,396.0938 Q114.25,397.125 115.0938,397.8125 Q115.9375,398.5 117.4375,398.5 Q118.3281,398.5 118.9531,398.2969 Q119.3125,398.1875 119.7188,397.8281 Q119.9844,397.625 120.125,397.5625 Q120.2656,397.5 120.4375,397.5 Q120.7656,397.5 121,397.7656 Q121.25,398.0156 121.25,398.375 Q121.25,398.7188 120.9063,399.125 Q120.4063,399.7188 119.6094,400.0469 Q118.5625,400.5 117.2813,400.5 Q115.7813,400.5 114.5781,399.9063 Q113.6094,399.4375 112.9219,398.4219 Q112.25,397.4063 112.25,396.2031 L112.25,395.1094 Q112.25,393.8594 112.8438,392.7656 Q113.4531,391.6719 114.5,391.0938 Q115.5625,390.5 116.75,390.5 Q117.4688,390.5 118.0938,390.75 Q118.7188,391 119.25,391.5 Z " fill="#000000"/><text fill="#000000" font-family="sans-serif" font-size="14" lengthAdjust="spacing" textLength="60" x="137.75" y="400.7285">Company</text><line style="stroke:#181818;stroke-width:0.5;" x1="61.5" x2="241.5" y1="411" y2="411"/><rect fill="none" height="6" style="stroke:#C82930;stroke-width:1.0;" width="6" x="68.5" y="419"/><text fill="#000000" font-family="sans-serif" font-size="14" lengthAdjust="spacing" textLength="73" x="80.5" y="429.5332">designation</text><line style="stroke:#181818;stroke-width:0.5;" x1="61.5" x2="241.5" y1="436.6094" y2="436.6094"/><ellipse cx="71.5" cy="447.6094" fill="#84BE84" rx="3" ry="3" style="stroke:#038048;stroke-width:1.0;"/><text fill="#000000" font-family="sans-serif" font-size="14" lengthAdjust="spacing" textLength="125" x="80.5" y="455.1426">getEmployee(index)</text><ellipse cx="71.5" cy="465.2188" fill="#84BE84" rx="3" ry="3" style="stroke:#038048;stroke-width:1.0;"/><text fill="#000000" font-family="sans-serif" font-size="14" lengthAdjust="spacing" textLength="121" x="80.5" y="472.752">getEmployeesList()</text><ellipse cx="71.5" cy="482.8281" fill="#84BE84" rx="3" ry="3" style="stroke:#038048;stroke-width:1.0;"/><text fill="#000000" font-family="sans-serif" font-size="14" lengthAdjust="spacing" textLength="156" x="80.5" y="490.3613">verifyIfExistsEmployees()</text></g><!--MD5=[7421f545a0d8420c5bec41e74b387d9c]
class Employee--><g id="elem_Employee"><rect codeLine="21" fill="#F1F1F1" height="136.0469" id="Employee" rx="2.5" ry="2.5" style="stroke:#181818;stroke-width:0.5;" width="149" x="313" y="370"/><ellipse cx="352.75" cy="386" fill="#A9DCDF" rx="11" ry="11" style="stroke:#181818;stroke-width:1.0;"/><path d="M354.5,387.5 L351.2031,387.5 L350.7656,388.5 L350.7656,388.5 L351.2344,388.5 L351.75,389.125 L351.75,389.5 L351.75,389.875 L351.2344,390.5 L350.7656,390.5 L348.875,390.5 L348.2656,390.5 L347.75,389.875 L347.75,389.5 L347.75,389.125 L348.2656,388.5 L348.875,388.5 L351.1875,382.5 L350.3125,382.5 L349.2656,382.5 L348.75,381.875 L348.75,381.5 L348.75,381.125 L349.2656,380.5 L350.3125,380.5 L353.9844,380.5 L356.6719,388.5 L357.2344,388.5 L357.2344,388.5 L357.75,389.125 L357.75,389.5 L357.75,389.875 L357.2344,390.5 L356.6719,390.5 L354.7813,390.5 L354.2656,390.5 L353.75,389.875 L353.75,389.5 L353.75,389.125 L354.2656,388.5 L354.7813,388.5 L354.7813,388.5 L354.5,387.5 Z M353.9531,385.5 L352.75,381.9219 L351.7188,385.5 L353.9531,385.5 Z " fill="#000000"/><text fill="#000000" font-family="sans-serif" font-size="14" font-style="italic" lengthAdjust="spacing" textLength="62" x="372.25" y="391.7285">Employee</text><line style="stroke:#181818;stroke-width:0.5;" x1="314" x2="461" y1="402" y2="402"/><rect fill="none" height="6" style="stroke:#C82930;stroke-width:1.0;" width="6" x="321" y="410"/><text fill="#000000" font-family="sans-serif" font-size="14" lengthAdjust="spacing" textLength="35" x="333" y="420.5332">name</text><rect fill="none" height="6" style="stroke:#C82930;stroke-width:1.0;" width="6" x="321" y="427.6094"/><text fill="#000000" font-family="sans-serif" font-size="14" lengthAdjust="spacing" textLength="51" x="333" y="438.1426">address</text><rect fill="none" height="6" style="stroke:#C82930;stroke-width:1.0;" width="6" x="321" y="445.2188"/><text fill="#000000" font-family="sans-serif" font-size="14" lengthAdjust="spacing" textLength="92" x="333" y="455.752">phone number</text><rect fill="none" height="6" style="stroke:#C82930;stroke-width:1.0;" width="6" x="321" y="462.8281"/><text fill="#000000" font-family="sans-serif" font-size="14" lengthAdjust="spacing" textLength="38" x="333" y="473.3613">e-mail</text><rect fill="none" height="6" style="stroke:#C82930;stroke-width:1.0;" width="6" x="321" y="480.4375"/><text fill="#000000" font-family="sans-serif" font-size="14" lengthAdjust="spacing" textLength="123" x="333" y="490.9707">citizen card number</text><line style="stroke:#181818;stroke-width:0.5;" x1="314" x2="461" y1="498.0469" y2="498.0469"/></g><!--MD5=[a059576e163b46f56762f12600c49258]
class Nurse--><g id="elem_Nurse"><rect codeLine="29" fill="#F1F1F1" height="48" id="Nurse" rx="2.5" ry="2.5" style="stroke:#181818;stroke-width:0.5;" width="69" x="280" y="567"/><ellipse cx="295" cy="583" fill="#ADD1B2" rx="11" ry="11" style="stroke:#181818;stroke-width:1.0;"/><path d="M297,579.5 Q297.2031,579 297.4375,578.75 Q297.6719,578.5 297.9375,578.5 Q298.4063,578.5 298.7031,578.7813 Q299,579.0625 299,579.7188 L299,581.2813 Q299,581.9375 298.7188,582.2188 Q298.4375,582.5 298,582.5 Q297.6094,582.5 297.3594,582.3281 Q297.1094,582.1563 297,581.7031 Q296.9531,581.3906 296.7813,581.2188 Q296.4688,580.8906 295.9063,580.7031 Q295.3438,580.5 294.7813,580.5 Q294.0781,580.5 293.4844,580.7813 Q292.9063,581.0625 292.4531,581.6875 Q292,582.3125 292,583.1719 L292,584.0938 Q292,585.125 292.8438,585.8125 Q293.6875,586.5 295.1875,586.5 Q296.0781,586.5 296.7031,586.2969 Q297.0625,586.1875 297.4688,585.8281 Q297.7344,585.625 297.875,585.5625 Q298.0156,585.5 298.1875,585.5 Q298.5156,585.5 298.75,585.7656 Q299,586.0156 299,586.375 Q299,586.7188 298.6563,587.125 Q298.1563,587.7188 297.3594,588.0469 Q296.3125,588.5 295.0313,588.5 Q293.5313,588.5 292.3281,587.9063 Q291.3594,587.4375 290.6719,586.4219 Q290,585.4063 290,584.2031 L290,583.1094 Q290,581.8594 290.5938,580.7656 Q291.2031,579.6719 292.25,579.0938 Q293.3125,578.5 294.5,578.5 Q295.2188,578.5 295.8438,578.75 Q296.4688,579 297,579.5 Z " fill="#000000"/><text fill="#000000" font-family="sans-serif" font-size="14" lengthAdjust="spacing" textLength="37" x="309" y="588.7285">Nurse</text><line style="stroke:#181818;stroke-width:0.5;" x1="281" x2="348" y1="599" y2="599"/><line style="stroke:#181818;stroke-width:0.5;" x1="281" x2="348" y1="607" y2="607"/></g><!--MD5=[03960189e81aa2c066c762ffabbee709]
class Receptionist--><g id="elem_Receptionist"><rect codeLine="30" fill="#F1F1F1" height="48" id="Receptionist" rx="2.5" ry="2.5" style="stroke:#181818;stroke-width:0.5;" width="110" x="497.5" y="414"/><ellipse cx="512.5" cy="430" fill="#ADD1B2" rx="11" ry="11" style="stroke:#181818;stroke-width:1.0;"/><path d="M514.5,426.5 Q514.7031,426 514.9375,425.75 Q515.1719,425.5 515.4375,425.5 Q515.9063,425.5 516.2031,425.7813 Q516.5,426.0625 516.5,426.7188 L516.5,428.2813 Q516.5,428.9375 516.2188,429.2188 Q515.9375,429.5 515.5,429.5 Q515.1094,429.5 514.8594,429.3281 Q514.6094,429.1563 514.5,428.7031 Q514.4531,428.3906 514.2813,428.2188 Q513.9688,427.8906 513.4063,427.7031 Q512.8438,427.5 512.2813,427.5 Q511.5781,427.5 510.9844,427.7813 Q510.4063,428.0625 509.9531,428.6875 Q509.5,429.3125 509.5,430.1719 L509.5,431.0938 Q509.5,432.125 510.3438,432.8125 Q511.1875,433.5 512.6875,433.5 Q513.5781,433.5 514.2031,433.2969 Q514.5625,433.1875 514.9688,432.8281 Q515.2344,432.625 515.375,432.5625 Q515.5156,432.5 515.6875,432.5 Q516.0156,432.5 516.25,432.7656 Q516.5,433.0156 516.5,433.375 Q516.5,433.7188 516.1563,434.125 Q515.6563,434.7188 514.8594,435.0469 Q513.8125,435.5 512.5313,435.5 Q511.0313,435.5 509.8281,434.9063 Q508.8594,434.4375 508.1719,433.4219 Q507.5,432.4063 507.5,431.2031 L507.5,430.1094 Q507.5,428.8594 508.0938,427.7656 Q508.7031,426.6719 509.75,426.0938 Q510.8125,425.5 512,425.5 Q512.7188,425.5 513.3438,425.75 Q513.9688,426 514.5,426.5 Z " fill="#000000"/><text fill="#000000" font-family="sans-serif" font-size="14" lengthAdjust="spacing" textLength="78" x="526.5" y="435.7285">Receptionist</text><line style="stroke:#181818;stroke-width:0.5;" x1="498.5" x2="606.5" y1="446" y2="446"/><line style="stroke:#181818;stroke-width:0.5;" x1="498.5" x2="606.5" y1="454" y2="454"/></g><!--MD5=[2d935fd2dd068a13da1ae531f9857c4f]
class CenterCoordinator--><g id="elem_CenterCoordinator"><rect codeLine="31" fill="#F1F1F1" height="48" id="CenterCoordinator" rx="2.5" ry="2.5" style="stroke:#181818;stroke-width:0.5;" width="150" x="384.5" y="567"/><ellipse cx="399.5" cy="583" fill="#ADD1B2" rx="11" ry="11" style="stroke:#181818;stroke-width:1.0;"/><path d="M401.5,579.5 Q401.7031,579 401.9375,578.75 Q402.1719,578.5 402.4375,578.5 Q402.9063,578.5 403.2031,578.7813 Q403.5,579.0625 403.5,579.7188 L403.5,581.2813 Q403.5,581.9375 403.2188,582.2188 Q402.9375,582.5 402.5,582.5 Q402.1094,582.5 401.8594,582.3281 Q401.6094,582.1563 401.5,581.7031 Q401.4531,581.3906 401.2813,581.2188 Q400.9688,580.8906 400.4063,580.7031 Q399.8438,580.5 399.2813,580.5 Q398.5781,580.5 397.9844,580.7813 Q397.4063,581.0625 396.9531,581.6875 Q396.5,582.3125 396.5,583.1719 L396.5,584.0938 Q396.5,585.125 397.3438,585.8125 Q398.1875,586.5 399.6875,586.5 Q400.5781,586.5 401.2031,586.2969 Q401.5625,586.1875 401.9688,585.8281 Q402.2344,585.625 402.375,585.5625 Q402.5156,585.5 402.6875,585.5 Q403.0156,585.5 403.25,585.7656 Q403.5,586.0156 403.5,586.375 Q403.5,586.7188 403.1563,587.125 Q402.6563,587.7188 401.8594,588.0469 Q400.8125,588.5 399.5313,588.5 Q398.0313,588.5 396.8281,587.9063 Q395.8594,587.4375 395.1719,586.4219 Q394.5,585.4063 394.5,584.2031 L394.5,583.1094 Q394.5,581.8594 395.0938,580.7656 Q395.7031,579.6719 396.75,579.0938 Q397.8125,578.5 399,578.5 Q399.7188,578.5 400.3438,578.75 Q400.9688,579 401.5,579.5 Z " fill="#000000"/><text fill="#000000" font-family="sans-serif" font-size="14" lengthAdjust="spacing" textLength="118" x="413.5" y="588.7285">CenterCoordinator</text><line style="stroke:#181818;stroke-width:0.5;" x1="385.5" x2="533.5" y1="599" y2="599"/><line style="stroke:#181818;stroke-width:0.5;" x1="385.5" x2="533.5" y1="607" y2="607"/></g><!--MD5=[94b983e2e44331786e92eb2608126439]
link ListEmployeesUI to ListEmployeesController--><g id="link_ListEmployeesUI_ListEmployeesController"><path codeLine="32" d="M151.5,55.2 C151.5,71.03 151.5,92.36 151.5,110.57 " fill="none" id="ListEmployeesUI-to-ListEmployeesController" style="stroke:#181818;stroke-width:1.0;stroke-dasharray:7.0,7.0;"/><polygon fill="#181818" points="151.5,115.62,155.5,106.62,151.5,110.62,147.5,106.62,151.5,115.62" style="stroke:#181818;stroke-width:1.0;"/></g><!--MD5=[53bdc20a0cb14a6d4af81bbe19b9a982]
link ListEmployeesController to ListEmployees--><g id="link_ListEmployeesController_ListEmployees"><path codeLine="33" d="M151.5,182.19 C151.5,199.1 151.5,219.92 151.5,237.56 " fill="none" id="ListEmployeesController-to-ListEmployees" style="stroke:#181818;stroke-width:1.0;stroke-dasharray:7.0,7.0;"/><polygon fill="#181818" points="151.5,242.92,155.5,233.92,151.5,237.92,147.5,233.92,151.5,242.92" style="stroke:#181818;stroke-width:1.0;"/></g><!--MD5=[61c7faf68cdef1a53c257cad76ed7aac]
link ListEmployees to Company--><g id="link_ListEmployees_Company"><path codeLine="34" d="M151.5,309.38 C151.5,327.81 151.5,351.54 151.5,373.53 " fill="none" id="ListEmployees-to-Company" style="stroke:#181818;stroke-width:1.0;stroke-dasharray:7.0,7.0;"/><polygon fill="#181818" points="151.5,378.78,155.5,369.78,151.5,373.78,147.5,369.78,151.5,378.78" style="stroke:#181818;stroke-width:1.0;"/><text fill="#000000" font-family="sans-serif" font-size="13" lengthAdjust="spacing" textLength="7" x="144.0734" y="368.0774">1</text></g><!--MD5=[09366576ee87d48d594df10cacc83f45]
link Company to Employee--><g id="link_Company_Employee"><path codeLine="35" d="M242.74,438 C264.15,438 286.79,438 307.65,438 " fill="none" id="Company-to-Employee" style="stroke:#181818;stroke-width:1.0;"/><polygon fill="#181818" points="312.92,438,303.92,434,307.92,438,303.92,442,312.92,438" style="stroke:#181818;stroke-width:1.0;"/><polygon fill="#000000" points="269.75,426.1758,260.7049,423.2369,260.7049,429.1147,269.75,426.1758" style="stroke:#000000;stroke-width:1.0;"/><text fill="#000000" font-family="sans-serif" font-size="13" lengthAdjust="spacing" textLength="21" x="273.75" y="431.4951">has</text><text fill="#000000" font-family="sans-serif" font-size="13" lengthAdjust="spacing" textLength="7" x="250.5857" y="434.8291">1</text><text fill="#000000" font-family="sans-serif" font-size="13" lengthAdjust="spacing" textLength="20" x="285.1228" y="452.2467">0..*</text></g><!--MD5=[6716344a46572fc99c27bf4e50ddbd3d]
reverse link Employee to Nurse--><g id="link_Employee_Nurse"><path codeLine="36" d="M346.28,524.26 C338.7,539.94 331.4,555.05 325.71,566.82 " fill="none" id="Employee-backto-Nurse" style="stroke:#181818;stroke-width:1.0;"/><polygon fill="none" points="340.05,521.07,355.06,506.11,352.65,527.16,340.05,521.07" style="stroke:#181818;stroke-width:1.0;"/></g><!--MD5=[bfff716514ca687b645fe473c6e098a4]
reverse link Employee to Receptionist--><g id="link_Employee_Receptionist"><path codeLine="37" d="M482.44,438 C487.35,438 492.25,438 497.16,438 " fill="none" id="Employee-backto-Receptionist" style="stroke:#181818;stroke-width:1.0;"/><polygon fill="none" points="482.27,445,462.27,438,482.27,431,482.27,445" style="stroke:#181818;stroke-width:1.0;"/></g><!--MD5=[98f7f3dc8d9719d04ad14614c4ea123f]
reverse link Employee to CenterCoordinator--><g id="link_Employee_CenterCoordinator"><path codeLine="38" d="M428.15,524.26 C435.63,539.94 442.83,555.05 448.45,566.82 " fill="none" id="Employee-backto-CenterCoordinator" style="stroke:#181818;stroke-width:1.0;"/><polygon fill="none" points="421.79,527.18,419.5,506.11,434.43,521.15,421.79,527.18" style="stroke:#181818;stroke-width:1.0;"/></g><!--MD5=[50b845974a3cbd2f0b223e535f8a5643]
@startuml
'https://plantuml.com/class-diagram


class ListEmployeesUI{}

class ListEmployeesController{
+getEmployeeWithWantedRole(role, index)
}

class ListEmployees{
+getEmployeeWithWantedRole(role, index)
}

class Company{
-designation
+getEmployee(index)
+getEmployeesList()
+verifyIfExistsEmployees()
}

abstract class Employee {
-name
-address
-phone number
-e-mail
-citizen card number
}

class Nurse
class Receptionist
class CenterCoordinator
ListEmployeesUI .-> ListEmployeesController
ListEmployeesController .->ListEmployees
ListEmployees .-> "1" Company
Company "1" -> "0..*" Employee : has >
Employee <|- - Nurse
Employee <|- Receptionist
Employee <|- - CenterCoordinator

@enduml

@startuml


class ListEmployeesUI{}

class ListEmployeesController{
+getEmployeeWithWantedRole(role, index)
}

class ListEmployees{
+getEmployeeWithWantedRole(role, index)
}

class Company{
-designation
+getEmployee(index)
+getEmployeesList()
+verifyIfExistsEmployees()
}

abstract class Employee {
-name
-address
-phone number
-e-mail
-citizen card number
}

class Nurse
class Receptionist
class CenterCoordinator
ListEmployeesUI .-> ListEmployeesController
ListEmployeesController .->ListEmployees
ListEmployees .-> "1" Company
Company "1" -> "0..*" Employee : has >
Employee <|- - Nurse
Employee <|- Receptionist
Employee <|- - CenterCoordinator

@enduml

PlantUML version 1.2022.4(Sat Apr 09 14:29:17 BST 2022)
(GPL source distribution)
Java Runtime: OpenJDK Runtime Environment
JVM: OpenJDK 64-Bit Server VM
Default Encoding: Cp1252
Language: pt
Country: PT
--></g></svg>