<?xml version="1.0" encoding="UTF-8" standalone="no"?><svg xmlns="http://www.w3.org/2000/svg" xmlns:xlink="http://www.w3.org/1999/xlink" contentStyleType="text/css" height="848px" preserveAspectRatio="none" style="width:1498px;height:848px;background:#FFFFFF;" version="1.1" viewBox="0 0 1498 848" width="1498px" zoomAndPan="magnify"><defs/><g><!--MD5=[0e501da62322464167c8ec4d233a6b7e]
class VaccineType--><g id="elem_VaccineType"><rect codeLine="3" fill="#F1F1F1" height="48" id="VaccineType" rx="2.5" ry="2.5" style="stroke:#181818;stroke-width:0.5;" width="114" x="7" y="785"/><ellipse cx="22" cy="801" fill="#ADD1B2" rx="11" ry="11" style="stroke:#181818;stroke-width:1.0;"/><path d="M24,797.5 Q24.2031,797 24.4375,796.75 Q24.6719,796.5 24.9375,796.5 Q25.4063,796.5 25.7031,796.7813 Q26,797.0625 26,797.7188 L26,799.2813 Q26,799.9375 25.7188,800.2188 Q25.4375,800.5 25,800.5 Q24.6094,800.5 24.3594,800.3281 Q24.1094,800.1563 24,799.7031 Q23.9531,799.3906 23.7813,799.2188 Q23.4688,798.8906 22.9063,798.7031 Q22.3438,798.5 21.7813,798.5 Q21.0781,798.5 20.4844,798.7813 Q19.9063,799.0625 19.4531,799.6875 Q19,800.3125 19,801.1719 L19,802.0938 Q19,803.125 19.8438,803.8125 Q20.6875,804.5 22.1875,804.5 Q23.0781,804.5 23.7031,804.2969 Q24.0625,804.1875 24.4688,803.8281 Q24.7344,803.625 24.875,803.5625 Q25.0156,803.5 25.1875,803.5 Q25.5156,803.5 25.75,803.7656 Q26,804.0156 26,804.375 Q26,804.7188 25.6563,805.125 Q25.1563,805.7188 24.3594,806.0469 Q23.3125,806.5 22.0313,806.5 Q20.5313,806.5 19.3281,805.9063 Q18.3594,805.4375 17.6719,804.4219 Q17,803.4063 17,802.2031 L17,801.1094 Q17,799.8594 17.5938,798.7656 Q18.2031,797.6719 19.25,797.0938 Q20.3125,796.5 21.5,796.5 Q22.2188,796.5 22.8438,796.75 Q23.4688,797 24,797.5 Z " fill="#000000"/><text fill="#000000" font-family="sans-serif" font-size="14" lengthAdjust="spacing" textLength="82" x="36" y="806.7285">VaccineType</text><line style="stroke:#181818;stroke-width:0.5;" x1="8" x2="120" y1="817" y2="817"/><line style="stroke:#181818;stroke-width:0.5;" x1="8" x2="120" y1="825" y2="825"/></g><!--MD5=[02e4b9b7573f1156f41e60aa5b4e25a4]
class Company--><g id="elem_Company"><rect codeLine="4" fill="#F1F1F1" height="48" id="Company" rx="2.5" ry="2.5" style="stroke:#181818;stroke-width:0.5;" width="92" x="148" y="641.5"/><ellipse cx="163" cy="657.5" fill="#ADD1B2" rx="11" ry="11" style="stroke:#181818;stroke-width:1.0;"/><path d="M165,654 Q165.2031,653.5 165.4375,653.25 Q165.6719,653 165.9375,653 Q166.4063,653 166.7031,653.2813 Q167,653.5625 167,654.2188 L167,655.7813 Q167,656.4375 166.7188,656.7188 Q166.4375,657 166,657 Q165.6094,657 165.3594,656.8281 Q165.1094,656.6563 165,656.2031 Q164.9531,655.8906 164.7813,655.7188 Q164.4688,655.3906 163.9063,655.2031 Q163.3438,655 162.7813,655 Q162.0781,655 161.4844,655.2813 Q160.9063,655.5625 160.4531,656.1875 Q160,656.8125 160,657.6719 L160,658.5938 Q160,659.625 160.8438,660.3125 Q161.6875,661 163.1875,661 Q164.0781,661 164.7031,660.7969 Q165.0625,660.6875 165.4688,660.3281 Q165.7344,660.125 165.875,660.0625 Q166.0156,660 166.1875,660 Q166.5156,660 166.75,660.2656 Q167,660.5156 167,660.875 Q167,661.2188 166.6563,661.625 Q166.1563,662.2188 165.3594,662.5469 Q164.3125,663 163.0313,663 Q161.5313,663 160.3281,662.4063 Q159.3594,661.9375 158.6719,660.9219 Q158,659.9063 158,658.7031 L158,657.6094 Q158,656.3594 158.5938,655.2656 Q159.2031,654.1719 160.25,653.5938 Q161.3125,653 162.5,653 Q163.2188,653 163.8438,653.25 Q164.4688,653.5 165,654 Z " fill="#000000"/><text fill="#000000" font-family="sans-serif" font-size="14" lengthAdjust="spacing" textLength="60" x="177" y="663.2285">Company</text><line style="stroke:#181818;stroke-width:0.5;" x1="149" x2="239" y1="673.5" y2="673.5"/><line style="stroke:#181818;stroke-width:0.5;" x1="149" x2="239" y1="681.5" y2="681.5"/></g><!--MD5=[a87fd7e31e08e6ee61dd7fb9ab974181]
class VaccinationEvent--><g id="elem_VaccinationEvent"><rect codeLine="5" fill="#F1F1F1" height="48" id="VaccinationEvent" rx="2.5" ry="2.5" style="stroke:#181818;stroke-width:0.5;" width="141" x="452.5" y="785"/><ellipse cx="467.5" cy="801" fill="#ADD1B2" rx="11" ry="11" style="stroke:#181818;stroke-width:1.0;"/><path d="M469.5,797.5 Q469.7031,797 469.9375,796.75 Q470.1719,796.5 470.4375,796.5 Q470.9063,796.5 471.2031,796.7813 Q471.5,797.0625 471.5,797.7188 L471.5,799.2813 Q471.5,799.9375 471.2188,800.2188 Q470.9375,800.5 470.5,800.5 Q470.1094,800.5 469.8594,800.3281 Q469.6094,800.1563 469.5,799.7031 Q469.4531,799.3906 469.2813,799.2188 Q468.9688,798.8906 468.4063,798.7031 Q467.8438,798.5 467.2813,798.5 Q466.5781,798.5 465.9844,798.7813 Q465.4063,799.0625 464.9531,799.6875 Q464.5,800.3125 464.5,801.1719 L464.5,802.0938 Q464.5,803.125 465.3438,803.8125 Q466.1875,804.5 467.6875,804.5 Q468.5781,804.5 469.2031,804.2969 Q469.5625,804.1875 469.9688,803.8281 Q470.2344,803.625 470.375,803.5625 Q470.5156,803.5 470.6875,803.5 Q471.0156,803.5 471.25,803.7656 Q471.5,804.0156 471.5,804.375 Q471.5,804.7188 471.1563,805.125 Q470.6563,805.7188 469.8594,806.0469 Q468.8125,806.5 467.5313,806.5 Q466.0313,806.5 464.8281,805.9063 Q463.8594,805.4375 463.1719,804.4219 Q462.5,803.4063 462.5,802.2031 L462.5,801.1094 Q462.5,799.8594 463.0938,798.7656 Q463.7031,797.6719 464.75,797.0938 Q465.8125,796.5 467,796.5 Q467.7188,796.5 468.3438,796.75 Q468.9688,797 469.5,797.5 Z " fill="#000000"/><text fill="#000000" font-family="sans-serif" font-size="14" lengthAdjust="spacing" textLength="109" x="481.5" y="806.7285">VaccinationEvent</text><line style="stroke:#181818;stroke-width:0.5;" x1="453.5" x2="592.5" y1="817" y2="817"/><line style="stroke:#181818;stroke-width:0.5;" x1="453.5" x2="592.5" y1="825" y2="825"/></g><!--MD5=[0240a54ce0109f66b50b742edf1fbbe7]
class SnsUserVaccineSchedule--><g id="elem_SnsUserVaccineSchedule"><rect codeLine="6" fill="#F1F1F1" height="48" id="SnsUserVaccineSchedule" rx="2.5" ry="2.5" style="stroke:#181818;stroke-width:0.5;" width="194" x="196" y="785"/><ellipse cx="211" cy="801" fill="#ADD1B2" rx="11" ry="11" style="stroke:#181818;stroke-width:1.0;"/><path d="M213,797.5 Q213.2031,797 213.4375,796.75 Q213.6719,796.5 213.9375,796.5 Q214.4063,796.5 214.7031,796.7813 Q215,797.0625 215,797.7188 L215,799.2813 Q215,799.9375 214.7188,800.2188 Q214.4375,800.5 214,800.5 Q213.6094,800.5 213.3594,800.3281 Q213.1094,800.1563 213,799.7031 Q212.9531,799.3906 212.7813,799.2188 Q212.4688,798.8906 211.9063,798.7031 Q211.3438,798.5 210.7813,798.5 Q210.0781,798.5 209.4844,798.7813 Q208.9063,799.0625 208.4531,799.6875 Q208,800.3125 208,801.1719 L208,802.0938 Q208,803.125 208.8438,803.8125 Q209.6875,804.5 211.1875,804.5 Q212.0781,804.5 212.7031,804.2969 Q213.0625,804.1875 213.4688,803.8281 Q213.7344,803.625 213.875,803.5625 Q214.0156,803.5 214.1875,803.5 Q214.5156,803.5 214.75,803.7656 Q215,804.0156 215,804.375 Q215,804.7188 214.6563,805.125 Q214.1563,805.7188 213.3594,806.0469 Q212.3125,806.5 211.0313,806.5 Q209.5313,806.5 208.3281,805.9063 Q207.3594,805.4375 206.6719,804.4219 Q206,803.4063 206,802.2031 L206,801.1094 Q206,799.8594 206.5938,798.7656 Q207.2031,797.6719 208.25,797.0938 Q209.3125,796.5 210.5,796.5 Q211.2188,796.5 211.8438,796.75 Q212.4688,797 213,797.5 Z " fill="#000000"/><text fill="#000000" font-family="sans-serif" font-size="14" lengthAdjust="spacing" textLength="162" x="225" y="806.7285">SnsUserVaccineSchedule</text><line style="stroke:#181818;stroke-width:0.5;" x1="197" x2="389" y1="817" y2="817"/><line style="stroke:#181818;stroke-width:0.5;" x1="197" x2="389" y1="825" y2="825"/></g><!--MD5=[965e3aea2ce7d8773ff60207534ea422]
class NurseUI--><g id="elem_NurseUI"><rect codeLine="7" fill="#F1F1F1" height="48" id="NurseUI" rx="2.5" ry="2.5" style="stroke:#181818;stroke-width:0.5;" width="81" x="638.5" y="7"/><ellipse cx="653.5" cy="23" fill="#ADD1B2" rx="11" ry="11" style="stroke:#181818;stroke-width:1.0;"/><path d="M655.5,19.5 Q655.7031,19 655.9375,18.75 Q656.1719,18.5 656.4375,18.5 Q656.9063,18.5 657.2031,18.7813 Q657.5,19.0625 657.5,19.7188 L657.5,21.2813 Q657.5,21.9375 657.2188,22.2188 Q656.9375,22.5 656.5,22.5 Q656.1094,22.5 655.8594,22.3281 Q655.6094,22.1563 655.5,21.7031 Q655.4531,21.3906 655.2813,21.2188 Q654.9688,20.8906 654.4063,20.7031 Q653.8438,20.5 653.2813,20.5 Q652.5781,20.5 651.9844,20.7813 Q651.4063,21.0625 650.9531,21.6875 Q650.5,22.3125 650.5,23.1719 L650.5,24.0938 Q650.5,25.125 651.3438,25.8125 Q652.1875,26.5 653.6875,26.5 Q654.5781,26.5 655.2031,26.2969 Q655.5625,26.1875 655.9688,25.8281 Q656.2344,25.625 656.375,25.5625 Q656.5156,25.5 656.6875,25.5 Q657.0156,25.5 657.25,25.7656 Q657.5,26.0156 657.5,26.375 Q657.5,26.7188 657.1563,27.125 Q656.6563,27.7188 655.8594,28.0469 Q654.8125,28.5 653.5313,28.5 Q652.0313,28.5 650.8281,27.9063 Q649.8594,27.4375 649.1719,26.4219 Q648.5,25.4063 648.5,24.2031 L648.5,23.1094 Q648.5,21.8594 649.0938,20.7656 Q649.7031,19.6719 650.75,19.0938 Q651.8125,18.5 653,18.5 Q653.7188,18.5 654.3438,18.75 Q654.9688,19 655.5,19.5 Z " fill="#000000"/><text fill="#000000" font-family="sans-serif" font-size="14" lengthAdjust="spacing" textLength="49" x="667.5" y="28.7285">NurseUI</text><line style="stroke:#181818;stroke-width:0.5;" x1="639.5" x2="718.5" y1="39" y2="39"/><line style="stroke:#181818;stroke-width:0.5;" x1="639.5" x2="718.5" y1="47" y2="47"/></g><!--MD5=[8ec009478c7529da5c72c771987ecbfd]
class RecordAdministrationVaccineToUserUI--><g id="elem_RecordAdministrationVaccineToUserUI"><rect codeLine="8" fill="#F1F1F1" height="48" id="RecordAdministrationVaccineToUserUI" rx="2.5" ry="2.5" style="stroke:#181818;stroke-width:0.5;" width="275" x="541.5" y="115"/><ellipse cx="556.5" cy="131" fill="#ADD1B2" rx="11" ry="11" style="stroke:#181818;stroke-width:1.0;"/><path d="M558.5,127.5 Q558.7031,127 558.9375,126.75 Q559.1719,126.5 559.4375,126.5 Q559.9063,126.5 560.2031,126.7813 Q560.5,127.0625 560.5,127.7188 L560.5,129.2813 Q560.5,129.9375 560.2188,130.2188 Q559.9375,130.5 559.5,130.5 Q559.1094,130.5 558.8594,130.3281 Q558.6094,130.1563 558.5,129.7031 Q558.4531,129.3906 558.2813,129.2188 Q557.9688,128.8906 557.4063,128.7031 Q556.8438,128.5 556.2813,128.5 Q555.5781,128.5 554.9844,128.7813 Q554.4063,129.0625 553.9531,129.6875 Q553.5,130.3125 553.5,131.1719 L553.5,132.0938 Q553.5,133.125 554.3438,133.8125 Q555.1875,134.5 556.6875,134.5 Q557.5781,134.5 558.2031,134.2969 Q558.5625,134.1875 558.9688,133.8281 Q559.2344,133.625 559.375,133.5625 Q559.5156,133.5 559.6875,133.5 Q560.0156,133.5 560.25,133.7656 Q560.5,134.0156 560.5,134.375 Q560.5,134.7188 560.1563,135.125 Q559.6563,135.7188 558.8594,136.0469 Q557.8125,136.5 556.5313,136.5 Q555.0313,136.5 553.8281,135.9063 Q552.8594,135.4375 552.1719,134.4219 Q551.5,133.4063 551.5,132.2031 L551.5,131.1094 Q551.5,129.8594 552.0938,128.7656 Q552.7031,127.6719 553.75,127.0938 Q554.8125,126.5 556,126.5 Q556.7188,126.5 557.3438,126.75 Q557.9688,127 558.5,127.5 Z " fill="#000000"/><text fill="#000000" font-family="sans-serif" font-size="14" lengthAdjust="spacing" textLength="243" x="570.5" y="136.7285">RecordAdministrationVaccineToUserUI</text><line style="stroke:#181818;stroke-width:0.5;" x1="542.5" x2="815.5" y1="147" y2="147"/><line style="stroke:#181818;stroke-width:0.5;" x1="542.5" x2="815.5" y1="155" y2="155"/></g><!--MD5=[0477ed937fc025f73336243a9c4b23f5]
class VaccineScheduleStore--><g id="elem_VaccineScheduleStore"><rect codeLine="10" fill="#F1F1F1" height="65.6094" id="VaccineScheduleStore" rx="2.5" ry="2.5" style="stroke:#181818;stroke-width:0.5;" width="242" x="933" y="632.5"/><ellipse cx="978.25" cy="648.5" fill="#ADD1B2" rx="11" ry="11" style="stroke:#181818;stroke-width:1.0;"/><path d="M980.25,645 Q980.4531,644.5 980.6875,644.25 Q980.9219,644 981.1875,644 Q981.6563,644 981.9531,644.2813 Q982.25,644.5625 982.25,645.2188 L982.25,646.7813 Q982.25,647.4375 981.9688,647.7188 Q981.6875,648 981.25,648 Q980.8594,648 980.6094,647.8281 Q980.3594,647.6563 980.25,647.2031 Q980.2031,646.8906 980.0313,646.7188 Q979.7188,646.3906 979.1563,646.2031 Q978.5938,646 978.0313,646 Q977.3281,646 976.7344,646.2813 Q976.1563,646.5625 975.7031,647.1875 Q975.25,647.8125 975.25,648.6719 L975.25,649.5938 Q975.25,650.625 976.0938,651.3125 Q976.9375,652 978.4375,652 Q979.3281,652 979.9531,651.7969 Q980.3125,651.6875 980.7188,651.3281 Q980.9844,651.125 981.125,651.0625 Q981.2656,651 981.4375,651 Q981.7656,651 982,651.2656 Q982.25,651.5156 982.25,651.875 Q982.25,652.2188 981.9063,652.625 Q981.4063,653.2188 980.6094,653.5469 Q979.5625,654 978.2813,654 Q976.7813,654 975.5781,653.4063 Q974.6094,652.9375 973.9219,651.9219 Q973.25,650.9063 973.25,649.7031 L973.25,648.6094 Q973.25,647.3594 973.8438,646.2656 Q974.4531,645.1719 975.5,644.5938 Q976.5625,644 977.75,644 Q978.4688,644 979.0938,644.25 Q979.7188,644.5 980.25,645 Z " fill="#000000"/><text fill="#000000" font-family="sans-serif" font-size="14" lengthAdjust="spacing" textLength="143" x="998.75" y="654.2285">VaccineScheduleStore</text><line style="stroke:#181818;stroke-width:0.5;" x1="934" x2="1174" y1="664.5" y2="664.5"/><line style="stroke:#181818;stroke-width:0.5;" x1="934" x2="1174" y1="672.5" y2="672.5"/><text fill="#000000" font-family="sans-serif" font-size="14" lengthAdjust="spacing" textLength="230" x="939" y="691.0332">+getSnsUserVaccineShcheduleList()</text></g><!--MD5=[15134bfb3f8c1bead269de3c5c4a0535]
class RecordAdministrationVaccineToUserController2--><g id="elem_RecordAdministrationVaccineToUserController2"><rect codeLine="14" fill="#F1F1F1" height="83.2188" id="RecordAdministrationVaccineToUserController2" rx="2.5" ry="2.5" style="stroke:#181818;stroke-width:0.5;" width="333" x="632.5" y="472"/><ellipse cx="647.5" cy="488" fill="#ADD1B2" rx="11" ry="11" style="stroke:#181818;stroke-width:1.0;"/><path d="M649.5,484.5 Q649.7031,484 649.9375,483.75 Q650.1719,483.5 650.4375,483.5 Q650.9063,483.5 651.2031,483.7813 Q651.5,484.0625 651.5,484.7188 L651.5,486.2813 Q651.5,486.9375 651.2188,487.2188 Q650.9375,487.5 650.5,487.5 Q650.1094,487.5 649.8594,487.3281 Q649.6094,487.1563 649.5,486.7031 Q649.4531,486.3906 649.2813,486.2188 Q648.9688,485.8906 648.4063,485.7031 Q647.8438,485.5 647.2813,485.5 Q646.5781,485.5 645.9844,485.7813 Q645.4063,486.0625 644.9531,486.6875 Q644.5,487.3125 644.5,488.1719 L644.5,489.0938 Q644.5,490.125 645.3438,490.8125 Q646.1875,491.5 647.6875,491.5 Q648.5781,491.5 649.2031,491.2969 Q649.5625,491.1875 649.9688,490.8281 Q650.2344,490.625 650.375,490.5625 Q650.5156,490.5 650.6875,490.5 Q651.0156,490.5 651.25,490.7656 Q651.5,491.0156 651.5,491.375 Q651.5,491.7188 651.1563,492.125 Q650.6563,492.7188 649.8594,493.0469 Q648.8125,493.5 647.5313,493.5 Q646.0313,493.5 644.8281,492.9063 Q643.8594,492.4375 643.1719,491.4219 Q642.5,490.4063 642.5,489.2031 L642.5,488.1094 Q642.5,486.8594 643.0938,485.7656 Q643.7031,484.6719 644.75,484.0938 Q645.8125,483.5 647,483.5 Q647.7188,483.5 648.3438,483.75 Q648.9688,484 649.5,484.5 Z " fill="#000000"/><text fill="#000000" font-family="sans-serif" font-size="14" lengthAdjust="spacing" textLength="301" x="661.5" y="493.7285">RecordAdministrationVaccineToUserController2</text><line style="stroke:#181818;stroke-width:0.5;" x1="633.5" x2="964.5" y1="504" y2="504"/><line style="stroke:#181818;stroke-width:0.5;" x1="633.5" x2="964.5" y1="512" y2="512"/><text fill="#000000" font-family="sans-serif" font-size="14" lengthAdjust="spacing" textLength="102" x="638.5" y="530.5332">+loadVaccines()</text><text fill="#000000" font-family="sans-serif" font-size="14" lengthAdjust="spacing" textLength="67" x="638.5" y="548.1426">+initialize()</text></g><!--MD5=[aaa7e27c4ec43917c82a021675d2c87a]
class WaitingRoom--><g id="elem_WaitingRoom"><rect codeLine="19" fill="#F1F1F1" height="83.2188" id="WaitingRoom" rx="2.5" ry="2.5" style="stroke:#181818;stroke-width:0.5;" width="235" x="1210.5" y="624"/><ellipse cx="1281.75" cy="640" fill="#ADD1B2" rx="11" ry="11" style="stroke:#181818;stroke-width:1.0;"/><path d="M1283.75,636.5 Q1283.9531,636 1284.1875,635.75 Q1284.4219,635.5 1284.6875,635.5 Q1285.1563,635.5 1285.4531,635.7813 Q1285.75,636.0625 1285.75,636.7188 L1285.75,638.2813 Q1285.75,638.9375 1285.4688,639.2188 Q1285.1875,639.5 1284.75,639.5 Q1284.3594,639.5 1284.1094,639.3281 Q1283.8594,639.1563 1283.75,638.7031 Q1283.7031,638.3906 1283.5313,638.2188 Q1283.2188,637.8906 1282.6563,637.7031 Q1282.0938,637.5 1281.5313,637.5 Q1280.8281,637.5 1280.2344,637.7813 Q1279.6563,638.0625 1279.2031,638.6875 Q1278.75,639.3125 1278.75,640.1719 L1278.75,641.0938 Q1278.75,642.125 1279.5938,642.8125 Q1280.4375,643.5 1281.9375,643.5 Q1282.8281,643.5 1283.4531,643.2969 Q1283.8125,643.1875 1284.2188,642.8281 Q1284.4844,642.625 1284.625,642.5625 Q1284.7656,642.5 1284.9375,642.5 Q1285.2656,642.5 1285.5,642.7656 Q1285.75,643.0156 1285.75,643.375 Q1285.75,643.7188 1285.4063,644.125 Q1284.9063,644.7188 1284.1094,645.0469 Q1283.0625,645.5 1281.7813,645.5 Q1280.2813,645.5 1279.0781,644.9063 Q1278.1094,644.4375 1277.4219,643.4219 Q1276.75,642.4063 1276.75,641.2031 L1276.75,640.1094 Q1276.75,638.8594 1277.3438,637.7656 Q1277.9531,636.6719 1279,636.0938 Q1280.0625,635.5 1281.25,635.5 Q1281.9688,635.5 1282.5938,635.75 Q1283.2188,636 1283.75,636.5 Z " fill="#000000"/><text fill="#000000" font-family="sans-serif" font-size="14" lengthAdjust="spacing" textLength="84" x="1302.25" y="645.7285">WaitingRoom</text><line style="stroke:#181818;stroke-width:0.5;" x1="1211.5" x2="1444.5" y1="656" y2="656"/><line style="stroke:#181818;stroke-width:0.5;" x1="1211.5" x2="1444.5" y1="664" y2="664"/><text fill="#000000" font-family="sans-serif" font-size="14" lengthAdjust="spacing" textLength="223" x="1216.5" y="682.5332">+isInWaitingRoom(snsUserNumber)</text><text fill="#000000" font-family="sans-serif" font-size="14" lengthAdjust="spacing" textLength="182" x="1216.5" y="700.1426">+removeFromWaitingRoom()</text></g><!--MD5=[4987b58ad1e35befaada756600d3695d]
class VaccinationEventStore--><g id="elem_VaccinationEventStore"><rect codeLine="24" fill="#F1F1F1" height="100.8281" id="VaccinationEventStore" rx="2.5" ry="2.5" style="stroke:#181818;stroke-width:0.5;" width="409" x="346.5" y="615"/><ellipse cx="475.25" cy="631" fill="#ADD1B2" rx="11" ry="11" style="stroke:#181818;stroke-width:1.0;"/><path d="M477.25,627.5 Q477.4531,627 477.6875,626.75 Q477.9219,626.5 478.1875,626.5 Q478.6563,626.5 478.9531,626.7813 Q479.25,627.0625 479.25,627.7188 L479.25,629.2813 Q479.25,629.9375 478.9688,630.2188 Q478.6875,630.5 478.25,630.5 Q477.8594,630.5 477.6094,630.3281 Q477.3594,630.1563 477.25,629.7031 Q477.2031,629.3906 477.0313,629.2188 Q476.7188,628.8906 476.1563,628.7031 Q475.5938,628.5 475.0313,628.5 Q474.3281,628.5 473.7344,628.7813 Q473.1563,629.0625 472.7031,629.6875 Q472.25,630.3125 472.25,631.1719 L472.25,632.0938 Q472.25,633.125 473.0938,633.8125 Q473.9375,634.5 475.4375,634.5 Q476.3281,634.5 476.9531,634.2969 Q477.3125,634.1875 477.7188,633.8281 Q477.9844,633.625 478.125,633.5625 Q478.2656,633.5 478.4375,633.5 Q478.7656,633.5 479,633.7656 Q479.25,634.0156 479.25,634.375 Q479.25,634.7188 478.9063,635.125 Q478.4063,635.7188 477.6094,636.0469 Q476.5625,636.5 475.2813,636.5 Q473.7813,636.5 472.5781,635.9063 Q471.6094,635.4375 470.9219,634.4219 Q470.25,633.4063 470.25,632.2031 L470.25,631.1094 Q470.25,629.8594 470.8438,628.7656 Q471.4531,627.6719 472.5,627.0938 Q473.5625,626.5 474.75,626.5 Q475.4688,626.5 476.0938,626.75 Q476.7188,627 477.25,627.5 Z " fill="#000000"/><text fill="#000000" font-family="sans-serif" font-size="14" lengthAdjust="spacing" textLength="143" x="495.75" y="636.7285">VaccinationEventStore</text><line style="stroke:#181818;stroke-width:0.5;" x1="347.5" x2="754.5" y1="647" y2="647"/><line style="stroke:#181818;stroke-width:0.5;" x1="347.5" x2="754.5" y1="655" y2="655"/><text fill="#000000" font-family="sans-serif" font-size="14" lengthAdjust="spacing" textLength="210" x="352.5" y="673.5332">+saveSnsUserVaccineSchedule()</text><text fill="#000000" font-family="sans-serif" font-size="14" lengthAdjust="spacing" textLength="131" x="352.5" y="691.1426">+setListOfVaccines()</text><text fill="#000000" font-family="sans-serif" font-size="14" lengthAdjust="spacing" textLength="397" x="352.5" y="708.752">+saveDataForVaccinationEvent(snsUserNumber, vaccineType)</text></g><!--MD5=[9fe762efc8b9cd0ebfcd4120396959e0]
class SnsUserStore--><g id="elem_SnsUserStore"><rect codeLine="30" fill="#F1F1F1" height="65.6094" id="SnsUserStore" rx="2.5" ry="2.5" style="stroke:#181818;stroke-width:0.5;" width="271" x="832.5" y="776"/><ellipse cx="920.25" cy="792" fill="#ADD1B2" rx="11" ry="11" style="stroke:#181818;stroke-width:1.0;"/><path d="M922.25,788.5 Q922.4531,788 922.6875,787.75 Q922.9219,787.5 923.1875,787.5 Q923.6563,787.5 923.9531,787.7813 Q924.25,788.0625 924.25,788.7188 L924.25,790.2813 Q924.25,790.9375 923.9688,791.2188 Q923.6875,791.5 923.25,791.5 Q922.8594,791.5 922.6094,791.3281 Q922.3594,791.1563 922.25,790.7031 Q922.2031,790.3906 922.0313,790.2188 Q921.7188,789.8906 921.1563,789.7031 Q920.5938,789.5 920.0313,789.5 Q919.3281,789.5 918.7344,789.7813 Q918.1563,790.0625 917.7031,790.6875 Q917.25,791.3125 917.25,792.1719 L917.25,793.0938 Q917.25,794.125 918.0938,794.8125 Q918.9375,795.5 920.4375,795.5 Q921.3281,795.5 921.9531,795.2969 Q922.3125,795.1875 922.7188,794.8281 Q922.9844,794.625 923.125,794.5625 Q923.2656,794.5 923.4375,794.5 Q923.7656,794.5 924,794.7656 Q924.25,795.0156 924.25,795.375 Q924.25,795.7188 923.9063,796.125 Q923.4063,796.7188 922.6094,797.0469 Q921.5625,797.5 920.2813,797.5 Q918.7813,797.5 917.5781,796.9063 Q916.6094,796.4375 915.9219,795.4219 Q915.25,794.4063 915.25,793.2031 L915.25,792.1094 Q915.25,790.8594 915.8438,789.7656 Q916.4531,788.6719 917.5,788.0938 Q918.5625,787.5 919.75,787.5 Q920.4688,787.5 921.0938,787.75 Q921.7188,788 922.25,788.5 Z " fill="#000000"/><text fill="#000000" font-family="sans-serif" font-size="14" lengthAdjust="spacing" textLength="87" x="940.75" y="797.7285">SnsUserStore</text><line style="stroke:#181818;stroke-width:0.5;" x1="833.5" x2="1102.5" y1="808" y2="808"/><line style="stroke:#181818;stroke-width:0.5;" x1="833.5" x2="1102.5" y1="816" y2="816"/><text fill="#000000" font-family="sans-serif" font-size="14" lengthAdjust="spacing" textLength="259" x="838.5" y="834.5332">+getUserBySNSNumber(snsUserNumber)</text></g><!--MD5=[0b0ffc0427f638a5c8bb6c9efe2a3274]
class RecordAdministrationVaccineToUserController--><g id="elem_RecordAdministrationVaccineToUserController"><rect codeLine="34" fill="#F1F1F1" height="188.875" id="RecordAdministrationVaccineToUserController" rx="2.5" ry="2.5" style="stroke:#181818;stroke-width:0.5;" width="325" x="516.5" y="223"/><ellipse cx="531.5" cy="239" fill="#ADD1B2" rx="11" ry="11" style="stroke:#181818;stroke-width:1.0;"/><path d="M533.5,235.5 Q533.7031,235 533.9375,234.75 Q534.1719,234.5 534.4375,234.5 Q534.9063,234.5 535.2031,234.7813 Q535.5,235.0625 535.5,235.7188 L535.5,237.2813 Q535.5,237.9375 535.2188,238.2188 Q534.9375,238.5 534.5,238.5 Q534.1094,238.5 533.8594,238.3281 Q533.6094,238.1563 533.5,237.7031 Q533.4531,237.3906 533.2813,237.2188 Q532.9688,236.8906 532.4063,236.7031 Q531.8438,236.5 531.2813,236.5 Q530.5781,236.5 529.9844,236.7813 Q529.4063,237.0625 528.9531,237.6875 Q528.5,238.3125 528.5,239.1719 L528.5,240.0938 Q528.5,241.125 529.3438,241.8125 Q530.1875,242.5 531.6875,242.5 Q532.5781,242.5 533.2031,242.2969 Q533.5625,242.1875 533.9688,241.8281 Q534.2344,241.625 534.375,241.5625 Q534.5156,241.5 534.6875,241.5 Q535.0156,241.5 535.25,241.7656 Q535.5,242.0156 535.5,242.375 Q535.5,242.7188 535.1563,243.125 Q534.6563,243.7188 533.8594,244.0469 Q532.8125,244.5 531.5313,244.5 Q530.0313,244.5 528.8281,243.9063 Q527.8594,243.4375 527.1719,242.4219 Q526.5,241.4063 526.5,240.2031 L526.5,239.1094 Q526.5,237.8594 527.0938,236.7656 Q527.7031,235.6719 528.75,235.0938 Q529.8125,234.5 531,234.5 Q531.7188,234.5 532.3438,234.75 Q532.9688,235 533.5,235.5 Z " fill="#000000"/><text fill="#000000" font-family="sans-serif" font-size="14" lengthAdjust="spacing" textLength="293" x="545.5" y="244.7285">RecordAdministrationVaccineToUserController</text><line style="stroke:#181818;stroke-width:0.5;" x1="517.5" x2="840.5" y1="255" y2="255"/><text fill="#000000" font-family="sans-serif" font-size="14" lengthAdjust="spacing" textLength="105" x="522.5" y="273.5332">-snsUserNumber</text><line style="stroke:#181818;stroke-width:0.5;" x1="517.5" x2="840.5" y1="280.6094" y2="280.6094"/><text fill="#000000" font-family="sans-serif" font-size="14" lengthAdjust="spacing" textLength="124" x="522.5" y="299.1426">+verifyIfUserExists()</text><text fill="#000000" font-family="sans-serif" font-size="14" lengthAdjust="spacing" textLength="193" x="522.5" y="316.752">+verifyIfUserIsInWaitingRoom()</text><text fill="#000000" font-family="sans-serif" font-size="14" lengthAdjust="spacing" textLength="162" x="522.5" y="334.3613">+checkTheVaccineType()</text><text fill="#000000" font-family="sans-serif" font-size="14" lengthAdjust="spacing" textLength="116" x="522.5" y="351.9707">+giveAllVaccines()</text><text fill="#000000" font-family="sans-serif" font-size="14" lengthAdjust="spacing" textLength="136" x="522.5" y="369.5801">+confirmationButton()</text><text fill="#000000" font-family="sans-serif" font-size="14" lengthAdjust="spacing" textLength="100" x="522.5" y="387.1895">+seeUserData()</text><text fill="#000000" font-family="sans-serif" font-size="14" lengthAdjust="spacing" textLength="121" x="522.5" y="404.7988">+switchToScene2()</text></g><!--MD5=[f24502e7c9b1056c4d1f73c3d80dda4c]
class RecoveryRoom--><g id="elem_RecoveryRoom"><rect codeLine="46" fill="#F1F1F1" height="65.6094" id="RecoveryRoom" rx="2.5" ry="2.5" style="stroke:#181818;stroke-width:0.5;" width="168" x="629" y="776"/><ellipse cx="661.55" cy="792" fill="#ADD1B2" rx="11" ry="11" style="stroke:#181818;stroke-width:1.0;"/><path d="M663.55,788.5 Q663.7531,788 663.9875,787.75 Q664.2219,787.5 664.4875,787.5 Q664.9563,787.5 665.2531,787.7813 Q665.55,788.0625 665.55,788.7188 L665.55,790.2813 Q665.55,790.9375 665.2688,791.2188 Q664.9875,791.5 664.55,791.5 Q664.1594,791.5 663.9094,791.3281 Q663.6594,791.1563 663.55,790.7031 Q663.5031,790.3906 663.3313,790.2188 Q663.0188,789.8906 662.4563,789.7031 Q661.8938,789.5 661.3313,789.5 Q660.6281,789.5 660.0344,789.7813 Q659.4563,790.0625 659.0031,790.6875 Q658.55,791.3125 658.55,792.1719 L658.55,793.0938 Q658.55,794.125 659.3938,794.8125 Q660.2375,795.5 661.7375,795.5 Q662.6281,795.5 663.2531,795.2969 Q663.6125,795.1875 664.0188,794.8281 Q664.2844,794.625 664.425,794.5625 Q664.5656,794.5 664.7375,794.5 Q665.0656,794.5 665.3,794.7656 Q665.55,795.0156 665.55,795.375 Q665.55,795.7188 665.2063,796.125 Q664.7063,796.7188 663.9094,797.0469 Q662.8625,797.5 661.5813,797.5 Q660.0813,797.5 658.8781,796.9063 Q657.9094,796.4375 657.2219,795.4219 Q656.55,794.4063 656.55,793.2031 L656.55,792.1094 Q656.55,790.8594 657.1438,789.7656 Q657.7531,788.6719 658.8,788.0938 Q659.8625,787.5 661.05,787.5 Q661.7688,787.5 662.3938,787.75 Q663.0188,788 663.55,788.5 Z " fill="#000000"/><text fill="#000000" font-family="sans-serif" font-size="14" lengthAdjust="spacing" textLength="97" x="679.45" y="797.7285">RecoveryRoom</text><line style="stroke:#181818;stroke-width:0.5;" x1="630" x2="796" y1="808" y2="808"/><line style="stroke:#181818;stroke-width:0.5;" x1="630" x2="796" y1="816" y2="816"/><text fill="#000000" font-family="sans-serif" font-size="14" lengthAdjust="spacing" textLength="156" x="635" y="834.5332">+addToRecoveryRoom()</text></g><!--MD5=[e23eda1a98c5c7bc5f318a3b7fd195fe]
link NurseUI to RecordAdministrationVaccineToUserUI--><g id="link_NurseUI_RecordAdministrationVaccineToUserUI"><path codeLine="50" d="M679,55 C679,71 679,92.45 679,109.53 " fill="none" id="NurseUI-to-RecordAdministrationVaccineToUserUI" style="stroke:#181818;stroke-width:1.0;stroke-dasharray:7.0,7.0;"/><polygon fill="#181818" points="679,114.68,683,105.68,679,109.68,675,105.68,679,114.68" style="stroke:#181818;stroke-width:1.0;"/></g><!--MD5=[a3545d78e8920a90b93832b31e35e444]
link RecordAdministrationVaccineToUserUI to RecordAdministrationVaccineToUserController--><g id="link_RecordAdministrationVaccineToUserUI_RecordAdministrationVaccineToUserController"><path codeLine="52" d="M679,163.07 C679,177.46 679,197.07 679,217.45 " fill="none" id="RecordAdministrationVaccineToUserUI-to-RecordAdministrationVaccineToUserController" style="stroke:#181818;stroke-width:1.0;stroke-dasharray:7.0,7.0;"/><polygon fill="#181818" points="679,222.65,683,213.65,679,217.65,675,213.65,679,222.65" style="stroke:#181818;stroke-width:1.0;"/></g><!--MD5=[1670e8090060f3917f91b6b5424c3c62]
link RecordAdministrationVaccineToUserController to SnsUserStore--><g id="link_RecordAdministrationVaccineToUserController_SnsUserStore"><path codeLine="54" d="M841.57,326.91 C1028.47,346.41 1326.93,409.92 1463,615 C1487.82,652.4 1491.7,681.48 1463,716 C1418.63,769.38 1238.77,791.94 1108.62,801.37 " fill="none" id="RecordAdministrationVaccineToUserController-to-SnsUserStore" style="stroke:#181818;stroke-width:1.0;stroke-dasharray:7.0,7.0;"/><polygon fill="#181818" points="1103.63,801.73,1112.8928,805.0767,1108.6172,801.3727,1112.3212,797.0972,1103.63,801.73" style="stroke:#181818;stroke-width:1.0;"/></g><!--MD5=[44c1e64aa66cb834f59908c5252060ec]
link RecordAdministrationVaccineToUserController to WaitingRoom--><g id="link_RecordAdministrationVaccineToUserController_WaitingRoom"><path codeLine="55" d="M841.59,382.52 C902.39,408.18 971.38,439.4 1032,472 C1116.88,517.65 1209.15,579.84 1267.72,621.03 " fill="none" id="RecordAdministrationVaccineToUserController-to-WaitingRoom" style="stroke:#181818;stroke-width:1.0;stroke-dasharray:7.0,7.0;"/><polygon fill="#181818" points="1271.88,623.96,1266.8363,615.5006,1267.796,621.0755,1262.2211,622.0351,1271.88,623.96" style="stroke:#181818;stroke-width:1.0;"/></g><!--MD5=[bdab9a6eaf75c51629b41ed4b8725716]
link RecordAdministrationVaccineToUserController to RecordAdministrationVaccineToUserController2--><g id="link_RecordAdministrationVaccineToUserController_RecordAdministrationVaccineToUserController2"><path codeLine="56" d="M736.89,412.09 C748.72,431.22 760.67,450.53 770.88,467.03 " fill="none" id="RecordAdministrationVaccineToUserController-to-RecordAdministrationVaccineToUserController2" style="stroke:#181818;stroke-width:1.0;stroke-dasharray:7.0,7.0;"/><polygon fill="#181818" points="773.71,471.61,772.3705,461.8527,771.0767,467.3596,765.5698,466.0659,773.71,471.61" style="stroke:#181818;stroke-width:1.0;"/></g><!--MD5=[5fd7d236a8d743942aaf9a0d689b2c64]
link RecordAdministrationVaccineToUserController to VaccinationEventStore--><g id="link_RecordAdministrationVaccineToUserController_VaccinationEventStore"><path codeLine="57" d="M638.63,412.23 C630.53,431.87 622.28,452.53 615,472 C597.82,517.93 580.39,570.85 568.07,609.57 " fill="none" id="RecordAdministrationVaccineToUserController-to-VaccinationEventStore" style="stroke:#181818;stroke-width:1.0;stroke-dasharray:7.0,7.0;"/><polygon fill="#181818" points="566.44,614.69,572.9814,607.3273,567.9566,609.9256,565.3583,604.9007,566.44,614.69" style="stroke:#181818;stroke-width:1.0;"/></g><!--MD5=[b741ca90d8bac8098b85cd19d0e982ba]
link RecordAdministrationVaccineToUserController to VaccineType--><g id="link_RecordAdministrationVaccineToUserController_VaccineType"><path codeLine="58" d="M516.37,331.94 C406.62,348.8 264.86,386.73 169,472 C77.28,553.59 64.85,713.98 63.75,779.3 " fill="none" id="RecordAdministrationVaccineToUserController-to-VaccineType" style="stroke:#181818;stroke-width:1.0;stroke-dasharray:7.0,7.0;"/><polygon fill="#181818" points="63.68,784.58,67.7826,775.6263,63.7371,779.5803,59.7831,775.5349,63.68,784.58" style="stroke:#181818;stroke-width:1.0;"/></g><!--MD5=[29be7e2b3c837ec65f7506d13acdbde1]
link RecordAdministrationVaccineToUserController to VaccineScheduleStore--><g id="link_RecordAdministrationVaccineToUserController_VaccineScheduleStore"><path codeLine="59" d="M841.75,373.42 C892.48,397.13 945.02,429.42 983,472 C1022.76,516.58 1040.89,585.35 1048.67,627.49 " fill="none" id="RecordAdministrationVaccineToUserController-to-VaccineScheduleStore" style="stroke:#181818;stroke-width:1.0;stroke-dasharray:7.0,7.0;"/><polygon fill="#181818" points="1049.57,632.5,1051.9371,622.9398,1048.697,627.5768,1044.06,624.3367,1049.57,632.5" style="stroke:#181818;stroke-width:1.0;"/></g><!--MD5=[79684f66e5eb4c75146a3b6e211e67bf]
link RecordAdministrationVaccineToUserController to Company--><g id="link_RecordAdministrationVaccineToUserController_Company"><path codeLine="60" d="M547.75,412.13 C440.97,488.31 297.44,590.71 230.82,638.23 " fill="none" id="RecordAdministrationVaccineToUserController-to-Company" style="stroke:#181818;stroke-width:1.0;stroke-dasharray:7.0,7.0;"/><polygon fill="#181818" points="226.54,641.28,236.1912,639.3166,230.6125,638.3792,231.5499,632.8006,226.54,641.28" style="stroke:#181818;stroke-width:1.0;"/></g><!--MD5=[8df07fb8f88de64212b21f5c1a5888ea]
link RecordAdministrationVaccineToUserController to SnsUserVaccineSchedule--><g id="link_RecordAdministrationVaccineToUserController_SnsUserVaccineSchedule"><path codeLine="61" d="M516.35,354.49 C384.14,393.6 207.46,470.81 131,615 C109.97,654.66 108.42,677.21 131,716 C149.07,747.04 181.94,768.46 213.37,782.77 " fill="none" id="RecordAdministrationVaccineToUserController-to-SnsUserVaccineSchedule" style="stroke:#181818;stroke-width:1.0;stroke-dasharray:7.0,7.0;"/><polygon fill="#181818" points="218,784.83,211.396,777.5233,213.4298,782.802,208.1511,784.8357,218,784.83" style="stroke:#181818;stroke-width:1.0;"/></g><!--MD5=[5438e3ccea2fc758e4c28c74deed1640]
link RecordAdministrationVaccineToUserController2 to WaitingRoom--><g id="link_RecordAdministrationVaccineToUserController2_WaitingRoom"><path codeLine="63" d="M965.87,553.08 C1036.41,570.42 1119.17,592.11 1193,615 C1200.4,617.3 1208,619.76 1215.63,622.33 " fill="none" id="RecordAdministrationVaccineToUserController2-to-WaitingRoom" style="stroke:#181818;stroke-width:1.0;stroke-dasharray:7.0,7.0;"/><polygon fill="#181818" points="1220.38,623.93,1213.1308,617.263,1215.6423,622.3317,1210.5736,624.8433,1220.38,623.93" style="stroke:#181818;stroke-width:1.0;"/></g><!--MD5=[cf6a27772620fd875a668e03d7c83eb3]
link RecordAdministrationVaccineToUserController2 to SnsUserStore--><g id="link_RecordAdministrationVaccineToUserController2_SnsUserStore"><path codeLine="64" d="M822.32,555 C855.26,612.21 914.93,715.84 946.72,771.05 " fill="none" id="RecordAdministrationVaccineToUserController2-to-SnsUserStore" style="stroke:#181818;stroke-width:1.0;stroke-dasharray:7.0,7.0;"/><polygon fill="#181818" points="949.34,775.59,948.3165,765.7945,946.8455,771.2567,941.3833,769.7857,949.34,775.59" style="stroke:#181818;stroke-width:1.0;"/></g><!--MD5=[4f57328b17a176d13c2d27d13df1c467]
link RecordAdministrationVaccineToUserController2 to VaccinationEventStore--><g id="link_RecordAdministrationVaccineToUserController2_VaccinationEventStore"><path codeLine="65" d="M731.89,555.09 C702.9,572.62 668.62,593.36 637.74,612.04 " fill="none" id="RecordAdministrationVaccineToUserController2-to-VaccinationEventStore" style="stroke:#181818;stroke-width:1.0;stroke-dasharray:7.0,7.0;"/><polygon fill="#181818" points="633.21,614.78,642.9825,613.5556,637.4912,612.197,638.8497,606.7057,633.21,614.78" style="stroke:#181818;stroke-width:1.0;"/></g><!--MD5=[2f2700b37d182489b311eb16bb0f3345]
link RecordAdministrationVaccineToUserController2 to RecoveryRoom--><g id="link_RecordAdministrationVaccineToUserController2_RecoveryRoom"><path codeLine="66" d="M799.03,555.14 C797.86,596.75 792.64,662.71 773,716 C765.77,735.63 753.72,755.32 742.31,771.43 " fill="none" id="RecordAdministrationVaccineToUserController2-to-RecoveryRoom" style="stroke:#181818;stroke-width:1.0;stroke-dasharray:7.0,7.0;"/><polygon fill="#181818" points="739.11,775.87,747.6209,770.9137,742.0364,771.8159,741.1342,766.2314,739.11,775.87" style="stroke:#181818;stroke-width:1.0;"/></g><!--MD5=[92465e9fd6552f727242dbc95ec2548b]
link RecordAdministrationVaccineToUserController2 to Company--><g id="link_RecordAdministrationVaccineToUserController2_Company"><path codeLine="67" d="M632.22,528.34 C524.78,541.49 383.87,566.79 267,615 C252.88,620.83 238.68,629.63 226.61,638.2 " fill="none" id="RecordAdministrationVaccineToUserController2-to-Company" style="stroke:#181818;stroke-width:1.0;stroke-dasharray:7.0,7.0;"/><polygon fill="#181818" points="222.26,641.34,231.8986,639.3158,226.3141,638.4136,227.2163,632.8291,222.26,641.34" style="stroke:#181818;stroke-width:1.0;"/></g><!--MD5=[68f48b1d4a9ac50fd8f4f5f56b4286c2]
link RecordAdministrationVaccineToUserController2 to VaccineScheduleStore--><g id="link_RecordAdministrationVaccineToUserController2_VaccineScheduleStore"><path codeLine="68" d="M868.01,555.09 C907.69,578.44 957.03,607.46 994.92,629.75 " fill="none" id="RecordAdministrationVaccineToUserController2-to-VaccineScheduleStore" style="stroke:#181818;stroke-width:1.0;stroke-dasharray:7.0,7.0;"/><polygon fill="#181818" points="999.48,632.43,993.7693,624.4058,995.1762,629.8849,989.6971,631.2919,999.48,632.43" style="stroke:#181818;stroke-width:1.0;"/></g><!--MD5=[e255b7dd9fead67c6419d81a539bc21a]
link RecordAdministrationVaccineToUserController2 to SnsUserVaccineSchedule--><g id="link_RecordAdministrationVaccineToUserController2_SnsUserVaccineSchedule"><path codeLine="69" d="M632.21,530.63 C514.64,545.5 370.96,571.93 329,615 C285.89,659.25 285.78,737.59 289.39,779.56 " fill="none" id="RecordAdministrationVaccineToUserController2-to-SnsUserVaccineSchedule" style="stroke:#181818;stroke-width:1.0;stroke-dasharray:7.0,7.0;"/><polygon fill="#181818" points="289.87,784.74,293.0025,775.4026,289.398,779.7623,285.0382,776.1578,289.87,784.74" style="stroke:#181818;stroke-width:1.0;"/></g><!--MD5=[6fdb77be4dac9bc6ba3285f7aa542853]
link VaccinationEventStore to VaccineType--><g id="link_VaccinationEventStore_VaccineType"><path codeLine="71" d="M380.33,716.09 C292.15,741.71 189.93,771.41 126.11,789.95 " fill="none" id="VaccinationEventStore-to-VaccineType" style="stroke:#181818;stroke-width:1.0;stroke-dasharray:7.0,7.0;"/><polygon fill="#181818" points="121.2,791.38,130.96,792.7,126,789.98,128.72,785.02,121.2,791.38" style="stroke:#181818;stroke-width:1.0;"/></g><!--MD5=[90f3209ad42aebc93dfa849d63779ddb]
link VaccinationEventStore to RecoveryRoom--><g id="link_VaccinationEventStore_RecoveryRoom"><path codeLine="72" d="M608.12,716.39 C629.29,734.89 652.87,755.48 672.29,772.44 " fill="none" id="VaccinationEventStore-to-RecoveryRoom" style="stroke:#181818;stroke-width:1.0;stroke-dasharray:7.0,7.0;"/><polygon fill="#181818" points="676.12,775.79,671.9616,766.8621,672.35,772.5056,666.7065,772.894,676.12,775.79" style="stroke:#181818;stroke-width:1.0;"/></g><!--MD5=[a8cfd96118e7847f7af89c1edaef931a]
link VaccinationEventStore to SnsUserStore--><g id="link_VaccinationEventStore_SnsUserStore"><path codeLine="73" d="M697.14,716.09 C753.88,735.34 817.42,756.9 868.68,774.3 " fill="none" id="VaccinationEventStore-to-SnsUserStore" style="stroke:#181818;stroke-width:1.0;stroke-dasharray:7.0,7.0;"/><polygon fill="#181818" points="873.6,775.97,866.3508,769.303,868.8623,774.3717,863.7936,776.8833,873.6,775.97" style="stroke:#181818;stroke-width:1.0;"/></g><!--MD5=[dac3998d0627625d166eb952e9696c8d]
link VaccinationEventStore to VaccinationEvent--><g id="link_VaccinationEventStore_VaccinationEvent"><path codeLine="74" d="M541.13,716.39 C536.93,737.62 532.18,761.62 528.6,779.72 " fill="none" id="VaccinationEventStore-to-VaccinationEvent" style="stroke:#181818;stroke-width:1.0;stroke-dasharray:7.0,7.0;"/><polygon fill="#181818" points="527.62,784.66,533.2894,776.6065,528.5896,779.7549,525.4412,775.0552,527.62,784.66" style="stroke:#181818;stroke-width:1.0;"/></g><!--MD5=[368f016d71fe8b3ed4b2720d3f5b230d]
link VaccinationEventStore to SnsUserVaccineSchedule--><g id="link_VaccinationEventStore_SnsUserVaccineSchedule"><path codeLine="75" d="M460.4,716.19 C419.55,738.59 373.04,764.1 339.43,782.53 " fill="none" id="VaccinationEventStore-to-SnsUserVaccineSchedule" style="stroke:#181818;stroke-width:1.0;stroke-dasharray:7.0,7.0;"/><polygon fill="#181818" points="334.98,784.97,344.7954,784.1585,339.3662,782.5697,340.9549,777.1406,334.98,784.97" style="stroke:#181818;stroke-width:1.0;"/></g><!--MD5=[63e216900a88cf73fb96cc133d782b57]
@startuml
skinparam classAttributeIconSize 0

class VaccineType
class Company
class VaccinationEvent
class SnsUserVaccineSchedule
class NurseUI
class RecordAdministrationVaccineToUserUI

class VaccineScheduleStore {
  + getSnsUserVaccineShcheduleList()
}

class RecordAdministrationVaccineToUserController2 {
  + loadVaccines()
  + initialize()
}

class WaitingRoom {
  + isInWaitingRoom(snsUserNumber)
  + removeFromWaitingRoom()
}

class VaccinationEventStore {
  + saveSnsUserVaccineSchedule()
  + setListOfVaccines()
  + saveDataForVaccinationEvent(snsUserNumber, vaccineType)
}

class SnsUserStore {
  + getUserBySNSNumber(snsUserNumber)
}

class RecordAdministrationVaccineToUserController {
    - snsUserNumber

  + verifyIfUserExists()
  + verifyIfUserIsInWaitingRoom()
  + checkTheVaccineType()
  + giveAllVaccines()
  + confirmationButton()
  + seeUserData()
  + switchToScene2()
}

class RecoveryRoom{
  + addToRecoveryRoom()
}

NurseUI ..> RecordAdministrationVaccineToUserUI

RecordAdministrationVaccineToUserUI ..> RecordAdministrationVaccineToUserController

RecordAdministrationVaccineToUserController ..> SnsUserStore
RecordAdministrationVaccineToUserController ..> WaitingRoom
RecordAdministrationVaccineToUserController ..> RecordAdministrationVaccineToUserController2
RecordAdministrationVaccineToUserController ..> VaccinationEventStore
RecordAdministrationVaccineToUserController ..> VaccineType
RecordAdministrationVaccineToUserController ..> VaccineScheduleStore
RecordAdministrationVaccineToUserController ..> Company
RecordAdministrationVaccineToUserController ..> SnsUserVaccineSchedule

RecordAdministrationVaccineToUserController2 ..> WaitingRoom
RecordAdministrationVaccineToUserController2 ..> SnsUserStore
RecordAdministrationVaccineToUserController2 ..> VaccinationEventStore
RecordAdministrationVaccineToUserController2 ..> RecoveryRoom
RecordAdministrationVaccineToUserController2 ..> Company
RecordAdministrationVaccineToUserController2 ..> VaccineScheduleStore
RecordAdministrationVaccineToUserController2 ..> SnsUserVaccineSchedule

VaccinationEventStore ..> VaccineType
VaccinationEventStore ..> RecoveryRoom
VaccinationEventStore ..> SnsUserStore
VaccinationEventStore ..> VaccinationEvent
VaccinationEventStore ..> SnsUserVaccineSchedule

@enduml

PlantUML version 1.2022.5(Sat Apr 30 11:55:52 BST 2022)
(GPL source distribution)
Java Runtime: OpenJDK Runtime Environment
JVM: OpenJDK 64-Bit Server VM
Default Encoding: Cp1252
Language: pt
Country: PT
--></g></svg>