<?xml version="1.0" encoding="UTF-8" standalone="no"?><svg xmlns="http://www.w3.org/2000/svg" xmlns:xlink="http://www.w3.org/1999/xlink" contentStyleType="text/css" height="673.8px" preserveAspectRatio="none" style="width:1147px;height:673px;background:#FFFFFF;" version="1.1" viewBox="0 0 1147 673" width="1147.8px" zoomAndPan="magnify"><defs/><g><!--MD5=[349c4a6f4567269658c2c96db8c65180]
cluster domain.model.employee--><g id="cluster_domain.model.employee"><path d="M395.7,140.4 L498.3,140.4 A2.25,2.25 0 0 1 499.8,141.9 L504,154.5656 L504.3,154.5656 A1.5,1.5 0 0 1 505.8,156.0656 L505.8,198.9 A1.5,1.5 0 0 1 504.3,200.4 L395.7,200.4 A1.5,1.5 0 0 1 394.2,198.9 L394.2,141.9 A1.5,1.5 0 0 1 395.7,140.4 " style="stroke:#000000;stroke-width:0.8999999999999999;fill:none;"/><line style="stroke:#000000;stroke-width:0.8999999999999999;fill:none;" x1="394.2" x2="504" y1="154.5656" y2="154.5656"/><text fill="#000000" font-family="sans-serif" font-size="8.4" font-weight="bold" lengthAdjust="spacing" textLength="102" x="396.6" y="150.3199">domain.model.employee</text></g><!--MD5=[bbf881dc134dc346e5fc41f89f9700db]
cluster domain.model.VaccinationCenter--><g id="cluster_domain.model.VaccinationCenter"><path d="M908.1,82.2 L1047.3,82.2 A2.25,2.25 0 0 1 1048.8,83.7 L1053,96.3656 L1142.1,96.3656 A1.5,1.5 0 0 1 1143.6,97.8656 L1143.6,343.5 A1.5,1.5 0 0 1 1142.1,345 L908.1,345 A1.5,1.5 0 0 1 906.6,343.5 L906.6,83.7 A1.5,1.5 0 0 1 908.1,82.2 " style="stroke:#000000;stroke-width:0.8999999999999999;fill:none;"/><line style="stroke:#000000;stroke-width:0.8999999999999999;fill:none;" x1="906.6" x2="1053" y1="96.3656" y2="96.3656"/><text fill="#000000" font-family="sans-serif" font-size="8.4" font-weight="bold" lengthAdjust="spacing" textLength="138.6" x="909" y="92.1199">domain.model.VaccinationCenter</text></g><!--MD5=[a059576e163b46f56762f12600c49258]
class Nurse--><g id="elem_Nurse"><rect codeLine="15" fill="#F1F1F1" height="28.8" id="Nurse" rx="1.5" ry="1.5" style="stroke:#181818;stroke-width:0.3;" width="41.4" x="429.3" y="162"/><ellipse cx="438.3" cy="171.6" fill="#ADD1B2" rx="6.6" ry="6.6" style="stroke:#181818;stroke-width:0.6;"/><path d="M439.5,169.5 Q439.6219,169.2 439.7625,169.05 Q439.9031,168.9 440.0625,168.9 Q440.3438,168.9 440.5219,169.0688 Q440.7,169.2375 440.7,169.6313 L440.7,170.5688 Q440.7,170.9625 440.5313,171.1313 Q440.3625,171.3 440.1,171.3 Q439.8656,171.3 439.7156,171.1969 Q439.5656,171.0938 439.5,170.8219 Q439.4719,170.6344 439.3688,170.5313 Q439.1813,170.3344 438.8438,170.2219 Q438.5062,170.1 438.1688,170.1 Q437.7469,170.1 437.3906,170.2687 Q437.0438,170.4375 436.7719,170.8125 Q436.5,171.1875 436.5,171.7031 L436.5,172.2563 Q436.5,172.875 437.0062,173.2875 Q437.5125,173.7 438.4125,173.7 Q438.9469,173.7 439.3219,173.5781 Q439.5375,173.5125 439.7813,173.2969 Q439.9406,173.175 440.025,173.1375 Q440.1094,173.1 440.2125,173.1 Q440.4094,173.1 440.55,173.2594 Q440.7,173.4094 440.7,173.625 Q440.7,173.8312 440.4938,174.075 Q440.1937,174.4313 439.7156,174.6281 Q439.0875,174.9 438.3187,174.9 Q437.4188,174.9 436.6969,174.5438 Q436.1156,174.2625 435.7031,173.6531 Q435.3,173.0438 435.3,172.3219 L435.3,171.6656 Q435.3,170.9156 435.6563,170.2594 Q436.0219,169.6031 436.65,169.2563 Q437.2875,168.9 438,168.9 Q438.4313,168.9 438.8063,169.05 Q439.1813,169.2 439.5,169.5 Z " fill="#000000"/><text fill="#000000" font-family="sans-serif" font-size="8.4" lengthAdjust="spacing" textLength="22.2" x="446.7" y="175.0371">Nurse</text><line style="stroke:#181818;stroke-width:0.3;" x1="429.9" x2="470.1" y1="181.2" y2="181.2"/><line style="stroke:#181818;stroke-width:0.3;" x1="429.9" x2="470.1" y1="186" y2="186"/></g><!--MD5=[de60e6d4f424ae4d0522096f76a59010]
class VaccinationCenter--><g id="elem_VaccinationCenter"><rect codeLine="39" fill="#F1F1F1" height="145.0219" id="VaccinationCenter" rx="1.5" ry="1.5" style="stroke:#181818;stroke-width:0.3;" width="126.6" x="916.5" y="103.8"/><ellipse cx="942.51" cy="113.4" fill="#A9DCDF" rx="6.6" ry="6.6" style="stroke:#181818;stroke-width:0.6;"/><path d="M943.56,114.3 L941.5819,114.3 L941.3194,114.9 L941.3194,114.9 L941.6006,114.9 L941.91,115.275 L941.91,115.5 L941.91,115.725 L941.6006,116.1 L941.3194,116.1 L940.185,116.1 L939.8194,116.1 L939.51,115.725 L939.51,115.5 L939.51,115.275 L939.8194,114.9 L940.185,114.9 L941.5725,111.3 L941.0475,111.3 L940.4194,111.3 L940.11,110.925 L940.11,110.7 L940.11,110.475 L940.4194,110.1 L941.0475,110.1 L943.2506,110.1 L944.8631,114.9 L945.2006,114.9 L945.2006,114.9 L945.51,115.275 L945.51,115.5 L945.51,115.725 L945.2006,116.1 L944.8631,116.1 L943.7287,116.1 L943.4194,116.1 L943.11,115.725 L943.11,115.5 L943.11,115.275 L943.4194,114.9 L943.7287,114.9 L943.7287,114.9 L943.56,114.3 Z M943.2319,113.1 L942.51,110.9531 L941.8912,113.1 L943.2319,113.1 Z " fill="#000000"/><text fill="#000000" font-family="sans-serif" font-size="8.4" font-style="italic" lengthAdjust="spacing" textLength="69.6" x="954.69" y="116.8371">VaccinationCenter</text><line style="stroke:#181818;stroke-width:0.3;" x1="917.1" x2="1042.5" y1="123" y2="123"/><rect fill="none" height="3.6" style="stroke:#C82930;stroke-width:0.6;" width="3.6" x="921.3" y="127.8"/><text fill="#000000" font-family="sans-serif" font-size="8.4" lengthAdjust="spacing" textLength="21" x="928.5" y="134.1199">name</text><rect fill="none" height="3.6" style="stroke:#C82930;stroke-width:0.6;" width="3.6" x="921.3" y="138.3656"/><text fill="#000000" font-family="sans-serif" font-size="8.4" lengthAdjust="spacing" textLength="30.6" x="928.5" y="144.6855">address</text><rect fill="none" height="3.6" style="stroke:#C82930;stroke-width:0.6;" width="3.6" x="921.3" y="148.9313"/><text fill="#000000" font-family="sans-serif" font-size="8.4" lengthAdjust="spacing" textLength="55.2" x="928.5" y="155.2512">phone number</text><rect fill="none" height="3.6" style="stroke:#C82930;stroke-width:0.6;" width="3.6" x="921.3" y="159.4969"/><text fill="#000000" font-family="sans-serif" font-size="8.4" lengthAdjust="spacing" textLength="55.8" x="928.5" y="165.8168">e-mail address</text><rect fill="none" height="3.6" style="stroke:#C82930;stroke-width:0.6;" width="3.6" x="921.3" y="170.0625"/><text fill="#000000" font-family="sans-serif" font-size="8.4" lengthAdjust="spacing" textLength="42" x="928.5" y="176.3824">fax number</text><rect fill="none" height="3.6" style="stroke:#C82930;stroke-width:0.6;" width="3.6" x="921.3" y="180.6281"/><text fill="#000000" font-family="sans-serif" font-size="8.4" lengthAdjust="spacing" textLength="61.2" x="928.5" y="186.948">website address</text><rect fill="none" height="3.6" style="stroke:#C82930;stroke-width:0.6;" width="3.6" x="921.3" y="191.1938"/><text fill="#000000" font-family="sans-serif" font-size="8.4" lengthAdjust="spacing" textLength="54.6" x="928.5" y="197.5137">opening hours</text><rect fill="none" height="3.6" style="stroke:#C82930;stroke-width:0.6;" width="3.6" x="921.3" y="201.7594"/><text fill="#000000" font-family="sans-serif" font-size="8.4" lengthAdjust="spacing" textLength="50.4" x="928.5" y="208.0793">closing hours</text><rect fill="none" height="3.6" style="stroke:#C82930;stroke-width:0.6;" width="3.6" x="921.3" y="212.325"/><text fill="#000000" font-family="sans-serif" font-size="8.4" lengthAdjust="spacing" textLength="46.8" x="928.5" y="218.6449">slot duration</text><rect fill="none" height="3.6" style="stroke:#C82930;stroke-width:0.6;" width="3.6" x="921.3" y="222.8906"/><text fill="#000000" font-family="sans-serif" font-size="8.4" lengthAdjust="spacing" textLength="111" x="928.5" y="229.2105">maximum number of vaccines</text><rect fill="none" height="3.6" style="stroke:#C82930;stroke-width:0.6;" width="3.6" x="921.3" y="233.4562"/><text fill="#000000" font-family="sans-serif" font-size="8.4" lengthAdjust="spacing" textLength="43.2" x="928.5" y="239.7762">coordinator</text><line style="stroke:#181818;stroke-width:0.3;" x1="917.1" x2="1042.5" y1="244.0219" y2="244.0219"/></g><!--MD5=[1db03e903fe0a044a2ca0dcbef10799a]
class HealthCareCenter--><g id="elem_HealthCareCenter"><rect codeLine="20" fill="#F1F1F1" height="39.3656" id="HealthCareCenter" rx="1.5" ry="1.5" style="stroke:#181818;stroke-width:0.3;" width="87.6" x="916.2" y="295.8"/><ellipse cx="925.2" cy="305.4" fill="#ADD1B2" rx="6.6" ry="6.6" style="stroke:#181818;stroke-width:0.6;"/><path d="M926.4,303.3 Q926.5219,303 926.6625,302.85 Q926.8031,302.7 926.9625,302.7 Q927.2438,302.7 927.4219,302.8688 Q927.6,303.0375 927.6,303.4313 L927.6,304.3688 Q927.6,304.7625 927.4313,304.9313 Q927.2625,305.1 927,305.1 Q926.7656,305.1 926.6156,304.9969 Q926.4656,304.8938 926.4,304.6219 Q926.3719,304.4344 926.2688,304.3313 Q926.0813,304.1344 925.7438,304.0219 Q925.4063,303.9 925.0687,303.9 Q924.6469,303.9 924.2906,304.0687 Q923.9437,304.2375 923.6719,304.6125 Q923.4,304.9875 923.4,305.5031 L923.4,306.0563 Q923.4,306.675 923.9063,307.0875 Q924.4125,307.5 925.3125,307.5 Q925.8469,307.5 926.2219,307.3781 Q926.4375,307.3125 926.6813,307.0969 Q926.8406,306.975 926.925,306.9375 Q927.0094,306.9 927.1125,306.9 Q927.3094,306.9 927.45,307.0594 Q927.6,307.2094 927.6,307.425 Q927.6,307.6312 927.3938,307.875 Q927.0938,308.2313 926.6156,308.4281 Q925.9875,308.7 925.2188,308.7 Q924.3187,308.7 923.5969,308.3438 Q923.0156,308.0625 922.6031,307.4531 Q922.2,306.8438 922.2,306.1219 L922.2,305.4656 Q922.2,304.7156 922.5563,304.0594 Q922.9219,303.4031 923.55,303.0563 Q924.1875,302.7 924.9,302.7 Q925.3313,302.7 925.7063,302.85 Q926.0813,303 926.4,303.3 Z " fill="#000000"/><text fill="#000000" font-family="sans-serif" font-size="8.4" lengthAdjust="spacing" textLength="68.4" x="933.6" y="308.8371">HealthCareCenter</text><line style="stroke:#181818;stroke-width:0.3;" x1="916.8" x2="1003.2" y1="315" y2="315"/><rect fill="none" height="3.6" style="stroke:#C82930;stroke-width:0.6;" width="3.6" x="921" y="319.8"/><text fill="#000000" font-family="sans-serif" font-size="8.4" lengthAdjust="spacing" textLength="43.2" x="928.2" y="326.1199">ARG/AGES</text><line style="stroke:#181818;stroke-width:0.3;" x1="916.8" x2="1003.2" y1="330.3656" y2="330.3656"/></g><!--MD5=[76480a6701b5d2883bc606a2560c3cfe]
class MassVaccinationCenter--><g id="elem_MassVaccinationCenter"><rect codeLine="23" fill="#F1F1F1" height="39.3656" id="MassVaccinationCenter" rx="1.5" ry="1.5" style="stroke:#181818;stroke-width:0.3;" width="108.6" x="1025.1" y="295.8"/><ellipse cx="1034.1" cy="305.4" fill="#ADD1B2" rx="6.6" ry="6.6" style="stroke:#181818;stroke-width:0.6;"/><path d="M1035.3,303.3 Q1035.4219,303 1035.5625,302.85 Q1035.7031,302.7 1035.8625,302.7 Q1036.1438,302.7 1036.3219,302.8688 Q1036.5,303.0375 1036.5,303.4313 L1036.5,304.3688 Q1036.5,304.7625 1036.3313,304.9313 Q1036.1625,305.1 1035.9,305.1 Q1035.6656,305.1 1035.5156,304.9969 Q1035.3656,304.8938 1035.3,304.6219 Q1035.2719,304.4344 1035.1688,304.3313 Q1034.9813,304.1344 1034.6438,304.0219 Q1034.3062,303.9 1033.9688,303.9 Q1033.5469,303.9 1033.1906,304.0687 Q1032.8438,304.2375 1032.5719,304.6125 Q1032.3,304.9875 1032.3,305.5031 L1032.3,306.0563 Q1032.3,306.675 1032.8062,307.0875 Q1033.3125,307.5 1034.2125,307.5 Q1034.7469,307.5 1035.1219,307.3781 Q1035.3375,307.3125 1035.5813,307.0969 Q1035.7406,306.975 1035.825,306.9375 Q1035.9094,306.9 1036.0125,306.9 Q1036.2094,306.9 1036.35,307.0594 Q1036.5,307.2094 1036.5,307.425 Q1036.5,307.6312 1036.2938,307.875 Q1035.9937,308.2313 1035.5156,308.4281 Q1034.8875,308.7 1034.1187,308.7 Q1033.2188,308.7 1032.4969,308.3438 Q1031.9156,308.0625 1031.5031,307.4531 Q1031.1,306.8438 1031.1,306.1219 L1031.1,305.4656 Q1031.1,304.7156 1031.4563,304.0594 Q1031.8219,303.4031 1032.45,303.0563 Q1033.0875,302.7 1033.8,302.7 Q1034.2313,302.7 1034.6063,302.85 Q1034.9813,303 1035.3,303.3 Z " fill="#000000"/><text fill="#000000" font-family="sans-serif" font-size="8.4" lengthAdjust="spacing" textLength="89.4" x="1042.5" y="308.8371">MassVaccinationCenter</text><line style="stroke:#181818;stroke-width:0.3;" x1="1025.7" x2="1133.1" y1="315" y2="315"/><rect fill="none" height="3.6" style="stroke:#C82930;stroke-width:0.6;" width="3.6" x="1029.9" y="319.8"/><text fill="#000000" font-family="sans-serif" font-size="8.4" lengthAdjust="spacing" textLength="49.2" x="1037.1" y="326.1199">VaccineType</text><line style="stroke:#181818;stroke-width:0.3;" x1="1025.7" x2="1133.1" y1="330.3656" y2="330.3656"/></g><!--MD5=[02e4b9b7573f1156f41e60aa5b4e25a4]
class Company--><g id="elem_Company"><rect codeLine="63" fill="#F1F1F1" height="39.3656" id="Company" rx="1.5" ry="1.5" style="stroke:#181818;stroke-width:0.3;" width="55.2" x="466.2" y="4.2"/><ellipse cx="475.2" cy="13.8" fill="#ADD1B2" rx="6.6" ry="6.6" style="stroke:#181818;stroke-width:0.6;"/><path d="M476.4,11.7 Q476.5219,11.4 476.6625,11.25 Q476.8031,11.1 476.9625,11.1 Q477.2438,11.1 477.4219,11.2687 Q477.6,11.4375 477.6,11.8312 L477.6,12.7687 Q477.6,13.1625 477.4313,13.3312 Q477.2625,13.5 477,13.5 Q476.7656,13.5 476.6156,13.3969 Q476.4656,13.2938 476.4,13.0219 Q476.3719,12.8344 476.2687,12.7313 Q476.0812,12.5344 475.7438,12.4219 Q475.4063,12.3 475.0687,12.3 Q474.6469,12.3 474.2906,12.4688 Q473.9437,12.6375 473.6719,13.0125 Q473.4,13.3875 473.4,13.9031 L473.4,14.4562 Q473.4,15.075 473.9063,15.4875 Q474.4125,15.9 475.3125,15.9 Q475.8469,15.9 476.2219,15.7781 Q476.4375,15.7125 476.6813,15.4969 Q476.8406,15.375 476.925,15.3375 Q477.0094,15.3 477.1125,15.3 Q477.3094,15.3 477.45,15.4594 Q477.6,15.6094 477.6,15.825 Q477.6,16.0313 477.3937,16.275 Q477.0938,16.6312 476.6156,16.8281 Q475.9875,17.1 475.2188,17.1 Q474.3187,17.1 473.5969,16.7438 Q473.0156,16.4625 472.6031,15.8531 Q472.2,15.2437 472.2,14.5219 L472.2,13.8656 Q472.2,13.1156 472.5563,12.4594 Q472.9219,11.8031 473.55,11.4562 Q474.1875,11.1 474.9,11.1 Q475.3312,11.1 475.7062,11.25 Q476.0812,11.4 476.4,11.7 Z " fill="#000000"/><text fill="#000000" font-family="sans-serif" font-size="8.4" lengthAdjust="spacing" textLength="36" x="483.6" y="17.2371">Company</text><line style="stroke:#181818;stroke-width:0.3;" x1="466.8" x2="520.8" y1="23.4" y2="23.4"/><rect fill="none" height="3.6" style="stroke:#C82930;stroke-width:0.6;" width="3.6" x="471" y="28.2"/><text fill="#000000" font-family="sans-serif" font-size="8.4" lengthAdjust="spacing" textLength="21" x="478.2" y="34.5199">name</text><line style="stroke:#181818;stroke-width:0.3;" x1="466.8" x2="520.8" y1="38.7656" y2="38.7656"/></g><!--MD5=[a87fd7e31e08e6ee61dd7fb9ab974181]
class VaccinationEvent--><g id="elem_VaccinationEvent"><rect codeLine="4" fill="#F1F1F1" height="28.8" id="VaccinationEvent" rx="1.5" ry="1.5" style="stroke:#181818;stroke-width:0.3;" width="84.6" x="429.3" y="425.7"/><ellipse cx="438.3" cy="435.3" fill="#ADD1B2" rx="6.6" ry="6.6" style="stroke:#181818;stroke-width:0.6;"/><path d="M439.5,433.2 Q439.6219,432.9 439.7625,432.75 Q439.9031,432.6 440.0625,432.6 Q440.3438,432.6 440.5219,432.7688 Q440.7,432.9375 440.7,433.3313 L440.7,434.2688 Q440.7,434.6625 440.5313,434.8313 Q440.3625,435 440.1,435 Q439.8656,435 439.7156,434.8969 Q439.5656,434.7938 439.5,434.5219 Q439.4719,434.3344 439.3688,434.2313 Q439.1813,434.0344 438.8438,433.9219 Q438.5062,433.8 438.1688,433.8 Q437.7469,433.8 437.3906,433.9688 Q437.0438,434.1375 436.7719,434.5125 Q436.5,434.8875 436.5,435.4031 L436.5,435.9563 Q436.5,436.575 437.0062,436.9875 Q437.5125,437.4 438.4125,437.4 Q438.9469,437.4 439.3219,437.2781 Q439.5375,437.2125 439.7813,436.9969 Q439.9406,436.875 440.025,436.8375 Q440.1094,436.8 440.2125,436.8 Q440.4094,436.8 440.55,436.9594 Q440.7,437.1094 440.7,437.325 Q440.7,437.5313 440.4938,437.775 Q440.1937,438.1312 439.7156,438.3281 Q439.0875,438.6 438.3187,438.6 Q437.4188,438.6 436.6969,438.2438 Q436.1156,437.9625 435.7031,437.3531 Q435.3,436.7438 435.3,436.0219 L435.3,435.3656 Q435.3,434.6156 435.6563,433.9594 Q436.0219,433.3031 436.65,432.9563 Q437.2875,432.6 438,432.6 Q438.4313,432.6 438.8063,432.75 Q439.1813,432.9 439.5,433.2 Z " fill="#000000"/><text fill="#000000" font-family="sans-serif" font-size="8.4" lengthAdjust="spacing" textLength="65.4" x="446.7" y="438.7371">VaccinationEvent</text><line style="stroke:#181818;stroke-width:0.3;" x1="429.9" x2="513.3" y1="444.9" y2="444.9"/><line style="stroke:#181818;stroke-width:0.3;" x1="429.9" x2="513.3" y1="449.7" y2="449.7"/></g><!--MD5=[f24502e7c9b1056c4d1f73c3d80dda4c]
class RecoveryRoom--><g id="elem_RecoveryRoom"><rect codeLine="5" fill="#F1F1F1" height="28.8" id="RecoveryRoom" rx="1.5" ry="1.5" style="stroke:#181818;stroke-width:0.3;" width="77.4" x="653.1" y="301.2"/><ellipse cx="662.1" cy="310.8" fill="#ADD1B2" rx="6.6" ry="6.6" style="stroke:#181818;stroke-width:0.6;"/><path d="M663.3,308.7 Q663.4219,308.4 663.5625,308.25 Q663.7031,308.1 663.8625,308.1 Q664.1438,308.1 664.3219,308.2688 Q664.5,308.4375 664.5,308.8313 L664.5,309.7688 Q664.5,310.1625 664.3313,310.3313 Q664.1625,310.5 663.9,310.5 Q663.6656,310.5 663.5156,310.3969 Q663.3656,310.2938 663.3,310.0219 Q663.2719,309.8344 663.1687,309.7313 Q662.9812,309.5344 662.6438,309.4219 Q662.3063,309.3 661.9688,309.3 Q661.5469,309.3 661.1906,309.4688 Q660.8438,309.6375 660.5719,310.0125 Q660.3,310.3875 660.3,310.9031 L660.3,311.4563 Q660.3,312.075 660.8063,312.4875 Q661.3125,312.9 662.2125,312.9 Q662.7469,312.9 663.1219,312.7781 Q663.3375,312.7125 663.5813,312.4969 Q663.7406,312.375 663.825,312.3375 Q663.9094,312.3 664.0125,312.3 Q664.2094,312.3 664.35,312.4594 Q664.5,312.6094 664.5,312.825 Q664.5,313.0313 664.2937,313.275 Q663.9938,313.6312 663.5156,313.8281 Q662.8875,314.1 662.1188,314.1 Q661.2188,314.1 660.4969,313.7438 Q659.9156,313.4625 659.5031,312.8531 Q659.1,312.2438 659.1,311.5219 L659.1,310.8656 Q659.1,310.1156 659.4563,309.4594 Q659.8219,308.8031 660.45,308.4563 Q661.0875,308.1 661.8,308.1 Q662.2312,308.1 662.6062,308.25 Q662.9812,308.4 663.3,308.7 Z " fill="#000000"/><text fill="#000000" font-family="sans-serif" font-size="8.4" lengthAdjust="spacing" textLength="58.2" x="670.5" y="314.2371">RecoveryRoom</text><line style="stroke:#181818;stroke-width:0.3;" x1="653.7" x2="729.9" y1="320.4" y2="320.4"/><line style="stroke:#181818;stroke-width:0.3;" x1="653.7" x2="729.9" y1="325.2" y2="325.2"/></g><!--MD5=[76b5e19c9337179d2d7ae334371d68c8]
class Notification--><g id="elem_Notification"><rect codeLine="6" fill="#F1F1F1" height="28.8" id="Notification" rx="1.5" ry="1.5" style="stroke:#181818;stroke-width:0.3;" width="60.6" x="661.5" y="559.5"/><ellipse cx="670.5" cy="569.1" fill="#ADD1B2" rx="6.6" ry="6.6" style="stroke:#181818;stroke-width:0.6;"/><path d="M671.7,567 Q671.8219,566.7 671.9625,566.55 Q672.1031,566.4 672.2625,566.4 Q672.5437,566.4 672.7219,566.5688 Q672.9,566.7375 672.9,567.1313 L672.9,568.0688 Q672.9,568.4625 672.7312,568.6313 Q672.5625,568.8 672.3,568.8 Q672.0656,568.8 671.9156,568.6969 Q671.7656,568.5938 671.7,568.3219 Q671.6719,568.1344 671.5688,568.0313 Q671.3813,567.8344 671.0437,567.7219 Q670.7063,567.6 670.3688,567.6 Q669.9469,567.6 669.5906,567.7688 Q669.2438,567.9375 668.9719,568.3125 Q668.7,568.6875 668.7,569.2031 L668.7,569.7563 Q668.7,570.375 669.2063,570.7875 Q669.7125,571.2 670.6125,571.2 Q671.1469,571.2 671.5219,571.0781 Q671.7375,571.0125 671.9812,570.7969 Q672.1406,570.675 672.225,570.6375 Q672.3094,570.6 672.4125,570.6 Q672.6094,570.6 672.75,570.7594 Q672.9,570.9094 672.9,571.125 Q672.9,571.3313 672.6938,571.575 Q672.3938,571.9313 671.9156,572.1281 Q671.2875,572.4 670.5188,572.4 Q669.6188,572.4 668.8969,572.0437 Q668.3156,571.7625 667.9031,571.1531 Q667.5,570.5437 667.5,569.8219 L667.5,569.1656 Q667.5,568.4156 667.8562,567.7594 Q668.2219,567.1031 668.85,566.7563 Q669.4875,566.4 670.2,566.4 Q670.6313,566.4 671.0063,566.55 Q671.3813,566.7 671.7,567 Z " fill="#000000"/><text fill="#000000" font-family="sans-serif" font-size="8.4" lengthAdjust="spacing" textLength="41.4" x="678.9" y="572.5371">Notification</text><line style="stroke:#181818;stroke-width:0.3;" x1="662.1" x2="721.5" y1="578.7" y2="578.7"/><line style="stroke:#181818;stroke-width:0.3;" x1="662.1" x2="721.5" y1="583.5" y2="583.5"/></g><!--MD5=[7e2bc2f128e759c5889ccd6a2666d576]
class EmailNotification--><g id="elem_EmailNotification"><rect codeLine="7" fill="#F1F1F1" height="28.8" id="EmailNotification" rx="1.5" ry="1.5" style="stroke:#181818;stroke-width:0.3;" width="81" x="600.9" y="640.8"/><ellipse cx="609.9" cy="650.4" fill="#ADD1B2" rx="6.6" ry="6.6" style="stroke:#181818;stroke-width:0.6;"/><path d="M611.1,648.3 Q611.2219,648 611.3625,647.85 Q611.5031,647.7 611.6625,647.7 Q611.9438,647.7 612.1219,647.8688 Q612.3,648.0375 612.3,648.4313 L612.3,649.3688 Q612.3,649.7625 612.1313,649.9313 Q611.9625,650.1 611.7,650.1 Q611.4656,650.1 611.3156,649.9969 Q611.1656,649.8938 611.1,649.6219 Q611.0719,649.4344 610.9688,649.3313 Q610.7813,649.1344 610.4438,649.0219 Q610.1062,648.9 609.7688,648.9 Q609.3469,648.9 608.9906,649.0688 Q608.6438,649.2375 608.3719,649.6125 Q608.1,649.9875 608.1,650.5031 L608.1,651.0563 Q608.1,651.675 608.6062,652.0875 Q609.1125,652.5 610.0125,652.5 Q610.5469,652.5 610.9219,652.3781 Q611.1375,652.3125 611.3813,652.0969 Q611.5406,651.975 611.625,651.9375 Q611.7094,651.9 611.8125,651.9 Q612.0094,651.9 612.15,652.0594 Q612.3,652.2094 612.3,652.425 Q612.3,652.6313 612.0938,652.875 Q611.7937,653.2312 611.3156,653.4281 Q610.6875,653.7 609.9187,653.7 Q609.0188,653.7 608.2969,653.3438 Q607.7156,653.0625 607.3031,652.4531 Q606.9,651.8438 606.9,651.1219 L606.9,650.4656 Q606.9,649.7156 607.2563,649.0594 Q607.6219,648.4031 608.25,648.0563 Q608.8875,647.7 609.6,647.7 Q610.0313,647.7 610.4063,647.85 Q610.7813,648 611.1,648.3 Z " fill="#000000"/><text fill="#000000" font-family="sans-serif" font-size="8.4" lengthAdjust="spacing" textLength="61.8" x="618.3" y="653.8371">EmailNotification</text><line style="stroke:#181818;stroke-width:0.3;" x1="601.5" x2="681.3" y1="660" y2="660"/><line style="stroke:#181818;stroke-width:0.3;" x1="601.5" x2="681.3" y1="664.8" y2="664.8"/></g><!--MD5=[17d776304760d17bcc13ba401441cbdd]
class SMSNotification--><g id="elem_SMSNotification"><rect codeLine="8" fill="#F1F1F1" height="28.8" id="SMSNotification" rx="1.5" ry="1.5" style="stroke:#181818;stroke-width:0.3;" width="78" x="703.2" y="640.8"/><ellipse cx="712.2" cy="650.4" fill="#ADD1B2" rx="6.6" ry="6.6" style="stroke:#181818;stroke-width:0.6;"/><path d="M713.4,648.3 Q713.5219,648 713.6625,647.85 Q713.8031,647.7 713.9625,647.7 Q714.2438,647.7 714.4219,647.8688 Q714.6,648.0375 714.6,648.4313 L714.6,649.3688 Q714.6,649.7625 714.4313,649.9313 Q714.2625,650.1 714,650.1 Q713.7656,650.1 713.6156,649.9969 Q713.4656,649.8938 713.4,649.6219 Q713.3719,649.4344 713.2688,649.3313 Q713.0813,649.1344 712.7438,649.0219 Q712.4063,648.9 712.0688,648.9 Q711.6469,648.9 711.2906,649.0688 Q710.9438,649.2375 710.6719,649.6125 Q710.4,649.9875 710.4,650.5031 L710.4,651.0563 Q710.4,651.675 710.9063,652.0875 Q711.4125,652.5 712.3125,652.5 Q712.8469,652.5 713.2219,652.3781 Q713.4375,652.3125 713.6813,652.0969 Q713.8406,651.975 713.925,651.9375 Q714.0094,651.9 714.1125,651.9 Q714.3094,651.9 714.45,652.0594 Q714.6,652.2094 714.6,652.425 Q714.6,652.6313 714.3938,652.875 Q714.0938,653.2312 713.6156,653.4281 Q712.9875,653.7 712.2188,653.7 Q711.3188,653.7 710.5969,653.3438 Q710.0156,653.0625 709.6031,652.4531 Q709.2,651.8438 709.2,651.1219 L709.2,650.4656 Q709.2,649.7156 709.5563,649.0594 Q709.9219,648.4031 710.55,648.0563 Q711.1875,647.7 711.9,647.7 Q712.3313,647.7 712.7063,647.85 Q713.0813,648 713.4,648.3 Z " fill="#000000"/><text fill="#000000" font-family="sans-serif" font-size="8.4" lengthAdjust="spacing" textLength="58.8" x="720.6" y="653.8371">SMSNotification</text><line style="stroke:#181818;stroke-width:0.3;" x1="703.8" x2="780.6" y1="660" y2="660"/><line style="stroke:#181818;stroke-width:0.3;" x1="703.8" x2="780.6" y1="664.8" y2="664.8"/></g><!--MD5=[19e445fc4d3b48519cbe33da05496394]
class Vaccine--><g id="elem_Vaccine"><rect codeLine="53" fill="#F1F1F1" height="102.7594" id="Vaccine" rx="1.5" ry="1.5" style="stroke:#181818;stroke-width:0.3;" width="217.2" x="4.2" y="125.1"/><ellipse cx="95.25" cy="134.7" fill="#ADD1B2" rx="6.6" ry="6.6" style="stroke:#181818;stroke-width:0.6;"/><path d="M96.45,132.6 Q96.5719,132.3 96.7125,132.15 Q96.8531,132 97.0125,132 Q97.2938,132 97.4719,132.1688 Q97.65,132.3375 97.65,132.7313 L97.65,133.6688 Q97.65,134.0625 97.4813,134.2313 Q97.3125,134.4 97.05,134.4 Q96.8156,134.4 96.6656,134.2969 Q96.5156,134.1938 96.45,133.9219 Q96.4219,133.7344 96.3188,133.6313 Q96.1313,133.4344 95.7938,133.3219 Q95.4563,133.2 95.1187,133.2 Q94.6969,133.2 94.3406,133.3688 Q93.9937,133.5375 93.7219,133.9125 Q93.45,134.2875 93.45,134.8031 L93.45,135.3563 Q93.45,135.975 93.9563,136.3875 Q94.4625,136.8 95.3625,136.8 Q95.8969,136.8 96.2719,136.6781 Q96.4875,136.6125 96.7313,136.3969 Q96.8906,136.275 96.975,136.2375 Q97.0594,136.2 97.1625,136.2 Q97.3594,136.2 97.5,136.3594 Q97.65,136.5094 97.65,136.725 Q97.65,136.9313 97.4438,137.175 Q97.1438,137.5313 96.6656,137.7281 Q96.0375,138 95.2688,138 Q94.3687,138 93.6469,137.6437 Q93.0656,137.3625 92.6531,136.7531 Q92.25,136.1437 92.25,135.4219 L92.25,134.7656 Q92.25,134.0156 92.6063,133.3594 Q92.9719,132.7031 93.6,132.3563 Q94.2375,132 94.95,132 Q95.3813,132 95.7563,132.15 Q96.1313,132.3 96.45,132.6 Z " fill="#000000"/><text fill="#000000" font-family="sans-serif" font-size="8.4" lengthAdjust="spacing" textLength="30" x="107.55" y="138.1371">Vaccine</text><line style="stroke:#181818;stroke-width:0.3;" x1="4.8" x2="220.8" y1="144.3" y2="144.3"/><rect fill="none" height="3.6" style="stroke:#C82930;stroke-width:0.6;" width="3.6" x="9" y="149.1"/><text fill="#000000" font-family="sans-serif" font-size="8.4" lengthAdjust="spacing" textLength="21" x="16.2" y="155.4199">name</text><rect fill="none" height="3.6" style="stroke:#C82930;stroke-width:0.6;" width="3.6" x="9" y="159.6656"/><text fill="#000000" font-family="sans-serif" font-size="8.4" lengthAdjust="spacing" textLength="22.2" x="16.2" y="165.9855">brand</text><rect fill="none" height="3.6" style="stroke:#C82930;stroke-width:0.6;" width="3.6" x="9" y="170.2313"/><text fill="#000000" font-family="sans-serif" font-size="8.4" lengthAdjust="spacing" textLength="16.2" x="16.2" y="176.5512">type</text><rect fill="none" height="3.6" style="stroke:#C82930;stroke-width:0.6;" width="3.6" x="9" y="180.7969"/><text fill="#000000" font-family="sans-serif" font-size="8.4" lengthAdjust="spacing" textLength="43.2" x="16.2" y="187.1168">age groups</text><rect fill="none" height="3.6" style="stroke:#C82930;stroke-width:0.6;" width="3.6" x="9" y="191.3625"/><text fill="#000000" font-family="sans-serif" font-size="8.4" lengthAdjust="spacing" textLength="89.4" x="16.2" y="197.6824">vaccines per age group</text><rect fill="none" height="3.6" style="stroke:#C82930;stroke-width:0.6;" width="3.6" x="9" y="201.9281"/><text fill="#000000" font-family="sans-serif" font-size="8.4" lengthAdjust="spacing" textLength="28.2" x="16.2" y="208.248">dosage</text><rect fill="none" height="3.6" style="stroke:#C82930;stroke-width:0.6;" width="3.6" x="9" y="212.4938"/><text fill="#000000" font-family="sans-serif" font-size="8.4" lengthAdjust="spacing" textLength="201.6" x="16.2" y="218.8137">time interval regarding previous vaccine administered</text><line style="stroke:#181818;stroke-width:0.3;" x1="4.8" x2="220.8" y1="223.0594" y2="223.0594"/></g><!--MD5=[0e501da62322464167c8ec4d233a6b7e]
class VaccineType--><g id="elem_VaccineType"><rect codeLine="67" fill="#F1F1F1" height="60.4969" id="VaccineType" rx="1.5" ry="1.5" style="stroke:#181818;stroke-width:0.3;" width="68.4" x="381.6" y="543.6"/><ellipse cx="390.6" cy="553.2" fill="#ADD1B2" rx="6.6" ry="6.6" style="stroke:#181818;stroke-width:0.6;"/><path d="M391.8,551.1 Q391.9219,550.8 392.0625,550.65 Q392.2031,550.5 392.3625,550.5 Q392.6438,550.5 392.8219,550.6687 Q393,550.8375 393,551.2312 L393,552.1687 Q393,552.5625 392.8313,552.7312 Q392.6625,552.9 392.4,552.9 Q392.1656,552.9 392.0156,552.7969 Q391.8656,552.6938 391.8,552.4219 Q391.7719,552.2344 391.6688,552.1313 Q391.4813,551.9344 391.1438,551.8219 Q390.8063,551.7 390.4688,551.7 Q390.0469,551.7 389.6906,551.8688 Q389.3438,552.0375 389.0719,552.4125 Q388.8,552.7875 388.8,553.3031 L388.8,553.8562 Q388.8,554.475 389.3063,554.8875 Q389.8125,555.3 390.7125,555.3 Q391.2469,555.3 391.6219,555.1781 Q391.8375,555.1125 392.0813,554.8969 Q392.2406,554.775 392.325,554.7375 Q392.4094,554.7 392.5125,554.7 Q392.7094,554.7 392.85,554.8594 Q393,555.0094 393,555.225 Q393,555.4313 392.7938,555.675 Q392.4938,556.0313 392.0156,556.2281 Q391.3875,556.5 390.6188,556.5 Q389.7188,556.5 388.9969,556.1438 Q388.4156,555.8625 388.0031,555.2531 Q387.6,554.6438 387.6,553.9219 L387.6,553.2656 Q387.6,552.5156 387.9563,551.8594 Q388.3219,551.2031 388.95,550.8562 Q389.5875,550.5 390.3,550.5 Q390.7313,550.5 391.1063,550.65 Q391.4813,550.8 391.8,551.1 Z " fill="#000000"/><text fill="#000000" font-family="sans-serif" font-size="8.4" lengthAdjust="spacing" textLength="49.2" x="399" y="556.6371">VaccineType</text><line style="stroke:#181818;stroke-width:0.3;" x1="382.2" x2="449.4" y1="562.8" y2="562.8"/><rect fill="none" height="3.6" style="stroke:#C82930;stroke-width:0.6;" width="3.6" x="386.4" y="567.6"/><text fill="#000000" font-family="sans-serif" font-size="8.4" lengthAdjust="spacing" textLength="20.4" x="393.6" y="573.9199">Code</text><rect fill="none" height="3.6" style="stroke:#C82930;stroke-width:0.6;" width="3.6" x="386.4" y="578.1656"/><text fill="#000000" font-family="sans-serif" font-size="8.4" lengthAdjust="spacing" textLength="42.6" x="393.6" y="584.4855">Description</text><rect fill="none" height="3.6" style="stroke:#C82930;stroke-width:0.6;" width="3.6" x="386.4" y="588.7312"/><text fill="#000000" font-family="sans-serif" font-size="8.4" lengthAdjust="spacing" textLength="44.4" x="393.6" y="595.0512">Technology</text><line style="stroke:#181818;stroke-width:0.3;" x1="382.2" x2="449.4" y1="599.2969" y2="599.2969"/></g><!--MD5=[aaa7e27c4ec43917c82a021675d2c87a]
class WaitingRoom--><g id="elem_WaitingRoom"><rect codeLine="11" fill="#F1F1F1" height="28.8" id="WaitingRoom" rx="1.5" ry="1.5" style="stroke:#181818;stroke-width:0.3;" width="69.6" x="295.8" y="301.2"/><ellipse cx="304.8" cy="310.8" fill="#ADD1B2" rx="6.6" ry="6.6" style="stroke:#181818;stroke-width:0.6;"/><path d="M306,308.7 Q306.1219,308.4 306.2625,308.25 Q306.4031,308.1 306.5625,308.1 Q306.8438,308.1 307.0219,308.2688 Q307.2,308.4375 307.2,308.8313 L307.2,309.7688 Q307.2,310.1625 307.0313,310.3313 Q306.8625,310.5 306.6,310.5 Q306.3656,310.5 306.2156,310.3969 Q306.0656,310.2938 306,310.0219 Q305.9719,309.8344 305.8688,309.7313 Q305.6813,309.5344 305.3438,309.4219 Q305.0062,309.3 304.6688,309.3 Q304.2469,309.3 303.8906,309.4688 Q303.5438,309.6375 303.2719,310.0125 Q303,310.3875 303,310.9031 L303,311.4563 Q303,312.075 303.5062,312.4875 Q304.0125,312.9 304.9125,312.9 Q305.4469,312.9 305.8219,312.7781 Q306.0375,312.7125 306.2813,312.4969 Q306.4406,312.375 306.525,312.3375 Q306.6094,312.3 306.7125,312.3 Q306.9094,312.3 307.05,312.4594 Q307.2,312.6094 307.2,312.825 Q307.2,313.0313 306.9938,313.275 Q306.6937,313.6312 306.2156,313.8281 Q305.5875,314.1 304.8187,314.1 Q303.9188,314.1 303.1969,313.7438 Q302.6156,313.4625 302.2031,312.8531 Q301.8,312.2438 301.8,311.5219 L301.8,310.8656 Q301.8,310.1156 302.1563,309.4594 Q302.5219,308.8031 303.15,308.4563 Q303.7875,308.1 304.5,308.1 Q304.9313,308.1 305.3063,308.25 Q305.6813,308.4 306,308.7 Z " fill="#000000"/><text fill="#000000" font-family="sans-serif" font-size="8.4" lengthAdjust="spacing" textLength="50.4" x="313.2" y="314.2371">WaitingRoom</text><line style="stroke:#181818;stroke-width:0.3;" x1="296.4" x2="364.8" y1="320.4" y2="320.4"/><line style="stroke:#181818;stroke-width:0.3;" x1="296.4" x2="364.8" y1="325.2" y2="325.2"/></g><!--MD5=[72be06cc7ae02ccc98efe28a50e62246]
class SNSUser--><g id="elem_SNSUser"><rect codeLine="28" fill="#F1F1F1" height="113.325" id="SNSUser" rx="1.5" ry="1.5" style="stroke:#181818;stroke-width:0.3;" width="91.2" x="646.2" y="383.4"/><ellipse cx="672.48" cy="393" fill="#ADD1B2" rx="6.6" ry="6.6" style="stroke:#181818;stroke-width:0.6;"/><path d="M673.68,390.9 Q673.8019,390.6 673.9425,390.45 Q674.0831,390.3 674.2425,390.3 Q674.5238,390.3 674.7019,390.4688 Q674.88,390.6375 674.88,391.0313 L674.88,391.9688 Q674.88,392.3625 674.7113,392.5313 Q674.5425,392.7 674.28,392.7 Q674.0456,392.7 673.8956,392.5969 Q673.7456,392.4938 673.68,392.2219 Q673.6519,392.0344 673.5487,391.9313 Q673.3612,391.7344 673.0238,391.6219 Q672.6863,391.5 672.3488,391.5 Q671.9269,391.5 671.5706,391.6688 Q671.2238,391.8375 670.9519,392.2125 Q670.68,392.5875 670.68,393.1031 L670.68,393.6563 Q670.68,394.275 671.1863,394.6875 Q671.6925,395.1 672.5925,395.1 Q673.1269,395.1 673.5019,394.9781 Q673.7175,394.9125 673.9613,394.6969 Q674.1206,394.575 674.205,394.5375 Q674.2894,394.5 674.3925,394.5 Q674.5894,394.5 674.73,394.6594 Q674.88,394.8094 674.88,395.025 Q674.88,395.2313 674.6737,395.475 Q674.3738,395.8313 673.8956,396.0281 Q673.2675,396.3 672.4988,396.3 Q671.5988,396.3 670.8769,395.9437 Q670.2956,395.6625 669.8831,395.0531 Q669.48,394.4437 669.48,393.7219 L669.48,393.0656 Q669.48,392.3156 669.8363,391.6594 Q670.2019,391.0031 670.83,390.6563 Q671.4675,390.3 672.18,390.3 Q672.6112,390.3 672.9862,390.45 Q673.3612,390.6 673.68,390.9 Z " fill="#000000"/><text fill="#000000" font-family="sans-serif" font-size="8.4" lengthAdjust="spacing" textLength="33.6" x="684.72" y="396.4371">SNSUser</text><line style="stroke:#181818;stroke-width:0.3;" x1="646.8" x2="736.8" y1="402.6" y2="402.6"/><rect fill="none" height="3.6" style="stroke:#C82930;stroke-width:0.6;" width="3.6" x="651" y="407.4"/><text fill="#000000" font-family="sans-serif" font-size="8.4" lengthAdjust="spacing" textLength="21" x="658.2" y="413.7199">name</text><rect fill="none" height="3.6" style="stroke:#C82930;stroke-width:0.6;" width="3.6" x="651" y="417.9656"/><text fill="#000000" font-family="sans-serif" font-size="8.4" lengthAdjust="spacing" textLength="12.6" x="658.2" y="424.2855">sex</text><rect fill="none" height="3.6" style="stroke:#C82930;stroke-width:0.6;" width="3.6" x="651" y="428.5313"/><text fill="#000000" font-family="sans-serif" font-size="8.4" lengthAdjust="spacing" textLength="37.8" x="658.2" y="434.8512">Birth Date</text><rect fill="none" height="3.6" style="stroke:#C82930;stroke-width:0.6;" width="3.6" x="651" y="439.0969"/><text fill="#000000" font-family="sans-serif" font-size="8.4" lengthAdjust="spacing" textLength="31.2" x="658.2" y="445.4168">Address</text><rect fill="none" height="3.6" style="stroke:#C82930;stroke-width:0.6;" width="3.6" x="651" y="449.6625"/><text fill="#000000" font-family="sans-serif" font-size="8.4" lengthAdjust="spacing" textLength="55.8" x="658.2" y="455.9824">Phone number</text><rect fill="none" height="3.6" style="stroke:#C82930;stroke-width:0.6;" width="3.6" x="651" y="460.2281"/><text fill="#000000" font-family="sans-serif" font-size="8.4" lengthAdjust="spacing" textLength="23.4" x="658.2" y="466.548">E-mail</text><rect fill="none" height="3.6" style="stroke:#C82930;stroke-width:0.6;" width="3.6" x="651" y="470.7938"/><text fill="#000000" font-family="sans-serif" font-size="8.4" lengthAdjust="spacing" textLength="47.4" x="658.2" y="477.1137">SNS number</text><rect fill="none" height="3.6" style="stroke:#C82930;stroke-width:0.6;" width="3.6" x="651" y="481.3594"/><text fill="#000000" font-family="sans-serif" font-size="8.4" lengthAdjust="spacing" textLength="75.6" x="658.2" y="487.6793">Citizen card number</text><line style="stroke:#181818;stroke-width:0.3;" x1="646.8" x2="736.8" y1="491.925" y2="491.925"/></g><!--MD5=[a069fefa93fe627f96a6b9d57d25b567]
reverse link Notification to EmailNotification--><g id="link_Notification_EmailNotification"><path d="M676.608,598.644 C667.998,612.33 657.522,628.974 650.25,640.536 " fill="none" id="Notification-backto-EmailNotification" style="stroke:#181818;stroke-width:0.6;"/><polygon fill="none" points="673.074,596.37,683.022,588.45,680.184,600.846,673.074,596.37" style="stroke:#181818;stroke-width:0.6;"/></g><!--MD5=[0e746bf0fb50d7a50210c7c405534661]
reverse link Notification to SMSNotification--><g id="link_Notification_SMSNotification"><path d="M706.992,598.644 C715.602,612.33 726.078,628.974 733.35,640.536 " fill="none" id="Notification-backto-SMSNotification" style="stroke:#181818;stroke-width:0.6;"/><polygon fill="none" points="703.416,600.846,700.578,588.45,710.526,596.37,703.416,600.846" style="stroke:#181818;stroke-width:0.6;"/></g><!--MD5=[4d7f47162e377c4884c583baac9698b3]
reverse link VaccinationCenter to HealthCareCenter--><g id="link_VaccinationCenter_HealthCareCenter"><path d="M967.74,261.066 C965.88,274.002 964.134,286.194 962.766,295.704 " fill="none" id="VaccinationCenter-backto-HealthCareCenter" style="stroke:#181818;stroke-width:0.6;"/><polygon fill="none" points="963.606,260.316,969.468,249.03,971.916,261.504,963.606,260.316" style="stroke:#181818;stroke-width:0.6;"/></g><!--MD5=[a09fc339ad85d4e67aa3195beeccb7d9]
reverse link VaccinationCenter to MassVaccinationCenter--><g id="link_VaccinationCenter_MassVaccinationCenter"><path d="M1038.894,258.882 C1048.818,272.622 1058.226,285.66 1065.474,295.704 " fill="none" id="VaccinationCenter-backto-MassVaccinationCenter" style="stroke:#181818;stroke-width:0.6;"/><polygon fill="none" points="1035.408,261.222,1031.79,249.03,1042.218,256.302,1035.408,261.222" style="stroke:#181818;stroke-width:0.6;"/></g><!--MD5=[588212555811379b392de144c0b7707c]
link Nurse to VaccineType--><g id="link_Nurse_VaccineType"><path codeLine="76" d="M446.256,190.902 C438.456,220.656 420.696,292.806 414.6,354.6 C407.964,421.86 411.138,501.318 413.688,543.498 " fill="none" id="Nurse-VaccineType" style="stroke:#181818;stroke-width:0.6;"/><polygon fill="#000000" points="417.3241,363.0928,419.5791,357.8509,416.0673,357.5265,417.3241,363.0928" style="stroke:#000000;stroke-width:0.6;"/><text fill="#000000" font-family="sans-serif" font-size="7.8" lengthAdjust="spacing" textLength="36" x="423" y="363.2971">administer</text><text fill="#000000" font-family="sans-serif" font-size="7.8" lengthAdjust="spacing" textLength="12" x="446.8059" y="203.7296">1..*</text><text fill="#000000" font-family="sans-serif" font-size="7.8" lengthAdjust="spacing" textLength="12" x="400.5473" y="537.0669">1..*</text></g><!--MD5=[44ce67b9ae4b4a4a3bd0ed01886d6243]
link Nurse to SNSUser--><g id="link_Nurse_SNSUser"><path codeLine="77" d="M456.912,191.034 C476.124,229.902 529.572,336.936 541.8,349.8 C571.278,380.808 613.788,404.868 646.032,420.234 " fill="none" id="Nurse-SNSUser" style="stroke:#181818;stroke-width:0.6;"/><polygon fill="#000000" points="546.7093,318.0194,544.6154,312.7112,541.8952,314.9557,546.7093,318.0194" style="stroke:#000000;stroke-width:0.6;"/><text fill="#000000" font-family="sans-serif" font-size="7.8" lengthAdjust="spacing" textLength="91.8" x="550.2" y="318.8971">checks if he/she is waiting</text><text fill="#000000" font-family="sans-serif" font-size="7.8" lengthAdjust="spacing" textLength="12" x="459.8979" y="203.6496">1..*</text><text fill="#000000" font-family="sans-serif" font-size="7.8" lengthAdjust="spacing" textLength="12" x="629.4214" y="416.547">1..*</text></g><!--MD5=[da6369d9904787f9a0071813698018a1]
link Nurse to RecoveryRoom--><g id="link_Nurse_RecoveryRoom"><path codeLine="78" d="M470.826,188.886 C515.442,214.35 620.058,274.056 667.566,301.17 " fill="none" id="Nurse-RecoveryRoom" style="stroke:#181818;stroke-width:0.6;"/><polygon fill="#000000" points="625.4055,273.9925,621.5661,269.7709,619.818,272.8339,625.4055,273.9925" style="stroke:#000000;stroke-width:0.6;"/><text fill="#000000" font-family="sans-serif" font-size="7.8" lengthAdjust="spacing" textLength="55.8" x="628.2" y="275.6971">sends patient to</text><text fill="#000000" font-family="sans-serif" font-size="7.8" lengthAdjust="spacing" textLength="12" x="475.4367" y="188.7222">1..*</text><text fill="#000000" font-family="sans-serif" font-size="7.8" lengthAdjust="spacing" textLength="12" x="647.8185" y="294.7664">1..*</text></g><!--MD5=[b3a837ec6bd4484894fbf67ce79a2dc5]
link Nurse to VaccinationEvent--><g id="link_Nurse_VaccinationEvent"><path codeLine="79" d="M451.146,190.926 C454.89,236.4 466.722,380.184 470.454,425.604 " fill="none" id="Nurse-VaccinationEvent" style="stroke:#181818;stroke-width:0.6;"/><polygon fill="#000000" points="467.046,318.6954,468.3584,313.142,464.8436,313.4312,467.046,318.6954" style="stroke:#000000;stroke-width:0.6;"/><text fill="#000000" font-family="sans-serif" font-size="7.8" lengthAdjust="spacing" textLength="30" x="472.2" y="318.8971">performs</text><text fill="#000000" font-family="sans-serif" font-size="7.8" lengthAdjust="spacing" textLength="12" x="437.9628" y="203.7595">1..*</text><text fill="#000000" font-family="sans-serif" font-size="7.8" lengthAdjust="spacing" textLength="12" x="456.6228" y="419.1835">1..*</text></g><!--MD5=[aa988044c6ccb0a3eab3a4065e30c3e5]
link Nurse to WaitingRoom--><g id="link_Nurse_WaitingRoom"><path codeLine="80" d="M429.156,184.362 C398.88,196.332 343.86,223.176 321,267 C315.456,277.626 318.936,291.108 323.172,301.074 " fill="none" id="Nurse-WaitingRoom" style="stroke:#181818;stroke-width:0.6;"/><polygon fill="#000000" points="321.9832,274.7264,326.9371,271.8941,324.3262,269.5233,321.9832,274.7264" style="stroke:#000000;stroke-width:0.6;"/><text fill="#000000" font-family="sans-serif" font-size="7.8" lengthAdjust="spacing" textLength="59.4" x="329.4" y="275.6971">consults patients</text><text fill="#000000" font-family="sans-serif" font-size="7.8" lengthAdjust="spacing" textLength="12" x="412.5422" y="183.4207">1..*</text><text fill="#000000" font-family="sans-serif" font-size="7.8" lengthAdjust="spacing" textLength="4.2" x="316.5305" y="294.6458">1</text></g><!--MD5=[eebe9b198877275d05dd12630ed9e401]
link Company to VaccinationCenter--><g id="link_Company_VaccinationCenter"><path codeLine="82" d="M521.514,25.26 C571.224,27.132 678.33,34.302 763.8,61.8 C817.992,79.236 874.746,109.734 916.476,134.802 " fill="none" id="Company-VaccinationCenter" style="stroke:#181818;stroke-width:0.6;"/><polygon fill="#000000" points="794.2909,68.1072,789.5325,64.9576,788.59,68.356,794.2909,68.1072" style="stroke:#000000;stroke-width:0.6;"/><text fill="#000000" font-family="sans-serif" font-size="7.8" lengthAdjust="spacing" textLength="12.6" x="796.8" y="70.4971">has</text><text fill="#000000" font-family="sans-serif" font-size="7.8" lengthAdjust="spacing" textLength="4.2" x="526.2656" y="23.2284">1</text><text fill="#000000" font-family="sans-serif" font-size="7.8" lengthAdjust="spacing" textLength="12" x="899.6017" y="130.0504">1..*</text></g><!--MD5=[c29c8d42883934cbaf5793c72a334947]
link Company to Vaccine--><g id="link_Company_Vaccine"><path codeLine="83" d="M466.152,25.896 C404.76,29.16 259.122,39.126 216,61.8 C188.118,76.464 164.016,101.826 146.13,124.914 " fill="none" id="Company-Vaccine" style="stroke:#181818;stroke-width:0.6;"/><polygon fill="#000000" points="216.1341,68.1922,221.8398,68.2726,220.7974,64.9035,216.1341,68.1922" style="stroke:#000000;stroke-width:0.6;"/><text fill="#000000" font-family="sans-serif" font-size="7.8" lengthAdjust="spacing" textLength="12.6" x="224.4" y="70.4971">has</text><text fill="#000000" font-family="sans-serif" font-size="7.8" lengthAdjust="spacing" textLength="4.2" x="457.2109" y="23.9657">1</text><text fill="#000000" font-family="sans-serif" font-size="7.8" lengthAdjust="spacing" textLength="3" x="145.8654" y="118.5762">*</text></g><!--MD5=[05986564e1c13a00611587b35563d868]
link Company to VaccineType--><g id="link_Company_VaccineType"><path codeLine="84" d="M465.966,28.686 C402.63,39.708 253.2,76.266 253.2,175.8 C253.2,175.8 253.2,175.8 253.2,440.7 C253.2,506.358 333.81,545.292 381.516,562.59 " fill="none" id="Company-VaccineType" style="stroke:#181818;stroke-width:0.6;"/><polygon fill="#000000" points="255.7313,318.6686,258.3209,313.5837,254.8375,313.0327,255.7313,318.6686" style="stroke:#000000;stroke-width:0.6;"/><text fill="#000000" font-family="sans-serif" font-size="7.8" lengthAdjust="spacing" textLength="12.6" x="261.6" y="318.8971">has</text><text fill="#000000" font-family="sans-serif" font-size="7.8" lengthAdjust="spacing" textLength="4.2" x="457.1824" y="38.2697">1</text><text fill="#000000" font-family="sans-serif" font-size="7.8" lengthAdjust="spacing" textLength="3" x="373.7075" y="558.9434">*</text></g><!--MD5=[1a8aa2b864b87f860d28abceaa28b7a5]
link Company to SNSUser--><g id="link_Company_SNSUser"><path codeLine="85" d="M521.574,43.722 C576.186,83.238 696.126,179.958 741,295.8 C752.07,324.384 742.944,356.64 729.678,383.34 " fill="none" id="Company-SNSUser" style="stroke:#181818;stroke-width:0.6;"/><polygon fill="#000000" points="736.5674,275.0634,735.2355,269.5147,732.2284,271.3573,736.5674,275.0634" style="stroke:#000000;stroke-width:0.6;"/><text fill="#000000" font-family="sans-serif" font-size="7.8" lengthAdjust="spacing" textLength="12.6" x="740.4" y="275.6971">has</text><text fill="#000000" font-family="sans-serif" font-size="7.8" lengthAdjust="spacing" textLength="4.2" x="522.2681" y="56.536">1</text><text fill="#000000" font-family="sans-serif" font-size="7.8" lengthAdjust="spacing" textLength="3" x="729.5769" y="376.9429">*</text></g><!--MD5=[3568623adf67b2630dce9e60c05bd02a]
link Vaccine to VaccineType--><g id="link_Vaccine_VaccineType"><path codeLine="87" d="M116.502,227.832 C124.806,303.78 151.602,446.4 237.6,525.6 C277.296,562.158 341.94,571.254 381.486,573.204 " fill="none" id="Vaccine-VaccineType" style="stroke:#181818;stroke-width:0.6;"/><polygon fill="#000000" points="148.8262,362.4856,146.9216,357.1065,144.1236,359.2533,148.8262,362.4856" style="stroke:#000000;stroke-width:0.6;"/><text fill="#000000" font-family="sans-serif" font-size="7.8" lengthAdjust="spacing" textLength="14.4" x="152.4" y="363.2971">is of</text><text fill="#000000" font-family="sans-serif" font-size="7.8" lengthAdjust="spacing" textLength="12" x="104.3045" y="240.7637">1..*</text><text fill="#000000" font-family="sans-serif" font-size="7.8" lengthAdjust="spacing" textLength="12" x="364.8247" y="571.0838">1..*</text></g><!--MD5=[5bc40c60fae2c4c85bc9865e67152a5a]
link VaccinationEvent to VaccineType--><g id="link_VaccinationEvent_VaccineType"><path codeLine="89" d="M465.732,454.638 C456.918,475.584 440.052,515.67 428.376,543.42 " fill="none" id="VaccinationEvent-VaccineType" style="stroke:#181818;stroke-width:0.6;"/><polygon fill="#000000" points="441.6365,523.0707,445.3666,518.7523,442.1159,517.3845,441.6365,523.0707" style="stroke:#000000;stroke-width:0.6;"/><text fill="#000000" font-family="sans-serif" font-size="7.8" lengthAdjust="spacing" textLength="19.8" x="448.2" y="523.4971">to get</text><text fill="#000000" font-family="sans-serif" font-size="7.8" lengthAdjust="spacing" textLength="12" x="450.8392" y="467.4744">1..*</text><text fill="#000000" font-family="sans-serif" font-size="7.8" lengthAdjust="spacing" textLength="12" x="417.3008" y="536.9779">1..*</text></g><!--MD5=[d35dbd40ed3ec06d2ee641990798b91e]
link SNSUser to VaccineType--><g id="link_SNSUser_VaccineType"><path codeLine="91" d="M646.068,462.672 C590.916,489.168 499.482,533.094 450.054,556.842 " fill="none" id="SNSUser-VaccineType" style="stroke:#181818;stroke-width:0.6;"/><polygon fill="#000000" points="537.2959,521.6046,542.9513,520.8439,541.4241,517.665,537.2959,521.6046" style="stroke:#000000;stroke-width:0.6;"/><text fill="#000000" font-family="sans-serif" font-size="7.8" lengthAdjust="spacing" textLength="28.2" x="545.4" y="523.4971">recieves</text><text fill="#000000" font-family="sans-serif" font-size="7.8" lengthAdjust="spacing" textLength="12" x="629.4606" y="462.7646">1..*</text><text fill="#000000" font-family="sans-serif" font-size="7.8" lengthAdjust="spacing" textLength="12" x="454.7084" y="552.8299">1..*</text></g><!--MD5=[1d6d671bbc18d64756cbd8abf269fed7]
link SNSUser to Notification--><g id="link_SNSUser_Notification"><path codeLine="92" d="M691.8,496.932 C691.8,519.948 691.8,544.614 691.8,559.5 " fill="none" id="SNSUser-Notification" style="stroke:#181818;stroke-width:0.6;"/><polygon fill="#000000" points="694.8,523.3055,696.5634,517.8784,693.0366,517.8784,694.8,523.3055" style="stroke:#000000;stroke-width:0.6;"/><text fill="#000000" font-family="sans-serif" font-size="7.8" lengthAdjust="spacing" textLength="28.2" x="700.2" y="523.4971">recieves</text><text fill="#000000" font-family="sans-serif" font-size="7.8" lengthAdjust="spacing" textLength="12" x="679.3594" y="509.5657">1..*</text><text fill="#000000" font-family="sans-serif" font-size="7.8" lengthAdjust="spacing" textLength="12" x="678.2625" y="553.1041">1..*</text></g><!--MD5=[937991f90306544b3b03d076537a17b7]
link VaccinationCenter to RecoveryRoom--><g id="link_VaccinationCenter_RecoveryRoom"><path codeLine="94" d="M916.428,207.042 C879.966,224.412 833.322,246.768 792,267 C782.358,271.722 780.054,273.102 770.4,277.8 C754.248,285.66 736.128,294.252 721.356,301.194 " fill="none" id="VaccinationCenter-RecoveryRoom" style="stroke:#181818;stroke-width:0.6;"/><polygon fill="#000000" points="792.2982,273.8095,797.9523,273.0386,796.4193,269.8624,792.2982,273.8095" style="stroke:#000000;stroke-width:0.6;"/><text fill="#000000" font-family="sans-serif" font-size="7.8" lengthAdjust="spacing" textLength="12.6" x="800.4" y="275.6971">has</text><text fill="#000000" font-family="sans-serif" font-size="7.8" lengthAdjust="spacing" textLength="12" x="899.7671" y="207.2884">1..*</text><text fill="#000000" font-family="sans-serif" font-size="7.8" lengthAdjust="spacing" textLength="12" x="715.3922" y="294.7966">1..*</text></g><!--MD5=[365ff630f9f838a80248091f1b038ffe]
link VaccinationCenter to SNSUser--><g id="link_VaccinationCenter_SNSUser"><path codeLine="95" d="M916.404,222.426 C889.032,243.372 857.436,269.406 831.6,295.8 C804.324,323.664 805.008,337.092 778.2,365.4 C765.768,378.528 751.182,391.74 737.574,403.296 " fill="none" id="VaccinationCenter-SNSUser" style="stroke:#181818;stroke-width:0.6;"/><polygon fill="#000000" points="832.4907,317.8388,837.5604,315.2194,835.0525,312.7398,832.4907,317.8388" style="stroke:#000000;stroke-width:0.6;"/><text fill="#000000" font-family="sans-serif" font-size="7.8" lengthAdjust="spacing" textLength="28.2" x="840" y="318.8971">recieves</text><text fill="#000000" font-family="sans-serif" font-size="7.8" lengthAdjust="spacing" textLength="12" x="899.7415" y="223.706">1..*</text><text fill="#000000" font-family="sans-serif" font-size="7.8" lengthAdjust="spacing" textLength="12" x="742.1851" y="398.1004">1..*</text></g><!--MD5=[6b276e2dfed8b8354946f9f8bab747bb]
link VaccinationCenter to VaccineType--><g id="link_VaccinationCenter_VaccineType"><path codeLine="96" d="M934.998,249.048 C908.232,291.966 878.112,339.96 871.2,349.8 C814.206,430.956 819.456,475.626 733.8,525.6 C721.596,532.722 529.722,558.42 450.06,568.854 " fill="none" id="VaccinationCenter-VaccineType" style="stroke:#181818;stroke-width:0.6;"/><polygon fill="#000000" points="867.4956,361.7571,872.9969,360.2413,871.0553,357.2972,867.4956,361.7571" style="stroke:#000000;stroke-width:0.6;"/><text fill="#000000" font-family="sans-serif" font-size="7.8" lengthAdjust="spacing" textLength="75.6" x="875.4" y="363.2971">where is administered</text><text fill="#000000" font-family="sans-serif" font-size="7.8" lengthAdjust="spacing" textLength="12" x="920.061" y="261.6338">1..*</text><text fill="#000000" font-family="sans-serif" font-size="7.8" lengthAdjust="spacing" textLength="12" x="454.7151" y="566.2308">1..*</text></g><!--MD5=[f341c74790804bee0da500ddf7df4722]
link RecoveryRoom to SNSUser--><g id="link_RecoveryRoom_SNSUser"><path codeLine="98" d="M691.8,330.102 C691.8,343.14 691.8,363.516 691.8,383.166 " fill="none" id="RecoveryRoom-SNSUser" style="stroke:#181818;stroke-width:0.6;"/><polygon fill="#000000" points="694.8,363.1055,696.5634,357.6784,693.0366,357.6784,694.8,363.1055" style="stroke:#000000;stroke-width:0.6;"/><text fill="#000000" font-family="sans-serif" font-size="7.8" lengthAdjust="spacing" textLength="8.4" x="700.2" y="363.2971">for</text><text fill="#000000" font-family="sans-serif" font-size="7.8" lengthAdjust="spacing" textLength="4.2" x="687.0881" y="342.9296">1</text><text fill="#000000" font-family="sans-serif" font-size="7.8" lengthAdjust="spacing" textLength="12" x="679.3406" y="376.9475">1..*</text></g><!--MD5=[4c2d987e901971c14c32161ae5ac035f]
link RecoveryRoom to VaccinationEvent--><g id="link_RecoveryRoom_VaccinationEvent"><path codeLine="99" d="M669.654,330.018 C659.628,336.186 647.586,343.476 636.6,349.8 C588.282,377.616 530.892,408.294 498.108,425.598 " fill="none" id="RecoveryRoom-VaccinationEvent" style="stroke:#181818;stroke-width:0.6;"/><polygon fill="#000000" points="627.9793,361.5656,633.5784,360.4646,631.8619,357.3838,627.9793,361.5656" style="stroke:#000000;stroke-width:0.6;"/><text fill="#000000" font-family="sans-serif" font-size="7.8" lengthAdjust="spacing" textLength="15" x="636" y="363.2971">after</text><text fill="#000000" font-family="sans-serif" font-size="7.8" lengthAdjust="spacing" textLength="4.2" x="659.544" y="342.8252">1</text><text fill="#000000" font-family="sans-serif" font-size="7.8" lengthAdjust="spacing" textLength="3" x="501.5163" y="419.176">*</text></g><!--MD5=[9e909b5dd1ca65fb32489a10c6db1f31]
@startuml

'class enumeration
class Company
class VaccinationEvent
class RecoveryRoom
class Notification
class EmailNotification extends Notification
class SMSNotification extends Notification
class Vaccine
class VaccineType
class WaitingRoom
class SNSUser

package domain.model.employee {
class Nurse
}

package domain.model.VaccinationCenter {
abstract VaccinationCenter
class HealthCareCenter extends VaccinationCenter{
-ARG/AGES
}
class MassVaccinationCenter extends VaccinationCenter{
-VaccineType
}

'class components
class SNSUser {
-name
-sex
-Birth Date
-Address
-Phone number
-E-mail
-SNS number
-Citizen card number
}

abstract VaccinationCenter {
-name
-address
-phone number
-e-mail address
-fax number
-website address
-opening hours
-closing hours
-slot duration
-maximum number of vaccines
-coordinator
}

class Vaccine {
-name
-brand
-type
-age groups
-vaccines per age group
-dosage
-time interval regarding previous vaccine administered
}

class Company {
-name
}

class VaccineType {
-Code
-Description
-Technology
}


'class relation

Nurse "1..*" - - "1..*" VaccineType : administer >
Nurse "1..*" - - "1..*" SNSUser : checks if he/she is waiting >
Nurse "1..*" - - "1..*" RecoveryRoom : sends patient to >
Nurse "1..*" - - "1..*" VaccinationEvent : performs >
Nurse "1..*" - - "1" WaitingRoom : consults patients >

Company "1" - - "1..*" VaccinationCenter : has >
Company "1" - - "*" Vaccine : has >
Company "1" - - "*" VaccineType : has >
Company "1" - - "*" SNSUser : has >

Vaccine "1..*" - - "1..*" VaccineType : is of >

VaccinationEvent "1..*" - - "1..*" VaccineType : to get >

SNSUser "1..*" - - "1..*" VaccineType : recieves >
SNSUser "1..*" - - "1..*" Notification : recieves >

VaccinationCenter "1..*" - - "1..*" RecoveryRoom : has >
VaccinationCenter "1..*" - - "1..*" SNSUser : recieves >
VaccinationCenter "1..*" - - "1..*" VaccineType : where is administered >

RecoveryRoom "1" - - "1..*" SNSUser : for >
RecoveryRoom "1" - - "*" VaccinationEvent : after >

@enduml

@startuml

class Company
class VaccinationEvent
class RecoveryRoom
class Notification
class EmailNotification extends Notification
class SMSNotification extends Notification
class Vaccine
class VaccineType
class WaitingRoom
class SNSUser

package domain.model.employee {
class Nurse
}

package domain.model.VaccinationCenter {
abstract VaccinationCenter
class HealthCareCenter extends VaccinationCenter{
-ARG/AGES
}
class MassVaccinationCenter extends VaccinationCenter{
-VaccineType
}

class SNSUser {
-name
-sex
-Birth Date
-Address
-Phone number
-E-mail
-SNS number
-Citizen card number
}

abstract VaccinationCenter {
-name
-address
-phone number
-e-mail address
-fax number
-website address
-opening hours
-closing hours
-slot duration
-maximum number of vaccines
-coordinator
}

class Vaccine {
-name
-brand
-type
-age groups
-vaccines per age group
-dosage
-time interval regarding previous vaccine administered
}

class Company {
-name
}

class VaccineType {
-Code
-Description
-Technology
}



Nurse "1..*" - - "1..*" VaccineType : administer >
Nurse "1..*" - - "1..*" SNSUser : checks if he/she is waiting >
Nurse "1..*" - - "1..*" RecoveryRoom : sends patient to >
Nurse "1..*" - - "1..*" VaccinationEvent : performs >
Nurse "1..*" - - "1" WaitingRoom : consults patients >

Company "1" - - "1..*" VaccinationCenter : has >
Company "1" - - "*" Vaccine : has >
Company "1" - - "*" VaccineType : has >
Company "1" - - "*" SNSUser : has >

Vaccine "1..*" - - "1..*" VaccineType : is of >

VaccinationEvent "1..*" - - "1..*" VaccineType : to get >

SNSUser "1..*" - - "1..*" VaccineType : recieves >
SNSUser "1..*" - - "1..*" Notification : recieves >

VaccinationCenter "1..*" - - "1..*" RecoveryRoom : has >
VaccinationCenter "1..*" - - "1..*" SNSUser : recieves >
VaccinationCenter "1..*" - - "1..*" VaccineType : where is administered >

RecoveryRoom "1" - - "1..*" SNSUser : for >
RecoveryRoom "1" - - "*" VaccinationEvent : after >

@enduml

PlantUML version 1.2022.5(Sat Apr 30 11:55:52 BST 2022)
(GPL source distribution)
Java Runtime: OpenJDK Runtime Environment
JVM: OpenJDK 64-Bit Server VM
Default Encoding: Cp1252
Language: pt
Country: PT
--></g></svg>