<?xml version="1.0" encoding="UTF-8" standalone="no"?><svg xmlns="http://www.w3.org/2000/svg" xmlns:xlink="http://www.w3.org/1999/xlink" contentStyleType="text/css" height="999.6px" preserveAspectRatio="none" style="width:2269px;height:999px;background:#FFFFFF;" version="1.1" viewBox="0 0 2269 999" width="2269.2px" zoomAndPan="magnify"><defs/><g><rect fill="#FFFFFF" height="889.3828" style="stroke:#181818;stroke-width:0.6;" width="6" x="12.9" y="55.5656"/><rect fill="#FFFFFF" height="18.2109" style="stroke:#181818;stroke-width:0.6;" width="6" x="278.7" y="68.9766"/><rect fill="#FFFFFF" height="18.2109" style="stroke:#181818;stroke-width:0.6;" width="6" x="535.5" y="87.1875"/><rect fill="#FFFFFF" height="145.0547" style="stroke:#181818;stroke-width:0.6;" width="6" x="535.5" y="141.8203"/><rect fill="#FFFFFF" height="326.3203" style="stroke:#181818;stroke-width:0.6;" width="6" x="535.5" y="305.0859"/><rect fill="#FFFFFF" height="18.2109" style="stroke:#181818;stroke-width:0.6;" width="6" x="535.5" y="667.8281"/><rect fill="#FFFFFF" height="108.6328" style="stroke:#181818;stroke-width:0.6;" width="6" x="710.7" y="160.0313"/><rect fill="#FFFFFF" height="253.6875" style="stroke:#181818;stroke-width:0.6;" width="6" x="710.7" y="323.2969"/><rect fill="#FFFFFF" height="54.2109" style="stroke:#181818;stroke-width:0.6;" width="6" x="1059.9" y="558.9844"/><rect fill="#FFFFFF" height="153.2766" style="stroke:#181818;stroke-width:0.6;" width="6" x="1059.9" y="686.0391"/><rect fill="#FFFFFF" height="18" style="stroke:#181818;stroke-width:0.6;" width="6" x="1376.1" y="595.1953"/><rect fill="#FFFFFF" height="18" style="stroke:#181818;stroke-width:0.6;" width="6" x="1376.1" y="704.25"/><rect fill="#FFFFFF" height="21.8109" style="stroke:#181818;stroke-width:0.6;" width="6" x="1376.1" y="795.0938"/><rect fill="#FFFFFF" height="100.2328" style="stroke:#181818;stroke-width:0.6;" width="6" x="1376.1" y="839.3156"/><rect fill="#FFFFFF" height="18" style="stroke:#181818;stroke-width:0.6;" width="6" x="1689.3" y="178.2422"/><rect fill="#FFFFFF" height="18" style="stroke:#181818;stroke-width:0.6;" width="6" x="1689.3" y="250.6641"/><rect fill="#FFFFFF" height="18" style="stroke:#181818;stroke-width:0.6;" width="6" x="1689.3" y="341.5078"/><rect fill="#FFFFFF" height="18" style="stroke:#181818;stroke-width:0.6;" width="6" x="1755" y="214.4531"/><rect fill="#FFFFFF" height="18" style="stroke:#181818;stroke-width:0.6;" width="6" x="1755" y="377.7188"/><rect fill="#FFFFFF" height="18" style="stroke:#181818;stroke-width:0.6;" width="6" x="1919.4" y="450.1406"/><rect fill="#FFFFFF" height="18" style="stroke:#181818;stroke-width:0.6;" width="6" x="2049" y="486.3516"/><rect fill="#FFFFFF" height="18" style="stroke:#181818;stroke-width:0.6;" width="6" x="2209.8" y="413.9297"/><line style="stroke:#181818;stroke-width:0.3;stroke-dasharray:5.0,5.0;" x1="15.6" x2="15.6" y1="49.5656" y2="950.3484"/><line style="stroke:#181818;stroke-width:0.3;stroke-dasharray:5.0,5.0;" x1="281.4" x2="281.4" y1="49.5656" y2="950.3484"/><line style="stroke:#181818;stroke-width:0.3;stroke-dasharray:5.0,5.0;" x1="538.2" x2="538.2" y1="49.5656" y2="950.3484"/><line style="stroke:#181818;stroke-width:0.3;stroke-dasharray:5.0,5.0;" x1="713.4" x2="713.4" y1="49.5656" y2="950.3484"/><line style="stroke:#181818;stroke-width:0.3;stroke-dasharray:5.0,5.0;" x1="1062.6" x2="1062.6" y1="49.5656" y2="950.3484"/><line style="stroke:#181818;stroke-width:0.3;stroke-dasharray:5.0,5.0;" x1="1378.8" x2="1378.8" y1="49.5656" y2="950.3484"/><line style="stroke:#181818;stroke-width:0.3;stroke-dasharray:5.0,5.0;" x1="1692" x2="1692" y1="49.5656" y2="950.3484"/><line style="stroke:#181818;stroke-width:0.3;stroke-dasharray:5.0,5.0;" x1="1758" x2="1758" y1="49.5656" y2="950.3484"/><line style="stroke:#181818;stroke-width:0.3;stroke-dasharray:5.0,5.0;" x1="1840.2" x2="1840.2" y1="49.5656" y2="950.3484"/><line style="stroke:#181818;stroke-width:0.3;stroke-dasharray:5.0,5.0;" x1="1922.4" x2="1922.4" y1="49.5656" y2="950.3484"/><line style="stroke:#181818;stroke-width:0.3;stroke-dasharray:5.0,5.0;" x1="1990.2" x2="1990.2" y1="49.5656" y2="950.3484"/><line style="stroke:#181818;stroke-width:0.3;stroke-dasharray:5.0,5.0;" x1="2052" x2="2052" y1="49.5656" y2="950.3484"/><line style="stroke:#181818;stroke-width:0.3;stroke-dasharray:5.0,5.0;" x1="2116.8" x2="2116.8" y1="49.5656" y2="950.3484"/><line style="stroke:#181818;stroke-width:0.3;stroke-dasharray:5.0,5.0;" x1="2212.8" x2="2212.8" y1="49.5656" y2="950.3484"/><text fill="#000000" font-family="sans-serif" font-size="8.4" lengthAdjust="spacing" textLength="22.2" x="3" y="47.7199">Nurse</text><ellipse cx="15.9" cy="8.1" fill="#E2E2F0" rx="4.8" ry="4.8" style="stroke:#181818;stroke-width:0.3;"/><path d="M15.9,12.9 L15.9,29.1 M8.1,17.7 L23.7,17.7 M15.9,29.1 L8.1,38.1 M15.9,29.1 L23.7,38.1 " fill="none" style="stroke:#181818;stroke-width:0.3;"/><text fill="#000000" font-family="sans-serif" font-size="8.4" lengthAdjust="spacing" textLength="22.2" x="3" y="958.4684">Nurse</text><ellipse cx="15.9" cy="965.4141" fill="#E2E2F0" rx="4.8" ry="4.8" style="stroke:#181818;stroke-width:0.3;"/><path d="M15.9,970.2141 L15.9,986.4141 M8.1,975.0141 L23.7,975.0141 M15.9,986.4141 L8.1,995.4141 M15.9,986.4141 L23.7,995.4141 " fill="none" style="stroke:#181818;stroke-width:0.3;"/><rect fill="#E2E2F0" height="18.9656" rx="1.5" ry="1.5" style="stroke:#181818;stroke-width:0.3;" width="37.8" x="262.8" y="30"/><text fill="#000000" font-family="sans-serif" font-size="8.4" lengthAdjust="spacing" textLength="29.4" x="267" y="42.9199">NurseUI</text><rect fill="#E2E2F0" height="18.9656" rx="1.5" ry="1.5" style="stroke:#181818;stroke-width:0.3;" width="37.8" x="262.8" y="949.7484"/><text fill="#000000" font-family="sans-serif" font-size="8.4" lengthAdjust="spacing" textLength="29.4" x="267" y="962.6684">NurseUI</text><rect fill="#E2E2F0" height="18.9656" rx="1.5" ry="1.5" style="stroke:#181818;stroke-width:0.3;" width="154.2" x="461.4" y="30"/><text fill="#000000" font-family="sans-serif" font-size="8.4" lengthAdjust="spacing" textLength="145.8" x="465.6" y="42.9199">RecordAdministrationVaccineToUserUI</text><rect fill="#E2E2F0" height="18.9656" rx="1.5" ry="1.5" style="stroke:#181818;stroke-width:0.3;" width="154.2" x="461.4" y="949.7484"/><text fill="#000000" font-family="sans-serif" font-size="8.4" lengthAdjust="spacing" textLength="145.8" x="465.6" y="962.6684">RecordAdministrationVaccineToUserUI</text><rect fill="#E2E2F0" height="18.9656" rx="1.5" ry="1.5" style="stroke:#181818;stroke-width:0.3;" width="184.2" x="621.6" y="30"/><text fill="#000000" font-family="sans-serif" font-size="8.4" lengthAdjust="spacing" textLength="175.8" x="625.8" y="42.9199">RecordAdministrationVaccineToUserController</text><rect fill="#E2E2F0" height="18.9656" rx="1.5" ry="1.5" style="stroke:#181818;stroke-width:0.3;" width="184.2" x="621.6" y="949.7484"/><text fill="#000000" font-family="sans-serif" font-size="8.4" lengthAdjust="spacing" textLength="175.8" x="625.8" y="962.6684">RecordAdministrationVaccineToUserController</text><rect fill="#E2E2F0" height="18.9656" rx="1.5" ry="1.5" style="stroke:#181818;stroke-width:0.3;" width="189" x="968.4" y="30"/><text fill="#000000" font-family="sans-serif" font-size="8.4" lengthAdjust="spacing" textLength="180.6" x="972.6" y="42.9199">RecordAdministrationVaccineToUserController2</text><rect fill="#E2E2F0" height="18.9656" rx="1.5" ry="1.5" style="stroke:#181818;stroke-width:0.3;" width="189" x="968.4" y="949.7484"/><text fill="#000000" font-family="sans-serif" font-size="8.4" lengthAdjust="spacing" textLength="180.6" x="972.6" y="962.6684">RecordAdministrationVaccineToUserController2</text><rect fill="#E2E2F0" height="18.9656" rx="1.5" ry="1.5" style="stroke:#181818;stroke-width:0.3;" width="94.2" x="1332" y="30"/><text fill="#000000" font-family="sans-serif" font-size="8.4" lengthAdjust="spacing" textLength="85.8" x="1336.2" y="42.9199">VaccinationEventStore</text><rect fill="#E2E2F0" height="18.9656" rx="1.5" ry="1.5" style="stroke:#181818;stroke-width:0.3;" width="94.2" x="1332" y="949.7484"/><text fill="#000000" font-family="sans-serif" font-size="8.4" lengthAdjust="spacing" textLength="85.8" x="1336.2" y="962.6684">VaccinationEventStore</text><rect fill="#E2E2F0" height="18.9656" rx="1.5" ry="1.5" style="stroke:#181818;stroke-width:0.3;" width="60.6" x="1662" y="30"/><text fill="#000000" font-family="sans-serif" font-size="8.4" lengthAdjust="spacing" textLength="52.2" x="1666.2" y="42.9199">SnsUserStore</text><rect fill="#E2E2F0" height="18.9656" rx="1.5" ry="1.5" style="stroke:#181818;stroke-width:0.3;" width="60.6" x="1662" y="949.7484"/><text fill="#000000" font-family="sans-serif" font-size="8.4" lengthAdjust="spacing" textLength="52.2" x="1666.2" y="962.6684">SnsUserStore</text><rect fill="#E2E2F0" height="18.9656" rx="1.5" ry="1.5" style="stroke:#181818;stroke-width:0.3;" width="58.8" x="1728.6" y="30"/><text fill="#000000" font-family="sans-serif" font-size="8.4" lengthAdjust="spacing" textLength="50.4" x="1732.8" y="42.9199">WaitingRoom</text><rect fill="#E2E2F0" height="18.9656" rx="1.5" ry="1.5" style="stroke:#181818;stroke-width:0.3;" width="58.8" x="1728.6" y="949.7484"/><text fill="#000000" font-family="sans-serif" font-size="8.4" lengthAdjust="spacing" textLength="50.4" x="1732.8" y="962.6684">WaitingRoom</text><rect fill="#E2E2F0" height="18.9656" rx="1.5" ry="1.5" style="stroke:#181818;stroke-width:0.3;" width="94.2" x="1793.4" y="30"/><text fill="#000000" font-family="sans-serif" font-size="8.4" lengthAdjust="spacing" textLength="85.8" x="1797.6" y="42.9199">VaccineScheduleStore</text><rect fill="#E2E2F0" height="18.9656" rx="1.5" ry="1.5" style="stroke:#181818;stroke-width:0.3;" width="94.2" x="1793.4" y="949.7484"/><text fill="#000000" font-family="sans-serif" font-size="8.4" lengthAdjust="spacing" textLength="85.8" x="1797.6" y="962.6684">VaccineScheduleStore</text><rect fill="#E2E2F0" height="18.9656" rx="1.5" ry="1.5" style="stroke:#181818;stroke-width:0.3;" width="57.6" x="1893.6" y="30"/><text fill="#000000" font-family="sans-serif" font-size="8.4" lengthAdjust="spacing" textLength="49.2" x="1897.8" y="42.9199">VaccineType</text><rect fill="#E2E2F0" height="18.9656" rx="1.5" ry="1.5" style="stroke:#181818;stroke-width:0.3;" width="57.6" x="1893.6" y="949.7484"/><text fill="#000000" font-family="sans-serif" font-size="8.4" lengthAdjust="spacing" textLength="49.2" x="1897.8" y="962.6684">VaccineType</text><rect fill="#E2E2F0" height="18.9656" rx="1.5" ry="1.5" style="stroke:#181818;stroke-width:0.3;" width="66.6" x="1957.2" y="30"/><text fill="#000000" font-family="sans-serif" font-size="8.4" lengthAdjust="spacing" textLength="58.2" x="1961.4" y="42.9199">RecoveryRoom</text><rect fill="#E2E2F0" height="18.9656" rx="1.5" ry="1.5" style="stroke:#181818;stroke-width:0.3;" width="66.6" x="1957.2" y="949.7484"/><text fill="#000000" font-family="sans-serif" font-size="8.4" lengthAdjust="spacing" textLength="58.2" x="1961.4" y="962.6684">RecoveryRoom</text><rect fill="#E2E2F0" height="18.9656" rx="1.5" ry="1.5" style="stroke:#181818;stroke-width:0.3;" width="44.4" x="2029.8" y="30"/><text fill="#000000" font-family="sans-serif" font-size="8.4" lengthAdjust="spacing" textLength="36" x="2034" y="42.9199">Company</text><rect fill="#E2E2F0" height="18.9656" rx="1.5" ry="1.5" style="stroke:#181818;stroke-width:0.3;" width="44.4" x="2029.8" y="949.7484"/><text fill="#000000" font-family="sans-serif" font-size="8.4" lengthAdjust="spacing" textLength="36" x="2034" y="962.6684">Company</text><rect fill="#E2E2F0" height="18.9656" rx="1.5" ry="1.5" style="stroke:#181818;stroke-width:0.3;" width="73.8" x="2080.2" y="30"/><text fill="#000000" font-family="sans-serif" font-size="8.4" lengthAdjust="spacing" textLength="65.4" x="2084.4" y="42.9199">VaccinationEvent</text><rect fill="#E2E2F0" height="18.9656" rx="1.5" ry="1.5" style="stroke:#181818;stroke-width:0.3;" width="73.8" x="2080.2" y="949.7484"/><text fill="#000000" font-family="sans-serif" font-size="8.4" lengthAdjust="spacing" textLength="65.4" x="2084.4" y="962.6684">VaccinationEvent</text><rect fill="#E2E2F0" height="18.9656" rx="1.5" ry="1.5" style="stroke:#181818;stroke-width:0.3;" width="105.6" x="2160" y="30"/><text fill="#000000" font-family="sans-serif" font-size="8.4" lengthAdjust="spacing" textLength="97.2" x="2164.2" y="42.9199">SnsUserVaccineSchedule</text><rect fill="#E2E2F0" height="18.9656" rx="1.5" ry="1.5" style="stroke:#181818;stroke-width:0.3;" width="105.6" x="2160" y="949.7484"/><text fill="#000000" font-family="sans-serif" font-size="8.4" lengthAdjust="spacing" textLength="97.2" x="2164.2" y="962.6684">SnsUserVaccineSchedule</text><rect fill="#FFFFFF" height="889.3828" style="stroke:#181818;stroke-width:0.6;" width="6" x="12.9" y="55.5656"/><rect fill="#FFFFFF" height="18.2109" style="stroke:#181818;stroke-width:0.6;" width="6" x="278.7" y="68.9766"/><rect fill="#FFFFFF" height="18.2109" style="stroke:#181818;stroke-width:0.6;" width="6" x="535.5" y="87.1875"/><rect fill="#FFFFFF" height="145.0547" style="stroke:#181818;stroke-width:0.6;" width="6" x="535.5" y="141.8203"/><rect fill="#FFFFFF" height="326.3203" style="stroke:#181818;stroke-width:0.6;" width="6" x="535.5" y="305.0859"/><rect fill="#FFFFFF" height="18.2109" style="stroke:#181818;stroke-width:0.6;" width="6" x="535.5" y="667.8281"/><rect fill="#FFFFFF" height="108.6328" style="stroke:#181818;stroke-width:0.6;" width="6" x="710.7" y="160.0313"/><rect fill="#FFFFFF" height="253.6875" style="stroke:#181818;stroke-width:0.6;" width="6" x="710.7" y="323.2969"/><rect fill="#FFFFFF" height="54.2109" style="stroke:#181818;stroke-width:0.6;" width="6" x="1059.9" y="558.9844"/><rect fill="#FFFFFF" height="153.2766" style="stroke:#181818;stroke-width:0.6;" width="6" x="1059.9" y="686.0391"/><rect fill="#FFFFFF" height="18" style="stroke:#181818;stroke-width:0.6;" width="6" x="1376.1" y="595.1953"/><rect fill="#FFFFFF" height="18" style="stroke:#181818;stroke-width:0.6;" width="6" x="1376.1" y="704.25"/><rect fill="#FFFFFF" height="21.8109" style="stroke:#181818;stroke-width:0.6;" width="6" x="1376.1" y="795.0938"/><rect fill="#FFFFFF" height="100.2328" style="stroke:#181818;stroke-width:0.6;" width="6" x="1376.1" y="839.3156"/><rect fill="#FFFFFF" height="18" style="stroke:#181818;stroke-width:0.6;" width="6" x="1689.3" y="178.2422"/><rect fill="#FFFFFF" height="18" style="stroke:#181818;stroke-width:0.6;" width="6" x="1689.3" y="250.6641"/><rect fill="#FFFFFF" height="18" style="stroke:#181818;stroke-width:0.6;" width="6" x="1689.3" y="341.5078"/><rect fill="#FFFFFF" height="18" style="stroke:#181818;stroke-width:0.6;" width="6" x="1755" y="214.4531"/><rect fill="#FFFFFF" height="18" style="stroke:#181818;stroke-width:0.6;" width="6" x="1755" y="377.7188"/><rect fill="#FFFFFF" height="18" style="stroke:#181818;stroke-width:0.6;" width="6" x="1919.4" y="450.1406"/><rect fill="#FFFFFF" height="18" style="stroke:#181818;stroke-width:0.6;" width="6" x="2049" y="486.3516"/><rect fill="#FFFFFF" height="18" style="stroke:#181818;stroke-width:0.6;" width="6" x="2209.8" y="413.9297"/><polygon fill="#181818" points="271.5,66.5766,277.5,68.9766,271.5,71.3766,273.9,68.9766" style="stroke:#181818;stroke-width:0.6;"/><line style="stroke:#181818;stroke-width:0.6;" x1="18.9" x2="275.1" y1="68.9766" y2="68.9766"/><text fill="#000000" font-family="sans-serif" font-size="7.8" font-weight="bold" lengthAdjust="spacing" textLength="4.2" x="23.1" y="66.0627">1</text><text fill="#000000" font-family="sans-serif" font-size="7.8" lengthAdjust="spacing" textLength="241.8" x="29.7" y="66.0627">selects option to record the administration of a vaccine to a SNS User</text><polygon fill="#181818" points="528.3,84.7875,534.3,87.1875,528.3,89.5875,530.7,87.1875" style="stroke:#181818;stroke-width:0.6;"/><line style="stroke:#181818;stroke-width:0.6;" x1="281.7" x2="531.9" y1="87.1875" y2="87.1875"/><text fill="#000000" font-family="sans-serif" font-size="7.8" font-weight="bold" lengthAdjust="spacing" textLength="4.2" x="285.9" y="84.2736">2</text><text fill="#000000" font-family="sans-serif" font-size="7.8" lengthAdjust="spacing" textLength="232.8" x="292.5" y="84.2736">opens "RecordAdministrationVaccineToUserUI" in a JavaFX window</text><polygon fill="#181818" points="25.5,102.9984,19.5,105.3984,25.5,107.7984,23.1,105.3984" style="stroke:#181818;stroke-width:0.6;"/><line style="stroke:#181818;stroke-width:0.6;stroke-dasharray:2.0,2.0;" x1="21.9" x2="537.9" y1="105.3984" y2="105.3984"/><text fill="#000000" font-family="sans-serif" font-size="7.8" font-weight="bold" lengthAdjust="spacing" textLength="4.2" x="29.1" y="102.4846">3</text><text fill="#000000" font-family="sans-serif" font-size="7.8" lengthAdjust="spacing" textLength="94.2" x="35.7" y="102.4846">requests SNS user number</text><polygon fill="#181818" points="531.3,121.2094,537.3,123.6094,531.3,126.0094,533.7,123.6094" style="stroke:#181818;stroke-width:0.6;"/><line style="stroke:#181818;stroke-width:0.6;" x1="18.9" x2="534.9" y1="123.6094" y2="123.6094"/><text fill="#000000" font-family="sans-serif" font-size="7.8" font-weight="bold" lengthAdjust="spacing" textLength="4.2" x="23.1" y="120.6955">4</text><text fill="#000000" font-family="sans-serif" font-size="7.8" lengthAdjust="spacing" textLength="73.2" x="29.7" y="120.6955">types requested data</text><polygon fill="#181818" points="528.3,139.4203,534.3,141.8203,528.3,144.2203,530.7,141.8203" style="stroke:#181818;stroke-width:0.6;"/><line style="stroke:#181818;stroke-width:0.6;" x1="18.9" x2="531.9" y1="141.8203" y2="141.8203"/><text fill="#000000" font-family="sans-serif" font-size="7.8" font-weight="bold" lengthAdjust="spacing" textLength="4.2" x="23.1" y="138.9064">5</text><text fill="#000000" font-family="sans-serif" font-size="7.8" lengthAdjust="spacing" textLength="196.8" x="29.7" y="138.9064">presses the "Press Here To See The User's Data" button</text><polygon fill="#181818" points="703.5,157.6313,709.5,160.0313,703.5,162.4313,705.9,160.0313" style="stroke:#181818;stroke-width:0.6;"/><line style="stroke:#181818;stroke-width:0.6;" x1="541.5" x2="707.1" y1="160.0313" y2="160.0313"/><text fill="#000000" font-family="sans-serif" font-size="7.8" font-weight="bold" lengthAdjust="spacing" textLength="4.2" x="545.7" y="157.1174">6</text><text fill="#000000" font-family="sans-serif" font-size="7.8" lengthAdjust="spacing" textLength="49.8" x="552.3" y="157.1174">seeUserData()</text><polygon fill="#181818" points="1682.1,175.8422,1688.1,178.2422,1682.1,180.6422,1684.5,178.2422" style="stroke:#181818;stroke-width:0.6;"/><line style="stroke:#181818;stroke-width:0.6;" x1="716.7" x2="1685.7" y1="178.2422" y2="178.2422"/><text fill="#000000" font-family="sans-serif" font-size="7.8" font-weight="bold" lengthAdjust="spacing" textLength="4.2" x="720.9" y="175.3283">7</text><text fill="#000000" font-family="sans-serif" font-size="7.8" lengthAdjust="spacing" textLength="70.2" x="727.5" y="175.3283">verifies if user exists</text><polygon fill="#181818" points="1747.8,212.0531,1753.8,214.4531,1747.8,216.8531,1750.2,214.4531" style="stroke:#181818;stroke-width:0.6;"/><line style="stroke:#181818;stroke-width:0.6;" x1="716.7" x2="1751.4" y1="214.4531" y2="214.4531"/><text fill="#000000" font-family="sans-serif" font-size="7.8" font-weight="bold" lengthAdjust="spacing" textLength="4.2" x="720.9" y="211.5393">8</text><text fill="#000000" font-family="sans-serif" font-size="7.8" lengthAdjust="spacing" textLength="109.8" x="727.5" y="211.5393">verifies if user is in waiting room</text><polygon fill="#181818" points="1682.1,248.2641,1688.1,250.6641,1682.1,253.0641,1684.5,250.6641" style="stroke:#181818;stroke-width:0.6;"/><line style="stroke:#181818;stroke-width:0.6;" x1="716.7" x2="1685.7" y1="250.6641" y2="250.6641"/><text fill="#000000" font-family="sans-serif" font-size="7.8" font-weight="bold" lengthAdjust="spacing" textLength="4.2" x="720.9" y="247.7502">9</text><text fill="#000000" font-family="sans-serif" font-size="7.8" lengthAdjust="spacing" textLength="120.6" x="727.5" y="247.7502">requests name and age of the user</text><polygon fill="#181818" points="25.5,284.475,19.5,286.875,25.5,289.275,23.1,286.875" style="stroke:#181818;stroke-width:0.6;"/><line style="stroke:#181818;stroke-width:0.6;stroke-dasharray:2.0,2.0;" x1="21.9" x2="537.9" y1="286.875" y2="286.875"/><text fill="#000000" font-family="sans-serif" font-size="7.8" font-weight="bold" lengthAdjust="spacing" textLength="8.4" x="29.1" y="283.9611">10</text><text fill="#000000" font-family="sans-serif" font-size="7.8" lengthAdjust="spacing" textLength="111" x="39.9" y="283.9611">shows the user´s name and age</text><polygon fill="#181818" points="528.3,302.6859,534.3,305.0859,528.3,307.4859,530.7,305.0859" style="stroke:#181818;stroke-width:0.6;"/><line style="stroke:#181818;stroke-width:0.6;" x1="18.9" x2="531.9" y1="305.0859" y2="305.0859"/><text fill="#000000" font-family="sans-serif" font-size="7.8" font-weight="bold" lengthAdjust="spacing" textLength="8.4" x="23.1" y="302.1721">11</text><text fill="#000000" font-family="sans-serif" font-size="7.8" lengthAdjust="spacing" textLength="151.8" x="33.9" y="302.1721">presses the "Press Here To Confirm" button</text><polygon fill="#181818" points="703.5,320.8969,709.5,323.2969,703.5,325.6969,705.9,323.2969" style="stroke:#181818;stroke-width:0.6;"/><line style="stroke:#181818;stroke-width:0.6;" x1="541.5" x2="707.1" y1="323.2969" y2="323.2969"/><text fill="#000000" font-family="sans-serif" font-size="7.8" font-weight="bold" lengthAdjust="spacing" textLength="8.4" x="545.7" y="320.383">12</text><text fill="#000000" font-family="sans-serif" font-size="7.8" lengthAdjust="spacing" textLength="69.6" x="556.5" y="320.383">confirmationButton()</text><polygon fill="#181818" points="1682.1,339.1078,1688.1,341.5078,1682.1,343.9078,1684.5,341.5078" style="stroke:#181818;stroke-width:0.6;"/><line style="stroke:#181818;stroke-width:0.6;" x1="716.7" x2="1685.7" y1="341.5078" y2="341.5078"/><text fill="#000000" font-family="sans-serif" font-size="7.8" font-weight="bold" lengthAdjust="spacing" textLength="8.4" x="720.9" y="338.5939">13</text><text fill="#000000" font-family="sans-serif" font-size="7.8" lengthAdjust="spacing" textLength="70.2" x="731.7" y="338.5939">verifies if user exists</text><polygon fill="#181818" points="1747.8,375.3187,1753.8,377.7188,1747.8,380.1188,1750.2,377.7188" style="stroke:#181818;stroke-width:0.6;"/><line style="stroke:#181818;stroke-width:0.6;" x1="716.7" x2="1751.4" y1="377.7188" y2="377.7188"/><text fill="#000000" font-family="sans-serif" font-size="7.8" font-weight="bold" lengthAdjust="spacing" textLength="8.4" x="720.9" y="374.8049">14</text><text fill="#000000" font-family="sans-serif" font-size="7.8" lengthAdjust="spacing" textLength="109.8" x="731.7" y="374.8049">verifies if user is in waiting room</text><polygon fill="#181818" points="2202.6,411.5297,2208.6,413.9297,2202.6,416.3297,2205,413.9297" style="stroke:#181818;stroke-width:0.6;"/><line style="stroke:#181818;stroke-width:0.6;" x1="716.7" x2="2206.2" y1="413.9297" y2="413.9297"/><text fill="#000000" font-family="sans-serif" font-size="7.8" font-weight="bold" lengthAdjust="spacing" textLength="8.4" x="720.9" y="411.0158">15</text><text fill="#000000" font-family="sans-serif" font-size="7.8" lengthAdjust="spacing" textLength="94.2" x="731.7" y="411.0158">gets user vaccine schedule</text><polygon fill="#181818" points="1912.2,447.7406,1918.2,450.1406,1912.2,452.5406,1914.6,450.1406" style="stroke:#181818;stroke-width:0.6;"/><line style="stroke:#181818;stroke-width:0.6;" x1="716.7" x2="1915.8" y1="450.1406" y2="450.1406"/><text fill="#000000" font-family="sans-serif" font-size="7.8" font-weight="bold" lengthAdjust="spacing" textLength="8.4" x="720.9" y="447.2268">16</text><text fill="#000000" font-family="sans-serif" font-size="7.8" lengthAdjust="spacing" textLength="60" x="731.7" y="447.2268">gets vaccineType</text><polygon fill="#181818" points="2041.8,483.9516,2047.8,486.3516,2041.8,488.7516,2044.2,486.3516" style="stroke:#181818;stroke-width:0.6;"/><line style="stroke:#181818;stroke-width:0.6;" x1="716.7" x2="2045.4" y1="486.3516" y2="486.3516"/><text fill="#000000" font-family="sans-serif" font-size="7.8" font-weight="bold" lengthAdjust="spacing" textLength="8.4" x="720.9" y="483.4377">17</text><text fill="#000000" font-family="sans-serif" font-size="7.8" lengthAdjust="spacing" textLength="67.8" x="731.7" y="483.4377">gets listOfVaccines</text><polygon fill="#181818" points="1371.9,520.1625,1377.9,522.5625,1371.9,524.9625,1374.3,522.5625" style="stroke:#181818;stroke-width:0.6;"/><line style="stroke:#181818;stroke-width:0.6;" x1="716.7" x2="1375.5" y1="522.5625" y2="522.5625"/><text fill="#000000" font-family="sans-serif" font-size="7.8" font-weight="bold" lengthAdjust="spacing" textLength="8.4" x="720.9" y="519.6486">18</text><text fill="#000000" font-family="sans-serif" font-size="7.8" lengthAdjust="spacing" textLength="112.8" x="731.7" y="519.6486">sends listOfVaccines for storage</text><polygon fill="#181818" points="1371.9,538.3734,1377.9,540.7734,1371.9,543.1734,1374.3,540.7734" style="stroke:#181818;stroke-width:0.6;"/><line style="stroke:#181818;stroke-width:0.6;" x1="716.7" x2="1375.5" y1="540.7734" y2="540.7734"/><text fill="#000000" font-family="sans-serif" font-size="7.8" font-weight="bold" lengthAdjust="spacing" textLength="8.4" x="720.9" y="537.8596">19</text><text fill="#000000" font-family="sans-serif" font-size="7.8" lengthAdjust="spacing" textLength="178.2" x="731.7" y="537.8596">sends snsUserNumber and vaccineType for storage</text><polygon fill="#181818" points="1052.7,556.5844,1058.7,558.9844,1052.7,561.3844,1055.1,558.9844" style="stroke:#181818;stroke-width:0.6;"/><line style="stroke:#181818;stroke-width:0.6;" x1="716.7" x2="1056.3" y1="558.9844" y2="558.9844"/><text fill="#000000" font-family="sans-serif" font-size="7.8" font-weight="bold" lengthAdjust="spacing" textLength="8.4" x="720.9" y="556.0705">20</text><text fill="#000000" font-family="sans-serif" font-size="7.8" lengthAdjust="spacing" textLength="321" x="731.7" y="556.0705">opens new JavaFX window and switches to "RecordAdministrationVaccineToUserController2"</text><polygon fill="#181818" points="1368.9,592.7953,1374.9,595.1953,1368.9,597.5953,1371.3,595.1953" style="stroke:#181818;stroke-width:0.6;"/><line style="stroke:#181818;stroke-width:0.6;" x1="1065.9" x2="1372.5" y1="595.1953" y2="595.1953"/><text fill="#000000" font-family="sans-serif" font-size="7.8" font-weight="bold" lengthAdjust="spacing" textLength="8.4" x="1070.1" y="592.2814">21</text><text fill="#000000" font-family="sans-serif" font-size="7.8" lengthAdjust="spacing" textLength="82.8" x="1080.9" y="592.2814">requests listOfVaccines</text><polygon fill="#181818" points="25.5,629.0063,19.5,631.4063,25.5,633.8063,23.1,631.4063" style="stroke:#181818;stroke-width:0.6;"/><line style="stroke:#181818;stroke-width:0.6;stroke-dasharray:2.0,2.0;" x1="21.9" x2="537.9" y1="631.4063" y2="631.4063"/><text fill="#000000" font-family="sans-serif" font-size="7.8" font-weight="bold" lengthAdjust="spacing" textLength="8.4" x="29.1" y="628.4924">22</text><text fill="#000000" font-family="sans-serif" font-size="7.8" lengthAdjust="spacing" textLength="219" x="39.9" y="628.4924">requests the vaccine that the user has taken and its lot number</text><polygon fill="#181818" points="531.3,647.2172,537.3,649.6172,531.3,652.0172,533.7,649.6172" style="stroke:#181818;stroke-width:0.6;"/><line style="stroke:#181818;stroke-width:0.6;" x1="18.9" x2="534.9" y1="649.6172" y2="649.6172"/><text fill="#000000" font-family="sans-serif" font-size="7.8" font-weight="bold" lengthAdjust="spacing" textLength="8.4" x="23.1" y="646.7033">23</text><text fill="#000000" font-family="sans-serif" font-size="7.8" lengthAdjust="spacing" textLength="73.2" x="33.9" y="646.7033">types requested data</text><polygon fill="#181818" points="528.3,665.4281,534.3,667.8281,528.3,670.2281,530.7,667.8281" style="stroke:#181818;stroke-width:0.6;"/><line style="stroke:#181818;stroke-width:0.6;" x1="18.9" x2="531.9" y1="667.8281" y2="667.8281"/><text fill="#000000" font-family="sans-serif" font-size="7.8" font-weight="bold" lengthAdjust="spacing" textLength="8.4" x="23.1" y="664.9143">24</text><text fill="#000000" font-family="sans-serif" font-size="7.8" lengthAdjust="spacing" textLength="151.8" x="33.9" y="664.9143">presses the "Press Here To Confirm" button</text><polygon fill="#181818" points="1052.7,683.6391,1058.7,686.0391,1052.7,688.4391,1055.1,686.0391" style="stroke:#181818;stroke-width:0.6;"/><line style="stroke:#181818;stroke-width:0.6;" x1="538.5" x2="1056.3" y1="686.0391" y2="686.0391"/><text fill="#000000" font-family="sans-serif" font-size="7.8" font-weight="bold" lengthAdjust="spacing" textLength="8.4" x="542.7" y="683.1252">25</text><text fill="#000000" font-family="sans-serif" font-size="7.8" lengthAdjust="spacing" textLength="51.6" x="553.5" y="683.1252">loadVaccines()</text><polygon fill="#181818" points="1368.9,701.85,1374.9,704.25,1368.9,706.65,1371.3,704.25" style="stroke:#181818;stroke-width:0.6;"/><line style="stroke:#181818;stroke-width:0.6;" x1="1065.9" x2="1372.5" y1="704.25" y2="704.25"/><text fill="#000000" font-family="sans-serif" font-size="7.8" font-weight="bold" lengthAdjust="spacing" textLength="8.4" x="1070.1" y="701.3361">26</text><text fill="#000000" font-family="sans-serif" font-size="7.8" lengthAdjust="spacing" textLength="130.2" x="1080.9" y="701.3361">gets the correct vaccine dose number</text><polygon fill="#181818" points="1750.8,738.0609,1756.8,740.4609,1750.8,742.8609,1753.2,740.4609" style="stroke:#181818;stroke-width:0.6;"/><line style="stroke:#181818;stroke-width:0.6;" x1="1065.9" x2="1754.4" y1="740.4609" y2="740.4609"/><text fill="#000000" font-family="sans-serif" font-size="7.8" font-weight="bold" lengthAdjust="spacing" textLength="8.4" x="1070.1" y="737.5471">27</text><text fill="#000000" font-family="sans-serif" font-size="7.8" lengthAdjust="spacing" textLength="140.4" x="1080.9" y="737.5471">removes users data from "WaitingRoom"</text><polygon fill="#181818" points="1983.3,756.2719,1989.3,758.6719,1983.3,761.0719,1985.7,758.6719" style="stroke:#181818;stroke-width:0.6;"/><line style="stroke:#181818;stroke-width:0.6;" x1="1065.9" x2="1986.9" y1="758.6719" y2="758.6719"/><text fill="#000000" font-family="sans-serif" font-size="7.8" font-weight="bold" lengthAdjust="spacing" textLength="8.4" x="1070.1" y="755.758">28</text><text fill="#000000" font-family="sans-serif" font-size="7.8" lengthAdjust="spacing" textLength="125.4" x="1080.9" y="755.758">adds users data to "RecoveryRoom"</text><polygon fill="#181818" points="1371.9,774.4828,1377.9,776.8828,1371.9,779.2828,1374.3,776.8828" style="stroke:#181818;stroke-width:0.6;"/><line style="stroke:#181818;stroke-width:0.6;" x1="1065.9" x2="1375.5" y1="776.8828" y2="776.8828"/><text fill="#000000" font-family="sans-serif" font-size="7.8" font-weight="bold" lengthAdjust="spacing" textLength="8.4" x="1070.1" y="773.9689">29</text><text fill="#000000" font-family="sans-serif" font-size="7.8" lengthAdjust="spacing" textLength="288" x="1080.9" y="773.9689">sends vaccineLotNumberFinal, currentVaccine and vaccineDoseNumber for storage</text><polygon fill="#181818" points="1368.9,792.6938,1374.9,795.0938,1368.9,797.4938,1371.3,795.0938" style="stroke:#181818;stroke-width:0.6;"/><line style="stroke:#181818;stroke-width:0.6;" x1="1065.9" x2="1372.5" y1="795.0938" y2="795.0938"/><text fill="#000000" font-family="sans-serif" font-size="7.8" font-weight="bold" lengthAdjust="spacing" textLength="8.4" x="1070.1" y="792.1799">30</text><text fill="#000000" font-family="sans-serif" font-size="7.8" lengthAdjust="spacing" textLength="169.2" x="1080.9" y="792.1799">requests the creation of a new Vaccination Event</text><line style="stroke:#181818;stroke-width:0.6;" x1="1382.1" x2="1407.3" y1="816.3047" y2="816.3047"/><line style="stroke:#181818;stroke-width:0.6;" x1="1407.3" x2="1407.3" y1="816.3047" y2="824.1047"/><line style="stroke:#181818;stroke-width:0.6;" x1="1379.1" x2="1407.3" y1="824.1047" y2="824.1047"/><polygon fill="#181818" points="1385.1,821.7047,1379.1,824.1047,1385.1,826.5047,1382.7,824.1047" style="stroke:#181818;stroke-width:0.6;"/><text fill="#000000" font-family="sans-serif" font-size="7.8" font-weight="bold" lengthAdjust="spacing" textLength="8.4" x="1386.3" y="813.3908">31</text><text fill="#000000" font-family="sans-serif" font-size="7.8" lengthAdjust="spacing" textLength="288" x="1397.1" y="813.3908">gets all the data and makes a VaccinationEvent and adds it to vaccinationEventList</text><polygon fill="#181818" points="1368.9,836.9156,1374.9,839.3156,1368.9,841.7156,1371.3,839.3156" style="stroke:#181818;stroke-width:0.6;"/><line style="stroke:#181818;stroke-width:0.6;" x1="1062.9" x2="1372.5" y1="839.3156" y2="839.3156"/><text fill="#000000" font-family="sans-serif" font-size="7.8" font-weight="bold" lengthAdjust="spacing" textLength="8.4" x="1067.1" y="836.4018">32</text><text fill="#000000" font-family="sans-serif" font-size="7.8" lengthAdjust="spacing" textLength="279" x="1077.9" y="836.4018">starts 30 minute timer to inform the user when he can leave the "RecoveryRoom"</text><line style="stroke:#181818;stroke-width:0.6;" x1="1382.1" x2="1407.3" y1="872.5266" y2="872.5266"/><line style="stroke:#181818;stroke-width:0.6;" x1="1407.3" x2="1407.3" y1="872.5266" y2="880.3266"/><line style="stroke:#181818;stroke-width:0.6;" x1="1382.7" x2="1407.3" y1="880.3266" y2="880.3266"/><polygon fill="#181818" points="1388.7,877.9266,1382.7,880.3266,1388.7,882.7266,1386.3,880.3266" style="stroke:#181818;stroke-width:0.6;"/><text fill="#000000" font-family="sans-serif" font-size="7.8" font-weight="bold" lengthAdjust="spacing" textLength="8.4" x="1386.3" y="869.6127">33</text><text fill="#000000" font-family="sans-serif" font-size="7.8" lengthAdjust="spacing" textLength="36.6" x="1397.1" y="869.6127">timer ends</text><line style="stroke:#181818;stroke-width:0.6;" x1="1382.1" x2="1407.3" y1="913.5375" y2="913.5375"/><line style="stroke:#181818;stroke-width:0.6;" x1="1407.3" x2="1407.3" y1="913.5375" y2="921.3375"/><line style="stroke:#181818;stroke-width:0.6;" x1="1382.7" x2="1407.3" y1="921.3375" y2="921.3375"/><polygon fill="#181818" points="1388.7,918.9375,1382.7,921.3375,1388.7,923.7375,1386.3,921.3375" style="stroke:#181818;stroke-width:0.6;"/><text fill="#000000" font-family="sans-serif" font-size="7.8" font-weight="bold" lengthAdjust="spacing" textLength="8.4" x="1386.3" y="910.6236">34</text><text fill="#000000" font-family="sans-serif" font-size="7.8" lengthAdjust="spacing" textLength="233.4" x="1397.1" y="910.6236">sends message to user to inform he can leave the "RecoveryRoom"</text><polygon fill="#181818" points="1983.3,937.1484,1989.3,939.5484,1983.3,941.9484,1985.7,939.5484" style="stroke:#181818;stroke-width:0.6;"/><line style="stroke:#181818;stroke-width:0.6;" x1="1379.1" x2="1986.9" y1="939.5484" y2="939.5484"/><text fill="#000000" font-family="sans-serif" font-size="7.8" font-weight="bold" lengthAdjust="spacing" textLength="8.4" x="1383.3" y="936.6346">35</text><text fill="#000000" font-family="sans-serif" font-size="7.8" lengthAdjust="spacing" textLength="124.2" x="1394.1" y="936.6346">removes data from "RecoveryRoom"</text><!--MD5=[8ef72c19c20ec406727720c951ca9601]
@startuml
autonumber
'hide footbox
actor "Nurse" as NR

participant "NurseUI" as NUI
participant "RecordAdministrationVaccineToUserUI" as UI
participant "RecordAdministrationVaccineToUserController" as CTRL
participant "RecordAdministrationVaccineToUserController2" as CTRL2
participant "VaccinationEventStore" as VE_STR
participant "SnsUserStore" as SU_STR
participant "WaitingRoom" as WR
participant "VaccineScheduleStore" as VS_STR
participant "VaccineType" as VT
participant "RecoveryRoom" as RR
participant "Company" as CP
participant "VaccinationEvent" as VE
participant "SnsUserVaccineSchedule" as SVS



activate NR

NR -> NUI : selects option to record the administration of a vaccine to a SNS User

activate NUI

NUI -> UI : opens "RecordAdministrationVaccineToUserUI" in a JavaFX window

deactivate NUI
activate UI

UI - -> NR : requests SNS user number

deactivate UI

NR -> UI : types requested data

NR -> UI : presses the "Press Here To See The User's Data" button

activate UI

UI -> CTRL : seeUserData()

activate CTRL

CTRL -> SU_STR : verifies if user exists

activate SU_STR

deactivate SU_STR

CTRL -> WR : verifies if user is in waiting room

activate WR

deactivate WR

CTRL -> SU_STR : requests name and age of the user

activate SU_STR

deactivate SU_STR

deactivate CTRL

UI - -> NR : shows the user´s name and age

deactivate UI

NR -> UI : presses the "Press Here To Confirm" button

activate UI

UI -> CTRL : confirmationButton()
activate CTRL

CTRL -> SU_STR : verifies if user exists

activate SU_STR

deactivate SU_STR

CTRL -> WR : verifies if user is in waiting room

activate WR

deactivate WR

CTRL -> SVS : gets user vaccine schedule

activate SVS


deactivate SVS

CTRL -> VT : gets vaccineType

activate VT


deactivate VT

CTRL -> CP : gets listOfVaccines

activate CP

deactivate CP

CTRL -> VE_STR : sends listOfVaccines for storage

CTRL -> VE_STR : sends snsUserNumber and vaccineType for storage

CTRL -> CTRL2 : opens new JavaFX window and switches to "RecordAdministrationVaccineToUserController2"

activate CTRL2
deactivate CTRL

CTRL2 -> VE_STR : requests listOfVaccines

activate VE_STR

deactivate VE_STR

deactivate CTRL2

UI - -> NR : requests the vaccine that the user has taken and its lot number

deactivate UI

NR -> UI : types requested data

NR -> UI : presses the "Press Here To Confirm" button

activate UI

UI -> CTRL2 : loadVaccines()

deactivate UI
activate CTRL2

CTRL2 -> VE_STR : gets the correct vaccine dose number

activate VE_STR

deactivate VE_STR

CTRL2 -> WR : removes users data from "WaitingRoom"

CTRL2 -> RR : adds users data to "RecoveryRoom"

CTRL2 -> VE_STR : sends vaccineLotNumberFinal, currentVaccine and vaccineDoseNumber for storage

CTRL2 -> VE_STR : requests the creation of a new Vaccination Event

activate VE_STR

VE_STR -> VE_STR : gets all the data and makes a VaccinationEvent and adds it to vaccinationEventList

deactivate VE_STR

CTRL2 -> VE_STR : starts 30 minute timer to inform the user when he can leave the "RecoveryRoom"

deactivate CTRL2
activate VE_STR
|||

VE_STR -> VE_STR : timer ends

|||

VE_STR -> VE_STR : sends message to user to inform he can leave the "RecoveryRoom"

VE_STR -> RR : removes data from "RecoveryRoom"

deactivate VE_STR

@enduml

@startuml
autonumber
actor "Nurse" as NR

participant "NurseUI" as NUI
participant "RecordAdministrationVaccineToUserUI" as UI
participant "RecordAdministrationVaccineToUserController" as CTRL
participant "RecordAdministrationVaccineToUserController2" as CTRL2
participant "VaccinationEventStore" as VE_STR
participant "SnsUserStore" as SU_STR
participant "WaitingRoom" as WR
participant "VaccineScheduleStore" as VS_STR
participant "VaccineType" as VT
participant "RecoveryRoom" as RR
participant "Company" as CP
participant "VaccinationEvent" as VE
participant "SnsUserVaccineSchedule" as SVS



activate NR

NR -> NUI : selects option to record the administration of a vaccine to a SNS User

activate NUI

NUI -> UI : opens "RecordAdministrationVaccineToUserUI" in a JavaFX window

deactivate NUI
activate UI

UI - -> NR : requests SNS user number

deactivate UI

NR -> UI : types requested data

NR -> UI : presses the "Press Here To See The User's Data" button

activate UI

UI -> CTRL : seeUserData()

activate CTRL

CTRL -> SU_STR : verifies if user exists

activate SU_STR

deactivate SU_STR

CTRL -> WR : verifies if user is in waiting room

activate WR

deactivate WR

CTRL -> SU_STR : requests name and age of the user

activate SU_STR

deactivate SU_STR

deactivate CTRL

UI - -> NR : shows the user´s name and age

deactivate UI

NR -> UI : presses the "Press Here To Confirm" button

activate UI

UI -> CTRL : confirmationButton()
activate CTRL

CTRL -> SU_STR : verifies if user exists

activate SU_STR

deactivate SU_STR

CTRL -> WR : verifies if user is in waiting room

activate WR

deactivate WR

CTRL -> SVS : gets user vaccine schedule

activate SVS


deactivate SVS

CTRL -> VT : gets vaccineType

activate VT


deactivate VT

CTRL -> CP : gets listOfVaccines

activate CP

deactivate CP

CTRL -> VE_STR : sends listOfVaccines for storage

CTRL -> VE_STR : sends snsUserNumber and vaccineType for storage

CTRL -> CTRL2 : opens new JavaFX window and switches to "RecordAdministrationVaccineToUserController2"

activate CTRL2
deactivate CTRL

CTRL2 -> VE_STR : requests listOfVaccines

activate VE_STR

deactivate VE_STR

deactivate CTRL2

UI - -> NR : requests the vaccine that the user has taken and its lot number

deactivate UI

NR -> UI : types requested data

NR -> UI : presses the "Press Here To Confirm" button

activate UI

UI -> CTRL2 : loadVaccines()

deactivate UI
activate CTRL2

CTRL2 -> VE_STR : gets the correct vaccine dose number

activate VE_STR

deactivate VE_STR

CTRL2 -> WR : removes users data from "WaitingRoom"

CTRL2 -> RR : adds users data to "RecoveryRoom"

CTRL2 -> VE_STR : sends vaccineLotNumberFinal, currentVaccine and vaccineDoseNumber for storage

CTRL2 -> VE_STR : requests the creation of a new Vaccination Event

activate VE_STR

VE_STR -> VE_STR : gets all the data and makes a VaccinationEvent and adds it to vaccinationEventList

deactivate VE_STR

CTRL2 -> VE_STR : starts 30 minute timer to inform the user when he can leave the "RecoveryRoom"

deactivate CTRL2
activate VE_STR
|||

VE_STR -> VE_STR : timer ends

|||

VE_STR -> VE_STR : sends message to user to inform he can leave the "RecoveryRoom"

VE_STR -> RR : removes data from "RecoveryRoom"

deactivate VE_STR

@enduml

PlantUML version 1.2022.5(Sat Apr 30 11:55:52 BST 2022)
(GPL source distribution)
Java Runtime: OpenJDK Runtime Environment
JVM: OpenJDK 64-Bit Server VM
Default Encoding: Cp1252
Language: pt
Country: PT
--></g></svg>