<?xml version="1.0" encoding="UTF-8" standalone="no"?><svg xmlns="http://www.w3.org/2000/svg" xmlns:xlink="http://www.w3.org/1999/xlink" contentStyleType="text/css" height="323px" preserveAspectRatio="none" style="width:458px;height:323px;background:#FFFFFF;" version="1.1" viewBox="0 0 458 323" width="458px" zoomAndPan="magnify"><defs/><g><rect fill="#FFFFFF" height="140.2422" style="stroke:#181818;stroke-width:1.0;" width="10" x="36.5" y="92.6094"/><rect fill="#FFFFFF" height="116.8906" style="stroke:#181818;stroke-width:1.0;" width="10" x="404.5" y="114.9609"/><rect height="94.8906" style="stroke:#000000;stroke-width:1.5;fill:none;" width="441.5" x="10" y="129.9609"/><line style="stroke:#181818;stroke-width:0.5;fill:none;stroke-dasharray:5.0,5.0;" x1="41" x2="41" y1="82.6094" y2="241.8516"/><line style="stroke:#181818;stroke-width:0.5;fill:none;stroke-dasharray:5.0,5.0;" x1="409.5" x2="409.5" y1="82.6094" y2="241.8516"/><text fill="#000000" font-family="sans-serif" font-size="14" lengthAdjust="spacing" textLength="37" x="20" y="79.5332">Nurse</text><ellipse cx="41.5" cy="13.5" fill="#E2E2F0" rx="8" ry="8" style="stroke:#181818;stroke-width:0.5;"/><path d="M41.5,21.5 L41.5,48.5 M28.5,29.5 L54.5,29.5 M41.5,48.5 L28.5,63.5 M41.5,48.5 L54.5,63.5 " fill="none" style="stroke:#181818;stroke-width:0.5;"/><text fill="#000000" font-family="sans-serif" font-size="14" lengthAdjust="spacing" textLength="37" x="20" y="255.3848">Nurse</text><ellipse cx="41.5" cy="266.9609" fill="#E2E2F0" rx="8" ry="8" style="stroke:#181818;stroke-width:0.5;"/><path d="M41.5,274.9609 L41.5,301.9609 M28.5,282.9609 L54.5,282.9609 M41.5,301.9609 L28.5,316.9609 M41.5,301.9609 L54.5,316.9609 " fill="none" style="stroke:#181818;stroke-width:0.5;"/><rect fill="#E2E2F0" height="31.6094" rx="2.5" ry="2.5" style="stroke:#181818;stroke-width:0.5;" width="64" x="377.5" y="50"/><text fill="#000000" font-family="sans-serif" font-size="14" lengthAdjust="spacing" textLength="50" x="384.5" y="71.5332">:System</text><rect fill="#E2E2F0" height="31.6094" rx="2.5" ry="2.5" style="stroke:#181818;stroke-width:0.5;" width="64" x="377.5" y="240.8516"/><text fill="#000000" font-family="sans-serif" font-size="14" lengthAdjust="spacing" textLength="50" x="384.5" y="262.3848">:System</text><rect fill="#FFFFFF" height="140.2422" style="stroke:#181818;stroke-width:1.0;" width="10" x="36.5" y="92.6094"/><rect fill="#FFFFFF" height="116.8906" style="stroke:#181818;stroke-width:1.0;" width="10" x="404.5" y="114.9609"/><polygon fill="#181818" points="392.5,110.9609,402.5,114.9609,392.5,118.9609,396.5,114.9609" style="stroke:#181818;stroke-width:1.0;"/><line style="stroke:#181818;stroke-width:1.0;" x1="46.5" x2="398.5" y1="114.9609" y2="114.9609"/><text fill="#000000" font-family="sans-serif" font-size="13" font-weight="bold" lengthAdjust="spacing" textLength="7" x="53.5" y="110.1045">1</text><text fill="#000000" font-family="sans-serif" font-size="13" lengthAdjust="spacing" textLength="328" x="64.5" y="110.1045">Starts the option to consult the users in the waiting room</text><path d="M10,129.9609 L71,129.9609 L71,138.3125 L61,148.3125 L10,148.3125 L10,129.9609 " fill="#EEEEEE" style="stroke:#000000;stroke-width:1.5;"/><rect fill="none" height="94.8906" style="stroke:#000000;stroke-width:1.5;" width="441.5" x="10" y="129.9609"/><text fill="#000000" font-family="sans-serif" font-size="13" font-weight="bold" lengthAdjust="spacing" textLength="16" x="25" y="144.4561">alt</text><text fill="#000000" font-family="sans-serif" font-size="11" font-weight="bold" lengthAdjust="spacing" textLength="263" x="86" y="143.3799">[list with users in the waiting room isn't empty]</text><polygon fill="#181818" points="57.5,166.6641,47.5,170.6641,57.5,174.6641,53.5,170.6641" style="stroke:#181818;stroke-width:1.0;"/><line style="stroke:#181818;stroke-width:1.0;stroke-dasharray:2.0,2.0;" x1="51.5" x2="403.5" y1="170.6641" y2="170.6641"/><text fill="#000000" font-family="sans-serif" font-size="13" font-weight="bold" lengthAdjust="spacing" textLength="7" x="63.5" y="165.8076">2</text><text fill="#000000" font-family="sans-serif" font-size="13" lengthAdjust="spacing" textLength="273" x="74.5" y="165.8076">Returns the list of the users in the waiting room</text><line style="stroke:#000000;stroke-width:1.0;stroke-dasharray:2.0,2.0;" x1="10" x2="451.5" y1="179.6641" y2="179.6641"/><text fill="#000000" font-family="sans-serif" font-size="11" font-weight="bold" lengthAdjust="spacing" textLength="249" x="15" y="191.083">[list with users in the waiting room is empty]</text><polygon fill="#181818" points="57.5,212.8516,47.5,216.8516,57.5,220.8516,53.5,216.8516" style="stroke:#181818;stroke-width:1.0;"/><line style="stroke:#181818;stroke-width:1.0;stroke-dasharray:2.0,2.0;" x1="51.5" x2="403.5" y1="216.8516" y2="216.8516"/><text fill="#000000" font-family="sans-serif" font-size="13" font-weight="bold" lengthAdjust="spacing" textLength="7" x="63.5" y="211.9951">3</text><text fill="#000000" font-family="sans-serif" font-size="13" lengthAdjust="spacing" textLength="300" x="74.5" y="211.9951">Message: "There are no users on the waiting room."</text><!--MD5=[9448500fcdab7a6a9f7cff477c1d25a9]
@startuml
'https://plantuml.com/sequence-diagram

autonumber

actor Nurse
activate Nurse

Nurse -> ":System" : Starts the option to consult the users in the waiting room
activate ":System"

alt list with users in the waiting room isn't empty
":System" - -> Nurse : Returns the list of the users in the waiting room
else list with users in the waiting room is empty
":System" - -> Nurse : Message: "There are no users on the waiting room."
end

deactivate ":System"

@enduml

@startuml

autonumber

actor Nurse
activate Nurse

Nurse -> ":System" : Starts the option to consult the users in the waiting room
activate ":System"

alt list with users in the waiting room isn't empty
":System" - -> Nurse : Returns the list of the users in the waiting room
else list with users in the waiting room is empty
":System" - -> Nurse : Message: "There are no users on the waiting room."
end

deactivate ":System"

@enduml

PlantUML version 1.2022.5(Sat Apr 30 11:55:52 BST 2022)
(GPL source distribution)
Java Runtime: OpenJDK Runtime Environment
JVM: OpenJDK 64-Bit Server VM
Default Encoding: Cp1252
Language: pt
Country: PT
--></g></svg>