<?xml version="1.0" encoding="UTF-8" standalone="no"?><svg xmlns="http://www.w3.org/2000/svg" xmlns:xlink="http://www.w3.org/1999/xlink" contentStyleType="text/css" height="867px" preserveAspectRatio="none" style="width:2027px;height:867px;background:#FFFFFF;" version="1.1" viewBox="0 0 2027 867" width="2027px" zoomAndPan="magnify"><defs/><g><line style="stroke:#181818;stroke-width:0.5;stroke-dasharray:5.0,5.0;" x1="49" x2="49" y1="82.6094" y2="785.6406"/><line style="stroke:#181818;stroke-width:0.5;stroke-dasharray:5.0,5.0;" x1="444" x2="444" y1="82.6094" y2="785.6406"/><line style="stroke:#181818;stroke-width:0.5;stroke-dasharray:5.0,5.0;" x1="1056" x2="1056" y1="82.6094" y2="785.6406"/><line style="stroke:#181818;stroke-width:0.5;stroke-dasharray:5.0,5.0;" x1="1367.5" x2="1367.5" y1="82.6094" y2="785.6406"/><line style="stroke:#181818;stroke-width:0.5;stroke-dasharray:5.0,5.0;" x1="1585.5" x2="1585.5" y1="82.6094" y2="785.6406"/><line style="stroke:#181818;stroke-width:0.5;stroke-dasharray:5.0,5.0;" x1="1803" x2="1803" y1="82.6094" y2="785.6406"/><text fill="#000000" font-family="sans-serif" font-size="14" lengthAdjust="spacing" textLength="83" x="5" y="79.5332">Administrator</text><ellipse cx="49.5" cy="13.5" fill="#E2E2F0" rx="8" ry="8" style="stroke:#181818;stroke-width:0.5;"/><path d="M49.5,21.5 L49.5,48.5 M36.5,29.5 L62.5,29.5 M49.5,48.5 L36.5,63.5 M49.5,48.5 L62.5,63.5 " fill="none" style="stroke:#181818;stroke-width:0.5;"/><text fill="#000000" font-family="sans-serif" font-size="14" lengthAdjust="spacing" textLength="83" x="5" y="799.1738">Administrator</text><ellipse cx="49.5" cy="810.75" fill="#E2E2F0" rx="8" ry="8" style="stroke:#181818;stroke-width:0.5;"/><path d="M49.5,818.75 L49.5,845.75 M36.5,826.75 L62.5,826.75 M49.5,845.75 L36.5,860.75 M49.5,845.75 L62.5,860.75 " fill="none" style="stroke:#181818;stroke-width:0.5;"/><rect fill="#E2E2F0" height="31.6094" rx="2.5" ry="2.5" style="stroke:#181818;stroke-width:0.5;" width="313" x="288" y="50"/><text fill="#000000" font-family="sans-serif" font-size="14" lengthAdjust="spacing" textLength="299" x="295" y="71.5332">SpecifyNewVaccineAndAdministrationProcessUI</text><rect fill="#E2E2F0" height="31.6094" rx="2.5" ry="2.5" style="stroke:#181818;stroke-width:0.5;" width="313" x="288" y="784.6406"/><text fill="#000000" font-family="sans-serif" font-size="14" lengthAdjust="spacing" textLength="299" x="295" y="806.1738">SpecifyNewVaccineAndAdministrationProcessUI</text><rect fill="#E2E2F0" height="31.6094" rx="2.5" ry="2.5" style="stroke:#181818;stroke-width:0.5;" width="363" x="875" y="50"/><text fill="#000000" font-family="sans-serif" font-size="14" lengthAdjust="spacing" textLength="349" x="882" y="71.5332">SpecifyNewVaccineAndAdministrationProcessController</text><rect fill="#E2E2F0" height="31.6094" rx="2.5" ry="2.5" style="stroke:#181818;stroke-width:0.5;" width="363" x="875" y="784.6406"/><text fill="#000000" font-family="sans-serif" font-size="14" lengthAdjust="spacing" textLength="349" x="882" y="806.1738">SpecifyNewVaccineAndAdministrationProcessController</text><rect fill="#E2E2F0" height="31.6094" rx="2.5" ry="2.5" style="stroke:#181818;stroke-width:0.5;" width="74" x="1330.5" y="50"/><text fill="#000000" font-family="sans-serif" font-size="14" lengthAdjust="spacing" textLength="60" x="1337.5" y="71.5332">Company</text><rect fill="#E2E2F0" height="31.6094" rx="2.5" ry="2.5" style="stroke:#181818;stroke-width:0.5;" width="74" x="1330.5" y="784.6406"/><text fill="#000000" font-family="sans-serif" font-size="14" lengthAdjust="spacing" textLength="60" x="1337.5" y="806.1738">Company</text><rect fill="#E2E2F0" height="31.6094" rx="2.5" ry="2.5" style="stroke:#181818;stroke-width:0.5;" width="64" x="1553.5" y="50"/><text fill="#000000" font-family="sans-serif" font-size="14" lengthAdjust="spacing" textLength="50" x="1560.5" y="71.5332">Vaccine</text><rect fill="#E2E2F0" height="31.6094" rx="2.5" ry="2.5" style="stroke:#181818;stroke-width:0.5;" width="64" x="1553.5" y="784.6406"/><text fill="#000000" font-family="sans-serif" font-size="14" lengthAdjust="spacing" textLength="50" x="1560.5" y="806.1738">Vaccine</text><rect fill="#E2E2F0" height="31.6094" rx="2.5" ry="2.5" style="stroke:#181818;stroke-width:0.5;" width="153" x="1727" y="50"/><text fill="#000000" font-family="sans-serif" font-size="14" lengthAdjust="spacing" textLength="139" x="1734" y="71.5332">VaccineAdministration</text><rect fill="#E2E2F0" height="31.6094" rx="2.5" ry="2.5" style="stroke:#181818;stroke-width:0.5;" width="153" x="1727" y="784.6406"/><text fill="#000000" font-family="sans-serif" font-size="14" lengthAdjust="spacing" textLength="139" x="1734" y="806.1738">VaccineAdministration</text><polygon fill="#181818" points="432.5,110.9609,442.5,114.9609,432.5,118.9609,436.5,114.9609" style="stroke:#181818;stroke-width:1.0;"/><line style="stroke:#181818;stroke-width:1.0;" x1="49.5" x2="438.5" y1="114.9609" y2="114.9609"/><text fill="#000000" font-family="sans-serif" font-size="13" font-weight="bold" lengthAdjust="spacing" textLength="7" x="56.5" y="110.1045">1</text><text fill="#000000" font-family="sans-serif" font-size="13" lengthAdjust="spacing" textLength="360" x="67.5" y="110.1045">Starts specifying a new vaccine and its administration process</text><polygon fill="#181818" points="60.5,141.3125,50.5,145.3125,60.5,149.3125,56.5,145.3125" style="stroke:#181818;stroke-width:1.0;"/><line style="stroke:#181818;stroke-width:1.0;stroke-dasharray:2.0,2.0;" x1="54.5" x2="443.5" y1="145.3125" y2="145.3125"/><text fill="#000000" font-family="sans-serif" font-size="13" font-weight="bold" lengthAdjust="spacing" textLength="7" x="66.5" y="140.4561">2</text><text fill="#000000" font-family="sans-serif" font-size="13" lengthAdjust="spacing" textLength="131" x="77.5" y="140.4561">Requests vaccine data</text><polygon fill="#181818" points="432.5,171.6641,442.5,175.6641,432.5,179.6641,436.5,175.6641" style="stroke:#181818;stroke-width:1.0;"/><line style="stroke:#181818;stroke-width:1.0;" x1="49.5" x2="438.5" y1="175.6641" y2="175.6641"/><text fill="#000000" font-family="sans-serif" font-size="13" font-weight="bold" lengthAdjust="spacing" textLength="7" x="56.5" y="170.8076">3</text><text fill="#000000" font-family="sans-serif" font-size="13" lengthAdjust="spacing" textLength="138" x="67.5" y="170.8076">Types new vaccine data</text><polygon fill="#181818" points="1044.5,202.0156,1054.5,206.0156,1044.5,210.0156,1048.5,206.0156" style="stroke:#181818;stroke-width:1.0;"/><line style="stroke:#181818;stroke-width:1.0;" x1="444.5" x2="1050.5" y1="206.0156" y2="206.0156"/><text fill="#000000" font-family="sans-serif" font-size="13" font-weight="bold" lengthAdjust="spacing" textLength="7" x="451.5" y="201.1592">4</text><text fill="#000000" font-family="sans-serif" font-size="13" lengthAdjust="spacing" textLength="223" x="462.5" y="201.1592">CreateNewVaccine(name, brand, type)</text><polygon fill="#181818" points="1355.5,232.3672,1365.5,236.3672,1355.5,240.3672,1359.5,236.3672" style="stroke:#181818;stroke-width:1.0;"/><line style="stroke:#181818;stroke-width:1.0;" x1="1056.5" x2="1361.5" y1="236.3672" y2="236.3672"/><text fill="#000000" font-family="sans-serif" font-size="13" font-weight="bold" lengthAdjust="spacing" textLength="7" x="1063.5" y="231.5107">5</text><text fill="#000000" font-family="sans-serif" font-size="13" lengthAdjust="spacing" textLength="143" x="1074.5" y="231.5107">vt = CreateNewVaccine()</text><polygon fill="#181818" points="1355.5,262.7188,1365.5,266.7188,1355.5,270.7188,1359.5,266.7188" style="stroke:#181818;stroke-width:1.0;"/><line style="stroke:#181818;stroke-width:1.0;" x1="1056.5" x2="1361.5" y1="266.7188" y2="266.7188"/><text fill="#000000" font-family="sans-serif" font-size="13" font-weight="bold" lengthAdjust="spacing" textLength="7" x="1063.5" y="261.8623">6</text><text fill="#000000" font-family="sans-serif" font-size="13" lengthAdjust="spacing" textLength="127" x="1074.5" y="261.8623">vt = ValidateVaccine()</text><polygon fill="#181818" points="1573.5,293.0703,1583.5,297.0703,1573.5,301.0703,1577.5,297.0703" style="stroke:#181818;stroke-width:1.0;"/><line style="stroke:#181818;stroke-width:1.0;" x1="1367.5" x2="1579.5" y1="297.0703" y2="297.0703"/><text fill="#000000" font-family="sans-serif" font-size="13" font-weight="bold" lengthAdjust="spacing" textLength="7" x="1374.5" y="292.2139">7</text><text fill="#000000" font-family="sans-serif" font-size="13" lengthAdjust="spacing" textLength="118" x="1385.5" y="292.2139">CreateNewVaccine()</text><line style="stroke:#181818;stroke-width:1.0;" x1="1585.5" x2="1627.5" y1="327.4219" y2="327.4219"/><line style="stroke:#181818;stroke-width:1.0;" x1="1627.5" x2="1627.5" y1="327.4219" y2="340.4219"/><line style="stroke:#181818;stroke-width:1.0;" x1="1586.5" x2="1627.5" y1="340.4219" y2="340.4219"/><polygon fill="#181818" points="1596.5,336.4219,1586.5,340.4219,1596.5,344.4219,1592.5,340.4219" style="stroke:#181818;stroke-width:1.0;"/><text fill="#000000" font-family="sans-serif" font-size="13" font-weight="bold" lengthAdjust="spacing" textLength="7" x="1592.5" y="322.5654">8</text><text fill="#000000" font-family="sans-serif" font-size="13" lengthAdjust="spacing" textLength="102" x="1603.5" y="322.5654">ValidateVaccine()</text><polygon fill="#181818" points="60.5,391.7734,50.5,395.7734,60.5,399.7734,56.5,395.7734" style="stroke:#181818;stroke-width:1.0;"/><line style="stroke:#181818;stroke-width:1.0;stroke-dasharray:2.0,2.0;" x1="54.5" x2="443.5" y1="395.7734" y2="395.7734"/><text fill="#000000" font-family="sans-serif" font-size="13" font-weight="bold" lengthAdjust="spacing" textLength="7" x="66.5" y="390.917">9</text><text fill="#000000" font-family="sans-serif" font-size="13" lengthAdjust="spacing" textLength="169" x="77.5" y="390.917">Requests administration data</text><polygon fill="#181818" points="432.5,422.125,442.5,426.125,432.5,430.125,436.5,426.125" style="stroke:#181818;stroke-width:1.0;"/><line style="stroke:#181818;stroke-width:1.0;" x1="49.5" x2="438.5" y1="426.125" y2="426.125"/><text fill="#000000" font-family="sans-serif" font-size="13" font-weight="bold" lengthAdjust="spacing" textLength="14" x="56.5" y="421.2686">10</text><text fill="#000000" font-family="sans-serif" font-size="13" lengthAdjust="spacing" textLength="149" x="74.5" y="421.2686">Types administration data</text><polygon fill="#181818" points="1044.5,452.4766,1054.5,456.4766,1044.5,460.4766,1048.5,456.4766" style="stroke:#181818;stroke-width:1.0;"/><line style="stroke:#181818;stroke-width:1.0;" x1="444.5" x2="1050.5" y1="456.4766" y2="456.4766"/><text fill="#000000" font-family="sans-serif" font-size="13" font-weight="bold" lengthAdjust="spacing" textLength="14" x="451.5" y="451.6201">11</text><text fill="#000000" font-family="sans-serif" font-size="13" lengthAdjust="spacing" textLength="570" x="469.5" y="451.6201">CreateVaccineAdministration(dosage, number of doses, minimum age group, maximum age group)</text><polygon fill="#181818" points="1355.5,482.8281,1365.5,486.8281,1355.5,490.8281,1359.5,486.8281" style="stroke:#181818;stroke-width:1.0;"/><line style="stroke:#181818;stroke-width:1.0;" x1="1056.5" x2="1361.5" y1="486.8281" y2="486.8281"/><text fill="#000000" font-family="sans-serif" font-size="13" font-weight="bold" lengthAdjust="spacing" textLength="14" x="1063.5" y="481.9717">12</text><text fill="#000000" font-family="sans-serif" font-size="13" lengthAdjust="spacing" textLength="176" x="1081.5" y="481.9717">CreateVaccineAdministration()</text><polygon fill="#181818" points="1573.5,513.1797,1583.5,517.1797,1573.5,521.1797,1577.5,517.1797" style="stroke:#181818;stroke-width:1.0;"/><line style="stroke:#181818;stroke-width:1.0;" x1="1367.5" x2="1579.5" y1="517.1797" y2="517.1797"/><text fill="#000000" font-family="sans-serif" font-size="13" font-weight="bold" lengthAdjust="spacing" textLength="14" x="1374.5" y="512.3232">13</text><text fill="#000000" font-family="sans-serif" font-size="13" lengthAdjust="spacing" textLength="176" x="1392.5" y="512.3232">CreateVaccineAdministration()</text><polygon fill="#181818" points="1791.5,543.5313,1801.5,547.5313,1791.5,551.5313,1795.5,547.5313" style="stroke:#181818;stroke-width:1.0;"/><line style="stroke:#181818;stroke-width:1.0;" x1="1585.5" x2="1797.5" y1="547.5313" y2="547.5313"/><text fill="#000000" font-family="sans-serif" font-size="13" font-weight="bold" lengthAdjust="spacing" textLength="14" x="1592.5" y="542.6748">14</text><text fill="#000000" font-family="sans-serif" font-size="13" lengthAdjust="spacing" textLength="176" x="1610.5" y="542.6748">CreateVaccineAdministration()</text><line style="stroke:#181818;stroke-width:1.0;" x1="1803.5" x2="1845.5" y1="577.8828" y2="577.8828"/><line style="stroke:#181818;stroke-width:1.0;" x1="1845.5" x2="1845.5" y1="577.8828" y2="590.8828"/><line style="stroke:#181818;stroke-width:1.0;" x1="1804.5" x2="1845.5" y1="590.8828" y2="590.8828"/><polygon fill="#181818" points="1814.5,586.8828,1804.5,590.8828,1814.5,594.8828,1810.5,590.8828" style="stroke:#181818;stroke-width:1.0;"/><text fill="#000000" font-family="sans-serif" font-size="13" font-weight="bold" lengthAdjust="spacing" textLength="14" x="1810.5" y="573.0264">15</text><text fill="#000000" font-family="sans-serif" font-size="13" lengthAdjust="spacing" textLength="192" x="1828.5" y="573.0264">ValidatesVaccineAdministration()</text><polygon fill="#181818" points="60.5,642.2344,50.5,646.2344,60.5,650.2344,56.5,646.2344" style="stroke:#181818;stroke-width:1.0;"/><line style="stroke:#181818;stroke-width:1.0;stroke-dasharray:2.0,2.0;" x1="54.5" x2="443.5" y1="646.2344" y2="646.2344"/><text fill="#000000" font-family="sans-serif" font-size="13" font-weight="bold" lengthAdjust="spacing" textLength="14" x="66.5" y="641.3779">16</text><text fill="#000000" font-family="sans-serif" font-size="13" lengthAdjust="spacing" textLength="193" x="84.5" y="641.3779">Requests confirmation for all data</text><polygon fill="#181818" points="432.5,672.5859,442.5,676.5859,432.5,680.5859,436.5,676.5859" style="stroke:#181818;stroke-width:1.0;"/><line style="stroke:#181818;stroke-width:1.0;" x1="49.5" x2="438.5" y1="676.5859" y2="676.5859"/><text fill="#000000" font-family="sans-serif" font-size="13" font-weight="bold" lengthAdjust="spacing" textLength="14" x="56.5" y="671.7295">17</text><text fill="#000000" font-family="sans-serif" font-size="13" lengthAdjust="spacing" textLength="97" x="74.5" y="671.7295">Confirms all data</text><polygon fill="#181818" points="1044.5,702.9375,1054.5,706.9375,1044.5,710.9375,1048.5,706.9375" style="stroke:#181818;stroke-width:1.0;"/><line style="stroke:#181818;stroke-width:1.0;" x1="444.5" x2="1050.5" y1="706.9375" y2="706.9375"/><text fill="#000000" font-family="sans-serif" font-size="13" font-weight="bold" lengthAdjust="spacing" textLength="14" x="451.5" y="702.0811">18</text><text fill="#000000" font-family="sans-serif" font-size="13" lengthAdjust="spacing" textLength="97" x="469.5" y="702.0811">Confirms all data</text><polygon fill="#181818" points="1355.5,733.2891,1365.5,737.2891,1355.5,741.2891,1359.5,737.2891" style="stroke:#181818;stroke-width:1.0;"/><line style="stroke:#181818;stroke-width:1.0;" x1="1056.5" x2="1361.5" y1="737.2891" y2="737.2891"/><text fill="#000000" font-family="sans-serif" font-size="13" font-weight="bold" lengthAdjust="spacing" textLength="14" x="1063.5" y="732.4326">19</text><text fill="#000000" font-family="sans-serif" font-size="13" lengthAdjust="spacing" textLength="269" x="1081.5" y="732.4326">Saves new vaccine and administration process</text><polygon fill="#181818" points="60.5,763.6406,50.5,767.6406,60.5,771.6406,56.5,767.6406" style="stroke:#181818;stroke-width:1.0;"/><line style="stroke:#181818;stroke-width:1.0;stroke-dasharray:2.0,2.0;" x1="54.5" x2="443.5" y1="767.6406" y2="767.6406"/><text fill="#000000" font-family="sans-serif" font-size="13" font-weight="bold" lengthAdjust="spacing" textLength="14" x="66.5" y="762.7842">20</text><text fill="#000000" font-family="sans-serif" font-size="13" lengthAdjust="spacing" textLength="152" x="84.5" y="762.7842">Informs operation success</text><!--MD5=[fe29d5a5cc6a3072aa168f1a62d776f1]
@startuml
autonumber
'hide footbox
actor "Administrator" as ADM

participant "SpecifyNewVaccineAndAdministrationProcessUI" as UI
participant "SpecifyNewVaccineAndAdministrationProcessController" as CTRL
participant "Company" as COM
participant "Vaccine" as VAC
participant "VaccineAdministration" as VACAD

ADM -> UI : Starts specifying a new vaccine and its administration process
UI - -> ADM : Requests vaccine data
ADM -> UI : Types new vaccine data
UI -> CTRL : CreateNewVaccine(name, brand, type)
CTRL -> COM : vt = CreateNewVaccine()
CTRL -> COM : vt = ValidateVaccine()
COM -> VAC : CreateNewVaccine()
VAC -> VAC : ValidateVaccine()
|||
UI - -> ADM : Requests administration data
ADM -> UI : Types administration data
UI -> CTRL : CreateVaccineAdministration(dosage, number of doses, minimum age group, maximum age group)
CTRL -> COM : CreateVaccineAdministration()
COM -> VAC : CreateVaccineAdministration()
VAC -> VACAD : CreateVaccineAdministration()
VACAD -> VACAD : ValidatesVaccineAdministration()
|||
UI - -> ADM : Requests confirmation for all data
ADM -> UI : Confirms all data
UI -> CTRL : Confirms all data
CTRL -> COM : Saves new vaccine and administration process
UI - -> ADM : Informs operation success

@enduml

@startuml
autonumber
actor "Administrator" as ADM

participant "SpecifyNewVaccineAndAdministrationProcessUI" as UI
participant "SpecifyNewVaccineAndAdministrationProcessController" as CTRL
participant "Company" as COM
participant "Vaccine" as VAC
participant "VaccineAdministration" as VACAD

ADM -> UI : Starts specifying a new vaccine and its administration process
UI - -> ADM : Requests vaccine data
ADM -> UI : Types new vaccine data
UI -> CTRL : CreateNewVaccine(name, brand, type)
CTRL -> COM : vt = CreateNewVaccine()
CTRL -> COM : vt = ValidateVaccine()
COM -> VAC : CreateNewVaccine()
VAC -> VAC : ValidateVaccine()
|||
UI - -> ADM : Requests administration data
ADM -> UI : Types administration data
UI -> CTRL : CreateVaccineAdministration(dosage, number of doses, minimum age group, maximum age group)
CTRL -> COM : CreateVaccineAdministration()
COM -> VAC : CreateVaccineAdministration()
VAC -> VACAD : CreateVaccineAdministration()
VACAD -> VACAD : ValidatesVaccineAdministration()
|||
UI - -> ADM : Requests confirmation for all data
ADM -> UI : Confirms all data
UI -> CTRL : Confirms all data
CTRL -> COM : Saves new vaccine and administration process
UI - -> ADM : Informs operation success

@enduml

PlantUML version 1.2022.4(Sat Apr 09 14:29:17 BST 2022)
(GPL source distribution)
Java Runtime: OpenJDK Runtime Environment
JVM: OpenJDK 64-Bit Server VM
Default Encoding: Cp1252
Language: pt
Country: PT
--></g></svg>