<?xml version="1.0" encoding="UTF-8" standalone="no"?><svg xmlns="http://www.w3.org/2000/svg" xmlns:xlink="http://www.w3.org/1999/xlink" contentScriptType="application/ecmascript" contentStyleType="text/css" height="344px" preserveAspectRatio="none" style="width:2899px;height:344px;background:#FFFFFF;" version="1.1" viewBox="0 0 2899 344" width="2899px" zoomAndPan="magnify"><defs><filter height="300%" id="fvnw9ubsadao3" width="300%" x="-1" y="-1"><feGaussianBlur result="blurOut" stdDeviation="2.0"/><feColorMatrix in="blurOut" result="blurOut2" type="matrix" values="0 0 0 0 0 0 0 0 0 0 0 0 0 0 0 0 0 0 .4 0"/><feOffset dx="4.0" dy="4.0" in="blurOut2" result="blurOut3"/><feBlend in="SourceGraphic" in2="blurOut3" mode="normal"/></filter></defs><g><!--MD5=[0949c93bb2ceac2c9377da7237d80f71]
class VaccinationCenterUI--><rect codeLine="3" fill="#FEFECE" filter="url(#fvnw9ubsadao3)" height="48" id="VaccinationCenterUI" style="stroke:#A80036;stroke-width:1.5;" width="144" x="403" y="7"/><ellipse cx="418" cy="23" fill="#ADD1B2" rx="11" ry="11" style="stroke:#A80036;stroke-width:1.0;"/><path d="M420,19.5 Q420.2031,19 420.4375,18.75 Q420.6719,18.5 420.9375,18.5 Q421.4063,18.5 421.7031,18.7813 Q422,19.0625 422,19.7188 L422,21.2813 Q422,21.9375 421.7188,22.2188 Q421.4375,22.5 421,22.5 Q420.6094,22.5 420.3594,22.3281 Q420.1094,22.1563 420,21.7031 Q419.9531,21.3906 419.7813,21.2188 Q419.4688,20.8906 418.9063,20.7031 Q418.3438,20.5 417.7813,20.5 Q417.0781,20.5 416.4844,20.7813 Q415.9063,21.0625 415.4531,21.6875 Q415,22.3125 415,23.1719 L415,24.0938 Q415,25.125 415.8438,25.8125 Q416.6875,26.5 418.1875,26.5 Q419.0781,26.5 419.7031,26.2969 Q420.0625,26.1875 420.4688,25.8281 Q420.7344,25.625 420.875,25.5625 Q421.0156,25.5 421.1875,25.5 Q421.5156,25.5 421.75,25.7656 Q422,26.0156 422,26.375 Q422,26.7188 421.6563,27.125 Q421.1563,27.7188 420.3594,28.0469 Q419.3125,28.5 418.0313,28.5 Q416.5313,28.5 415.3281,27.9063 Q414.3594,27.4375 413.6719,26.4219 Q413,25.4063 413,24.2031 L413,23.1094 Q413,21.8594 413.5938,20.7656 Q414.2031,19.6719 415.25,19.0938 Q416.3125,18.5 417.5,18.5 Q418.2188,18.5 418.8438,18.75 Q419.4688,19 420,19.5 Z " fill="#000000"/><text fill="#000000" font-family="sans-serif" font-size="12" lengthAdjust="spacing" textLength="112" x="432" y="27.9102">VaccinationCenterUI</text><line style="stroke:#A80036;stroke-width:1.5;" x1="404" x2="546" y1="39" y2="39"/><line style="stroke:#A80036;stroke-width:1.5;" x1="404" x2="546" y1="47" y2="47"/><!--MD5=[30f5d80da7eaef66e26152e87f16c093]
class VaccinationCenterController--><rect codeLine="4" fill="#FEFECE" filter="url(#fvnw9ubsadao3)" height="75.6719" id="VaccinationCenterController" style="stroke:#A80036;stroke-width:1.5;" width="936" x="7" y="185"/><ellipse cx="393.75" cy="201" fill="#ADD1B2" rx="11" ry="11" style="stroke:#A80036;stroke-width:1.0;"/><path d="M395.75,197.5 Q395.9531,197 396.1875,196.75 Q396.4219,196.5 396.6875,196.5 Q397.1563,196.5 397.4531,196.7813 Q397.75,197.0625 397.75,197.7188 L397.75,199.2813 Q397.75,199.9375 397.4688,200.2188 Q397.1875,200.5 396.75,200.5 Q396.3594,200.5 396.1094,200.3281 Q395.8594,200.1563 395.75,199.7031 Q395.7031,199.3906 395.5313,199.2188 Q395.2188,198.8906 394.6563,198.7031 Q394.0938,198.5 393.5313,198.5 Q392.8281,198.5 392.2344,198.7813 Q391.6563,199.0625 391.2031,199.6875 Q390.75,200.3125 390.75,201.1719 L390.75,202.0938 Q390.75,203.125 391.5938,203.8125 Q392.4375,204.5 393.9375,204.5 Q394.8281,204.5 395.4531,204.2969 Q395.8125,204.1875 396.2188,203.8281 Q396.4844,203.625 396.625,203.5625 Q396.7656,203.5 396.9375,203.5 Q397.2656,203.5 397.5,203.7656 Q397.75,204.0156 397.75,204.375 Q397.75,204.7188 397.4063,205.125 Q396.9063,205.7188 396.1094,206.0469 Q395.0625,206.5 393.7813,206.5 Q392.2813,206.5 391.0781,205.9063 Q390.1094,205.4375 389.4219,204.4219 Q388.75,203.4063 388.75,202.2031 L388.75,201.1094 Q388.75,199.8594 389.3438,198.7656 Q389.9531,197.6719 391,197.0938 Q392.0625,196.5 393.25,196.5 Q393.9688,196.5 394.5938,196.75 Q395.2188,197 395.75,197.5 Z " fill="#000000"/><text fill="#000000" font-family="sans-serif" font-size="12" lengthAdjust="spacing" textLength="154" x="414.25" y="205.9102">VaccinationCenterController</text><line style="stroke:#A80036;stroke-width:1.5;" x1="8" x2="942" y1="217" y2="217"/><line style="stroke:#A80036;stroke-width:1.5;" x1="8" x2="942" y1="225" y2="225"/><ellipse cx="18" cy="236" fill="#84BE84" rx="3" ry="3" style="stroke:#038048;stroke-width:1.0;"/><text fill="#000000" font-family="sans-serif" font-size="11" lengthAdjust="spacing" textLength="910" x="27" y="240.4189">createVaccinationCenter(name, address, phone number, e-mail addres, fax number, website addres, opening hours, closing hours, slot duration, maximum number of vaccines, coordinator)</text><ellipse cx="18" cy="249.8359" fill="#84BE84" rx="3" ry="3" style="stroke:#038048;stroke-width:1.0;"/><text fill="#000000" font-family="sans-serif" font-size="11" lengthAdjust="spacing" textLength="121" x="27" y="254.2549">saveVaccinationCenter()</text><!--MD5=[02e4b9b7573f1156f41e60aa5b4e25a4]
class Company--><rect codeLine="8" fill="#FEFECE" filter="url(#fvnw9ubsadao3)" height="117.1797" id="Company" style="stroke:#A80036;stroke-width:1.5;" width="936" x="978" y="164.5"/><ellipse cx="1415.25" cy="180.5" fill="#ADD1B2" rx="11" ry="11" style="stroke:#A80036;stroke-width:1.0;"/><path d="M1417.25,177 Q1417.4531,176.5 1417.6875,176.25 Q1417.9219,176 1418.1875,176 Q1418.6563,176 1418.9531,176.2813 Q1419.25,176.5625 1419.25,177.2188 L1419.25,178.7813 Q1419.25,179.4375 1418.9688,179.7188 Q1418.6875,180 1418.25,180 Q1417.8594,180 1417.6094,179.8281 Q1417.3594,179.6563 1417.25,179.2031 Q1417.2031,178.8906 1417.0313,178.7188 Q1416.7188,178.3906 1416.1563,178.2031 Q1415.5938,178 1415.0313,178 Q1414.3281,178 1413.7344,178.2813 Q1413.1563,178.5625 1412.7031,179.1875 Q1412.25,179.8125 1412.25,180.6719 L1412.25,181.5938 Q1412.25,182.625 1413.0938,183.3125 Q1413.9375,184 1415.4375,184 Q1416.3281,184 1416.9531,183.7969 Q1417.3125,183.6875 1417.7188,183.3281 Q1417.9844,183.125 1418.125,183.0625 Q1418.2656,183 1418.4375,183 Q1418.7656,183 1419,183.2656 Q1419.25,183.5156 1419.25,183.875 Q1419.25,184.2188 1418.9063,184.625 Q1418.4063,185.2188 1417.6094,185.5469 Q1416.5625,186 1415.2813,186 Q1413.7813,186 1412.5781,185.4063 Q1411.6094,184.9375 1410.9219,183.9219 Q1410.25,182.9063 1410.25,181.7031 L1410.25,180.6094 Q1410.25,179.3594 1410.8438,178.2656 Q1411.4531,177.1719 1412.5,176.5938 Q1413.5625,176 1414.75,176 Q1415.4688,176 1416.0938,176.25 Q1416.7188,176.5 1417.25,177 Z " fill="#000000"/><text fill="#000000" font-family="sans-serif" font-size="12" lengthAdjust="spacing" textLength="53" x="1435.75" y="185.4102">Company</text><line style="stroke:#A80036;stroke-width:1.5;" x1="979" x2="1913" y1="196.5" y2="196.5"/><rect fill="none" height="6" style="stroke:#C82930;stroke-width:1.0;" width="6" x="986" y="204.5"/><text fill="#000000" font-family="sans-serif" font-size="11" lengthAdjust="spacing" textLength="26" x="998" y="211.9189">name</text><line style="stroke:#A80036;stroke-width:1.5;" x1="979" x2="1913" y1="218.3359" y2="218.3359"/><ellipse cx="989" cy="229.3359" fill="#84BE84" rx="3" ry="3" style="stroke:#038048;stroke-width:1.0;"/><text fill="#000000" font-family="sans-serif" font-size="11" lengthAdjust="spacing" textLength="910" x="998" y="233.7549">createVaccinationCenter(name, address, phone number, e-mail addres, fax number, website addres, opening hours, closing hours, slot duration, maximum number of vaccines, coordinator)</text><ellipse cx="989" cy="243.1719" fill="#84BE84" rx="3" ry="3" style="stroke:#038048;stroke-width:1.0;"/><text fill="#000000" font-family="sans-serif" font-size="11" lengthAdjust="spacing" textLength="146" x="998" y="247.5908">validateVaccinationCenter(vc)</text><ellipse cx="989" cy="257.0078" fill="#84BE84" rx="3" ry="3" style="stroke:#038048;stroke-width:1.0;"/><text fill="#000000" font-family="sans-serif" font-size="11" lengthAdjust="spacing" textLength="133" x="998" y="261.4268">saveVaccinationCenter(vc)</text><rect fill="#F24D5C" height="6" style="stroke:#C82930;stroke-width:1.0;" width="6" x="986" y="267.8438"/><text fill="#000000" font-family="sans-serif" font-size="11" lengthAdjust="spacing" textLength="127" x="998" y="275.2627">addVaccinationCenter(vc)</text><!--MD5=[de60e6d4f424ae4d0522096f76a59010]
class VaccinationCenter--><rect codeLine="15" fill="#FEFECE" filter="url(#fvnw9ubsadao3)" height="214.0313" id="VaccinationCenter" style="stroke:#A80036;stroke-width:1.5;" width="905" x="1980.5" y="116"/><ellipse cx="2378.75" cy="132" fill="#ADD1B2" rx="11" ry="11" style="stroke:#A80036;stroke-width:1.0;"/><path d="M2380.75,128.5 Q2380.9531,128 2381.1875,127.75 Q2381.4219,127.5 2381.6875,127.5 Q2382.1563,127.5 2382.4531,127.7813 Q2382.75,128.0625 2382.75,128.7188 L2382.75,130.2813 Q2382.75,130.9375 2382.4688,131.2188 Q2382.1875,131.5 2381.75,131.5 Q2381.3594,131.5 2381.1094,131.3281 Q2380.8594,131.1563 2380.75,130.7031 Q2380.7031,130.3906 2380.5313,130.2188 Q2380.2188,129.8906 2379.6563,129.7031 Q2379.0938,129.5 2378.5313,129.5 Q2377.8281,129.5 2377.2344,129.7813 Q2376.6563,130.0625 2376.2031,130.6875 Q2375.75,131.3125 2375.75,132.1719 L2375.75,133.0938 Q2375.75,134.125 2376.5938,134.8125 Q2377.4375,135.5 2378.9375,135.5 Q2379.8281,135.5 2380.4531,135.2969 Q2380.8125,135.1875 2381.2188,134.8281 Q2381.4844,134.625 2381.625,134.5625 Q2381.7656,134.5 2381.9375,134.5 Q2382.2656,134.5 2382.5,134.7656 Q2382.75,135.0156 2382.75,135.375 Q2382.75,135.7188 2382.4063,136.125 Q2381.9063,136.7188 2381.1094,137.0469 Q2380.0625,137.5 2378.7813,137.5 Q2377.2813,137.5 2376.0781,136.9063 Q2375.1094,136.4375 2374.4219,135.4219 Q2373.75,134.4063 2373.75,133.2031 L2373.75,132.1094 Q2373.75,130.8594 2374.3438,129.7656 Q2374.9531,128.6719 2376,128.0938 Q2377.0625,127.5 2378.25,127.5 Q2378.9688,127.5 2379.5938,127.75 Q2380.2188,128 2380.75,128.5 Z " fill="#000000"/><text fill="#000000" font-family="sans-serif" font-size="12" lengthAdjust="spacing" textLength="100" x="2399.25" y="136.9102">VaccinationCenter</text><line style="stroke:#A80036;stroke-width:1.5;" x1="1981.5" x2="2884.5" y1="148" y2="148"/><rect fill="none" height="6" style="stroke:#C82930;stroke-width:1.0;" width="6" x="1988.5" y="156"/><text fill="#000000" font-family="sans-serif" font-size="11" lengthAdjust="spacing" textLength="26" x="2000.5" y="163.4189">name</text><rect fill="none" height="6" style="stroke:#C82930;stroke-width:1.0;" width="6" x="1988.5" y="169.8359"/><text fill="#000000" font-family="sans-serif" font-size="11" lengthAdjust="spacing" textLength="34" x="2000.5" y="177.2549">addres</text><rect fill="none" height="6" style="stroke:#C82930;stroke-width:1.0;" width="6" x="1988.5" y="183.6719"/><text fill="#000000" font-family="sans-serif" font-size="11" lengthAdjust="spacing" textLength="69" x="2000.5" y="191.0908">phone number</text><rect fill="none" height="6" style="stroke:#C82930;stroke-width:1.0;" width="6" x="1988.5" y="197.5078"/><text fill="#000000" font-family="sans-serif" font-size="11" lengthAdjust="spacing" textLength="65" x="2000.5" y="204.9268">e-mail addres</text><rect fill="none" height="6" style="stroke:#C82930;stroke-width:1.0;" width="6" x="1988.5" y="211.3438"/><text fill="#000000" font-family="sans-serif" font-size="11" lengthAdjust="spacing" textLength="55" x="2000.5" y="218.7627">fax number</text><rect fill="none" height="6" style="stroke:#C82930;stroke-width:1.0;" width="6" x="1988.5" y="225.1797"/><text fill="#000000" font-family="sans-serif" font-size="11" lengthAdjust="spacing" textLength="76" x="2000.5" y="232.5986">website addres</text><rect fill="none" height="6" style="stroke:#C82930;stroke-width:1.0;" width="6" x="1988.5" y="239.0156"/><text fill="#000000" font-family="sans-serif" font-size="11" lengthAdjust="spacing" textLength="69" x="2000.5" y="246.4346">opening hours</text><rect fill="none" height="6" style="stroke:#C82930;stroke-width:1.0;" width="6" x="1988.5" y="252.8516"/><text fill="#000000" font-family="sans-serif" font-size="11" lengthAdjust="spacing" textLength="65" x="2000.5" y="260.2705">closing hours</text><rect fill="none" height="6" style="stroke:#C82930;stroke-width:1.0;" width="6" x="1988.5" y="266.6875"/><text fill="#000000" font-family="sans-serif" font-size="11" lengthAdjust="spacing" textLength="59" x="2000.5" y="274.1064">slot duration</text><rect fill="none" height="6" style="stroke:#C82930;stroke-width:1.0;" width="6" x="1988.5" y="280.5234"/><text fill="#000000" font-family="sans-serif" font-size="11" lengthAdjust="spacing" textLength="143" x="2000.5" y="287.9424">maximum number of vaccines</text><rect fill="none" height="6" style="stroke:#C82930;stroke-width:1.0;" width="6" x="1988.5" y="294.3594"/><text fill="#000000" font-family="sans-serif" font-size="11" lengthAdjust="spacing" textLength="55" x="2000.5" y="301.7783">coordinator</text><line style="stroke:#A80036;stroke-width:1.5;" x1="1981.5" x2="2884.5" y1="308.1953" y2="308.1953"/><ellipse cx="1991.5" cy="319.1953" fill="#84BE84" rx="3" ry="3" style="stroke:#038048;stroke-width:1.0;"/><text fill="#000000" font-family="sans-serif" font-size="11" lengthAdjust="spacing" textLength="879" x="2000.5" y="323.6143">VaccinationCenter(name, address, phone number, e-mail addres, fax number, website addres, opening hours, closing hours, slot duration, maximum number of vaccines, coordinator)</text><!--MD5=[2bb26c741d8a8989873ebb0fda8a5667]
link VaccinationCenterUI to VaccinationCenterController--><path codeLine="30" d="M475,55.3 C475,86.21 475,141.35 475,179.71 " fill="none" id="VaccinationCenterUI-to-VaccinationCenterController" style="stroke:#A80036;stroke-width:1.0;stroke-dasharray:7.0,7.0;"/><polygon fill="#A80036" points="475,184.77,479,175.77,475,179.77,471,175.77,475,184.77" style="stroke:#A80036;stroke-width:1.0;"/><!--MD5=[f1b0b71cb0e083e22e413376c9309a8e]
link VaccinationCenterController to Company--><path codeLine="31" d="M943.43,223 C953.18,223 962.94,223 972.69,223 " fill="none" id="VaccinationCenterController-to-Company" style="stroke:#A80036;stroke-width:1.0;stroke-dasharray:7.0,7.0;"/><polygon fill="#A80036" points="977.79,223,968.79,219,972.79,223,968.79,227,977.79,223" style="stroke:#A80036;stroke-width:1.0;"/><!--MD5=[8eeecba333e79c9a3f008f77e540b32f]
link VaccinationCenterController to VaccinationCenter--><path codeLine="32" d="M581.81,184.89 C682.58,151.09 838.62,104.26 978.5,85.5 C1184.65,57.86 1708.24,58.62 1914.5,85.5 C1966.28,92.25 2020.24,102.64 2072.96,114.75 " fill="none" id="VaccinationCenterController-to-VaccinationCenter" style="stroke:#A80036;stroke-width:1.0;stroke-dasharray:7.0,7.0;"/><polygon fill="#A80036" points="2078.06,115.92,2070.195,109.992,2073.189,114.7915,2068.3894,117.7855,2078.06,115.92" style="stroke:#A80036;stroke-width:1.0;"/><!--MD5=[eebe9b198877275d05dd12630ed9e401]
link Company to VaccinationCenter--><path codeLine="33" d="M1914.21,223 C1934.52,223 1954.88,223 1975.17,223 " fill="none" id="Company-to-VaccinationCenter" style="stroke:#A80036;stroke-width:1.0;"/><polygon fill="#A80036" points="1980.32,223,1971.32,219,1975.32,223,1971.32,227,1980.32,223" style="stroke:#A80036;stroke-width:1.0;"/><text fill="#000000" font-family="sans-serif" font-size="13" lengthAdjust="spacing" textLength="30" x="1932.25" y="216.4951">owns</text><text fill="#000000" font-family="sans-serif" font-size="13" lengthAdjust="spacing" textLength="7" x="1922.3175" y="220.3591">1</text><text fill="#000000" font-family="sans-serif" font-size="13" lengthAdjust="spacing" textLength="5" x="1967.4966" y="220.3604">*</text><!--MD5=[493434a0aafdb6e318e61e6388affd1f]
@startuml
'https://plantuml.com/sequence-diagram

class VaccinationCenterUI
class VaccinationCenterController{
+createVaccinationCenter(name, address, phone number, e-mail addres, fax number, website addres, opening hours, closing hours, slot duration, maximum number of vaccines, coordinator)
+saveVaccinationCenter()
}
class Company{
-name
+createVaccinationCenter(name, address, phone number, e-mail addres, fax number, website addres, opening hours, closing hours, slot duration, maximum number of vaccines, coordinator)
+validateVaccinationCenter(vc)
+saveVaccinationCenter(vc)
-addVaccinationCenter(vc)
}
class VaccinationCenter{
-name
-addres
-phone number
-e-mail addres
-fax number
-website addres
-opening hours
-closing hours
-slot duration
-maximum number of vaccines
-coordinator
+VaccinationCenter(name, address, phone number, e-mail addres, fax number, website addres, opening hours, closing hours, slot duration, maximum number of vaccines, coordinator)
}

VaccinationCenterUI .-> VaccinationCenterController
VaccinationCenterController .-r> Company
VaccinationCenterController .-r> VaccinationCenter
Company "1"- -r>"*" VaccinationCenter: "owns"

@enduml

@startuml

class VaccinationCenterUI
class VaccinationCenterController{
+createVaccinationCenter(name, address, phone number, e-mail addres, fax number, website addres, opening hours, closing hours, slot duration, maximum number of vaccines, coordinator)
+saveVaccinationCenter()
}
class Company{
-name
+createVaccinationCenter(name, address, phone number, e-mail addres, fax number, website addres, opening hours, closing hours, slot duration, maximum number of vaccines, coordinator)
+validateVaccinationCenter(vc)
+saveVaccinationCenter(vc)
-addVaccinationCenter(vc)
}
class VaccinationCenter{
-name
-addres
-phone number
-e-mail addres
-fax number
-website addres
-opening hours
-closing hours
-slot duration
-maximum number of vaccines
-coordinator
+VaccinationCenter(name, address, phone number, e-mail addres, fax number, website addres, opening hours, closing hours, slot duration, maximum number of vaccines, coordinator)
}

VaccinationCenterUI .-> VaccinationCenterController
VaccinationCenterController .-r> Company
VaccinationCenterController .-r> VaccinationCenter
Company "1"- -r>"*" VaccinationCenter: "owns"

@enduml

PlantUML version 1.2022.1(Tue Feb 01 18:19:58 GMT 2022)
(GPL source distribution)
Java Runtime: OpenJDK Runtime Environment
JVM: OpenJDK 64-Bit Server VM
Default Encoding: Cp1252
Language: pt
Country: PT
--></g></svg>