<?xml version="1.0" encoding="UTF-8" standalone="no"?><svg xmlns="http://www.w3.org/2000/svg" xmlns:xlink="http://www.w3.org/1999/xlink" contentStyleType="text/css" height="859px" preserveAspectRatio="none" style="width:1169px;height:859px;background:#FFFFFF;" version="1.1" viewBox="0 0 1169 859" width="1169px" zoomAndPan="magnify"><defs/><g><rect fill="#FFFFFF" height="676.0547" style="stroke:#181818;stroke-width:1.0;" width="10" x="79.5" y="92.6094"/><rect fill="#FFFFFF" height="30.3516" style="stroke:#181818;stroke-width:1.0;" width="10" x="461.5" y="114.9609"/><rect fill="#FFFFFF" height="577" style="stroke:#181818;stroke-width:1.0;" width="10" x="461.5" y="175.6641"/><rect fill="#FFFFFF" height="30.3516" style="stroke:#181818;stroke-width:1.0;" width="10" x="662.5" y="206.0156"/><rect fill="#FFFFFF" height="30.3516" style="stroke:#181818;stroke-width:1.0;" width="10" x="662.5" y="292.0703"/><rect fill="#FFFFFF" height="30.3516" style="stroke:#181818;stroke-width:1.0;" width="10" x="662.5" y="438.8281"/><rect fill="#FFFFFF" height="284" style="stroke:#181818;stroke-width:1.0;" width="10" x="793" y="378.125"/><rect fill="#FFFFFF" height="223.2969" style="stroke:#181818;stroke-width:1.0;" width="10" x="1075" y="408.4766"/><rect height="509.2969" style="stroke:#000000;stroke-width:1.5;fill:none;" width="1152.5" x="10" y="251.3672"/><rect height="370.0547" style="stroke:#000000;stroke-width:1.5;fill:none;" width="1132.5" x="20" y="337.4219"/><rect height="216.2969" style="stroke:#000000;stroke-width:1.5;fill:none;" width="1112.5" x="30" y="484.1797"/><line style="stroke:#181818;stroke-width:0.5;fill:none;stroke-dasharray:5.0,5.0;" x1="84" x2="84" y1="82.6094" y2="777.6641"/><line style="stroke:#181818;stroke-width:0.5;fill:none;stroke-dasharray:5.0,5.0;" x1="466" x2="466" y1="82.6094" y2="777.6641"/><line style="stroke:#181818;stroke-width:0.5;fill:none;stroke-dasharray:5.0,5.0;" x1="667.5" x2="667.5" y1="82.6094" y2="777.6641"/><line style="stroke:#181818;stroke-width:0.5;fill:none;stroke-dasharray:5.0,5.0;" x1="797.5" x2="797.5" y1="82.6094" y2="777.6641"/><line style="stroke:#181818;stroke-width:0.5;fill:none;stroke-dasharray:5.0,5.0;" x1="1079.5" x2="1079.5" y1="82.6094" y2="777.6641"/><text fill="#000000" font-family="sans-serif" font-size="14" lengthAdjust="spacing" textLength="83" x="40" y="79.5332">Administrator</text><ellipse cx="84.5" cy="13.5" fill="#E2E2F0" rx="8" ry="8" style="stroke:#181818;stroke-width:0.5;"/><path d="M84.5,21.5 L84.5,48.5 M71.5,29.5 L97.5,29.5 M84.5,48.5 L71.5,63.5 M84.5,48.5 L97.5,63.5 " fill="none" style="stroke:#181818;stroke-width:0.5;"/><text fill="#000000" font-family="sans-serif" font-size="14" lengthAdjust="spacing" textLength="83" x="40" y="791.1973">Administrator</text><ellipse cx="84.5" cy="802.7734" fill="#E2E2F0" rx="8" ry="8" style="stroke:#181818;stroke-width:0.5;"/><path d="M84.5,810.7734 L84.5,837.7734 M71.5,818.7734 L97.5,818.7734 M84.5,837.7734 L71.5,852.7734 M84.5,837.7734 L97.5,852.7734 " fill="none" style="stroke:#181818;stroke-width:0.5;"/><rect fill="#E2E2F0" height="31.6094" rx="2.5" ry="2.5" style="stroke:#181818;stroke-width:0.5;" width="117" x="408" y="50"/><text fill="#000000" font-family="sans-serif" font-size="14" lengthAdjust="spacing" textLength="103" x="415" y="71.5332">ListEmployeesUI</text><rect fill="#E2E2F0" height="31.6094" rx="2.5" ry="2.5" style="stroke:#181818;stroke-width:0.5;" width="117" x="408" y="776.6641"/><text fill="#000000" font-family="sans-serif" font-size="14" lengthAdjust="spacing" textLength="103" x="415" y="798.1973">ListEmployeesUI</text><rect fill="#E2E2F0" height="31.6094" rx="2.5" ry="2.5" style="stroke:#181818;stroke-width:0.5;" width="74" x="630.5" y="50"/><text fill="#000000" font-family="sans-serif" font-size="14" lengthAdjust="spacing" textLength="60" x="637.5" y="71.5332">Company</text><rect fill="#E2E2F0" height="31.6094" rx="2.5" ry="2.5" style="stroke:#181818;stroke-width:0.5;" width="74" x="630.5" y="776.6641"/><text fill="#000000" font-family="sans-serif" font-size="14" lengthAdjust="spacing" textLength="60" x="637.5" y="798.1973">Company</text><rect fill="#E2E2F0" height="31.6094" rx="2.5" ry="2.5" style="stroke:#181818;stroke-width:0.5;" width="167" x="714.5" y="50"/><text fill="#000000" font-family="sans-serif" font-size="14" lengthAdjust="spacing" textLength="153" x="721.5" y="71.5332">ListEmployeesController</text><rect fill="#E2E2F0" height="31.6094" rx="2.5" ry="2.5" style="stroke:#181818;stroke-width:0.5;" width="167" x="714.5" y="776.6641"/><text fill="#000000" font-family="sans-serif" font-size="14" lengthAdjust="spacing" textLength="153" x="721.5" y="798.1973">ListEmployeesController</text><rect fill="#E2E2F0" height="31.6094" rx="2.5" ry="2.5" style="stroke:#181818;stroke-width:0.5;" width="105" x="1027.5" y="50"/><text fill="#000000" font-family="sans-serif" font-size="14" lengthAdjust="spacing" textLength="91" x="1034.5" y="71.5332">ListEmployees</text><rect fill="#E2E2F0" height="31.6094" rx="2.5" ry="2.5" style="stroke:#181818;stroke-width:0.5;" width="105" x="1027.5" y="776.6641"/><text fill="#000000" font-family="sans-serif" font-size="14" lengthAdjust="spacing" textLength="91" x="1034.5" y="798.1973">ListEmployees</text><rect fill="#FFFFFF" height="676.0547" style="stroke:#181818;stroke-width:1.0;" width="10" x="79.5" y="92.6094"/><rect fill="#FFFFFF" height="30.3516" style="stroke:#181818;stroke-width:1.0;" width="10" x="461.5" y="114.9609"/><rect fill="#FFFFFF" height="577" style="stroke:#181818;stroke-width:1.0;" width="10" x="461.5" y="175.6641"/><rect fill="#FFFFFF" height="30.3516" style="stroke:#181818;stroke-width:1.0;" width="10" x="662.5" y="206.0156"/><rect fill="#FFFFFF" height="30.3516" style="stroke:#181818;stroke-width:1.0;" width="10" x="662.5" y="292.0703"/><rect fill="#FFFFFF" height="30.3516" style="stroke:#181818;stroke-width:1.0;" width="10" x="662.5" y="438.8281"/><rect fill="#FFFFFF" height="284" style="stroke:#181818;stroke-width:1.0;" width="10" x="793" y="378.125"/><rect fill="#FFFFFF" height="223.2969" style="stroke:#181818;stroke-width:1.0;" width="10" x="1075" y="408.4766"/><polygon fill="#181818" points="449.5,110.9609,459.5,114.9609,449.5,118.9609,453.5,114.9609" style="stroke:#181818;stroke-width:1.0;"/><line style="stroke:#181818;stroke-width:1.0;" x1="89.5" x2="455.5" y1="114.9609" y2="114.9609"/><text fill="#000000" font-family="sans-serif" font-size="13" font-weight="bold" lengthAdjust="spacing" textLength="7" x="96.5" y="110.1045">1</text><text fill="#000000" font-family="sans-serif" font-size="13" lengthAdjust="spacing" textLength="237" x="107.5" y="110.1045">Starts the visualize employees list option</text><polygon fill="#181818" points="100.5,141.3125,90.5,145.3125,100.5,149.3125,96.5,145.3125" style="stroke:#181818;stroke-width:1.0;"/><line style="stroke:#181818;stroke-width:1.0;stroke-dasharray:2.0,2.0;" x1="94.5" x2="465.5" y1="145.3125" y2="145.3125"/><text fill="#000000" font-family="sans-serif" font-size="13" font-weight="bold" lengthAdjust="spacing" textLength="7" x="106.5" y="140.4561">2</text><text fill="#000000" font-family="sans-serif" font-size="13" lengthAdjust="spacing" textLength="337" x="117.5" y="140.4561">Requests the role of the employees that wants to be listed</text><polygon fill="#181818" points="449.5,171.6641,459.5,175.6641,449.5,179.6641,453.5,175.6641" style="stroke:#181818;stroke-width:1.0;"/><line style="stroke:#181818;stroke-width:1.0;" x1="89.5" x2="455.5" y1="175.6641" y2="175.6641"/><text fill="#000000" font-family="sans-serif" font-size="13" font-weight="bold" lengthAdjust="spacing" textLength="7" x="96.5" y="170.8076">3</text><text fill="#000000" font-family="sans-serif" font-size="13" lengthAdjust="spacing" textLength="320" x="107.5" y="170.8076">Enters the role of the employees that wants to be listed</text><polygon fill="#181818" points="650.5,202.0156,660.5,206.0156,650.5,210.0156,654.5,206.0156" style="stroke:#181818;stroke-width:1.0;"/><line style="stroke:#181818;stroke-width:1.0;" x1="471.5" x2="656.5" y1="206.0156" y2="206.0156"/><text fill="#000000" font-family="sans-serif" font-size="13" font-weight="bold" lengthAdjust="spacing" textLength="7" x="478.5" y="201.1592">4</text><text fill="#000000" font-family="sans-serif" font-size="13" lengthAdjust="spacing" textLength="145" x="489.5" y="201.1592">verifyIfExistsEmployees()</text><polygon fill="#181818" points="482.5,232.3672,472.5,236.3672,482.5,240.3672,478.5,236.3672" style="stroke:#181818;stroke-width:1.0;"/><line style="stroke:#181818;stroke-width:1.0;stroke-dasharray:2.0,2.0;" x1="476.5" x2="666.5" y1="236.3672" y2="236.3672"/><text fill="#000000" font-family="sans-serif" font-size="13" font-weight="bold" lengthAdjust="spacing" textLength="7" x="488.5" y="231.5107">5</text><text fill="#000000" font-family="sans-serif" font-size="13" lengthAdjust="spacing" textLength="117" x="499.5" y="231.5107">Returns true or false</text><path d="M10,251.3672 L71,251.3672 L71,259.7188 L61,269.7188 L10,269.7188 L10,251.3672 " fill="#EEEEEE" style="stroke:#000000;stroke-width:1.5;"/><rect fill="none" height="509.2969" style="stroke:#000000;stroke-width:1.5;" width="1152.5" x="10" y="251.3672"/><text fill="#000000" font-family="sans-serif" font-size="13" font-weight="bold" lengthAdjust="spacing" textLength="16" x="25" y="265.8623">alt</text><text fill="#000000" font-family="sans-serif" font-size="11" font-weight="bold" lengthAdjust="spacing" textLength="183" x="86" y="264.7861">[verifyIfExistsEmployees() = true]</text><polygon fill="#181818" points="650.5,288.0703,660.5,292.0703,650.5,296.0703,654.5,292.0703" style="stroke:#181818;stroke-width:1.0;"/><line style="stroke:#181818;stroke-width:1.0;" x1="471.5" x2="656.5" y1="292.0703" y2="292.0703"/><text fill="#000000" font-family="sans-serif" font-size="13" font-weight="bold" lengthAdjust="spacing" textLength="7" x="478.5" y="287.2139">6</text><text fill="#000000" font-family="sans-serif" font-size="13" lengthAdjust="spacing" textLength="112" x="489.5" y="287.2139">getEmployeesList()</text><polygon fill="#181818" points="482.5,318.4219,472.5,322.4219,482.5,326.4219,478.5,322.4219" style="stroke:#181818;stroke-width:1.0;"/><line style="stroke:#181818;stroke-width:1.0;stroke-dasharray:2.0,2.0;" x1="476.5" x2="666.5" y1="322.4219" y2="322.4219"/><text fill="#000000" font-family="sans-serif" font-size="13" font-weight="bold" lengthAdjust="spacing" textLength="7" x="488.5" y="317.5654">7</text><text fill="#000000" font-family="sans-serif" font-size="13" lengthAdjust="spacing" textLength="156" x="499.5" y="317.5654">return List of all employees</text><path d="M20,337.4219 L93,337.4219 L93,345.7734 L83,355.7734 L20,355.7734 L20,337.4219 " fill="#EEEEEE" style="stroke:#000000;stroke-width:1.5;"/><rect fill="none" height="370.0547" style="stroke:#000000;stroke-width:1.5;" width="1132.5" x="20" y="337.4219"/><text fill="#000000" font-family="sans-serif" font-size="13" font-weight="bold" lengthAdjust="spacing" textLength="28" x="35" y="351.917">loop</text><text fill="#000000" font-family="sans-serif" font-size="11" font-weight="bold" lengthAdjust="spacing" textLength="225" x="108" y="350.8408">[while index &lt; getEmployeesList().size()]</text><polygon fill="#181818" points="781,374.125,791,378.125,781,382.125,785,378.125" style="stroke:#181818;stroke-width:1.0;"/><line style="stroke:#181818;stroke-width:1.0;" x1="471.5" x2="787" y1="378.125" y2="378.125"/><text fill="#000000" font-family="sans-serif" font-size="13" font-weight="bold" lengthAdjust="spacing" textLength="7" x="478.5" y="373.2686">8</text><text fill="#000000" font-family="sans-serif" font-size="13" lengthAdjust="spacing" textLength="242" x="489.5" y="373.2686">getEmployeeWithWantedRole(role, index)</text><polygon fill="#181818" points="1063,404.4766,1073,408.4766,1063,412.4766,1067,408.4766" style="stroke:#181818;stroke-width:1.0;"/><line style="stroke:#181818;stroke-width:1.0;" x1="803" x2="1069" y1="408.4766" y2="408.4766"/><text fill="#000000" font-family="sans-serif" font-size="13" font-weight="bold" lengthAdjust="spacing" textLength="7" x="810" y="403.6201">9</text><text fill="#000000" font-family="sans-serif" font-size="13" lengthAdjust="spacing" textLength="242" x="821" y="403.6201">getEmployeeWithWantedRole(role, index)</text><polygon fill="#181818" points="683.5,434.8281,673.5,438.8281,683.5,442.8281,679.5,438.8281" style="stroke:#181818;stroke-width:1.0;"/><line style="stroke:#181818;stroke-width:1.0;" x1="677.5" x2="1074" y1="438.8281" y2="438.8281"/><text fill="#000000" font-family="sans-serif" font-size="13" font-weight="bold" lengthAdjust="spacing" textLength="14" x="689.5" y="433.9717">10</text><text fill="#000000" font-family="sans-serif" font-size="13" lengthAdjust="spacing" textLength="115" x="707.5" y="433.9717">getEmployee(index)</text><polygon fill="#181818" points="1063,465.1797,1073,469.1797,1063,473.1797,1067,469.1797" style="stroke:#181818;stroke-width:1.0;"/><line style="stroke:#181818;stroke-width:1.0;stroke-dasharray:2.0,2.0;" x1="667.5" x2="1069" y1="469.1797" y2="469.1797"/><text fill="#000000" font-family="sans-serif" font-size="13" font-weight="bold" lengthAdjust="spacing" textLength="14" x="674.5" y="464.3232">11</text><text fill="#000000" font-family="sans-serif" font-size="13" lengthAdjust="spacing" textLength="105" x="692.5" y="464.3232">Returns employee</text><path d="M30,484.1797 L91,484.1797 L91,492.5313 L81,502.5313 L30,502.5313 L30,484.1797 " fill="#EEEEEE" style="stroke:#000000;stroke-width:1.5;"/><rect fill="none" height="216.2969" style="stroke:#000000;stroke-width:1.5;" width="1112.5" x="30" y="484.1797"/><text fill="#000000" font-family="sans-serif" font-size="13" font-weight="bold" lengthAdjust="spacing" textLength="16" x="45" y="498.6748">alt</text><text fill="#000000" font-family="sans-serif" font-size="11" font-weight="bold" lengthAdjust="spacing" textLength="176" x="106" y="497.5986">[employee has the wanted role]</text><polygon fill="#181818" points="814,520.8828,804,524.8828,814,528.8828,810,524.8828" style="stroke:#181818;stroke-width:1.0;"/><line style="stroke:#181818;stroke-width:1.0;stroke-dasharray:2.0,2.0;" x1="808" x2="1074" y1="524.8828" y2="524.8828"/><text fill="#000000" font-family="sans-serif" font-size="13" font-weight="bold" lengthAdjust="spacing" textLength="14" x="820" y="520.0264">12</text><text fill="#000000" font-family="sans-serif" font-size="13" lengthAdjust="spacing" textLength="202" x="838" y="520.0264">Returns employee with wanted role</text><polygon fill="#181818" points="482.5,551.2344,472.5,555.2344,482.5,559.2344,478.5,555.2344" style="stroke:#181818;stroke-width:1.0;"/><line style="stroke:#181818;stroke-width:1.0;stroke-dasharray:2.0,2.0;" x1="476.5" x2="792" y1="555.2344" y2="555.2344"/><text fill="#000000" font-family="sans-serif" font-size="13" font-weight="bold" lengthAdjust="spacing" textLength="14" x="488.5" y="550.3779">13</text><text fill="#000000" font-family="sans-serif" font-size="13" lengthAdjust="spacing" textLength="202" x="506.5" y="550.3779">Returns employee with wanted role</text><polygon fill="#181818" points="100.5,581.5859,90.5,585.5859,100.5,589.5859,96.5,585.5859" style="stroke:#181818;stroke-width:1.0;"/><line style="stroke:#181818;stroke-width:1.0;stroke-dasharray:2.0,2.0;" x1="94.5" x2="460.5" y1="585.5859" y2="585.5859"/><text fill="#000000" font-family="sans-serif" font-size="13" font-weight="bold" lengthAdjust="spacing" textLength="14" x="106.5" y="580.7295">14</text><text fill="#000000" font-family="sans-serif" font-size="13" lengthAdjust="spacing" textLength="202" x="124.5" y="580.7295">Returns employee with wanted role</text><line style="stroke:#000000;stroke-width:1.0;stroke-dasharray:2.0,2.0;" x1="30" x2="1142.5" y1="594.5859" y2="594.5859"/><text fill="#000000" font-family="sans-serif" font-size="11" font-weight="bold" lengthAdjust="spacing" textLength="197" x="35" y="606.0049">[employee has not the wanted role]</text><polygon fill="#181818" points="814,627.7734,804,631.7734,814,635.7734,810,631.7734" style="stroke:#181818;stroke-width:1.0;"/><line style="stroke:#181818;stroke-width:1.0;stroke-dasharray:2.0,2.0;" x1="808" x2="1079" y1="631.7734" y2="631.7734"/><text fill="#000000" font-family="sans-serif" font-size="13" font-weight="bold" lengthAdjust="spacing" textLength="14" x="820" y="626.917">15</text><text fill="#000000" font-family="sans-serif" font-size="13" lengthAdjust="spacing" textLength="69" x="838" y="626.917">Returns null</text><polygon fill="#181818" points="482.5,658.125,472.5,662.125,482.5,666.125,478.5,662.125" style="stroke:#181818;stroke-width:1.0;"/><line style="stroke:#181818;stroke-width:1.0;stroke-dasharray:2.0,2.0;" x1="476.5" x2="797" y1="662.125" y2="662.125"/><text fill="#000000" font-family="sans-serif" font-size="13" font-weight="bold" lengthAdjust="spacing" textLength="14" x="488.5" y="657.2686">16</text><text fill="#000000" font-family="sans-serif" font-size="13" lengthAdjust="spacing" textLength="69" x="506.5" y="657.2686">Returns null</text><polygon fill="#181818" points="100.5,688.4766,90.5,692.4766,100.5,696.4766,96.5,692.4766" style="stroke:#181818;stroke-width:1.0;"/><line style="stroke:#181818;stroke-width:1.0;stroke-dasharray:2.0,2.0;" x1="94.5" x2="460.5" y1="692.4766" y2="692.4766"/><text fill="#000000" font-family="sans-serif" font-size="13" font-weight="bold" lengthAdjust="spacing" textLength="14" x="106.5" y="687.6201">17</text><text fill="#000000" font-family="sans-serif" font-size="13" lengthAdjust="spacing" textLength="69" x="124.5" y="687.6201">Returns null</text><line style="stroke:#000000;stroke-width:1.0;stroke-dasharray:2.0,2.0;" x1="10" x2="1162.5" y1="715.4766" y2="715.4766"/><text fill="#000000" font-family="sans-serif" font-size="11" font-weight="bold" lengthAdjust="spacing" textLength="179" x="15" y="726.8955">[verifyIfExistsEmployees = false]</text><polygon fill="#181818" points="100.5,748.6641,90.5,752.6641,100.5,756.6641,96.5,752.6641" style="stroke:#181818;stroke-width:1.0;"/><line style="stroke:#181818;stroke-width:1.0;stroke-dasharray:2.0,2.0;" x1="94.5" x2="465.5" y1="752.6641" y2="752.6641"/><text fill="#000000" font-family="sans-serif" font-size="13" font-weight="bold" lengthAdjust="spacing" textLength="14" x="106.5" y="747.8076">18</text><text fill="#000000" font-family="sans-serif" font-size="13" lengthAdjust="spacing" textLength="279" x="124.5" y="747.8076">message = "There are no employees registered"</text><!--MD5=[8daad2ad4d3f0eea0c8097625f1d6483]
@startuml
'https://plantuml.com/sequence-diagram

autonumber

actor Administrator
activate Administrator
Administrator -> ListEmployeesUI : Starts the visualize employees list option
activate ListEmployeesUI
ListEmployeesUI - -> Administrator :Requests the role of the employees that wants to be listed
deactivate ListEmployeesUI
Administrator -> ListEmployeesUI: Enters the role of the employees that wants to be listed
activate ListEmployeesUI
ListEmployeesUI -> Company: verifyIfExistsEmployees()
activate Company
Company - -> ListEmployeesUI : Returns true or false
deactivate Company

alt verifyIfExistsEmployees() = true
ListEmployeesUI -> Company : getEmployeesList()
activate Company
Company - -> ListEmployeesUI : return List of all employees
deactivate Company

loop while index < getEmployeesList().size()
ListEmployeesUI -> ListEmployeesController : getEmployeeWithWantedRole(role, index)
activate ListEmployeesController
ListEmployeesController -> ListEmployees : getEmployeeWithWantedRole(role, index)
activate ListEmployees

ListEmployees -> Company : getEmployee(index)
activate Company
Company - -> ListEmployees : Returns employee
deactivate Company

alt employee has the wanted role
ListEmployees - -> ListEmployeesController : Returns employee with wanted role
ListEmployeesController - -> ListEmployeesUI : Returns employee with wanted role
ListEmployeesUI - -> Administrator : Returns employee with wanted role
else employee has not the wanted role
ListEmployees - -> ListEmployeesController : Returns null
deactivate ListEmployees
ListEmployeesController - -> ListEmployeesUI : Returns null
deactivate ListEmployeesController
ListEmployeesUI - -> Administrator : Returns null
end

end

else verifyIfExistsEmployees = false
ListEmployeesUI - -> Administrator : message = "There are no employees registered"
deactivate ListEmployeesUI
end









@enduml

@startuml

autonumber

actor Administrator
activate Administrator
Administrator -> ListEmployeesUI : Starts the visualize employees list option
activate ListEmployeesUI
ListEmployeesUI - -> Administrator :Requests the role of the employees that wants to be listed
deactivate ListEmployeesUI
Administrator -> ListEmployeesUI: Enters the role of the employees that wants to be listed
activate ListEmployeesUI
ListEmployeesUI -> Company: verifyIfExistsEmployees()
activate Company
Company - -> ListEmployeesUI : Returns true or false
deactivate Company

alt verifyIfExistsEmployees() = true
ListEmployeesUI -> Company : getEmployeesList()
activate Company
Company - -> ListEmployeesUI : return List of all employees
deactivate Company

loop while index < getEmployeesList().size()
ListEmployeesUI -> ListEmployeesController : getEmployeeWithWantedRole(role, index)
activate ListEmployeesController
ListEmployeesController -> ListEmployees : getEmployeeWithWantedRole(role, index)
activate ListEmployees

ListEmployees -> Company : getEmployee(index)
activate Company
Company - -> ListEmployees : Returns employee
deactivate Company

alt employee has the wanted role
ListEmployees - -> ListEmployeesController : Returns employee with wanted role
ListEmployeesController - -> ListEmployeesUI : Returns employee with wanted role
ListEmployeesUI - -> Administrator : Returns employee with wanted role
else employee has not the wanted role
ListEmployees - -> ListEmployeesController : Returns null
deactivate ListEmployees
ListEmployeesController - -> ListEmployeesUI : Returns null
deactivate ListEmployeesController
ListEmployeesUI - -> Administrator : Returns null
end

end

else verifyIfExistsEmployees = false
ListEmployeesUI - -> Administrator : message = "There are no employees registered"
deactivate ListEmployeesUI
end









@enduml

PlantUML version 1.2022.4(Sat Apr 09 14:29:17 BST 2022)
(GPL source distribution)
Java Runtime: OpenJDK Runtime Environment
JVM: OpenJDK 64-Bit Server VM
Default Encoding: Cp1252
Language: pt
Country: PT
--></g></svg>