<?xml version="1.0" encoding="UTF-8" standalone="no"?><svg xmlns="http://www.w3.org/2000/svg" xmlns:xlink="http://www.w3.org/1999/xlink" contentStyleType="text/css" height="1312px" preserveAspectRatio="none" style="width:1686px;height:1312px;background:#FFFFFF;" version="1.1" viewBox="0 0 1686 1312" width="1686px" zoomAndPan="magnify"><defs/><g><!--MD5=[86c7c362de55a38b660185a1328fe18d]
class Organization--><g id="elem_Organization"><rect codeLine="60" fill="#F1F1F1" height="65.6094" id="Organization" rx="2.5" ry="2.5" style="stroke:#181818;stroke-width:0.5;" width="112" x="1188.3938" y="418"/><ellipse cx="1203.3938" cy="434" fill="#ADD1B2" rx="11" ry="11" style="stroke:#181818;stroke-width:1.0;"/><path d="M1205.3938,430.5 Q1205.5969,430 1205.8313,429.75 Q1206.0657,429.5 1206.3313,429.5 Q1206.8,429.5 1207.0969,429.7813 Q1207.3938,430.0625 1207.3938,430.7188 L1207.3938,432.2813 Q1207.3938,432.9375 1207.1125,433.2188 Q1206.8313,433.5 1206.3938,433.5 Q1206.0032,433.5 1205.7532,433.3281 Q1205.5032,433.1563 1205.3938,432.7031 Q1205.3469,432.3906 1205.175,432.2188 Q1204.8625,431.8906 1204.3,431.7031 Q1203.7375,431.5 1203.175,431.5 Q1202.4719,431.5 1201.8782,431.7813 Q1201.3,432.0625 1200.8469,432.6875 Q1200.3938,433.3125 1200.3938,434.1719 L1200.3938,435.0938 Q1200.3938,436.125 1201.2375,436.8125 Q1202.0813,437.5 1203.5813,437.5 Q1204.4719,437.5 1205.0969,437.2969 Q1205.4563,437.1875 1205.8625,436.8281 Q1206.1282,436.625 1206.2688,436.5625 Q1206.4094,436.5 1206.5813,436.5 Q1206.9094,436.5 1207.1438,436.7656 Q1207.3938,437.0156 1207.3938,437.375 Q1207.3938,437.7188 1207.05,438.125 Q1206.55,438.7188 1205.7532,439.0469 Q1204.7063,439.5 1203.425,439.5 Q1201.925,439.5 1200.7219,438.9063 Q1199.7532,438.4375 1199.0657,437.4219 Q1198.3938,436.4063 1198.3938,435.2031 L1198.3938,434.1094 Q1198.3938,432.8594 1198.9875,431.7656 Q1199.5969,430.6719 1200.6438,430.0938 Q1201.7063,429.5 1202.8938,429.5 Q1203.6125,429.5 1204.2375,429.75 Q1204.8625,430 1205.3938,430.5 Z " fill="#000000"/><text fill="#000000" font-family="sans-serif" font-size="14" lengthAdjust="spacing" textLength="80" x="1217.3938" y="439.7285">Organization</text><line style="stroke:#181818;stroke-width:0.5;" x1="1189.3938" x2="1299.3938" y1="450" y2="450"/><rect fill="none" height="6" style="stroke:#C82930;stroke-width:1.0;" width="6" x="1196.3938" y="458"/><text fill="#000000" font-family="sans-serif" font-size="14" lengthAdjust="spacing" textLength="35" x="1208.3938" y="468.5332">name</text><line style="stroke:#181818;stroke-width:0.5;" x1="1189.3938" x2="1299.3938" y1="475.6094" y2="475.6094"/></g><!--MD5=[de60e6d4f424ae4d0522096f76a59010]
class VaccinationCenter--><g id="elem_VaccinationCenter"><rect codeLine="36" fill="#F1F1F1" height="241.7031" id="VaccinationCenter" rx="2.5" ry="2.5" style="stroke:#181818;stroke-width:0.5;" width="211" x="906.8938" y="562"/><ellipse cx="950.2438" cy="578" fill="#ADD1B2" rx="11" ry="11" style="stroke:#181818;stroke-width:1.0;"/><path d="M952.2438,574.5 Q952.4469,574 952.6813,573.75 Q952.9157,573.5 953.1813,573.5 Q953.65,573.5 953.9469,573.7813 Q954.2438,574.0625 954.2438,574.7188 L954.2438,576.2813 Q954.2438,576.9375 953.9625,577.2188 Q953.6813,577.5 953.2438,577.5 Q952.8532,577.5 952.6032,577.3281 Q952.3532,577.1563 952.2438,576.7031 Q952.1969,576.3906 952.025,576.2188 Q951.7125,575.8906 951.15,575.7031 Q950.5875,575.5 950.025,575.5 Q949.3219,575.5 948.7282,575.7813 Q948.15,576.0625 947.6969,576.6875 Q947.2438,577.3125 947.2438,578.1719 L947.2438,579.0938 Q947.2438,580.125 948.0875,580.8125 Q948.9313,581.5 950.4313,581.5 Q951.3219,581.5 951.9469,581.2969 Q952.3063,581.1875 952.7125,580.8281 Q952.9782,580.625 953.1188,580.5625 Q953.2594,580.5 953.4313,580.5 Q953.7594,580.5 953.9938,580.7656 Q954.2438,581.0156 954.2438,581.375 Q954.2438,581.7188 953.9,582.125 Q953.4,582.7188 952.6032,583.0469 Q951.5563,583.5 950.275,583.5 Q948.775,583.5 947.5719,582.9063 Q946.6032,582.4375 945.9157,581.4219 Q945.2438,580.4063 945.2438,579.2031 L945.2438,578.1094 Q945.2438,576.8594 945.8375,575.7656 Q946.4469,574.6719 947.4938,574.0938 Q948.5563,573.5 949.7438,573.5 Q950.4625,573.5 951.0875,573.75 Q951.7125,574 952.2438,574.5 Z " fill="#000000"/><text fill="#000000" font-family="sans-serif" font-size="14" lengthAdjust="spacing" textLength="116" x="970.5438" y="583.7285">VaccinationCenter</text><line style="stroke:#181818;stroke-width:0.5;" x1="907.8938" x2="1116.8938" y1="594" y2="594"/><rect fill="none" height="6" style="stroke:#C82930;stroke-width:1.0;" width="6" x="914.8938" y="602"/><text fill="#000000" font-family="sans-serif" font-size="14" lengthAdjust="spacing" textLength="35" x="926.8938" y="612.5332">name</text><rect fill="none" height="6" style="stroke:#C82930;stroke-width:1.0;" width="6" x="914.8938" y="619.6094"/><text fill="#000000" font-family="sans-serif" font-size="14" lengthAdjust="spacing" textLength="44" x="926.8938" y="630.1426">addres</text><rect fill="none" height="6" style="stroke:#C82930;stroke-width:1.0;" width="6" x="914.8938" y="637.2188"/><text fill="#000000" font-family="sans-serif" font-size="14" lengthAdjust="spacing" textLength="92" x="926.8938" y="647.752">phone number</text><rect fill="none" height="6" style="stroke:#C82930;stroke-width:1.0;" width="6" x="914.8938" y="654.8281"/><text fill="#000000" font-family="sans-serif" font-size="14" lengthAdjust="spacing" textLength="86" x="926.8938" y="665.3613">e-mail addres</text><rect fill="none" height="6" style="stroke:#C82930;stroke-width:1.0;" width="6" x="914.8938" y="672.4375"/><text fill="#000000" font-family="sans-serif" font-size="14" lengthAdjust="spacing" textLength="70" x="926.8938" y="682.9707">fax number</text><rect fill="none" height="6" style="stroke:#C82930;stroke-width:1.0;" width="6" x="914.8938" y="690.0469"/><text fill="#000000" font-family="sans-serif" font-size="14" lengthAdjust="spacing" textLength="95" x="926.8938" y="700.5801">website addres</text><rect fill="none" height="6" style="stroke:#C82930;stroke-width:1.0;" width="6" x="914.8938" y="707.6563"/><text fill="#000000" font-family="sans-serif" font-size="14" lengthAdjust="spacing" textLength="91" x="926.8938" y="718.1895">opening hours</text><rect fill="none" height="6" style="stroke:#C82930;stroke-width:1.0;" width="6" x="914.8938" y="725.2656"/><text fill="#000000" font-family="sans-serif" font-size="14" lengthAdjust="spacing" textLength="84" x="926.8938" y="735.7988">closing hours</text><rect fill="none" height="6" style="stroke:#C82930;stroke-width:1.0;" width="6" x="914.8938" y="742.875"/><text fill="#000000" font-family="sans-serif" font-size="14" lengthAdjust="spacing" textLength="78" x="926.8938" y="753.4082">slot duration</text><rect fill="none" height="6" style="stroke:#C82930;stroke-width:1.0;" width="6" x="914.8938" y="760.4844"/><text fill="#000000" font-family="sans-serif" font-size="14" lengthAdjust="spacing" textLength="185" x="926.8938" y="771.0176">maximum number of vaccines</text><rect fill="none" height="6" style="stroke:#C82930;stroke-width:1.0;" width="6" x="914.8938" y="778.0938"/><text fill="#000000" font-family="sans-serif" font-size="14" lengthAdjust="spacing" textLength="72" x="926.8938" y="788.627">coordinator</text><line style="stroke:#181818;stroke-width:0.5;" x1="907.8938" x2="1116.8938" y1="795.7031" y2="795.7031"/></g><!--MD5=[2d935fd2dd068a13da1ae531f9857c4f]
class CenterCoordinator--><g id="elem_CenterCoordinator"><rect codeLine="5" fill="#FF6347" height="58.7031" id="CenterCoordinator" rx="2.5" ry="2.5" style="stroke:#181818;stroke-width:0.5;" width="150" x="899.3938" y="281"/><ellipse cx="914.3938" cy="302.3516" fill="#ADD1B2" rx="11" ry="11" style="stroke:#181818;stroke-width:1.0;"/><path d="M916.3938,298.8516 Q916.5969,298.3516 916.8313,298.1016 Q917.0657,297.8516 917.3313,297.8516 Q917.8,297.8516 918.0969,298.1328 Q918.3938,298.4141 918.3938,299.0703 L918.3938,300.6328 Q918.3938,301.2891 918.1125,301.5703 Q917.8313,301.8516 917.3938,301.8516 Q917.0032,301.8516 916.7532,301.6797 Q916.5032,301.5078 916.3938,301.0547 Q916.3469,300.7422 916.175,300.5703 Q915.8625,300.2422 915.3,300.0547 Q914.7375,299.8516 914.175,299.8516 Q913.4719,299.8516 912.8782,300.1328 Q912.3,300.4141 911.8469,301.0391 Q911.3938,301.6641 911.3938,302.5234 L911.3938,303.4453 Q911.3938,304.4766 912.2375,305.1641 Q913.0813,305.8516 914.5813,305.8516 Q915.4719,305.8516 916.0969,305.6484 Q916.4563,305.5391 916.8625,305.1797 Q917.1282,304.9766 917.2688,304.9141 Q917.4094,304.8516 917.5813,304.8516 Q917.9094,304.8516 918.1438,305.1172 Q918.3938,305.3672 918.3938,305.7266 Q918.3938,306.0703 918.05,306.4766 Q917.55,307.0703 916.7532,307.3984 Q915.7063,307.8516 914.425,307.8516 Q912.925,307.8516 911.7219,307.2578 Q910.7532,306.7891 910.0657,305.7734 Q909.3938,304.7578 909.3938,303.5547 L909.3938,302.4609 Q909.3938,301.2109 909.9875,300.1172 Q910.5969,299.0234 911.6438,298.4453 Q912.7063,297.8516 913.8938,297.8516 Q914.6125,297.8516 915.2375,298.1016 Q915.8625,298.3516 916.3938,298.8516 Z " fill="#000000"/><text fill="#000000" font-family="sans-serif" font-size="12" font-style="italic" lengthAdjust="spacing" textLength="61" x="956.8938" y="298.457">«Sprint_B»</text><text fill="#000000" font-family="sans-serif" font-size="14" lengthAdjust="spacing" textLength="118" x="928.3938" y="315.627">CenterCoordinator</text><line style="stroke:#181818;stroke-width:0.5;" x1="900.3938" x2="1048.3938" y1="323.7031" y2="323.7031"/><line style="stroke:#181818;stroke-width:0.5;" x1="900.3938" x2="1048.3938" y1="331.7031" y2="331.7031"/></g><!--MD5=[7421f545a0d8420c5bec41e74b387d9c]
class Employee--><g id="elem_Employee"><rect codeLine="7" fill="#FF6347" height="58.7031" id="Employee" rx="2.5" ry="2.5" style="stroke:#181818;stroke-width:0.5;" width="94" x="927.3938" y="144"/><ellipse cx="942.3938" cy="165.3516" fill="#ADD1B2" rx="11" ry="11" style="stroke:#181818;stroke-width:1.0;"/><path d="M944.3938,161.8516 Q944.5969,161.3516 944.8313,161.1016 Q945.0657,160.8516 945.3313,160.8516 Q945.8,160.8516 946.0969,161.1328 Q946.3938,161.4141 946.3938,162.0703 L946.3938,163.6328 Q946.3938,164.2891 946.1125,164.5703 Q945.8313,164.8516 945.3938,164.8516 Q945.0032,164.8516 944.7532,164.6797 Q944.5032,164.5078 944.3938,164.0547 Q944.3469,163.7422 944.175,163.5703 Q943.8625,163.2422 943.3,163.0547 Q942.7375,162.8516 942.175,162.8516 Q941.4719,162.8516 940.8782,163.1328 Q940.3,163.4141 939.8469,164.0391 Q939.3938,164.6641 939.3938,165.5234 L939.3938,166.4453 Q939.3938,167.4766 940.2375,168.1641 Q941.0813,168.8516 942.5813,168.8516 Q943.4719,168.8516 944.0969,168.6484 Q944.4563,168.5391 944.8625,168.1797 Q945.1282,167.9766 945.2688,167.9141 Q945.4094,167.8516 945.5813,167.8516 Q945.9094,167.8516 946.1438,168.1172 Q946.3938,168.3672 946.3938,168.7266 Q946.3938,169.0703 946.05,169.4766 Q945.55,170.0703 944.7532,170.3984 Q943.7063,170.8516 942.425,170.8516 Q940.925,170.8516 939.7219,170.2578 Q938.7532,169.7891 938.0657,168.7734 Q937.3938,167.7578 937.3938,166.5547 L937.3938,165.4609 Q937.3938,164.2109 937.9875,163.1172 Q938.5969,162.0234 939.6438,161.4453 Q940.7063,160.8516 941.8938,160.8516 Q942.6125,160.8516 943.2375,161.1016 Q943.8625,161.3516 944.3938,161.8516 Z " fill="#000000"/><text fill="#000000" font-family="sans-serif" font-size="12" font-style="italic" lengthAdjust="spacing" textLength="61" x="956.8938" y="161.457">«Sprint_B»</text><text fill="#000000" font-family="sans-serif" font-size="14" lengthAdjust="spacing" textLength="62" x="956.3938" y="178.627">Employee</text><line style="stroke:#181818;stroke-width:0.5;" x1="928.3938" x2="1020.3938" y1="186.7031" y2="186.7031"/><line style="stroke:#181818;stroke-width:0.5;" x1="928.3938" x2="1020.3938" y1="194.7031" y2="194.7031"/></g><!--MD5=[a87fd7e31e08e6ee61dd7fb9ab974181]
class VaccinationEvent--><g id="elem_VaccinationEvent"><rect codeLine="6" fill="#F1F1F1" height="48" id="VaccinationEvent" rx="2.5" ry="2.5" style="stroke:#181818;stroke-width:0.5;" width="141" x="576.8938" y="1131"/><ellipse cx="591.8938" cy="1147" fill="#ADD1B2" rx="11" ry="11" style="stroke:#181818;stroke-width:1.0;"/><path d="M593.8938,1143.5 Q594.0969,1143 594.3313,1142.75 Q594.5657,1142.5 594.8313,1142.5 Q595.3,1142.5 595.5969,1142.7813 Q595.8938,1143.0625 595.8938,1143.7188 L595.8938,1145.2813 Q595.8938,1145.9375 595.6125,1146.2188 Q595.3313,1146.5 594.8938,1146.5 Q594.5032,1146.5 594.2532,1146.3281 Q594.0032,1146.1563 593.8938,1145.7031 Q593.8469,1145.3906 593.675,1145.2188 Q593.3625,1144.8906 592.8,1144.7031 Q592.2375,1144.5 591.675,1144.5 Q590.9719,1144.5 590.3782,1144.7813 Q589.8,1145.0625 589.3469,1145.6875 Q588.8938,1146.3125 588.8938,1147.1719 L588.8938,1148.0938 Q588.8938,1149.125 589.7375,1149.8125 Q590.5813,1150.5 592.0813,1150.5 Q592.9719,1150.5 593.5969,1150.2969 Q593.9563,1150.1875 594.3625,1149.8281 Q594.6282,1149.625 594.7688,1149.5625 Q594.9094,1149.5 595.0813,1149.5 Q595.4094,1149.5 595.6438,1149.7656 Q595.8938,1150.0156 595.8938,1150.375 Q595.8938,1150.7188 595.55,1151.125 Q595.05,1151.7188 594.2532,1152.0469 Q593.2063,1152.5 591.925,1152.5 Q590.425,1152.5 589.2219,1151.9063 Q588.2532,1151.4375 587.5657,1150.4219 Q586.8938,1149.4063 586.8938,1148.2031 L586.8938,1147.1094 Q586.8938,1145.8594 587.4875,1144.7656 Q588.0969,1143.6719 589.1438,1143.0938 Q590.2063,1142.5 591.3938,1142.5 Q592.1125,1142.5 592.7375,1142.75 Q593.3625,1143 593.8938,1143.5 Z " fill="#000000"/><text fill="#000000" font-family="sans-serif" font-size="14" lengthAdjust="spacing" textLength="109" x="605.8938" y="1152.7285">VaccinationEvent</text><line style="stroke:#181818;stroke-width:0.5;" x1="577.8938" x2="716.8938" y1="1163" y2="1163"/><line style="stroke:#181818;stroke-width:0.5;" x1="577.8938" x2="716.8938" y1="1171" y2="1171"/></g><!--MD5=[a059576e163b46f56762f12600c49258]
class Nurse--><g id="elem_Nurse"><rect codeLine="8" fill="#FF6347" height="58.7031" id="Nurse" rx="2.5" ry="2.5" style="stroke:#181818;stroke-width:0.5;" width="89" x="742.8938" y="281"/><ellipse cx="757.8938" cy="302.3516" fill="#ADD1B2" rx="11" ry="11" style="stroke:#181818;stroke-width:1.0;"/><path d="M759.8938,298.8516 Q760.0969,298.3516 760.3313,298.1016 Q760.5657,297.8516 760.8313,297.8516 Q761.3,297.8516 761.5969,298.1328 Q761.8938,298.4141 761.8938,299.0703 L761.8938,300.6328 Q761.8938,301.2891 761.6125,301.5703 Q761.3313,301.8516 760.8938,301.8516 Q760.5032,301.8516 760.2532,301.6797 Q760.0032,301.5078 759.8938,301.0547 Q759.8469,300.7422 759.675,300.5703 Q759.3625,300.2422 758.8,300.0547 Q758.2375,299.8516 757.675,299.8516 Q756.9719,299.8516 756.3782,300.1328 Q755.8,300.4141 755.3469,301.0391 Q754.8938,301.6641 754.8938,302.5234 L754.8938,303.4453 Q754.8938,304.4766 755.7375,305.1641 Q756.5813,305.8516 758.0813,305.8516 Q758.9719,305.8516 759.5969,305.6484 Q759.9563,305.5391 760.3625,305.1797 Q760.6282,304.9766 760.7688,304.9141 Q760.9094,304.8516 761.0813,304.8516 Q761.4094,304.8516 761.6438,305.1172 Q761.8938,305.3672 761.8938,305.7266 Q761.8938,306.0703 761.55,306.4766 Q761.05,307.0703 760.2532,307.3984 Q759.2063,307.8516 757.925,307.8516 Q756.425,307.8516 755.2219,307.2578 Q754.2532,306.7891 753.5657,305.7734 Q752.8938,304.7578 752.8938,303.5547 L752.8938,302.4609 Q752.8938,301.2109 753.4875,300.1172 Q754.0969,299.0234 755.1438,298.4453 Q756.2063,297.8516 757.3938,297.8516 Q758.1125,297.8516 758.7375,298.1016 Q759.3625,298.3516 759.8938,298.8516 Z " fill="#000000"/><text fill="#000000" font-family="sans-serif" font-size="12" font-style="italic" lengthAdjust="spacing" textLength="61" x="769.8938" y="298.457">«Sprint_B»</text><text fill="#000000" font-family="sans-serif" font-size="14" lengthAdjust="spacing" textLength="37" x="781.8938" y="315.627">Nurse</text><line style="stroke:#181818;stroke-width:0.5;" x1="743.8938" x2="830.8938" y1="323.7031" y2="323.7031"/><line style="stroke:#181818;stroke-width:0.5;" x1="743.8938" x2="830.8938" y1="331.7031" y2="331.7031"/></g><!--MD5=[52313708f2ec8e9ddeeca04977bc3672]
class VaccinationCenterReceptionist--><g id="elem_VaccinationCenterReceptionist"><rect codeLine="9" fill="#FF6347" height="58.7031" id="VaccinationCenterReceptionist" rx="2.5" ry="2.5" style="stroke:#181818;stroke-width:0.5;" width="226" x="319.3938" y="281"/><ellipse cx="334.3938" cy="302.3516" fill="#ADD1B2" rx="11" ry="11" style="stroke:#181818;stroke-width:1.0;"/><path d="M336.3938,298.8516 Q336.5969,298.3516 336.8313,298.1016 Q337.0657,297.8516 337.3313,297.8516 Q337.8,297.8516 338.0969,298.1328 Q338.3938,298.4141 338.3938,299.0703 L338.3938,300.6328 Q338.3938,301.2891 338.1125,301.5703 Q337.8313,301.8516 337.3938,301.8516 Q337.0032,301.8516 336.7532,301.6797 Q336.5032,301.5078 336.3938,301.0547 Q336.3469,300.7422 336.175,300.5703 Q335.8625,300.2422 335.3,300.0547 Q334.7375,299.8516 334.175,299.8516 Q333.4719,299.8516 332.8782,300.1328 Q332.3,300.4141 331.8469,301.0391 Q331.3938,301.6641 331.3938,302.5234 L331.3938,303.4453 Q331.3938,304.4766 332.2375,305.1641 Q333.0813,305.8516 334.5813,305.8516 Q335.4719,305.8516 336.0969,305.6484 Q336.4563,305.5391 336.8625,305.1797 Q337.1282,304.9766 337.2688,304.9141 Q337.4094,304.8516 337.5813,304.8516 Q337.9094,304.8516 338.1438,305.1172 Q338.3938,305.3672 338.3938,305.7266 Q338.3938,306.0703 338.05,306.4766 Q337.55,307.0703 336.7532,307.3984 Q335.7063,307.8516 334.425,307.8516 Q332.925,307.8516 331.7219,307.2578 Q330.7532,306.7891 330.0657,305.7734 Q329.3938,304.7578 329.3938,303.5547 L329.3938,302.4609 Q329.3938,301.2109 329.9875,300.1172 Q330.5969,299.0234 331.6438,298.4453 Q332.7063,297.8516 333.8938,297.8516 Q334.6125,297.8516 335.2375,298.1016 Q335.8625,298.3516 336.3938,298.8516 Z " fill="#000000"/><text fill="#000000" font-family="sans-serif" font-size="12" font-style="italic" lengthAdjust="spacing" textLength="61" x="414.8938" y="298.457">«Sprint_B»</text><text fill="#000000" font-family="sans-serif" font-size="14" lengthAdjust="spacing" textLength="194" x="348.3938" y="315.627">VaccinationCenterReceptionist</text><line style="stroke:#181818;stroke-width:0.5;" x1="320.3938" x2="544.3938" y1="323.7031" y2="323.7031"/><line style="stroke:#181818;stroke-width:0.5;" x1="320.3938" x2="544.3938" y1="331.7031" y2="331.7031"/></g><!--MD5=[c31be3a8ea7c810a9822a3f906ad678a]
class HealthCareCenterReceptionist--><g id="elem_HealthCareCenterReceptionist"><rect codeLine="10" fill="#F1F1F1" height="48" id="HealthCareCenterReceptionist" rx="2.5" ry="2.5" style="stroke:#181818;stroke-width:0.5;" width="224" x="1450.3938" y="427"/><ellipse cx="1465.3938" cy="443" fill="#ADD1B2" rx="11" ry="11" style="stroke:#181818;stroke-width:1.0;"/><path d="M1467.3938,439.5 Q1467.5969,439 1467.8313,438.75 Q1468.0657,438.5 1468.3313,438.5 Q1468.8,438.5 1469.0969,438.7813 Q1469.3938,439.0625 1469.3938,439.7188 L1469.3938,441.2813 Q1469.3938,441.9375 1469.1125,442.2188 Q1468.8313,442.5 1468.3938,442.5 Q1468.0032,442.5 1467.7532,442.3281 Q1467.5032,442.1563 1467.3938,441.7031 Q1467.3469,441.3906 1467.175,441.2188 Q1466.8625,440.8906 1466.3,440.7031 Q1465.7375,440.5 1465.175,440.5 Q1464.4719,440.5 1463.8782,440.7813 Q1463.3,441.0625 1462.8469,441.6875 Q1462.3938,442.3125 1462.3938,443.1719 L1462.3938,444.0938 Q1462.3938,445.125 1463.2375,445.8125 Q1464.0813,446.5 1465.5813,446.5 Q1466.4719,446.5 1467.0969,446.2969 Q1467.4563,446.1875 1467.8625,445.8281 Q1468.1282,445.625 1468.2688,445.5625 Q1468.4094,445.5 1468.5813,445.5 Q1468.9094,445.5 1469.1438,445.7656 Q1469.3938,446.0156 1469.3938,446.375 Q1469.3938,446.7188 1469.05,447.125 Q1468.55,447.7188 1467.7532,448.0469 Q1466.7063,448.5 1465.425,448.5 Q1463.925,448.5 1462.7219,447.9063 Q1461.7532,447.4375 1461.0657,446.4219 Q1460.3938,445.4063 1460.3938,444.2031 L1460.3938,443.1094 Q1460.3938,441.8594 1460.9875,440.7656 Q1461.5969,439.6719 1462.6438,439.0938 Q1463.7063,438.5 1464.8938,438.5 Q1465.6125,438.5 1466.2375,438.75 Q1466.8625,439 1467.3938,439.5 Z " fill="#000000"/><text fill="#000000" font-family="sans-serif" font-size="14" lengthAdjust="spacing" textLength="192" x="1479.3938" y="448.7285">HealthCareCenterReceptionist</text><line style="stroke:#181818;stroke-width:0.5;" x1="1451.3938" x2="1673.3938" y1="459" y2="459"/><line style="stroke:#181818;stroke-width:0.5;" x1="1451.3938" x2="1673.3938" y1="467" y2="467"/></g><!--MD5=[f082b347be438956eae752ed2dcedd8d]
class VaccinationCertificate--><g id="elem_VaccinationCertificate"><rect codeLine="16" fill="#F1F1F1" height="48" id="VaccinationCertificate" rx="2.5" ry="2.5" style="stroke:#181818;stroke-width:0.5;" width="169" x="465.8938" y="943.5"/><ellipse cx="480.8938" cy="959.5" fill="#ADD1B2" rx="11" ry="11" style="stroke:#181818;stroke-width:1.0;"/><path d="M482.8938,956 Q483.0969,955.5 483.3313,955.25 Q483.5657,955 483.8313,955 Q484.3,955 484.5969,955.2813 Q484.8938,955.5625 484.8938,956.2188 L484.8938,957.7813 Q484.8938,958.4375 484.6125,958.7188 Q484.3313,959 483.8938,959 Q483.5032,959 483.2532,958.8281 Q483.0032,958.6563 482.8938,958.2031 Q482.8469,957.8906 482.675,957.7188 Q482.3625,957.3906 481.8,957.2031 Q481.2375,957 480.675,957 Q479.9719,957 479.3782,957.2813 Q478.8,957.5625 478.3469,958.1875 Q477.8938,958.8125 477.8938,959.6719 L477.8938,960.5938 Q477.8938,961.625 478.7375,962.3125 Q479.5813,963 481.0813,963 Q481.9719,963 482.5969,962.7969 Q482.9563,962.6875 483.3625,962.3281 Q483.6282,962.125 483.7688,962.0625 Q483.9094,962 484.0813,962 Q484.4094,962 484.6438,962.2656 Q484.8938,962.5156 484.8938,962.875 Q484.8938,963.2188 484.55,963.625 Q484.05,964.2188 483.2532,964.5469 Q482.2063,965 480.925,965 Q479.425,965 478.2219,964.4063 Q477.2532,963.9375 476.5657,962.9219 Q475.8938,961.9063 475.8938,960.7031 L475.8938,959.6094 Q475.8938,958.3594 476.4875,957.2656 Q477.0969,956.1719 478.1438,955.5938 Q479.2063,955 480.3938,955 Q481.1125,955 481.7375,955.25 Q482.3625,955.5 482.8938,956 Z " fill="#000000"/><text fill="#000000" font-family="sans-serif" font-size="14" lengthAdjust="spacing" textLength="137" x="494.8938" y="965.2285">VaccinationCertificate</text><line style="stroke:#181818;stroke-width:0.5;" x1="466.8938" x2="633.8938" y1="975.5" y2="975.5"/><line style="stroke:#181818;stroke-width:0.5;" x1="466.8938" x2="633.8938" y1="983.5" y2="983.5"/></g><!--MD5=[3fd616f346a44cd59a91eb10b19e157c]
class User--><g id="elem_User"><rect codeLine="29" fill="#F1F1F1" height="118.4375" id="User" rx="2.5" ry="2.5" style="stroke:#181818;stroke-width:0.5;" width="105" x="389.8938" y="624"/><ellipse cx="424.6938" cy="640" fill="#ADD1B2" rx="11" ry="11" style="stroke:#181818;stroke-width:1.0;"/><path d="M426.6938,636.5 Q426.8969,636 427.1313,635.75 Q427.3657,635.5 427.6313,635.5 Q428.1,635.5 428.3969,635.7813 Q428.6938,636.0625 428.6938,636.7188 L428.6938,638.2813 Q428.6938,638.9375 428.4125,639.2188 Q428.1313,639.5 427.6938,639.5 Q427.3032,639.5 427.0532,639.3281 Q426.8032,639.1563 426.6938,638.7031 Q426.6469,638.3906 426.475,638.2188 Q426.1625,637.8906 425.6,637.7031 Q425.0375,637.5 424.475,637.5 Q423.7719,637.5 423.1782,637.7813 Q422.6,638.0625 422.1469,638.6875 Q421.6938,639.3125 421.6938,640.1719 L421.6938,641.0938 Q421.6938,642.125 422.5375,642.8125 Q423.3813,643.5 424.8813,643.5 Q425.7719,643.5 426.3969,643.2969 Q426.7563,643.1875 427.1625,642.8281 Q427.4282,642.625 427.5688,642.5625 Q427.7094,642.5 427.8813,642.5 Q428.2094,642.5 428.4438,642.7656 Q428.6938,643.0156 428.6938,643.375 Q428.6938,643.7188 428.35,644.125 Q427.85,644.7188 427.0532,645.0469 Q426.0063,645.5 424.725,645.5 Q423.225,645.5 422.0219,644.9063 Q421.0532,644.4375 420.3657,643.4219 Q419.6938,642.4063 419.6938,641.2031 L419.6938,640.1094 Q419.6938,638.8594 420.2875,637.7656 Q420.8969,636.6719 421.9438,636.0938 Q423.0063,635.5 424.1938,635.5 Q424.9125,635.5 425.5375,635.75 Q426.1625,636 426.6938,636.5 Z " fill="#000000"/><text fill="#000000" font-family="sans-serif" font-size="14" lengthAdjust="spacing" textLength="29" x="443.0938" y="645.7285">User</text><line style="stroke:#181818;stroke-width:0.5;" x1="390.8938" x2="493.8938" y1="656" y2="656"/><rect fill="none" height="6" style="stroke:#C82930;stroke-width:1.0;" width="6" x="397.8938" y="664"/><text fill="#000000" font-family="sans-serif" font-size="14" lengthAdjust="spacing" textLength="35" x="409.8938" y="674.5332">name</text><rect fill="none" height="6" style="stroke:#C82930;stroke-width:1.0;" width="6" x="397.8938" y="681.6094"/><text fill="#000000" font-family="sans-serif" font-size="14" lengthAdjust="spacing" textLength="25" x="409.8938" y="692.1426">Age</text><rect fill="none" height="6" style="stroke:#C82930;stroke-width:1.0;" width="6" x="397.8938" y="699.2188"/><text fill="#000000" font-family="sans-serif" font-size="14" lengthAdjust="spacing" textLength="21" x="409.8938" y="709.752">sex</text><rect fill="none" height="6" style="stroke:#C82930;stroke-width:1.0;" width="6" x="397.8938" y="716.8281"/><text fill="#000000" font-family="sans-serif" font-size="14" lengthAdjust="spacing" textLength="79" x="409.8938" y="727.3613">SNS number</text><line style="stroke:#181818;stroke-width:0.5;" x1="390.8938" x2="493.8938" y1="734.4375" y2="734.4375"/></g><!--MD5=[aaa7e27c4ec43917c82a021675d2c87a]
class WaitingRoom--><g id="elem_WaitingRoom"><rect codeLine="13" fill="#F1F1F1" height="48" id="WaitingRoom" rx="2.5" ry="2.5" style="stroke:#181818;stroke-width:0.5;" width="116" x="384.3938" y="427"/><ellipse cx="399.3938" cy="443" fill="#ADD1B2" rx="11" ry="11" style="stroke:#181818;stroke-width:1.0;"/><path d="M401.3938,439.5 Q401.5969,439 401.8313,438.75 Q402.0657,438.5 402.3313,438.5 Q402.8,438.5 403.0969,438.7813 Q403.3938,439.0625 403.3938,439.7188 L403.3938,441.2813 Q403.3938,441.9375 403.1125,442.2188 Q402.8313,442.5 402.3938,442.5 Q402.0032,442.5 401.7532,442.3281 Q401.5032,442.1563 401.3938,441.7031 Q401.3469,441.3906 401.175,441.2188 Q400.8625,440.8906 400.3,440.7031 Q399.7375,440.5 399.175,440.5 Q398.4719,440.5 397.8782,440.7813 Q397.3,441.0625 396.8469,441.6875 Q396.3938,442.3125 396.3938,443.1719 L396.3938,444.0938 Q396.3938,445.125 397.2375,445.8125 Q398.0813,446.5 399.5813,446.5 Q400.4719,446.5 401.0969,446.2969 Q401.4563,446.1875 401.8625,445.8281 Q402.1282,445.625 402.2688,445.5625 Q402.4094,445.5 402.5813,445.5 Q402.9094,445.5 403.1438,445.7656 Q403.3938,446.0156 403.3938,446.375 Q403.3938,446.7188 403.05,447.125 Q402.55,447.7188 401.7532,448.0469 Q400.7063,448.5 399.425,448.5 Q397.925,448.5 396.7219,447.9063 Q395.7532,447.4375 395.0657,446.4219 Q394.3938,445.4063 394.3938,444.2031 L394.3938,443.1094 Q394.3938,441.8594 394.9875,440.7656 Q395.5969,439.6719 396.6438,439.0938 Q397.7063,438.5 398.8938,438.5 Q399.6125,438.5 400.2375,438.75 Q400.8625,439 401.3938,439.5 Z " fill="#000000"/><text fill="#000000" font-family="sans-serif" font-size="14" lengthAdjust="spacing" textLength="84" x="413.3938" y="448.7285">WaitingRoom</text><line style="stroke:#181818;stroke-width:0.5;" x1="385.3938" x2="499.3938" y1="459" y2="459"/><line style="stroke:#181818;stroke-width:0.5;" x1="385.3938" x2="499.3938" y1="467" y2="467"/></g><!--MD5=[f24502e7c9b1056c4d1f73c3d80dda4c]
class RecoveryRoom--><g id="elem_RecoveryRoom"><rect codeLine="14" fill="#F1F1F1" height="48" id="RecoveryRoom" rx="2.5" ry="2.5" style="stroke:#181818;stroke-width:0.5;" width="129" x="657.8938" y="427"/><ellipse cx="672.8938" cy="443" fill="#ADD1B2" rx="11" ry="11" style="stroke:#181818;stroke-width:1.0;"/><path d="M674.8938,439.5 Q675.0969,439 675.3313,438.75 Q675.5657,438.5 675.8313,438.5 Q676.3,438.5 676.5969,438.7813 Q676.8938,439.0625 676.8938,439.7188 L676.8938,441.2813 Q676.8938,441.9375 676.6125,442.2188 Q676.3313,442.5 675.8938,442.5 Q675.5032,442.5 675.2532,442.3281 Q675.0032,442.1563 674.8938,441.7031 Q674.8469,441.3906 674.675,441.2188 Q674.3625,440.8906 673.8,440.7031 Q673.2375,440.5 672.675,440.5 Q671.9719,440.5 671.3782,440.7813 Q670.8,441.0625 670.3469,441.6875 Q669.8938,442.3125 669.8938,443.1719 L669.8938,444.0938 Q669.8938,445.125 670.7375,445.8125 Q671.5813,446.5 673.0813,446.5 Q673.9719,446.5 674.5969,446.2969 Q674.9563,446.1875 675.3625,445.8281 Q675.6282,445.625 675.7688,445.5625 Q675.9094,445.5 676.0813,445.5 Q676.4094,445.5 676.6438,445.7656 Q676.8938,446.0156 676.8938,446.375 Q676.8938,446.7188 676.55,447.125 Q676.05,447.7188 675.2532,448.0469 Q674.2063,448.5 672.925,448.5 Q671.425,448.5 670.2219,447.9063 Q669.2532,447.4375 668.5657,446.4219 Q667.8938,445.4063 667.8938,444.2031 L667.8938,443.1094 Q667.8938,441.8594 668.4875,440.7656 Q669.0969,439.6719 670.1438,439.0938 Q671.2063,438.5 672.3938,438.5 Q673.1125,438.5 673.7375,438.75 Q674.3625,439 674.8938,439.5 Z " fill="#000000"/><text fill="#000000" font-family="sans-serif" font-size="14" lengthAdjust="spacing" textLength="97" x="686.8938" y="448.7285">RecoveryRoom</text><line style="stroke:#181818;stroke-width:0.5;" x1="658.8938" x2="785.8938" y1="459" y2="459"/><line style="stroke:#181818;stroke-width:0.5;" x1="658.8938" x2="785.8938" y1="467" y2="467"/></g><!--MD5=[1db03e903fe0a044a2ca0dcbef10799a]
class HealthCareCenter--><g id="elem_HealthCareCenter"><rect codeLine="15" fill="#F1F1F1" height="48" id="HealthCareCenter" rx="2.5" ry="2.5" style="stroke:#181818;stroke-width:0.5;" width="146" x="1406.3938" y="659"/><ellipse cx="1421.3938" cy="675" fill="#ADD1B2" rx="11" ry="11" style="stroke:#181818;stroke-width:1.0;"/><path d="M1423.3938,671.5 Q1423.5969,671 1423.8313,670.75 Q1424.0657,670.5 1424.3313,670.5 Q1424.8,670.5 1425.0969,670.7813 Q1425.3938,671.0625 1425.3938,671.7188 L1425.3938,673.2813 Q1425.3938,673.9375 1425.1125,674.2188 Q1424.8313,674.5 1424.3938,674.5 Q1424.0032,674.5 1423.7532,674.3281 Q1423.5032,674.1563 1423.3938,673.7031 Q1423.3469,673.3906 1423.175,673.2188 Q1422.8625,672.8906 1422.3,672.7031 Q1421.7375,672.5 1421.175,672.5 Q1420.4719,672.5 1419.8782,672.7813 Q1419.3,673.0625 1418.8469,673.6875 Q1418.3938,674.3125 1418.3938,675.1719 L1418.3938,676.0938 Q1418.3938,677.125 1419.2375,677.8125 Q1420.0813,678.5 1421.5813,678.5 Q1422.4719,678.5 1423.0969,678.2969 Q1423.4563,678.1875 1423.8625,677.8281 Q1424.1282,677.625 1424.2688,677.5625 Q1424.4094,677.5 1424.5813,677.5 Q1424.9094,677.5 1425.1438,677.7656 Q1425.3938,678.0156 1425.3938,678.375 Q1425.3938,678.7188 1425.05,679.125 Q1424.55,679.7188 1423.7532,680.0469 Q1422.7063,680.5 1421.425,680.5 Q1419.925,680.5 1418.7219,679.9063 Q1417.7532,679.4375 1417.0657,678.4219 Q1416.3938,677.4063 1416.3938,676.2031 L1416.3938,675.1094 Q1416.3938,673.8594 1416.9875,672.7656 Q1417.5969,671.6719 1418.6438,671.0938 Q1419.7063,670.5 1420.8938,670.5 Q1421.6125,670.5 1422.2375,670.75 Q1422.8625,671 1423.3938,671.5 Z " fill="#000000"/><text fill="#000000" font-family="sans-serif" font-size="14" lengthAdjust="spacing" textLength="114" x="1435.3938" y="680.7285">HealthCareCenter</text><line style="stroke:#181818;stroke-width:0.5;" x1="1407.3938" x2="1551.3938" y1="691" y2="691"/><line style="stroke:#181818;stroke-width:0.5;" x1="1407.3938" x2="1551.3938" y1="699" y2="699"/></g><!--MD5=[76b5e19c9337179d2d7ae334371d68c8]
class Notification--><g id="elem_Notification"><rect codeLine="17" fill="#F1F1F1" height="48" id="Notification" rx="2.5" ry="2.5" style="stroke:#181818;stroke-width:0.5;" width="101" x="249.8938" y="943.5"/><ellipse cx="264.8938" cy="959.5" fill="#ADD1B2" rx="11" ry="11" style="stroke:#181818;stroke-width:1.0;"/><path d="M266.8938,956 Q267.0969,955.5 267.3313,955.25 Q267.5657,955 267.8313,955 Q268.3,955 268.5969,955.2813 Q268.8938,955.5625 268.8938,956.2188 L268.8938,957.7813 Q268.8938,958.4375 268.6125,958.7188 Q268.3313,959 267.8938,959 Q267.5032,959 267.2532,958.8281 Q267.0032,958.6563 266.8938,958.2031 Q266.8469,957.8906 266.675,957.7188 Q266.3625,957.3906 265.8,957.2031 Q265.2375,957 264.675,957 Q263.9719,957 263.3782,957.2813 Q262.8,957.5625 262.3469,958.1875 Q261.8938,958.8125 261.8938,959.6719 L261.8938,960.5938 Q261.8938,961.625 262.7375,962.3125 Q263.5813,963 265.0813,963 Q265.9719,963 266.5969,962.7969 Q266.9563,962.6875 267.3625,962.3281 Q267.6282,962.125 267.7688,962.0625 Q267.9094,962 268.0813,962 Q268.4094,962 268.6438,962.2656 Q268.8938,962.5156 268.8938,962.875 Q268.8938,963.2188 268.55,963.625 Q268.05,964.2188 267.2532,964.5469 Q266.2063,965 264.925,965 Q263.425,965 262.2219,964.4063 Q261.2532,963.9375 260.5657,962.9219 Q259.8938,961.9063 259.8938,960.7031 L259.8938,959.6094 Q259.8938,958.3594 260.4875,957.2656 Q261.0969,956.1719 262.1438,955.5938 Q263.2063,955 264.3938,955 Q265.1125,955 265.7375,955.25 Q266.3625,955.5 266.8938,956 Z " fill="#000000"/><text fill="#000000" font-family="sans-serif" font-size="14" lengthAdjust="spacing" textLength="69" x="278.8938" y="965.2285">Notification</text><line style="stroke:#181818;stroke-width:0.5;" x1="250.8938" x2="349.8938" y1="975.5" y2="975.5"/><line style="stroke:#181818;stroke-width:0.5;" x1="250.8938" x2="349.8938" y1="983.5" y2="983.5"/></g><!--MD5=[7e2bc2f128e759c5889ccd6a2666d576]
class EmailNotification--><g id="elem_EmailNotification"><rect codeLine="18" fill="#F1F1F1" height="48" id="EmailNotification" rx="2.5" ry="2.5" style="stroke:#181818;stroke-width:0.5;" width="135" x="232.8938" y="1131"/><ellipse cx="247.8938" cy="1147" fill="#ADD1B2" rx="11" ry="11" style="stroke:#181818;stroke-width:1.0;"/><path d="M249.8938,1143.5 Q250.0969,1143 250.3313,1142.75 Q250.5657,1142.5 250.8313,1142.5 Q251.3,1142.5 251.5969,1142.7813 Q251.8938,1143.0625 251.8938,1143.7188 L251.8938,1145.2813 Q251.8938,1145.9375 251.6125,1146.2188 Q251.3313,1146.5 250.8938,1146.5 Q250.5032,1146.5 250.2532,1146.3281 Q250.0032,1146.1563 249.8938,1145.7031 Q249.8469,1145.3906 249.675,1145.2188 Q249.3625,1144.8906 248.8,1144.7031 Q248.2375,1144.5 247.675,1144.5 Q246.9719,1144.5 246.3782,1144.7813 Q245.8,1145.0625 245.3469,1145.6875 Q244.8938,1146.3125 244.8938,1147.1719 L244.8938,1148.0938 Q244.8938,1149.125 245.7375,1149.8125 Q246.5813,1150.5 248.0813,1150.5 Q248.9719,1150.5 249.5969,1150.2969 Q249.9563,1150.1875 250.3625,1149.8281 Q250.6282,1149.625 250.7688,1149.5625 Q250.9094,1149.5 251.0813,1149.5 Q251.4094,1149.5 251.6438,1149.7656 Q251.8938,1150.0156 251.8938,1150.375 Q251.8938,1150.7188 251.55,1151.125 Q251.05,1151.7188 250.2532,1152.0469 Q249.2063,1152.5 247.925,1152.5 Q246.425,1152.5 245.2219,1151.9063 Q244.2532,1151.4375 243.5657,1150.4219 Q242.8938,1149.4063 242.8938,1148.2031 L242.8938,1147.1094 Q242.8938,1145.8594 243.4875,1144.7656 Q244.0969,1143.6719 245.1438,1143.0938 Q246.2063,1142.5 247.3938,1142.5 Q248.1125,1142.5 248.7375,1142.75 Q249.3625,1143 249.8938,1143.5 Z " fill="#000000"/><text fill="#000000" font-family="sans-serif" font-size="14" lengthAdjust="spacing" textLength="103" x="261.8938" y="1152.7285">EmailNotification</text><line style="stroke:#181818;stroke-width:0.5;" x1="233.8938" x2="366.8938" y1="1163" y2="1163"/><line style="stroke:#181818;stroke-width:0.5;" x1="233.8938" x2="366.8938" y1="1171" y2="1171"/></g><!--MD5=[17d776304760d17bcc13ba401441cbdd]
class SMSNotification--><g id="elem_SMSNotification"><rect codeLine="19" fill="#F1F1F1" height="48" id="SMSNotification" rx="2.5" ry="2.5" style="stroke:#181818;stroke-width:0.5;" width="130" x="67.3938" y="1131"/><ellipse cx="82.3938" cy="1147" fill="#ADD1B2" rx="11" ry="11" style="stroke:#181818;stroke-width:1.0;"/><path d="M84.3938,1143.5 Q84.5969,1143 84.8313,1142.75 Q85.0657,1142.5 85.3313,1142.5 Q85.8,1142.5 86.0969,1142.7813 Q86.3938,1143.0625 86.3938,1143.7188 L86.3938,1145.2813 Q86.3938,1145.9375 86.1125,1146.2188 Q85.8313,1146.5 85.3938,1146.5 Q85.0032,1146.5 84.7532,1146.3281 Q84.5032,1146.1563 84.3938,1145.7031 Q84.3469,1145.3906 84.175,1145.2188 Q83.8625,1144.8906 83.3,1144.7031 Q82.7375,1144.5 82.175,1144.5 Q81.4719,1144.5 80.8782,1144.7813 Q80.3,1145.0625 79.8469,1145.6875 Q79.3938,1146.3125 79.3938,1147.1719 L79.3938,1148.0938 Q79.3938,1149.125 80.2375,1149.8125 Q81.0813,1150.5 82.5813,1150.5 Q83.4719,1150.5 84.0969,1150.2969 Q84.4563,1150.1875 84.8625,1149.8281 Q85.1282,1149.625 85.2688,1149.5625 Q85.4094,1149.5 85.5813,1149.5 Q85.9094,1149.5 86.1438,1149.7656 Q86.3938,1150.0156 86.3938,1150.375 Q86.3938,1150.7188 86.05,1151.125 Q85.55,1151.7188 84.7532,1152.0469 Q83.7063,1152.5 82.425,1152.5 Q80.925,1152.5 79.7219,1151.9063 Q78.7532,1151.4375 78.0657,1150.4219 Q77.3938,1149.4063 77.3938,1148.2031 L77.3938,1147.1094 Q77.3938,1145.8594 77.9875,1144.7656 Q78.5969,1143.6719 79.6438,1143.0938 Q80.7063,1142.5 81.8938,1142.5 Q82.6125,1142.5 83.2375,1142.75 Q83.8625,1143 84.3938,1143.5 Z " fill="#000000"/><text fill="#000000" font-family="sans-serif" font-size="14" lengthAdjust="spacing" textLength="98" x="96.3938" y="1152.7285">SMSNotification</text><line style="stroke:#181818;stroke-width:0.5;" x1="68.3938" x2="196.3938" y1="1163" y2="1163"/><line style="stroke:#181818;stroke-width:0.5;" x1="68.3938" x2="196.3938" y1="1171" y2="1171"/></g><!--MD5=[cd4ce1c0d44638ff9f42448de30e6b92]
class VaccineSchedule--><g id="elem_VaccineSchedule"><rect codeLine="20" fill="#F1F1F1" height="48" id="VaccineSchedule" rx="2.5" ry="2.5" style="stroke:#181818;stroke-width:0.5;" width="141" x="431.8938" y="1257"/><ellipse cx="446.8938" cy="1273" fill="#ADD1B2" rx="11" ry="11" style="stroke:#181818;stroke-width:1.0;"/><path d="M448.8938,1269.5 Q449.0969,1269 449.3313,1268.75 Q449.5657,1268.5 449.8313,1268.5 Q450.3,1268.5 450.5969,1268.7813 Q450.8938,1269.0625 450.8938,1269.7188 L450.8938,1271.2813 Q450.8938,1271.9375 450.6125,1272.2188 Q450.3313,1272.5 449.8938,1272.5 Q449.5032,1272.5 449.2532,1272.3281 Q449.0032,1272.1563 448.8938,1271.7031 Q448.8469,1271.3906 448.675,1271.2188 Q448.3625,1270.8906 447.8,1270.7031 Q447.2375,1270.5 446.675,1270.5 Q445.9719,1270.5 445.3782,1270.7813 Q444.8,1271.0625 444.3469,1271.6875 Q443.8938,1272.3125 443.8938,1273.1719 L443.8938,1274.0938 Q443.8938,1275.125 444.7375,1275.8125 Q445.5813,1276.5 447.0813,1276.5 Q447.9719,1276.5 448.5969,1276.2969 Q448.9563,1276.1875 449.3625,1275.8281 Q449.6282,1275.625 449.7688,1275.5625 Q449.9094,1275.5 450.0813,1275.5 Q450.4094,1275.5 450.6438,1275.7656 Q450.8938,1276.0156 450.8938,1276.375 Q450.8938,1276.7188 450.55,1277.125 Q450.05,1277.7188 449.2532,1278.0469 Q448.2063,1278.5 446.925,1278.5 Q445.425,1278.5 444.2219,1277.9063 Q443.2532,1277.4375 442.5657,1276.4219 Q441.8938,1275.4063 441.8938,1274.2031 L441.8938,1273.1094 Q441.8938,1271.8594 442.4875,1270.7656 Q443.0969,1269.6719 444.1438,1269.0938 Q445.2063,1268.5 446.3938,1268.5 Q447.1125,1268.5 447.7375,1268.75 Q448.3625,1269 448.8938,1269.5 Z " fill="#000000"/><text fill="#000000" font-family="sans-serif" font-size="14" lengthAdjust="spacing" textLength="109" x="460.8938" y="1278.7285">VaccineSchedule</text><line style="stroke:#181818;stroke-width:0.5;" x1="432.8938" x2="571.8938" y1="1289" y2="1289"/><line style="stroke:#181818;stroke-width:0.5;" x1="432.8938" x2="571.8938" y1="1297" y2="1297"/></g><!--MD5=[19e445fc4d3b48519cbe33da05496394]
class Vaccine--><g id="elem_Vaccine"><rect codeLine="50" fill="#F1F1F1" height="171.2656" id="Vaccine" rx="2.5" ry="2.5" style="stroke:#181818;stroke-width:0.5;" width="362" x="771.3938" y="882"/><ellipse cx="923.1438" cy="898" fill="#ADD1B2" rx="11" ry="11" style="stroke:#181818;stroke-width:1.0;"/><path d="M925.1438,894.5 Q925.3469,894 925.5813,893.75 Q925.8157,893.5 926.0813,893.5 Q926.55,893.5 926.8469,893.7813 Q927.1438,894.0625 927.1438,894.7188 L927.1438,896.2813 Q927.1438,896.9375 926.8625,897.2188 Q926.5813,897.5 926.1438,897.5 Q925.7532,897.5 925.5032,897.3281 Q925.2532,897.1563 925.1438,896.7031 Q925.0969,896.3906 924.925,896.2188 Q924.6125,895.8906 924.05,895.7031 Q923.4875,895.5 922.925,895.5 Q922.2219,895.5 921.6282,895.7813 Q921.05,896.0625 920.5969,896.6875 Q920.1438,897.3125 920.1438,898.1719 L920.1438,899.0938 Q920.1438,900.125 920.9875,900.8125 Q921.8313,901.5 923.3313,901.5 Q924.2219,901.5 924.8469,901.2969 Q925.2063,901.1875 925.6125,900.8281 Q925.8782,900.625 926.0188,900.5625 Q926.1594,900.5 926.3313,900.5 Q926.6594,900.5 926.8938,900.7656 Q927.1438,901.0156 927.1438,901.375 Q927.1438,901.7188 926.8,902.125 Q926.3,902.7188 925.5032,903.0469 Q924.4563,903.5 923.175,903.5 Q921.675,903.5 920.4719,902.9063 Q919.5032,902.4375 918.8157,901.4219 Q918.1438,900.4063 918.1438,899.2031 L918.1438,898.1094 Q918.1438,896.8594 918.7375,895.7656 Q919.3469,894.6719 920.3938,894.0938 Q921.4563,893.5 922.6438,893.5 Q923.3625,893.5 923.9875,893.75 Q924.6125,894 925.1438,894.5 Z " fill="#000000"/><text fill="#000000" font-family="sans-serif" font-size="14" lengthAdjust="spacing" textLength="50" x="943.6438" y="903.7285">Vaccine</text><line style="stroke:#181818;stroke-width:0.5;" x1="772.3938" x2="1132.3938" y1="914" y2="914"/><rect fill="none" height="6" style="stroke:#C82930;stroke-width:1.0;" width="6" x="779.3938" y="922"/><text fill="#000000" font-family="sans-serif" font-size="14" lengthAdjust="spacing" textLength="35" x="791.3938" y="932.5332">name</text><rect fill="none" height="6" style="stroke:#C82930;stroke-width:1.0;" width="6" x="779.3938" y="939.6094"/><text fill="#000000" font-family="sans-serif" font-size="14" lengthAdjust="spacing" textLength="37" x="791.3938" y="950.1426">brand</text><rect fill="none" height="6" style="stroke:#C82930;stroke-width:1.0;" width="6" x="779.3938" y="957.2188"/><text fill="#000000" font-family="sans-serif" font-size="14" lengthAdjust="spacing" textLength="27" x="791.3938" y="967.752">type</text><rect fill="none" height="6" style="stroke:#C82930;stroke-width:1.0;" width="6" x="779.3938" y="974.8281"/><text fill="#000000" font-family="sans-serif" font-size="14" lengthAdjust="spacing" textLength="72" x="791.3938" y="985.3613">age groups</text><rect fill="none" height="6" style="stroke:#C82930;stroke-width:1.0;" width="6" x="779.3938" y="992.4375"/><text fill="#000000" font-family="sans-serif" font-size="14" lengthAdjust="spacing" textLength="149" x="791.3938" y="1002.9707">vaccines per age group</text><rect fill="none" height="6" style="stroke:#C82930;stroke-width:1.0;" width="6" x="779.3938" y="1010.0469"/><text fill="#000000" font-family="sans-serif" font-size="14" lengthAdjust="spacing" textLength="47" x="791.3938" y="1020.5801">dosage</text><rect fill="none" height="6" style="stroke:#C82930;stroke-width:1.0;" width="6" x="779.3938" y="1027.6563"/><text fill="#000000" font-family="sans-serif" font-size="14" lengthAdjust="spacing" textLength="336" x="791.3938" y="1038.1895">time interval regarding previous vaccine administered</text><line style="stroke:#181818;stroke-width:0.5;" x1="772.3938" x2="1132.3938" y1="1045.2656" y2="1045.2656"/></g><!--MD5=[da547346deef918ea16944ba046651ef]
class Administrator--><g id="elem_Administrator"><rect codeLine="22" fill="#FF6347" height="58.7031" id="Administrator" rx="2.5" ry="2.5" style="stroke:#181818;stroke-width:0.5;" width="115" x="1186.8938" y="7"/><ellipse cx="1201.8938" cy="28.3516" fill="#ADD1B2" rx="11" ry="11" style="stroke:#181818;stroke-width:1.0;"/><path d="M1203.8938,24.8516 Q1204.0969,24.3516 1204.3313,24.1016 Q1204.5657,23.8516 1204.8313,23.8516 Q1205.3,23.8516 1205.5969,24.1328 Q1205.8938,24.4141 1205.8938,25.0703 L1205.8938,26.6328 Q1205.8938,27.2891 1205.6125,27.5703 Q1205.3313,27.8516 1204.8938,27.8516 Q1204.5032,27.8516 1204.2532,27.6797 Q1204.0032,27.5078 1203.8938,27.0547 Q1203.8469,26.7422 1203.675,26.5703 Q1203.3625,26.2422 1202.8,26.0547 Q1202.2375,25.8516 1201.675,25.8516 Q1200.9719,25.8516 1200.3782,26.1328 Q1199.8,26.4141 1199.3469,27.0391 Q1198.8938,27.6641 1198.8938,28.5234 L1198.8938,29.4453 Q1198.8938,30.4766 1199.7375,31.1641 Q1200.5813,31.8516 1202.0813,31.8516 Q1202.9719,31.8516 1203.5969,31.6484 Q1203.9563,31.5391 1204.3625,31.1797 Q1204.6282,30.9766 1204.7688,30.9141 Q1204.9094,30.8516 1205.0813,30.8516 Q1205.4094,30.8516 1205.6438,31.1172 Q1205.8938,31.3672 1205.8938,31.7266 Q1205.8938,32.0703 1205.55,32.4766 Q1205.05,33.0703 1204.2532,33.3984 Q1203.2063,33.8516 1201.925,33.8516 Q1200.425,33.8516 1199.2219,33.2578 Q1198.2532,32.7891 1197.5657,31.7734 Q1196.8938,30.7578 1196.8938,29.5547 L1196.8938,28.4609 Q1196.8938,27.2109 1197.4875,26.1172 Q1198.0969,25.0234 1199.1438,24.4453 Q1200.2063,23.8516 1201.3938,23.8516 Q1202.1125,23.8516 1202.7375,24.1016 Q1203.3625,24.3516 1203.8938,24.8516 Z " fill="#000000"/><text fill="#000000" font-family="sans-serif" font-size="12" font-style="italic" lengthAdjust="spacing" textLength="61" x="1226.8938" y="24.457">«Sprint_B»</text><text fill="#000000" font-family="sans-serif" font-size="14" lengthAdjust="spacing" textLength="83" x="1215.8938" y="41.627">Administrator</text><line style="stroke:#181818;stroke-width:0.5;" x1="1187.8938" x2="1300.8938" y1="49.7031" y2="49.7031"/><line style="stroke:#181818;stroke-width:0.5;" x1="1187.8938" x2="1300.8938" y1="57.7031" y2="57.7031"/></g><!--MD5=[98f7f3dc8d9719d04ad14614c4ea123f]
reverse link Employee to CenterCoordinator--><g id="link_Employee_CenterCoordinator"><path d="M974.3938,223.27 C974.3938,242.62 974.3938,264.18 974.3938,280.91 " fill="none" id="Employee-backto-CenterCoordinator" style="stroke:#181818;stroke-width:1.0;"/><polygon fill="none" points="967.3938,223.13,974.3938,203.13,981.3938,223.13,967.3938,223.13" style="stroke:#181818;stroke-width:1.0;"/></g><!--MD5=[6716344a46572fc99c27bf4e50ddbd3d]
reverse link Employee to Nurse--><g id="link_Employee_Nurse"><path d="M918.2138,215.06 C888.8038,236.29 853.5138,261.77 826.9938,280.91 " fill="none" id="Employee-backto-Nurse" style="stroke:#181818;stroke-width:1.0;"/><polygon fill="none" points="914.4238,209.16,934.7338,203.13,922.6138,220.51,914.4238,209.16" style="stroke:#181818;stroke-width:1.0;"/></g><!--MD5=[fd5d71c6aff74adc0c6af8e67eeeabac]
reverse link Employee to VaccinationCenterReceptionist--><g id="link_Employee_VaccinationCenterReceptionist"><path d="M907.7838,191.09 C817.5138,213.58 655.0238,254.05 545.4538,281.34 " fill="none" id="Employee-backto-VaccinationCenterReceptionist" style="stroke:#181818;stroke-width:1.0;"/><polygon fill="none" points="906.1438,184.29,927.2438,186.24,909.5238,197.87,906.1438,184.29" style="stroke:#181818;stroke-width:1.0;"/></g><!--MD5=[a069fefa93fe627f96a6b9d57d25b567]
reverse link Notification to EmailNotification--><g id="link_Notification_EmailNotification"><path d="M300.3938,1011.75 C300.3938,1048.94 300.3938,1101.16 300.3938,1130.88 " fill="none" id="Notification-backto-EmailNotification" style="stroke:#181818;stroke-width:1.0;"/><polygon fill="none" points="293.3938,1011.62,300.3938,991.62,307.3938,1011.62,293.3938,1011.62" style="stroke:#181818;stroke-width:1.0;"/></g><!--MD5=[0e746bf0fb50d7a50210c7c405534661]
reverse link Notification to SMSNotification--><g id="link_Notification_SMSNotification"><path d="M265.8638,1006.62 C232.0138,1044 181.5138,1099.76 153.3338,1130.88 " fill="none" id="Notification-backto-SMSNotification" style="stroke:#181818;stroke-width:1.0;"/><polygon fill="none" points="260.8438,1001.74,279.4538,991.62,271.2238,1011.14,260.8438,1001.74" style="stroke:#181818;stroke-width:1.0;"/></g><!--MD5=[ee48e7f218e419c69ba71c5a6bf84314]
link Organization to VaccinationCenter--><g id="link_Organization_VaccinationCenter"><path codeLine="91" d="M1211.6438,484.47 C1187.0438,508.86 1151.8738,543.73 1117.9138,577.39 " fill="none" id="Organization-VaccinationCenter" style="stroke:#181818;stroke-width:1.0;"/><polygon fill="#000000" points="1177.843,526.6959,1186.3356,522.415,1182.1974,518.2408,1177.843,526.6959" style="stroke:#000000;stroke-width:1.0;"/><text fill="#000000" font-family="sans-serif" font-size="13" lengthAdjust="spacing" textLength="30" x="1190.3938" y="528.4951">owns</text><text fill="#000000" font-family="sans-serif" font-size="13" lengthAdjust="spacing" textLength="7" x="1198.4133" y="505.1566">1</text><text fill="#000000" font-family="sans-serif" font-size="13" lengthAdjust="spacing" textLength="5" x="1125.8465" y="566.5657">*</text></g><!--MD5=[bbb149af325460066d11105b9f97218b]
link Organization to HealthCareCenter--><g id="link_Organization_HealthCareCenter"><path codeLine="92" d="M1277.5638,484.47 C1325.6438,531.52 1413.5338,617.54 1455.6538,658.76 " fill="none" id="Organization-HealthCareCenter" style="stroke:#181818;stroke-width:1.0;"/><polygon fill="#000000" points="1329.9672,526.673,1325.5584,518.2461,1321.4472,522.4469,1329.9672,526.673" style="stroke:#000000;stroke-width:1.0;"/><text fill="#000000" font-family="sans-serif" font-size="13" font-weight="bold" lengthAdjust="spacing" textLength="33" x="1335.3938" y="528.4951">owns</text><text fill="#000000" font-family="sans-serif" font-size="13" lengthAdjust="spacing" textLength="7" x="1275.6633" y="505.1566">1</text><text fill="#000000" font-family="sans-serif" font-size="13" lengthAdjust="spacing" textLength="5" x="1443.9298" y="648.0387">*</text></g><!--MD5=[8f7dd94d56b58fc07b233ccd3dd98f8c]
link Administrator to Employee--><g id="link_Administrator_Employee"><path codeLine="93" d="M1187.1338,66.13 C1137.9038,90.74 1067.7638,125.81 1021.6738,148.86 " fill="none" id="Administrator-Employee" style="stroke:#181818;stroke-width:1.0;"/><polygon fill="#000000" points="1126.9217,107.4118,1136.3262,105.9954,1133.6975,100.7381,1126.9217,107.4118" style="stroke:#000000;stroke-width:1.0;"/><text fill="#000000" font-family="sans-serif" font-size="13" font-weight="bold" lengthAdjust="spacing" textLength="54" x="1140.3938" y="110.4951">registers</text><text fill="#000000" font-family="sans-serif" font-size="13" lengthAdjust="spacing" textLength="7" x="1171.9692" y="66.5752">1</text><text fill="#000000" font-family="sans-serif" font-size="13" lengthAdjust="spacing" textLength="20" x="1029.3708" y="142.0127">1..*</text></g><!--MD5=[5b56195baf0749f3a826791092e1de57]
link CenterCoordinator to Organization--><g id="link_CenterCoordinator_Organization"><path codeLine="94" d="M987.3038,340.35 C995.9238,356.55 1008.7438,375.88 1025.3938,388 C1051.3138,406.87 1132.3438,426.72 1188.2238,438.74 " fill="none" id="CenterCoordinator-Organization" style="stroke:#181818;stroke-width:1.0;"/><polygon fill="#000000" points="1034.8843,381.3748,1028.0534,374.7573,1025.4684,380.0362,1034.8843,381.3748" style="stroke:#000000;stroke-width:1.0;"/><text fill="#000000" font-family="sans-serif" font-size="13" lengthAdjust="spacing" textLength="52" x="1039.3938" y="384.4951">works for</text><text fill="#000000" font-family="sans-serif" font-size="13" lengthAdjust="spacing" textLength="7" x="982.0976" y="361.1221">1</text><text fill="#000000" font-family="sans-serif" font-size="13" lengthAdjust="spacing" textLength="5" x="1175.34" y="433.5625">*</text></g><!--MD5=[d5cf03d886352995267197dc535618ec]
link CenterCoordinator to VaccinationCenter--><g id="link_CenterCoordinator_VaccinationCenter"><path codeLine="95" d="M972.3238,340.41 C970.9038,361.82 969.1338,391.71 968.3938,418 C967.5638,447.32 965.1938,454.84 968.3938,484 C971.1838,509.38 975.9138,536.26 981.2738,561.76 " fill="none" id="CenterCoordinator-VaccinationCenter" style="stroke:#181818;stroke-width:1.0;"/><polygon fill="#000000" points="973.5958,456.1717,976.1669,447.0153,970.2938,447.2527,973.5958,456.1717" style="stroke:#000000;stroke-width:1.0;"/><text fill="#000000" font-family="sans-serif" font-size="13" font-weight="bold" lengthAdjust="spacing" textLength="126" x="982.3938" y="456.4951">creates relatories of</text><text fill="#000000" font-family="sans-serif" font-size="13" lengthAdjust="spacing" textLength="7" x="964.262" y="361.1935">1</text><text fill="#000000" font-family="sans-serif" font-size="13" lengthAdjust="spacing" textLength="5" x="974.12" y="550.9964">*</text></g><!--MD5=[2a41c1af413c0662bf55a6b8913ea24f]
link Administrator to Organization--><g id="link_Administrator_Organization"><path codeLine="96" d="M1244.3938,66.18 C1244.3938,140.63 1244.3938,339.7 1244.3938,417.86 " fill="none" id="Administrator-Organization" style="stroke:#181818;stroke-width:1.0;"/><polygon fill="#000000" points="1249.3938,247.1758,1252.3327,238.1307,1246.4549,238.1307,1249.3938,247.1758" style="stroke:#000000;stroke-width:1.0;"/><text fill="#000000" font-family="sans-serif" font-size="13" font-weight="bold" lengthAdjust="spacing" textLength="58" x="1258.3938" y="247.4951">works for</text><text fill="#000000" font-family="sans-serif" font-size="13" lengthAdjust="spacing" textLength="7" x="1236.7047" y="87.1572">1</text><text fill="#000000" font-family="sans-serif" font-size="13" lengthAdjust="spacing" textLength="7" x="1236.6719" y="406.9465">1</text></g><!--MD5=[0e439f75a3d966f965fe5f237a1bacbe]
link Administrator to Vaccine--><g id="link_Administrator_Vaccine"><path codeLine="97" d="M1287.1638,66.25 C1317.6938,90.54 1353.3938,128.37 1353.3938,172.5 C1353.3938,172.5 1353.3938,172.5 1353.3938,684 C1353.3938,800.03 1239.8038,872.57 1133.5338,915.05 " fill="none" id="Administrator-Vaccine" style="stroke:#181818;stroke-width:1.0;"/><polygon fill="#000000" points="1357.5033,384.0958,1362.0062,375.7188,1356.2223,374.6719,1357.5033,384.0958" style="stroke:#000000;stroke-width:1.0;"/><text fill="#000000" font-family="sans-serif" font-size="13" font-weight="bold" lengthAdjust="spacing" textLength="102" x="1367.3938" y="384.4951">can specify new</text><text fill="#000000" font-family="sans-serif" font-size="13" lengthAdjust="spacing" textLength="7" x="1287.8951" y="87.241">1</text><text fill="#000000" font-family="sans-serif" font-size="13" lengthAdjust="spacing" textLength="20" x="1141.5975" y="909.9967">1..*</text></g><!--MD5=[7454cd36f47ee2c1597ee5b79ae5e9ce]
link Employee to VaccinationCenter--><g id="link_Employee_VaccinationCenter"><path codeLine="98" d="M1004.7438,203.33 C1024.5438,223.52 1049.7138,251.98 1066.3938,281 C1098.4638,336.82 1102.8038,354.5 1113.3938,418 C1118.2238,446.93 1120.2438,455.48 1113.3938,484 C1107.0838,510.26 1096.6738,536.97 1084.8738,561.91 " fill="none" id="Employee-VaccinationCenter" style="stroke:#181818;stroke-width:1.0;"/><polygon fill="#000000" points="1114.4842,384.0554,1115.3798,374.5871,1109.6434,375.869,1114.4842,384.0554" style="stroke:#000000;stroke-width:1.0;"/><text fill="#000000" font-family="sans-serif" font-size="13" font-weight="bold" lengthAdjust="spacing" textLength="58" x="1122.3938" y="384.4951">works for</text><text fill="#000000" font-family="sans-serif" font-size="13" lengthAdjust="spacing" textLength="20" x="988.623" y="224.0983">1..*</text><text fill="#000000" font-family="sans-serif" font-size="13" lengthAdjust="spacing" textLength="7" x="1082.2928" y="551.1561">1</text></g><!--MD5=[49bdc4f43c0486f86f6744f0a65b0571]
link Nurse to Vaccine--><g id="link_Nurse_Vaccine"><path codeLine="99" d="M813.4338,340.04 C820.3338,349.04 827.0538,359.42 831.3938,370 C905.1738,550.07 840.9938,615.51 889.3938,804 C896.0138,829.79 905.5338,857.05 915.1638,881.72 " fill="none" id="Nurse-Vaccine" style="stroke:#181818;stroke-width:1.0;"/><polygon fill="#000000" points="875.3167,528.0899,876.5356,518.6577,870.7587,519.7427,875.3167,528.0899" style="stroke:#000000;stroke-width:1.0;"/><text fill="#000000" font-family="sans-serif" font-size="13" font-weight="bold" lengthAdjust="spacing" textLength="67" x="883.3938" y="528.4951">administer</text><text fill="#000000" font-family="sans-serif" font-size="13" lengthAdjust="spacing" textLength="7" x="811.0827" y="361.3446">1</text><text fill="#000000" font-family="sans-serif" font-size="13" lengthAdjust="spacing" textLength="20" x="891.105" y="871.1596">1..*</text></g><!--MD5=[01956f2a273e115720a05ecda573621a]
link VaccinationCenterReceptionist to VaccineSchedule--><g id="link_VaccinationCenterReceptionist_VaccineSchedule"><path codeLine="100" d="M319.2738,326.41 C195.4838,345.97 14.3938,385.59 14.3938,450 C14.3938,450 14.3938,450 14.3938,1156 C14.3938,1241.07 296.4538,1268.46 431.6938,1276.7 " fill="none" id="VaccinationCenterReceptionist-VaccineSchedule" style="stroke:#181818;stroke-width:1.0;"/><polygon fill="#000000" points="19.9812,848.1412,21.8371,838.8134,16,839.504,19.9812,848.1412" style="stroke:#000000;stroke-width:1.0;"/><text fill="#000000" font-family="sans-serif" font-size="13" font-weight="bold" lengthAdjust="spacing" textLength="64" x="28.3938" y="848.4951">checks for</text><text fill="#000000" font-family="sans-serif" font-size="13" lengthAdjust="spacing" textLength="7" x="304.4384" y="324.4584">1</text><text fill="#000000" font-family="sans-serif" font-size="13" lengthAdjust="spacing" textLength="7" x="417.0419" y="1272.9448">1</text></g><!--MD5=[6483f38138ae257a46277230ad2775ae]
link HealthCareCenterReceptionist to HealthCareCenter--><g id="link_HealthCareCenterReceptionist_HealthCareCenter"><path codeLine="101" d="M1535.5438,475.17 C1524.8038,485.9 1513.3538,499.48 1506.3938,514 C1483.4738,561.82 1479.4238,625.17 1479.0438,658.77 " fill="none" id="HealthCareCenterReceptionist-HealthCareCenter" style="stroke:#181818;stroke-width:1.0;"/><polygon fill="#000000" points="1509.9232,527.9546,1515.3925,520.174,1509.7746,518.4452,1509.9232,527.9546" style="stroke:#000000;stroke-width:1.0;"/><text fill="#000000" font-family="sans-serif" font-size="13" font-weight="bold" lengthAdjust="spacing" textLength="58" x="1520.3938" y="528.4951">works for</text><text fill="#000000" font-family="sans-serif" font-size="13" lengthAdjust="spacing" textLength="20" x="1506.5616" y="496.5494">1..*</text><text fill="#000000" font-family="sans-serif" font-size="13" lengthAdjust="spacing" textLength="7" x="1471.0572" y="648.0512">1</text></g><!--MD5=[4d92649c501a5a935b23bbe7c781bbff]
link HealthCareCenterReceptionist to VaccineSchedule--><g id="link_HealthCareCenterReceptionist_VaccineSchedule"><path codeLine="102" d="M1571.4738,475.24 C1575.6538,486.74 1580.3538,500.94 1583.3938,514 C1600.4438,587.35 1605.3938,606.7 1605.3938,682 C1605.3938,682 1605.3938,682 1605.3938,1156 C1605.3938,1260.3 816.5138,1276.87 573.0738,1279.5 " fill="none" id="HealthCareCenterReceptionist-VaccineSchedule" style="stroke:#181818;stroke-width:1.0;"/><polygon fill="#000000" points="1606.5,970.8124,1615.3876,967.4269,1611.7003,962.8495,1606.5,970.8124" style="stroke:#000000;stroke-width:1.0;"/><text fill="#000000" font-family="sans-serif" font-size="13" lengthAdjust="spacing" textLength="59" x="1619.3938" y="972.9951">schedules</text><text fill="#000000" font-family="sans-serif" font-size="13" lengthAdjust="spacing" textLength="20" x="1551.2495" y="496.6365">1..*</text><text fill="#000000" font-family="sans-serif" font-size="13" lengthAdjust="spacing" textLength="5" x="581.0779" y="1275.9753">*</text></g><!--MD5=[615603f8205a62453b0776fd1470ed09]
link VaccinationEvent to VaccineSchedule--><g id="link_VaccinationEvent_VaccineSchedule"><path codeLine="103" d="M620.4638,1179.03 C594.5838,1201.17 555.6738,1234.44 529.6738,1256.67 " fill="none" id="VaccinationEvent-VaccineSchedule" style="stroke:#181818;stroke-width:1.0;"/><polygon fill="#000000" points="585.5938,1221.4254,594.3781,1217.7804,590.558,1213.3132,585.5938,1221.4254" style="stroke:#000000;stroke-width:1.0;"/><text fill="#000000" font-family="sans-serif" font-size="13" lengthAdjust="spacing" textLength="42" x="598.3938" y="1223.4951">fullfiling</text><text fill="#000000" font-family="sans-serif" font-size="13" lengthAdjust="spacing" textLength="7" x="606.0465" y="1200.3753">1</text><text fill="#000000" font-family="sans-serif" font-size="13" lengthAdjust="spacing" textLength="7" x="528.4702" y="1246.3275">1</text></g><!--MD5=[b4d8f5f51e38d6b05c8d39ad94b64364]
link Vaccine to VaccinationEvent--><g id="link_Vaccine_VaccinationEvent"><path codeLine="104" d="M813.2838,1053.11 C766.3038,1081.68 717.6238,1111.29 685.2438,1130.98 " fill="none" id="Vaccine-VaccinationEvent" style="stroke:#181818;stroke-width:1.0;"/><polygon fill="#000000" points="765.1218,1094.7739,774.377,1092.5849,771.3228,1087.5629,765.1218,1094.7739" style="stroke:#000000;stroke-width:1.0;"/><text fill="#000000" font-family="sans-serif" font-size="13" lengthAdjust="spacing" textLength="10" x="778.3938" y="1097.4951">of</text><text fill="#000000" font-family="sans-serif" font-size="13" lengthAdjust="spacing" textLength="7" x="794.0283" y="1074.6534">1</text><text fill="#000000" font-family="sans-serif" font-size="13" lengthAdjust="spacing" textLength="7" x="687.046" y="1120.315">1</text></g><!--MD5=[40456746cfb779ee6b30fa01c125bbbe]
link User to VaccineSchedule--><g id="link_User_VaccineSchedule"><path codeLine="105" d="M439.4638,742.11 C436.6738,815.05 434.6838,943.82 448.3938,1053 C457.9038,1128.77 482.6838,1216.03 495.0938,1256.78 " fill="none" id="User-VaccineSchedule" style="stroke:#181818;stroke-width:1.0;"/><polygon fill="#000000" points="461.9311,1097.1468,463.881,1087.8383,458.0372,1088.4699,461.9311,1097.1468" style="stroke:#000000;stroke-width:1.0;"/><text fill="#000000" font-family="sans-serif" font-size="13" lengthAdjust="spacing" textLength="59" x="470.3938" y="1097.4951">schedules</text><text fill="#000000" font-family="sans-serif" font-size="13" lengthAdjust="spacing" textLength="7" x="431.6801" y="763.7789">1</text><text fill="#000000" font-family="sans-serif" font-size="13" lengthAdjust="spacing" textLength="7" x="485.3263" y="1246.0638">1</text></g><!--MD5=[b3a837ec6bd4484894fbf67ce79a2dc5]
link Nurse to VaccinationEvent--><g id="link_Nurse_VaccinationEvent"><path codeLine="106" d="M742.7038,336.86 C711.3738,356.2 669.9938,385.07 640.3938,418 C607.5238,454.58 598.0438,466.48 585.3938,514 C542.6338,674.65 630.9538,717.14 652.3938,882 C663.9438,970.8 663.2838,993.5 666.3938,1083 C666.6738,1091 667.7638,1093.12 666.3938,1101 C664.6338,1111.11 661.1238,1121.84 657.5938,1130.99 " fill="none" id="Nurse-VaccinationEvent" style="stroke:#181818;stroke-width:1.0;"/><polygon fill="#000000" points="639.861,688.1473,643.747,679.4669,637.9027,678.8405,639.861,688.1473" style="stroke:#000000;stroke-width:1.0;"/><text fill="#000000" font-family="sans-serif" font-size="13" font-weight="bold" lengthAdjust="spacing" textLength="56" x="649.3938" y="688.4951">performs</text><text fill="#000000" font-family="sans-serif" font-size="13" lengthAdjust="spacing" textLength="20" x="715.013" y="336.9826">1..*</text><text fill="#000000" font-family="sans-serif" font-size="13" lengthAdjust="spacing" textLength="5" x="654.5669" y="1120.3276">*</text></g><!--MD5=[37305fa66144d349c9b91992df7c98af]
link VaccinationCenterReceptionist to WaitingRoom--><g id="link_VaccinationCenterReceptionist_WaitingRoom"><path codeLine="107" d="M429.3338,340.26 C428.2938,354.63 427.7638,372.27 429.3938,388 C430.7438,401.02 433.6438,415.33 436.3738,426.92 " fill="none" id="VaccinationCenterReceptionist-WaitingRoom" style="stroke:#181818;stroke-width:1.0;"/><polygon fill="#000000" points="434.7986,384.1594,436.9955,374.906,431.137,375.3819,434.7986,384.1594" style="stroke:#000000;stroke-width:1.0;"/><text fill="#000000" font-family="sans-serif" font-size="13" lengthAdjust="spacing" textLength="93" x="443.3938" y="384.4951">sends patient to</text><text fill="#000000" font-family="sans-serif" font-size="13" lengthAdjust="spacing" textLength="20" x="406.7626" y="361.2529">1..*</text><text fill="#000000" font-family="sans-serif" font-size="13" lengthAdjust="spacing" textLength="7" x="426.9343" y="416.2397">1</text></g><!--MD5=[b79fcef14d46b9dd30f6db7aa057dfb2]
link VaccinationCertificate to VaccinationEvent--><g id="link_VaccinationCertificate_VaccinationEvent"><path codeLine="108" d="M555.5338,991.81 C562.2938,1019.33 575.8838,1065.8 597.3938,1101 C603.9938,1111.79 613.0638,1122.24 621.6738,1130.97 " fill="none" id="VaccinationCertificate-VaccinationEvent" style="stroke:#181818;stroke-width:1.0;"/><polygon fill="#000000" points="604.5401,1096.6917,603.3118,1087.2608,598.003,1089.7839,604.5401,1096.6917" style="stroke:#000000;stroke-width:1.0;"/><text fill="#000000" font-family="sans-serif" font-size="13" lengthAdjust="spacing" textLength="50" x="611.3938" y="1097.4951">validates</text><text fill="#000000" font-family="sans-serif" font-size="13" lengthAdjust="spacing" textLength="7" x="548.913" y="1012.8175">1</text><text fill="#000000" font-family="sans-serif" font-size="13" lengthAdjust="spacing" textLength="7" x="607.1862" y="1120.3025">1</text></g><!--MD5=[da6369d9904787f9a0071813698018a1]
link Nurse to RecoveryRoom--><g id="link_Nurse_RecoveryRoom"><path codeLine="109" d="M742.8838,340.06 C733.3938,348.47 724.6538,358.54 719.3938,370 C711.2238,387.81 712.9638,410.27 716.1738,426.86 " fill="none" id="Nurse-RecoveryRoom" style="stroke:#181818;stroke-width:1.0;"/><polygon fill="#000000" points="722.9233,383.9546,728.3924,376.174,722.7746,374.4452,722.9233,383.9546" style="stroke:#000000;stroke-width:1.0;"/><text fill="#000000" font-family="sans-serif" font-size="13" lengthAdjust="spacing" textLength="93" x="733.3938" y="384.4951">sends patient to</text><text fill="#000000" font-family="sans-serif" font-size="13" lengthAdjust="spacing" textLength="20" x="714.8776" y="359.1194">1..*</text><text fill="#000000" font-family="sans-serif" font-size="13" lengthAdjust="spacing" textLength="7" x="706.683" y="416.1643">1</text></g><!--MD5=[2e2e530a658308b38e0151c4d25adf6b]
link User to Notification--><g id="link_User_Notification"><path codeLine="110" d="M389.8738,737.38 C366.3138,764.28 340.3038,798.65 324.3938,834 C308.1838,870.03 302.9138,916.23 301.2038,943.48 " fill="none" id="User-Notification" style="stroke:#181818;stroke-width:1.0;"/><polygon fill="#000000" points="327.4178,847.7687,333.6921,840.6215,328.2928,838.2985,327.4178,847.7687" style="stroke:#000000;stroke-width:1.0;"/><text fill="#000000" font-family="sans-serif" font-size="13" lengthAdjust="spacing" textLength="47" x="338.3938" y="848.4951">recieves</text><text fill="#000000" font-family="sans-serif" font-size="13" lengthAdjust="spacing" textLength="7" x="374.996" y="741.3913">1</text><text fill="#000000" font-family="sans-serif" font-size="13" lengthAdjust="spacing" textLength="7" x="293.5145" y="932.815">1</text></g><!--MD5=[37054976b2713ba257082629e8728d76]
link User to VaccinationCertificate--><g id="link_User_VaccinationCertificate"><path codeLine="111" d="M464.6438,742.19 C488.4138,804.38 524.9238,899.87 541.5738,943.42 " fill="none" id="User-VaccinationCertificate" style="stroke:#181818;stroke-width:1.0;"/><polygon fill="#000000" points="513.1793,847.8461,512.6945,838.3479,507.2042,840.4469,513.1793,847.8461" style="stroke:#000000;stroke-width:1.0;"/><text fill="#000000" font-family="sans-serif" font-size="13" font-weight="bold" lengthAdjust="spacing" textLength="74" x="520.3938" y="848.4951">can request</text><text fill="#000000" font-family="sans-serif" font-size="13" lengthAdjust="spacing" textLength="7" x="459.929" y="763.8687">1</text><text fill="#000000" font-family="sans-serif" font-size="13" lengthAdjust="spacing" textLength="7" x="531.4168" y="932.7397">1</text></g><!--MD5=[725dcb947706721e0739e11215df5f36]
link RecoveryRoom to User--><g id="link_RecoveryRoom_User"><path codeLine="112" d="M681.8638,475.01 C662.4138,486.34 638.9238,500.46 618.3938,514 C588.1138,533.97 579.4538,537.84 552.3938,562 C531.2038,580.92 509.7038,603.47 491.3938,623.9 " fill="none" id="RecoveryRoom-User" style="stroke:#181818;stroke-width:1.0;"/><polygon fill="#000000" points="619.4545,526.2551,628.3907,523,624.7708,518.3691,619.4545,526.2551" style="stroke:#000000;stroke-width:1.0;"/><text fill="#000000" font-family="sans-serif" font-size="13" font-weight="bold" lengthAdjust="spacing" textLength="17" x="632.3938" y="528.4951">for</text><text fill="#000000" font-family="sans-serif" font-size="13" lengthAdjust="spacing" textLength="7" x="664.1315" y="496.3504">1</text><text fill="#000000" font-family="sans-serif" font-size="13" lengthAdjust="spacing" textLength="5" x="492.061" y="613.2121">*</text></g><!--MD5=[3578c209c964bcce0787c70b9cbb845e]
link RecoveryRoom to VaccinationCenter--><g id="link_RecoveryRoom_VaccinationCenter"><path codeLine="113" d="M732.5138,475 C740.8838,492.15 754.0238,515.39 770.3938,532 C809.5138,571.69 861.1238,605.52 906.6238,630.95 " fill="none" id="RecoveryRoom-VaccinationCenter" style="stroke:#181818;stroke-width:1.0;"/><polygon fill="#000000" points="779.1182,526.5117,774.3415,518.2878,770.4198,522.6661,779.1182,526.5117" style="stroke:#000000;stroke-width:1.0;"/><text fill="#000000" font-family="sans-serif" font-size="13" lengthAdjust="spacing" textLength="25" x="784.3938" y="528.4951">from</text><text fill="#000000" font-family="sans-serif" font-size="13" lengthAdjust="spacing" textLength="7" x="727.1274" y="496.338">1</text><text fill="#000000" font-family="sans-serif" font-size="13" lengthAdjust="spacing" textLength="7" x="891.9408" y="641.3706">1</text></g><!--MD5=[e68234c6e8a5a6b778a150b5b3a5ba14]
link WaitingRoom to User--><g id="link_WaitingRoom_User"><path codeLine="114" d="M442.3938,475.32 C442.3938,509.81 442.3938,575.52 442.3938,623.62 " fill="none" id="WaitingRoom-User" style="stroke:#181818;stroke-width:1.0;"/><polygon fill="#000000" points="447.3938,528.1758,450.3327,519.1307,444.4549,519.1307,447.3938,528.1758" style="stroke:#000000;stroke-width:1.0;"/><text fill="#000000" font-family="sans-serif" font-size="13" lengthAdjust="spacing" textLength="14" x="456.3938" y="528.4951">for</text><text fill="#000000" font-family="sans-serif" font-size="13" lengthAdjust="spacing" textLength="7" x="434.5844" y="496.3298">1</text><text fill="#000000" font-family="sans-serif" font-size="13" lengthAdjust="spacing" textLength="20" x="421.2375" y="613.3193">1..*</text></g><!--MD5=[acb5d1129714769191577de0c65a7622]
link WaitingRoom to VaccinationCenter--><g id="link_WaitingRoom_VaccinationCenter"><path codeLine="115" d="M500.7738,466.47 C543.8038,477.77 603.4638,494.73 654.3938,514 C741.2438,546.85 836.2538,591.89 906.5538,627.06 " fill="none" id="WaitingRoom-VaccinationCenter" style="stroke:#181818;stroke-width:1.0;"/><polygon fill="#000000" points="704.043,525.0157,696.714,518.9545,694.5511,524.4199,704.043,525.0157" style="stroke:#000000;stroke-width:1.0;"/><text fill="#000000" font-family="sans-serif" font-size="13" lengthAdjust="spacing" textLength="25" x="708.3938" y="528.4951">from</text><text fill="#000000" font-family="sans-serif" font-size="13" lengthAdjust="spacing" textLength="7" x="508.3154" y="464.8969">1</text><text fill="#000000" font-family="sans-serif" font-size="13" lengthAdjust="spacing" textLength="7" x="891.8658" y="620.0821">1</text></g><!--MD5=[759c7f6dbf62b13e16002bff783a0fa8]
link VaccinationCenter to Vaccine--><g id="link_VaccinationCenter_Vaccine"><path codeLine="116" d="M986.8638,804.22 C981.3138,830.35 975.5538,857.46 970.3638,881.87 " fill="none" id="VaccinationCenter-Vaccine" style="stroke:#181818;stroke-width:1.0;"/><polygon fill="#000000" points="983.3545,848.0666,988.1093,839.8299,982.3598,838.6082,983.3545,848.0666" style="stroke:#000000;stroke-width:1.0;"/><text fill="#000000" font-family="sans-serif" font-size="13" lengthAdjust="spacing" textLength="49" x="993.3938" y="848.4951">contains</text><text fill="#000000" font-family="sans-serif" font-size="13" lengthAdjust="spacing" textLength="7" x="978.1855" y="825.2044">1</text><text fill="#000000" font-family="sans-serif" font-size="13" lengthAdjust="spacing" textLength="20" x="951.0736" y="871.03">1..*</text></g><!--MD5=[c650705dc16a86fb70761818a449029d]
@startuml

'class enumeration
class Organization
class VaccinationCenter
class CenterCoordinator <<Sprint_B>> extends Employee
class VaccinationEvent
class Employee <<Sprint_B>>
class Nurse <<Sprint_B>> extends Employee
class VaccinationCenterReceptionist <<Sprint_B>> extends Employee
class HealthCareCenterReceptionist
class VaccinationCertificate
class User
class WaitingRoom
class RecoveryRoom
class HealthCareCenter
class VaccinationCertificate
class Notification
class EmailNotification extends Notification
class SMSNotification extends Notification
class VaccineSchedule
class Vaccine
class Administrator <<Sprint_B>>

skinparam class {
BackgroundColor<<SprintB>> Tomato
}

'class componets
class User {
-name
-Age
-sex
-SNS number
}

class VaccinationCenter {
-name
-addres
-phone number
-e-mail addres
-fax number
-website addres
-opening hours
-closing hours
-slot duration
-maximum number of vaccines
-coordinator
}

class Vaccine {
-name
-brand
-type
-age groups
-vaccines per age group
-dosage
-time interval regarding previous vaccine administered
}

class Organization {
-name
}

'class relation
'Old
'Organization -d- VaccinationCenter : owns >
'Organization -d- HealthCareCenter : **owns** >
'CenterCoordinator -u- Organization : works for >
'CenterCoordinator - - VaccinationCenter : creates relatories of >
'Administrator - - Organization : works for >
'Administrator - - Vaccine : can specify new >
'Employee - - VaccinationCenter : works for >
'Nurse - - Vaccine : administer >
'VaccinationCenterReceptionist - - VaccineSchedule : checks for >
'HealthCareCenterReceptionist - - HealthCareCenter : works for >
'HealthCareCenterReceptionist - - VaccineSchedule : schedules >
'VaccineSchedule - - User : schedules <
'VaccineSchedule - - VaccinationEvent : fullfiling >
'Vaccine - - VaccinationEvent : of >
'VaccinationCenterReceptionist - - WaitingRoom : send patient to >
'Nurse - - RecoveryRoom : sends patient to >
'User - - Notification : recieves >
'User - - VaccinationCertificate : can request >
'RecoveryRoom - - User : for >
'RecoveryRoom - - VaccinationCenter : from >
'WaitingRoom - - User : for >
'WaitingRoom - - VaccinationCenter : from >
'VaccinationCenter - - Vaccine : contains >


Organization "1" - - "*" VaccinationCenter : owns >
Organization "1" - - "*" HealthCareCenter : **owns** >
Administrator "1" - - "1..*" Employee : **registers** >
CenterCoordinator "1" - - "*" Organization : works for >
CenterCoordinator "1" - - "*" VaccinationCenter : **creates relatories of** >
Administrator "1" - - "1" Organization : **works for** >
Administrator "1" - - "1..*" Vaccine : **can specify new** >
Employee "1..*" - - "1" VaccinationCenter : **works for** >
Nurse "1" - - "1..*" Vaccine : **administer** >
VaccinationCenterReceptionist "1" - - "1" VaccineSchedule : **checks for** >
HealthCareCenterReceptionist "1..*" - - "1" HealthCareCenter : **works for** >
HealthCareCenterReceptionist "1..*" - - "*" VaccineSchedule : schedules >
VaccinationEvent "1" - - "1" VaccineSchedule : fullfiling >
Vaccine "1" - - "1" VaccinationEvent : of >
User "1" - - "1" VaccineSchedule : schedules >
Nurse "1..*" - - "*" VaccinationEvent : **performs** >
VaccinationCenterReceptionist "1..*" - - "1" WaitingRoom : sends patient to >
VaccinationCertificate "1" - - "1" VaccinationEvent : validates >
Nurse "1..*" - - "1" RecoveryRoom : sends patient to >
User "1" - - "1" Notification : recieves >
User "1" - - "1" VaccinationCertificate : **can request** >
RecoveryRoom "1" - - "*" User : **for** >
RecoveryRoom "1" - - "1" VaccinationCenter : from >
WaitingRoom "1" - - "1..*" User : for >
WaitingRoom "1" - - "1" VaccinationCenter : from >
VaccinationCenter "1" - - "1..*" Vaccine : contains >








@enduml

@startuml

class Organization
class VaccinationCenter
class CenterCoordinator <<Sprint_B>> extends Employee
class VaccinationEvent
class Employee <<Sprint_B>>
class Nurse <<Sprint_B>> extends Employee
class VaccinationCenterReceptionist <<Sprint_B>> extends Employee
class HealthCareCenterReceptionist
class VaccinationCertificate
class User
class WaitingRoom
class RecoveryRoom
class HealthCareCenter
class VaccinationCertificate
class Notification
class EmailNotification extends Notification
class SMSNotification extends Notification
class VaccineSchedule
class Vaccine
class Administrator <<Sprint_B>>

skinparam class {
BackgroundColor<<SprintB>> Tomato
}

class User {
-name
-Age
-sex
-SNS number
}

class VaccinationCenter {
-name
-addres
-phone number
-e-mail addres
-fax number
-website addres
-opening hours
-closing hours
-slot duration
-maximum number of vaccines
-coordinator
}

class Vaccine {
-name
-brand
-type
-age groups
-vaccines per age group
-dosage
-time interval regarding previous vaccine administered
}

class Organization {
-name
}



Organization "1" - - "*" VaccinationCenter : owns >
Organization "1" - - "*" HealthCareCenter : **owns** >
Administrator "1" - - "1..*" Employee : **registers** >
CenterCoordinator "1" - - "*" Organization : works for >
CenterCoordinator "1" - - "*" VaccinationCenter : **creates relatories of** >
Administrator "1" - - "1" Organization : **works for** >
Administrator "1" - - "1..*" Vaccine : **can specify new** >
Employee "1..*" - - "1" VaccinationCenter : **works for** >
Nurse "1" - - "1..*" Vaccine : **administer** >
VaccinationCenterReceptionist "1" - - "1" VaccineSchedule : **checks for** >
HealthCareCenterReceptionist "1..*" - - "1" HealthCareCenter : **works for** >
HealthCareCenterReceptionist "1..*" - - "*" VaccineSchedule : schedules >
VaccinationEvent "1" - - "1" VaccineSchedule : fullfiling >
Vaccine "1" - - "1" VaccinationEvent : of >
User "1" - - "1" VaccineSchedule : schedules >
Nurse "1..*" - - "*" VaccinationEvent : **performs** >
VaccinationCenterReceptionist "1..*" - - "1" WaitingRoom : sends patient to >
VaccinationCertificate "1" - - "1" VaccinationEvent : validates >
Nurse "1..*" - - "1" RecoveryRoom : sends patient to >
User "1" - - "1" Notification : recieves >
User "1" - - "1" VaccinationCertificate : **can request** >
RecoveryRoom "1" - - "*" User : **for** >
RecoveryRoom "1" - - "1" VaccinationCenter : from >
WaitingRoom "1" - - "1..*" User : for >
WaitingRoom "1" - - "1" VaccinationCenter : from >
VaccinationCenter "1" - - "1..*" Vaccine : contains >








@enduml

PlantUML version 1.2022.4(Sat Apr 09 14:29:17 BST 2022)
(GPL source distribution)
Java Runtime: OpenJDK Runtime Environment
JVM: OpenJDK 64-Bit Server VM
Default Encoding: Cp1252
Language: en
Country: GB
--></g></svg>