<?xml version="1.0" encoding="UTF-8" standalone="no"?><svg xmlns="http://www.w3.org/2000/svg" xmlns:xlink="http://www.w3.org/1999/xlink" contentStyleType="text/css" height="258px" preserveAspectRatio="none" style="width:325px;height:258px;background:#FFFFFF;" version="1.1" viewBox="0 0 325 258" width="325px" zoomAndPan="magnify"><defs/><g><!--MD5=[02e4b9b7573f1156f41e60aa5b4e25a4]
class Company--><g id="elem_Company"><rect codeLine="15" fill="#F1F1F1" height="65.6094" id="Company" rx="2.5" ry="2.5" style="stroke:#181818;stroke-width:0.5;" width="92" x="7" y="159"/><ellipse cx="22" cy="175" fill="#ADD1B2" rx="11" ry="11" style="stroke:#181818;stroke-width:1.0;"/><path d="M24,171.5 Q24.2031,171 24.4375,170.75 Q24.6719,170.5 24.9375,170.5 Q25.4063,170.5 25.7031,170.7813 Q26,171.0625 26,171.7188 L26,173.2813 Q26,173.9375 25.7188,174.2188 Q25.4375,174.5 25,174.5 Q24.6094,174.5 24.3594,174.3281 Q24.1094,174.1563 24,173.7031 Q23.9531,173.3906 23.7813,173.2188 Q23.4688,172.8906 22.9063,172.7031 Q22.3438,172.5 21.7813,172.5 Q21.0781,172.5 20.4844,172.7813 Q19.9063,173.0625 19.4531,173.6875 Q19,174.3125 19,175.1719 L19,176.0938 Q19,177.125 19.8438,177.8125 Q20.6875,178.5 22.1875,178.5 Q23.0781,178.5 23.7031,178.2969 Q24.0625,178.1875 24.4688,177.8281 Q24.7344,177.625 24.875,177.5625 Q25.0156,177.5 25.1875,177.5 Q25.5156,177.5 25.75,177.7656 Q26,178.0156 26,178.375 Q26,178.7188 25.6563,179.125 Q25.1563,179.7188 24.3594,180.0469 Q23.3125,180.5 22.0313,180.5 Q20.5313,180.5 19.3281,179.9063 Q18.3594,179.4375 17.6719,178.4219 Q17,177.4063 17,176.2031 L17,175.1094 Q17,173.8594 17.5938,172.7656 Q18.2031,171.6719 19.25,171.0938 Q20.3125,170.5 21.5,170.5 Q22.2188,170.5 22.8438,170.75 Q23.4688,171 24,171.5 Z " fill="#000000"/><text fill="#000000" font-family="sans-serif" font-size="14" lengthAdjust="spacing" textLength="60" x="36" y="180.7285">Company</text><line style="stroke:#181818;stroke-width:0.5;" x1="8" x2="98" y1="191" y2="191"/><rect fill="none" height="6" style="stroke:#C82930;stroke-width:1.0;" width="6" x="15" y="199"/><text fill="#000000" font-family="sans-serif" font-size="14" lengthAdjust="spacing" textLength="35" x="27" y="209.5332">name</text><line style="stroke:#181818;stroke-width:0.5;" x1="8" x2="98" y1="216.6094" y2="216.6094"/></g><!--MD5=[3fd616f346a44cd59a91eb10b19e157c]
class User--><g id="elem_User"><rect codeLine="8" fill="#F1F1F1" height="118.4375" id="User" rx="2.5" ry="2.5" style="stroke:#181818;stroke-width:0.5;" width="105" x="134.5" y="133"/><ellipse cx="169.3" cy="149" fill="#ADD1B2" rx="11" ry="11" style="stroke:#181818;stroke-width:1.0;"/><path d="M171.3,145.5 Q171.5031,145 171.7375,144.75 Q171.9719,144.5 172.2375,144.5 Q172.7063,144.5 173.0031,144.7813 Q173.3,145.0625 173.3,145.7188 L173.3,147.2813 Q173.3,147.9375 173.0188,148.2188 Q172.7375,148.5 172.3,148.5 Q171.9094,148.5 171.6594,148.3281 Q171.4094,148.1563 171.3,147.7031 Q171.2531,147.3906 171.0813,147.2188 Q170.7688,146.8906 170.2063,146.7031 Q169.6438,146.5 169.0813,146.5 Q168.3781,146.5 167.7844,146.7813 Q167.2063,147.0625 166.7531,147.6875 Q166.3,148.3125 166.3,149.1719 L166.3,150.0938 Q166.3,151.125 167.1438,151.8125 Q167.9875,152.5 169.4875,152.5 Q170.3781,152.5 171.0031,152.2969 Q171.3625,152.1875 171.7688,151.8281 Q172.0344,151.625 172.175,151.5625 Q172.3156,151.5 172.4875,151.5 Q172.8156,151.5 173.05,151.7656 Q173.3,152.0156 173.3,152.375 Q173.3,152.7188 172.9563,153.125 Q172.4563,153.7188 171.6594,154.0469 Q170.6125,154.5 169.3313,154.5 Q167.8313,154.5 166.6281,153.9063 Q165.6594,153.4375 164.9719,152.4219 Q164.3,151.4063 164.3,150.2031 L164.3,149.1094 Q164.3,147.8594 164.8938,146.7656 Q165.5031,145.6719 166.55,145.0938 Q167.6125,144.5 168.8,144.5 Q169.5188,144.5 170.1438,144.75 Q170.7688,145 171.3,145.5 Z " fill="#000000"/><text fill="#000000" font-family="sans-serif" font-size="14" lengthAdjust="spacing" textLength="29" x="187.7" y="154.7285">User</text><line style="stroke:#181818;stroke-width:0.5;" x1="135.5" x2="238.5" y1="165" y2="165"/><rect fill="none" height="6" style="stroke:#C82930;stroke-width:1.0;" width="6" x="142.5" y="173"/><text fill="#000000" font-family="sans-serif" font-size="14" lengthAdjust="spacing" textLength="35" x="154.5" y="183.5332">name</text><rect fill="none" height="6" style="stroke:#C82930;stroke-width:1.0;" width="6" x="142.5" y="190.6094"/><text fill="#000000" font-family="sans-serif" font-size="14" lengthAdjust="spacing" textLength="25" x="154.5" y="201.1426">Age</text><rect fill="none" height="6" style="stroke:#C82930;stroke-width:1.0;" width="6" x="142.5" y="208.2188"/><text fill="#000000" font-family="sans-serif" font-size="14" lengthAdjust="spacing" textLength="21" x="154.5" y="218.752">sex</text><rect fill="none" height="6" style="stroke:#C82930;stroke-width:1.0;" width="6" x="142.5" y="225.8281"/><text fill="#000000" font-family="sans-serif" font-size="14" lengthAdjust="spacing" textLength="79" x="154.5" y="236.3613">SNS number</text><line style="stroke:#181818;stroke-width:0.5;" x1="135.5" x2="238.5" y1="243.4375" y2="243.4375"/></g><!--MD5=[da547346deef918ea16944ba046651ef]
class Administrator--><g id="elem_Administrator"><rect codeLine="5" fill="#F1F1F1" height="48" id="Administrator" rx="2.5" ry="2.5" style="stroke:#181818;stroke-width:0.5;" width="115" x="62.5" y="7"/><ellipse cx="77.5" cy="23" fill="#ADD1B2" rx="11" ry="11" style="stroke:#181818;stroke-width:1.0;"/><path d="M79.5,19.5 Q79.7031,19 79.9375,18.75 Q80.1719,18.5 80.4375,18.5 Q80.9063,18.5 81.2031,18.7813 Q81.5,19.0625 81.5,19.7188 L81.5,21.2813 Q81.5,21.9375 81.2188,22.2188 Q80.9375,22.5 80.5,22.5 Q80.1094,22.5 79.8594,22.3281 Q79.6094,22.1563 79.5,21.7031 Q79.4531,21.3906 79.2813,21.2188 Q78.9688,20.8906 78.4063,20.7031 Q77.8438,20.5 77.2813,20.5 Q76.5781,20.5 75.9844,20.7813 Q75.4063,21.0625 74.9531,21.6875 Q74.5,22.3125 74.5,23.1719 L74.5,24.0938 Q74.5,25.125 75.3438,25.8125 Q76.1875,26.5 77.6875,26.5 Q78.5781,26.5 79.2031,26.2969 Q79.5625,26.1875 79.9688,25.8281 Q80.2344,25.625 80.375,25.5625 Q80.5156,25.5 80.6875,25.5 Q81.0156,25.5 81.25,25.7656 Q81.5,26.0156 81.5,26.375 Q81.5,26.7188 81.1563,27.125 Q80.6563,27.7188 79.8594,28.0469 Q78.8125,28.5 77.5313,28.5 Q76.0313,28.5 74.8281,27.9063 Q73.8594,27.4375 73.1719,26.4219 Q72.5,25.4063 72.5,24.2031 L72.5,23.1094 Q72.5,21.8594 73.0938,20.7656 Q73.7031,19.6719 74.75,19.0938 Q75.8125,18.5 77,18.5 Q77.7188,18.5 78.3438,18.75 Q78.9688,19 79.5,19.5 Z " fill="#000000"/><text fill="#000000" font-family="sans-serif" font-size="14" lengthAdjust="spacing" textLength="83" x="91.5" y="28.7285">Administrator</text><line style="stroke:#181818;stroke-width:0.5;" x1="63.5" x2="176.5" y1="39" y2="39"/><line style="stroke:#181818;stroke-width:0.5;" x1="63.5" x2="176.5" y1="47" y2="47"/></g><!--MD5=[304db59a05c0da2cdffc3c882f2d9e9b]
link Administrator to Company--><g id="link_Administrator_Company"><path codeLine="20" d="M97.32,55.18 C89.87,63.92 82.18,74.34 77,85 C65.71,108.25 59.63,136.98 56.42,158.65 " fill="none" id="Administrator-Company" style="stroke:#181818;stroke-width:1.0;"/><polygon fill="#000000" points="80.162,98.8257,86.2201,91.4943,80.7539,89.3336,80.162,98.8257" style="stroke:#000000;stroke-width:1.0;"/><text fill="#000000" font-family="sans-serif" font-size="13" lengthAdjust="spacing" textLength="52" x="91" y="99.4951">works for</text><text fill="#000000" font-family="sans-serif" font-size="13" lengthAdjust="spacing" textLength="7" x="83.9386" y="76.5618">1</text><text fill="#000000" font-family="sans-serif" font-size="13" lengthAdjust="spacing" textLength="7" x="49.4043" y="148.0774">1</text></g><!--MD5=[edc107c0a572352bcd12c9afaba4390b]
link Administrator to User--><g id="link_Administrator_User"><path codeLine="21" d="M133.09,55.15 C138.04,64.31 143.55,75.02 148,85 C154.83,100.31 161.44,117.22 167.23,132.95 " fill="none" id="Administrator-User" style="stroke:#181818;stroke-width:1.0;"/><polygon fill="#000000" points="162.0092,98.7544,161.0658,89.2907,155.6833,91.6526,162.0092,98.7544" style="stroke:#000000;stroke-width:1.0;"/><text fill="#000000" font-family="sans-serif" font-size="13" lengthAdjust="spacing" textLength="148" x="169" y="99.4951">can register from CSV file</text><text fill="#000000" font-family="sans-serif" font-size="13" lengthAdjust="spacing" textLength="7" x="128.4276" y="76.5245">1</text><text fill="#000000" font-family="sans-serif" font-size="13" lengthAdjust="spacing" textLength="20" x="143.6018" y="122.2682">1..*</text></g><!--MD5=[5bed1beac80f547b90d2572fbec57cb1]
@startuml

'class enumeration
class Company
class User
class Administrator

'class componets
class User {
-name
-Age
-sex
-SNS number
}

class Company {
-name
}

'class relation
Administrator "1" - - "1" Company : works for >
Administrator "1" - - "1..*" User : can register from CSV file >








@enduml

@startuml

class Company
class User
class Administrator

class User {
-name
-Age
-sex
-SNS number
}

class Company {
-name
}

Administrator "1" - - "1" Company : works for >
Administrator "1" - - "1..*" User : can register from CSV file >








@enduml

PlantUML version 1.2022.4(Sat Apr 09 14:29:17 BST 2022)
(GPL source distribution)
Java Runtime: OpenJDK Runtime Environment
JVM: OpenJDK 64-Bit Server VM
Default Encoding: Cp1252
Language: en
Country: GB
--></g></svg>