<?xml version="1.0" encoding="UTF-8" standalone="no"?><svg xmlns="http://www.w3.org/2000/svg" xmlns:xlink="http://www.w3.org/1999/xlink" contentStyleType="text/css" height="1310px" preserveAspectRatio="none" style="width:474px;height:1310px;background:#FFFFFF;" version="1.1" viewBox="0 0 474 1310" width="474px" zoomAndPan="magnify"><defs/><g><!--MD5=[d583350fb4573629f21e8df4838ba385]
class RegisterUserFromCSVUI--><g id="elem_RegisterUserFromCSVUI"><rect codeLine="2" fill="#F1F1F1" height="48" id="RegisterUserFromCSVUI" rx="2.5" ry="2.5" style="stroke:#181818;stroke-width:0.5;" width="187" x="77.5" y="7"/><ellipse cx="92.5" cy="23" fill="#ADD1B2" rx="11" ry="11" style="stroke:#181818;stroke-width:1.0;"/><path d="M94.5,19.5 Q94.7031,19 94.9375,18.75 Q95.1719,18.5 95.4375,18.5 Q95.9063,18.5 96.2031,18.7813 Q96.5,19.0625 96.5,19.7188 L96.5,21.2813 Q96.5,21.9375 96.2188,22.2188 Q95.9375,22.5 95.5,22.5 Q95.1094,22.5 94.8594,22.3281 Q94.6094,22.1563 94.5,21.7031 Q94.4531,21.3906 94.2813,21.2188 Q93.9688,20.8906 93.4063,20.7031 Q92.8438,20.5 92.2813,20.5 Q91.5781,20.5 90.9844,20.7813 Q90.4063,21.0625 89.9531,21.6875 Q89.5,22.3125 89.5,23.1719 L89.5,24.0938 Q89.5,25.125 90.3438,25.8125 Q91.1875,26.5 92.6875,26.5 Q93.5781,26.5 94.2031,26.2969 Q94.5625,26.1875 94.9688,25.8281 Q95.2344,25.625 95.375,25.5625 Q95.5156,25.5 95.6875,25.5 Q96.0156,25.5 96.25,25.7656 Q96.5,26.0156 96.5,26.375 Q96.5,26.7188 96.1563,27.125 Q95.6563,27.7188 94.8594,28.0469 Q93.8125,28.5 92.5313,28.5 Q91.0313,28.5 89.8281,27.9063 Q88.8594,27.4375 88.1719,26.4219 Q87.5,25.4063 87.5,24.2031 L87.5,23.1094 Q87.5,21.8594 88.0938,20.7656 Q88.7031,19.6719 89.75,19.0938 Q90.8125,18.5 92,18.5 Q92.7188,18.5 93.3438,18.75 Q93.9688,19 94.5,19.5 Z " fill="#000000"/><text fill="#000000" font-family="sans-serif" font-size="14" lengthAdjust="spacing" textLength="155" x="106.5" y="28.7285">RegisterUserFromCSVUI</text><line style="stroke:#181818;stroke-width:0.5;" x1="78.5" x2="263.5" y1="39" y2="39"/><line style="stroke:#181818;stroke-width:0.5;" x1="78.5" x2="263.5" y1="47" y2="47"/></g><!--MD5=[5af61ee302ec727b087459899240f175]
class RegisterUserFromCSVController--><g id="elem_RegisterUserFromCSVController"><rect codeLine="37" fill="#F1F1F1" height="83.2188" id="RegisterUserFromCSVController" rx="2.5" ry="2.5" style="stroke:#181818;stroke-width:0.5;" width="249" x="46.5" y="116"/><ellipse cx="66.9" cy="132" fill="#ADD1B2" rx="11" ry="11" style="stroke:#181818;stroke-width:1.0;"/><path d="M68.9,128.5 Q69.1031,128 69.3375,127.75 Q69.5719,127.5 69.8375,127.5 Q70.3063,127.5 70.6031,127.7813 Q70.9,128.0625 70.9,128.7188 L70.9,130.2813 Q70.9,130.9375 70.6188,131.2188 Q70.3375,131.5 69.9,131.5 Q69.5094,131.5 69.2594,131.3281 Q69.0094,131.1563 68.9,130.7031 Q68.8531,130.3906 68.6813,130.2188 Q68.3688,129.8906 67.8063,129.7031 Q67.2438,129.5 66.6813,129.5 Q65.9781,129.5 65.3844,129.7813 Q64.8063,130.0625 64.3531,130.6875 Q63.9,131.3125 63.9,132.1719 L63.9,133.0938 Q63.9,134.125 64.7438,134.8125 Q65.5875,135.5 67.0875,135.5 Q67.9781,135.5 68.6031,135.2969 Q68.9625,135.1875 69.3688,134.8281 Q69.6344,134.625 69.775,134.5625 Q69.9156,134.5 70.0875,134.5 Q70.4156,134.5 70.65,134.7656 Q70.9,135.0156 70.9,135.375 Q70.9,135.7188 70.5563,136.125 Q70.0563,136.7188 69.2594,137.0469 Q68.2125,137.5 66.9313,137.5 Q65.4313,137.5 64.2281,136.9063 Q63.2594,136.4375 62.5719,135.4219 Q61.9,134.4063 61.9,133.2031 L61.9,132.1094 Q61.9,130.8594 62.4938,129.7656 Q63.1031,128.6719 64.15,128.0938 Q65.2125,127.5 66.4,127.5 Q67.1188,127.5 67.7438,127.75 Q68.3688,128 68.9,128.5 Z " fill="#000000"/><text fill="#000000" font-family="sans-serif" font-size="14" lengthAdjust="spacing" textLength="205" x="82.1" y="137.7285">RegisterUserFromCSVController</text><line style="stroke:#181818;stroke-width:0.5;" x1="47.5" x2="294.5" y1="148" y2="148"/><line style="stroke:#181818;stroke-width:0.5;" x1="47.5" x2="294.5" y1="156" y2="156"/><ellipse cx="57.5" cy="167" fill="#84BE84" rx="3" ry="3" style="stroke:#038048;stroke-width:1.0;"/><text fill="#000000" font-family="sans-serif" font-size="14" lengthAdjust="spacing" textLength="223" x="66.5" y="174.5332">checkPathToUserCSV(pathToCSV)</text><ellipse cx="57.5" cy="184.6094" fill="#84BE84" rx="3" ry="3" style="stroke:#038048;stroke-width:1.0;"/><text fill="#000000" font-family="sans-serif" font-size="14" lengthAdjust="spacing" textLength="149" x="66.5" y="192.1426">saveUsers(pathToCSV)</text></g><!--MD5=[02e4b9b7573f1156f41e60aa5b4e25a4]
class Company--><g id="elem_Company"><rect codeLine="10" fill="#F1F1F1" height="83.2188" id="Company" rx="2.5" ry="2.5" style="stroke:#181818;stroke-width:0.5;" width="146" x="35" y="260"/><ellipse cx="74.3" cy="276" fill="#ADD1B2" rx="11" ry="11" style="stroke:#181818;stroke-width:1.0;"/><path d="M76.3,272.5 Q76.5031,272 76.7375,271.75 Q76.9719,271.5 77.2375,271.5 Q77.7063,271.5 78.0031,271.7813 Q78.3,272.0625 78.3,272.7188 L78.3,274.2813 Q78.3,274.9375 78.0188,275.2188 Q77.7375,275.5 77.3,275.5 Q76.9094,275.5 76.6594,275.3281 Q76.4094,275.1563 76.3,274.7031 Q76.2531,274.3906 76.0813,274.2188 Q75.7688,273.8906 75.2063,273.7031 Q74.6438,273.5 74.0813,273.5 Q73.3781,273.5 72.7844,273.7813 Q72.2063,274.0625 71.7531,274.6875 Q71.3,275.3125 71.3,276.1719 L71.3,277.0938 Q71.3,278.125 72.1438,278.8125 Q72.9875,279.5 74.4875,279.5 Q75.3781,279.5 76.0031,279.2969 Q76.3625,279.1875 76.7688,278.8281 Q77.0344,278.625 77.175,278.5625 Q77.3156,278.5 77.4875,278.5 Q77.8156,278.5 78.05,278.7656 Q78.3,279.0156 78.3,279.375 Q78.3,279.7188 77.9563,280.125 Q77.4563,280.7188 76.6594,281.0469 Q75.6125,281.5 74.3313,281.5 Q72.8313,281.5 71.6281,280.9063 Q70.6594,280.4375 69.9719,279.4219 Q69.3,278.4063 69.3,277.2031 L69.3,276.1094 Q69.3,274.8594 69.8938,273.7656 Q70.5031,272.6719 71.55,272.0938 Q72.6125,271.5 73.8,271.5 Q74.5188,271.5 75.1438,271.75 Q75.7688,272 76.3,272.5 Z " fill="#000000"/><text fill="#000000" font-family="sans-serif" font-size="14" lengthAdjust="spacing" textLength="60" x="93.7" y="281.7285">Company</text><line style="stroke:#181818;stroke-width:0.5;" x1="36" x2="180" y1="292" y2="292"/><rect fill="none" height="6" style="stroke:#C82930;stroke-width:1.0;" width="6" x="43" y="300"/><text fill="#000000" font-family="sans-serif" font-size="14" lengthAdjust="spacing" textLength="73" x="55" y="310.5332">designation</text><line style="stroke:#181818;stroke-width:0.5;" x1="36" x2="180" y1="317.6094" y2="317.6094"/><ellipse cx="46" cy="328.6094" fill="#84BE84" rx="3" ry="3" style="stroke:#038048;stroke-width:1.0;"/><text fill="#000000" font-family="sans-serif" font-size="14" lengthAdjust="spacing" textLength="120" x="55" y="336.1426">getSNSUserStore()</text></g><!--MD5=[72be06cc7ae02ccc98efe28a50e62246]
class SNSUser--><g id="elem_SNSUser"><rect codeLine="42" fill="#F1F1F1" height="206.4844" id="SNSUser" rx="2.5" ry="2.5" style="stroke:#181818;stroke-width:0.5;" width="152" x="7" y="1097"/><ellipse cx="50.8" cy="1113" fill="#ADD1B2" rx="11" ry="11" style="stroke:#181818;stroke-width:1.0;"/><path d="M52.8,1109.5 Q53.0031,1109 53.2375,1108.75 Q53.4719,1108.5 53.7375,1108.5 Q54.2063,1108.5 54.5031,1108.7813 Q54.8,1109.0625 54.8,1109.7188 L54.8,1111.2813 Q54.8,1111.9375 54.5188,1112.2188 Q54.2375,1112.5 53.8,1112.5 Q53.4094,1112.5 53.1594,1112.3281 Q52.9094,1112.1563 52.8,1111.7031 Q52.7531,1111.3906 52.5813,1111.2188 Q52.2688,1110.8906 51.7063,1110.7031 Q51.1438,1110.5 50.5813,1110.5 Q49.8781,1110.5 49.2844,1110.7813 Q48.7063,1111.0625 48.2531,1111.6875 Q47.8,1112.3125 47.8,1113.1719 L47.8,1114.0938 Q47.8,1115.125 48.6438,1115.8125 Q49.4875,1116.5 50.9875,1116.5 Q51.8781,1116.5 52.5031,1116.2969 Q52.8625,1116.1875 53.2688,1115.8281 Q53.5344,1115.625 53.675,1115.5625 Q53.8156,1115.5 53.9875,1115.5 Q54.3156,1115.5 54.55,1115.7656 Q54.8,1116.0156 54.8,1116.375 Q54.8,1116.7188 54.4563,1117.125 Q53.9563,1117.7188 53.1594,1118.0469 Q52.1125,1118.5 50.8313,1118.5 Q49.3313,1118.5 48.1281,1117.9063 Q47.1594,1117.4375 46.4719,1116.4219 Q45.8,1115.4063 45.8,1114.2031 L45.8,1113.1094 Q45.8,1111.8594 46.3938,1110.7656 Q47.0031,1109.6719 48.05,1109.0938 Q49.1125,1108.5 50.3,1108.5 Q51.0188,1108.5 51.6438,1108.75 Q52.2688,1109 52.8,1109.5 Z " fill="#000000"/><text fill="#000000" font-family="sans-serif" font-size="14" lengthAdjust="spacing" textLength="56" x="71.2" y="1118.7285">SNSUser</text><line style="stroke:#181818;stroke-width:0.5;" x1="8" x2="158" y1="1129" y2="1129"/><rect fill="none" height="6" style="stroke:#C82930;stroke-width:1.0;" width="6" x="15" y="1137"/><text fill="#000000" font-family="sans-serif" font-size="14" lengthAdjust="spacing" textLength="36" x="27" y="1147.5332">Name</text><rect fill="none" height="6" style="stroke:#C82930;stroke-width:1.0;" width="6" x="15" y="1154.6094"/><text fill="#000000" font-family="sans-serif" font-size="14" lengthAdjust="spacing" textLength="23" x="27" y="1165.1426">Sex</text><rect fill="none" height="6" style="stroke:#C82930;stroke-width:1.0;" width="6" x="15" y="1172.2188"/><text fill="#000000" font-family="sans-serif" font-size="14" lengthAdjust="spacing" textLength="61" x="27" y="1182.752">Birth date</text><rect fill="none" height="6" style="stroke:#C82930;stroke-width:1.0;" width="6" x="15" y="1189.8281"/><text fill="#000000" font-family="sans-serif" font-size="14" lengthAdjust="spacing" textLength="52" x="27" y="1200.3613">Address</text><rect fill="none" height="6" style="stroke:#C82930;stroke-width:1.0;" width="6" x="15" y="1207.4375"/><text fill="#000000" font-family="sans-serif" font-size="14" lengthAdjust="spacing" textLength="93" x="27" y="1217.9707">Phone number</text><rect fill="none" height="6" style="stroke:#C82930;stroke-width:1.0;" width="6" x="15" y="1225.0469"/><text fill="#000000" font-family="sans-serif" font-size="14" lengthAdjust="spacing" textLength="39" x="27" y="1235.5801">E-mail</text><rect fill="none" height="6" style="stroke:#C82930;stroke-width:1.0;" width="6" x="15" y="1242.6563"/><text fill="#000000" font-family="sans-serif" font-size="14" lengthAdjust="spacing" textLength="111" x="27" y="1253.1895">SNS user number</text><rect fill="none" height="6" style="stroke:#C82930;stroke-width:1.0;" width="6" x="15" y="1260.2656"/><text fill="#000000" font-family="sans-serif" font-size="14" lengthAdjust="spacing" textLength="126" x="27" y="1270.7988">Citizen card number</text><rect fill="none" height="6" style="stroke:#C82930;stroke-width:1.0;" width="6" x="15" y="1277.875"/><text fill="#000000" font-family="sans-serif" font-size="14" lengthAdjust="spacing" textLength="60" x="27" y="1288.4082">password</text><line style="stroke:#181818;stroke-width:0.5;" x1="8" x2="158" y1="1295.4844" y2="1295.4844"/></g><!--MD5=[a5ad3856b0c65e07b10297b4477b22bb]
class SNSUserStore--><g id="elem_SNSUserStore"><rect codeLine="15" fill="#F1F1F1" height="364.9688" id="SNSUserStore" rx="2.5" ry="2.5" style="stroke:#181818;stroke-width:0.5;" width="235" x="116.5" y="404"/><ellipse cx="184.75" cy="420" fill="#ADD1B2" rx="11" ry="11" style="stroke:#181818;stroke-width:1.0;"/><path d="M186.75,416.5 Q186.9531,416 187.1875,415.75 Q187.4219,415.5 187.6875,415.5 Q188.1563,415.5 188.4531,415.7813 Q188.75,416.0625 188.75,416.7188 L188.75,418.2813 Q188.75,418.9375 188.4688,419.2188 Q188.1875,419.5 187.75,419.5 Q187.3594,419.5 187.1094,419.3281 Q186.8594,419.1563 186.75,418.7031 Q186.7031,418.3906 186.5313,418.2188 Q186.2188,417.8906 185.6563,417.7031 Q185.0938,417.5 184.5313,417.5 Q183.8281,417.5 183.2344,417.7813 Q182.6563,418.0625 182.2031,418.6875 Q181.75,419.3125 181.75,420.1719 L181.75,421.0938 Q181.75,422.125 182.5938,422.8125 Q183.4375,423.5 184.9375,423.5 Q185.8281,423.5 186.4531,423.2969 Q186.8125,423.1875 187.2188,422.8281 Q187.4844,422.625 187.625,422.5625 Q187.7656,422.5 187.9375,422.5 Q188.2656,422.5 188.5,422.7656 Q188.75,423.0156 188.75,423.375 Q188.75,423.7188 188.4063,424.125 Q187.9063,424.7188 187.1094,425.0469 Q186.0625,425.5 184.7813,425.5 Q183.2813,425.5 182.0781,424.9063 Q181.1094,424.4375 180.4219,423.4219 Q179.75,422.4063 179.75,421.2031 L179.75,420.1094 Q179.75,418.8594 180.3438,417.7656 Q180.9531,416.6719 182,416.0938 Q183.0625,415.5 184.25,415.5 Q184.9688,415.5 185.5938,415.75 Q186.2188,416 186.75,416.5 Z " fill="#000000"/><text fill="#000000" font-family="sans-serif" font-size="14" lengthAdjust="spacing" textLength="90" x="205.25" y="425.7285">SNSUserStore</text><line style="stroke:#181818;stroke-width:0.5;" x1="117.5" x2="350.5" y1="436" y2="436"/><rect fill="none" height="6" style="stroke:#C82930;stroke-width:1.0;" width="6" x="124.5" y="444"/><text fill="#000000" font-family="sans-serif" font-size="14" lengthAdjust="spacing" textLength="50" x="136.5" y="454.5332">userList</text><rect fill="none" height="6" style="stroke:#C82930;stroke-width:1.0;" width="6" x="124.5" y="461.6094"/><text fill="#000000" font-family="sans-serif" font-size="14" lengthAdjust="spacing" textLength="103" x="136.5" y="472.1426">userListToVerify</text><line style="stroke:#181818;stroke-width:0.5;" x1="117.5" x2="350.5" y1="479.2188" y2="479.2188"/><ellipse cx="127.5" cy="490.2188" fill="#84BE84" rx="3" ry="3" style="stroke:#038048;stroke-width:1.0;"/><text fill="#000000" font-family="sans-serif" font-size="14" lengthAdjust="spacing" textLength="206" x="136.5" y="497.752">validatePathToCSV(pathToCSV)</text><ellipse cx="127.5" cy="507.8281" fill="#84BE84" rx="3" ry="3" style="stroke:#038048;stroke-width:1.0;"/><text fill="#000000" font-family="sans-serif" font-size="14" lengthAdjust="spacing" textLength="145" x="136.5" y="515.3613">verifyCSV(pathToCSV)</text><ellipse cx="127.5" cy="525.4375" fill="#84BE84" rx="3" ry="3" style="stroke:#038048;stroke-width:1.0;"/><text fill="#000000" font-family="sans-serif" font-size="14" lengthAdjust="spacing" textLength="143" x="136.5" y="532.9707">validateSNSUser(user)</text><text fill="#000000" font-family="sans-serif" font-size="14" lengthAdjust="spacing" textLength="4" x="136.5" y="550.5801"> </text><rect fill="#F24D5C" height="6" style="stroke:#C82930;stroke-width:1.0;" width="6" x="124.5" y="557.6563"/><text fill="#000000" font-family="sans-serif" font-size="14" lengthAdjust="spacing" textLength="123" x="136.5" y="568.1895">validateName(user)</text><rect fill="#F24D5C" height="6" style="stroke:#C82930;stroke-width:1.0;" width="6" x="124.5" y="575.2656"/><text fill="#000000" font-family="sans-serif" font-size="14" lengthAdjust="spacing" textLength="110" x="136.5" y="585.7988">validateSex(user)</text><rect fill="#F24D5C" height="6" style="stroke:#C82930;stroke-width:1.0;" width="6" x="124.5" y="592.875"/><text fill="#000000" font-family="sans-serif" font-size="14" lengthAdjust="spacing" textLength="121" x="136.5" y="603.4082">validateEmail(user)</text><rect fill="#F24D5C" height="6" style="stroke:#C82930;stroke-width:1.0;" width="6" x="124.5" y="610.4844"/><text fill="#000000" font-family="sans-serif" font-size="14" lengthAdjust="spacing" textLength="139" x="136.5" y="621.0176">validateAddress(user)</text><rect fill="#F24D5C" height="6" style="stroke:#C82930;stroke-width:1.0;" width="6" x="124.5" y="628.0938"/><text fill="#000000" font-family="sans-serif" font-size="14" lengthAdjust="spacing" textLength="146" x="136.5" y="638.627">validateBirthDate(user)</text><rect fill="#F24D5C" height="6" style="stroke:#C82930;stroke-width:1.0;" width="6" x="124.5" y="645.7031"/><text fill="#000000" font-family="sans-serif" font-size="14" lengthAdjust="spacing" textLength="209" x="136.5" y="656.2363">validateCitizenCardNumber(user)</text><rect fill="#F24D5C" height="6" style="stroke:#C82930;stroke-width:1.0;" width="6" x="124.5" y="663.3125"/><text fill="#000000" font-family="sans-serif" font-size="14" lengthAdjust="spacing" textLength="177" x="136.5" y="673.8457">validatePhoneNumber(user)</text><rect fill="#F24D5C" height="6" style="stroke:#C82930;stroke-width:1.0;" width="6" x="124.5" y="680.9219"/><text fill="#000000" font-family="sans-serif" font-size="14" lengthAdjust="spacing" textLength="160" x="136.5" y="691.4551">validateSnsNumber(user)</text><text fill="#000000" font-family="sans-serif" font-size="14" lengthAdjust="spacing" textLength="4" x="136.5" y="709.0645"> </text><ellipse cx="127.5" cy="719.1406" fill="#84BE84" rx="3" ry="3" style="stroke:#038048;stroke-width:1.0;"/><text fill="#000000" font-family="sans-serif" font-size="14" lengthAdjust="spacing" textLength="143" x="136.5" y="726.6738">addUsers(pathToCSV)</text><rect fill="#F24D5C" height="6" style="stroke:#C82930;stroke-width:1.0;" width="6" x="124.5" y="733.75"/><text fill="#000000" font-family="sans-serif" font-size="14" lengthAdjust="spacing" textLength="136" x="136.5" y="744.2832">addUser(pathToCSV)</text><rect fill="#F24D5C" height="6" style="stroke:#C82930;stroke-width:1.0;" width="6" x="124.5" y="751.3594"/><text fill="#000000" font-family="sans-serif" font-size="14" lengthAdjust="spacing" textLength="183" x="136.5" y="761.8926">addUsersToSystem(userList)</text></g><!--MD5=[435e87b77665633b06f18413f59de7e8]
class SNSUserDto--><g id="elem_SNSUserDto"><rect codeLine="54" fill="#F1F1F1" height="188.875" id="SNSUserDto" rx="2.5" ry="2.5" style="stroke:#181818;stroke-width:0.5;" width="152" x="116" y="847"/><ellipse cx="149.9" cy="863" fill="#ADD1B2" rx="11" ry="11" style="stroke:#181818;stroke-width:1.0;"/><path d="M151.9,859.5 Q152.1031,859 152.3375,858.75 Q152.5719,858.5 152.8375,858.5 Q153.3063,858.5 153.6031,858.7813 Q153.9,859.0625 153.9,859.7188 L153.9,861.2813 Q153.9,861.9375 153.6188,862.2188 Q153.3375,862.5 152.9,862.5 Q152.5094,862.5 152.2594,862.3281 Q152.0094,862.1563 151.9,861.7031 Q151.8531,861.3906 151.6813,861.2188 Q151.3688,860.8906 150.8063,860.7031 Q150.2438,860.5 149.6813,860.5 Q148.9781,860.5 148.3844,860.7813 Q147.8063,861.0625 147.3531,861.6875 Q146.9,862.3125 146.9,863.1719 L146.9,864.0938 Q146.9,865.125 147.7438,865.8125 Q148.5875,866.5 150.0875,866.5 Q150.9781,866.5 151.6031,866.2969 Q151.9625,866.1875 152.3688,865.8281 Q152.6344,865.625 152.775,865.5625 Q152.9156,865.5 153.0875,865.5 Q153.4156,865.5 153.65,865.7656 Q153.9,866.0156 153.9,866.375 Q153.9,866.7188 153.5563,867.125 Q153.0563,867.7188 152.2594,868.0469 Q151.2125,868.5 149.9313,868.5 Q148.4313,868.5 147.2281,867.9063 Q146.2594,867.4375 145.5719,866.4219 Q144.9,865.4063 144.9,864.2031 L144.9,863.1094 Q144.9,861.8594 145.4938,860.7656 Q146.1031,859.6719 147.15,859.0938 Q148.2125,858.5 149.4,858.5 Q150.1188,858.5 150.7438,858.75 Q151.3688,859 151.9,859.5 Z " fill="#000000"/><text fill="#000000" font-family="sans-serif" font-size="14" lengthAdjust="spacing" textLength="78" x="168.1" y="868.7285">SNSUserDto</text><line style="stroke:#181818;stroke-width:0.5;" x1="117" x2="267" y1="879" y2="879"/><rect fill="none" height="6" style="stroke:#C82930;stroke-width:1.0;" width="6" x="124" y="887"/><text fill="#000000" font-family="sans-serif" font-size="14" lengthAdjust="spacing" textLength="36" x="136" y="897.5332">Name</text><rect fill="none" height="6" style="stroke:#C82930;stroke-width:1.0;" width="6" x="124" y="904.6094"/><text fill="#000000" font-family="sans-serif" font-size="14" lengthAdjust="spacing" textLength="23" x="136" y="915.1426">Sex</text><rect fill="none" height="6" style="stroke:#C82930;stroke-width:1.0;" width="6" x="124" y="922.2188"/><text fill="#000000" font-family="sans-serif" font-size="14" lengthAdjust="spacing" textLength="61" x="136" y="932.752">Birth date</text><rect fill="none" height="6" style="stroke:#C82930;stroke-width:1.0;" width="6" x="124" y="939.8281"/><text fill="#000000" font-family="sans-serif" font-size="14" lengthAdjust="spacing" textLength="52" x="136" y="950.3613">Address</text><rect fill="none" height="6" style="stroke:#C82930;stroke-width:1.0;" width="6" x="124" y="957.4375"/><text fill="#000000" font-family="sans-serif" font-size="14" lengthAdjust="spacing" textLength="93" x="136" y="967.9707">Phone number</text><rect fill="none" height="6" style="stroke:#C82930;stroke-width:1.0;" width="6" x="124" y="975.0469"/><text fill="#000000" font-family="sans-serif" font-size="14" lengthAdjust="spacing" textLength="39" x="136" y="985.5801">E-mail</text><rect fill="none" height="6" style="stroke:#C82930;stroke-width:1.0;" width="6" x="124" y="992.6563"/><text fill="#000000" font-family="sans-serif" font-size="14" lengthAdjust="spacing" textLength="111" x="136" y="1003.1895">SNS user number</text><rect fill="none" height="6" style="stroke:#C82930;stroke-width:1.0;" width="6" x="124" y="1010.2656"/><text fill="#000000" font-family="sans-serif" font-size="14" lengthAdjust="spacing" textLength="126" x="136" y="1020.7988">Citizen card number</text><line style="stroke:#181818;stroke-width:0.5;" x1="117" x2="267" y1="1027.875" y2="1027.875"/></g><!--MD5=[ca97d4c77a459a6783a95679b9821773]
class SNSUserMapper--><g id="elem_SNSUserMapper"><rect codeLine="65" fill="#F1F1F1" height="83.2188" id="SNSUserMapper" rx="2.5" ry="2.5" style="stroke:#181818;stroke-width:0.5;" width="164" x="303" y="900"/><ellipse cx="330.6" cy="916" fill="#ADD1B2" rx="11" ry="11" style="stroke:#181818;stroke-width:1.0;"/><path d="M332.6,912.5 Q332.8031,912 333.0375,911.75 Q333.2719,911.5 333.5375,911.5 Q334.0063,911.5 334.3031,911.7813 Q334.6,912.0625 334.6,912.7188 L334.6,914.2813 Q334.6,914.9375 334.3188,915.2188 Q334.0375,915.5 333.6,915.5 Q333.2094,915.5 332.9594,915.3281 Q332.7094,915.1563 332.6,914.7031 Q332.5531,914.3906 332.3813,914.2188 Q332.0688,913.8906 331.5063,913.7031 Q330.9438,913.5 330.3813,913.5 Q329.6781,913.5 329.0844,913.7813 Q328.5063,914.0625 328.0531,914.6875 Q327.6,915.3125 327.6,916.1719 L327.6,917.0938 Q327.6,918.125 328.4438,918.8125 Q329.2875,919.5 330.7875,919.5 Q331.6781,919.5 332.3031,919.2969 Q332.6625,919.1875 333.0688,918.8281 Q333.3344,918.625 333.475,918.5625 Q333.6156,918.5 333.7875,918.5 Q334.1156,918.5 334.35,918.7656 Q334.6,919.0156 334.6,919.375 Q334.6,919.7188 334.2563,920.125 Q333.7563,920.7188 332.9594,921.0469 Q331.9125,921.5 330.6313,921.5 Q329.1313,921.5 327.9281,920.9063 Q326.9594,920.4375 326.2719,919.4219 Q325.6,918.4063 325.6,917.2031 L325.6,916.1094 Q325.6,914.8594 326.1938,913.7656 Q326.8031,912.6719 327.85,912.0938 Q328.9125,911.5 330.1,911.5 Q330.8188,911.5 331.4438,911.75 Q332.0688,912 332.6,912.5 Z " fill="#000000"/><text fill="#000000" font-family="sans-serif" font-size="14" lengthAdjust="spacing" textLength="104" x="347.4" y="921.7285">SNSUserMapper</text><line style="stroke:#181818;stroke-width:0.5;" x1="304" x2="466" y1="932" y2="932"/><line style="stroke:#181818;stroke-width:0.5;" x1="304" x2="466" y1="940" y2="940"/><ellipse cx="314" cy="951" fill="#84BE84" rx="3" ry="3" style="stroke:#038048;stroke-width:1.0;"/><text fill="#000000" font-family="sans-serif" font-size="14" lengthAdjust="spacing" textLength="138" x="323" y="958.5332">toModel(SNSUserDto)</text><ellipse cx="314" cy="968.6094" fill="#84BE84" rx="3" ry="3" style="stroke:#038048;stroke-width:1.0;"/><text fill="#000000" font-family="sans-serif" font-size="14" lengthAdjust="spacing" textLength="108" x="323" y="976.1426">toDTO(SNSUser)</text></g><!--MD5=[40949111eee4f1f1f136d3e14db7d6e7]
link RegisterUserFromCSVUI to RegisterUserFromCSVController--><g id="link_RegisterUserFromCSVUI_RegisterUserFromCSVController"><path codeLine="70" d="M171,55.13 C171,70.68 171,91.72 171,110.6 " fill="none" id="RegisterUserFromCSVUI-to-RegisterUserFromCSVController" style="stroke:#181818;stroke-width:1.0;stroke-dasharray:7.0,7.0;"/><polygon fill="#181818" points="171,115.86,175,106.86,171,110.86,167,106.86,171,115.86" style="stroke:#181818;stroke-width:1.0;"/></g><!--MD5=[a19090bbf130cf4d798cbfc578cc7242]
link RegisterUserFromCSVController to Company--><g id="link_RegisterUserFromCSVController_Company"><path codeLine="71" d="M152.95,199.19 C145.24,216.57 136.2,236.93 128.26,254.83 " fill="none" id="RegisterUserFromCSVController-to-Company" style="stroke:#181818;stroke-width:1.0;stroke-dasharray:7.0,7.0;"/><polygon fill="#181818" points="126.06,259.8,133.3667,253.196,128.088,255.2298,126.0543,249.9511,126.06,259.8" style="stroke:#181818;stroke-width:1.0;"/></g><!--MD5=[1bd9080c7e199931e49bc5a1616681ac]
link Company to SNSUserStore--><g id="link_Company_SNSUserStore"><path codeLine="72" d="M126.05,343.05 C133.11,358.89 141.73,378.26 151,399.07 " fill="none" id="Company-to-SNSUserStore" style="stroke:#181818;stroke-width:1.0;stroke-dasharray:7.0,7.0;"/><polygon fill="#181818" points="153.11,403.82,153.1043,393.9711,151.0767,399.2521,145.7957,397.2245,153.11,403.82" style="stroke:#181818;stroke-width:1.0;"/></g><!--MD5=[60e2e49e3acad287b776948fe148a03b]
link RegisterUserFromCSVController to SNSUserStore--><g id="link_RegisterUserFromCSVController_SNSUserStore"><path codeLine="73" d="M183.83,199.14 C189.23,217.55 195.14,239.71 199,260 C207.51,304.71 214.12,353.3 219.19,398.97 " fill="none" id="RegisterUserFromCSVController-to-SNSUserStore" style="stroke:#181818;stroke-width:1.0;stroke-dasharray:7.0,7.0;"/><polygon fill="#181818" points="219.74,403.95,222.7394,394.569,219.1972,398.9795,214.7867,395.4374,219.74,403.95" style="stroke:#181818;stroke-width:1.0;"/></g><!--MD5=[1a8aa2b864b87f860d28abceaa28b7a5]
link Company to SNSUser--><g id="link_Company_SNSUser"><path codeLine="74" d="M103.73,343.44 C101.97,361.92 100.08,384.04 99,404 C85.65,649.73 83.13,938.72 82.84,1091.57 " fill="none" id="Company-to-SNSUser" style="stroke:#181818;stroke-width:1.0;"/><polygon fill="#181818" points="82.83,1096.95,86.83,1087.95,82.83,1091.95,78.83,1087.95,82.83,1096.95" style="stroke:#181818;stroke-width:1.0;"/><polygon fill="#000000" points="90.8604,813.1738,94.0507,804.2143,88.1751,804.0502,90.8604,813.1738" style="stroke:#000000;stroke-width:1.0;"/><text fill="#000000" font-family="sans-serif" font-size="13" lengthAdjust="spacing" textLength="21" x="100" y="813.4951">has</text><text fill="#000000" font-family="sans-serif" font-size="13" lengthAdjust="spacing" textLength="7" x="95.5402" y="364.5923">1</text><text fill="#000000" font-family="sans-serif" font-size="13" lengthAdjust="spacing" textLength="20" x="62.0831" y="1086.285">1..*</text></g><!--MD5=[68daf44186e79272b90b6a2b58f5c368]
link SNSUserStore to SNSUserDto--><g id="link_SNSUserStore_SNSUserDto"><path codeLine="75" d="M212.38,769.17 C209.41,794.14 206.46,818.98 203.76,841.67 " fill="none" id="SNSUserStore-to-SNSUserDto" style="stroke:#181818;stroke-width:1.0;stroke-dasharray:7.0,7.0;"/><polygon fill="#181818" points="203.15,846.78,208.1756,838.3098,203.735,841.8143,200.2305,837.3738,203.15,846.78" style="stroke:#181818;stroke-width:1.0;"/></g><!--MD5=[57c614e917782dc37ffdb3405c86ae0e]
link SNSUserStore to SNSUserMapper--><g id="link_SNSUserStore_SNSUserMapper"><path codeLine="76" d="M311.71,769.17 C331.75,816.03 351.59,862.39 365.56,895.05 " fill="none" id="SNSUserStore-to-SNSUserMapper" style="stroke:#181818;stroke-width:1.0;stroke-dasharray:7.0,7.0;"/><polygon fill="#181818" points="367.58,899.77,367.7372,889.9224,365.6225,895.1691,360.3758,893.0544,367.58,899.77" style="stroke:#181818;stroke-width:1.0;"/></g><!--MD5=[24c2fd327ed292dae31da7e02ad85038]
link SNSUserMapper to SNSUser--><g id="link_SNSUserMapper_SNSUser"><path codeLine="77" d="M343.3,983.3 C325.88,999.97 305.25,1019.23 286,1036 C246.54,1070.38 201.25,1107 163.48,1136.8 " fill="none" id="SNSUserMapper-to-SNSUser" style="stroke:#181818;stroke-width:1.0;stroke-dasharray:7.0,7.0;"/><polygon fill="#181818" points="159.38,1140.04,168.9188,1137.5881,163.2996,1136.9358,163.952,1131.3166,159.38,1140.04" style="stroke:#181818;stroke-width:1.0;"/></g><!--MD5=[65d40554dc53e082d690231c01f2b422]
@startuml

class RegisterUserFromCSVUI
class RegisterUserFromCSVController
class Company
class SNSUser
class SNSUserStore
class SNSUserDto
class SNSUserMapper

class Company {
-designation
+getSNSUserStore()
}

class SNSUserStore {
-userList
-userListToVerify

+validatePathToCSV(pathToCSV)
+verifyCSV(pathToCSV)
+validateSNSUser(user)

-validateName(user)
-validateSex(user)
-validateEmail(user)
-validateAddress(user)
-validateBirthDate(user)
-validateCitizenCardNumber(user)
-validatePhoneNumber(user)
-validateSnsNumber(user)

+addUsers(pathToCSV)
-addUser(pathToCSV)
-addUsersToSystem(userList)
}

class RegisterUserFromCSVController {
+checkPathToUserCSV(pathToCSV)
+saveUsers(pathToCSV)
}

class SNSUser {
-Name
-Sex
-Birth date
-Address
-Phone number
-E-mail
-SNS user number
-Citizen card number
-password
}

class SNSUserDto {
-Name
-Sex
-Birth date
-Address
-Phone number
-E-mail
-SNS user number
-Citizen card number
}

class SNSUserMapper {
+toModel(SNSUserDto)
+toDTO(SNSUser)
}

RegisterUserFromCSVUI .-> RegisterUserFromCSVController
RegisterUserFromCSVController .-> Company
Company .-> SNSUserStore
RegisterUserFromCSVController .-> SNSUserStore
Company "1" - -> "1..*" SNSUser : has >
SNSUserStore .-> SNSUserDto
SNSUserStore .-> SNSUserMapper
SNSUserMapper .-> SNSUser
@enduml

PlantUML version 1.2022.5(Sat Apr 30 11:55:52 BST 2022)
(GPL source distribution)
Java Runtime: OpenJDK Runtime Environment
JVM: OpenJDK 64-Bit Server VM
Default Encoding: Cp1252
Language: en
Country: GB
--></g></svg>