<?xml version="1.0" encoding="UTF-8" standalone="no"?><svg xmlns="http://www.w3.org/2000/svg" xmlns:xlink="http://www.w3.org/1999/xlink" contentStyleType="text/css" height="421.8px" preserveAspectRatio="none" style="width:344px;height:421px;background:#FFFFFF;" version="1.1" viewBox="0 0 344 421" width="344.4px" zoomAndPan="magnify"><defs/><g><!--MD5=[349c4a6f4567269658c2c96db8c65180]
cluster domain.model.employee--><g id="cluster_domain.model.employee"><path d="M182.7,71.4 L285.3,71.4 A2.25,2.25 0 0 1 286.8,72.9 L291,85.5656 L291.3,85.5656 A1.5,1.5 0 0 1 292.8,87.0656 L292.8,129.9 A1.5,1.5 0 0 1 291.3,131.4 L182.7,131.4 A1.5,1.5 0 0 1 181.2,129.9 L181.2,72.9 A1.5,1.5 0 0 1 182.7,71.4 " style="stroke:#000000;stroke-width:0.8999999999999999;fill:none;"/><line style="stroke:#000000;stroke-width:0.8999999999999999;fill:none;" x1="181.2" x2="291" y1="85.5656" y2="85.5656"/><text fill="#000000" font-family="sans-serif" font-size="8.4" font-weight="bold" lengthAdjust="spacing" textLength="102" x="183.6" y="81.3199">domain.model.employee</text></g><!--MD5=[03960189e81aa2c066c762ffabbee709]
class Receptionist--><g id="elem_Receptionist"><rect codeLine="7" fill="#F1F1F1" height="28.8" id="Receptionist" rx="1.5" ry="1.5" style="stroke:#181818;stroke-width:0.3;" width="66" x="204" y="93"/><ellipse cx="213" cy="102.6" fill="#ADD1B2" rx="6.6" ry="6.6" style="stroke:#181818;stroke-width:0.6;"/><path d="M214.2,100.5 Q214.3219,100.2 214.4625,100.05 Q214.6031,99.9 214.7625,99.9 Q215.0438,99.9 215.2219,100.0688 Q215.4,100.2375 215.4,100.6313 L215.4,101.5688 Q215.4,101.9625 215.2313,102.1313 Q215.0625,102.3 214.8,102.3 Q214.5656,102.3 214.4156,102.1969 Q214.2656,102.0938 214.2,101.8219 Q214.1719,101.6344 214.0688,101.5313 Q213.8813,101.3344 213.5438,101.2219 Q213.2062,101.1 212.8688,101.1 Q212.4469,101.1 212.0906,101.2688 Q211.7438,101.4375 211.4719,101.8125 Q211.2,102.1875 211.2,102.7031 L211.2,103.2563 Q211.2,103.875 211.7062,104.2875 Q212.2125,104.7 213.1125,104.7 Q213.6469,104.7 214.0219,104.5781 Q214.2375,104.5125 214.4813,104.2969 Q214.6406,104.175 214.725,104.1375 Q214.8094,104.1 214.9125,104.1 Q215.1094,104.1 215.25,104.2594 Q215.4,104.4094 215.4,104.625 Q215.4,104.8313 215.1938,105.075 Q214.8937,105.4312 214.4156,105.6281 Q213.7875,105.9 213.0187,105.9 Q212.1188,105.9 211.3969,105.5438 Q210.8156,105.2625 210.4031,104.6531 Q210,104.0438 210,103.3219 L210,102.6656 Q210,101.9156 210.3563,101.2594 Q210.7219,100.6031 211.35,100.2563 Q211.9875,99.9 212.7,99.9 Q213.1313,99.9 213.5063,100.05 Q213.8813,100.2 214.2,100.5 Z " fill="#000000"/><text fill="#000000" font-family="sans-serif" font-size="8.4" lengthAdjust="spacing" textLength="46.8" x="221.4" y="106.0371">Receptionist</text><line style="stroke:#181818;stroke-width:0.3;" x1="204.6" x2="269.4" y1="112.2" y2="112.2"/><line style="stroke:#181818;stroke-width:0.3;" x1="204.6" x2="269.4" y1="117" y2="117"/></g><!--MD5=[aaa7e27c4ec43917c82a021675d2c87a]
class WaitingRoom--><g id="elem_WaitingRoom"><rect codeLine="3" fill="#F1F1F1" height="28.8" id="WaitingRoom" rx="1.5" ry="1.5" style="stroke:#181818;stroke-width:0.3;" width="69.6" x="125.4" y="174"/><ellipse cx="134.4" cy="183.6" fill="#ADD1B2" rx="6.6" ry="6.6" style="stroke:#181818;stroke-width:0.6;"/><path d="M135.6,181.5 Q135.7219,181.2 135.8625,181.05 Q136.0031,180.9 136.1625,180.9 Q136.4438,180.9 136.6219,181.0688 Q136.8,181.2375 136.8,181.6313 L136.8,182.5688 Q136.8,182.9625 136.6313,183.1313 Q136.4625,183.3 136.2,183.3 Q135.9656,183.3 135.8156,183.1969 Q135.6656,183.0938 135.6,182.8219 Q135.5719,182.6344 135.4688,182.5313 Q135.2813,182.3344 134.9438,182.2219 Q134.6063,182.1 134.2687,182.1 Q133.8469,182.1 133.4906,182.2687 Q133.1437,182.4375 132.8719,182.8125 Q132.6,183.1875 132.6,183.7031 L132.6,184.2563 Q132.6,184.875 133.1063,185.2875 Q133.6125,185.7 134.5125,185.7 Q135.0469,185.7 135.4219,185.5781 Q135.6375,185.5125 135.8813,185.2969 Q136.0406,185.175 136.125,185.1375 Q136.2094,185.1 136.3125,185.1 Q136.5094,185.1 136.65,185.2594 Q136.8,185.4094 136.8,185.625 Q136.8,185.8312 136.5938,186.075 Q136.2938,186.4313 135.8156,186.6281 Q135.1875,186.9 134.4188,186.9 Q133.5187,186.9 132.7969,186.5438 Q132.2156,186.2625 131.8031,185.6531 Q131.4,185.0438 131.4,184.3219 L131.4,183.6656 Q131.4,182.9156 131.7563,182.2594 Q132.1219,181.6031 132.75,181.2563 Q133.3875,180.9 134.1,180.9 Q134.5313,180.9 134.9063,181.05 Q135.2813,181.2 135.6,181.5 Z " fill="#000000"/><text fill="#000000" font-family="sans-serif" font-size="8.4" lengthAdjust="spacing" textLength="50.4" x="142.8" y="187.0371">WaitingRoom</text><line style="stroke:#181818;stroke-width:0.3;" x1="126" x2="194.4" y1="193.2" y2="193.2"/><line style="stroke:#181818;stroke-width:0.3;" x1="126" x2="194.4" y1="198" y2="198"/></g><!--MD5=[5628facc55072381560df56593e20db3]
class SNSUserVaccineSchedule--><g id="elem_SNSUserVaccineSchedule"><rect codeLine="18" fill="#F1F1F1" height="81.6281" id="SNSUserVaccineSchedule" rx="1.5" ry="1.5" style="stroke:#181818;stroke-width:0.3;" width="118.2" x="183.9" y="336"/><ellipse cx="192.9" cy="345.6" fill="#ADD1B2" rx="6.6" ry="6.6" style="stroke:#181818;stroke-width:0.6;"/><path d="M194.1,343.5 Q194.2219,343.2 194.3625,343.05 Q194.5031,342.9 194.6625,342.9 Q194.9438,342.9 195.1219,343.0687 Q195.3,343.2375 195.3,343.6312 L195.3,344.5687 Q195.3,344.9625 195.1313,345.1312 Q194.9625,345.3 194.7,345.3 Q194.4656,345.3 194.3156,345.1969 Q194.1656,345.0938 194.1,344.8219 Q194.0719,344.6344 193.9688,344.5313 Q193.7813,344.3344 193.4438,344.2219 Q193.1063,344.1 192.7687,344.1 Q192.3469,344.1 191.9906,344.2688 Q191.6437,344.4375 191.3719,344.8125 Q191.1,345.1875 191.1,345.7031 L191.1,346.2562 Q191.1,346.875 191.6063,347.2875 Q192.1125,347.7 193.0125,347.7 Q193.5469,347.7 193.9219,347.5781 Q194.1375,347.5125 194.3813,347.2969 Q194.5406,347.175 194.625,347.1375 Q194.7094,347.1 194.8125,347.1 Q195.0094,347.1 195.15,347.2594 Q195.3,347.4094 195.3,347.625 Q195.3,347.8313 195.0938,348.075 Q194.7938,348.4313 194.3156,348.6281 Q193.6875,348.9 192.9188,348.9 Q192.0187,348.9 191.2969,348.5438 Q190.7156,348.2625 190.3031,347.6531 Q189.9,347.0438 189.9,346.3219 L189.9,345.6656 Q189.9,344.9156 190.2563,344.2594 Q190.6219,343.6031 191.25,343.2562 Q191.8875,342.9 192.6,342.9 Q193.0313,342.9 193.4063,343.05 Q193.7813,343.2 194.1,343.5 Z " fill="#000000"/><text fill="#000000" font-family="sans-serif" font-size="8.4" lengthAdjust="spacing" textLength="99" x="201.3" y="349.0371">SNSUserVaccineSchedule</text><line style="stroke:#181818;stroke-width:0.3;" x1="184.5" x2="301.5" y1="355.2" y2="355.2"/><rect fill="none" height="3.6" style="stroke:#C82930;stroke-width:0.6;" width="3.6" x="188.7" y="360"/><text fill="#000000" font-family="sans-serif" font-size="8.4" lengthAdjust="spacing" textLength="47.4" x="195.9" y="366.3199">SNS number</text><rect fill="none" height="3.6" style="stroke:#C82930;stroke-width:0.6;" width="3.6" x="188.7" y="370.5656"/><text fill="#000000" font-family="sans-serif" font-size="8.4" lengthAdjust="spacing" textLength="72" x="195.9" y="376.8855">Vaccination Center</text><rect fill="none" height="3.6" style="stroke:#C82930;stroke-width:0.6;" width="3.6" x="188.7" y="381.1312"/><text fill="#000000" font-family="sans-serif" font-size="8.4" lengthAdjust="spacing" textLength="51.6" x="195.9" y="387.4512">Vaccine Type</text><rect fill="none" height="3.6" style="stroke:#C82930;stroke-width:0.6;" width="3.6" x="188.7" y="391.6969"/><text fill="#000000" font-family="sans-serif" font-size="8.4" lengthAdjust="spacing" textLength="15" x="195.9" y="398.0168">Day</text><rect fill="none" height="3.6" style="stroke:#C82930;stroke-width:0.6;" width="3.6" x="188.7" y="402.2625"/><text fill="#000000" font-family="sans-serif" font-size="8.4" lengthAdjust="spacing" textLength="18" x="195.9" y="408.5824">Hour</text><line style="stroke:#181818;stroke-width:0.3;" x1="184.5" x2="301.5" y1="412.8281" y2="412.8281"/></g><!--MD5=[72be06cc7ae02ccc98efe28a50e62246]
class SNSUser--><g id="elem_SNSUser"><rect codeLine="11" fill="#F1F1F1" height="39.3656" id="SNSUser" rx="1.5" ry="1.5" style="stroke:#181818;stroke-width:0.3;" width="63" x="128.7" y="249.6"/><ellipse cx="142.29" cy="259.2" fill="#ADD1B2" rx="6.6" ry="6.6" style="stroke:#181818;stroke-width:0.6;"/><path d="M143.49,257.1 Q143.6119,256.8 143.7525,256.65 Q143.8931,256.5 144.0525,256.5 Q144.3338,256.5 144.5119,256.6688 Q144.69,256.8375 144.69,257.2313 L144.69,258.1688 Q144.69,258.5625 144.5213,258.7313 Q144.3525,258.9 144.09,258.9 Q143.8556,258.9 143.7056,258.7969 Q143.5556,258.6937 143.49,258.4219 Q143.4619,258.2344 143.3588,258.1312 Q143.1713,257.9344 142.8338,257.8219 Q142.4963,257.7 142.1588,257.7 Q141.7369,257.7 141.3806,257.8688 Q141.0338,258.0375 140.7619,258.4125 Q140.49,258.7875 140.49,259.3031 L140.49,259.8563 Q140.49,260.475 140.9963,260.8875 Q141.5025,261.3 142.4025,261.3 Q142.9369,261.3 143.3119,261.1781 Q143.5275,261.1125 143.7713,260.8969 Q143.9306,260.775 144.015,260.7375 Q144.0994,260.7 144.2025,260.7 Q144.3994,260.7 144.54,260.8594 Q144.69,261.0094 144.69,261.225 Q144.69,261.4313 144.4838,261.675 Q144.1838,262.0313 143.7056,262.2281 Q143.0775,262.5 142.3088,262.5 Q141.4088,262.5 140.6869,262.1438 Q140.1056,261.8625 139.6931,261.2531 Q139.29,260.6438 139.29,259.9219 L139.29,259.2656 Q139.29,258.5156 139.6463,257.8594 Q140.0119,257.2031 140.64,256.8563 Q141.2775,256.5 141.99,256.5 Q142.4213,256.5 142.7963,256.65 Q143.1713,256.8 143.49,257.1 Z " fill="#000000"/><text fill="#000000" font-family="sans-serif" font-size="8.4" lengthAdjust="spacing" textLength="33.6" x="151.71" y="262.6371">SNSUser</text><line style="stroke:#181818;stroke-width:0.3;" x1="129.3" x2="191.1" y1="268.8" y2="268.8"/><rect fill="none" height="3.6" style="stroke:#C82930;stroke-width:0.6;" width="3.6" x="133.5" y="273.6"/><text fill="#000000" font-family="sans-serif" font-size="8.4" lengthAdjust="spacing" textLength="47.4" x="140.7" y="279.9199">SNS number</text><line style="stroke:#181818;stroke-width:0.3;" x1="129.3" x2="191.1" y1="284.1656" y2="284.1656"/></g><!--MD5=[02e4b9b7573f1156f41e60aa5b4e25a4]
class Company--><g id="elem_Company"><rect codeLine="15" fill="#F1F1F1" height="28.8" id="Company" rx="1.5" ry="1.5" style="stroke:#181818;stroke-width:0.3;" width="55.2" x="4.2" y="4.2"/><ellipse cx="13.2" cy="13.8" fill="#ADD1B2" rx="6.6" ry="6.6" style="stroke:#181818;stroke-width:0.6;"/><path d="M14.4,11.7 Q14.5219,11.4 14.6625,11.25 Q14.8031,11.1 14.9625,11.1 Q15.2437,11.1 15.4219,11.2687 Q15.6,11.4375 15.6,11.8312 L15.6,12.7687 Q15.6,13.1625 15.4312,13.3312 Q15.2625,13.5 15,13.5 Q14.7656,13.5 14.6156,13.3969 Q14.4656,13.2938 14.4,13.0219 Q14.3719,12.8344 14.2687,12.7313 Q14.0812,12.5344 13.7438,12.4219 Q13.4063,12.3 13.0688,12.3 Q12.6469,12.3 12.2906,12.4688 Q11.9438,12.6375 11.6719,13.0125 Q11.4,13.3875 11.4,13.9031 L11.4,14.4562 Q11.4,15.075 11.9063,15.4875 Q12.4125,15.9 13.3125,15.9 Q13.8469,15.9 14.2219,15.7781 Q14.4375,15.7125 14.6812,15.4969 Q14.8406,15.375 14.925,15.3375 Q15.0094,15.3 15.1125,15.3 Q15.3094,15.3 15.45,15.4594 Q15.6,15.6094 15.6,15.825 Q15.6,16.0313 15.3937,16.275 Q15.0938,16.6312 14.6156,16.8281 Q13.9875,17.1 13.2188,17.1 Q12.3188,17.1 11.5969,16.7438 Q11.0156,16.4625 10.6031,15.8531 Q10.2,15.2437 10.2,14.5219 L10.2,13.8656 Q10.2,13.1156 10.5563,12.4594 Q10.9219,11.8031 11.55,11.4562 Q12.1875,11.1 12.9,11.1 Q13.3312,11.1 13.7062,11.25 Q14.0812,11.4 14.4,11.7 Z " fill="#000000"/><text fill="#000000" font-family="sans-serif" font-size="8.4" lengthAdjust="spacing" textLength="36" x="21.6" y="17.2371">Company</text><line style="stroke:#181818;stroke-width:0.3;" x1="4.8" x2="58.8" y1="23.4" y2="23.4"/><line style="stroke:#181818;stroke-width:0.3;" x1="4.8" x2="58.8" y1="28.2" y2="28.2"/></g><!--MD5=[de60e6d4f424ae4d0522096f76a59010]
class VaccinationCenter--><g id="elem_VaccinationCenter"><rect codeLine="26" fill="#F1F1F1" height="39.3656" id="VaccinationCenter" rx="1.5" ry="1.5" style="stroke:#181818;stroke-width:0.3;" width="88.8" x="46.2" y="87.6"/><ellipse cx="55.2" cy="97.2" fill="#A9DCDF" rx="6.6" ry="6.6" style="stroke:#181818;stroke-width:0.6;"/><path d="M56.25,98.1 L54.2719,98.1 L54.0094,98.7 L54.0094,98.7 L54.2906,98.7 L54.6,99.075 L54.6,99.3 L54.6,99.525 L54.2906,99.9 L54.0094,99.9 L52.875,99.9 L52.5094,99.9 L52.2,99.525 L52.2,99.3 L52.2,99.075 L52.5094,98.7 L52.875,98.7 L54.2625,95.1 L53.7375,95.1 L53.1094,95.1 L52.8,94.725 L52.8,94.5 L52.8,94.275 L53.1094,93.9 L53.7375,93.9 L55.9406,93.9 L57.5531,98.7 L57.8906,98.7 L57.8906,98.7 L58.2,99.075 L58.2,99.3 L58.2,99.525 L57.8906,99.9 L57.5531,99.9 L56.4187,99.9 L56.1094,99.9 L55.8,99.525 L55.8,99.3 L55.8,99.075 L56.1094,98.7 L56.4187,98.7 L56.4187,98.7 L56.25,98.1 Z M55.9219,96.9 L55.2,94.7531 L54.5813,96.9 L55.9219,96.9 Z " fill="#000000"/><text fill="#000000" font-family="sans-serif" font-size="8.4" font-style="italic" lengthAdjust="spacing" textLength="69.6" x="63.6" y="100.6371">VaccinationCenter</text><line style="stroke:#181818;stroke-width:0.3;" x1="46.8" x2="134.4" y1="106.8" y2="106.8"/><rect fill="none" height="3.6" style="stroke:#C82930;stroke-width:0.6;" width="3.6" x="51" y="111.6"/><text fill="#000000" font-family="sans-serif" font-size="8.4" lengthAdjust="spacing" textLength="21" x="58.2" y="117.9199">name</text><line style="stroke:#181818;stroke-width:0.3;" x1="46.8" x2="134.4" y1="122.1656" y2="122.1656"/></g><!--MD5=[e743d00b3d1bf5f0416ce45fd0b78530]
link Receptionist to SNSUserVaccineSchedule--><g id="link_Receptionist_SNSUserVaccineSchedule"><path codeLine="31" d="M249.306,122.016 C259.506,134.628 273.228,154.182 279,174 C295.026,229.032 276.732,294.678 260.898,335.91 " fill="none" id="Receptionist-SNSUserVaccineSchedule" style="stroke:#181818;stroke-width:0.6;"/><polygon fill="#000000" points="288.1623,229.3011,289.6294,223.7865,286.1079,223.9774,288.1623,229.3011" style="stroke:#000000;stroke-width:0.6;"/><text fill="#000000" font-family="sans-serif" font-size="7.8" lengthAdjust="spacing" textLength="46.2" x="293.4" y="229.4971">can schedule</text><text fill="#000000" font-family="sans-serif" font-size="7.8" lengthAdjust="spacing" textLength="12" x="238.7643" y="134.6274">1..*</text><text fill="#000000" font-family="sans-serif" font-size="7.8" lengthAdjust="spacing" textLength="12" x="250.1993" y="329.4197">1..*</text></g><!--MD5=[7690a4971bd8576b261a40a0340b8203]
link Receptionist to SNSUser--><g id="link_Receptionist_SNSUser"><path codeLine="32" d="M233.55,121.974 C231.072,131.61 227.526,144.672 223.8,156 C216.834,177.168 216.21,183.096 205.8,202.8 C197.082,219.3 184.998,236.61 175.458,249.36 " fill="none" id="Receptionist-SNSUser" style="stroke:#181818;stroke-width:0.6;"/><polygon fill="#000000" points="219.5552,191.235,223.4114,187.0289,220.2026,185.5655,219.5552,191.235" style="stroke:#000000;stroke-width:0.6;"/><text fill="#000000" font-family="sans-serif" font-size="7.8" lengthAdjust="spacing" textLength="47.4" x="226.2" y="191.6971">checks arrival</text><text fill="#000000" font-family="sans-serif" font-size="7.8" lengthAdjust="spacing" textLength="12" x="219.3647" y="134.5757">1..*</text><text fill="#000000" font-family="sans-serif" font-size="7.8" lengthAdjust="spacing" textLength="12" x="165.2807" y="243.0105">1..*</text></g><!--MD5=[120e6d7c8a557e6251338e72fb523695]
link Receptionist to WaitingRoom--><g id="link_Receptionist_WaitingRoom"><path codeLine="33" d="M203.934,114.402 C186.678,119.604 167.034,128.874 156.6,145.2 C151.206,153.642 152.502,165.03 154.932,173.904 " fill="none" id="Receptionist-WaitingRoom" style="stroke:#181818;stroke-width:0.6;"/><polygon fill="#000000" points="157.6929,153.0213,162.5041,149.9529,159.7817,147.711,157.6929,153.0213" style="stroke:#000000;stroke-width:0.6;"/><text fill="#000000" font-family="sans-serif" font-size="7.8" lengthAdjust="spacing" textLength="55.8" x="165" y="153.8971">sends patient to</text><text fill="#000000" font-family="sans-serif" font-size="7.8" lengthAdjust="spacing" textLength="12" x="187.1728" y="113.1803">1..*</text><text fill="#000000" font-family="sans-serif" font-size="7.8" lengthAdjust="spacing" textLength="12" x="140.0446" y="167.4835">1..*</text></g><!--MD5=[365ff630f9f838a80248091f1b038ffe]
link VaccinationCenter to SNSUser--><g id="link_VaccinationCenter_SNSUser"><path codeLine="35" d="M81.768,127.332 C74.052,147.222 65.754,178.62 77.4,202.8 C88.008,224.826 109.944,241.782 128.574,252.99 " fill="none" id="VaccinationCenter-SNSUser" style="stroke:#181818;stroke-width:0.6;"/><polygon fill="#000000" points="81.4472,191.3168,81.2053,185.6156,77.9004,186.8466,81.4472,191.3168" style="stroke:#000000;stroke-width:0.6;"/><text fill="#000000" font-family="sans-serif" font-size="7.8" lengthAdjust="spacing" textLength="28.2" x="85.8" y="191.6971">recieves</text><text fill="#000000" font-family="sans-serif" font-size="7.8" lengthAdjust="spacing" textLength="12" x="67.126" y="139.8741">1..*</text><text fill="#000000" font-family="sans-serif" font-size="7.8" lengthAdjust="spacing" textLength="12" x="111.9883" y="248.9292">1..*</text></g><!--MD5=[de78e1efbcb885042a1719c3cec87a53]
link VaccinationCenter to WaitingRoom--><g id="link_VaccinationCenter_WaitingRoom"><path codeLine="36" d="M95.832,127.206 C99.084,136.62 104.004,147.684 111,156 C116.892,163.002 124.722,169.014 132.402,173.862 " fill="none" id="VaccinationCenter-WaitingRoom" style="stroke:#181818;stroke-width:0.6;"/><polygon fill="#000000" points="115.8507,153.0666,113.8906,147.7075,111.1149,149.8831,115.8507,153.0666" style="stroke:#000000;stroke-width:0.6;"/><text fill="#000000" font-family="sans-serif" font-size="7.8" lengthAdjust="spacing" textLength="12.6" x="119.4" y="153.8971">has</text><text fill="#000000" font-family="sans-serif" font-size="7.8" lengthAdjust="spacing" textLength="12" x="83.6904" y="139.8809">1..*</text><text fill="#000000" font-family="sans-serif" font-size="7.8" lengthAdjust="spacing" textLength="12" x="111.7413" y="167.4307">1..*</text></g><!--MD5=[eebe9b198877275d05dd12630ed9e401]
link Company to VaccinationCenter--><g id="link_Company_VaccinationCenter"><path codeLine="38" d="M41.118,33.078 C50.964,47.748 66.558,70.986 77.61,87.45 " fill="none" id="Company-VaccinationCenter" style="stroke:#181818;stroke-width:0.6;"/><polygon fill="#000000" points="64.6718,58.9964,63.1116,53.5075,60.1833,55.4729,64.6718,58.9964" style="stroke:#000000;stroke-width:0.6;"/><text fill="#000000" font-family="sans-serif" font-size="7.8" lengthAdjust="spacing" textLength="12.6" x="68.4" y="59.6971">has</text><text fill="#000000" font-family="sans-serif" font-size="7.8" lengthAdjust="spacing" textLength="4.2" x="38.6774" y="45.8998">1</text><text fill="#000000" font-family="sans-serif" font-size="7.8" lengthAdjust="spacing" textLength="12" x="61.8713" y="81.1182">1..*</text></g><!--MD5=[1a8aa2b864b87f860d28abceaa28b7a5]
link Company to SNSUser--><g id="link_Company_SNSUser"><path codeLine="39" d="M30.402,33.138 C28.578,55.32 26.58,99.864 35.4,136.2 C43.134,168.078 51.414,174.048 67.2,202.8 C74.466,216.03 74.016,221.466 85.2,231.6 C97.692,242.922 114.264,251.622 128.652,257.748 " fill="none" id="Company-SNSUser" style="stroke:#181818;stroke-width:0.6;"/><polygon fill="#000000" points="45.6023,153.454,45.0429,147.7752,41.8118,149.1885,45.6023,153.454" style="stroke:#000000;stroke-width:0.6;"/><text fill="#000000" font-family="sans-serif" font-size="7.8" lengthAdjust="spacing" textLength="12.6" x="49.8" y="153.8971">has</text><text fill="#000000" font-family="sans-serif" font-size="7.8" lengthAdjust="spacing" textLength="4.2" x="25.3494" y="45.9744">1</text><text fill="#000000" font-family="sans-serif" font-size="7.8" lengthAdjust="spacing" textLength="3" x="120.7981" y="264.8714">*</text></g><!--MD5=[0c362e058b245eb7048c06c3315de318]
link SNSUser to SNSUserVaccineSchedule--><g id="link_SNSUser_SNSUserVaccineSchedule"><path codeLine="41" d="M175.194,289.23 C185.352,302.262 199.152,319.962 211.656,335.994 " fill="none" id="SNSUser-SNSUserVaccineSchedule" style="stroke:#181818;stroke-width:0.6;"/><polygon fill="#000000" points="201.0447,315.0713,199.0983,309.7072,196.317,311.8757,201.0447,315.0713" style="stroke:#000000;stroke-width:0.6;"/><text fill="#000000" font-family="sans-serif" font-size="7.8" lengthAdjust="spacing" textLength="42" x="204.6" y="315.8971">can shedule</text><text fill="#000000" font-family="sans-serif" font-size="7.8" lengthAdjust="spacing" textLength="12" x="164.8523" y="301.9093">1..*</text><text fill="#000000" font-family="sans-serif" font-size="7.8" lengthAdjust="spacing" textLength="12" x="195.5715" y="329.5129">1..*</text></g><!--MD5=[1dfd2b8cef5257ed6efd914f274c3279]
link WaitingRoom to SNSUser--><g id="link_WaitingRoom_SNSUser"><path codeLine="43" d="M160.2,202.902 C160.2,215.76 160.2,235.002 160.2,249.378 " fill="none" id="WaitingRoom-SNSUser" style="stroke:#181818;stroke-width:0.6;"/><polygon fill="#000000" points="163.2,229.3055,164.9634,223.8784,161.4366,223.8784,163.2,229.3055" style="stroke:#000000;stroke-width:0.6;"/><text fill="#000000" font-family="sans-serif" font-size="7.8" lengthAdjust="spacing" textLength="8.4" x="168.6" y="229.4971">for</text><text fill="#000000" font-family="sans-serif" font-size="7.8" lengthAdjust="spacing" textLength="12" x="146.7375" y="215.7296">1..*</text><text fill="#000000" font-family="sans-serif" font-size="7.8" lengthAdjust="spacing" textLength="12" x="147.0187" y="243.0321">1..*</text></g><!--MD5=[3619585e47d88c4cd718d529f0e242e0]
@startuml

'class enumeration
class WaitingRoom
class SNSUserVaccineSchedule

package domain.model.employee {
class Receptionist
}

'class componets
class SNSUser {
-SNS number
}

class Company {
}

class SNSUserVaccineSchedule {
- SNS number
- Vaccination Center
- Vaccine Type
- Day
- Hour
}

abstract VaccinationCenter {
-name
}
'class relation

Receptionist "1..*" - - "1..*" SNSUserVaccineSchedule : can schedule >
Receptionist "1..*" - - "1..*" SNSUser : checks arrival >
Receptionist "1..*" - - "1..*" WaitingRoom : sends patient to >

VaccinationCenter "1..*" - - "1..*" SNSUser : recieves >
VaccinationCenter "1..*" - - "1..*" WaitingRoom : has >

Company "1" - - "1..*" VaccinationCenter : has >
Company "1" - - "*" SNSUser : has >

SNSUser "1..*" - - "1..*" SNSUserVaccineSchedule : can shedule >

WaitingRoom "1..*" - - "1..*" SNSUser : for >

@enduml

@startuml

class WaitingRoom
class SNSUserVaccineSchedule

package domain.model.employee {
class Receptionist
}

class SNSUser {
-SNS number
}

class Company {
}

class SNSUserVaccineSchedule {
- SNS number
- Vaccination Center
- Vaccine Type
- Day
- Hour
}

abstract VaccinationCenter {
-name
}

Receptionist "1..*" - - "1..*" SNSUserVaccineSchedule : can schedule >
Receptionist "1..*" - - "1..*" SNSUser : checks arrival >
Receptionist "1..*" - - "1..*" WaitingRoom : sends patient to >

VaccinationCenter "1..*" - - "1..*" SNSUser : recieves >
VaccinationCenter "1..*" - - "1..*" WaitingRoom : has >

Company "1" - - "1..*" VaccinationCenter : has >
Company "1" - - "*" SNSUser : has >

SNSUser "1..*" - - "1..*" SNSUserVaccineSchedule : can shedule >

WaitingRoom "1..*" - - "1..*" SNSUser : for >

@enduml

PlantUML version 1.2022.5(Sat Apr 30 11:55:52 BST 2022)
(GPL source distribution)
Java Runtime: OpenJDK Runtime Environment
JVM: OpenJDK 64-Bit Server VM
Default Encoding: Cp1252
Language: pt
Country: PT
--></g></svg>