<?xml version="1.0" encoding="UTF-8" standalone="no"?><svg xmlns="http://www.w3.org/2000/svg" xmlns:xlink="http://www.w3.org/1999/xlink" contentStyleType="text/css" height="1074px" preserveAspectRatio="none" style="width:1406px;height:1074px;background:#FFFFFF;" version="1.1" viewBox="0 0 1406 1074" width="1406px" zoomAndPan="magnify"><defs/><g><!--MD5=[02e4b9b7573f1156f41e60aa5b4e25a4]
class Company--><g id="elem_Company"><rect codeLine="43" fill="#F1F1F1" height="65.6094" id="Company" rx="2.5" ry="2.5" style="stroke:#181818;stroke-width:0.5;" width="92" x="392.7777" y="133"/><ellipse cx="407.7777" cy="149" fill="#ADD1B2" rx="11" ry="11" style="stroke:#181818;stroke-width:1.0;"/><path d="M409.7777,145.5 Q409.9809,145 410.2152,144.75 Q410.4496,144.5 410.7152,144.5 Q411.184,144.5 411.4809,144.7813 Q411.7777,145.0625 411.7777,145.7188 L411.7777,147.2813 Q411.7777,147.9375 411.4965,148.2188 Q411.2152,148.5 410.7777,148.5 Q410.3871,148.5 410.1371,148.3281 Q409.8871,148.1563 409.7777,147.7031 Q409.7309,147.3906 409.559,147.2188 Q409.2465,146.8906 408.684,146.7031 Q408.1215,146.5 407.559,146.5 Q406.8559,146.5 406.2621,146.7813 Q405.684,147.0625 405.2309,147.6875 Q404.7777,148.3125 404.7777,149.1719 L404.7777,150.0938 Q404.7777,151.125 405.6215,151.8125 Q406.4652,152.5 407.9652,152.5 Q408.8559,152.5 409.4809,152.2969 Q409.8402,152.1875 410.2465,151.8281 Q410.5121,151.625 410.6527,151.5625 Q410.7934,151.5 410.9652,151.5 Q411.2934,151.5 411.5277,151.7656 Q411.7777,152.0156 411.7777,152.375 Q411.7777,152.7188 411.434,153.125 Q410.934,153.7188 410.1371,154.0469 Q409.0902,154.5 407.809,154.5 Q406.309,154.5 405.1059,153.9063 Q404.1371,153.4375 403.4496,152.4219 Q402.7777,151.4063 402.7777,150.2031 L402.7777,149.1094 Q402.7777,147.8594 403.3715,146.7656 Q403.9809,145.6719 405.0277,145.0938 Q406.0902,144.5 407.2777,144.5 Q407.9965,144.5 408.6215,144.75 Q409.2465,145 409.7777,145.5 Z " fill="#000000"/><text fill="#000000" font-family="sans-serif" font-size="14" lengthAdjust="spacing" textLength="60" x="421.7777" y="154.7285">Company</text><line style="stroke:#181818;stroke-width:0.5;" x1="393.7777" x2="483.7777" y1="165" y2="165"/><rect fill="none" height="6" style="stroke:#C82930;stroke-width:1.0;" width="6" x="400.7777" y="173"/><text fill="#000000" font-family="sans-serif" font-size="14" lengthAdjust="spacing" textLength="35" x="412.7777" y="183.5332">name</text><line style="stroke:#181818;stroke-width:0.5;" x1="393.7777" x2="483.7777" y1="190.6094" y2="190.6094"/></g><!--MD5=[aaa7e27c4ec43917c82a021675d2c87a]
class WaitingRoom--><g id="elem_WaitingRoom"><rect codeLine="4" fill="#F1F1F1" height="48" id="WaitingRoom" rx="2.5" ry="2.5" style="stroke:#181818;stroke-width:0.5;" width="116" x="1147.7777" y="565"/><ellipse cx="1162.7777" cy="581" fill="#ADD1B2" rx="11" ry="11" style="stroke:#181818;stroke-width:1.0;"/><path d="M1164.7777,577.5 Q1164.9809,577 1165.2152,576.75 Q1165.4496,576.5 1165.7152,576.5 Q1166.184,576.5 1166.4809,576.7813 Q1166.7777,577.0625 1166.7777,577.7188 L1166.7777,579.2813 Q1166.7777,579.9375 1166.4965,580.2188 Q1166.2152,580.5 1165.7777,580.5 Q1165.3871,580.5 1165.1371,580.3281 Q1164.8871,580.1563 1164.7777,579.7031 Q1164.7309,579.3906 1164.559,579.2188 Q1164.2465,578.8906 1163.684,578.7031 Q1163.1215,578.5 1162.559,578.5 Q1161.8559,578.5 1161.2621,578.7813 Q1160.684,579.0625 1160.2309,579.6875 Q1159.7777,580.3125 1159.7777,581.1719 L1159.7777,582.0938 Q1159.7777,583.125 1160.6215,583.8125 Q1161.4652,584.5 1162.9652,584.5 Q1163.8559,584.5 1164.4809,584.2969 Q1164.8402,584.1875 1165.2465,583.8281 Q1165.5121,583.625 1165.6527,583.5625 Q1165.7934,583.5 1165.9652,583.5 Q1166.2934,583.5 1166.5277,583.7656 Q1166.7777,584.0156 1166.7777,584.375 Q1166.7777,584.7188 1166.434,585.125 Q1165.934,585.7188 1165.1371,586.0469 Q1164.0902,586.5 1162.809,586.5 Q1161.309,586.5 1160.1059,585.9063 Q1159.1371,585.4375 1158.4496,584.4219 Q1157.7777,583.4063 1157.7777,582.2031 L1157.7777,581.1094 Q1157.7777,579.8594 1158.3715,578.7656 Q1158.9809,577.6719 1160.0277,577.0938 Q1161.0902,576.5 1162.2777,576.5 Q1162.9965,576.5 1163.6215,576.75 Q1164.2465,577 1164.7777,577.5 Z " fill="#000000"/><text fill="#000000" font-family="sans-serif" font-size="14" lengthAdjust="spacing" textLength="84" x="1176.7777" y="586.7285">WaitingRoom</text><line style="stroke:#181818;stroke-width:0.5;" x1="1148.7777" x2="1262.7777" y1="597" y2="597"/><line style="stroke:#181818;stroke-width:0.5;" x1="1148.7777" x2="1262.7777" y1="605" y2="605"/></g><!--MD5=[f24502e7c9b1056c4d1f73c3d80dda4c]
class RecoveryRoom--><g id="elem_RecoveryRoom"><rect codeLine="5" fill="#F1F1F1" height="48" id="RecoveryRoom" rx="2.5" ry="2.5" style="stroke:#181818;stroke-width:0.5;" width="129" x="453.2777" y="565"/><ellipse cx="468.2777" cy="581" fill="#ADD1B2" rx="11" ry="11" style="stroke:#181818;stroke-width:1.0;"/><path d="M470.2777,577.5 Q470.4809,577 470.7152,576.75 Q470.9496,576.5 471.2152,576.5 Q471.684,576.5 471.9809,576.7813 Q472.2777,577.0625 472.2777,577.7188 L472.2777,579.2813 Q472.2777,579.9375 471.9965,580.2188 Q471.7152,580.5 471.2777,580.5 Q470.8871,580.5 470.6371,580.3281 Q470.3871,580.1563 470.2777,579.7031 Q470.2309,579.3906 470.059,579.2188 Q469.7465,578.8906 469.184,578.7031 Q468.6215,578.5 468.059,578.5 Q467.3559,578.5 466.7621,578.7813 Q466.184,579.0625 465.7309,579.6875 Q465.2777,580.3125 465.2777,581.1719 L465.2777,582.0938 Q465.2777,583.125 466.1215,583.8125 Q466.9652,584.5 468.4652,584.5 Q469.3559,584.5 469.9809,584.2969 Q470.3402,584.1875 470.7465,583.8281 Q471.0121,583.625 471.1527,583.5625 Q471.2934,583.5 471.4652,583.5 Q471.7934,583.5 472.0277,583.7656 Q472.2777,584.0156 472.2777,584.375 Q472.2777,584.7188 471.934,585.125 Q471.434,585.7188 470.6371,586.0469 Q469.5902,586.5 468.309,586.5 Q466.809,586.5 465.6059,585.9063 Q464.6371,585.4375 463.9496,584.4219 Q463.2777,583.4063 463.2777,582.2031 L463.2777,581.1094 Q463.2777,579.8594 463.8715,578.7656 Q464.4809,577.6719 465.5277,577.0938 Q466.5902,576.5 467.7777,576.5 Q468.4965,576.5 469.1215,576.75 Q469.7465,577 470.2777,577.5 Z " fill="#000000"/><text fill="#000000" font-family="sans-serif" font-size="14" lengthAdjust="spacing" textLength="97" x="482.2777" y="586.7285">RecoveryRoom</text><line style="stroke:#181818;stroke-width:0.5;" x1="454.2777" x2="581.2777" y1="597" y2="597"/><line style="stroke:#181818;stroke-width:0.5;" x1="454.2777" x2="581.2777" y1="605" y2="605"/></g><!--MD5=[19e445fc4d3b48519cbe33da05496394]
class Vaccine--><g id="elem_Vaccine"><rect codeLine="33" fill="#F1F1F1" height="171.2656" id="Vaccine" rx="2.5" ry="2.5" style="stroke:#181818;stroke-width:0.5;" width="362" x="36.7777" y="355"/><ellipse cx="188.5277" cy="371" fill="#ADD1B2" rx="11" ry="11" style="stroke:#181818;stroke-width:1.0;"/><path d="M190.5277,367.5 Q190.7309,367 190.9652,366.75 Q191.1996,366.5 191.4652,366.5 Q191.934,366.5 192.2309,366.7813 Q192.5277,367.0625 192.5277,367.7188 L192.5277,369.2813 Q192.5277,369.9375 192.2465,370.2188 Q191.9652,370.5 191.5277,370.5 Q191.1371,370.5 190.8871,370.3281 Q190.6371,370.1563 190.5277,369.7031 Q190.4809,369.3906 190.309,369.2188 Q189.9965,368.8906 189.434,368.7031 Q188.8715,368.5 188.309,368.5 Q187.6059,368.5 187.0121,368.7813 Q186.434,369.0625 185.9809,369.6875 Q185.5277,370.3125 185.5277,371.1719 L185.5277,372.0938 Q185.5277,373.125 186.3715,373.8125 Q187.2152,374.5 188.7152,374.5 Q189.6059,374.5 190.2309,374.2969 Q190.5902,374.1875 190.9965,373.8281 Q191.2621,373.625 191.4027,373.5625 Q191.5434,373.5 191.7152,373.5 Q192.0434,373.5 192.2777,373.7656 Q192.5277,374.0156 192.5277,374.375 Q192.5277,374.7188 192.184,375.125 Q191.684,375.7188 190.8871,376.0469 Q189.8402,376.5 188.559,376.5 Q187.059,376.5 185.8559,375.9063 Q184.8871,375.4375 184.1996,374.4219 Q183.5277,373.4063 183.5277,372.2031 L183.5277,371.1094 Q183.5277,369.8594 184.1215,368.7656 Q184.7309,367.6719 185.7777,367.0938 Q186.8402,366.5 188.0277,366.5 Q188.7465,366.5 189.3715,366.75 Q189.9965,367 190.5277,367.5 Z " fill="#000000"/><text fill="#000000" font-family="sans-serif" font-size="14" lengthAdjust="spacing" textLength="50" x="209.0277" y="376.7285">Vaccine</text><line style="stroke:#181818;stroke-width:0.5;" x1="37.7777" x2="397.7777" y1="387" y2="387"/><rect fill="none" height="6" style="stroke:#C82930;stroke-width:1.0;" width="6" x="44.7777" y="395"/><text fill="#000000" font-family="sans-serif" font-size="14" lengthAdjust="spacing" textLength="35" x="56.7777" y="405.5332">name</text><rect fill="none" height="6" style="stroke:#C82930;stroke-width:1.0;" width="6" x="44.7777" y="412.6094"/><text fill="#000000" font-family="sans-serif" font-size="14" lengthAdjust="spacing" textLength="37" x="56.7777" y="423.1426">brand</text><rect fill="none" height="6" style="stroke:#C82930;stroke-width:1.0;" width="6" x="44.7777" y="430.2188"/><text fill="#000000" font-family="sans-serif" font-size="14" lengthAdjust="spacing" textLength="27" x="56.7777" y="440.752">type</text><rect fill="none" height="6" style="stroke:#C82930;stroke-width:1.0;" width="6" x="44.7777" y="447.8281"/><text fill="#000000" font-family="sans-serif" font-size="14" lengthAdjust="spacing" textLength="72" x="56.7777" y="458.3613">age groups</text><rect fill="none" height="6" style="stroke:#C82930;stroke-width:1.0;" width="6" x="44.7777" y="465.4375"/><text fill="#000000" font-family="sans-serif" font-size="14" lengthAdjust="spacing" textLength="149" x="56.7777" y="475.9707">vaccines per age group</text><rect fill="none" height="6" style="stroke:#C82930;stroke-width:1.0;" width="6" x="44.7777" y="483.0469"/><text fill="#000000" font-family="sans-serif" font-size="14" lengthAdjust="spacing" textLength="47" x="56.7777" y="493.5801">dosage</text><rect fill="none" height="6" style="stroke:#C82930;stroke-width:1.0;" width="6" x="44.7777" y="500.6563"/><text fill="#000000" font-family="sans-serif" font-size="14" lengthAdjust="spacing" textLength="336" x="56.7777" y="511.1895">time interval regarding previous vaccine administered</text><line style="stroke:#181818;stroke-width:0.5;" x1="37.7777" x2="397.7777" y1="518.2656" y2="518.2656"/></g><!--MD5=[0e501da62322464167c8ec4d233a6b7e]
class VaccineType--><g id="elem_VaccineType"><rect codeLine="47" fill="#F1F1F1" height="100.8281" id="VaccineType" rx="2.5" ry="2.5" style="stroke:#181818;stroke-width:0.5;" width="114" x="359.7777" y="967"/><ellipse cx="374.7777" cy="983" fill="#ADD1B2" rx="11" ry="11" style="stroke:#181818;stroke-width:1.0;"/><path d="M376.7777,979.5 Q376.9809,979 377.2152,978.75 Q377.4496,978.5 377.7152,978.5 Q378.184,978.5 378.4809,978.7813 Q378.7777,979.0625 378.7777,979.7188 L378.7777,981.2813 Q378.7777,981.9375 378.4965,982.2188 Q378.2152,982.5 377.7777,982.5 Q377.3871,982.5 377.1371,982.3281 Q376.8871,982.1563 376.7777,981.7031 Q376.7309,981.3906 376.559,981.2188 Q376.2465,980.8906 375.684,980.7031 Q375.1215,980.5 374.559,980.5 Q373.8559,980.5 373.2621,980.7813 Q372.684,981.0625 372.2309,981.6875 Q371.7777,982.3125 371.7777,983.1719 L371.7777,984.0938 Q371.7777,985.125 372.6215,985.8125 Q373.4652,986.5 374.9652,986.5 Q375.8559,986.5 376.4809,986.2969 Q376.8402,986.1875 377.2465,985.8281 Q377.5121,985.625 377.6527,985.5625 Q377.7934,985.5 377.9652,985.5 Q378.2934,985.5 378.5277,985.7656 Q378.7777,986.0156 378.7777,986.375 Q378.7777,986.7188 378.434,987.125 Q377.934,987.7188 377.1371,988.0469 Q376.0902,988.5 374.809,988.5 Q373.309,988.5 372.1059,987.9063 Q371.1371,987.4375 370.4496,986.4219 Q369.7777,985.4063 369.7777,984.2031 L369.7777,983.1094 Q369.7777,981.8594 370.3715,980.7656 Q370.9809,979.6719 372.0277,979.0938 Q373.0902,978.5 374.2777,978.5 Q374.9965,978.5 375.6215,978.75 Q376.2465,979 376.7777,979.5 Z " fill="#000000"/><text fill="#000000" font-family="sans-serif" font-size="14" lengthAdjust="spacing" textLength="82" x="388.7777" y="988.7285">VaccineType</text><line style="stroke:#181818;stroke-width:0.5;" x1="360.7777" x2="472.7777" y1="999" y2="999"/><rect fill="none" height="6" style="stroke:#C82930;stroke-width:1.0;" width="6" x="367.7777" y="1007"/><text fill="#000000" font-family="sans-serif" font-size="14" lengthAdjust="spacing" textLength="34" x="379.7777" y="1017.5332">Code</text><rect fill="none" height="6" style="stroke:#C82930;stroke-width:1.0;" width="6" x="367.7777" y="1024.6094"/><text fill="#000000" font-family="sans-serif" font-size="14" lengthAdjust="spacing" textLength="71" x="379.7777" y="1035.1426">Description</text><rect fill="none" height="6" style="stroke:#C82930;stroke-width:1.0;" width="6" x="367.7777" y="1042.2188"/><text fill="#000000" font-family="sans-serif" font-size="14" lengthAdjust="spacing" textLength="74" x="379.7777" y="1052.752">Technology</text><line style="stroke:#181818;stroke-width:0.5;" x1="360.7777" x2="472.7777" y1="1059.8281" y2="1059.8281"/></g><!--MD5=[72be06cc7ae02ccc98efe28a50e62246]
class SNSUser--><g id="elem_SNSUser"><rect codeLine="22" fill="#F1F1F1" height="188.875" id="SNSUser" rx="2.5" ry="2.5" style="stroke:#181818;stroke-width:0.5;" width="152" x="441.7777" y="700"/><ellipse cx="485.5777" cy="716" fill="#ADD1B2" rx="11" ry="11" style="stroke:#181818;stroke-width:1.0;"/><path d="M487.5777,712.5 Q487.7809,712 488.0152,711.75 Q488.2496,711.5 488.5152,711.5 Q488.984,711.5 489.2809,711.7813 Q489.5777,712.0625 489.5777,712.7188 L489.5777,714.2813 Q489.5777,714.9375 489.2965,715.2188 Q489.0152,715.5 488.5777,715.5 Q488.1871,715.5 487.9371,715.3281 Q487.6871,715.1563 487.5777,714.7031 Q487.5309,714.3906 487.359,714.2188 Q487.0465,713.8906 486.484,713.7031 Q485.9215,713.5 485.359,713.5 Q484.6559,713.5 484.0621,713.7813 Q483.484,714.0625 483.0309,714.6875 Q482.5777,715.3125 482.5777,716.1719 L482.5777,717.0938 Q482.5777,718.125 483.4215,718.8125 Q484.2652,719.5 485.7652,719.5 Q486.6559,719.5 487.2809,719.2969 Q487.6402,719.1875 488.0465,718.8281 Q488.3121,718.625 488.4527,718.5625 Q488.5934,718.5 488.7652,718.5 Q489.0934,718.5 489.3277,718.7656 Q489.5777,719.0156 489.5777,719.375 Q489.5777,719.7188 489.234,720.125 Q488.734,720.7188 487.9371,721.0469 Q486.8902,721.5 485.609,721.5 Q484.109,721.5 482.9059,720.9063 Q481.9371,720.4375 481.2496,719.4219 Q480.5777,718.4063 480.5777,717.2031 L480.5777,716.1094 Q480.5777,714.8594 481.1715,713.7656 Q481.7809,712.6719 482.8277,712.0938 Q483.8902,711.5 485.0777,711.5 Q485.7965,711.5 486.4215,711.75 Q487.0465,712 487.5777,712.5 Z " fill="#000000"/><text fill="#000000" font-family="sans-serif" font-size="14" lengthAdjust="spacing" textLength="56" x="505.9777" y="721.7285">SNSUser</text><line style="stroke:#181818;stroke-width:0.5;" x1="442.7777" x2="592.7777" y1="732" y2="732"/><rect fill="none" height="6" style="stroke:#C82930;stroke-width:1.0;" width="6" x="449.7777" y="740"/><text fill="#000000" font-family="sans-serif" font-size="14" lengthAdjust="spacing" textLength="35" x="461.7777" y="750.5332">name</text><rect fill="none" height="6" style="stroke:#C82930;stroke-width:1.0;" width="6" x="449.7777" y="757.6094"/><text fill="#000000" font-family="sans-serif" font-size="14" lengthAdjust="spacing" textLength="21" x="461.7777" y="768.1426">sex</text><rect fill="none" height="6" style="stroke:#C82930;stroke-width:1.0;" width="6" x="449.7777" y="775.2188"/><text fill="#000000" font-family="sans-serif" font-size="14" lengthAdjust="spacing" textLength="63" x="461.7777" y="785.752">Birth Date</text><rect fill="none" height="6" style="stroke:#C82930;stroke-width:1.0;" width="6" x="449.7777" y="792.8281"/><text fill="#000000" font-family="sans-serif" font-size="14" lengthAdjust="spacing" textLength="52" x="461.7777" y="803.3613">Address</text><rect fill="none" height="6" style="stroke:#C82930;stroke-width:1.0;" width="6" x="449.7777" y="810.4375"/><text fill="#000000" font-family="sans-serif" font-size="14" lengthAdjust="spacing" textLength="93" x="461.7777" y="820.9707">Phone number</text><rect fill="none" height="6" style="stroke:#C82930;stroke-width:1.0;" width="6" x="449.7777" y="828.0469"/><text fill="#000000" font-family="sans-serif" font-size="14" lengthAdjust="spacing" textLength="39" x="461.7777" y="838.5801">E-mail</text><rect fill="none" height="6" style="stroke:#C82930;stroke-width:1.0;" width="6" x="449.7777" y="845.6563"/><text fill="#000000" font-family="sans-serif" font-size="14" lengthAdjust="spacing" textLength="79" x="461.7777" y="856.1895">SNS number</text><rect fill="none" height="6" style="stroke:#C82930;stroke-width:1.0;" width="6" x="449.7777" y="863.2656"/><text fill="#000000" font-family="sans-serif" font-size="14" lengthAdjust="spacing" textLength="126" x="461.7777" y="873.7988">Citizen card number</text><line style="stroke:#181818;stroke-width:0.5;" x1="442.7777" x2="592.7777" y1="880.875" y2="880.875"/></g><!--MD5=[de60e6d4f424ae4d0522096f76a59010]
class VaccinationCenter--><g id="elem_VaccinationCenter"><rect codeLine="13" fill="#F1F1F1" height="48" id="VaccinationCenter" rx="2.5" ry="2.5" style="stroke:#181818;stroke-width:0.5;" width="148" x="639.7777" y="277"/><ellipse cx="654.7777" cy="293" fill="#A9DCDF" rx="11" ry="11" style="stroke:#181818;stroke-width:1.0;"/><path d="M656.5277,294.5 L653.2309,294.5 L652.7934,295.5 L652.7934,295.5 L653.2621,295.5 L653.7777,296.125 L653.7777,296.5 L653.7777,296.875 L653.2621,297.5 L652.7934,297.5 L650.9027,297.5 L650.2934,297.5 L649.7777,296.875 L649.7777,296.5 L649.7777,296.125 L650.2934,295.5 L650.9027,295.5 L653.2152,289.5 L652.3402,289.5 L651.2934,289.5 L650.7777,288.875 L650.7777,288.5 L650.7777,288.125 L651.2934,287.5 L652.3402,287.5 L656.0121,287.5 L658.6996,295.5 L659.2621,295.5 L659.2621,295.5 L659.7777,296.125 L659.7777,296.5 L659.7777,296.875 L659.2621,297.5 L658.6996,297.5 L656.809,297.5 L656.2934,297.5 L655.7777,296.875 L655.7777,296.5 L655.7777,296.125 L656.2934,295.5 L656.809,295.5 L656.809,295.5 L656.5277,294.5 Z M655.9809,292.5 L654.7777,288.9219 L653.7465,292.5 L655.9809,292.5 Z " fill="#000000"/><text fill="#000000" font-family="sans-serif" font-size="14" font-style="italic" lengthAdjust="spacing" textLength="116" x="668.7777" y="298.7285">VaccinationCenter</text><line style="stroke:#181818;stroke-width:0.5;" x1="640.7777" x2="786.7777" y1="309" y2="309"/><line style="stroke:#181818;stroke-width:0.5;" x1="640.7777" x2="786.7777" y1="317" y2="317"/></g><!--MD5=[1db03e903fe0a044a2ca0dcbef10799a]
class HealthCareCenter--><g id="elem_HealthCareCenter"><rect codeLine="14" fill="#F1F1F1" height="65.6094" id="HealthCareCenter" rx="2.5" ry="2.5" style="stroke:#181818;stroke-width:0.5;" width="146" x="617.7777" y="556"/><ellipse cx="632.7777" cy="572" fill="#ADD1B2" rx="11" ry="11" style="stroke:#181818;stroke-width:1.0;"/><path d="M634.7777,568.5 Q634.9809,568 635.2152,567.75 Q635.4496,567.5 635.7152,567.5 Q636.184,567.5 636.4809,567.7813 Q636.7777,568.0625 636.7777,568.7188 L636.7777,570.2813 Q636.7777,570.9375 636.4965,571.2188 Q636.2152,571.5 635.7777,571.5 Q635.3871,571.5 635.1371,571.3281 Q634.8871,571.1563 634.7777,570.7031 Q634.7309,570.3906 634.559,570.2188 Q634.2465,569.8906 633.684,569.7031 Q633.1215,569.5 632.559,569.5 Q631.8559,569.5 631.2621,569.7813 Q630.684,570.0625 630.2309,570.6875 Q629.7777,571.3125 629.7777,572.1719 L629.7777,573.0938 Q629.7777,574.125 630.6215,574.8125 Q631.4652,575.5 632.9652,575.5 Q633.8559,575.5 634.4809,575.2969 Q634.8402,575.1875 635.2465,574.8281 Q635.5121,574.625 635.6527,574.5625 Q635.7934,574.5 635.9652,574.5 Q636.2934,574.5 636.5277,574.7656 Q636.7777,575.0156 636.7777,575.375 Q636.7777,575.7188 636.434,576.125 Q635.934,576.7188 635.1371,577.0469 Q634.0902,577.5 632.809,577.5 Q631.309,577.5 630.1059,576.9063 Q629.1371,576.4375 628.4496,575.4219 Q627.7777,574.4063 627.7777,573.2031 L627.7777,572.1094 Q627.7777,570.8594 628.3715,569.7656 Q628.9809,568.6719 630.0277,568.0938 Q631.0902,567.5 632.2777,567.5 Q632.9965,567.5 633.6215,567.75 Q634.2465,568 634.7777,568.5 Z " fill="#000000"/><text fill="#000000" font-family="sans-serif" font-size="14" lengthAdjust="spacing" textLength="114" x="646.7777" y="577.7285">HealthCareCenter</text><line style="stroke:#181818;stroke-width:0.5;" x1="618.7777" x2="762.7777" y1="588" y2="588"/><rect fill="none" height="6" style="stroke:#C82930;stroke-width:1.0;" width="6" x="625.7777" y="596"/><text fill="#000000" font-family="sans-serif" font-size="14" lengthAdjust="spacing" textLength="72" x="637.7777" y="606.5332">ARG/AGES</text><line style="stroke:#181818;stroke-width:0.5;" x1="618.7777" x2="762.7777" y1="613.6094" y2="613.6094"/></g><!--MD5=[76480a6701b5d2883bc606a2560c3cfe]
class MassVaccinationCenter--><g id="elem_MassVaccinationCenter"><rect codeLine="17" fill="#F1F1F1" height="65.6094" id="MassVaccinationCenter" rx="2.5" ry="2.5" style="stroke:#181818;stroke-width:0.5;" width="181" x="799.2777" y="556"/><ellipse cx="814.2777" cy="572" fill="#ADD1B2" rx="11" ry="11" style="stroke:#181818;stroke-width:1.0;"/><path d="M816.2777,568.5 Q816.4809,568 816.7152,567.75 Q816.9496,567.5 817.2152,567.5 Q817.684,567.5 817.9809,567.7813 Q818.2777,568.0625 818.2777,568.7188 L818.2777,570.2813 Q818.2777,570.9375 817.9965,571.2188 Q817.7152,571.5 817.2777,571.5 Q816.8871,571.5 816.6371,571.3281 Q816.3871,571.1563 816.2777,570.7031 Q816.2309,570.3906 816.059,570.2188 Q815.7465,569.8906 815.184,569.7031 Q814.6215,569.5 814.059,569.5 Q813.3559,569.5 812.7621,569.7813 Q812.184,570.0625 811.7309,570.6875 Q811.2777,571.3125 811.2777,572.1719 L811.2777,573.0938 Q811.2777,574.125 812.1215,574.8125 Q812.9652,575.5 814.4652,575.5 Q815.3559,575.5 815.9809,575.2969 Q816.3402,575.1875 816.7465,574.8281 Q817.0121,574.625 817.1527,574.5625 Q817.2934,574.5 817.4652,574.5 Q817.7934,574.5 818.0277,574.7656 Q818.2777,575.0156 818.2777,575.375 Q818.2777,575.7188 817.934,576.125 Q817.434,576.7188 816.6371,577.0469 Q815.5902,577.5 814.309,577.5 Q812.809,577.5 811.6059,576.9063 Q810.6371,576.4375 809.9496,575.4219 Q809.2777,574.4063 809.2777,573.2031 L809.2777,572.1094 Q809.2777,570.8594 809.8715,569.7656 Q810.4809,568.6719 811.5277,568.0938 Q812.5902,567.5 813.7777,567.5 Q814.4965,567.5 815.1215,567.75 Q815.7465,568 816.2777,568.5 Z " fill="#000000"/><text fill="#000000" font-family="sans-serif" font-size="14" lengthAdjust="spacing" textLength="149" x="828.2777" y="577.7285">MassVaccinationCenter</text><line style="stroke:#181818;stroke-width:0.5;" x1="800.2777" x2="979.2777" y1="588" y2="588"/><rect fill="none" height="6" style="stroke:#C82930;stroke-width:1.0;" width="6" x="807.2777" y="596"/><text fill="#000000" font-family="sans-serif" font-size="14" lengthAdjust="spacing" textLength="82" x="819.2777" y="606.5332">VaccineType</text><line style="stroke:#181818;stroke-width:0.5;" x1="800.2777" x2="979.2777" y1="613.6094" y2="613.6094"/></g><!--MD5=[2d935fd2dd068a13da1ae531f9857c4f]
class CenterCoordinator--><g id="elem_CenterCoordinator"><rect fill="#F1F1F1" height="48" id="CenterCoordinator" rx="2.5" ry="2.5" style="stroke:#181818;stroke-width:0.5;" width="150" x="508.7777" y="7"/><ellipse cx="523.7777" cy="23" fill="#ADD1B2" rx="11" ry="11" style="stroke:#181818;stroke-width:1.0;"/><path d="M525.7777,19.5 Q525.9809,19 526.2152,18.75 Q526.4496,18.5 526.7152,18.5 Q527.184,18.5 527.4809,18.7813 Q527.7777,19.0625 527.7777,19.7188 L527.7777,21.2813 Q527.7777,21.9375 527.4965,22.2188 Q527.2152,22.5 526.7777,22.5 Q526.3871,22.5 526.1371,22.3281 Q525.8871,22.1563 525.7777,21.7031 Q525.7309,21.3906 525.559,21.2188 Q525.2465,20.8906 524.684,20.7031 Q524.1215,20.5 523.559,20.5 Q522.8559,20.5 522.2621,20.7813 Q521.684,21.0625 521.2309,21.6875 Q520.7777,22.3125 520.7777,23.1719 L520.7777,24.0938 Q520.7777,25.125 521.6215,25.8125 Q522.4652,26.5 523.9652,26.5 Q524.8559,26.5 525.4809,26.2969 Q525.8402,26.1875 526.2465,25.8281 Q526.5121,25.625 526.6527,25.5625 Q526.7934,25.5 526.9652,25.5 Q527.2934,25.5 527.5277,25.7656 Q527.7777,26.0156 527.7777,26.375 Q527.7777,26.7188 527.434,27.125 Q526.934,27.7188 526.1371,28.0469 Q525.0902,28.5 523.809,28.5 Q522.309,28.5 521.1059,27.9063 Q520.1371,27.4375 519.4496,26.4219 Q518.7777,25.4063 518.7777,24.2031 L518.7777,23.1094 Q518.7777,21.8594 519.3715,20.7656 Q519.9809,19.6719 521.0277,19.0938 Q522.0902,18.5 523.2777,18.5 Q523.9965,18.5 524.6215,18.75 Q525.2465,19 525.7777,19.5 Z " fill="#000000"/><text fill="#000000" font-family="sans-serif" font-size="14" lengthAdjust="spacing" textLength="118" x="537.7777" y="28.7285">CenterCoordinator</text><line style="stroke:#181818;stroke-width:0.5;" x1="509.7777" x2="657.7777" y1="39" y2="39"/><line style="stroke:#181818;stroke-width:0.5;" x1="509.7777" x2="657.7777" y1="47" y2="47"/></g><!--MD5=[4d7f47162e377c4884c583baac9698b3]
reverse link VaccinationCenter to HealthCareCenter--><g id="link_VaccinationCenter_HealthCareCenter"><path d="M710.2677,345.61 C705.6177,403.44 697.5177,504.17 693.3777,555.67 " fill="none" id="VaccinationCenter-backto-HealthCareCenter" style="stroke:#181818;stroke-width:1.0;"/><polygon fill="none" points="703.3177,344.78,711.8977,325.4,717.2677,345.9,703.3177,344.78" style="stroke:#181818;stroke-width:1.0;"/></g><!--MD5=[a09fc339ad85d4e67aa3195beeccb7d9]
reverse link VaccinationCenter to MassVaccinationCenter--><g id="link_VaccinationCenter_MassVaccinationCenter"><path d="M738.7577,342.59 C774.0077,399.87 837.6277,503.26 869.8777,555.67 " fill="none" id="VaccinationCenter-backto-MassVaccinationCenter" style="stroke:#181818;stroke-width:1.0;"/><polygon fill="none" points="732.6977,346.11,728.1777,325.4,744.6277,338.77,732.6977,346.11" style="stroke:#181818;stroke-width:1.0;"/></g><!--MD5=[d5cf03d886352995267197dc535618ec]
link CenterCoordinator to VaccinationCenter--><g id="link_CenterCoordinator_VaccinationCenter"><path codeLine="59" d="M639.0477,55.15 C651.8477,62.91 664.2177,72.77 672.7777,85 C714.4177,144.44 716.7477,234.87 715.2477,276.95 " fill="none" id="CenterCoordinator-VaccinationCenter" style="stroke:#181818;stroke-width:1.0;"/><polygon fill="#000000" points="717.4023,170.9045,717.2429,161.3953,711.684,163.3051,717.4023,170.9045" style="stroke:#000000;stroke-width:1.0;"/><text fill="#000000" font-family="sans-serif" font-size="13" lengthAdjust="spacing" textLength="84" x="724.7777" y="171.4951">responsible for</text><text fill="#000000" font-family="sans-serif" font-size="13" lengthAdjust="spacing" textLength="7" x="644.6667" y="76.5245">1</text><text fill="#000000" font-family="sans-serif" font-size="13" lengthAdjust="spacing" textLength="7" x="707.7276" y="266.2773">1</text></g><!--MD5=[96b780800fd67c3bd7a45a9497409787]
link CenterCoordinator to Company--><g id="link_CenterCoordinator_Company"><path codeLine="60" d="M558.5177,55.17 C535.0677,76.68 499.9477,108.9 473.7877,132.88 " fill="none" id="CenterCoordinator-Company" style="stroke:#181818;stroke-width:1.0;"/><polygon fill="#000000" points="526.0929,97.5554,534.7453,93.6076,530.7724,89.2757,526.0929,97.5554" style="stroke:#000000;stroke-width:1.0;"/><text fill="#000000" font-family="sans-serif" font-size="13" lengthAdjust="spacing" textLength="125" x="538.7777" y="99.4951">elaborate relatories to</text><text fill="#000000" font-family="sans-serif" font-size="13" lengthAdjust="spacing" textLength="7" x="544.5075" y="76.5494">1</text><text fill="#000000" font-family="sans-serif" font-size="13" lengthAdjust="spacing" textLength="20" x="458.9461" y="121.9707">1..*</text></g><!--MD5=[eebe9b198877275d05dd12630ed9e401]
link Company to VaccinationCenter--><g id="link_Company_VaccinationCenter"><path codeLine="62" d="M484.8077,189.26 C535.1077,213.59 615.3077,252.38 666.2177,277 " fill="none" id="Company-VaccinationCenter" style="stroke:#181818;stroke-width:1.0;"/><polygon fill="#000000" points="610.2789,240.3528,603.4158,233.7688,600.8566,239.0603,610.2789,240.3528" style="stroke:#000000;stroke-width:1.0;"/><text fill="#000000" font-family="sans-serif" font-size="13" lengthAdjust="spacing" textLength="21" x="614.7777" y="243.4951">has</text><text fill="#000000" font-family="sans-serif" font-size="13" lengthAdjust="spacing" textLength="7" x="492.7016" y="189.2463">1</text><text fill="#000000" font-family="sans-serif" font-size="13" lengthAdjust="spacing" textLength="20" x="631.468" y="266.3402">1..*</text></g><!--MD5=[c29c8d42883934cbaf5793c72a334947]
link Company to Vaccine--><g id="link_Company_Vaccine"><path codeLine="63" d="M405.0777,199 C395.6477,208.41 385.5677,218.9 376.7777,229 C342.0477,268.9 306.2977,315.65 277.5077,354.94 " fill="none" id="Company-Vaccine" style="stroke:#181818;stroke-width:1.0;"/><polygon fill="#000000" points="378.6118,242.0458,386.6138,236.9058,382.0643,233.184,378.6118,242.0458" style="stroke:#000000;stroke-width:1.0;"/><text fill="#000000" font-family="sans-serif" font-size="13" lengthAdjust="spacing" textLength="21" x="390.7777" y="243.4951">has</text><text fill="#000000" font-family="sans-serif" font-size="13" lengthAdjust="spacing" textLength="7" x="391.219" y="220.1229">1</text><text fill="#000000" font-family="sans-serif" font-size="13" lengthAdjust="spacing" textLength="5" x="277.6048" y="344.1063">*</text></g><!--MD5=[05986564e1c13a00611587b35563d868]
link Company to VaccineType--><g id="link_Company_VaccineType"><path codeLine="64" d="M392.4877,171.56 C282.3377,183.69 13.7777,221.33 13.7777,300 C13.7777,300 13.7777,300 13.7777,795.5 C13.7777,951.3 248.2077,998 359.4677,1011.39 " fill="none" id="Company-VaccineType" style="stroke:#181818;stroke-width:1.0;"/><polygon fill="#000000" points="18.5813,594.1719,21.8733,585.2493,16,585.0184,18.5813,594.1719" style="stroke:#000000;stroke-width:1.0;"/><text fill="#000000" font-family="sans-serif" font-size="13" lengthAdjust="spacing" textLength="21" x="27.7777" y="594.4951">has</text><text fill="#000000" font-family="sans-serif" font-size="13" lengthAdjust="spacing" textLength="7" x="377.8636" y="168.7383">1</text><text fill="#000000" font-family="sans-serif" font-size="13" lengthAdjust="spacing" textLength="5" x="346.8046" y="1007.1108">*</text></g><!--MD5=[1a8aa2b864b87f860d28abceaa28b7a5]
link Company to SNSUser--><g id="link_Company_SNSUser"><path codeLine="65" d="M433.5977,199.26 C422.5977,274.49 400.6177,466.96 435.7777,622 C441.7277,648.23 452.1977,675.14 463.7077,699.64 " fill="none" id="Company-SNSUser" style="stroke:#181818;stroke-width:1.0;"/><polygon fill="#000000" points="426.0781,445.6668,428.4684,436.4615,422.6011,436.8145,426.0781,445.6668" style="stroke:#000000;stroke-width:1.0;"/><text fill="#000000" font-family="sans-serif" font-size="13" lengthAdjust="spacing" textLength="21" x="434.7777" y="445.9951">has</text><text fill="#000000" font-family="sans-serif" font-size="13" lengthAdjust="spacing" textLength="7" x="425.0516" y="220.1707">1</text><text fill="#000000" font-family="sans-serif" font-size="13" lengthAdjust="spacing" textLength="5" x="454.3766" y="689.2781">*</text></g><!--MD5=[3568623adf67b2630dce9e60c05bd02a]
link Vaccine to VaccineType--><g id="link_Vaccine_VaccineType"><path codeLine="67" d="M247.0377,526.03 C289.1677,647.78 365.5977,868.63 399.6377,966.97 " fill="none" id="Vaccine-VaccineType" style="stroke:#181818;stroke-width:1.0;"/><polygon fill="#000000" points="302.413,665.9008,302.2321,656.392,296.6775,658.3143,302.413,665.9008" style="stroke:#000000;stroke-width:1.0;"/><text fill="#000000" font-family="sans-serif" font-size="13" lengthAdjust="spacing" textLength="24" x="309.7777" y="666.4951">is of</text><text fill="#000000" font-family="sans-serif" font-size="13" lengthAdjust="spacing" textLength="20" x="228.7531" y="547.859">1..*</text><text fill="#000000" font-family="sans-serif" font-size="13" lengthAdjust="spacing" textLength="20" x="375.8212" y="956.2711">1..*</text></g><!--MD5=[d35dbd40ed3ec06d2ee641990798b91e]
link SNSUser to VaccineType--><g id="link_SNSUser_VaccineType"><path codeLine="70" d="M474.9477,889.22 C462.7377,915.93 449.9277,943.97 439.4377,966.92 " fill="none" id="SNSUser-VaccineType" style="stroke:#181818;stroke-width:1.0;"/><polygon fill="#000000" points="464.6994,932.7234,471.1321,925.7183,465.7861,923.2751,464.6994,932.7234" style="stroke:#000000;stroke-width:1.0;"/><text fill="#000000" font-family="sans-serif" font-size="13" lengthAdjust="spacing" textLength="47" x="475.7777" y="933.4951">receives</text><text fill="#000000" font-family="sans-serif" font-size="13" lengthAdjust="spacing" textLength="20" x="451.068" y="910.2761">1..*</text><text fill="#000000" font-family="sans-serif" font-size="13" lengthAdjust="spacing" textLength="20" x="421.2181" y="956.2141">1..*</text></g><!--MD5=[de78e1efbcb885042a1719c3cec87a53]
link VaccinationCenter to WaitingRoom--><g id="link_VaccinationCenter_WaitingRoom"><path codeLine="72" d="M788.0177,305.15 C880.3177,310.36 1031.2677,323.53 1076.7777,355 C1151.6977,406.81 1187.6977,516.86 1200.3177,564.83 " fill="none" id="VaccinationCenter-WaitingRoom" style="stroke:#181818;stroke-width:1.0;"/><polygon fill="#000000" points="1197.0085,443.3405,1190.9212,436.0332,1187.7887,441.0068,1197.0085,443.3405" style="stroke:#000000;stroke-width:1.0;"/><text fill="#000000" font-family="sans-serif" font-size="13" lengthAdjust="spacing" textLength="21" x="1201.7777" y="445.9951">has</text><text fill="#000000" font-family="sans-serif" font-size="13" lengthAdjust="spacing" textLength="20" x="795.7836" y="319.7814">1..*</text><text fill="#000000" font-family="sans-serif" font-size="13" lengthAdjust="spacing" textLength="20" x="1176.3561" y="554.1266">1..*</text></g><!--MD5=[937991f90306544b3b03d076537a17b7]
link VaccinationCenter to RecoveryRoom--><g id="link_VaccinationCenter_RecoveryRoom"><path codeLine="73" d="M682.5277,325.18 C672.0277,333.84 660.7277,344.21 651.7777,355 C594.4077,424.12 547.5477,521.04 527.8377,564.86 " fill="none" id="VaccinationCenter-RecoveryRoom" style="stroke:#181818;stroke-width:1.0;"/><polygon fill="#000000" points="654.0664,444.8768,661.4406,438.8708,656.502,435.6834,654.0664,444.8768" style="stroke:#000000;stroke-width:1.0;"/><text fill="#000000" font-family="sans-serif" font-size="13" lengthAdjust="spacing" textLength="21" x="665.7777" y="445.9951">has</text><text fill="#000000" font-family="sans-serif" font-size="13" lengthAdjust="spacing" textLength="20" x="652.4731" y="346.5618">1..*</text><text fill="#000000" font-family="sans-serif" font-size="13" lengthAdjust="spacing" textLength="20" x="507.8531" y="554.1643">1..*</text></g><!--MD5=[365ff630f9f838a80248091f1b038ffe]
link VaccinationCenter to SNSUser--><g id="link_VaccinationCenter_SNSUser"><path codeLine="74" d="M772.0177,325.03 C789.2077,333.19 807.4877,343.29 822.7777,355 C935.4277,441.26 1079.4977,506.02 997.7777,622 C905.6477,752.75 704.3277,784.36 593.9377,791.65 " fill="none" id="VaccinationCenter-SNSUser" style="stroke:#181818;stroke-width:1.0;"/><polygon fill="#000000" points="1023.995,593.8472,1029.9658,586.4445,1024.4743,584.3487,1023.995,593.8472" style="stroke:#000000;stroke-width:1.0;"/><text fill="#000000" font-family="sans-serif" font-size="13" lengthAdjust="spacing" textLength="47" x="1034.7777" y="594.4951">receives</text><text fill="#000000" font-family="sans-serif" font-size="13" lengthAdjust="spacing" textLength="20" x="763.7762" y="346.3753">1..*</text><text fill="#000000" font-family="sans-serif" font-size="13" lengthAdjust="spacing" textLength="20" x="601.8806" y="805.6418">1..*</text></g><!--MD5=[6b276e2dfed8b8354946f9f8bab747bb]
link VaccinationCenter to VaccineType--><g id="link_VaccinationCenter_VaccineType"><path codeLine="75" d="M788.0377,304.93 C923.2977,310.93 1198.9577,326.53 1231.7777,355 C1322.9777,434.1 1347.0777,520.45 1281.7777,622 C1094.8677,912.67 635.0877,991.77 473.8077,1010.93 " fill="none" id="VaccinationCenter-VaccineType" style="stroke:#181818;stroke-width:1.0;"/><polygon fill="#000000" points="1261.7446,665.7438,1268.1076,658.6753,1262.7376,656.2852,1261.7446,665.7438" style="stroke:#000000;stroke-width:1.0;"/><text fill="#000000" font-family="sans-serif" font-size="13" lengthAdjust="spacing" textLength="126" x="1272.7777" y="666.4951">where is administered</text><text fill="#000000" font-family="sans-serif" font-size="13" lengthAdjust="spacing" textLength="20" x="795.8055" y="302.0661">1..*</text><text fill="#000000" font-family="sans-serif" font-size="13" lengthAdjust="spacing" textLength="20" x="481.977" y="1006.6813">1..*</text></g><!--MD5=[1dfd2b8cef5257ed6efd914f274c3279]
link WaitingRoom to SNSUser--><g id="link_WaitingRoom_SNSUser"><path codeLine="77" d="M1175.3077,613.04 C1150.1277,631.03 1112.7877,655.36 1076.7777,670 C911.7477,737.12 703.7577,770.79 593.8877,784.95 " fill="none" id="WaitingRoom-SNSUser" style="stroke:#181818;stroke-width:1.0;"/><polygon fill="#000000" points="1109.9829,662.5935,1119.4901,662.8472,1117.8235,657.2105,1109.9829,662.5935" style="stroke:#000000;stroke-width:1.0;"/><text fill="#000000" font-family="sans-serif" font-size="13" lengthAdjust="spacing" textLength="14" x="1123.7777" y="666.4951">for</text><text fill="#000000" font-family="sans-serif" font-size="13" lengthAdjust="spacing" textLength="7" x="1160.0276" y="634.3877">1</text><text fill="#000000" font-family="sans-serif" font-size="13" lengthAdjust="spacing" textLength="20" x="601.826" y="780.8492">1..*</text></g><!--MD5=[f341c74790804bee0da500ddf7df4722]
link RecoveryRoom to SNSUser--><g id="link_RecoveryRoom_SNSUser"><path codeLine="78" d="M517.7777,613.34 C517.7777,634.75 517.7777,667.89 517.7777,699.94 " fill="none" id="RecoveryRoom-SNSUser" style="stroke:#181818;stroke-width:1.0;"/><polygon fill="#000000" points="522.7777,666.1758,525.7167,657.1307,519.8388,657.1307,522.7777,666.1758" style="stroke:#000000;stroke-width:1.0;"/><text fill="#000000" font-family="sans-serif" font-size="13" lengthAdjust="spacing" textLength="14" x="531.7777" y="666.4951">for</text><text fill="#000000" font-family="sans-serif" font-size="13" lengthAdjust="spacing" textLength="7" x="509.9684" y="634.3544">1</text><text fill="#000000" font-family="sans-serif" font-size="13" lengthAdjust="spacing" textLength="20" x="496.9809" y="689.2814">1..*</text></g><!--MD5=[d1a2d05e48ae39e52332634cac7b0f2b]
@startuml

'class enumeration
class Company
class WaitingRoom
class RecoveryRoom
class Vaccine
class VaccineType
class SNSUser




abstract VaccinationCenter
class HealthCareCenter extends VaccinationCenter{
-ARG/AGES
}
class MassVaccinationCenter extends VaccinationCenter{
-VaccineType
}

'class components
class SNSUser {
-name
-sex
-Birth Date
-Address
-Phone number
-E-mail
-SNS number
-Citizen card number
}

class Vaccine {
-name
-brand
-type
-age groups
-vaccines per age group
-dosage
-time interval regarding previous vaccine administered
}

class Company {
-name
}

class VaccineType {
-Code
-Description
-Technology
}


'class relation




CenterCoordinator "1" - - "1" VaccinationCenter : responsible for >
CenterCoordinator "1" - - "1..*" Company : elaborate relatories to >

Company "1" - - "1..*" VaccinationCenter : has >
Company "1" - - "*" Vaccine : has >
Company "1" - - "*" VaccineType : has >
Company "1" - - "*" SNSUser : has >

Vaccine "1..*" - - "1..*" VaccineType : is of >


SNSUser "1..*" - - "1..*" VaccineType : receives >

VaccinationCenter "1..*" - - "1..*" WaitingRoom : has >
VaccinationCenter "1..*" - - "1..*" RecoveryRoom : has >
VaccinationCenter "1..*" - - "1..*" SNSUser : receives >
VaccinationCenter "1..*" - - "1..*" VaccineType : where is administered >

WaitingRoom "1" - - "1..*" SNSUser : for >
RecoveryRoom "1" - - "1..*" SNSUser : for >


@enduml

@startuml

class Company
class WaitingRoom
class RecoveryRoom
class Vaccine
class VaccineType
class SNSUser




abstract VaccinationCenter
class HealthCareCenter extends VaccinationCenter{
-ARG/AGES
}
class MassVaccinationCenter extends VaccinationCenter{
-VaccineType
}

class SNSUser {
-name
-sex
-Birth Date
-Address
-Phone number
-E-mail
-SNS number
-Citizen card number
}

class Vaccine {
-name
-brand
-type
-age groups
-vaccines per age group
-dosage
-time interval regarding previous vaccine administered
}

class Company {
-name
}

class VaccineType {
-Code
-Description
-Technology
}






CenterCoordinator "1" - - "1" VaccinationCenter : responsible for >
CenterCoordinator "1" - - "1..*" Company : elaborate relatories to >

Company "1" - - "1..*" VaccinationCenter : has >
Company "1" - - "*" Vaccine : has >
Company "1" - - "*" VaccineType : has >
Company "1" - - "*" SNSUser : has >

Vaccine "1..*" - - "1..*" VaccineType : is of >


SNSUser "1..*" - - "1..*" VaccineType : receives >

VaccinationCenter "1..*" - - "1..*" WaitingRoom : has >
VaccinationCenter "1..*" - - "1..*" RecoveryRoom : has >
VaccinationCenter "1..*" - - "1..*" SNSUser : receives >
VaccinationCenter "1..*" - - "1..*" VaccineType : where is administered >

WaitingRoom "1" - - "1..*" SNSUser : for >
RecoveryRoom "1" - - "1..*" SNSUser : for >


@enduml

PlantUML version 1.2022.5(Sat Apr 30 11:55:52 BST 2022)
(GPL source distribution)
Java Runtime: OpenJDK Runtime Environment
JVM: OpenJDK 64-Bit Server VM
Default Encoding: Cp1252
Language: pt
Country: PT
--></g></svg>