<?xml version="1.0" encoding="UTF-8" standalone="no"?><svg xmlns="http://www.w3.org/2000/svg" xmlns:xlink="http://www.w3.org/1999/xlink" contentScriptType="application/ecmascript" contentStyleType="text/css" height="914.4px" preserveAspectRatio="none" style="width:1048px;height:914px;background:#FFFFFF;" version="1.1" viewBox="0 0 1048 914" width="1048.8px" zoomAndPan="magnify"><defs><filter height="300%" id="f70y0f9q4xqv8" width="300%" x="-1" y="-1"><feGaussianBlur result="blurOut" stdDeviation="1.6000000000000003"/><feColorMatrix in="blurOut" result="blurOut2" type="matrix" values="0 0 0 0 0 0 0 0 0 0 0 0 0 0 0 0 0 0 .4 0"/><feOffset dx="3.2000000000000006" dy="3.2000000000000006" in="blurOut2" result="blurOut3"/><feBlend in="SourceGraphic" in2="blurOut3" mode="normal"/></filter></defs><g><!--MD5=[86c7c362de55a38b660185a1328fe18d]
class Organization--><rect codeLine="55" fill="#FEFECE" filter="url(#f70y0f9q4xqv8)" height="49.4688" id="Organization" style="stroke:#A80036;stroke-width:1.2000000000000002;" width="80.8" x="314.8" y="106.4"/><ellipse cx="326.8" cy="119.2" fill="#ADD1B2" rx="8.8" ry="8.8" style="stroke:#A80036;stroke-width:0.8000000000000002;"/><path d="M328.4,116.4 Q328.5625,116 328.75,115.8 Q328.9375,115.6 329.15,115.6 Q329.525,115.6 329.7625,115.825 Q330,116.05 330,116.575 L330,117.825 Q330,118.35 329.775,118.575 Q329.55,118.8 329.2,118.8 Q328.8875,118.8 328.6875,118.6625 Q328.4875,118.525 328.4,118.1625 Q328.3625,117.9125 328.225,117.775 Q327.975,117.5125 327.525,117.3625 Q327.075,117.2 326.625,117.2 Q326.0625,117.2 325.5875,117.425 Q325.125,117.65 324.7625,118.15 Q324.4,118.65 324.4,119.3375 L324.4,120.075 Q324.4,120.9 325.075,121.45 Q325.75,122 326.95,122 Q327.6625,122 328.1625,121.8375 Q328.45,121.75 328.775,121.4625 Q328.9875,121.3 329.1,121.25 Q329.2125,121.2 329.35,121.2 Q329.6125,121.2 329.8,121.4125 Q330,121.6125 330,121.9 Q330,122.175 329.725,122.5 Q329.325,122.975 328.6875,123.2375 Q327.85,123.6 326.825,123.6 Q325.625,123.6 324.6625,123.125 Q323.8875,122.75 323.3375,121.9375 Q322.8,121.125 322.8,120.1625 L322.8,119.2875 Q322.8,118.2875 323.275,117.4125 Q323.7625,116.5375 324.6,116.075 Q325.45,115.6 326.4,115.6 Q326.975,115.6 327.475,115.8 Q327.975,116 328.4,116.4 Z " fill="#000000"/><text fill="#000000" font-family="sans-serif" font-size="9.6" lengthAdjust="spacing" textLength="55.2" x="338" y="123.1281">Organization</text><line style="stroke:#A80036;stroke-width:1.2000000000000002;" x1="315.6" x2="394.8" y1="132" y2="132"/><rect fill="none" height="4.8" style="stroke:#C82930;stroke-width:0.8000000000000002;" width="4.8" x="321.2" y="138.4"/><text fill="#000000" font-family="sans-serif" font-size="8.8" lengthAdjust="spacing" textLength="20.8" x="330.8" y="144.3352">name</text><line style="stroke:#A80036;stroke-width:1.2000000000000002;" x1="315.6" x2="394.8" y1="149.4688" y2="149.4688"/><!--MD5=[de60e6d4f424ae4d0522096f76a59010]
class VaccinationCenter--><rect codeLine="31" fill="#FEFECE" filter="url(#f70y0f9q4xqv8)" height="160.1563" id="VaccinationCenter" style="stroke:#A80036;stroke-width:1.2000000000000002;" width="135.2" x="27.6" y="218.4"/><ellipse cx="52.92" cy="231.2" fill="#ADD1B2" rx="8.8" ry="8.8" style="stroke:#A80036;stroke-width:0.8000000000000002;"/><path d="M54.52,228.4 Q54.6825,228 54.87,227.8 Q55.0575,227.6 55.27,227.6 Q55.645,227.6 55.8825,227.825 Q56.12,228.05 56.12,228.575 L56.12,229.825 Q56.12,230.35 55.895,230.575 Q55.67,230.8 55.32,230.8 Q55.0075,230.8 54.8075,230.6625 Q54.6075,230.525 54.52,230.1625 Q54.4825,229.9125 54.345,229.775 Q54.095,229.5125 53.645,229.3625 Q53.195,229.2 52.745,229.2 Q52.1825,229.2 51.7075,229.425 Q51.245,229.65 50.8825,230.15 Q50.52,230.65 50.52,231.3375 L50.52,232.075 Q50.52,232.9 51.195,233.45 Q51.87,234 53.07,234 Q53.7825,234 54.2825,233.8375 Q54.57,233.75 54.895,233.4625 Q55.1075,233.3 55.22,233.25 Q55.3325,233.2 55.47,233.2 Q55.7325,233.2 55.92,233.4125 Q56.12,233.6125 56.12,233.9 Q56.12,234.175 55.845,234.5 Q55.445,234.975 54.8075,235.2375 Q53.97,235.6 52.945,235.6 Q51.745,235.6 50.7825,235.125 Q50.0075,234.75 49.4575,233.9375 Q48.92,233.125 48.92,232.1625 L48.92,231.2875 Q48.92,230.2875 49.395,229.4125 Q49.8825,228.5375 50.72,228.075 Q51.57,227.6 52.52,227.6 Q53.095,227.6 53.595,227.8 Q54.095,228 54.52,228.4 Z " fill="#000000"/><text fill="#000000" font-family="sans-serif" font-size="9.6" lengthAdjust="spacing" textLength="80" x="67.08" y="235.1281">VaccinationCenter</text><line style="stroke:#A80036;stroke-width:1.2000000000000002;" x1="28.4" x2="162" y1="244" y2="244"/><rect fill="none" height="4.8" style="stroke:#C82930;stroke-width:0.8000000000000002;" width="4.8" x="34" y="250.4"/><text fill="#000000" font-family="sans-serif" font-size="8.8" lengthAdjust="spacing" textLength="20.8" x="43.6" y="256.3352">name</text><rect fill="none" height="4.8" style="stroke:#C82930;stroke-width:0.8000000000000002;" width="4.8" x="34" y="261.4688"/><text fill="#000000" font-family="sans-serif" font-size="8.8" lengthAdjust="spacing" textLength="27.2" x="43.6" y="267.4039">addres</text><rect fill="none" height="4.8" style="stroke:#C82930;stroke-width:0.8000000000000002;" width="4.8" x="34" y="272.5375"/><text fill="#000000" font-family="sans-serif" font-size="8.8" lengthAdjust="spacing" textLength="55.2" x="43.6" y="278.4727">phone number</text><rect fill="none" height="4.8" style="stroke:#C82930;stroke-width:0.8000000000000002;" width="4.8" x="34" y="283.6063"/><text fill="#000000" font-family="sans-serif" font-size="8.8" lengthAdjust="spacing" textLength="52" x="43.6" y="289.5414">e-mail addres</text><rect fill="none" height="4.8" style="stroke:#C82930;stroke-width:0.8000000000000002;" width="4.8" x="34" y="294.675"/><text fill="#000000" font-family="sans-serif" font-size="8.8" lengthAdjust="spacing" textLength="44" x="43.6" y="300.6102">fax number</text><rect fill="none" height="4.8" style="stroke:#C82930;stroke-width:0.8000000000000002;" width="4.8" x="34" y="305.7438"/><text fill="#000000" font-family="sans-serif" font-size="8.8" lengthAdjust="spacing" textLength="60.8" x="43.6" y="311.6789">website addres</text><rect fill="none" height="4.8" style="stroke:#C82930;stroke-width:0.8000000000000002;" width="4.8" x="34" y="316.8125"/><text fill="#000000" font-family="sans-serif" font-size="8.8" lengthAdjust="spacing" textLength="55.2" x="43.6" y="322.7477">opening hours</text><rect fill="none" height="4.8" style="stroke:#C82930;stroke-width:0.8000000000000002;" width="4.8" x="34" y="327.8813"/><text fill="#000000" font-family="sans-serif" font-size="8.8" lengthAdjust="spacing" textLength="52" x="43.6" y="333.8164">closing hours</text><rect fill="none" height="4.8" style="stroke:#C82930;stroke-width:0.8000000000000002;" width="4.8" x="34" y="338.95"/><text fill="#000000" font-family="sans-serif" font-size="8.8" lengthAdjust="spacing" textLength="47.2" x="43.6" y="344.8852">slot duration</text><rect fill="none" height="4.8" style="stroke:#C82930;stroke-width:0.8000000000000002;" width="4.8" x="34" y="350.0188"/><text fill="#000000" font-family="sans-serif" font-size="8.8" lengthAdjust="spacing" textLength="114.4" x="43.6" y="355.9539">maximum number of vaccines</text><rect fill="none" height="4.8" style="stroke:#C82930;stroke-width:0.8000000000000002;" width="4.8" x="34" y="361.0875"/><text fill="#000000" font-family="sans-serif" font-size="8.8" lengthAdjust="spacing" textLength="44" x="43.6" y="367.0227">coordinator</text><line style="stroke:#A80036;stroke-width:1.2000000000000002;" x1="28.4" x2="162" y1="372.1563" y2="372.1563"/><!--MD5=[2d935fd2dd068a13da1ae531f9857c4f]
class CenterCoordinator--><rect codeLine="5" fill="#FEFECE" filter="url(#f70y0f9q4xqv8)" height="38.4" id="CenterCoordinator" style="stroke:#A80036;stroke-width:1.2000000000000002;" width="107.2" x="5.6" y="5.6"/><ellipse cx="17.6" cy="18.4" fill="#ADD1B2" rx="8.8" ry="8.8" style="stroke:#A80036;stroke-width:0.8000000000000002;"/><path d="M19.2,15.6 Q19.3625,15.2 19.55,15 Q19.7375,14.8 19.95,14.8 Q20.325,14.8 20.5625,15.025 Q20.8,15.25 20.8,15.775 L20.8,17.025 Q20.8,17.55 20.575,17.775 Q20.35,18 20,18 Q19.6875,18 19.4875,17.8625 Q19.2875,17.725 19.2,17.3625 Q19.1625,17.1125 19.025,16.975 Q18.775,16.7125 18.325,16.5625 Q17.875,16.4 17.425,16.4 Q16.8625,16.4 16.3875,16.625 Q15.925,16.85 15.5625,17.35 Q15.2,17.85 15.2,18.5375 L15.2,19.275 Q15.2,20.1 15.875,20.65 Q16.55,21.2 17.75,21.2 Q18.4625,21.2 18.9625,21.0375 Q19.25,20.95 19.575,20.6625 Q19.7875,20.5 19.9,20.45 Q20.0125,20.4 20.15,20.4 Q20.4125,20.4 20.6,20.6125 Q20.8,20.8125 20.8,21.1 Q20.8,21.375 20.525,21.7 Q20.125,22.175 19.4875,22.4375 Q18.65,22.8 17.625,22.8 Q16.425,22.8 15.4625,22.325 Q14.6875,21.95 14.1375,21.1375 Q13.6,20.325 13.6,19.3625 L13.6,18.4875 Q13.6,17.4875 14.075,16.6125 Q14.5625,15.7375 15.4,15.275 Q16.25,14.8 17.2,14.8 Q17.775,14.8 18.275,15 Q18.775,15.2 19.2,15.6 Z " fill="#000000"/><text fill="#000000" font-family="sans-serif" font-size="9.6" lengthAdjust="spacing" textLength="81.6" x="28.8" y="22.3281">CenterCoordinator</text><line style="stroke:#A80036;stroke-width:1.2000000000000002;" x1="6.4" x2="112" y1="31.2" y2="31.2"/><line style="stroke:#A80036;stroke-width:1.2000000000000002;" x1="6.4" x2="112" y1="37.6" y2="37.6"/><!--MD5=[a87fd7e31e08e6ee61dd7fb9ab974181]
class VaccinationEvent--><rect codeLine="45" fill="#FEFECE" filter="url(#f70y0f9q4xqv8)" height="115.8813" id="VaccinationEvent" style="stroke:#A80036;stroke-width:1.2000000000000002;" width="225.6" x="659.2" y="585.6"/><ellipse cx="731.4" cy="598.4" fill="#ADD1B2" rx="8.8" ry="8.8" style="stroke:#A80036;stroke-width:0.8000000000000002;"/><path d="M733,595.6 Q733.1625,595.2 733.35,595 Q733.5375,594.8 733.75,594.8 Q734.125,594.8 734.3625,595.025 Q734.6,595.25 734.6,595.775 L734.6,597.025 Q734.6,597.55 734.375,597.775 Q734.15,598 733.8,598 Q733.4875,598 733.2875,597.8625 Q733.0875,597.725 733,597.3625 Q732.9625,597.1125 732.825,596.975 Q732.575,596.7125 732.125,596.5625 Q731.675,596.4 731.225,596.4 Q730.6625,596.4 730.1875,596.625 Q729.725,596.85 729.3625,597.35 Q729,597.85 729,598.5375 L729,599.275 Q729,600.1 729.675,600.65 Q730.35,601.2 731.55,601.2 Q732.2625,601.2 732.7625,601.0375 Q733.05,600.95 733.375,600.6625 Q733.5875,600.5 733.7,600.45 Q733.8125,600.4 733.95,600.4 Q734.2125,600.4 734.4,600.6125 Q734.6,600.8125 734.6,601.1 Q734.6,601.375 734.325,601.7 Q733.925,602.175 733.2875,602.4375 Q732.45,602.8 731.425,602.8 Q730.225,602.8 729.2625,602.325 Q728.4875,601.95 727.9375,601.1375 Q727.4,600.325 727.4,599.3625 L727.4,598.4875 Q727.4,597.4875 727.875,596.6125 Q728.3625,595.7375 729.2,595.275 Q730.05,594.8 731,594.8 Q731.575,594.8 732.075,595 Q732.575,595.2 733,595.6 Z " fill="#000000"/><text fill="#000000" font-family="sans-serif" font-size="9.6" lengthAdjust="spacing" textLength="74.4" x="747.8" y="602.3281">VaccinationEvent</text><line style="stroke:#A80036;stroke-width:1.2000000000000002;" x1="660" x2="884" y1="611.2" y2="611.2"/><rect fill="none" height="4.8" style="stroke:#C82930;stroke-width:0.8000000000000002;" width="4.8" x="665.6" y="617.6"/><text fill="#000000" font-family="sans-serif" font-size="8.8" lengthAdjust="spacing" textLength="20.8" x="675.2" y="623.5352">name</text><rect fill="none" height="4.8" style="stroke:#C82930;stroke-width:0.8000000000000002;" width="4.8" x="665.6" y="628.6688"/><text fill="#000000" font-family="sans-serif" font-size="8.8" lengthAdjust="spacing" textLength="22.4" x="675.2" y="634.6039">brand</text><rect fill="none" height="4.8" style="stroke:#C82930;stroke-width:0.8000000000000002;" width="4.8" x="665.6" y="639.7375"/><text fill="#000000" font-family="sans-serif" font-size="8.8" lengthAdjust="spacing" textLength="16.8" x="675.2" y="645.6727">type</text><rect fill="none" height="4.8" style="stroke:#C82930;stroke-width:0.8000000000000002;" width="4.8" x="665.6" y="650.8063"/><text fill="#000000" font-family="sans-serif" font-size="8.8" lengthAdjust="spacing" textLength="44" x="675.2" y="656.7414">age groups</text><rect fill="none" height="4.8" style="stroke:#C82930;stroke-width:0.8000000000000002;" width="4.8" x="665.6" y="661.875"/><text fill="#000000" font-family="sans-serif" font-size="8.8" lengthAdjust="spacing" textLength="92" x="675.2" y="667.8102">vaccines per age group</text><rect fill="none" height="4.8" style="stroke:#C82930;stroke-width:0.8000000000000002;" width="4.8" x="665.6" y="672.9438"/><text fill="#000000" font-family="sans-serif" font-size="8.8" lengthAdjust="spacing" textLength="28.8" x="675.2" y="678.8789">dosage</text><rect fill="none" height="4.8" style="stroke:#C82930;stroke-width:0.8000000000000002;" width="4.8" x="665.6" y="684.0125"/><text fill="#000000" font-family="sans-serif" font-size="8.8" lengthAdjust="spacing" textLength="204.8" x="675.2" y="689.9477">time interval regarding previous vaccine administered</text><line style="stroke:#A80036;stroke-width:1.2000000000000002;" x1="660" x2="884" y1="695.0813" y2="695.0813"/><!--MD5=[a059576e163b46f56762f12600c49258]
class Nurse--><rect codeLine="7" fill="#FEFECE" filter="url(#f70y0f9q4xqv8)" height="38.4" id="Nurse" style="stroke:#A80036;stroke-width:1.2000000000000002;" width="52.8" x="526.4" y="112"/><ellipse cx="538.4" cy="124.8" fill="#ADD1B2" rx="8.8" ry="8.8" style="stroke:#A80036;stroke-width:0.8000000000000002;"/><path d="M540,122 Q540.1625,121.6 540.35,121.4 Q540.5375,121.2 540.75,121.2 Q541.125,121.2 541.3625,121.425 Q541.6,121.65 541.6,122.175 L541.6,123.425 Q541.6,123.95 541.375,124.175 Q541.15,124.4 540.8,124.4 Q540.4875,124.4 540.2875,124.2625 Q540.0875,124.125 540,123.7625 Q539.9625,123.5125 539.825,123.375 Q539.575,123.1125 539.125,122.9625 Q538.675,122.8 538.225,122.8 Q537.6625,122.8 537.1875,123.025 Q536.725,123.25 536.3625,123.75 Q536,124.25 536,124.9375 L536,125.675 Q536,126.5 536.675,127.05 Q537.35,127.6 538.55,127.6 Q539.2625,127.6 539.7625,127.4375 Q540.05,127.35 540.375,127.0625 Q540.5875,126.9 540.7,126.85 Q540.8125,126.8 540.95,126.8 Q541.2125,126.8 541.4,127.0125 Q541.6,127.2125 541.6,127.5 Q541.6,127.775 541.325,128.1 Q540.925,128.575 540.2875,128.8375 Q539.45,129.2 538.425,129.2 Q537.225,129.2 536.2625,128.725 Q535.4875,128.35 534.9375,127.5375 Q534.4,126.725 534.4,125.7625 L534.4,124.8875 Q534.4,123.8875 534.875,123.0125 Q535.3625,122.1375 536.2,121.675 Q537.05,121.2 538,121.2 Q538.575,121.2 539.075,121.4 Q539.575,121.6 540,122 Z " fill="#000000"/><text fill="#000000" font-family="sans-serif" font-size="9.6" lengthAdjust="spacing" textLength="27.2" x="549.6" y="128.7281">Nurse</text><line style="stroke:#A80036;stroke-width:1.2000000000000002;" x1="527.2" x2="578.4" y1="137.6" y2="137.6"/><line style="stroke:#A80036;stroke-width:1.2000000000000002;" x1="527.2" x2="578.4" y1="144" y2="144"/><!--MD5=[52313708f2ec8e9ddeeca04977bc3672]
class VaccinationCenterReceptionist--><rect codeLine="8" fill="#FEFECE" filter="url(#f70y0f9q4xqv8)" height="38.4" id="VaccinationCenterReceptionist" style="stroke:#A80036;stroke-width:1.2000000000000002;" width="160.8" x="126" y="112"/><ellipse cx="138" cy="124.8" fill="#ADD1B2" rx="8.8" ry="8.8" style="stroke:#A80036;stroke-width:0.8000000000000002;"/><path d="M139.6,122 Q139.7625,121.6 139.95,121.4 Q140.1375,121.2 140.35,121.2 Q140.725,121.2 140.9625,121.425 Q141.2,121.65 141.2,122.175 L141.2,123.425 Q141.2,123.95 140.975,124.175 Q140.75,124.4 140.4,124.4 Q140.0875,124.4 139.8875,124.2625 Q139.6875,124.125 139.6,123.7625 Q139.5625,123.5125 139.425,123.375 Q139.175,123.1125 138.725,122.9625 Q138.275,122.8 137.825,122.8 Q137.2625,122.8 136.7875,123.025 Q136.325,123.25 135.9625,123.75 Q135.6,124.25 135.6,124.9375 L135.6,125.675 Q135.6,126.5 136.275,127.05 Q136.95,127.6 138.15,127.6 Q138.8625,127.6 139.3625,127.4375 Q139.65,127.35 139.975,127.0625 Q140.1875,126.9 140.3,126.85 Q140.4125,126.8 140.55,126.8 Q140.8125,126.8 141,127.0125 Q141.2,127.2125 141.2,127.5 Q141.2,127.775 140.925,128.1 Q140.525,128.575 139.8875,128.8375 Q139.05,129.2 138.025,129.2 Q136.825,129.2 135.8625,128.725 Q135.0875,128.35 134.5375,127.5375 Q134,126.725 134,125.7625 L134,124.8875 Q134,123.8875 134.475,123.0125 Q134.9625,122.1375 135.8,121.675 Q136.65,121.2 137.6,121.2 Q138.175,121.2 138.675,121.4 Q139.175,121.6 139.6,122 Z " fill="#000000"/><text fill="#000000" font-family="sans-serif" font-size="9.6" lengthAdjust="spacing" textLength="135.2" x="149.2" y="128.7281">VaccinationCenterReceptionist</text><line style="stroke:#A80036;stroke-width:1.2000000000000002;" x1="126.8" x2="286" y1="137.6" y2="137.6"/><line style="stroke:#A80036;stroke-width:1.2000000000000002;" x1="126.8" x2="286" y1="144" y2="144"/><!--MD5=[c31be3a8ea7c810a9822a3f906ad678a]
class HealthCareCenterReceptionist--><rect codeLine="9" fill="#FEFECE" filter="url(#f70y0f9q4xqv8)" height="38.4" id="HealthCareCenterReceptionist" style="stroke:#A80036;stroke-width:1.2000000000000002;" width="160.8" x="866.8" y="112"/><ellipse cx="878.8" cy="124.8" fill="#ADD1B2" rx="8.8" ry="8.8" style="stroke:#A80036;stroke-width:0.8000000000000002;"/><path d="M880.4,122 Q880.5625,121.6 880.75,121.4 Q880.9375,121.2 881.15,121.2 Q881.525,121.2 881.7625,121.425 Q882,121.65 882,122.175 L882,123.425 Q882,123.95 881.775,124.175 Q881.55,124.4 881.2,124.4 Q880.8875,124.4 880.6875,124.2625 Q880.4875,124.125 880.4,123.7625 Q880.3625,123.5125 880.225,123.375 Q879.975,123.1125 879.525,122.9625 Q879.075,122.8 878.625,122.8 Q878.0625,122.8 877.5875,123.025 Q877.125,123.25 876.7625,123.75 Q876.4,124.25 876.4,124.9375 L876.4,125.675 Q876.4,126.5 877.075,127.05 Q877.75,127.6 878.95,127.6 Q879.6625,127.6 880.1625,127.4375 Q880.45,127.35 880.775,127.0625 Q880.9875,126.9 881.1,126.85 Q881.2125,126.8 881.35,126.8 Q881.6125,126.8 881.8,127.0125 Q882,127.2125 882,127.5 Q882,127.775 881.725,128.1 Q881.325,128.575 880.6875,128.8375 Q879.85,129.2 878.825,129.2 Q877.625,129.2 876.6625,128.725 Q875.8875,128.35 875.3375,127.5375 Q874.8,126.725 874.8,125.7625 L874.8,124.8875 Q874.8,123.8875 875.275,123.0125 Q875.7625,122.1375 876.6,121.675 Q877.45,121.2 878.4,121.2 Q878.975,121.2 879.475,121.4 Q879.975,121.6 880.4,122 Z " fill="#000000"/><text fill="#000000" font-family="sans-serif" font-size="9.6" lengthAdjust="spacing" textLength="135.2" x="890" y="128.7281">HealthCareCenterReceptionist</text><line style="stroke:#A80036;stroke-width:1.2000000000000002;" x1="867.6" x2="1026.8" y1="137.6" y2="137.6"/><line style="stroke:#A80036;stroke-width:1.2000000000000002;" x1="867.6" x2="1026.8" y1="144" y2="144"/><!--MD5=[f082b347be438956eae752ed2dcedd8d]
class VaccinationCertificate--><rect codeLine="15" fill="#FEFECE" filter="url(#f70y0f9q4xqv8)" height="38.4" id="VaccinationCertificate" style="stroke:#A80036;stroke-width:1.2000000000000002;" width="120" x="558.4" y="279.2"/><ellipse cx="570.4" cy="292" fill="#ADD1B2" rx="8.8" ry="8.8" style="stroke:#A80036;stroke-width:0.8000000000000002;"/><path d="M572,289.2 Q572.1625,288.8 572.35,288.6 Q572.5375,288.4 572.75,288.4 Q573.125,288.4 573.3625,288.625 Q573.6,288.85 573.6,289.375 L573.6,290.625 Q573.6,291.15 573.375,291.375 Q573.15,291.6 572.8,291.6 Q572.4875,291.6 572.2875,291.4625 Q572.0875,291.325 572,290.9625 Q571.9625,290.7125 571.825,290.575 Q571.575,290.3125 571.125,290.1625 Q570.675,290 570.225,290 Q569.6625,290 569.1875,290.225 Q568.725,290.45 568.3625,290.95 Q568,291.45 568,292.1375 L568,292.875 Q568,293.7 568.675,294.25 Q569.35,294.8 570.55,294.8 Q571.2625,294.8 571.7625,294.6375 Q572.05,294.55 572.375,294.2625 Q572.5875,294.1 572.7,294.05 Q572.8125,294 572.95,294 Q573.2125,294 573.4,294.2125 Q573.6,294.4125 573.6,294.7 Q573.6,294.975 573.325,295.3 Q572.925,295.775 572.2875,296.0375 Q571.45,296.4 570.425,296.4 Q569.225,296.4 568.2625,295.925 Q567.4875,295.55 566.9375,294.7375 Q566.4,293.925 566.4,292.9625 L566.4,292.0875 Q566.4,291.0875 566.875,290.2125 Q567.3625,289.3375 568.2,288.875 Q569.05,288.4 570,288.4 Q570.575,288.4 571.075,288.6 Q571.575,288.8 572,289.2 Z " fill="#000000"/><text fill="#000000" font-family="sans-serif" font-size="9.6" lengthAdjust="spacing" textLength="94.4" x="581.6" y="295.9281">VaccinationCertificate</text><line style="stroke:#A80036;stroke-width:1.2000000000000002;" x1="559.2" x2="677.6" y1="304.8" y2="304.8"/><line style="stroke:#A80036;stroke-width:1.2000000000000002;" x1="559.2" x2="677.6" y1="311.2" y2="311.2"/><!--MD5=[3fd616f346a44cd59a91eb10b19e157c]
class User--><rect codeLine="24" fill="#FEFECE" filter="url(#f70y0f9q4xqv8)" height="82.675" id="User" style="stroke:#A80036;stroke-width:1.2000000000000002;" width="68.8" x="449.6" y="440.8"/><ellipse cx="471.32" cy="453.6" fill="#ADD1B2" rx="8.8" ry="8.8" style="stroke:#A80036;stroke-width:0.8000000000000002;"/><path d="M472.92,450.8 Q473.0825,450.4 473.27,450.2 Q473.4575,450 473.67,450 Q474.045,450 474.2825,450.225 Q474.52,450.45 474.52,450.975 L474.52,452.225 Q474.52,452.75 474.295,452.975 Q474.07,453.2 473.72,453.2 Q473.4075,453.2 473.2075,453.0625 Q473.0075,452.925 472.92,452.5625 Q472.8825,452.3125 472.745,452.175 Q472.495,451.9125 472.045,451.7625 Q471.595,451.6 471.145,451.6 Q470.5825,451.6 470.1075,451.825 Q469.645,452.05 469.2825,452.55 Q468.92,453.05 468.92,453.7375 L468.92,454.475 Q468.92,455.3 469.595,455.85 Q470.27,456.4 471.47,456.4 Q472.1825,456.4 472.6825,456.2375 Q472.97,456.15 473.295,455.8625 Q473.5075,455.7 473.62,455.65 Q473.7325,455.6 473.87,455.6 Q474.1325,455.6 474.32,455.8125 Q474.52,456.0125 474.52,456.3 Q474.52,456.575 474.245,456.9 Q473.845,457.375 473.2075,457.6375 Q472.37,458 471.345,458 Q470.145,458 469.1825,457.525 Q468.4075,457.15 467.8575,456.3375 Q467.32,455.525 467.32,454.5625 L467.32,453.6875 Q467.32,452.6875 467.795,451.8125 Q468.2825,450.9375 469.12,450.475 Q469.97,450 470.92,450 Q471.495,450 471.995,450.2 Q472.495,450.4 472.92,450.8 Z " fill="#000000"/><text fill="#000000" font-family="sans-serif" font-size="9.6" lengthAdjust="spacing" textLength="21.6" x="484.68" y="457.5281">User</text><line style="stroke:#A80036;stroke-width:1.2000000000000002;" x1="450.4" x2="517.6" y1="466.4" y2="466.4"/><rect fill="none" height="4.8" style="stroke:#C82930;stroke-width:0.8000000000000002;" width="4.8" x="456" y="472.8"/><text fill="#000000" font-family="sans-serif" font-size="8.8" lengthAdjust="spacing" textLength="20.8" x="465.6" y="478.7352">name</text><rect fill="none" height="4.8" style="stroke:#C82930;stroke-width:0.8000000000000002;" width="4.8" x="456" y="483.8688"/><text fill="#000000" font-family="sans-serif" font-size="8.8" lengthAdjust="spacing" textLength="16" x="465.6" y="489.8039">Age</text><rect fill="none" height="4.8" style="stroke:#C82930;stroke-width:0.8000000000000002;" width="4.8" x="456" y="494.9375"/><text fill="#000000" font-family="sans-serif" font-size="8.8" lengthAdjust="spacing" textLength="14.4" x="465.6" y="500.8727">sex</text><rect fill="none" height="4.8" style="stroke:#C82930;stroke-width:0.8000000000000002;" width="4.8" x="456" y="506.0063"/><text fill="#000000" font-family="sans-serif" font-size="8.8" lengthAdjust="spacing" textLength="48" x="465.6" y="511.9414">SNS number</text><line style="stroke:#A80036;stroke-width:1.2000000000000002;" x1="450.4" x2="517.6" y1="517.075" y2="517.075"/><!--MD5=[aaa7e27c4ec43917c82a021675d2c87a]
class WaitingRoom--><rect codeLine="12" fill="#FEFECE" filter="url(#f70y0f9q4xqv8)" height="38.4" id="WaitingRoom" style="stroke:#A80036;stroke-width:1.2000000000000002;" width="85.6" x="323.6" y="279.2"/><ellipse cx="335.6" cy="292" fill="#ADD1B2" rx="8.8" ry="8.8" style="stroke:#A80036;stroke-width:0.8000000000000002;"/><path d="M337.2,289.2 Q337.3625,288.8 337.55,288.6 Q337.7375,288.4 337.95,288.4 Q338.325,288.4 338.5625,288.625 Q338.8,288.85 338.8,289.375 L338.8,290.625 Q338.8,291.15 338.575,291.375 Q338.35,291.6 338,291.6 Q337.6875,291.6 337.4875,291.4625 Q337.2875,291.325 337.2,290.9625 Q337.1625,290.7125 337.025,290.575 Q336.775,290.3125 336.325,290.1625 Q335.875,290 335.425,290 Q334.8625,290 334.3875,290.225 Q333.925,290.45 333.5625,290.95 Q333.2,291.45 333.2,292.1375 L333.2,292.875 Q333.2,293.7 333.875,294.25 Q334.55,294.8 335.75,294.8 Q336.4625,294.8 336.9625,294.6375 Q337.25,294.55 337.575,294.2625 Q337.7875,294.1 337.9,294.05 Q338.0125,294 338.15,294 Q338.4125,294 338.6,294.2125 Q338.8,294.4125 338.8,294.7 Q338.8,294.975 338.525,295.3 Q338.125,295.775 337.4875,296.0375 Q336.65,296.4 335.625,296.4 Q334.425,296.4 333.4625,295.925 Q332.6875,295.55 332.1375,294.7375 Q331.6,293.925 331.6,292.9625 L331.6,292.0875 Q331.6,291.0875 332.075,290.2125 Q332.5625,289.3375 333.4,288.875 Q334.25,288.4 335.2,288.4 Q335.775,288.4 336.275,288.6 Q336.775,288.8 337.2,289.2 Z " fill="#000000"/><text fill="#000000" font-family="sans-serif" font-size="9.6" lengthAdjust="spacing" textLength="60" x="346.8" y="295.9281">WaitingRoom</text><line style="stroke:#A80036;stroke-width:1.2000000000000002;" x1="324.4" x2="408.4" y1="304.8" y2="304.8"/><line style="stroke:#A80036;stroke-width:1.2000000000000002;" x1="324.4" x2="408.4" y1="311.2" y2="311.2"/><!--MD5=[f24502e7c9b1056c4d1f73c3d80dda4c]
class RecoveryRoom--><rect codeLine="13" fill="#FEFECE" filter="url(#f70y0f9q4xqv8)" height="38.4" id="RecoveryRoom" style="stroke:#A80036;stroke-width:1.2000000000000002;" width="92.8" x="437.6" y="279.2"/><ellipse cx="449.6" cy="292" fill="#ADD1B2" rx="8.8" ry="8.8" style="stroke:#A80036;stroke-width:0.8000000000000002;"/><path d="M451.2,289.2 Q451.3625,288.8 451.55,288.6 Q451.7375,288.4 451.95,288.4 Q452.325,288.4 452.5625,288.625 Q452.8,288.85 452.8,289.375 L452.8,290.625 Q452.8,291.15 452.575,291.375 Q452.35,291.6 452,291.6 Q451.6875,291.6 451.4875,291.4625 Q451.2875,291.325 451.2,290.9625 Q451.1625,290.7125 451.025,290.575 Q450.775,290.3125 450.325,290.1625 Q449.875,290 449.425,290 Q448.8625,290 448.3875,290.225 Q447.925,290.45 447.5625,290.95 Q447.2,291.45 447.2,292.1375 L447.2,292.875 Q447.2,293.7 447.875,294.25 Q448.55,294.8 449.75,294.8 Q450.4625,294.8 450.9625,294.6375 Q451.25,294.55 451.575,294.2625 Q451.7875,294.1 451.9,294.05 Q452.0125,294 452.15,294 Q452.4125,294 452.6,294.2125 Q452.8,294.4125 452.8,294.7 Q452.8,294.975 452.525,295.3 Q452.125,295.775 451.4875,296.0375 Q450.65,296.4 449.625,296.4 Q448.425,296.4 447.4625,295.925 Q446.6875,295.55 446.1375,294.7375 Q445.6,293.925 445.6,292.9625 L445.6,292.0875 Q445.6,291.0875 446.075,290.2125 Q446.5625,289.3375 447.4,288.875 Q448.25,288.4 449.2,288.4 Q449.775,288.4 450.275,288.6 Q450.775,288.8 451.2,289.2 Z " fill="#000000"/><text fill="#000000" font-family="sans-serif" font-size="9.6" lengthAdjust="spacing" textLength="67.2" x="460.8" y="295.9281">RecoveryRoom</text><line style="stroke:#A80036;stroke-width:1.2000000000000002;" x1="438.4" x2="529.6" y1="304.8" y2="304.8"/><line style="stroke:#A80036;stroke-width:1.2000000000000002;" x1="438.4" x2="529.6" y1="311.2" y2="311.2"/><!--MD5=[1db03e903fe0a044a2ca0dcbef10799a]
class HealthCareCenter--><rect codeLine="14" fill="#FEFECE" filter="url(#f70y0f9q4xqv8)" height="38.4" id="HealthCareCenter" style="stroke:#A80036;stroke-width:1.2000000000000002;" width="105.6" x="706.4" y="279.2"/><ellipse cx="718.4" cy="292" fill="#ADD1B2" rx="8.8" ry="8.8" style="stroke:#A80036;stroke-width:0.8000000000000002;"/><path d="M720,289.2 Q720.1625,288.8 720.35,288.6 Q720.5375,288.4 720.75,288.4 Q721.125,288.4 721.3625,288.625 Q721.6,288.85 721.6,289.375 L721.6,290.625 Q721.6,291.15 721.375,291.375 Q721.15,291.6 720.8,291.6 Q720.4875,291.6 720.2875,291.4625 Q720.0875,291.325 720,290.9625 Q719.9625,290.7125 719.825,290.575 Q719.575,290.3125 719.125,290.1625 Q718.675,290 718.225,290 Q717.6625,290 717.1875,290.225 Q716.725,290.45 716.3625,290.95 Q716,291.45 716,292.1375 L716,292.875 Q716,293.7 716.675,294.25 Q717.35,294.8 718.55,294.8 Q719.2625,294.8 719.7625,294.6375 Q720.05,294.55 720.375,294.2625 Q720.5875,294.1 720.7,294.05 Q720.8125,294 720.95,294 Q721.2125,294 721.4,294.2125 Q721.6,294.4125 721.6,294.7 Q721.6,294.975 721.325,295.3 Q720.925,295.775 720.2875,296.0375 Q719.45,296.4 718.425,296.4 Q717.225,296.4 716.2625,295.925 Q715.4875,295.55 714.9375,294.7375 Q714.4,293.925 714.4,292.9625 L714.4,292.0875 Q714.4,291.0875 714.875,290.2125 Q715.3625,289.3375 716.2,288.875 Q717.05,288.4 718,288.4 Q718.575,288.4 719.075,288.6 Q719.575,288.8 720,289.2 Z " fill="#000000"/><text fill="#000000" font-family="sans-serif" font-size="9.6" lengthAdjust="spacing" textLength="80" x="729.6" y="295.9281">HealthCareCenter</text><line style="stroke:#A80036;stroke-width:1.2000000000000002;" x1="707.2" x2="811.2" y1="304.8" y2="304.8"/><line style="stroke:#A80036;stroke-width:1.2000000000000002;" x1="707.2" x2="811.2" y1="311.2" y2="311.2"/><!--MD5=[76b5e19c9337179d2d7ae334371d68c8]
class Notification--><rect codeLine="16" fill="#FEFECE" filter="url(#f70y0f9q4xqv8)" height="38.4" id="Notification" style="stroke:#A80036;stroke-width:1.2000000000000002;" width="74.4" x="441.2" y="624.4"/><ellipse cx="453.2" cy="637.2" fill="#ADD1B2" rx="8.8" ry="8.8" style="stroke:#A80036;stroke-width:0.8000000000000002;"/><path d="M454.8,634.4 Q454.9625,634 455.15,633.8 Q455.3375,633.6 455.55,633.6 Q455.925,633.6 456.1625,633.825 Q456.4,634.05 456.4,634.575 L456.4,635.825 Q456.4,636.35 456.175,636.575 Q455.95,636.8 455.6,636.8 Q455.2875,636.8 455.0875,636.6625 Q454.8875,636.525 454.8,636.1625 Q454.7625,635.9125 454.625,635.775 Q454.375,635.5125 453.925,635.3625 Q453.475,635.2 453.025,635.2 Q452.4625,635.2 451.9875,635.425 Q451.525,635.65 451.1625,636.15 Q450.8,636.65 450.8,637.3375 L450.8,638.075 Q450.8,638.9 451.475,639.45 Q452.15,640 453.35,640 Q454.0625,640 454.5625,639.8375 Q454.85,639.75 455.175,639.4625 Q455.3875,639.3 455.5,639.25 Q455.6125,639.2 455.75,639.2 Q456.0125,639.2 456.2,639.4125 Q456.4,639.6125 456.4,639.9 Q456.4,640.175 456.125,640.5 Q455.725,640.975 455.0875,641.2375 Q454.25,641.6 453.225,641.6 Q452.025,641.6 451.0625,641.125 Q450.2875,640.75 449.7375,639.9375 Q449.2,639.125 449.2,638.1625 L449.2,637.2875 Q449.2,636.2875 449.675,635.4125 Q450.1625,634.5375 451,634.075 Q451.85,633.6 452.8,633.6 Q453.375,633.6 453.875,633.8 Q454.375,634 454.8,634.4 Z " fill="#000000"/><text fill="#000000" font-family="sans-serif" font-size="9.6" lengthAdjust="spacing" textLength="48.8" x="464.4" y="641.1281">Notification</text><line style="stroke:#A80036;stroke-width:1.2000000000000002;" x1="442" x2="514.8" y1="650" y2="650"/><line style="stroke:#A80036;stroke-width:1.2000000000000002;" x1="442" x2="514.8" y1="656.4" y2="656.4"/><!--MD5=[7e2bc2f128e759c5889ccd6a2666d576]
class EmailNotification--><rect codeLine="17" fill="#FEFECE" filter="url(#f70y0f9q4xqv8)" height="38.4" id="EmailNotification" style="stroke:#A80036;stroke-width:1.2000000000000002;" width="100" x="458.8" y="764"/><ellipse cx="470.8" cy="776.8" fill="#ADD1B2" rx="8.8" ry="8.8" style="stroke:#A80036;stroke-width:0.8000000000000002;"/><path d="M472.4,774 Q472.5625,773.6 472.75,773.4 Q472.9375,773.2 473.15,773.2 Q473.525,773.2 473.7625,773.425 Q474,773.65 474,774.175 L474,775.425 Q474,775.95 473.775,776.175 Q473.55,776.4 473.2,776.4 Q472.8875,776.4 472.6875,776.2625 Q472.4875,776.125 472.4,775.7625 Q472.3625,775.5125 472.225,775.375 Q471.975,775.1125 471.525,774.9625 Q471.075,774.8 470.625,774.8 Q470.0625,774.8 469.5875,775.025 Q469.125,775.25 468.7625,775.75 Q468.4,776.25 468.4,776.9375 L468.4,777.675 Q468.4,778.5 469.075,779.05 Q469.75,779.6 470.95,779.6 Q471.6625,779.6 472.1625,779.4375 Q472.45,779.35 472.775,779.0625 Q472.9875,778.9 473.1,778.85 Q473.2125,778.8 473.35,778.8 Q473.6125,778.8 473.8,779.0125 Q474,779.2125 474,779.5 Q474,779.775 473.725,780.1 Q473.325,780.575 472.6875,780.8375 Q471.85,781.2 470.825,781.2 Q469.625,781.2 468.6625,780.725 Q467.8875,780.35 467.3375,779.5375 Q466.8,778.725 466.8,777.7625 L466.8,776.8875 Q466.8,775.8875 467.275,775.0125 Q467.7625,774.1375 468.6,773.675 Q469.45,773.2 470.4,773.2 Q470.975,773.2 471.475,773.4 Q471.975,773.6 472.4,774 Z " fill="#000000"/><text fill="#000000" font-family="sans-serif" font-size="9.6" lengthAdjust="spacing" textLength="74.4" x="482" y="780.7281">EmailNotification</text><line style="stroke:#A80036;stroke-width:1.2000000000000002;" x1="459.6" x2="558" y1="789.6" y2="789.6"/><line style="stroke:#A80036;stroke-width:1.2000000000000002;" x1="459.6" x2="558" y1="796" y2="796"/><!--MD5=[17d776304760d17bcc13ba401441cbdd]
class SMSNotification--><rect codeLine="18" fill="#FEFECE" filter="url(#f70y0f9q4xqv8)" height="38.4" id="SMSNotification" style="stroke:#A80036;stroke-width:1.2000000000000002;" width="94.4" x="336" y="764"/><ellipse cx="348" cy="776.8" fill="#ADD1B2" rx="8.8" ry="8.8" style="stroke:#A80036;stroke-width:0.8000000000000002;"/><path d="M349.6,774 Q349.7625,773.6 349.95,773.4 Q350.1375,773.2 350.35,773.2 Q350.725,773.2 350.9625,773.425 Q351.2,773.65 351.2,774.175 L351.2,775.425 Q351.2,775.95 350.975,776.175 Q350.75,776.4 350.4,776.4 Q350.0875,776.4 349.8875,776.2625 Q349.6875,776.125 349.6,775.7625 Q349.5625,775.5125 349.425,775.375 Q349.175,775.1125 348.725,774.9625 Q348.275,774.8 347.825,774.8 Q347.2625,774.8 346.7875,775.025 Q346.325,775.25 345.9625,775.75 Q345.6,776.25 345.6,776.9375 L345.6,777.675 Q345.6,778.5 346.275,779.05 Q346.95,779.6 348.15,779.6 Q348.8625,779.6 349.3625,779.4375 Q349.65,779.35 349.975,779.0625 Q350.1875,778.9 350.3,778.85 Q350.4125,778.8 350.55,778.8 Q350.8125,778.8 351,779.0125 Q351.2,779.2125 351.2,779.5 Q351.2,779.775 350.925,780.1 Q350.525,780.575 349.8875,780.8375 Q349.05,781.2 348.025,781.2 Q346.825,781.2 345.8625,780.725 Q345.0875,780.35 344.5375,779.5375 Q344,778.725 344,777.7625 L344,776.8875 Q344,775.8875 344.475,775.0125 Q344.9625,774.1375 345.8,773.675 Q346.65,773.2 347.6,773.2 Q348.175,773.2 348.675,773.4 Q349.175,773.6 349.6,774 Z " fill="#000000"/><text fill="#000000" font-family="sans-serif" font-size="9.6" lengthAdjust="spacing" textLength="68.8" x="359.2" y="780.7281">SMSNotification</text><line style="stroke:#A80036;stroke-width:1.2000000000000002;" x1="336.8" x2="429.6" y1="789.6" y2="789.6"/><line style="stroke:#A80036;stroke-width:1.2000000000000002;" x1="336.8" x2="429.6" y1="796" y2="796"/><!--MD5=[0e501da62322464167c8ec4d233a6b7e]
class VaccineType--><rect codeLine="19" fill="#FEFECE" filter="url(#f70y0f9q4xqv8)" height="38.4" id="VaccineType" style="stroke:#A80036;stroke-width:1.2000000000000002;" width="80.8" x="731.6" y="864.8"/><ellipse cx="743.6" cy="877.6" fill="#ADD1B2" rx="8.8" ry="8.8" style="stroke:#A80036;stroke-width:0.8000000000000002;"/><path d="M745.2,874.8 Q745.3625,874.4 745.55,874.2 Q745.7375,874 745.95,874 Q746.325,874 746.5625,874.225 Q746.8,874.45 746.8,874.975 L746.8,876.225 Q746.8,876.75 746.575,876.975 Q746.35,877.2 746,877.2 Q745.6875,877.2 745.4875,877.0625 Q745.2875,876.925 745.2,876.5625 Q745.1625,876.3125 745.025,876.175 Q744.775,875.9125 744.325,875.7625 Q743.875,875.6 743.425,875.6 Q742.8625,875.6 742.3875,875.825 Q741.925,876.05 741.5625,876.55 Q741.2,877.05 741.2,877.7375 L741.2,878.475 Q741.2,879.3 741.875,879.85 Q742.55,880.4 743.75,880.4 Q744.4625,880.4 744.9625,880.2375 Q745.25,880.15 745.575,879.8625 Q745.7875,879.7 745.9,879.65 Q746.0125,879.6 746.15,879.6 Q746.4125,879.6 746.6,879.8125 Q746.8,880.0125 746.8,880.3 Q746.8,880.575 746.525,880.9 Q746.125,881.375 745.4875,881.6375 Q744.65,882 743.625,882 Q742.425,882 741.4625,881.525 Q740.6875,881.15 740.1375,880.3375 Q739.6,879.525 739.6,878.5625 L739.6,877.6875 Q739.6,876.6875 740.075,875.8125 Q740.5625,874.9375 741.4,874.475 Q742.25,874 743.2,874 Q743.775,874 744.275,874.2 Q744.775,874.4 745.2,874.8 Z " fill="#000000"/><text fill="#000000" font-family="sans-serif" font-size="9.6" lengthAdjust="spacing" textLength="55.2" x="754.8" y="881.5281">VaccineType</text><line style="stroke:#A80036;stroke-width:1.2000000000000002;" x1="732.4" x2="811.6" y1="890.4" y2="890.4"/><line style="stroke:#A80036;stroke-width:1.2000000000000002;" x1="732.4" x2="811.6" y1="896.8" y2="896.8"/><!--MD5=[cd4ce1c0d44638ff9f42448de30e6b92]
class VaccineSchedule--><rect codeLine="20" fill="#FEFECE" filter="url(#f70y0f9q4xqv8)" height="38.4" id="VaccineSchedule" style="stroke:#A80036;stroke-width:1.2000000000000002;" width="101.6" x="721.2" y="764"/><ellipse cx="733.2" cy="776.8" fill="#ADD1B2" rx="8.8" ry="8.8" style="stroke:#A80036;stroke-width:0.8000000000000002;"/><path d="M734.8,774 Q734.9625,773.6 735.15,773.4 Q735.3375,773.2 735.55,773.2 Q735.925,773.2 736.1625,773.425 Q736.4,773.65 736.4,774.175 L736.4,775.425 Q736.4,775.95 736.175,776.175 Q735.95,776.4 735.6,776.4 Q735.2875,776.4 735.0875,776.2625 Q734.8875,776.125 734.8,775.7625 Q734.7625,775.5125 734.625,775.375 Q734.375,775.1125 733.925,774.9625 Q733.475,774.8 733.025,774.8 Q732.4625,774.8 731.9875,775.025 Q731.525,775.25 731.1625,775.75 Q730.8,776.25 730.8,776.9375 L730.8,777.675 Q730.8,778.5 731.475,779.05 Q732.15,779.6 733.35,779.6 Q734.0625,779.6 734.5625,779.4375 Q734.85,779.35 735.175,779.0625 Q735.3875,778.9 735.5,778.85 Q735.6125,778.8 735.75,778.8 Q736.0125,778.8 736.2,779.0125 Q736.4,779.2125 736.4,779.5 Q736.4,779.775 736.125,780.1 Q735.725,780.575 735.0875,780.8375 Q734.25,781.2 733.225,781.2 Q732.025,781.2 731.0625,780.725 Q730.2875,780.35 729.7375,779.5375 Q729.2,778.725 729.2,777.7625 L729.2,776.8875 Q729.2,775.8875 729.675,775.0125 Q730.1625,774.1375 731,773.675 Q731.85,773.2 732.8,773.2 Q733.375,773.2 733.875,773.4 Q734.375,773.6 734.8,774 Z " fill="#000000"/><text fill="#000000" font-family="sans-serif" font-size="9.6" lengthAdjust="spacing" textLength="76" x="744.4" y="780.7281">VaccineSchedule</text><line style="stroke:#A80036;stroke-width:1.2000000000000002;" x1="722" x2="822" y1="789.6" y2="789.6"/><line style="stroke:#A80036;stroke-width:1.2000000000000002;" x1="722" x2="822" y1="796" y2="796"/><!--MD5=[19e445fc4d3b48519cbe33da05496394]
class Vaccine--><rect codeLine="21" fill="#FEFECE" filter="url(#f70y0f9q4xqv8)" height="38.4" id="Vaccine" style="stroke:#A80036;stroke-width:1.2000000000000002;" width="60" x="867.6" y="462.8"/><ellipse cx="879.6" cy="475.6" fill="#ADD1B2" rx="8.8" ry="8.8" style="stroke:#A80036;stroke-width:0.8000000000000002;"/><path d="M881.2,472.8 Q881.3625,472.4 881.55,472.2 Q881.7375,472 881.95,472 Q882.325,472 882.5625,472.225 Q882.8,472.45 882.8,472.975 L882.8,474.225 Q882.8,474.75 882.575,474.975 Q882.35,475.2 882,475.2 Q881.6875,475.2 881.4875,475.0625 Q881.2875,474.925 881.2,474.5625 Q881.1625,474.3125 881.025,474.175 Q880.775,473.9125 880.325,473.7625 Q879.875,473.6 879.425,473.6 Q878.8625,473.6 878.3875,473.825 Q877.925,474.05 877.5625,474.55 Q877.2,475.05 877.2,475.7375 L877.2,476.475 Q877.2,477.3 877.875,477.85 Q878.55,478.4 879.75,478.4 Q880.4625,478.4 880.9625,478.2375 Q881.25,478.15 881.575,477.8625 Q881.7875,477.7 881.9,477.65 Q882.0125,477.6 882.15,477.6 Q882.4125,477.6 882.6,477.8125 Q882.8,478.0125 882.8,478.3 Q882.8,478.575 882.525,478.9 Q882.125,479.375 881.4875,479.6375 Q880.65,480 879.625,480 Q878.425,480 877.4625,479.525 Q876.6875,479.15 876.1375,478.3375 Q875.6,477.525 875.6,476.5625 L875.6,475.6875 Q875.6,474.6875 876.075,473.8125 Q876.5625,472.9375 877.4,472.475 Q878.25,472 879.2,472 Q879.775,472 880.275,472.2 Q880.775,472.4 881.2,472.8 Z " fill="#000000"/><text fill="#000000" font-family="sans-serif" font-size="9.6" lengthAdjust="spacing" textLength="34.4" x="890.8" y="479.5281">Vaccine</text><line style="stroke:#A80036;stroke-width:1.2000000000000002;" x1="868.4" x2="926.8" y1="488.4" y2="488.4"/><line style="stroke:#A80036;stroke-width:1.2000000000000002;" x1="868.4" x2="926.8" y1="494.8" y2="494.8"/><!--MD5=[a069fefa93fe627f96a6b9d57d25b567]
reverse link Notification to EmailNotification--><path d="M485.96,678.712 C491.896,705.656 499.928,742.128 504.72,763.864 " fill="none" id="Notification-backto-EmailNotification" style="stroke:#A80036;stroke-width:0.8000000000000002;"/><polygon fill="none" points="480.472,679.84,482.496,663.008,491.408,677.432,480.472,679.84" style="stroke:#A80036;stroke-width:0.8000000000000002;"/><!--MD5=[0e746bf0fb50d7a50210c7c405534661]
reverse link Notification to SMSNotification--><path d="M456.296,676.44 C437.584,703.568 411.408,741.512 395.984,763.864 " fill="none" id="Notification-backto-SMSNotification" style="stroke:#A80036;stroke-width:0.8000000000000002;"/><polygon fill="none" points="451.864,673,465.56,663.008,461.088,679.36,451.864,673" style="stroke:#A80036;stroke-width:0.8000000000000002;"/><!--MD5=[ee48e7f218e419c69ba71c5a6bf84314]
link Organization to VaccinationCenter--><path codeLine="60" d="M314.536,150.944 C309.952,152.776 305.312,154.512 300.8,156 C255.104,171.12 236.36,155.056 195.2,180 C178.696,190 163.568,203.68 150.344,218.176 " fill="none" id="Organization-VaccinationCenter" style="stroke:#A80036;stroke-width:0.8000000000000002;"/><polygon fill="#000000" points="195.4983,188.8564,203.0857,188.2902,201.3038,183.9386,195.4983,188.8564" style="stroke:#000000;stroke-width:0.8000000000000002;"/><text fill="#000000" font-family="sans-serif" font-size="10.4" lengthAdjust="spacing" textLength="24" x="206.4" y="191.5961">owns</text><text fill="#000000" font-family="sans-serif" font-size="10.4" lengthAdjust="spacing" textLength="5.6" x="302.8239" y="150.8456">1</text><text fill="#000000" font-family="sans-serif" font-size="10.4" lengthAdjust="spacing" textLength="4" x="150.2468" y="209.8152">*</text><!--MD5=[bbb149af325460066d11105b9f97218b]
link Organization to HealthCareCenter--><path codeLine="61" d="M389.84,156.112 C411.168,169.696 439.616,185.648 467.2,194.4 C563.312,224.888 603.808,170.984 692.8,218.4 C718.456,232.072 738.232,260.152 749.296,278.936 " fill="none" id="Organization-HealthCareCenter" style="stroke:#A80036;stroke-width:0.8000000000000002;"/><polygon fill="#000000" points="474.9851,188.634,468.898,184.0694,467.3775,188.5191,474.9851,188.634" style="stroke:#000000;stroke-width:0.8000000000000002;"/><text fill="#000000" font-family="sans-serif" font-size="10.4" lengthAdjust="spacing" textLength="42.4" x="478.4" y="191.5961">manages</text><text fill="#000000" font-family="sans-serif" font-size="10.4" lengthAdjust="spacing" textLength="5.6" x="390.5085" y="173.1132">1</text><text fill="#000000" font-family="sans-serif" font-size="10.4" lengthAdjust="spacing" textLength="4" x="742.3944" y="270.662">*</text><!--MD5=[5b56195baf0749f3a826791092e1de57]
link CenterCoordinator to Organization--><path codeLine="62" d="M112.968,42.008 C162.264,57.424 237.072,81.744 300.8,106.4 C305.328,108.152 310.024,110.064 314.672,112.032 " fill="none" id="CenterCoordinator-Organization" style="stroke:#A80036;stroke-width:0.8000000000000002;"/><polygon fill="#000000" points="242.1788,76.6525,236.114,72.0582,234.5718,76.5004,242.1788,76.6525" style="stroke:#000000;stroke-width:0.8000000000000002;"/><text fill="#000000" font-family="sans-serif" font-size="10.4" lengthAdjust="spacing" textLength="41.6" x="245.6" y="79.5961">works for</text><text fill="#000000" font-family="sans-serif" font-size="10.4" lengthAdjust="spacing" textLength="5.6" x="119.1551" y="41.2016">1</text><text fill="#000000" font-family="sans-serif" font-size="10.4" lengthAdjust="spacing" textLength="4" x="304.4257" y="106.3031">*</text><!--MD5=[d5cf03d886352995267197dc535618ec]
link CenterCoordinator to VaccinationCenter--><path codeLine="63" d="M58.44,44.024 C57.512,75.256 57.144,140.464 67.2,194.4 C68.648,202.16 70.384,210.184 72.28,218.176 " fill="none" id="CenterCoordinator-VaccinationCenter" style="stroke:#A80036;stroke-width:0.8000000000000002;"/><polygon fill="#000000" points="65.9169,135.3281,67.6874,127.9285,62.9999,128.301,65.9169,135.3281" style="stroke:#000000;stroke-width:0.8000000000000002;"/><text fill="#000000" font-family="sans-serif" font-size="10.4" lengthAdjust="spacing" textLength="36.8" x="72.8" y="135.5961">controls</text><text fill="#000000" font-family="sans-serif" font-size="10.4" lengthAdjust="spacing" textLength="5.6" x="51.9723" y="61.1002">1</text><text fill="#000000" font-family="sans-serif" font-size="10.4" lengthAdjust="spacing" textLength="4" x="66.4499" y="209.8152">*</text><!--MD5=[03efd8c9f90c050219bacdb83332548b]
link Nurse to VaccinationCenter--><path codeLine="64" d="M526.152,136.52 C497.4,141.392 450.272,149.328 409.6,156 C343.152,166.896 323.576,157.816 260,180 C247.672,184.304 245.968,188.352 234.4,194.4 C212.696,205.744 205.184,204.832 184.8,218.4 C177.456,223.288 170.08,228.736 162.888,234.424 " fill="none" id="Nurse-VaccinationCenter" style="stroke:#A80036;stroke-width:0.8000000000000002;"/><polygon fill="#000000" points="260.1378,188.3815,267.7364,188.7687,266.5127,184.2284,260.1378,188.3815" style="stroke:#000000;stroke-width:0.8000000000000002;"/><text fill="#000000" font-family="sans-serif" font-size="10.4" lengthAdjust="spacing" textLength="38.4" x="271.2" y="191.5961">works in</text><text fill="#000000" font-family="sans-serif" font-size="10.4" lengthAdjust="spacing" textLength="16" x="503.9803" y="134.3488">1..*</text><text fill="#000000" font-family="sans-serif" font-size="10.4" lengthAdjust="spacing" textLength="5.6" x="169.1658" y="226.1578">1</text><!--MD5=[b3a837ec6bd4484894fbf67ce79a2dc5]
link Nurse to VaccinationEvent--><path codeLine="65" d="M579.28,136.336 C641.984,147.184 796.512,177.624 826.4,218.4 C868.304,275.584 817.48,483.432 788.904,585.48 " fill="none" id="Nurse-VaccinationEvent" style="stroke:#A80036;stroke-width:0.8000000000000002;"/><polygon fill="#000000" points="836.0917,413.3653,835.1619,405.8139,830.9009,407.8026,836.0917,413.3653" style="stroke:#000000;stroke-width:0.8000000000000002;"/><text fill="#000000" font-family="sans-serif" font-size="10.4" lengthAdjust="spacing" textLength="40" x="841.6" y="413.9961">performs</text><text fill="#000000" font-family="sans-serif" font-size="10.4" lengthAdjust="spacing" textLength="16" x="585.6373" y="134.125">1..*</text><text fill="#000000" font-family="sans-serif" font-size="10.4" lengthAdjust="spacing" textLength="4" x="786.441" y="576.8431">*</text><!--MD5=[b7c420a35f713cf1260bff9e1457387d]
link VaccinationCenterReceptionist to VaccinationCenter--><path codeLine="66" d="M125.744,146.424 C107.824,153.536 90.928,164.16 80,180 C72.224,191.272 69.512,204.616 69.768,218.208 " fill="none" id="VaccinationCenterReceptionist-VaccinationCenter" style="stroke:#A80036;stroke-width:0.8000000000000002;"/><polygon fill="#000000" points="81.5403,190.495,87.844,186.2345,84.1359,183.3429,81.5403,190.495" style="stroke:#000000;stroke-width:0.8000000000000002;"/><text fill="#000000" font-family="sans-serif" font-size="10.4" lengthAdjust="spacing" textLength="38.4" x="91.2" y="191.5961">works in</text><text fill="#000000" font-family="sans-serif" font-size="10.4" lengthAdjust="spacing" textLength="16" x="103.5104" y="145.0504">1..*</text><text fill="#000000" font-family="sans-serif" font-size="10.4" lengthAdjust="spacing" textLength="5.6" x="62.0947" y="209.8496">1</text><!--MD5=[e797ad53e8947513f393a847d09db6ff]
link VaccinationCenterReceptionist to User--><path codeLine="67" d="M206.072,150.6 C205.536,201.656 206.608,342.56 233.6,378.4 C286.048,448.032 393.96,470.728 449.424,477.944 " fill="none" id="VaccinationCenterReceptionist-User" style="stroke:#A80036;stroke-width:0.8000000000000002;"/><polygon fill="#000000" points="239.9864,301.7507,237.5562,294.5409,233.7825,297.3463,239.9864,301.7507" style="stroke:#000000;stroke-width:0.8000000000000002;"/><text fill="#000000" font-family="sans-serif" font-size="10.4" lengthAdjust="spacing" textLength="64" x="244.8" y="302.7961">register arrival</text><text fill="#000000" font-family="sans-serif" font-size="10.4" lengthAdjust="spacing" textLength="16" x="188.0421" y="167.7191">1..*</text><text fill="#000000" font-family="sans-serif" font-size="10.4" lengthAdjust="spacing" textLength="4" x="439.1375" y="474.1435">*</text><!--MD5=[6483f38138ae257a46277230ad2775ae]
link HealthCareCenterReceptionist to HealthCareCenter--><path codeLine="68" d="M926,150.672 C889.8,182.56 816.472,247.152 780.32,278.992 " fill="none" id="HealthCareCenterReceptionist-HealthCareCenter" style="stroke:#A80036;stroke-width:0.8000000000000002;"/><polygon fill="#000000" points="892.1984,189.9845,899.1824,186.9659,896.0743,183.4373,892.1984,189.9845" style="stroke:#000000;stroke-width:0.8000000000000002;"/><text fill="#000000" font-family="sans-serif" font-size="10.4" lengthAdjust="spacing" textLength="38.4" x="902.4" y="191.5961">works in</text><text fill="#000000" font-family="sans-serif" font-size="10.4" lengthAdjust="spacing" textLength="5.6" x="914.85" y="167.4835">1</text><text fill="#000000" font-family="sans-serif" font-size="10.4" lengthAdjust="spacing" textLength="4" x="781.2195" y="270.4108">*</text><!--MD5=[4d92649c501a5a935b23bbe7c781bbff]
link HealthCareCenterReceptionist to VaccineSchedule--><path codeLine="69" d="M954.12,150.576 C964.784,180.896 984,243.112 984,297.6 C984,297.6 984,297.6 984,555.2 C984,656.216 870.576,731.016 809.656,763.904 " fill="none" id="HealthCareCenterReceptionist-VaccineSchedule" style="stroke:#A80036;stroke-width:0.8000000000000002;"/><polygon fill="#000000" points="987.0829,486.0341,991.0304,479.5298,986.4534,478.4517,987.0829,486.0341" style="stroke:#000000;stroke-width:0.8000000000000002;"/><text fill="#000000" font-family="sans-serif" font-size="10.4" lengthAdjust="spacing" textLength="47.2" x="995.2" y="486.3961">schedules</text><text fill="#000000" font-family="sans-serif" font-size="10.4" lengthAdjust="spacing" textLength="16" x="937.8568" y="167.6893">1..*</text><text fill="#000000" font-family="sans-serif" font-size="10.4" lengthAdjust="spacing" textLength="4" x="814.7929" y="755.3515">*</text><!--MD5=[40456746cfb779ee6b30fa01c125bbbe]
link User to VaccineSchedule--><path codeLine="70" d="M518.648,519.496 C525.6,528.136 532.368,537.624 537.6,547.2 C572.112,610.352 538.24,648.12 586.4,701.6 C621.68,740.768 679.336,761.776 721.032,772.464 " fill="none" id="User-VaccineSchedule" style="stroke:#A80036;stroke-width:0.8000000000000002;"/><polygon fill="#000000" points="592.8989,646.864,590.2143,639.7449,586.5425,642.6825,592.8989,646.864" style="stroke:#000000;stroke-width:0.8000000000000002;"/><text fill="#000000" font-family="sans-serif" font-size="10.4" lengthAdjust="spacing" textLength="47.2" x="597.6" y="647.9961">schedules</text><text fill="#000000" font-family="sans-serif" font-size="10.4" lengthAdjust="spacing" textLength="5.6" x="524.8503" y="522.6429">1</text><text fill="#000000" font-family="sans-serif" font-size="10.4" lengthAdjust="spacing" textLength="4" x="710.9076" y="768.495">*</text><!--MD5=[37305fa66144d349c9b91992df7c98af]
link VaccinationCenterReceptionist to WaitingRoom--><path codeLine="71" d="M271.072,150.48 C287.552,157.608 304.16,167.224 316.8,180 C344.456,207.96 357.608,253.688 363.072,279.096 " fill="none" id="VaccinationCenterReceptionist-WaitingRoom" style="stroke:#A80036;stroke-width:0.8000000000000002;"/><polygon fill="#000000" points="333.5272,190.594,331.2296,183.3407,327.405,186.0765,333.5272,190.594" style="stroke:#000000;stroke-width:0.8000000000000002;"/><text fill="#000000" font-family="sans-serif" font-size="10.4" lengthAdjust="spacing" textLength="74.4" x="338.4" y="191.5961">sends patient to</text><text fill="#000000" font-family="sans-serif" font-size="10.4" lengthAdjust="spacing" textLength="16" x="268.8858" y="167.5699">1..*</text><text fill="#000000" font-family="sans-serif" font-size="10.4" lengthAdjust="spacing" textLength="4" x="357.7067" y="270.5415">*</text><!--MD5=[b79fcef14d46b9dd30f6db7aa057dfb2]
link VaccinationCertificate to VaccinationEvent--><path codeLine="72" d="M626.656,317.672 C648.936,367.504 710.96,506.264 746.368,585.464 " fill="none" id="VaccinationCertificate-VaccinationEvent" style="stroke:#A80036;stroke-width:0.8000000000000002;"/><polygon fill="#000000" points="723.2324,485.7924,722.4258,478.2268,718.1329,480.1458,723.2324,485.7924" style="stroke:#000000;stroke-width:0.8000000000000002;"/><text fill="#000000" font-family="sans-serif" font-size="10.4" lengthAdjust="spacing" textLength="40" x="728.8" y="486.3961">validates</text><text fill="#000000" font-family="sans-serif" font-size="10.4" lengthAdjust="spacing" textLength="5.6" x="622.3859" y="334.7599">1</text><text fill="#000000" font-family="sans-serif" font-size="10.4" lengthAdjust="spacing" textLength="5.6" x="737.836" y="576.8254">1</text><!--MD5=[da6369d9904787f9a0071813698018a1]
link Nurse to RecoveryRoom--><path codeLine="73" d="M545.04,150.672 C531.792,182.56 504.96,247.152 491.728,278.992 " fill="none" id="Nurse-RecoveryRoom" style="stroke:#A80036;stroke-width:0.8000000000000002;"/><polygon fill="#000000" points="534.4653,191.0345,539.4128,185.2543,535.0704,183.4502,534.4653,191.0345" style="stroke:#000000;stroke-width:0.8000000000000002;"/><text fill="#000000" font-family="sans-serif" font-size="10.4" lengthAdjust="spacing" textLength="74.4" x="543.2" y="191.5961">sends patient to</text><text fill="#000000" font-family="sans-serif" font-size="10.4" lengthAdjust="spacing" textLength="16" x="525.3955" y="167.4835">1..*</text><text fill="#000000" font-family="sans-serif" font-size="10.4" lengthAdjust="spacing" textLength="4" x="489.1958" y="270.4108">*</text><!--MD5=[2e2e530a658308b38e0151c4d25adf6b]
link User to Notification--><path codeLine="74" d="M482.576,523.384 C481.448,555.784 479.912,599.688 479.048,624.232 " fill="none" id="User-Notification" style="stroke:#A80036;stroke-width:0.8000000000000002;"/><polygon fill="#000000" points="485.4602,558.5382,488.0628,551.3887,483.3634,551.2243,485.4602,558.5382" style="stroke:#000000;stroke-width:0.8000000000000002;"/><text fill="#000000" font-family="sans-serif" font-size="10.4" lengthAdjust="spacing" textLength="37.6" x="492.8" y="558.7961">recieves</text><text fill="#000000" font-family="sans-serif" font-size="10.4" lengthAdjust="spacing" textLength="5.6" x="476.4084" y="540.6015">1</text><text fill="#000000" font-family="sans-serif" font-size="10.4" lengthAdjust="spacing" textLength="5.6" x="472.8966" y="615.6611">1</text><!--MD5=[b541267dad1908c8291a4709ed413280]
link VaccinationCertificate to User--><path codeLine="75" d="M609.184,317.608 C596.8,341.528 573.416,384.112 548,416.8 C539.192,428.128 528.56,439.536 518.52,449.544 " fill="none" id="VaccinationCertificate-User" style="stroke:#A80036;stroke-width:0.8000000000000002;"/><polygon fill="#000000" points="558.5346,413.0373,564.5705,408.4051,560.695,405.742,558.5346,413.0373" style="stroke:#000000;stroke-width:0.8000000000000002;"/><text fill="#000000" font-family="sans-serif" font-size="10.4" lengthAdjust="spacing" textLength="48.8" x="568" y="413.9961">created for</text><text fill="#000000" font-family="sans-serif" font-size="10.4" lengthAdjust="spacing" textLength="5.6" x="600.6551" y="334.6803">1</text><text fill="#000000" font-family="sans-serif" font-size="10.4" lengthAdjust="spacing" textLength="5.6" x="524.7011" y="441.1051">1</text><!--MD5=[f7367a4eb89c6e457d55ac490580057e]
link User to VaccinationEvent--><path codeLine="76" d="M518.64,502.96 C546.384,519.024 586.352,542 621.6,561.6 C635.672,569.424 650.528,577.576 665.216,585.576 " fill="none" id="User-VaccinationEvent" style="stroke:#A80036;stroke-width:0.8000000000000002;"/><polygon fill="#000000" points="629.0846,556.5047,623.9353,550.9035,621.6265,554.9999,629.0846,556.5047" style="stroke:#000000;stroke-width:0.8000000000000002;"/><text fill="#000000" font-family="sans-serif" font-size="10.4" lengthAdjust="spacing" textLength="73.6" x="632.8" y="558.7961">administered on</text><text fill="#000000" font-family="sans-serif" font-size="10.4" lengthAdjust="spacing" textLength="5.6" x="524.841" y="503.3681">1</text><text fill="#000000" font-family="sans-serif" font-size="10.4" lengthAdjust="spacing" textLength="16" x="637.3789" y="576.949">1..*</text><!--MD5=[725dcb947706721e0739e11215df5f36]
link RecoveryRoom to User--><path codeLine="77" d="M484,317.656 C484,346.304 484,402.168 484,440.568 " fill="none" id="RecoveryRoom-User" style="stroke:#A80036;stroke-width:0.8000000000000002;"/><polygon fill="#000000" points="488,413.7406,490.3511,406.5046,485.6489,406.5046,488,413.7406" style="stroke:#000000;stroke-width:0.8000000000000002;"/><text fill="#000000" font-family="sans-serif" font-size="10.4" lengthAdjust="spacing" textLength="45.6" x="495.2" y="413.9961">for resting</text><text fill="#000000" font-family="sans-serif" font-size="10.4" lengthAdjust="spacing" textLength="16" x="466.05" y="334.74">1..*</text><text fill="#000000" font-family="sans-serif" font-size="10.4" lengthAdjust="spacing" textLength="4" x="479.7313" y="432.1371">*</text><!--MD5=[3568623adf67b2630dce9e60c05bd02a]
link Vaccine to VaccineType--><path codeLine="78" d="M900.528,501.256 C905.968,539.304 915.632,628.984 899.2,701.6 C884.072,768.456 877.136,788.528 832.8,840.8 C825.056,849.928 814.92,858.016 805.144,864.624 " fill="none" id="Vaccine-VaccineType" style="stroke:#A80036;stroke-width:0.8000000000000002;"/><polygon fill="#000000" points="895.7844,736.8095,899.8957,730.4075,895.3475,729.2136,895.7844,736.8095" style="stroke:#000000;stroke-width:0.8000000000000002;"/><text fill="#000000" font-family="sans-serif" font-size="10.4" lengthAdjust="spacing" textLength="19.2" x="904" y="737.1961">is of</text><text fill="#000000" font-family="sans-serif" font-size="10.4" lengthAdjust="spacing" textLength="16" x="903.1917" y="518.34">1..*</text><text fill="#000000" font-family="sans-serif" font-size="10.4" lengthAdjust="spacing" textLength="16" x="795.5872" y="856.051">1..*</text><!--MD5=[6b276e2dfed8b8354946f9f8bab747bb]
link VaccinationCenter to VaccineType--><path codeLine="79" d="M124.016,378.536 C133.096,410.056 140.8,446.912 140.8,481.2 C140.8,481.2 140.8,481.2 140.8,784 C140.8,844.04 592.24,873.48 731.552,881.128 " fill="none" id="VaccinationCenter-VaccineType" style="stroke:#A80036;stroke-width:0.8000000000000002;"/><polygon fill="#000000" points="147.8821,646.2903,143.8052,639.8663,140.8079,643.4895,147.8821,646.2903" style="stroke:#000000;stroke-width:0.8000000000000002;"/><text fill="#000000" font-family="sans-serif" font-size="10.4" lengthAdjust="spacing" textLength="68" x="152" y="647.9961">can administer</text><text fill="#000000" font-family="sans-serif" font-size="10.4" lengthAdjust="spacing" textLength="16" x="109.5447" y="395.6917">1..*</text><text fill="#000000" font-family="sans-serif" font-size="10.4" lengthAdjust="spacing" textLength="4" x="721.3175" y="877.7829">*</text><!--MD5=[b4d8f5f51e38d6b05c8d39ad94b64364]
link Vaccine to VaccinationEvent--><path codeLine="80" d="M886.392,501.504 C876.344,517.824 860.872,541.912 845.6,561.6 C839.48,569.496 832.768,577.56 825.976,585.408 " fill="none" id="Vaccine-VaccinationEvent" style="stroke:#A80036;stroke-width:0.8000000000000002;"/><polygon fill="#000000" points="856.0627,557.7867,862.1989,553.2884,858.383,550.5407,856.0627,557.7867" style="stroke:#000000;stroke-width:0.8000000000000002;"/><text fill="#000000" font-family="sans-serif" font-size="10.4" lengthAdjust="spacing" textLength="8" x="865.6" y="558.7961">of</text><text fill="#000000" font-family="sans-serif" font-size="10.4" lengthAdjust="spacing" textLength="16" x="865.9502" y="518.3229">1..*</text><text fill="#000000" font-family="sans-serif" font-size="10.4" lengthAdjust="spacing" textLength="4" x="827.336" y="576.7637">*</text><!--MD5=[615603f8205a62453b0776fd1470ed09]
link VaccinationEvent to VaccineSchedule--><path codeLine="81" d="M772,701.728 C772,723.944 772,747.824 772,763.784 " fill="none" id="VaccinationEvent-VaccineSchedule" style="stroke:#A80036;stroke-width:0.8000000000000002;"/><polygon fill="#000000" points="776,736.9406,778.3511,729.7046,773.6489,729.7046,776,736.9406" style="stroke:#000000;stroke-width:0.8000000000000002;"/><text fill="#000000" font-family="sans-serif" font-size="10.4" lengthAdjust="spacing" textLength="33.6" x="783.2" y="737.1961">fullfiling</text><text fill="#000000" font-family="sans-serif" font-size="10.4" lengthAdjust="spacing" textLength="16" x="755.2375" y="718.6935">1..*</text><text fill="#000000" font-family="sans-serif" font-size="10.4" lengthAdjust="spacing" textLength="16" x="753.95" y="755.2008">1..*</text><!--MD5=[e68234c6e8a5a6b778a150b5b3a5ba14]
link WaitingRoom to User--><path codeLine="82" d="M378.32,317.656 C396.832,346.304 432.936,402.168 457.744,440.568 " fill="none" id="WaitingRoom-User" style="stroke:#A80036;stroke-width:0.8000000000000002;"/><polygon fill="#000000" points="444.5709,413.1002,442.6184,405.7466,438.6689,408.2987,444.5709,413.1002" style="stroke:#000000;stroke-width:0.8000000000000002;"/><text fill="#000000" font-family="sans-serif" font-size="10.4" lengthAdjust="spacing" textLength="11.2" x="449.6" y="413.9961">for</text><text fill="#000000" font-family="sans-serif" font-size="10.4" lengthAdjust="spacing" textLength="5.6" x="374.943" y="334.74">1</text><text fill="#000000" font-family="sans-serif" font-size="10.4" lengthAdjust="spacing" textLength="16" x="437.1409" y="432.1371">1..*</text><!--MD5=[0627282f411ece888f894017ff17802b]
link VaccineSchedule to VaccineType--><path codeLine="83" d="M772,802.424 C772,820.136 772,846.752 772,864.536 " fill="none" id="VaccineSchedule-VaccineType" style="stroke:#A80036;stroke-width:0.8000000000000002;"/><polygon fill="#000000" points="776,837.7406,778.3511,830.5046,773.6489,830.5046,776,837.7406" style="stroke:#000000;stroke-width:0.8000000000000002;"/><text fill="#000000" font-family="sans-serif" font-size="10.4" lengthAdjust="spacing" textLength="42.4" x="783.2" y="837.9961">for taking</text><text fill="#000000" font-family="sans-serif" font-size="10.4" lengthAdjust="spacing" textLength="5.6" x="765.7175" y="819.5002">1</text><text fill="#000000" font-family="sans-serif" font-size="10.4" lengthAdjust="spacing" textLength="5.6" x="765.7175" y="856.262">1</text><!--MD5=[e68d1fc9fec531cd97b10594e29157b3]
@startuml

'class enumeration
class Organization
class VaccinationCenter
class CenterCoordinator
class VaccinationEvent
class Nurse
class VaccinationCenterReceptionist
class HealthCareCenterReceptionist
class VaccinationCertificate
class User
class WaitingRoom
class RecoveryRoom
class HealthCareCenter
class VaccinationCertificate
class Notification
class EmailNotification extends Notification
class SMSNotification extends Notification
class VaccineType
class VaccineSchedule
class Vaccine

'class componets
class User {
-name
-Age
-sex
-SNS number
}

class VaccinationCenter{
-name
-addres
-phone number
-e-mail addres
-fax number
-website addres
-opening hours
-closing hours
-slot duration
-maximum number of vaccines
-coordinator
}

class VaccinationEvent {
-name
-brand
-type
-age groups
-vaccines per age group
-dosage
-time interval regarding previous vaccine administered
}

class Organization {
-name
}

'class relation
Organization "1" - - "*" VaccinationCenter : owns >
Organization "1" - - "*" HealthCareCenter : manages >
CenterCoordinator "1" - - "*" Organization : works for >
CenterCoordinator "1" - - "*" VaccinationCenter : controls >
Nurse "1..*" - - "1" VaccinationCenter : works in >
Nurse "1..*" - - "*" VaccinationEvent : performs >
VaccinationCenterReceptionist "1..*" - - "1" VaccinationCenter : works in >
VaccinationCenterReceptionist "1..*" - - "*" User : register arrival >
HealthCareCenterReceptionist "1" - - "*" HealthCareCenter : works in >
HealthCareCenterReceptionist "1..*" - - "*" VaccineSchedule : schedules >
User "1" - - "*" VaccineSchedule : schedules >
VaccinationCenterReceptionist "1..*" - - "*" WaitingRoom : sends patient to >
VaccinationCertificate "1" - - "1" VaccinationEvent : validates >
Nurse "1..*" - - "*" RecoveryRoom : sends patient to >
User "1" - - "1" Notification : recieves >
VaccinationCertificate "1" - - "1" User : created for >
User "1" - - "1..*" VaccinationEvent : administered on >
RecoveryRoom "1..*" - - "*" User : for resting >
Vaccine "1..*" - - "1..*" VaccineType : is of >
VaccinationCenter "1..*" - - "*" VaccineType : can administer >
Vaccine "1..*" - - "*" VaccinationEvent : of >
VaccinationEvent "1..*" - - "1..*" VaccineSchedule : fullfiling >
WaitingRoom "1" - - "1..*" User : for >
VaccineSchedule "1" - - "1" VaccineType : for taking >

@enduml

@startuml

class Organization
class VaccinationCenter
class CenterCoordinator
class VaccinationEvent
class Nurse
class VaccinationCenterReceptionist
class HealthCareCenterReceptionist
class VaccinationCertificate
class User
class WaitingRoom
class RecoveryRoom
class HealthCareCenter
class VaccinationCertificate
class Notification
class EmailNotification extends Notification
class SMSNotification extends Notification
class VaccineType
class VaccineSchedule
class Vaccine

class User {
-name
-Age
-sex
-SNS number
}

class VaccinationCenter{
-name
-addres
-phone number
-e-mail addres
-fax number
-website addres
-opening hours
-closing hours
-slot duration
-maximum number of vaccines
-coordinator
}

class VaccinationEvent {
-name
-brand
-type
-age groups
-vaccines per age group
-dosage
-time interval regarding previous vaccine administered
}

class Organization {
-name
}

Organization "1" - - "*" VaccinationCenter : owns >
Organization "1" - - "*" HealthCareCenter : manages >
CenterCoordinator "1" - - "*" Organization : works for >
CenterCoordinator "1" - - "*" VaccinationCenter : controls >
Nurse "1..*" - - "1" VaccinationCenter : works in >
Nurse "1..*" - - "*" VaccinationEvent : performs >
VaccinationCenterReceptionist "1..*" - - "1" VaccinationCenter : works in >
VaccinationCenterReceptionist "1..*" - - "*" User : register arrival >
HealthCareCenterReceptionist "1" - - "*" HealthCareCenter : works in >
HealthCareCenterReceptionist "1..*" - - "*" VaccineSchedule : schedules >
User "1" - - "*" VaccineSchedule : schedules >
VaccinationCenterReceptionist "1..*" - - "*" WaitingRoom : sends patient to >
VaccinationCertificate "1" - - "1" VaccinationEvent : validates >
Nurse "1..*" - - "*" RecoveryRoom : sends patient to >
User "1" - - "1" Notification : recieves >
VaccinationCertificate "1" - - "1" User : created for >
User "1" - - "1..*" VaccinationEvent : administered on >
RecoveryRoom "1..*" - - "*" User : for resting >
Vaccine "1..*" - - "1..*" VaccineType : is of >
VaccinationCenter "1..*" - - "*" VaccineType : can administer >
Vaccine "1..*" - - "*" VaccinationEvent : of >
VaccinationEvent "1..*" - - "1..*" VaccineSchedule : fullfiling >
WaitingRoom "1" - - "1..*" User : for >
VaccineSchedule "1" - - "1" VaccineType : for taking >

@enduml

PlantUML version 1.2022.1(Tue Feb 01 18:19:58 GMT 2022)
(GPL source distribution)
Java Runtime: OpenJDK Runtime Environment
JVM: OpenJDK 64-Bit Server VM
Default Encoding: Cp1252
Language: en
Country: GB
--></g></svg>