<?xml version="1.0" encoding="UTF-8" standalone="no"?><svg xmlns="http://www.w3.org/2000/svg" xmlns:xlink="http://www.w3.org/1999/xlink" contentScriptType="application/ecmascript" contentStyleType="text/css" height="1772px" preserveAspectRatio="none" style="width:1000px;height:1772px;background:#FFFFFF;" version="1.1" viewBox="0 0 1000 1772" width="1000px" zoomAndPan="magnify"><defs><filter height="300%" id="f1mwct87fp0sdk" width="300%" x="-1" y="-1"><feGaussianBlur result="blurOut" stdDeviation="2.0"/><feColorMatrix in="blurOut" result="blurOut2" type="matrix" values="0 0 0 0 0 0 0 0 0 0 0 0 0 0 0 0 0 0 .4 0"/><feOffset dx="4.0" dy="4.0" in="blurOut2" result="blurOut3"/><feBlend in="SourceGraphic" in2="blurOut3" mode="normal"/></filter></defs><g><!--MD5=[62529e7d5259bf274c3bf3e446350d88]
entity Administrator--><ellipse cx="105.5" cy="1654" fill="#FEFECE" filter="url(#f1mwct87fp0sdk)" rx="8" ry="8" style="stroke:#A80036;stroke-width:1.5;"/><path d="M105.5,1662 L105.5,1689 M92.5,1670 L118.5,1670 M105.5,1689 L92.5,1704 M105.5,1689 L118.5,1704 " fill="none" filter="url(#f1mwct87fp0sdk)" style="stroke:#A80036;stroke-width:1.5;"/><text fill="#000000" font-family="sans-serif" font-size="14" lengthAdjust="spacing" textLength="83" x="64" y="1724.0332">Administrator</text><!--MD5=[c8b2cb7ab209025f476c1467c68b906a]
entity Nurse--><ellipse cx="105.5" cy="1041" fill="#FEFECE" filter="url(#f1mwct87fp0sdk)" rx="8" ry="8" style="stroke:#A80036;stroke-width:1.5;"/><path d="M105.5,1049 L105.5,1076 M92.5,1057 L118.5,1057 M105.5,1076 L92.5,1091 M105.5,1076 L118.5,1091 " fill="none" filter="url(#f1mwct87fp0sdk)" style="stroke:#A80036;stroke-width:1.5;"/><text fill="#000000" font-family="sans-serif" font-size="14" lengthAdjust="spacing" textLength="37" x="87" y="1111.0332">Nurse</text><!--MD5=[87a04b683345c3cce94ac9a6e159ab2f]
entity Receptionist--><ellipse cx="105.5" cy="695" fill="#FEFECE" filter="url(#f1mwct87fp0sdk)" rx="8" ry="8" style="stroke:#A80036;stroke-width:1.5;"/><path d="M105.5,703 L105.5,730 M92.5,711 L118.5,711 M105.5,730 L92.5,745 M105.5,730 L118.5,745 " fill="none" filter="url(#f1mwct87fp0sdk)" style="stroke:#A80036;stroke-width:1.5;"/><text fill="#000000" font-family="sans-serif" font-size="14" lengthAdjust="spacing" textLength="199" x="6" y="765.0332">Vaccination center Receptionist</text><!--MD5=[6fad29f0f53db0e193a1bfbaf54f93c1]
entity HealthCare center Receptionist--><ellipse cx="105.5" cy="1528" fill="#FEFECE" filter="url(#f1mwct87fp0sdk)" rx="8" ry="8" style="stroke:#A80036;stroke-width:1.5;"/><path d="M105.5,1536 L105.5,1563 M92.5,1544 L118.5,1544 M105.5,1563 L92.5,1578 M105.5,1563 L118.5,1578 " fill="none" filter="url(#f1mwct87fp0sdk)" style="stroke:#A80036;stroke-width:1.5;"/><text fill="#000000" font-family="sans-serif" font-size="14" lengthAdjust="spacing" textLength="197" x="7" y="1598.0332">HealthCare center Receptionist</text><!--MD5=[fee662a292a0353a69bd162820bae93b]
entity User--><ellipse cx="105.5" cy="1410" fill="#FEFECE" filter="url(#f1mwct87fp0sdk)" rx="8" ry="8" style="stroke:#A80036;stroke-width:1.5;"/><path d="M105.5,1418 L105.5,1445 M92.5,1426 L118.5,1426 M105.5,1445 L92.5,1460 M105.5,1445 L118.5,1460 " fill="none" filter="url(#f1mwct87fp0sdk)" style="stroke:#A80036;stroke-width:1.5;"/><text fill="#000000" font-family="sans-serif" font-size="14" lengthAdjust="spacing" textLength="29" x="91" y="1480.0332">User</text><!--MD5=[abea0b42432aea0f9ce66e53feda8644]
entity System--><ellipse cx="105.5" cy="458" fill="#FEFECE" filter="url(#f1mwct87fp0sdk)" rx="8" ry="8" style="stroke:#A80036;stroke-width:1.5;"/><path d="M105.5,466 L105.5,493 M92.5,474 L118.5,474 M105.5,493 L92.5,508 M105.5,493 L118.5,508 " fill="none" filter="url(#f1mwct87fp0sdk)" style="stroke:#A80036;stroke-width:1.5;"/><text fill="#000000" font-family="sans-serif" font-size="14" lengthAdjust="spacing" textLength="46" x="82.5" y="528.0332">System</text><!--MD5=[6e3b1fbc2c413aa76c59ab109e4317d6]
entity Center coordinator--><ellipse cx="105.5" cy="250" fill="#FEFECE" filter="url(#f1mwct87fp0sdk)" rx="8" ry="8" style="stroke:#A80036;stroke-width:1.5;"/><path d="M105.5,258 L105.5,285 M92.5,266 L118.5,266 M105.5,285 L92.5,300 M105.5,285 L118.5,300 " fill="none" filter="url(#f1mwct87fp0sdk)" style="stroke:#A80036;stroke-width:1.5;"/><text fill="#000000" font-family="sans-serif" font-size="14" lengthAdjust="spacing" textLength="119" x="46" y="320.0332">Center coordinator</text><!--MD5=[1394cc7a5d85754d446efba2b486b926]
entity Timer/clock--><ellipse cx="105.5" cy="132" fill="#FEFECE" filter="url(#f1mwct87fp0sdk)" rx="8" ry="8" style="stroke:#A80036;stroke-width:1.5;"/><path d="M105.5,140 L105.5,167 M92.5,148 L118.5,148 M105.5,167 L92.5,182 M105.5,167 L118.5,182 " fill="none" filter="url(#f1mwct87fp0sdk)" style="stroke:#A80036;stroke-width:1.5;"/><text fill="#000000" font-family="sans-serif" font-size="14" lengthAdjust="spacing" textLength="72" x="69.5" y="202.0332">Timer/clock</text><ellipse cx="626.5675" cy="1552.2135" fill="#FEFECE" filter="url(#f1mwct87fp0sdk)" rx="109.0675" ry="24.2135" style="stroke:#A80036;stroke-width:1.5;"/><text fill="#000000" font-family="sans-serif" font-size="14" lengthAdjust="spacing" textLength="181" x="536.0675" y="1555.942">UC1 - Schedules vaccination</text><ellipse cx="626.574" cy="1347.0148" fill="#FEFECE" filter="url(#f1mwct87fp0sdk)" rx="165.574" ry="35.5148" style="stroke:#A80036;stroke-width:1.5;"/><text fill="#000000" font-family="sans-serif" font-size="14" lengthAdjust="spacing" textLength="301" x="476.074" y="1350.7433">UC2 - Specifies type of vaccine to be administer</text><ellipse cx="626.5714" cy="379.1143" fill="#FEFECE" filter="url(#f1mwct87fp0sdk)" rx="143.5714" ry="31.1143" style="stroke:#A80036;stroke-width:1.5;"/><text fill="#000000" font-family="sans-serif" font-size="14" lengthAdjust="spacing" textLength="255" x="499.0714" y="382.8428">UC3 - Check vaccination center capacity</text><ellipse cx="626.6515" cy="490.1303" fill="#FEFECE" filter="url(#f1mwct87fp0sdk)" rx="213.6515" ry="45.1303" style="stroke:#A80036;stroke-width:1.5;"/><text fill="#000000" font-family="sans-serif" font-size="14" lengthAdjust="spacing" textLength="400" x="426.6515" y="493.8588">UC4 - Comfirm the vaccination is schedule and informs the user</text><ellipse cx="626.5227" cy="616.8045" fill="#FEFECE" filter="url(#f1mwct87fp0sdk)" rx="219.5227" ry="46.3045" style="stroke:#A80036;stroke-width:1.5;"/><text fill="#000000" font-family="sans-serif" font-size="14" lengthAdjust="spacing" textLength="412" x="420.5227" y="620.533">UC5 - Sends to the user an SMS confirming the vaccination event</text><ellipse cx="626.7117" cy="1686.2423" fill="#FEFECE" filter="url(#f1mwct87fp0sdk)" rx="361.7117" ry="74.7423" style="stroke:#A80036;stroke-width:1.5;"/><text fill="#000000" font-family="sans-serif" font-size="14" lengthAdjust="spacing" textLength="700" x="276.7117" y="1689.9708">UC6 - Configures and manages the core information: vaccines, type of vaccines, vaccination centers, employes</text><ellipse cx="626.5083" cy="727.0017" fill="#FEFECE" filter="url(#f1mwct87fp0sdk)" rx="128.0083" ry="28.0017" style="stroke:#A80036;stroke-width:1.5;"/><text fill="#000000" font-family="sans-serif" font-size="14" lengthAdjust="spacing" textLength="222" x="515.5083" y="730.7302">UC7 - Registers arrival of SNS user</text><ellipse cx="626.6453" cy="822.8291" fill="#FEFECE" filter="url(#f1mwct87fp0sdk)" rx="152.1453" ry="32.8291" style="stroke:#A80036;stroke-width:1.5;"/><text fill="#000000" font-family="sans-serif" font-size="14" lengthAdjust="spacing" textLength="273" x="490.1453" y="826.5576">UC8 - Confirms information about SNS user</text><ellipse cx="626.5791" cy="924.1158" fill="#FEFECE" filter="url(#f1mwct87fp0sdk)" rx="153.5791" ry="33.1158" style="stroke:#A80036;stroke-width:1.5;"/><text fill="#000000" font-family="sans-serif" font-size="14" lengthAdjust="spacing" textLength="276" x="488.5791" y="927.8443">UC9 - Check user infor and health condition</text><ellipse cx="626.4467" cy="1018.7893" fill="#FEFECE" filter="url(#f1mwct87fp0sdk)" rx="121.9467" ry="26.7893" style="stroke:#A80036;stroke-width:1.5;"/><text fill="#000000" font-family="sans-serif" font-size="14" lengthAdjust="spacing" textLength="209" x="521.9467" y="1022.5179">UC10 - Administrates the vaccine</text><ellipse cx="626.7187" cy="1126.0437" fill="#FEFECE" filter="url(#f1mwct87fp0sdk)" rx="210.7187" ry="44.5437" style="stroke:#A80036;stroke-width:1.5;"/><text fill="#000000" font-family="sans-serif" font-size="14" lengthAdjust="spacing" textLength="394" x="429.7187" y="1129.7723">UC11 - Registers vaccination andministration with vaccine type</text><ellipse cx="626.5369" cy="1241.2074" fill="#FEFECE" filter="url(#f1mwct87fp0sdk)" rx="166.5369" ry="35.7074" style="stroke:#A80036;stroke-width:1.5;"/><text fill="#000000" font-family="sans-serif" font-size="14" lengthAdjust="spacing" textLength="303" x="475.0369" y="1244.9359">UC12 - Record adverse reactions on the system</text><ellipse cx="626.5791" cy="1451.1158" fill="#FEFECE" filter="url(#f1mwct87fp0sdk)" rx="153.5791" ry="33.1158" style="stroke:#A80036;stroke-width:1.5;"/><text fill="#000000" font-family="sans-serif" font-size="14" lengthAdjust="spacing" textLength="276" x="488.5791" y="1454.8443">UC13 - Request EU COVID digital certificate</text><ellipse cx="626.6476" cy="281.8295" fill="#FEFECE" filter="url(#f1mwct87fp0sdk)" rx="142.1476" ry="30.8295" style="stroke:#A80036;stroke-width:1.5;"/><text fill="#000000" font-family="sans-serif" font-size="14" lengthAdjust="spacing" textLength="252" x="500.6476" y="285.558">UC14 - Manages the vaccination proces</text><ellipse cx="626.4928" cy="163.9986" fill="#FEFECE" filter="url(#f1mwct87fp0sdk)" rx="155.4928" ry="33.4986" style="stroke:#A80036;stroke-width:1.5;"/><text fill="#000000" font-family="sans-serif" font-size="14" lengthAdjust="spacing" textLength="280" x="486.4928" y="167.7271">UC15 - Sends user notification SMS or Email</text><ellipse cx="626.3995" cy="45.7799" fill="#FEFECE" filter="url(#f1mwct87fp0sdk)" rx="146.8995" ry="31.7799" style="stroke:#A80036;stroke-width:1.5;"/><text fill="#000000" font-family="sans-serif" font-size="14" lengthAdjust="spacing" textLength="262" x="495.3995" y="49.5084">UC16 - Verifies user recovery time is over</text><!--MD5=[e3879dbc700982fc74f1628aca9dc721]
entity <<To define>>--><ellipse cx="105.5" cy="14" fill="#FEFECE" filter="url(#f1mwct87fp0sdk)" rx="8" ry="8" style="stroke:#A80036;stroke-width:1.5;"/><path d="M105.5,22 L105.5,49 M92.5,30 L118.5,30 M105.5,49 L92.5,64 M105.5,49 L118.5,64 " fill="none" filter="url(#f1mwct87fp0sdk)" style="stroke:#A80036;stroke-width:1.5;"/><text fill="#000000" font-family="sans-serif" font-size="14" lengthAdjust="spacing" textLength="76" x="67.5" y="84.0332">«To define»</text><!--MD5=[57bf3159251ba6d788e56222dd11fdd6]
link User to UC1--><path d="M120.15,1448.37 C147.19,1460.71 209.69,1487.89 265,1502 C348.7,1523.36 445.82,1536.17 518.16,1543.46 " fill="none" id="User-to-UC1" style="stroke:#A80036;stroke-width:1.0;"/><polygon fill="#A80036" points="523.32,1543.98,514.7655,1539.0994,518.3451,1543.4797,513.9649,1547.0593,523.32,1543.98" style="stroke:#A80036;stroke-width:1.0;"/><!--MD5=[b27bcef2eda2d303d5531f43f4c19650]
link HealthCare center Receptionist to UC1--><path d="M204.12,1558.5 C291.73,1557.14 420.32,1555.16 512.39,1553.74 " fill="none" id="HealthCare center Receptionist-to-UC1" style="stroke:#A80036;stroke-width:1.0;"/><polygon fill="#A80036" points="517.57,1553.66,508.5028,1549.8149,512.5707,1553.7457,508.6399,1557.8137,517.57,1553.66" style="stroke:#A80036;stroke-width:1.0;"/><!--MD5=[06ebee4cbbe132cc9038a23578b440b9]
link User to UC2--><path d="M120.38,1437.89 C147.81,1429.88 210.97,1412 265,1401 C334.65,1386.81 412.59,1374.68 478.12,1365.53 " fill="none" id="User-to-UC2" style="stroke:#A80036;stroke-width:1.0;"/><polygon fill="#A80036" points="483.22,1364.82,473.7557,1362.0947,478.2674,1365.5071,474.855,1370.0188,483.22,1364.82" style="stroke:#A80036;stroke-width:1.0;"/><!--MD5=[122a2d3178e8d979fd7b1446804ed9a9]
link Nurse to UC2--><path d="M123.89,1114.67 C147.66,1166.01 195.45,1251.62 265,1294 C321.61,1328.5 392.29,1343.64 456.03,1349.48 " fill="none" id="Nurse-to-UC2" style="stroke:#A80036;stroke-width:1.0;"/><polygon fill="#A80036" points="461.39,1349.95,452.7656,1345.1939,456.4084,1349.5218,452.0805,1353.1645,461.39,1349.95" style="stroke:#A80036;stroke-width:1.0;"/><!--MD5=[3000b15f651bb72e3fbc33b829d11a2e]
link System to UC3--><path d="M128.51,479.45 C158.62,465.47 214.66,441.07 265,428 C336.8,409.36 418.59,397.51 486.1,390.14 " fill="none" id="System-to-UC3" style="stroke:#A80036;stroke-width:1.0;"/><polygon fill="#A80036" points="491.34,389.58,481.959,386.5806,486.3695,390.1228,482.8274,394.5333,491.34,389.58" style="stroke:#A80036;stroke-width:1.0;"/><!--MD5=[83aa445791b5ea9c28174ad454280b86]
link System to UC4--><path d="M128.8,490 C177.46,490 297.6,490 407.54,490 " fill="none" id="System-to-UC4" style="stroke:#A80036;stroke-width:1.0;"/><polygon fill="#A80036" points="412.76,490,403.76,486,407.76,490,403.76,494,412.76,490" style="stroke:#A80036;stroke-width:1.0;"/><!--MD5=[cc9fb125504b85f277ecaa2d2120950c]
link System to UC5--><path d="M128.58,500.44 C158.75,514.31 214.87,538.75 265,553 C320.05,568.65 380.96,581.21 436.81,590.92 " fill="none" id="System-to-UC5" style="stroke:#A80036;stroke-width:1.0;"/><polygon fill="#A80036" points="441.86,591.79,433.6785,586.3071,436.9339,590.9333,432.3077,594.1888,441.86,591.79" style="stroke:#A80036;stroke-width:1.0;"/><!--MD5=[664b5d658f02658dc2bb7afbea31a1ab]
link Administrator to UC6--><path d="M147.23,1686 C174.95,1686 214.67,1686 259.53,1686 " fill="none" id="Administrator-to-UC6" style="stroke:#A80036;stroke-width:1.0;"/><polygon fill="#A80036" points="264.74,1686,255.74,1682,259.74,1686,255.74,1690,264.74,1686" style="stroke:#A80036;stroke-width:1.0;"/><!--MD5=[2bf53654eafc195014e45e272a8d8dc2]
link Receptionist to UC7--><path d="M205.04,727 C286.69,727 403.49,727 493.27,727 " fill="none" id="Receptionist-to-UC7" style="stroke:#A80036;stroke-width:1.0;"/><polygon fill="#A80036" points="498.34,727,489.34,723,493.34,727,489.34,731,498.34,727" style="stroke:#A80036;stroke-width:1.0;"/><!--MD5=[803d76cf491b8bbba29856c05ef08844]
link Nurse to UC8--><path d="M124.12,1036.97 C148.75,990.82 198.09,912.25 265,874 C326.5,838.84 403.25,824.69 470.11,819.89 " fill="none" id="Nurse-to-UC8" style="stroke:#A80036;stroke-width:1.0;"/><polygon fill="#A80036" points="475.32,819.54,466.0668,816.1669,470.3318,819.883,466.6156,824.148,475.32,819.54" style="stroke:#A80036;stroke-width:1.0;"/><!--MD5=[b317977114905a9994df28272f66b164]
link Nurse to UC9--><path d="M124.23,1058.55 C152.26,1036.57 209.33,995.14 265,975 C330.46,951.32 406.32,938.57 471.51,931.74 " fill="none" id="Nurse-to-UC9" style="stroke:#A80036;stroke-width:1.0;"/><polygon fill="#A80036" points="476.58,931.21,467.2162,928.1573,471.6065,931.7245,468.0394,936.1149,476.58,931.21" style="stroke:#A80036;stroke-width:1.0;"/><!--MD5=[de1336a9a7305a97a3177d4b5517db1d]
link Nurse to UC10--><path d="M124.07,1071.17 C183.71,1064.97 381.9,1044.35 510.52,1030.96 " fill="none" id="Nurse-to-UC10" style="stroke:#A80036;stroke-width:1.0;"/><polygon fill="#A80036" points="515.83,1030.41,506.4662,1027.3573,510.8565,1030.9245,507.2894,1035.3149,515.83,1030.41" style="stroke:#A80036;stroke-width:1.0;"/><!--MD5=[9f510cd050725f2afdd59804439480f2]
link Nurse to UC11--><path d="M124.07,1074.79 C172.4,1079.73 311.7,1093.95 431.24,1106.16 " fill="none" id="Nurse-to-UC11" style="stroke:#A80036;stroke-width:1.0;"/><polygon fill="#A80036" points="436.56,1106.71,428.0194,1101.8051,431.5865,1106.1955,427.1962,1109.7627,436.56,1106.71" style="stroke:#A80036;stroke-width:1.0;"/><!--MD5=[f03bbcd9a7501abd4ca4d58e37f5f436]
link Nurse to UC12--><path d="M124.21,1090.42 C151.76,1116.38 207.7,1164.66 265,1188 C325.4,1212.6 395.63,1225.99 457.96,1233.2 " fill="none" id="Nurse-to-UC12" style="stroke:#A80036;stroke-width:1.0;"/><polygon fill="#A80036" points="463.2,1233.79,454.7156,1228.7884,458.2327,1233.219,453.8021,1236.7361,463.2,1233.79" style="stroke:#A80036;stroke-width:1.0;"/><!--MD5=[c03e7c13dab4742813610bfb4d59d430]
link User to UC13--><path d="M120.12,1442.24 C168.86,1443.08 338.65,1446.03 468.11,1448.27 " fill="none" id="User-to-UC13" style="stroke:#A80036;stroke-width:1.0;"/><polygon fill="#A80036" points="473.47,1448.36,464.5399,1444.2063,468.4707,1448.2743,464.4028,1452.2051,473.47,1448.36" style="stroke:#A80036;stroke-width:1.0;"/><!--MD5=[71c19504da4f8e75a591ab692555d0bd]
link Center coordinator to UC14--><path d="M165.03,282 C240.7,282 375.11,282 479.25,282 " fill="none" id="Center coordinator-to-UC14" style="stroke:#A80036;stroke-width:1.0;"/><polygon fill="#A80036" points="484.49,282,475.49,278,479.49,282,475.49,286,484.49,282" style="stroke:#A80036;stroke-width:1.0;"/><!--MD5=[d8396b1957326344a0dd74b584ce91b5]
link Timer/clock to UC15--><path d="M141.76,164 C207.35,164 351.79,164 465.85,164 " fill="none" id="Timer/clock-to-UC15" style="stroke:#A80036;stroke-width:1.0;"/><polygon fill="#A80036" points="470.92,164,461.92,160,465.92,164,461.92,168,470.92,164" style="stroke:#A80036;stroke-width:1.0;"/><!--MD5=[431adbd60f55226067a629c8ffc4708c]
link <<To define>> to UC16--><path d="M143.83,46 C212.02,46 360.22,46 474.34,46 " fill="none" id="&lt;&lt;To define&gt;&gt;-to-UC16" style="stroke:#A80036;stroke-width:1.0;"/><polygon fill="#A80036" points="479.41,46,470.41,42,474.41,46,470.41,50,479.41,46" style="stroke:#A80036;stroke-width:1.0;"/><!--MD5=[556bdcaf81988751bf6a4f1f9a4760c0]
@startuml

'acthors.

:Administrator:
:Nurse:
:Vaccination center Receptionist: as Receptionist
:HealthCare center Receptionist:
:User:
:System:
:Center coordinator:
:Timer/clock:

'User cases.

(UC1 - Schedules vaccination) as (UC1)
(UC2 - Specifies type of vaccine to be administer) as (UC2)
(UC3 - Check vaccination center capacity) as (UC3)
(UC4 - Comfirm the vaccination is schedule and informs the user) as (UC4)
(UC5 - Sends to the user an SMS confirming the vaccination event) as (UC5)
(UC6 - Configures and manages the core information: vaccines, type of vaccines, vaccination centers, employes) as (UC6)
(UC7 - Registers arrival of SNS user) as (UC7)
(UC8 - Confirms information about SNS user) as (UC8)
(UC9 - Check user infor and health condition) as (UC9)
(UC10 - Administrates the vaccine) as (UC10)
(UC11 - Registers vaccination andministration with vaccine type) as (UC11)
(UC12 - Record adverse reactions on the system) as (UC12)
(UC13 - Request EU COVID digital certificate) as (UC13)
(UC14 - Manages the vaccination proces) as (UC14)
(UC15 - Sends user notification SMS or Email) as (UC15)
(UC16 - Verifies user recovery time is over) as (UC16)

'UC

Left to right direction
User - -> (UC1)
:HealthCare center Receptionist: - -> (UC1)
User - -> (UC2)
Nurse - -> (UC2)
System - -> (UC3)
System - -> (UC4)
System - -> (UC5)
Administrator - -> (UC6)
Receptionist - -> (UC7)
Nurse - -> (UC8)
Nurse - -> (UC9)
Nurse - -> (UC10)
Nurse - -> (UC11)
Nurse - -> (UC12)
User - -> (UC13)
:Center coordinator: - -> (UC14)
:Timer/clock: - -> (UC15)
:<<To define>>: - -> (UC16)
@enduml

@startuml


:Administrator:
:Nurse:
:Vaccination center Receptionist: as Receptionist
:HealthCare center Receptionist:
:User:
:System:
:Center coordinator:
:Timer/clock:


(UC1 - Schedules vaccination) as (UC1)
(UC2 - Specifies type of vaccine to be administer) as (UC2)
(UC3 - Check vaccination center capacity) as (UC3)
(UC4 - Comfirm the vaccination is schedule and informs the user) as (UC4)
(UC5 - Sends to the user an SMS confirming the vaccination event) as (UC5)
(UC6 - Configures and manages the core information: vaccines, type of vaccines, vaccination centers, employes) as (UC6)
(UC7 - Registers arrival of SNS user) as (UC7)
(UC8 - Confirms information about SNS user) as (UC8)
(UC9 - Check user infor and health condition) as (UC9)
(UC10 - Administrates the vaccine) as (UC10)
(UC11 - Registers vaccination andministration with vaccine type) as (UC11)
(UC12 - Record adverse reactions on the system) as (UC12)
(UC13 - Request EU COVID digital certificate) as (UC13)
(UC14 - Manages the vaccination proces) as (UC14)
(UC15 - Sends user notification SMS or Email) as (UC15)
(UC16 - Verifies user recovery time is over) as (UC16)


Left to right direction
User - -> (UC1)
:HealthCare center Receptionist: - -> (UC1)
User - -> (UC2)
Nurse - -> (UC2)
System - -> (UC3)
System - -> (UC4)
System - -> (UC5)
Administrator - -> (UC6)
Receptionist - -> (UC7)
Nurse - -> (UC8)
Nurse - -> (UC9)
Nurse - -> (UC10)
Nurse - -> (UC11)
Nurse - -> (UC12)
User - -> (UC13)
:Center coordinator: - -> (UC14)
:Timer/clock: - -> (UC15)
:<<To define>>: - -> (UC16)
@enduml

PlantUML version 1.2022.1(Tue Feb 01 18:19:58 GMT 2022)
(GPL source distribution)
Java Runtime: OpenJDK Runtime Environment
JVM: OpenJDK 64-Bit Server VM
Default Encoding: Cp1252
Language: en
Country: GB
--></g></svg>