<?xml version="1.0" encoding="UTF-8" standalone="no"?><svg xmlns="http://www.w3.org/2000/svg" xmlns:xlink="http://www.w3.org/1999/xlink" contentScriptType="application/ecmascript" contentStyleType="text/css" height="2356px" preserveAspectRatio="none" style="width:716px;height:2356px;background:#FFFFFF;" version="1.1" viewBox="0 0 716 2356" width="716px" zoomAndPan="magnify"><defs><filter height="300%" id="fxa46aku9ywuk" width="300%" x="-1" y="-1"><feGaussianBlur result="blurOut" stdDeviation="2.0"/><feColorMatrix in="blurOut" result="blurOut2" type="matrix" values="0 0 0 0 0 0 0 0 0 0 0 0 0 0 0 0 0 0 .4 0"/><feOffset dx="4.0" dy="4.0" in="blurOut2" result="blurOut3"/><feBlend in="SourceGraphic" in2="blurOut3" mode="normal"/></filter></defs><g><!--MD5=[62529e7d5259bf274c3bf3e446350d88]
entity Administrator--><ellipse cx="105.5" cy="2118" fill="#FEFECE" filter="url(#fxa46aku9ywuk)" rx="8" ry="8" style="stroke:#A80036;stroke-width:1.5;"/><path d="M105.5,2126 L105.5,2153 M92.5,2134 L118.5,2134 M105.5,2153 L92.5,2168 M105.5,2153 L118.5,2168 " fill="none" filter="url(#fxa46aku9ywuk)" style="stroke:#A80036;stroke-width:1.5;"/><text fill="#000000" font-family="sans-serif" font-size="14" lengthAdjust="spacing" textLength="83" x="64" y="2188.0332">Administrator</text><!--MD5=[c8b2cb7ab209025f476c1467c68b906a]
entity Nurse--><ellipse cx="105.5" cy="1412" fill="#FEFECE" filter="url(#fxa46aku9ywuk)" rx="8" ry="8" style="stroke:#A80036;stroke-width:1.5;"/><path d="M105.5,1420 L105.5,1447 M92.5,1428 L118.5,1428 M105.5,1447 L92.5,1462 M105.5,1447 L118.5,1462 " fill="none" filter="url(#fxa46aku9ywuk)" style="stroke:#A80036;stroke-width:1.5;"/><text fill="#000000" font-family="sans-serif" font-size="14" lengthAdjust="spacing" textLength="37" x="87" y="1482.0332">Nurse</text><!--MD5=[87a04b683345c3cce94ac9a6e159ab2f]
entity Receptionist--><ellipse cx="105.5" cy="1066" fill="#FEFECE" filter="url(#fxa46aku9ywuk)" rx="8" ry="8" style="stroke:#A80036;stroke-width:1.5;"/><path d="M105.5,1074 L105.5,1101 M92.5,1082 L118.5,1082 M105.5,1101 L92.5,1116 M105.5,1101 L118.5,1116 " fill="none" filter="url(#fxa46aku9ywuk)" style="stroke:#A80036;stroke-width:1.5;"/><text fill="#000000" font-family="sans-serif" font-size="14" lengthAdjust="spacing" textLength="199" x="6" y="1136.0332">Vaccination center Receptionist</text><!--MD5=[6fad29f0f53db0e193a1bfbaf54f93c1]
entity HealthCare center Receptionist--><ellipse cx="105.5" cy="1902" fill="#FEFECE" filter="url(#fxa46aku9ywuk)" rx="8" ry="8" style="stroke:#A80036;stroke-width:1.5;"/><path d="M105.5,1910 L105.5,1937 M92.5,1918 L118.5,1918 M105.5,1937 L92.5,1952 M105.5,1937 L118.5,1952 " fill="none" filter="url(#fxa46aku9ywuk)" style="stroke:#A80036;stroke-width:1.5;"/><text fill="#000000" font-family="sans-serif" font-size="14" lengthAdjust="spacing" textLength="197" x="7" y="1972.0332">HealthCare center Receptionist</text><!--MD5=[fee662a292a0353a69bd162820bae93b]
entity User--><ellipse cx="105.5" cy="1784" fill="#FEFECE" filter="url(#fxa46aku9ywuk)" rx="8" ry="8" style="stroke:#A80036;stroke-width:1.5;"/><path d="M105.5,1792 L105.5,1819 M92.5,1800 L118.5,1800 M105.5,1819 L92.5,1834 M105.5,1819 L118.5,1834 " fill="none" filter="url(#fxa46aku9ywuk)" style="stroke:#A80036;stroke-width:1.5;"/><text fill="#000000" font-family="sans-serif" font-size="14" lengthAdjust="spacing" textLength="29" x="91" y="1854.0332">User</text><!--MD5=[abea0b42432aea0f9ce66e53feda8644]
entity System--><ellipse cx="105.5" cy="829" fill="#FEFECE" filter="url(#fxa46aku9ywuk)" rx="8" ry="8" style="stroke:#A80036;stroke-width:1.5;"/><path d="M105.5,837 L105.5,864 M92.5,845 L118.5,845 M105.5,864 L92.5,879 M105.5,864 L118.5,879 " fill="none" filter="url(#fxa46aku9ywuk)" style="stroke:#A80036;stroke-width:1.5;"/><text fill="#000000" font-family="sans-serif" font-size="14" lengthAdjust="spacing" textLength="46" x="82.5" y="899.0332">System</text><!--MD5=[6e3b1fbc2c413aa76c59ab109e4317d6]
entity Center coordinator--><ellipse cx="105.5" cy="428" fill="#FEFECE" filter="url(#fxa46aku9ywuk)" rx="8" ry="8" style="stroke:#A80036;stroke-width:1.5;"/><path d="M105.5,436 L105.5,463 M92.5,444 L118.5,444 M105.5,463 L92.5,478 M105.5,463 L118.5,478 " fill="none" filter="url(#fxa46aku9ywuk)" style="stroke:#A80036;stroke-width:1.5;"/><text fill="#000000" font-family="sans-serif" font-size="14" lengthAdjust="spacing" textLength="119" x="46" y="498.0332">Center coordinator</text><!--MD5=[1394cc7a5d85754d446efba2b486b926]
entity Timer/clock--><ellipse cx="105.5" cy="132" fill="#FEFECE" filter="url(#fxa46aku9ywuk)" rx="8" ry="8" style="stroke:#A80036;stroke-width:1.5;"/><path d="M105.5,140 L105.5,167 M92.5,148 L118.5,148 M105.5,167 L92.5,182 M105.5,167 L118.5,182 " fill="none" filter="url(#fxa46aku9ywuk)" style="stroke:#A80036;stroke-width:1.5;"/><text fill="#000000" font-family="sans-serif" font-size="14" lengthAdjust="spacing" textLength="72" x="69.5" y="202.0332">Timer/clock</text><ellipse cx="484.5675" cy="1927.2135" fill="#FEFECE" filter="url(#fxa46aku9ywuk)" rx="109.0675" ry="24.2135" style="stroke:#A80036;stroke-width:1.5;"/><text fill="#000000" font-family="sans-serif" font-size="14" lengthAdjust="spacing" textLength="181" x="394.0675" y="1930.942">UC1 - Schedules vaccination</text><ellipse cx="484.574" cy="1718.0148" fill="#FEFECE" filter="url(#fxa46aku9ywuk)" rx="165.574" ry="35.5148" style="stroke:#A80036;stroke-width:1.5;"/><text fill="#000000" font-family="sans-serif" font-size="14" lengthAdjust="spacing" textLength="301" x="334.074" y="1721.7433">UC2 - Specifies type of vaccine to be administer</text><ellipse cx="484.5714" cy="750.1143" fill="#FEFECE" filter="url(#fxa46aku9ywuk)" rx="143.5714" ry="31.1143" style="stroke:#A80036;stroke-width:1.5;"/><text fill="#000000" font-family="sans-serif" font-size="14" lengthAdjust="spacing" textLength="255" x="357.0714" y="753.8428">UC3 - Check vaccination center capacity</text><ellipse cx="484.6515" cy="861.1303" fill="#FEFECE" filter="url(#fxa46aku9ywuk)" rx="213.6515" ry="45.1303" style="stroke:#A80036;stroke-width:1.5;"/><text fill="#000000" font-family="sans-serif" font-size="14" lengthAdjust="spacing" textLength="400" x="284.6515" y="864.8588">UC4 - Comfirm the vaccination is schedule and informs the user</text><ellipse cx="484.5227" cy="987.8045" fill="#FEFECE" filter="url(#fxa46aku9ywuk)" rx="219.5227" ry="46.3045" style="stroke:#A80036;stroke-width:1.5;"/><text fill="#000000" font-family="sans-serif" font-size="14" lengthAdjust="spacing" textLength="412" x="278.5227" y="991.533">UC5 - Sends to the user an SMS confirming the vaccination event</text><ellipse cx="484.5158" cy="2015.1032" fill="#8A2BE2" filter="url(#fxa46aku9ywuk)" rx="133.5158" ry="29.1032" style="stroke:#A80036;stroke-width:1.5;"/><text fill="#000000" font-family="sans-serif" font-size="14" font-style="italic" lengthAdjust="spacing" textLength="62" x="448.7026" y="2004.1113">«SprintB»</text><text fill="#000000" font-family="sans-serif" font-size="14" lengthAdjust="spacing" textLength="231" x="364.2026" y="2021.7207">UC6 - Registers Vaccination Centers</text><ellipse cx="484.5083" cy="1098.0017" fill="#FEFECE" filter="url(#fxa46aku9ywuk)" rx="128.0083" ry="28.0017" style="stroke:#A80036;stroke-width:1.5;"/><text fill="#000000" font-family="sans-serif" font-size="14" lengthAdjust="spacing" textLength="222" x="373.5083" y="1101.7302">UC7 - Registers arrival of SNS user</text><ellipse cx="484.6453" cy="1193.8291" fill="#FEFECE" filter="url(#fxa46aku9ywuk)" rx="152.1453" ry="32.8291" style="stroke:#A80036;stroke-width:1.5;"/><text fill="#000000" font-family="sans-serif" font-size="14" lengthAdjust="spacing" textLength="273" x="348.1453" y="1197.5576">UC8 - Confirms information about SNS user</text><ellipse cx="484.5791" cy="1295.1158" fill="#FEFECE" filter="url(#fxa46aku9ywuk)" rx="153.5791" ry="33.1158" style="stroke:#A80036;stroke-width:1.5;"/><text fill="#000000" font-family="sans-serif" font-size="14" lengthAdjust="spacing" textLength="276" x="346.5791" y="1298.8443">UC9 - Check user infor and health condition</text><ellipse cx="484.4467" cy="1389.7893" fill="#FEFECE" filter="url(#fxa46aku9ywuk)" rx="121.9467" ry="26.7893" style="stroke:#A80036;stroke-width:1.5;"/><text fill="#000000" font-family="sans-serif" font-size="14" lengthAdjust="spacing" textLength="209" x="379.9467" y="1393.5179">UC10 - Administrates the vaccine</text><ellipse cx="484.7187" cy="1497.0437" fill="#FEFECE" filter="url(#fxa46aku9ywuk)" rx="210.7187" ry="44.5437" style="stroke:#A80036;stroke-width:1.5;"/><text fill="#000000" font-family="sans-serif" font-size="14" lengthAdjust="spacing" textLength="394" x="287.7187" y="1500.7723">UC11 - Registers vaccination andministration with vaccine type</text><ellipse cx="484.5369" cy="1612.2074" fill="#FEFECE" filter="url(#fxa46aku9ywuk)" rx="166.5369" ry="35.7074" style="stroke:#A80036;stroke-width:1.5;"/><text fill="#000000" font-family="sans-serif" font-size="14" lengthAdjust="spacing" textLength="303" x="333.0369" y="1615.9359">UC12 - Record adverse reactions on the system</text><ellipse cx="484.5791" cy="1822.1158" fill="#FEFECE" filter="url(#fxa46aku9ywuk)" rx="153.5791" ry="33.1158" style="stroke:#A80036;stroke-width:1.5;"/><text fill="#000000" font-family="sans-serif" font-size="14" lengthAdjust="spacing" textLength="276" x="346.5791" y="1825.8443">UC13 - Request EU COVID digital certificate</text><ellipse cx="484.4287" cy="262.9857" fill="#8A2BE2" filter="url(#fxa46aku9ywuk)" rx="140.4287" ry="30.4857" style="stroke:#A80036;stroke-width:1.5;"/><text fill="#000000" font-family="sans-serif" font-size="14" font-style="italic" lengthAdjust="spacing" textLength="62" x="451.193" y="250.4253">«SprintB»</text><text fill="#000000" font-family="sans-serif" font-size="14" lengthAdjust="spacing" textLength="248" x="358.193" y="268.0346">UC14 - Monitor the vaccination process</text><ellipse cx="484.4928" cy="163.9986" fill="#FEFECE" filter="url(#fxa46aku9ywuk)" rx="155.4928" ry="33.4986" style="stroke:#A80036;stroke-width:1.5;"/><text fill="#000000" font-family="sans-serif" font-size="14" lengthAdjust="spacing" textLength="280" x="344.4928" y="167.7271">UC15 - Sends user notification SMS or Email</text><ellipse cx="484.3995" cy="45.7799" fill="#FEFECE" filter="url(#fxa46aku9ywuk)" rx="146.8995" ry="31.7799" style="stroke:#A80036;stroke-width:1.5;"/><text fill="#000000" font-family="sans-serif" font-size="14" lengthAdjust="spacing" textLength="262" x="353.3995" y="49.5084">UC16 - Verifies user recovery time is over</text><ellipse cx="484.5793" cy="2105.8159" fill="#8A2BE2" filter="url(#fxa46aku9ywuk)" rx="119.5793" ry="26.3159" style="stroke:#A80036;stroke-width:1.5;"/><text fill="#000000" font-family="sans-serif" font-size="14" font-style="italic" lengthAdjust="spacing" textLength="62" x="447.6521" y="2097.81">«SprintB»</text><text fill="#000000" font-family="sans-serif" font-size="14" lengthAdjust="spacing" textLength="181" x="388.1521" y="2115.4194">UC17 - Registers Employees</text><ellipse cx="484.5969" cy="2195.1194" fill="#8A2BE2" filter="url(#fxa46aku9ywuk)" rx="126.0969" ry="27.6194" style="stroke:#A80036;stroke-width:1.5;"/><text fill="#000000" font-family="sans-serif" font-size="14" font-style="italic" lengthAdjust="spacing" textLength="62" x="448.2766" y="2185.7054">«SprintB»</text><text fill="#000000" font-family="sans-serif" font-size="14" lengthAdjust="spacing" textLength="206" x="376.2766" y="2203.3148">UC18 - Specify new vaccine type</text><ellipse cx="484.3954" cy="2301.0791" fill="#8A2BE2" filter="url(#fxa46aku9ywuk)" rx="203.3954" ry="43.0791" style="stroke:#A80036;stroke-width:1.5;"/><text fill="#000000" font-family="sans-serif" font-size="14" font-style="italic" lengthAdjust="spacing" textLength="62" x="453.3954" y="2287.1982">«SprintB»</text><text fill="#000000" font-family="sans-serif" font-size="14" lengthAdjust="spacing" textLength="379" x="294.8954" y="2304.8076">UC19 - Specify a new vaccine and its administration process</text><ellipse cx="484.4934" cy="355.8987" fill="#8A2BE2" filter="url(#fxa46aku9ywuk)" rx="124.9934" ry="27.3987" style="stroke:#A80036;stroke-width:1.5;"/><text fill="#000000" font-family="sans-serif" font-size="14" font-style="italic" lengthAdjust="spacing" textLength="62" x="448.0837" y="346.7214">«SprintB»</text><text fill="#000000" font-family="sans-serif" font-size="14" lengthAdjust="spacing" textLength="202" x="378.0837" y="364.3308">UC20 - See statistics and charts</text><ellipse cx="484.6932" cy="459.8386" fill="#8A2BE2" filter="url(#fxa46aku9ywuk)" rx="192.1932" ry="40.8386" style="stroke:#A80036;stroke-width:1.5;"/><text fill="#000000" font-family="sans-serif" font-size="14" font-style="italic" lengthAdjust="spacing" textLength="62" x="453.6932" y="445.9578">«SprintB»</text><text fill="#000000" font-family="sans-serif" font-size="14" lengthAdjust="spacing" textLength="356" x="306.6932" y="463.5672">UC21 - Evaluate the performance of vaccination process</text><ellipse cx="484.2861" cy="562.0663" fill="#8A2BE2" filter="url(#fxa46aku9ywuk)" rx="111.2861" ry="25.5663" style="stroke:#A80036;stroke-width:1.5;"/><text fill="#000000" font-family="sans-serif" font-size="14" font-style="italic" lengthAdjust="spacing" textLength="62" x="446.9859" y="554.9904">«SprintB»</text><text fill="#000000" font-family="sans-serif" font-size="14" lengthAdjust="spacing" textLength="157" x="399.4859" y="572.5998">UC22 - Generate reports</text><ellipse cx="484.3757" cy="653.0751" fill="#8A2BE2" filter="url(#fxa46aku9ywuk)" rx="140.8757" ry="30.5751" style="stroke:#A80036;stroke-width:1.5;"/><text fill="#000000" font-family="sans-serif" font-size="14" font-style="italic" lengthAdjust="spacing" textLength="62" x="451.319" y="640.4137">«SprintB»</text><text fill="#000000" font-family="sans-serif" font-size="14" lengthAdjust="spacing" textLength="249" x="357.819" y="658.023">UC23 - Analyze data from other centers</text><!--MD5=[e3879dbc700982fc74f1628aca9dc721]
entity <<To define>>--><ellipse cx="105.5" cy="14" fill="#FEFECE" filter="url(#fxa46aku9ywuk)" rx="8" ry="8" style="stroke:#A80036;stroke-width:1.5;"/><path d="M105.5,22 L105.5,49 M92.5,30 L118.5,30 M105.5,49 L92.5,64 M105.5,49 L118.5,64 " fill="none" filter="url(#fxa46aku9ywuk)" style="stroke:#A80036;stroke-width:1.5;"/><text fill="#000000" font-family="sans-serif" font-size="14" lengthAdjust="spacing" textLength="76" x="67.5" y="84.0332">«To define»</text><!--MD5=[57bf3159251ba6d788e56222dd11fdd6]
link User to UC1--><path d="M120.33,1821.52 C147.67,1832.31 210.7,1856.57 265,1873 C309.84,1886.56 360.59,1899.26 401.89,1908.94 " fill="none" id="User-to-UC1" style="stroke:#A80036;stroke-width:1.0;"/><polygon fill="#A80036" points="406.88,1910.1,399.015,1904.172,402.009,1908.9715,397.2094,1911.9655,406.88,1910.1" style="stroke:#A80036;stroke-width:1.0;"/><!--MD5=[b27bcef2eda2d303d5531f43f4c19650]
link HealthCare center Receptionist to UC1--><path d="M204.08,1932.19 C255.01,1931.24 317.6,1930.08 370.61,1929.1 " fill="none" id="HealthCare center Receptionist-to-UC1" style="stroke:#A80036;stroke-width:1.0;"/><polygon fill="#A80036" points="375.71,1929,366.6318,1925.1808,370.711,1929.1,366.7918,1933.1792,375.71,1929" style="stroke:#A80036;stroke-width:1.0;"/><!--MD5=[06ebee4cbbe132cc9038a23578b440b9]
link User to UC2--><path d="M120.03,1812.1 C147.37,1804.26 211.13,1786.13 265,1772 C298.68,1763.16 335.39,1753.94 368.94,1745.66 " fill="none" id="User-to-UC2" style="stroke:#A80036;stroke-width:1.0;"/><polygon fill="#A80036" points="373.87,1744.45,364.1733,1742.7254,369.0159,1745.6492,366.0921,1750.4919,373.87,1744.45" style="stroke:#A80036;stroke-width:1.0;"/><!--MD5=[122a2d3178e8d979fd7b1446804ed9a9]
link Nurse to UC2--><path d="M124.11,1483.79 C148.42,1533.97 197.08,1619.2 265,1665 C286.86,1679.74 312.4,1690.39 338.15,1698.09 " fill="none" id="Nurse-to-UC2" style="stroke:#A80036;stroke-width:1.0;"/><polygon fill="#A80036" points="342.96,1699.49,335.44,1693.13,338.16,1698.09,333.2,1700.81,342.96,1699.49" style="stroke:#A80036;stroke-width:1.0;"/><!--MD5=[3000b15f651bb72e3fbc33b829d11a2e]
link System to UC3--><path d="M128.69,851.08 C159,837.81 215.27,814.21 265,799 C299.28,788.52 337.22,779.23 371.73,771.63 " fill="none" id="System-to-UC3" style="stroke:#A80036;stroke-width:1.0;"/><polygon fill="#A80036" points="376.79,770.53,367.1409,768.5566,371.9067,771.604,368.8593,776.3699,376.79,770.53" style="stroke:#A80036;stroke-width:1.0;"/><!--MD5=[83aa445791b5ea9c28174ad454280b86]
link System to UC4--><path d="M128.68,861 C157.17,861 209.7,861 265.76,861 " fill="none" id="System-to-UC4" style="stroke:#A80036;stroke-width:1.0;"/><polygon fill="#A80036" points="270.84,861,261.84,857,265.84,861,261.84,865,270.84,861" style="stroke:#A80036;stroke-width:1.0;"/><!--MD5=[cc9fb125504b85f277ecaa2d2120950c]
link System to UC5--><path d="M128.57,870.53 C158.97,883.48 215.58,906.98 265,924 C290.77,932.87 318.51,941.61 345.29,949.64 " fill="none" id="System-to-UC5" style="stroke:#A80036;stroke-width:1.0;"/><polygon fill="#A80036" points="350.28,951.13,342.7949,944.7289,345.4877,949.7037,340.5129,952.3965,350.28,951.13" style="stroke:#A80036;stroke-width:1.0;"/><!--MD5=[664b5d658f02658dc2bb7afbea31a1ab]
link Administrator to UC6--><path d="M147.26,2122.95 C178.35,2103.43 222.87,2077.83 265,2062 C298.32,2049.48 335.82,2039.9 370.22,2032.76 " fill="none" id="Administrator-to-UC6" style="stroke:#A80036;stroke-width:1.0;"/><polygon fill="#A80036" points="375.28,2031.72,365.6619,2029.6004,370.381,2032.7198,367.2616,2037.4389,375.28,2031.72" style="stroke:#A80036;stroke-width:1.0;"/><!--MD5=[c0019957493d04f00110f8a327690b35]
link Administrator to UC17--><path d="M147.2,2145.25 C200.86,2138.99 297.33,2127.73 373.23,2118.87 " fill="none" id="Administrator-to-UC17" style="stroke:#A80036;stroke-width:1.0;"/><polygon fill="#A80036" points="378.2,2118.29,368.7938,2115.3705,373.2343,2118.875,369.7298,2123.3156,378.2,2118.29" style="stroke:#A80036;stroke-width:1.0;"/><!--MD5=[edf0fa2247230cb752dfbed77be1e6b9]
link Administrator to UC18--><path d="M147.2,2154.86 C199.64,2161.12 292.96,2172.26 368.01,2181.22 " fill="none" id="Administrator-to-UC18" style="stroke:#A80036;stroke-width:1.0;"/><polygon fill="#A80036" points="373.39,2181.86,364.9359,2176.8075,368.4262,2181.2592,363.9746,2184.7496,373.39,2181.86" style="stroke:#A80036;stroke-width:1.0;"/><!--MD5=[17745c89db8db97d558b8ba338cb41be]
link Administrator to UC19--><path d="M147.14,2176.76 C178.35,2196.39 223.08,2222.55 265,2240 C289.9,2250.36 317.12,2259.55 343.63,2267.44 " fill="none" id="Administrator-to-UC19" style="stroke:#A80036;stroke-width:1.0;"/><polygon fill="#A80036" points="348.57,2268.9,341.0726,2262.5133,343.775,2267.483,338.8054,2270.1853,348.57,2268.9" style="stroke:#A80036;stroke-width:1.0;"/><!--MD5=[2bf53654eafc195014e45e272a8d8dc2]
link Receptionist to UC7--><path d="M205.06,1098 C249.69,1098 303.09,1098 351.15,1098 " fill="none" id="Receptionist-to-UC7" style="stroke:#A80036;stroke-width:1.0;"/><polygon fill="#A80036" points="356.38,1098,347.38,1094,351.38,1098,347.38,1102,356.38,1098" style="stroke:#A80036;stroke-width:1.0;"/><!--MD5=[803d76cf491b8bbba29856c05ef08844]
link Nurse to UC8--><path d="M124.01,1410.01 C149.02,1365.02 199.29,1286.54 265,1245 C289.43,1229.55 318.06,1218.78 346.4,1211.26 " fill="none" id="Nurse-to-UC8" style="stroke:#A80036;stroke-width:1.0;"/><polygon fill="#A80036" points="351.31,1209.99,341.5937,1208.3797,346.4704,1211.2463,343.6038,1216.123,351.31,1209.99" style="stroke:#A80036;stroke-width:1.0;"/><!--MD5=[b317977114905a9994df28272f66b164]
link Nurse to UC9--><path d="M124,1430.5 C152.17,1409.4 209.98,1368.72 265,1346 C294.56,1333.79 327.64,1324.17 358.93,1316.73 " fill="none" id="Nurse-to-UC9" style="stroke:#A80036;stroke-width:1.0;"/><polygon fill="#A80036" points="363.94,1315.56,354.2631,1313.7277,359.0729,1316.7052,356.0954,1321.515,363.94,1315.56" style="stroke:#A80036;stroke-width:1.0;"/><!--MD5=[de1336a9a7305a97a3177d4b5517db1d]
link Nurse to UC10--><path d="M124.18,1441.47 C168.61,1435.1 287.77,1418.04 376.76,1405.29 " fill="none" id="Nurse-to-UC10" style="stroke:#A80036;stroke-width:1.0;"/><polygon fill="#A80036" points="381.78,1404.57,372.3004,1401.8983,376.8314,1405.2851,373.4446,1409.8161,381.78,1404.57" style="stroke:#A80036;stroke-width:1.0;"/><!--MD5=[9f510cd050725f2afdd59804439480f2]
link Nurse to UC11--><path d="M124.18,1446.49 C157.09,1451.11 230.99,1461.5 303.27,1471.66 " fill="none" id="Nurse-to-UC11" style="stroke:#A80036;stroke-width:1.0;"/><polygon fill="#A80036" points="308.47,1472.39,300.103,1467.1945,303.5172,1471.7049,299.0068,1475.1191,308.47,1472.39" style="stroke:#A80036;stroke-width:1.0;"/><!--MD5=[f03bbcd9a7501abd4ca4d58e37f5f436]
link Nurse to UC12--><path d="M124.04,1460.35 C151.8,1485.35 208.52,1532.91 265,1559 C291.55,1571.27 321.27,1580.89 350.03,1588.37 " fill="none" id="Nurse-to-UC12" style="stroke:#A80036;stroke-width:1.0;"/><polygon fill="#A80036" points="355.01,1589.65,347.2699,1583.5597,350.1635,1588.4205,345.3027,1591.3141,355.01,1589.65" style="stroke:#A80036;stroke-width:1.0;"/><!--MD5=[c03e7c13dab4742813610bfb4d59d430]
link User to UC13--><path d="M120.36,1816.22 C154.16,1816.76 244.03,1818.19 325.91,1819.49 " fill="none" id="User-to-UC13" style="stroke:#A80036;stroke-width:1.0;"/><polygon fill="#A80036" points="331.29,1819.58,322.3599,1815.4263,326.2907,1819.4943,322.2228,1823.4251,331.29,1819.58" style="stroke:#A80036;stroke-width:1.0;"/><!--MD5=[71c19504da4f8e75a591ab692555d0bd]
link Center coordinator to UC14--><path d="M139.45,418.45 C168.78,384.35 214.73,337.52 265,311 C293.04,296.21 325.42,285.97 356.51,278.88 " fill="none" id="Center coordinator-to-UC14" style="stroke:#A80036;stroke-width:1.0;"/><polygon fill="#A80036" points="361.49,277.77,351.8366,275.8176,356.6091,278.8547,353.572,283.6271,361.49,277.77" style="stroke:#A80036;stroke-width:1.0;"/><!--MD5=[c4bf601e54916ce035651496f88b1c7c]
link Center coordinator to UC20--><path d="M165.3,436.2 C194.88,424.82 231.48,411.61 265,402 C302.71,391.19 344.76,381.74 381.81,374.26 " fill="none" id="Center coordinator-to-UC20" style="stroke:#A80036;stroke-width:1.0;"/><polygon fill="#A80036" points="386.77,373.26,377.1579,371.1135,381.8682,374.2461,378.7356,378.9564,386.77,373.26" style="stroke:#A80036;stroke-width:1.0;"/><!--MD5=[50a57f80635b9072c67ba48221736233]
link Center coordinator to UC21--><path d="M165.41,460 C198.81,460 242.73,460 287.23,460 " fill="none" id="Center coordinator-to-UC21" style="stroke:#A80036;stroke-width:1.0;"/><polygon fill="#A80036" points="292.38,460,283.38,456,287.38,460,283.38,464,292.38,460" style="stroke:#A80036;stroke-width:1.0;"/><!--MD5=[e0da454b71bd33f0dfce7fe7474f07cc]
link Center coordinator to UC22--><path d="M165.21,484.44 C194.76,496.08 231.38,509.5 265,519 C304.61,530.19 349.07,539.51 387.49,546.58 " fill="none" id="Center coordinator-to-UC22" style="stroke:#A80036;stroke-width:1.0;"/><polygon fill="#A80036" points="392.63,547.52,384.4978,541.9641,387.7118,546.6193,383.0567,549.8333,392.63,547.52" style="stroke:#A80036;stroke-width:1.0;"/><!--MD5=[4d200fbbaa75e396c52ef34542e6b072]
link Center coordinator to UC23--><path d="M140.87,501.74 C170.38,534.79 215.84,579.49 265,605 C293.14,619.6 325.56,629.77 356.65,636.85 " fill="none" id="Center coordinator-to-UC23" style="stroke:#A80036;stroke-width:1.0;"/><polygon fill="#A80036" points="361.63,637.96,353.7157,632.098,356.7497,636.8723,351.9754,639.9064,361.63,637.96" style="stroke:#A80036;stroke-width:1.0;"/><!--MD5=[d8396b1957326344a0dd74b584ce91b5]
link Timer/clock to UC15--><path d="M141.63,164 C183.41,164 256,164 323.59,164 " fill="none" id="Timer/clock-to-UC15" style="stroke:#A80036;stroke-width:1.0;"/><polygon fill="#A80036" points="328.86,164,319.86,160,323.86,164,319.86,168,328.86,164" style="stroke:#A80036;stroke-width:1.0;"/><!--MD5=[431adbd60f55226067a629c8ffc4708c]
link <<To define>> to UC16--><path d="M143.68,46 C187.49,46 263.05,46 331.81,46 " fill="none" id="&lt;&lt;To define&gt;&gt;-to-UC16" style="stroke:#A80036;stroke-width:1.0;"/><polygon fill="#A80036" points="337.17,46,328.17,42,332.17,46,328.17,50,337.17,46" style="stroke:#A80036;stroke-width:1.0;"/><!--MD5=[5bce6894b0817a34db3252b9e75184d4]
@startuml
'acthors.
skinparam usecase{

BackgroundColor<< SprintB >> BlueViolet

}


:Administrator:
:Nurse:
:Vaccination center Receptionist: as Receptionist
:HealthCare center Receptionist:
:User:
:System:
:Center coordinator:
:Timer/clock:

'User cases.

(UC1 - Schedules vaccination) as (UC1)
(UC2 - Specifies type of vaccine to be administer) as (UC2)
(UC3 - Check vaccination center capacity) as (UC3)
(UC4 - Comfirm the vaccination is schedule and informs the user) as (UC4)
(UC5 - Sends to the user an SMS confirming the vaccination event) as (UC5)
(UC6 - Registers Vaccination Centers) as (UC6)  << SprintB >>
(UC7 - Registers arrival of SNS user) as (UC7)
(UC8 - Confirms information about SNS user) as (UC8)
(UC9 - Check user infor and health condition) as (UC9)
(UC10 - Administrates the vaccine) as (UC10)
(UC11 - Registers vaccination andministration with vaccine type) as (UC11)
(UC12 - Record adverse reactions on the system) as (UC12)
(UC13 - Request EU COVID digital certificate) as (UC13)
(UC14 - Monitor the vaccination process) as (UC14) << SprintB >>
(UC15 - Sends user notification SMS or Email) as (UC15)
(UC16 - Verifies user recovery time is over) as (UC16)
(UC17 - Registers Employees) as (UC17)  << SprintB >>
(UC18 - Specify new vaccine type) as (UC18)  << SprintB >>
(UC19 - Specify a new vaccine and its administration process) as (UC19) << SprintB >>
(UC20 - See statistics and charts) as (UC20) << SprintB >>
(UC21 - Evaluate the performance of vaccination process) as (UC21) << SprintB >>
(UC22 - Generate reports) as (UC22) << SprintB >>
(UC23 - Analyze data from other centers) as (UC23) << SprintB >>




'UC

Left to right direction
User - -> (UC1)
:HealthCare center Receptionist: - -> (UC1)
User - -> (UC2)
Nurse - -> (UC2)
System - -> (UC3)
System - -> (UC4)
System - -> (UC5)
Administrator - -> (UC6)
Administrator - -> (UC17)
Administrator - -> (UC18)
Administrator - -> (UC19)
Receptionist - -> (UC7)
Nurse - -> (UC8)
Nurse - -> (UC9)
Nurse - -> (UC10)
Nurse - -> (UC11)
Nurse - -> (UC12)
User - -> (UC13)
:Center coordinator: - -> (UC14)
:Center coordinator: - -> (UC20)
:Center coordinator: - -> (UC21)
:Center coordinator: - -> (UC22)
:Center coordinator: - -> (UC23)
:Timer/clock: - -> (UC15)
:<<To define>>: - -> (UC16)
@enduml

@startuml
skinparam usecase{

BackgroundColor<< SprintB >> BlueViolet

}


:Administrator:
:Nurse:
:Vaccination center Receptionist: as Receptionist
:HealthCare center Receptionist:
:User:
:System:
:Center coordinator:
:Timer/clock:


(UC1 - Schedules vaccination) as (UC1)
(UC2 - Specifies type of vaccine to be administer) as (UC2)
(UC3 - Check vaccination center capacity) as (UC3)
(UC4 - Comfirm the vaccination is schedule and informs the user) as (UC4)
(UC5 - Sends to the user an SMS confirming the vaccination event) as (UC5)
(UC6 - Registers Vaccination Centers) as (UC6)  << SprintB >>
(UC7 - Registers arrival of SNS user) as (UC7)
(UC8 - Confirms information about SNS user) as (UC8)
(UC9 - Check user infor and health condition) as (UC9)
(UC10 - Administrates the vaccine) as (UC10)
(UC11 - Registers vaccination andministration with vaccine type) as (UC11)
(UC12 - Record adverse reactions on the system) as (UC12)
(UC13 - Request EU COVID digital certificate) as (UC13)
(UC14 - Monitor the vaccination process) as (UC14) << SprintB >>
(UC15 - Sends user notification SMS or Email) as (UC15)
(UC16 - Verifies user recovery time is over) as (UC16)
(UC17 - Registers Employees) as (UC17)  << SprintB >>
(UC18 - Specify new vaccine type) as (UC18)  << SprintB >>
(UC19 - Specify a new vaccine and its administration process) as (UC19) << SprintB >>
(UC20 - See statistics and charts) as (UC20) << SprintB >>
(UC21 - Evaluate the performance of vaccination process) as (UC21) << SprintB >>
(UC22 - Generate reports) as (UC22) << SprintB >>
(UC23 - Analyze data from other centers) as (UC23) << SprintB >>





Left to right direction
User - -> (UC1)
:HealthCare center Receptionist: - -> (UC1)
User - -> (UC2)
Nurse - -> (UC2)
System - -> (UC3)
System - -> (UC4)
System - -> (UC5)
Administrator - -> (UC6)
Administrator - -> (UC17)
Administrator - -> (UC18)
Administrator - -> (UC19)
Receptionist - -> (UC7)
Nurse - -> (UC8)
Nurse - -> (UC9)
Nurse - -> (UC10)
Nurse - -> (UC11)
Nurse - -> (UC12)
User - -> (UC13)
:Center coordinator: - -> (UC14)
:Center coordinator: - -> (UC20)
:Center coordinator: - -> (UC21)
:Center coordinator: - -> (UC22)
:Center coordinator: - -> (UC23)
:Timer/clock: - -> (UC15)
:<<To define>>: - -> (UC16)
@enduml

PlantUML version 1.2022.1(Tue Feb 01 18:19:58 GMT 2022)
(GPL source distribution)
Java Runtime: OpenJDK Runtime Environment
JVM: OpenJDK 64-Bit Server VM
Default Encoding: Cp1252
Language: pt
Country: PT
--></g></svg>