<?xml version="1.0" encoding="UTF-8" standalone="no"?><svg xmlns="http://www.w3.org/2000/svg" xmlns:xlink="http://www.w3.org/1999/xlink" contentStyleType="text/css" height="647px" preserveAspectRatio="none" style="width:1814px;height:647px;background:#FFFFFF;" version="1.1" viewBox="0 0 1814 647" width="1814px" zoomAndPan="magnify"><defs/><g><line style="stroke:#181818;stroke-width:0.5;stroke-dasharray:5.0,5.0;" x1="49" x2="49" y1="82.6094" y2="565.7891"/><line style="stroke:#181818;stroke-width:0.5;stroke-dasharray:5.0,5.0;" x1="380.5" x2="380.5" y1="82.6094" y2="565.7891"/><line style="stroke:#181818;stroke-width:0.5;stroke-dasharray:5.0,5.0;" x1="841.5" x2="841.5" y1="82.6094" y2="565.7891"/><line style="stroke:#181818;stroke-width:0.5;stroke-dasharray:5.0,5.0;" x1="1329.5" x2="1329.5" y1="82.6094" y2="565.7891"/><line style="stroke:#181818;stroke-width:0.5;stroke-dasharray:5.0,5.0;" x1="1754.5" x2="1754.5" y1="275.6719" y2="565.7891"/><text fill="#000000" font-family="sans-serif" font-size="14" lengthAdjust="spacing" textLength="83" x="5" y="79.5332">Administrator</text><ellipse cx="49.5" cy="13.5" fill="#E2E2F0" rx="8" ry="8" style="stroke:#181818;stroke-width:0.5;"/><path d="M49.5,21.5 L49.5,48.5 M36.5,29.5 L62.5,29.5 M49.5,48.5 L36.5,63.5 M49.5,48.5 L62.5,63.5 " fill="none" style="stroke:#181818;stroke-width:0.5;"/><text fill="#000000" font-family="sans-serif" font-size="14" lengthAdjust="spacing" textLength="83" x="5" y="579.3223">Administrator</text><ellipse cx="49.5" cy="590.8984" fill="#E2E2F0" rx="8" ry="8" style="stroke:#181818;stroke-width:0.5;"/><path d="M49.5,598.8984 L49.5,625.8984 M36.5,606.8984 L62.5,606.8984 M49.5,625.8984 L36.5,640.8984 M49.5,625.8984 L62.5,640.8984 " fill="none" style="stroke:#181818;stroke-width:0.5;"/><rect fill="#E2E2F0" height="31.6094" rx="2.5" ry="2.5" style="stroke:#181818;stroke-width:0.5;" width="160" x="300.5" y="50"/><text fill="#000000" font-family="sans-serif" font-size="14" lengthAdjust="spacing" textLength="146" x="307.5" y="71.5332">SpecifyNewEmployeeUI</text><rect fill="#E2E2F0" height="31.6094" rx="2.5" ry="2.5" style="stroke:#181818;stroke-width:0.5;" width="160" x="300.5" y="564.7891"/><text fill="#000000" font-family="sans-serif" font-size="14" lengthAdjust="spacing" textLength="146" x="307.5" y="586.3223">SpecifyNewEmployeeUI</text><rect fill="#E2E2F0" height="31.6094" rx="2.5" ry="2.5" style="stroke:#181818;stroke-width:0.5;" width="210" x="736.5" y="50"/><text fill="#000000" font-family="sans-serif" font-size="14" lengthAdjust="spacing" textLength="196" x="743.5" y="71.5332">SpecifyNewEmployeeController</text><rect fill="#E2E2F0" height="31.6094" rx="2.5" ry="2.5" style="stroke:#181818;stroke-width:0.5;" width="210" x="736.5" y="564.7891"/><text fill="#000000" font-family="sans-serif" font-size="14" lengthAdjust="spacing" textLength="196" x="743.5" y="586.3223">SpecifyNewEmployeeController</text><rect fill="#E2E2F0" height="31.6094" rx="2.5" ry="2.5" style="stroke:#181818;stroke-width:0.5;" width="74" x="1292.5" y="50"/><text fill="#000000" font-family="sans-serif" font-size="14" lengthAdjust="spacing" textLength="60" x="1299.5" y="71.5332">Company</text><rect fill="#E2E2F0" height="31.6094" rx="2.5" ry="2.5" style="stroke:#181818;stroke-width:0.5;" width="74" x="1292.5" y="564.7891"/><text fill="#000000" font-family="sans-serif" font-size="14" lengthAdjust="spacing" textLength="60" x="1299.5" y="586.3223">Company</text><rect fill="#E2E2F0" height="31.6094" rx="2.5" ry="2.5" style="stroke:#181818;stroke-width:0.5;" width="108" x="1700.5" y="564.7891"/><text fill="#000000" font-family="sans-serif" font-size="14" lengthAdjust="spacing" textLength="94" x="1707.5" y="586.3223">EmployeeType</text><polygon fill="#181818" points="368.5,110.9609,378.5,114.9609,368.5,118.9609,372.5,114.9609" style="stroke:#181818;stroke-width:1.0;"/><line style="stroke:#181818;stroke-width:1.0;" x1="49.5" x2="374.5" y1="114.9609" y2="114.9609"/><text fill="#000000" font-family="sans-serif" font-size="13" font-weight="bold" lengthAdjust="spacing" textLength="7" x="56.5" y="110.1045">1</text><text fill="#000000" font-family="sans-serif" font-size="13" lengthAdjust="spacing" textLength="195" x="67.5" y="110.1045">Starts specifying a new employee</text><polygon fill="#181818" points="60.5,141.3125,50.5,145.3125,60.5,149.3125,56.5,145.3125" style="stroke:#181818;stroke-width:1.0;"/><line style="stroke:#181818;stroke-width:1.0;stroke-dasharray:2.0,2.0;" x1="54.5" x2="379.5" y1="145.3125" y2="145.3125"/><text fill="#000000" font-family="sans-serif" font-size="13" font-weight="bold" lengthAdjust="spacing" textLength="7" x="66.5" y="140.4561">2</text><text fill="#000000" font-family="sans-serif" font-size="13" lengthAdjust="spacing" textLength="137" x="77.5" y="140.4561">Request employee data</text><polygon fill="#181818" points="368.5,171.6641,378.5,175.6641,368.5,179.6641,372.5,175.6641" style="stroke:#181818;stroke-width:1.0;"/><line style="stroke:#181818;stroke-width:1.0;" x1="49.5" x2="374.5" y1="175.6641" y2="175.6641"/><text fill="#000000" font-family="sans-serif" font-size="13" font-weight="bold" lengthAdjust="spacing" textLength="7" x="56.5" y="170.8076">3</text><text fill="#000000" font-family="sans-serif" font-size="13" lengthAdjust="spacing" textLength="151" x="67.5" y="170.8076">Types new employee data</text><polygon fill="#181818" points="829.5,202.0156,839.5,206.0156,829.5,210.0156,833.5,206.0156" style="stroke:#181818;stroke-width:1.0;"/><line style="stroke:#181818;stroke-width:1.0;" x1="380.5" x2="835.5" y1="206.0156" y2="206.0156"/><text fill="#000000" font-family="sans-serif" font-size="13" font-weight="bold" lengthAdjust="spacing" textLength="7" x="387.5" y="201.1592">4</text><text fill="#000000" font-family="sans-serif" font-size="13" lengthAdjust="spacing" textLength="426" x="398.5" y="201.1592">registerNewEmployee(name, address, phoneNumber, citizenCardNumber)</text><polygon fill="#181818" points="1317.5,232.3672,1327.5,236.3672,1317.5,240.3672,1321.5,236.3672" style="stroke:#181818;stroke-width:1.0;"/><line style="stroke:#181818;stroke-width:1.0;" x1="841.5" x2="1323.5" y1="236.3672" y2="236.3672"/><text fill="#000000" font-family="sans-serif" font-size="13" font-weight="bold" lengthAdjust="spacing" textLength="7" x="848.5" y="231.5107">5</text><text fill="#000000" font-family="sans-serif" font-size="13" lengthAdjust="spacing" textLength="453" x="859.5" y="231.5107">et = registerNewEmployee(name, address, phoneNumber, citizenCardNumber)</text><polygon fill="#181818" points="1688.5,262.7188,1698.5,266.7188,1688.5,270.7188,1692.5,266.7188" style="stroke:#181818;stroke-width:1.0;"/><line style="stroke:#181818;stroke-width:1.0;" x1="1329.5" x2="1694.5" y1="266.7188" y2="266.7188"/><text fill="#000000" font-family="sans-serif" font-size="13" font-weight="bold" lengthAdjust="spacing" textLength="7" x="1336.5" y="261.8623">6</text><text fill="#000000" font-family="sans-serif" font-size="13" lengthAdjust="spacing" textLength="336" x="1347.5" y="261.8623">create(name, address, phoneNumber, citizenCardNumber)</text><rect fill="#E2E2F0" height="31.6094" rx="2.5" ry="2.5" style="stroke:#181818;stroke-width:0.5;" width="108" x="1700.5" y="244.3672"/><text fill="#000000" font-family="sans-serif" font-size="14" lengthAdjust="spacing" textLength="94" x="1707.5" y="265.9004">EmployeeType</text><polygon fill="#181818" points="1317.5,305.3281,1327.5,309.3281,1317.5,313.3281,1321.5,309.3281" style="stroke:#181818;stroke-width:1.0;"/><line style="stroke:#181818;stroke-width:1.0;" x1="841.5" x2="1323.5" y1="309.3281" y2="309.3281"/><text fill="#000000" font-family="sans-serif" font-size="13" font-weight="bold" lengthAdjust="spacing" textLength="7" x="848.5" y="304.4717">7</text><text fill="#000000" font-family="sans-serif" font-size="13" lengthAdjust="spacing" textLength="101" x="859.5" y="304.4717">ValidatesType(et)</text><polygon fill="#181818" points="60.5,335.6797,50.5,339.6797,60.5,343.6797,56.5,339.6797" style="stroke:#181818;stroke-width:1.0;"/><line style="stroke:#181818;stroke-width:1.0;stroke-dasharray:2.0,2.0;" x1="54.5" x2="379.5" y1="339.6797" y2="339.6797"/><text fill="#000000" font-family="sans-serif" font-size="13" font-weight="bold" lengthAdjust="spacing" textLength="7" x="66.5" y="334.8232">8</text><text fill="#000000" font-family="sans-serif" font-size="13" lengthAdjust="spacing" textLength="296" x="77.5" y="334.8232">Shows introducced data and request a confirmation</text><polygon fill="#181818" points="368.5,366.0313,378.5,370.0313,368.5,374.0313,372.5,370.0313" style="stroke:#181818;stroke-width:1.0;"/><line style="stroke:#181818;stroke-width:1.0;" x1="49.5" x2="374.5" y1="370.0313" y2="370.0313"/><text fill="#000000" font-family="sans-serif" font-size="13" font-weight="bold" lengthAdjust="spacing" textLength="7" x="56.5" y="365.1748">9</text><text fill="#000000" font-family="sans-serif" font-size="13" lengthAdjust="spacing" textLength="106" x="67.5" y="365.1748">Comfirms the data</text><polygon fill="#181818" points="829.5,396.3828,839.5,400.3828,829.5,404.3828,833.5,400.3828" style="stroke:#181818;stroke-width:1.0;"/><line style="stroke:#181818;stroke-width:1.0;" x1="380.5" x2="835.5" y1="400.3828" y2="400.3828"/><text fill="#000000" font-family="sans-serif" font-size="13" font-weight="bold" lengthAdjust="spacing" textLength="14" x="387.5" y="395.5264">10</text><text fill="#000000" font-family="sans-serif" font-size="13" lengthAdjust="spacing" textLength="117" x="405.5" y="395.5264">saveNewEmployee()</text><polygon fill="#181818" points="1317.5,426.7344,1327.5,430.7344,1317.5,434.7344,1321.5,430.7344" style="stroke:#181818;stroke-width:1.0;"/><line style="stroke:#181818;stroke-width:1.0;" x1="841.5" x2="1323.5" y1="430.7344" y2="430.7344"/><text fill="#000000" font-family="sans-serif" font-size="13" font-weight="bold" lengthAdjust="spacing" textLength="14" x="848.5" y="425.8779">11</text><text fill="#000000" font-family="sans-serif" font-size="13" lengthAdjust="spacing" textLength="128" x="866.5" y="425.8779">saveNewEmployee(et)</text><line style="stroke:#181818;stroke-width:1.0;" x1="1329.5" x2="1371.5" y1="461.0859" y2="461.0859"/><line style="stroke:#181818;stroke-width:1.0;" x1="1371.5" x2="1371.5" y1="461.0859" y2="474.0859"/><line style="stroke:#181818;stroke-width:1.0;" x1="1330.5" x2="1371.5" y1="474.0859" y2="474.0859"/><polygon fill="#181818" points="1340.5,470.0859,1330.5,474.0859,1340.5,478.0859,1336.5,474.0859" style="stroke:#181818;stroke-width:1.0;"/><text fill="#000000" font-family="sans-serif" font-size="13" font-weight="bold" lengthAdjust="spacing" textLength="14" x="1336.5" y="456.2295">12</text><text fill="#000000" font-family="sans-serif" font-size="13" lengthAdjust="spacing" textLength="120" x="1354.5" y="456.2295">validateEmployee(et)</text><line style="stroke:#181818;stroke-width:1.0;" x1="1329.5" x2="1371.5" y1="504.4375" y2="504.4375"/><line style="stroke:#181818;stroke-width:1.0;" x1="1371.5" x2="1371.5" y1="504.4375" y2="517.4375"/><line style="stroke:#181818;stroke-width:1.0;" x1="1330.5" x2="1371.5" y1="517.4375" y2="517.4375"/><polygon fill="#181818" points="1340.5,513.4375,1330.5,517.4375,1340.5,521.4375,1336.5,517.4375" style="stroke:#181818;stroke-width:1.0;"/><text fill="#000000" font-family="sans-serif" font-size="13" font-weight="bold" lengthAdjust="spacing" textLength="14" x="1336.5" y="499.5811">13</text><text fill="#000000" font-family="sans-serif" font-size="13" lengthAdjust="spacing" textLength="98" x="1354.5" y="499.5811">addEmployee(et)</text><polygon fill="#181818" points="60.5,543.7891,50.5,547.7891,60.5,551.7891,56.5,547.7891" style="stroke:#181818;stroke-width:1.0;"/><line style="stroke:#181818;stroke-width:1.0;stroke-dasharray:2.0,2.0;" x1="54.5" x2="379.5" y1="547.7891" y2="547.7891"/><text fill="#000000" font-family="sans-serif" font-size="13" font-weight="bold" lengthAdjust="spacing" textLength="14" x="66.5" y="542.9326">14</text><text fill="#000000" font-family="sans-serif" font-size="13" lengthAdjust="spacing" textLength="215" x="84.5" y="542.9326">Confirms registrations has been done</text><!--MD5=[f33d8aaf53fa6ab3c6fff62378698487]
@startuml
'https://plantuml.com/sequence-diagram

autonumber

actor Administrator
Administrator -> SpecifyNewEmployeeUI : Starts specifying a new employee
SpecifyNewEmployeeUI - -> Administrator : Request employee data
Administrator -> SpecifyNewEmployeeUI : Types new employee data

SpecifyNewEmployeeUI -> SpecifyNewEmployeeController : registerNewEmployee(name, address, phoneNumber, citizenCardNumber)
SpecifyNewEmployeeController -> Company : et = registerNewEmployee(name, address, phoneNumber, citizenCardNumber)

create EmployeeType
Company -> EmployeeType : create(name, address, phoneNumber, citizenCardNumber)
SpecifyNewEmployeeController -> Company : ValidatesType(et)

Administrator <- - SpecifyNewEmployeeUI : Shows introducced data and request a confirmation
Administrator -> SpecifyNewEmployeeUI : Comfirms the data

SpecifyNewEmployeeUI -> SpecifyNewEmployeeController : saveNewEmployee()
SpecifyNewEmployeeController -> Company : saveNewEmployee(et)
Company -> Company : validateEmployee(et)
Company -> Company : addEmployee(et)

Administrator <- - SpecifyNewEmployeeUI : Confirms registrations has been done
@enduml

@startuml

autonumber

actor Administrator
Administrator -> SpecifyNewEmployeeUI : Starts specifying a new employee
SpecifyNewEmployeeUI - -> Administrator : Request employee data
Administrator -> SpecifyNewEmployeeUI : Types new employee data

SpecifyNewEmployeeUI -> SpecifyNewEmployeeController : registerNewEmployee(name, address, phoneNumber, citizenCardNumber)
SpecifyNewEmployeeController -> Company : et = registerNewEmployee(name, address, phoneNumber, citizenCardNumber)

create EmployeeType
Company -> EmployeeType : create(name, address, phoneNumber, citizenCardNumber)
SpecifyNewEmployeeController -> Company : ValidatesType(et)

Administrator <- - SpecifyNewEmployeeUI : Shows introducced data and request a confirmation
Administrator -> SpecifyNewEmployeeUI : Comfirms the data

SpecifyNewEmployeeUI -> SpecifyNewEmployeeController : saveNewEmployee()
SpecifyNewEmployeeController -> Company : saveNewEmployee(et)
Company -> Company : validateEmployee(et)
Company -> Company : addEmployee(et)

Administrator <- - SpecifyNewEmployeeUI : Confirms registrations has been done
@enduml

PlantUML version 1.2022.4(Sat Apr 09 14:29:17 BST 2022)
(GPL source distribution)
Java Runtime: OpenJDK Runtime Environment
JVM: OpenJDK 64-Bit Server VM
Default Encoding: Cp1252
Language: en
Country: GB
--></g></svg>