<?xml version="1.0" encoding="UTF-8" standalone="no"?><svg xmlns="http://www.w3.org/2000/svg" xmlns:xlink="http://www.w3.org/1999/xlink" contentScriptType="application/ecmascript" contentStyleType="text/css" height="821px" preserveAspectRatio="none" style="width:906px;height:821px;background:#FFFFFF;" version="1.1" viewBox="0 0 906 821" width="906px" zoomAndPan="magnify"><defs><filter height="300%" id="fuwstr9pq4vd5" width="300%" x="-1" y="-1"><feGaussianBlur result="blurOut" stdDeviation="2.0"/><feColorMatrix in="blurOut" result="blurOut2" type="matrix" values="0 0 0 0 0 0 0 0 0 0 0 0 0 0 0 0 0 0 .4 0"/><feOffset dx="4.0" dy="4.0" in="blurOut2" result="blurOut3"/><feBlend in="SourceGraphic" in2="blurOut3" mode="normal"/></filter></defs><g><!--MD5=[de60e6d4f424ae4d0522096f76a59010]
class VaccinationCenter--><rect codeLine="3" fill="#FEFECE" filter="url(#fuwstr9pq4vd5)" height="200.1953" id="VaccinationCenter" style="stroke:#A80036;stroke-width:1.5;" width="169" x="404.5" y="385"/><ellipse cx="436.15" cy="401" fill="#ADD1B2" rx="11" ry="11" style="stroke:#A80036;stroke-width:1.0;"/><path d="M438.15,397.5 Q438.3531,397 438.5875,396.75 Q438.8219,396.5 439.0875,396.5 Q439.5563,396.5 439.8531,396.7813 Q440.15,397.0625 440.15,397.7188 L440.15,399.2813 Q440.15,399.9375 439.8688,400.2188 Q439.5875,400.5 439.15,400.5 Q438.7594,400.5 438.5094,400.3281 Q438.2594,400.1563 438.15,399.7031 Q438.1031,399.3906 437.9313,399.2188 Q437.6188,398.8906 437.0563,398.7031 Q436.4938,398.5 435.9313,398.5 Q435.2281,398.5 434.6344,398.7813 Q434.0563,399.0625 433.6031,399.6875 Q433.15,400.3125 433.15,401.1719 L433.15,402.0938 Q433.15,403.125 433.9938,403.8125 Q434.8375,404.5 436.3375,404.5 Q437.2281,404.5 437.8531,404.2969 Q438.2125,404.1875 438.6188,403.8281 Q438.8844,403.625 439.025,403.5625 Q439.1656,403.5 439.3375,403.5 Q439.6656,403.5 439.9,403.7656 Q440.15,404.0156 440.15,404.375 Q440.15,404.7188 439.8063,405.125 Q439.3063,405.7188 438.5094,406.0469 Q437.4625,406.5 436.1813,406.5 Q434.6813,406.5 433.4781,405.9063 Q432.5094,405.4375 431.8219,404.4219 Q431.15,403.4063 431.15,402.2031 L431.15,401.1094 Q431.15,399.8594 431.7438,398.7656 Q432.3531,397.6719 433.4,397.0938 Q434.4625,396.5 435.65,396.5 Q436.3688,396.5 436.9938,396.75 Q437.6188,397 438.15,397.5 Z " fill="#000000"/><text fill="#000000" font-family="sans-serif" font-size="12" lengthAdjust="spacing" textLength="100" x="453.85" y="405.9102">VaccinationCenter</text><line style="stroke:#A80036;stroke-width:1.5;" x1="405.5" x2="572.5" y1="417" y2="417"/><rect fill="none" height="6" style="stroke:#C82930;stroke-width:1.0;" width="6" x="412.5" y="425"/><text fill="#000000" font-family="sans-serif" font-size="11" lengthAdjust="spacing" textLength="26" x="424.5" y="432.4189">name</text><rect fill="none" height="6" style="stroke:#C82930;stroke-width:1.0;" width="6" x="412.5" y="438.8359"/><text fill="#000000" font-family="sans-serif" font-size="11" lengthAdjust="spacing" textLength="34" x="424.5" y="446.2549">addres</text><rect fill="none" height="6" style="stroke:#C82930;stroke-width:1.0;" width="6" x="412.5" y="452.6719"/><text fill="#000000" font-family="sans-serif" font-size="11" lengthAdjust="spacing" textLength="69" x="424.5" y="460.0908">phone number</text><rect fill="none" height="6" style="stroke:#C82930;stroke-width:1.0;" width="6" x="412.5" y="466.5078"/><text fill="#000000" font-family="sans-serif" font-size="11" lengthAdjust="spacing" textLength="65" x="424.5" y="473.9268">e-mail addres</text><rect fill="none" height="6" style="stroke:#C82930;stroke-width:1.0;" width="6" x="412.5" y="480.3438"/><text fill="#000000" font-family="sans-serif" font-size="11" lengthAdjust="spacing" textLength="55" x="424.5" y="487.7627">fax number</text><rect fill="none" height="6" style="stroke:#C82930;stroke-width:1.0;" width="6" x="412.5" y="494.1797"/><text fill="#000000" font-family="sans-serif" font-size="11" lengthAdjust="spacing" textLength="76" x="424.5" y="501.5986">website addres</text><rect fill="none" height="6" style="stroke:#C82930;stroke-width:1.0;" width="6" x="412.5" y="508.0156"/><text fill="#000000" font-family="sans-serif" font-size="11" lengthAdjust="spacing" textLength="69" x="424.5" y="515.4346">opening hours</text><rect fill="none" height="6" style="stroke:#C82930;stroke-width:1.0;" width="6" x="412.5" y="521.8516"/><text fill="#000000" font-family="sans-serif" font-size="11" lengthAdjust="spacing" textLength="65" x="424.5" y="529.2705">closing hours</text><rect fill="none" height="6" style="stroke:#C82930;stroke-width:1.0;" width="6" x="412.5" y="535.6875"/><text fill="#000000" font-family="sans-serif" font-size="11" lengthAdjust="spacing" textLength="59" x="424.5" y="543.1064">slot duration</text><rect fill="none" height="6" style="stroke:#C82930;stroke-width:1.0;" width="6" x="412.5" y="549.5234"/><text fill="#000000" font-family="sans-serif" font-size="11" lengthAdjust="spacing" textLength="143" x="424.5" y="556.9424">maximum number of vaccines</text><rect fill="none" height="6" style="stroke:#C82930;stroke-width:1.0;" width="6" x="412.5" y="563.3594"/><text fill="#000000" font-family="sans-serif" font-size="11" lengthAdjust="spacing" textLength="55" x="424.5" y="570.7783">coordinator</text><line style="stroke:#A80036;stroke-width:1.5;" x1="405.5" x2="572.5" y1="577.1953" y2="577.1953"/><!--MD5=[a059576e163b46f56762f12600c49258]
class Nurse--><rect codeLine="16" fill="#FEFECE" filter="url(#fuwstr9pq4vd5)" height="48" id="Nurse" style="stroke:#A80036;stroke-width:1.5;" width="66" x="405" y="259"/><ellipse cx="420" cy="275" fill="#ADD1B2" rx="11" ry="11" style="stroke:#A80036;stroke-width:1.0;"/><path d="M422,271.5 Q422.2031,271 422.4375,270.75 Q422.6719,270.5 422.9375,270.5 Q423.4063,270.5 423.7031,270.7813 Q424,271.0625 424,271.7188 L424,273.2813 Q424,273.9375 423.7188,274.2188 Q423.4375,274.5 423,274.5 Q422.6094,274.5 422.3594,274.3281 Q422.1094,274.1563 422,273.7031 Q421.9531,273.3906 421.7813,273.2188 Q421.4688,272.8906 420.9063,272.7031 Q420.3438,272.5 419.7813,272.5 Q419.0781,272.5 418.4844,272.7813 Q417.9063,273.0625 417.4531,273.6875 Q417,274.3125 417,275.1719 L417,276.0938 Q417,277.125 417.8438,277.8125 Q418.6875,278.5 420.1875,278.5 Q421.0781,278.5 421.7031,278.2969 Q422.0625,278.1875 422.4688,277.8281 Q422.7344,277.625 422.875,277.5625 Q423.0156,277.5 423.1875,277.5 Q423.5156,277.5 423.75,277.7656 Q424,278.0156 424,278.375 Q424,278.7188 423.6563,279.125 Q423.1563,279.7188 422.3594,280.0469 Q421.3125,280.5 420.0313,280.5 Q418.5313,280.5 417.3281,279.9063 Q416.3594,279.4375 415.6719,278.4219 Q415,277.4063 415,276.2031 L415,275.1094 Q415,273.8594 415.5938,272.7656 Q416.2031,271.6719 417.25,271.0938 Q418.3125,270.5 419.5,270.5 Q420.2188,270.5 420.8438,270.75 Q421.4688,271 422,271.5 Z " fill="#000000"/><text fill="#000000" font-family="sans-serif" font-size="12" lengthAdjust="spacing" textLength="34" x="434" y="279.9102">Nurse</text><line style="stroke:#A80036;stroke-width:1.5;" x1="406" x2="470" y1="291" y2="291"/><line style="stroke:#A80036;stroke-width:1.5;" x1="406" x2="470" y1="299" y2="299"/><!--MD5=[86c7c362de55a38b660185a1328fe18d]
class Organization--><rect codeLine="17" fill="#FEFECE" filter="url(#fuwstr9pq4vd5)" height="48" id="Organization" style="stroke:#A80036;stroke-width:1.5;" width="101" x="627.5" y="133"/><ellipse cx="642.5" cy="149" fill="#ADD1B2" rx="11" ry="11" style="stroke:#A80036;stroke-width:1.0;"/><path d="M644.5,145.5 Q644.7031,145 644.9375,144.75 Q645.1719,144.5 645.4375,144.5 Q645.9063,144.5 646.2031,144.7813 Q646.5,145.0625 646.5,145.7188 L646.5,147.2813 Q646.5,147.9375 646.2188,148.2188 Q645.9375,148.5 645.5,148.5 Q645.1094,148.5 644.8594,148.3281 Q644.6094,148.1563 644.5,147.7031 Q644.4531,147.3906 644.2813,147.2188 Q643.9688,146.8906 643.4063,146.7031 Q642.8438,146.5 642.2813,146.5 Q641.5781,146.5 640.9844,146.7813 Q640.4063,147.0625 639.9531,147.6875 Q639.5,148.3125 639.5,149.1719 L639.5,150.0938 Q639.5,151.125 640.3438,151.8125 Q641.1875,152.5 642.6875,152.5 Q643.5781,152.5 644.2031,152.2969 Q644.5625,152.1875 644.9688,151.8281 Q645.2344,151.625 645.375,151.5625 Q645.5156,151.5 645.6875,151.5 Q646.0156,151.5 646.25,151.7656 Q646.5,152.0156 646.5,152.375 Q646.5,152.7188 646.1563,153.125 Q645.6563,153.7188 644.8594,154.0469 Q643.8125,154.5 642.5313,154.5 Q641.0313,154.5 639.8281,153.9063 Q638.8594,153.4375 638.1719,152.4219 Q637.5,151.4063 637.5,150.2031 L637.5,149.1094 Q637.5,147.8594 638.0938,146.7656 Q638.7031,145.6719 639.75,145.0938 Q640.8125,144.5 642,144.5 Q642.7188,144.5 643.3438,144.75 Q643.9688,145 644.5,145.5 Z " fill="#000000"/><text fill="#000000" font-family="sans-serif" font-size="12" lengthAdjust="spacing" textLength="69" x="656.5" y="153.9102">Organization</text><line style="stroke:#A80036;stroke-width:1.5;" x1="628.5" x2="727.5" y1="165" y2="165"/><line style="stroke:#A80036;stroke-width:1.5;" x1="628.5" x2="727.5" y1="173" y2="173"/><!--MD5=[2d935fd2dd068a13da1ae531f9857c4f]
class CenterCoordinator--><rect codeLine="18" fill="#FEFECE" filter="url(#fuwstr9pq4vd5)" height="48" id="CenterCoordinator" style="stroke:#A80036;stroke-width:1.5;" width="134" x="758" y="259"/><ellipse cx="773" cy="275" fill="#ADD1B2" rx="11" ry="11" style="stroke:#A80036;stroke-width:1.0;"/><path d="M775,271.5 Q775.2031,271 775.4375,270.75 Q775.6719,270.5 775.9375,270.5 Q776.4063,270.5 776.7031,270.7813 Q777,271.0625 777,271.7188 L777,273.2813 Q777,273.9375 776.7188,274.2188 Q776.4375,274.5 776,274.5 Q775.6094,274.5 775.3594,274.3281 Q775.1094,274.1563 775,273.7031 Q774.9531,273.3906 774.7813,273.2188 Q774.4688,272.8906 773.9063,272.7031 Q773.3438,272.5 772.7813,272.5 Q772.0781,272.5 771.4844,272.7813 Q770.9063,273.0625 770.4531,273.6875 Q770,274.3125 770,275.1719 L770,276.0938 Q770,277.125 770.8438,277.8125 Q771.6875,278.5 773.1875,278.5 Q774.0781,278.5 774.7031,278.2969 Q775.0625,278.1875 775.4688,277.8281 Q775.7344,277.625 775.875,277.5625 Q776.0156,277.5 776.1875,277.5 Q776.5156,277.5 776.75,277.7656 Q777,278.0156 777,278.375 Q777,278.7188 776.6563,279.125 Q776.1563,279.7188 775.3594,280.0469 Q774.3125,280.5 773.0313,280.5 Q771.5313,280.5 770.3281,279.9063 Q769.3594,279.4375 768.6719,278.4219 Q768,277.4063 768,276.2031 L768,275.1094 Q768,273.8594 768.5938,272.7656 Q769.2031,271.6719 770.25,271.0938 Q771.3125,270.5 772.5,270.5 Q773.2188,270.5 773.8438,270.75 Q774.4688,271 775,271.5 Z " fill="#000000"/><text fill="#000000" font-family="sans-serif" font-size="12" lengthAdjust="spacing" textLength="102" x="787" y="279.9102">CenterCoordinator</text><line style="stroke:#A80036;stroke-width:1.5;" x1="759" x2="891" y1="291" y2="291"/><line style="stroke:#A80036;stroke-width:1.5;" x1="759" x2="891" y1="299" y2="299"/><!--MD5=[19e445fc4d3b48519cbe33da05496394]
class Vaccine--><rect codeLine="19" fill="#FEFECE" filter="url(#fuwstr9pq4vd5)" height="144.8516" id="Vaccine" style="stroke:#A80036;stroke-width:1.5;" width="282" x="7" y="663"/><ellipse cx="122.25" cy="679" fill="#ADD1B2" rx="11" ry="11" style="stroke:#A80036;stroke-width:1.0;"/><path d="M124.25,675.5 Q124.4531,675 124.6875,674.75 Q124.9219,674.5 125.1875,674.5 Q125.6563,674.5 125.9531,674.7813 Q126.25,675.0625 126.25,675.7188 L126.25,677.2813 Q126.25,677.9375 125.9688,678.2188 Q125.6875,678.5 125.25,678.5 Q124.8594,678.5 124.6094,678.3281 Q124.3594,678.1563 124.25,677.7031 Q124.2031,677.3906 124.0313,677.2188 Q123.7188,676.8906 123.1563,676.7031 Q122.5938,676.5 122.0313,676.5 Q121.3281,676.5 120.7344,676.7813 Q120.1563,677.0625 119.7031,677.6875 Q119.25,678.3125 119.25,679.1719 L119.25,680.0938 Q119.25,681.125 120.0938,681.8125 Q120.9375,682.5 122.4375,682.5 Q123.3281,682.5 123.9531,682.2969 Q124.3125,682.1875 124.7188,681.8281 Q124.9844,681.625 125.125,681.5625 Q125.2656,681.5 125.4375,681.5 Q125.7656,681.5 126,681.7656 Q126.25,682.0156 126.25,682.375 Q126.25,682.7188 125.9063,683.125 Q125.4063,683.7188 124.6094,684.0469 Q123.5625,684.5 122.2813,684.5 Q120.7813,684.5 119.5781,683.9063 Q118.6094,683.4375 117.9219,682.4219 Q117.25,681.4063 117.25,680.2031 L117.25,679.1094 Q117.25,677.8594 117.8438,676.7656 Q118.4531,675.6719 119.5,675.0938 Q120.5625,674.5 121.75,674.5 Q122.4688,674.5 123.0938,674.75 Q123.7188,675 124.25,675.5 Z " fill="#000000"/><text fill="#000000" font-family="sans-serif" font-size="12" lengthAdjust="spacing" textLength="43" x="142.75" y="683.9102">Vaccine</text><line style="stroke:#A80036;stroke-width:1.5;" x1="8" x2="288" y1="695" y2="695"/><rect fill="none" height="6" style="stroke:#C82930;stroke-width:1.0;" width="6" x="15" y="703"/><text fill="#000000" font-family="sans-serif" font-size="11" lengthAdjust="spacing" textLength="26" x="27" y="710.4189">name</text><rect fill="none" height="6" style="stroke:#C82930;stroke-width:1.0;" width="6" x="15" y="716.8359"/><text fill="#000000" font-family="sans-serif" font-size="11" lengthAdjust="spacing" textLength="28" x="27" y="724.2549">brand</text><rect fill="none" height="6" style="stroke:#C82930;stroke-width:1.0;" width="6" x="15" y="730.6719"/><text fill="#000000" font-family="sans-serif" font-size="11" lengthAdjust="spacing" textLength="21" x="27" y="738.0908">type</text><rect fill="none" height="6" style="stroke:#C82930;stroke-width:1.0;" width="6" x="15" y="744.5078"/><text fill="#000000" font-family="sans-serif" font-size="11" lengthAdjust="spacing" textLength="55" x="27" y="751.9268">age groups</text><rect fill="none" height="6" style="stroke:#C82930;stroke-width:1.0;" width="6" x="15" y="758.3438"/><text fill="#000000" font-family="sans-serif" font-size="11" lengthAdjust="spacing" textLength="115" x="27" y="765.7627">vaccines per age group</text><rect fill="none" height="6" style="stroke:#C82930;stroke-width:1.0;" width="6" x="15" y="772.1797"/><text fill="#000000" font-family="sans-serif" font-size="11" lengthAdjust="spacing" textLength="36" x="27" y="779.5986">dosage</text><rect fill="none" height="6" style="stroke:#C82930;stroke-width:1.0;" width="6" x="15" y="786.0156"/><text fill="#000000" font-family="sans-serif" font-size="11" lengthAdjust="spacing" textLength="256" x="27" y="793.4346">time interval regarding previous vaccine administered</text><line style="stroke:#A80036;stroke-width:1.5;" x1="8" x2="288" y1="799.8516" y2="799.8516"/><!--MD5=[aaa7e27c4ec43917c82a021675d2c87a]
class WaitingRoom--><rect codeLine="28" fill="#FEFECE" filter="url(#fuwstr9pq4vd5)" height="48" id="WaitingRoom" style="stroke:#A80036;stroke-width:1.5;" width="107" x="262.5" y="259"/><ellipse cx="277.5" cy="275" fill="#ADD1B2" rx="11" ry="11" style="stroke:#A80036;stroke-width:1.0;"/><path d="M279.5,271.5 Q279.7031,271 279.9375,270.75 Q280.1719,270.5 280.4375,270.5 Q280.9063,270.5 281.2031,270.7813 Q281.5,271.0625 281.5,271.7188 L281.5,273.2813 Q281.5,273.9375 281.2188,274.2188 Q280.9375,274.5 280.5,274.5 Q280.1094,274.5 279.8594,274.3281 Q279.6094,274.1563 279.5,273.7031 Q279.4531,273.3906 279.2813,273.2188 Q278.9688,272.8906 278.4063,272.7031 Q277.8438,272.5 277.2813,272.5 Q276.5781,272.5 275.9844,272.7813 Q275.4063,273.0625 274.9531,273.6875 Q274.5,274.3125 274.5,275.1719 L274.5,276.0938 Q274.5,277.125 275.3438,277.8125 Q276.1875,278.5 277.6875,278.5 Q278.5781,278.5 279.2031,278.2969 Q279.5625,278.1875 279.9688,277.8281 Q280.2344,277.625 280.375,277.5625 Q280.5156,277.5 280.6875,277.5 Q281.0156,277.5 281.25,277.7656 Q281.5,278.0156 281.5,278.375 Q281.5,278.7188 281.1563,279.125 Q280.6563,279.7188 279.8594,280.0469 Q278.8125,280.5 277.5313,280.5 Q276.0313,280.5 274.8281,279.9063 Q273.8594,279.4375 273.1719,278.4219 Q272.5,277.4063 272.5,276.2031 L272.5,275.1094 Q272.5,273.8594 273.0938,272.7656 Q273.7031,271.6719 274.75,271.0938 Q275.8125,270.5 277,270.5 Q277.7188,270.5 278.3438,270.75 Q278.9688,271 279.5,271.5 Z " fill="#000000"/><text fill="#000000" font-family="sans-serif" font-size="12" lengthAdjust="spacing" textLength="75" x="291.5" y="279.9102">WaitingRoom</text><line style="stroke:#A80036;stroke-width:1.5;" x1="263.5" x2="368.5" y1="291" y2="291"/><line style="stroke:#A80036;stroke-width:1.5;" x1="263.5" x2="368.5" y1="299" y2="299"/><!--MD5=[52313708f2ec8e9ddeeca04977bc3672]
class VaccinationCenterReceptionist--><rect codeLine="29" fill="#FEFECE" filter="url(#fuwstr9pq4vd5)" height="48" id="VaccinationCenterReceptionist" style="stroke:#A80036;stroke-width:1.5;" width="201" x="347.5" y="133"/><ellipse cx="362.5" cy="149" fill="#ADD1B2" rx="11" ry="11" style="stroke:#A80036;stroke-width:1.0;"/><path d="M364.5,145.5 Q364.7031,145 364.9375,144.75 Q365.1719,144.5 365.4375,144.5 Q365.9063,144.5 366.2031,144.7813 Q366.5,145.0625 366.5,145.7188 L366.5,147.2813 Q366.5,147.9375 366.2188,148.2188 Q365.9375,148.5 365.5,148.5 Q365.1094,148.5 364.8594,148.3281 Q364.6094,148.1563 364.5,147.7031 Q364.4531,147.3906 364.2813,147.2188 Q363.9688,146.8906 363.4063,146.7031 Q362.8438,146.5 362.2813,146.5 Q361.5781,146.5 360.9844,146.7813 Q360.4063,147.0625 359.9531,147.6875 Q359.5,148.3125 359.5,149.1719 L359.5,150.0938 Q359.5,151.125 360.3438,151.8125 Q361.1875,152.5 362.6875,152.5 Q363.5781,152.5 364.2031,152.2969 Q364.5625,152.1875 364.9688,151.8281 Q365.2344,151.625 365.375,151.5625 Q365.5156,151.5 365.6875,151.5 Q366.0156,151.5 366.25,151.7656 Q366.5,152.0156 366.5,152.375 Q366.5,152.7188 366.1563,153.125 Q365.6563,153.7188 364.8594,154.0469 Q363.8125,154.5 362.5313,154.5 Q361.0313,154.5 359.8281,153.9063 Q358.8594,153.4375 358.1719,152.4219 Q357.5,151.4063 357.5,150.2031 L357.5,149.1094 Q357.5,147.8594 358.0938,146.7656 Q358.7031,145.6719 359.75,145.0938 Q360.8125,144.5 362,144.5 Q362.7188,144.5 363.3438,144.75 Q363.9688,145 364.5,145.5 Z " fill="#000000"/><text fill="#000000" font-family="sans-serif" font-size="12" lengthAdjust="spacing" textLength="169" x="376.5" y="153.9102">VaccinationCenterReceptionist</text><line style="stroke:#A80036;stroke-width:1.5;" x1="348.5" x2="547.5" y1="165" y2="165"/><line style="stroke:#A80036;stroke-width:1.5;" x1="348.5" x2="547.5" y1="173" y2="173"/><!--MD5=[da547346deef918ea16944ba046651ef]
class Administrator--><rect codeLine="42" fill="#FEFECE" filter="url(#fuwstr9pq4vd5)" height="48" id="Administrator" style="stroke:#A80036;stroke-width:1.5;" width="105" x="95.5" y="7"/><ellipse cx="110.5" cy="23" fill="#ADD1B2" rx="11" ry="11" style="stroke:#A80036;stroke-width:1.0;"/><path d="M112.5,19.5 Q112.7031,19 112.9375,18.75 Q113.1719,18.5 113.4375,18.5 Q113.9063,18.5 114.2031,18.7813 Q114.5,19.0625 114.5,19.7188 L114.5,21.2813 Q114.5,21.9375 114.2188,22.2188 Q113.9375,22.5 113.5,22.5 Q113.1094,22.5 112.8594,22.3281 Q112.6094,22.1563 112.5,21.7031 Q112.4531,21.3906 112.2813,21.2188 Q111.9688,20.8906 111.4063,20.7031 Q110.8438,20.5 110.2813,20.5 Q109.5781,20.5 108.9844,20.7813 Q108.4063,21.0625 107.9531,21.6875 Q107.5,22.3125 107.5,23.1719 L107.5,24.0938 Q107.5,25.125 108.3438,25.8125 Q109.1875,26.5 110.6875,26.5 Q111.5781,26.5 112.2031,26.2969 Q112.5625,26.1875 112.9688,25.8281 Q113.2344,25.625 113.375,25.5625 Q113.5156,25.5 113.6875,25.5 Q114.0156,25.5 114.25,25.7656 Q114.5,26.0156 114.5,26.375 Q114.5,26.7188 114.1563,27.125 Q113.6563,27.7188 112.8594,28.0469 Q111.8125,28.5 110.5313,28.5 Q109.0313,28.5 107.8281,27.9063 Q106.8594,27.4375 106.1719,26.4219 Q105.5,25.4063 105.5,24.2031 L105.5,23.1094 Q105.5,21.8594 106.0938,20.7656 Q106.7031,19.6719 107.75,19.0938 Q108.8125,18.5 110,18.5 Q110.7188,18.5 111.3438,18.75 Q111.9688,19 112.5,19.5 Z " fill="#000000"/><text fill="#000000" font-family="sans-serif" font-size="12" lengthAdjust="spacing" textLength="73" x="124.5" y="27.9102">Administrator</text><line style="stroke:#A80036;stroke-width:1.5;" x1="96.5" x2="199.5" y1="39" y2="39"/><line style="stroke:#A80036;stroke-width:1.5;" x1="96.5" x2="199.5" y1="47" y2="47"/><!--MD5=[acb5d1129714769191577de0c65a7622]
link WaitingRoom to VaccinationCenter--><path codeLine="35" d="M336.18,307.33 C353.21,327.02 378.8,356.6 404.19,385.96 " fill="none" id="WaitingRoom-VaccinationCenter" style="stroke:#A80036;stroke-width:1.0;"/><polygon fill="#000000" points="385.2709,349.9575,381.5766,341.1937,377.131,345.0389,385.2709,349.9575" style="stroke:#000000;stroke-width:1.0;"/><text fill="#000000" font-family="sans-serif" font-size="13" lengthAdjust="spacing" textLength="25" x="391" y="351.4951">from</text><!--MD5=[03efd8c9f90c050219bacdb83332548b]
link Nurse to VaccinationCenter--><path codeLine="36" d="M440.27,307.2 C441.89,321.16 444.41,339.22 448,355 C450.22,364.74 452.83,374.8 455.64,384.81 " fill="none" id="Nurse-VaccinationCenter" style="stroke:#A80036;stroke-width:1.0;"/><polygon fill="#000000" points="453.9713,351.0805,455.0971,341.6368,449.3312,342.7787,453.9713,351.0805" style="stroke:#000000;stroke-width:1.0;"/><text fill="#000000" font-family="sans-serif" font-size="13" lengthAdjust="spacing" textLength="52" x="462" y="351.4951">works for</text><!--MD5=[d5cf03d886352995267197dc535618ec]
link CenterCoordinator to VaccinationCenter--><path codeLine="37" d="M786.13,307.14 C734.48,337.88 641.82,393.03 573.67,433.6 " fill="none" id="CenterCoordinator-VaccinationCenter" style="stroke:#A80036;stroke-width:1.0;"/><polygon fill="#000000" points="734.7035,348.7331,743.9791,346.6323,740.9728,341.5814,734.7035,348.7331" style="stroke:#000000;stroke-width:1.0;"/><text fill="#000000" font-family="sans-serif" font-size="13" lengthAdjust="spacing" textLength="114" x="748" y="351.4951">creates relatories of</text><!--MD5=[ee48e7f218e419c69ba71c5a6bf84314]
link Organization to VaccinationCenter--><path codeLine="38" d="M664.99,181.03 C648.39,210.35 618.74,262.54 593,307 C578.36,332.29 562.42,359.54 547.53,384.9 " fill="none" id="Organization-VaccinationCenter" style="stroke:#A80036;stroke-width:1.0;"/><polygon fill="#000000" points="622.5039,287.5082,629.5659,281.138,624.4729,278.2036,622.5039,287.5082" style="stroke:#000000;stroke-width:1.0;"/><text fill="#000000" font-family="sans-serif" font-size="13" lengthAdjust="spacing" textLength="30" x="634" y="288.4951">owns</text><!--MD5=[650c9606e60ba0de880c4cddc39578fb]
link Organization to CenterCoordinator--><path codeLine="39" d="M705.31,181.03 C731.54,203.17 770.99,236.44 797.34,258.67 " fill="none" id="Organization-CenterCoordinator" style="stroke:#A80036;stroke-width:1.0;"/><polygon fill="#000000" points="761.1783,216.9517,766.1967,225.0305,769.9869,220.5378,761.1783,216.9517" style="stroke:#000000;stroke-width:1.0;"/><text fill="#000000" font-family="sans-serif" font-size="13" lengthAdjust="spacing" textLength="52" x="774" y="225.4951">works for</text><!--MD5=[759c7f6dbf62b13e16002bff783a0fa8]
link VaccinationCenter to Vaccine--><path codeLine="40" d="M404.27,547.75 C356.34,582.68 296.18,626.52 246.19,662.94 " fill="none" id="VaccinationCenter-Vaccine" style="stroke:#A80036;stroke-width:1.0;"/><polygon fill="#000000" points="309.959,627.1204,319,624.1688,315.5384,619.4183,309.959,627.1204" style="stroke:#000000;stroke-width:1.0;"/><text fill="#000000" font-family="sans-serif" font-size="13" lengthAdjust="spacing" textLength="49" x="323" y="629.4951">contains</text><!--MD5=[b7c420a35f713cf1260bff9e1457387d]
link VaccinationCenterReceptionist to VaccinationCenter--><path codeLine="41" d="M476.2,181.11 C484.82,189.62 493.48,199.91 499,211 C524.26,261.76 514.54,280.47 519,337 C520.23,352.58 519.23,368.93 516.99,384.84 " fill="none" id="VaccinationCenterReceptionist-VaccinationCenter" style="stroke:#A80036;stroke-width:1.0;"/><polygon fill="#000000" points="523.9816,288.0785,525.0876,278.6324,519.3241,279.7864,523.9816,288.0785" style="stroke:#000000;stroke-width:1.0;"/><text fill="#000000" font-family="sans-serif" font-size="13" lengthAdjust="spacing" textLength="52" x="532" y="288.4951">works for</text><!--MD5=[2a41c1af413c0662bf55a6b8913ea24f]
link Administrator to Organization--><path codeLine="43" d="M200.76,44.34 C303,68.26 526.9,120.65 627.4,144.16 " fill="none" id="Administrator-Organization" style="stroke:#A80036;stroke-width:1.0;"/><polygon fill="#000000" points="454.8685,95.3149,446.7308,90.3926,445.3918,96.1159,454.8685,95.3149" style="stroke:#000000;stroke-width:1.0;"/><text fill="#000000" font-family="sans-serif" font-size="13" lengthAdjust="spacing" textLength="52" x="459" y="99.4951">works for</text><!--MD5=[0e439f75a3d966f965fe5f237a1bacbe]
link Administrator to Vaccine--><path codeLine="44" d="M139.14,55.39 C130.61,80.04 119,120.18 119,156 C119,156 119,156 119,486 C119,545.94 127.43,613.47 135.2,662.99 " fill="none" id="Administrator-Vaccine" style="stroke:#A80036;stroke-width:1.0;"/><polygon fill="#000000" points="123.9676,288.1757,126.9651,279.1498,121.0874,279.1117,123.9676,288.1757" style="stroke:#000000;stroke-width:1.0;"/><text fill="#000000" font-family="sans-serif" font-size="13" lengthAdjust="spacing" textLength="93" x="133" y="288.4951">can specify new</text><!--MD5=[37305fa66144d349c9b91992df7c98af]
link VaccinationCenterReceptionist to WaitingRoom--><path codeLine="45" d="M423.48,181.03 C399.92,203.17 364.5,236.44 340.84,258.67 " fill="none" id="VaccinationCenterReceptionist-WaitingRoom" style="stroke:#A80036;stroke-width:1.0;"/><polygon fill="#000000" points="391.3559,223.5994,399.9604,219.548,395.9358,215.2641,391.3559,223.5994" style="stroke:#000000;stroke-width:1.0;"/><text fill="#000000" font-family="sans-serif" font-size="13" lengthAdjust="spacing" textLength="86" x="404" y="225.4951">send patient to</text><!--MD5=[36ec336b03a86f16e2073cda7b13127d]
@startuml
'https://plantuml.com/sequence-diagram

class VaccinationCenter {
-name
-addres
-phone number
-e-mail addres
-fax number
-website addres
-opening hours
-closing hours
-slot duration
-maximum number of vaccines
-coordinator
}
class Nurse
class Organization
class CenterCoordinator
class Vaccine {
-name
-brand
-type
-age groups
-vaccines per age group
-dosage
-time interval regarding previous vaccine administered
}
class WaitingRoom
class VaccinationCenterReceptionist





WaitingRoom - - VaccinationCenter : from >
Nurse - - VaccinationCenter : works for >
CenterCoordinator - - VaccinationCenter : creates relatories of >
Organization -d- VaccinationCenter : owns >
CenterCoordinator -u- Organization : works for >
VaccinationCenter - - Vaccine : contains >
VaccinationCenterReceptionist - - VaccinationCenter : works for >
class Administrator
Administrator - - Organization : works for >
Administrator - - Vaccine : can specify new >
VaccinationCenterReceptionist - - WaitingRoom : send patient to >




@enduml

@startuml

class VaccinationCenter {
-name
-addres
-phone number
-e-mail addres
-fax number
-website addres
-opening hours
-closing hours
-slot duration
-maximum number of vaccines
-coordinator
}
class Nurse
class Organization
class CenterCoordinator
class Vaccine {
-name
-brand
-type
-age groups
-vaccines per age group
-dosage
-time interval regarding previous vaccine administered
}
class WaitingRoom
class VaccinationCenterReceptionist





WaitingRoom - - VaccinationCenter : from >
Nurse - - VaccinationCenter : works for >
CenterCoordinator - - VaccinationCenter : creates relatories of >
Organization -d- VaccinationCenter : owns >
CenterCoordinator -u- Organization : works for >
VaccinationCenter - - Vaccine : contains >
VaccinationCenterReceptionist - - VaccinationCenter : works for >
class Administrator
Administrator - - Organization : works for >
Administrator - - Vaccine : can specify new >
VaccinationCenterReceptionist - - WaitingRoom : send patient to >




@enduml

PlantUML version 1.2022.1(Tue Feb 01 18:19:58 GMT 2022)
(GPL source distribution)
Java Runtime: OpenJDK Runtime Environment
JVM: OpenJDK 64-Bit Server VM
Default Encoding: Cp1252
Language: pt
Country: PT
--></g></svg>