<?xml version="1.0" encoding="UTF-8" standalone="no"?><svg xmlns="http://www.w3.org/2000/svg" xmlns:xlink="http://www.w3.org/1999/xlink" contentStyleType="text/css" height="701px" preserveAspectRatio="none" style="width:1103px;height:701px;background:#FFFFFF;" version="1.1" viewBox="0 0 1103 701" width="1103px" zoomAndPan="magnify"><defs/><g><!--MD5=[72be06cc7ae02ccc98efe28a50e62246]
class SNSUser--><g id="elem_SNSUser"><rect codeLine="2" fill="#F1F1F1" height="188.875" id="SNSUser" rx="2.5" ry="2.5" style="stroke:#181818;stroke-width:0.5;" width="152" x="352.5" y="7"/><ellipse cx="396.3" cy="23" fill="#ADD1B2" rx="11" ry="11" style="stroke:#181818;stroke-width:1.0;"/><path d="M398.3,19.5 Q398.5031,19 398.7375,18.75 Q398.9719,18.5 399.2375,18.5 Q399.7063,18.5 400.0031,18.7813 Q400.3,19.0625 400.3,19.7188 L400.3,21.2813 Q400.3,21.9375 400.0188,22.2188 Q399.7375,22.5 399.3,22.5 Q398.9094,22.5 398.6594,22.3281 Q398.4094,22.1563 398.3,21.7031 Q398.2531,21.3906 398.0813,21.2188 Q397.7688,20.8906 397.2063,20.7031 Q396.6438,20.5 396.0813,20.5 Q395.3781,20.5 394.7844,20.7813 Q394.2063,21.0625 393.7531,21.6875 Q393.3,22.3125 393.3,23.1719 L393.3,24.0938 Q393.3,25.125 394.1438,25.8125 Q394.9875,26.5 396.4875,26.5 Q397.3781,26.5 398.0031,26.2969 Q398.3625,26.1875 398.7688,25.8281 Q399.0344,25.625 399.175,25.5625 Q399.3156,25.5 399.4875,25.5 Q399.8156,25.5 400.05,25.7656 Q400.3,26.0156 400.3,26.375 Q400.3,26.7188 399.9563,27.125 Q399.4563,27.7188 398.6594,28.0469 Q397.6125,28.5 396.3313,28.5 Q394.8313,28.5 393.6281,27.9063 Q392.6594,27.4375 391.9719,26.4219 Q391.3,25.4063 391.3,24.2031 L391.3,23.1094 Q391.3,21.8594 391.8938,20.7656 Q392.5031,19.6719 393.55,19.0938 Q394.6125,18.5 395.8,18.5 Q396.5188,18.5 397.1438,18.75 Q397.7688,19 398.3,19.5 Z " fill="#000000"/><text fill="#000000" font-family="sans-serif" font-size="14" lengthAdjust="spacing" textLength="56" x="416.7" y="28.7285">SNSUser</text><line style="stroke:#181818;stroke-width:0.5;" x1="353.5" x2="503.5" y1="39" y2="39"/><rect fill="none" height="6" style="stroke:#C82930;stroke-width:1.0;" width="6" x="360.5" y="47"/><text fill="#000000" font-family="sans-serif" font-size="14" lengthAdjust="spacing" textLength="35" x="372.5" y="57.5332">name</text><rect fill="none" height="6" style="stroke:#C82930;stroke-width:1.0;" width="6" x="360.5" y="64.6094"/><text fill="#000000" font-family="sans-serif" font-size="14" lengthAdjust="spacing" textLength="21" x="372.5" y="75.1426">sex</text><rect fill="none" height="6" style="stroke:#C82930;stroke-width:1.0;" width="6" x="360.5" y="82.2188"/><text fill="#000000" font-family="sans-serif" font-size="14" lengthAdjust="spacing" textLength="63" x="372.5" y="92.752">Birth Date</text><rect fill="none" height="6" style="stroke:#C82930;stroke-width:1.0;" width="6" x="360.5" y="99.8281"/><text fill="#000000" font-family="sans-serif" font-size="14" lengthAdjust="spacing" textLength="59" x="372.5" y="110.3613">Addresss</text><rect fill="none" height="6" style="stroke:#C82930;stroke-width:1.0;" width="6" x="360.5" y="117.4375"/><text fill="#000000" font-family="sans-serif" font-size="14" lengthAdjust="spacing" textLength="93" x="372.5" y="127.9707">Phone number</text><rect fill="none" height="6" style="stroke:#C82930;stroke-width:1.0;" width="6" x="360.5" y="135.0469"/><text fill="#000000" font-family="sans-serif" font-size="14" lengthAdjust="spacing" textLength="39" x="372.5" y="145.5801">E-mail</text><rect fill="none" height="6" style="stroke:#C82930;stroke-width:1.0;" width="6" x="360.5" y="152.6563"/><text fill="#000000" font-family="sans-serif" font-size="14" lengthAdjust="spacing" textLength="79" x="372.5" y="163.1895">SNS number</text><rect fill="none" height="6" style="stroke:#C82930;stroke-width:1.0;" width="6" x="360.5" y="170.2656"/><text fill="#000000" font-family="sans-serif" font-size="14" lengthAdjust="spacing" textLength="126" x="372.5" y="180.7988">Citizen card number</text><line style="stroke:#181818;stroke-width:0.5;" x1="353.5" x2="503.5" y1="187.875" y2="187.875"/></g><!--MD5=[de60e6d4f424ae4d0522096f76a59010]
class VaccinationCenter--><g id="elem_VaccinationCenter"><rect codeLine="12" fill="#F1F1F1" height="241.7031" id="VaccinationCenter" rx="2.5" ry="2.5" style="stroke:#181818;stroke-width:0.5;" width="211" x="701" y="274"/><ellipse cx="744.35" cy="290" fill="#ADD1B2" rx="11" ry="11" style="stroke:#181818;stroke-width:1.0;"/><path d="M746.35,286.5 Q746.5531,286 746.7875,285.75 Q747.0219,285.5 747.2875,285.5 Q747.7563,285.5 748.0531,285.7813 Q748.35,286.0625 748.35,286.7188 L748.35,288.2813 Q748.35,288.9375 748.0688,289.2188 Q747.7875,289.5 747.35,289.5 Q746.9594,289.5 746.7094,289.3281 Q746.4594,289.1563 746.35,288.7031 Q746.3031,288.3906 746.1313,288.2188 Q745.8188,287.8906 745.2563,287.7031 Q744.6938,287.5 744.1313,287.5 Q743.4281,287.5 742.8344,287.7813 Q742.2563,288.0625 741.8031,288.6875 Q741.35,289.3125 741.35,290.1719 L741.35,291.0938 Q741.35,292.125 742.1938,292.8125 Q743.0375,293.5 744.5375,293.5 Q745.4281,293.5 746.0531,293.2969 Q746.4125,293.1875 746.8188,292.8281 Q747.0844,292.625 747.225,292.5625 Q747.3656,292.5 747.5375,292.5 Q747.8656,292.5 748.1,292.7656 Q748.35,293.0156 748.35,293.375 Q748.35,293.7188 748.0063,294.125 Q747.5063,294.7188 746.7094,295.0469 Q745.6625,295.5 744.3813,295.5 Q742.8813,295.5 741.6781,294.9063 Q740.7094,294.4375 740.0219,293.4219 Q739.35,292.4063 739.35,291.2031 L739.35,290.1094 Q739.35,288.8594 739.9438,287.7656 Q740.5531,286.6719 741.6,286.0938 Q742.6625,285.5 743.85,285.5 Q744.5688,285.5 745.1938,285.75 Q745.8188,286 746.35,286.5 Z " fill="#000000"/><text fill="#000000" font-family="sans-serif" font-size="14" lengthAdjust="spacing" textLength="116" x="764.65" y="295.7285">VaccinationCenter</text><line style="stroke:#181818;stroke-width:0.5;" x1="702" x2="911" y1="306" y2="306"/><rect fill="none" height="6" style="stroke:#C82930;stroke-width:1.0;" width="6" x="709" y="314"/><text fill="#000000" font-family="sans-serif" font-size="14" lengthAdjust="spacing" textLength="35" x="721" y="324.5332">name</text><rect fill="none" height="6" style="stroke:#C82930;stroke-width:1.0;" width="6" x="709" y="331.6094"/><text fill="#000000" font-family="sans-serif" font-size="14" lengthAdjust="spacing" textLength="44" x="721" y="342.1426">addres</text><rect fill="none" height="6" style="stroke:#C82930;stroke-width:1.0;" width="6" x="709" y="349.2188"/><text fill="#000000" font-family="sans-serif" font-size="14" lengthAdjust="spacing" textLength="92" x="721" y="359.752">phone number</text><rect fill="none" height="6" style="stroke:#C82930;stroke-width:1.0;" width="6" x="709" y="366.8281"/><text fill="#000000" font-family="sans-serif" font-size="14" lengthAdjust="spacing" textLength="86" x="721" y="377.3613">e-mail addres</text><rect fill="none" height="6" style="stroke:#C82930;stroke-width:1.0;" width="6" x="709" y="384.4375"/><text fill="#000000" font-family="sans-serif" font-size="14" lengthAdjust="spacing" textLength="70" x="721" y="394.9707">fax number</text><rect fill="none" height="6" style="stroke:#C82930;stroke-width:1.0;" width="6" x="709" y="402.0469"/><text fill="#000000" font-family="sans-serif" font-size="14" lengthAdjust="spacing" textLength="95" x="721" y="412.5801">website addres</text><rect fill="none" height="6" style="stroke:#C82930;stroke-width:1.0;" width="6" x="709" y="419.6563"/><text fill="#000000" font-family="sans-serif" font-size="14" lengthAdjust="spacing" textLength="91" x="721" y="430.1895">opening hours</text><rect fill="none" height="6" style="stroke:#C82930;stroke-width:1.0;" width="6" x="709" y="437.2656"/><text fill="#000000" font-family="sans-serif" font-size="14" lengthAdjust="spacing" textLength="84" x="721" y="447.7988">closing hours</text><rect fill="none" height="6" style="stroke:#C82930;stroke-width:1.0;" width="6" x="709" y="454.875"/><text fill="#000000" font-family="sans-serif" font-size="14" lengthAdjust="spacing" textLength="78" x="721" y="465.4082">slot duration</text><rect fill="none" height="6" style="stroke:#C82930;stroke-width:1.0;" width="6" x="709" y="472.4844"/><text fill="#000000" font-family="sans-serif" font-size="14" lengthAdjust="spacing" textLength="185" x="721" y="483.0176">maximum number of vaccines</text><rect fill="none" height="6" style="stroke:#C82930;stroke-width:1.0;" width="6" x="709" y="490.0938"/><text fill="#000000" font-family="sans-serif" font-size="14" lengthAdjust="spacing" textLength="72" x="721" y="500.627">coordinator</text><line style="stroke:#181818;stroke-width:0.5;" x1="702" x2="911" y1="507.7031" y2="507.7031"/></g><!--MD5=[1db03e903fe0a044a2ca0dcbef10799a]
class HealthCareCenter--><g id="elem_HealthCareCenter"><rect codeLine="25" fill="#F1F1F1" height="65.6094" id="HealthCareCenter" rx="2.5" ry="2.5" style="stroke:#181818;stroke-width:0.5;" width="146" x="733.5" y="611.5"/><ellipse cx="748.5" cy="627.5" fill="#ADD1B2" rx="11" ry="11" style="stroke:#181818;stroke-width:1.0;"/><path d="M750.5,624 Q750.7031,623.5 750.9375,623.25 Q751.1719,623 751.4375,623 Q751.9063,623 752.2031,623.2813 Q752.5,623.5625 752.5,624.2188 L752.5,625.7813 Q752.5,626.4375 752.2188,626.7188 Q751.9375,627 751.5,627 Q751.1094,627 750.8594,626.8281 Q750.6094,626.6563 750.5,626.2031 Q750.4531,625.8906 750.2813,625.7188 Q749.9688,625.3906 749.4063,625.2031 Q748.8438,625 748.2813,625 Q747.5781,625 746.9844,625.2813 Q746.4063,625.5625 745.9531,626.1875 Q745.5,626.8125 745.5,627.6719 L745.5,628.5938 Q745.5,629.625 746.3438,630.3125 Q747.1875,631 748.6875,631 Q749.5781,631 750.2031,630.7969 Q750.5625,630.6875 750.9688,630.3281 Q751.2344,630.125 751.375,630.0625 Q751.5156,630 751.6875,630 Q752.0156,630 752.25,630.2656 Q752.5,630.5156 752.5,630.875 Q752.5,631.2188 752.1563,631.625 Q751.6563,632.2188 750.8594,632.5469 Q749.8125,633 748.5313,633 Q747.0313,633 745.8281,632.4063 Q744.8594,631.9375 744.1719,630.9219 Q743.5,629.9063 743.5,628.7031 L743.5,627.6094 Q743.5,626.3594 744.0938,625.2656 Q744.7031,624.1719 745.75,623.5938 Q746.8125,623 748,623 Q748.7188,623 749.3438,623.25 Q749.9688,623.5 750.5,624 Z " fill="#000000"/><text fill="#000000" font-family="sans-serif" font-size="14" lengthAdjust="spacing" textLength="114" x="762.5" y="633.2285">HealthCareCenter</text><line style="stroke:#181818;stroke-width:0.5;" x1="734.5" x2="878.5" y1="643.5" y2="643.5"/><rect fill="none" height="6" style="stroke:#C82930;stroke-width:1.0;" width="6" x="741.5" y="651.5"/><text fill="#000000" font-family="sans-serif" font-size="14" lengthAdjust="spacing" textLength="72" x="753.5" y="662.0332">ARG/AGES</text><line style="stroke:#181818;stroke-width:0.5;" x1="734.5" x2="878.5" y1="669.1094" y2="669.1094"/></g><!--MD5=[76480a6701b5d2883bc606a2560c3cfe]
class MassVaccinationCenter--><g id="elem_MassVaccinationCenter"><rect codeLine="28" fill="#F1F1F1" height="65.6094" id="MassVaccinationCenter" rx="2.5" ry="2.5" style="stroke:#181818;stroke-width:0.5;" width="181" x="915" y="611.5"/><ellipse cx="930" cy="627.5" fill="#ADD1B2" rx="11" ry="11" style="stroke:#181818;stroke-width:1.0;"/><path d="M932,624 Q932.2031,623.5 932.4375,623.25 Q932.6719,623 932.9375,623 Q933.4063,623 933.7031,623.2813 Q934,623.5625 934,624.2188 L934,625.7813 Q934,626.4375 933.7188,626.7188 Q933.4375,627 933,627 Q932.6094,627 932.3594,626.8281 Q932.1094,626.6563 932,626.2031 Q931.9531,625.8906 931.7813,625.7188 Q931.4688,625.3906 930.9063,625.2031 Q930.3438,625 929.7813,625 Q929.0781,625 928.4844,625.2813 Q927.9063,625.5625 927.4531,626.1875 Q927,626.8125 927,627.6719 L927,628.5938 Q927,629.625 927.8438,630.3125 Q928.6875,631 930.1875,631 Q931.0781,631 931.7031,630.7969 Q932.0625,630.6875 932.4688,630.3281 Q932.7344,630.125 932.875,630.0625 Q933.0156,630 933.1875,630 Q933.5156,630 933.75,630.2656 Q934,630.5156 934,630.875 Q934,631.2188 933.6563,631.625 Q933.1563,632.2188 932.3594,632.5469 Q931.3125,633 930.0313,633 Q928.5313,633 927.3281,632.4063 Q926.3594,631.9375 925.6719,630.9219 Q925,629.9063 925,628.7031 L925,627.6094 Q925,626.3594 925.5938,625.2656 Q926.2031,624.1719 927.25,623.5938 Q928.3125,623 929.5,623 Q930.2188,623 930.8438,623.25 Q931.4688,623.5 932,624 Z " fill="#000000"/><text fill="#000000" font-family="sans-serif" font-size="14" lengthAdjust="spacing" textLength="149" x="944" y="633.2285">MassVaccinationCenter</text><line style="stroke:#181818;stroke-width:0.5;" x1="916" x2="1095" y1="643.5" y2="643.5"/><rect fill="none" height="6" style="stroke:#C82930;stroke-width:1.0;" width="6" x="923" y="651.5"/><text fill="#000000" font-family="sans-serif" font-size="14" lengthAdjust="spacing" textLength="82" x="935" y="662.0332">VaccineType</text><line style="stroke:#181818;stroke-width:0.5;" x1="916" x2="1095" y1="669.1094" y2="669.1094"/></g><!--MD5=[76b5e19c9337179d2d7ae334371d68c8]
class Notification--><g id="elem_Notification"><rect codeLine="32" fill="#F1F1F1" height="48" id="Notification" rx="2.5" ry="2.5" style="stroke:#181818;stroke-width:0.5;" width="101" x="192" y="371"/><ellipse cx="207" cy="387" fill="#ADD1B2" rx="11" ry="11" style="stroke:#181818;stroke-width:1.0;"/><path d="M209,383.5 Q209.2031,383 209.4375,382.75 Q209.6719,382.5 209.9375,382.5 Q210.4063,382.5 210.7031,382.7813 Q211,383.0625 211,383.7188 L211,385.2813 Q211,385.9375 210.7188,386.2188 Q210.4375,386.5 210,386.5 Q209.6094,386.5 209.3594,386.3281 Q209.1094,386.1563 209,385.7031 Q208.9531,385.3906 208.7813,385.2188 Q208.4688,384.8906 207.9063,384.7031 Q207.3438,384.5 206.7813,384.5 Q206.0781,384.5 205.4844,384.7813 Q204.9063,385.0625 204.4531,385.6875 Q204,386.3125 204,387.1719 L204,388.0938 Q204,389.125 204.8438,389.8125 Q205.6875,390.5 207.1875,390.5 Q208.0781,390.5 208.7031,390.2969 Q209.0625,390.1875 209.4688,389.8281 Q209.7344,389.625 209.875,389.5625 Q210.0156,389.5 210.1875,389.5 Q210.5156,389.5 210.75,389.7656 Q211,390.0156 211,390.375 Q211,390.7188 210.6563,391.125 Q210.1563,391.7188 209.3594,392.0469 Q208.3125,392.5 207.0313,392.5 Q205.5313,392.5 204.3281,391.9063 Q203.3594,391.4375 202.6719,390.4219 Q202,389.4063 202,388.2031 L202,387.1094 Q202,385.8594 202.5938,384.7656 Q203.2031,383.6719 204.25,383.0938 Q205.3125,382.5 206.5,382.5 Q207.2188,382.5 207.8438,382.75 Q208.4688,383 209,383.5 Z " fill="#000000"/><text fill="#000000" font-family="sans-serif" font-size="14" lengthAdjust="spacing" textLength="69" x="221" y="392.7285">Notification</text><line style="stroke:#181818;stroke-width:0.5;" x1="193" x2="292" y1="403" y2="403"/><line style="stroke:#181818;stroke-width:0.5;" x1="193" x2="292" y1="411" y2="411"/></g><!--MD5=[cd4ce1c0d44638ff9f42448de30e6b92]
class VaccineSchedule--><g id="elem_VaccineSchedule"><rect codeLine="34" fill="#F1F1F1" height="136.0469" id="VaccineSchedule" rx="2.5" ry="2.5" style="stroke:#181818;stroke-width:0.5;" width="141" x="358" y="327"/><ellipse cx="373" cy="343" fill="#ADD1B2" rx="11" ry="11" style="stroke:#181818;stroke-width:1.0;"/><path d="M375,339.5 Q375.2031,339 375.4375,338.75 Q375.6719,338.5 375.9375,338.5 Q376.4063,338.5 376.7031,338.7813 Q377,339.0625 377,339.7188 L377,341.2813 Q377,341.9375 376.7188,342.2188 Q376.4375,342.5 376,342.5 Q375.6094,342.5 375.3594,342.3281 Q375.1094,342.1563 375,341.7031 Q374.9531,341.3906 374.7813,341.2188 Q374.4688,340.8906 373.9063,340.7031 Q373.3438,340.5 372.7813,340.5 Q372.0781,340.5 371.4844,340.7813 Q370.9063,341.0625 370.4531,341.6875 Q370,342.3125 370,343.1719 L370,344.0938 Q370,345.125 370.8438,345.8125 Q371.6875,346.5 373.1875,346.5 Q374.0781,346.5 374.7031,346.2969 Q375.0625,346.1875 375.4688,345.8281 Q375.7344,345.625 375.875,345.5625 Q376.0156,345.5 376.1875,345.5 Q376.5156,345.5 376.75,345.7656 Q377,346.0156 377,346.375 Q377,346.7188 376.6563,347.125 Q376.1563,347.7188 375.3594,348.0469 Q374.3125,348.5 373.0313,348.5 Q371.5313,348.5 370.3281,347.9063 Q369.3594,347.4375 368.6719,346.4219 Q368,345.4063 368,344.2031 L368,343.1094 Q368,341.8594 368.5938,340.7656 Q369.2031,339.6719 370.25,339.0938 Q371.3125,338.5 372.5,338.5 Q373.2188,338.5 373.8438,338.75 Q374.4688,339 375,339.5 Z " fill="#000000"/><text fill="#000000" font-family="sans-serif" font-size="14" lengthAdjust="spacing" textLength="109" x="387" y="348.7285">VaccineSchedule</text><line style="stroke:#181818;stroke-width:0.5;" x1="359" x2="498" y1="359" y2="359"/><rect fill="none" height="6" style="stroke:#C82930;stroke-width:1.0;" width="6" x="366" y="367"/><text fill="#000000" font-family="sans-serif" font-size="14" lengthAdjust="spacing" textLength="100" x="378" y="377.5332">snsUserNumber</text><rect fill="none" height="6" style="stroke:#C82930;stroke-width:1.0;" width="6" x="366" y="384.6094"/><text fill="#000000" font-family="sans-serif" font-size="14" lengthAdjust="spacing" textLength="114" x="378" y="395.1426">vaccinationCenter</text><rect fill="none" height="6" style="stroke:#C82930;stroke-width:1.0;" width="6" x="366" y="402.2188"/><text fill="#000000" font-family="sans-serif" font-size="14" lengthAdjust="spacing" textLength="80" x="378" y="412.752">vaccineType</text><rect fill="none" height="6" style="stroke:#C82930;stroke-width:1.0;" width="6" x="366" y="419.8281"/><text fill="#000000" font-family="sans-serif" font-size="14" lengthAdjust="spacing" textLength="23" x="378" y="430.3613">day</text><rect fill="none" height="6" style="stroke:#C82930;stroke-width:1.0;" width="6" x="366" y="437.4375"/><text fill="#000000" font-family="sans-serif" font-size="14" lengthAdjust="spacing" textLength="29" x="378" y="447.9707">hour</text><line style="stroke:#181818;stroke-width:0.5;" x1="359" x2="498" y1="455.0469" y2="455.0469"/></g><!--MD5=[0e501da62322464167c8ec4d233a6b7e]
class VaccineType--><g id="elem_VaccineType"><rect codeLine="41" fill="#F1F1F1" height="100.8281" id="VaccineType" rx="2.5" ry="2.5" style="stroke:#181818;stroke-width:0.5;" width="114" x="527.5" y="594"/><ellipse cx="542.5" cy="610" fill="#ADD1B2" rx="11" ry="11" style="stroke:#181818;stroke-width:1.0;"/><path d="M544.5,606.5 Q544.7031,606 544.9375,605.75 Q545.1719,605.5 545.4375,605.5 Q545.9063,605.5 546.2031,605.7813 Q546.5,606.0625 546.5,606.7188 L546.5,608.2813 Q546.5,608.9375 546.2188,609.2188 Q545.9375,609.5 545.5,609.5 Q545.1094,609.5 544.8594,609.3281 Q544.6094,609.1563 544.5,608.7031 Q544.4531,608.3906 544.2813,608.2188 Q543.9688,607.8906 543.4063,607.7031 Q542.8438,607.5 542.2813,607.5 Q541.5781,607.5 540.9844,607.7813 Q540.4063,608.0625 539.9531,608.6875 Q539.5,609.3125 539.5,610.1719 L539.5,611.0938 Q539.5,612.125 540.3438,612.8125 Q541.1875,613.5 542.6875,613.5 Q543.5781,613.5 544.2031,613.2969 Q544.5625,613.1875 544.9688,612.8281 Q545.2344,612.625 545.375,612.5625 Q545.5156,612.5 545.6875,612.5 Q546.0156,612.5 546.25,612.7656 Q546.5,613.0156 546.5,613.375 Q546.5,613.7188 546.1563,614.125 Q545.6563,614.7188 544.8594,615.0469 Q543.8125,615.5 542.5313,615.5 Q541.0313,615.5 539.8281,614.9063 Q538.8594,614.4375 538.1719,613.4219 Q537.5,612.4063 537.5,611.2031 L537.5,610.1094 Q537.5,608.8594 538.0938,607.7656 Q538.7031,606.6719 539.75,606.0938 Q540.8125,605.5 542,605.5 Q542.7188,605.5 543.3438,605.75 Q543.9688,606 544.5,606.5 Z " fill="#000000"/><text fill="#000000" font-family="sans-serif" font-size="14" lengthAdjust="spacing" textLength="82" x="556.5" y="615.7285">VaccineType</text><line style="stroke:#181818;stroke-width:0.5;" x1="528.5" x2="640.5" y1="626" y2="626"/><rect fill="none" height="6" style="stroke:#C82930;stroke-width:1.0;" width="6" x="535.5" y="634"/><text fill="#000000" font-family="sans-serif" font-size="14" lengthAdjust="spacing" textLength="34" x="547.5" y="644.5332">Code</text><rect fill="none" height="6" style="stroke:#C82930;stroke-width:1.0;" width="6" x="535.5" y="651.6094"/><text fill="#000000" font-family="sans-serif" font-size="14" lengthAdjust="spacing" textLength="71" x="547.5" y="662.1426">Description</text><rect fill="none" height="6" style="stroke:#C82930;stroke-width:1.0;" width="6" x="535.5" y="669.2188"/><text fill="#000000" font-family="sans-serif" font-size="14" lengthAdjust="spacing" textLength="74" x="547.5" y="679.752">Technology</text><line style="stroke:#181818;stroke-width:0.5;" x1="528.5" x2="640.5" y1="686.8281" y2="686.8281"/></g><!--MD5=[a87fd7e31e08e6ee61dd7fb9ab974181]
class VaccinationEvent--><g id="elem_VaccinationEvent"><rect codeLine="46" fill="#F1F1F1" height="48" id="VaccinationEvent" rx="2.5" ry="2.5" style="stroke:#181818;stroke-width:0.5;" width="141" x="343" y="620.5"/><ellipse cx="358" cy="636.5" fill="#ADD1B2" rx="11" ry="11" style="stroke:#181818;stroke-width:1.0;"/><path d="M360,633 Q360.2031,632.5 360.4375,632.25 Q360.6719,632 360.9375,632 Q361.4063,632 361.7031,632.2813 Q362,632.5625 362,633.2188 L362,634.7813 Q362,635.4375 361.7188,635.7188 Q361.4375,636 361,636 Q360.6094,636 360.3594,635.8281 Q360.1094,635.6563 360,635.2031 Q359.9531,634.8906 359.7813,634.7188 Q359.4688,634.3906 358.9063,634.2031 Q358.3438,634 357.7813,634 Q357.0781,634 356.4844,634.2813 Q355.9063,634.5625 355.4531,635.1875 Q355,635.8125 355,636.6719 L355,637.5938 Q355,638.625 355.8438,639.3125 Q356.6875,640 358.1875,640 Q359.0781,640 359.7031,639.7969 Q360.0625,639.6875 360.4688,639.3281 Q360.7344,639.125 360.875,639.0625 Q361.0156,639 361.1875,639 Q361.5156,639 361.75,639.2656 Q362,639.5156 362,639.875 Q362,640.2188 361.6563,640.625 Q361.1563,641.2188 360.3594,641.5469 Q359.3125,642 358.0313,642 Q356.5313,642 355.3281,641.4063 Q354.3594,640.9375 353.6719,639.9219 Q353,638.9063 353,637.7031 L353,636.6094 Q353,635.3594 353.5938,634.2656 Q354.2031,633.1719 355.25,632.5938 Q356.3125,632 357.5,632 Q358.2188,632 358.8438,632.25 Q359.4688,632.5 360,633 Z " fill="#000000"/><text fill="#000000" font-family="sans-serif" font-size="14" lengthAdjust="spacing" textLength="109" x="372" y="642.2285">VaccinationEvent</text><line style="stroke:#181818;stroke-width:0.5;" x1="344" x2="483" y1="652.5" y2="652.5"/><line style="stroke:#181818;stroke-width:0.5;" x1="344" x2="483" y1="660.5" y2="660.5"/></g><!--MD5=[7e2bc2f128e759c5889ccd6a2666d576]
class EmailNotification--><g id="elem_EmailNotification"><rect codeLine="47" fill="#F1F1F1" height="48" id="EmailNotification" rx="2.5" ry="2.5" style="stroke:#181818;stroke-width:0.5;" width="135" x="7" y="620.5"/><ellipse cx="22" cy="636.5" fill="#ADD1B2" rx="11" ry="11" style="stroke:#181818;stroke-width:1.0;"/><path d="M24,633 Q24.2031,632.5 24.4375,632.25 Q24.6719,632 24.9375,632 Q25.4063,632 25.7031,632.2813 Q26,632.5625 26,633.2188 L26,634.7813 Q26,635.4375 25.7188,635.7188 Q25.4375,636 25,636 Q24.6094,636 24.3594,635.8281 Q24.1094,635.6563 24,635.2031 Q23.9531,634.8906 23.7813,634.7188 Q23.4688,634.3906 22.9063,634.2031 Q22.3438,634 21.7813,634 Q21.0781,634 20.4844,634.2813 Q19.9063,634.5625 19.4531,635.1875 Q19,635.8125 19,636.6719 L19,637.5938 Q19,638.625 19.8438,639.3125 Q20.6875,640 22.1875,640 Q23.0781,640 23.7031,639.7969 Q24.0625,639.6875 24.4688,639.3281 Q24.7344,639.125 24.875,639.0625 Q25.0156,639 25.1875,639 Q25.5156,639 25.75,639.2656 Q26,639.5156 26,639.875 Q26,640.2188 25.6563,640.625 Q25.1563,641.2188 24.3594,641.5469 Q23.3125,642 22.0313,642 Q20.5313,642 19.3281,641.4063 Q18.3594,640.9375 17.6719,639.9219 Q17,638.9063 17,637.7031 L17,636.6094 Q17,635.3594 17.5938,634.2656 Q18.2031,633.1719 19.25,632.5938 Q20.3125,632 21.5,632 Q22.2188,632 22.8438,632.25 Q23.4688,632.5 24,633 Z " fill="#000000"/><text fill="#000000" font-family="sans-serif" font-size="14" lengthAdjust="spacing" textLength="103" x="36" y="642.2285">EmailNotification</text><line style="stroke:#181818;stroke-width:0.5;" x1="8" x2="141" y1="652.5" y2="652.5"/><line style="stroke:#181818;stroke-width:0.5;" x1="8" x2="141" y1="660.5" y2="660.5"/></g><!--MD5=[17d776304760d17bcc13ba401441cbdd]
class SMSNotification--><g id="elem_SMSNotification"><rect codeLine="48" fill="#F1F1F1" height="48" id="SMSNotification" rx="2.5" ry="2.5" style="stroke:#181818;stroke-width:0.5;" width="130" x="177.5" y="620.5"/><ellipse cx="192.5" cy="636.5" fill="#ADD1B2" rx="11" ry="11" style="stroke:#181818;stroke-width:1.0;"/><path d="M194.5,633 Q194.7031,632.5 194.9375,632.25 Q195.1719,632 195.4375,632 Q195.9063,632 196.2031,632.2813 Q196.5,632.5625 196.5,633.2188 L196.5,634.7813 Q196.5,635.4375 196.2188,635.7188 Q195.9375,636 195.5,636 Q195.1094,636 194.8594,635.8281 Q194.6094,635.6563 194.5,635.2031 Q194.4531,634.8906 194.2813,634.7188 Q193.9688,634.3906 193.4063,634.2031 Q192.8438,634 192.2813,634 Q191.5781,634 190.9844,634.2813 Q190.4063,634.5625 189.9531,635.1875 Q189.5,635.8125 189.5,636.6719 L189.5,637.5938 Q189.5,638.625 190.3438,639.3125 Q191.1875,640 192.6875,640 Q193.5781,640 194.2031,639.7969 Q194.5625,639.6875 194.9688,639.3281 Q195.2344,639.125 195.375,639.0625 Q195.5156,639 195.6875,639 Q196.0156,639 196.25,639.2656 Q196.5,639.5156 196.5,639.875 Q196.5,640.2188 196.1563,640.625 Q195.6563,641.2188 194.8594,641.5469 Q193.8125,642 192.5313,642 Q191.0313,642 189.8281,641.4063 Q188.8594,640.9375 188.1719,639.9219 Q187.5,638.9063 187.5,637.7031 L187.5,636.6094 Q187.5,635.3594 188.0938,634.2656 Q188.7031,633.1719 189.75,632.5938 Q190.8125,632 192,632 Q192.7188,632 193.3438,632.25 Q193.9688,632.5 194.5,633 Z " fill="#000000"/><text fill="#000000" font-family="sans-serif" font-size="14" lengthAdjust="spacing" textLength="98" x="206.5" y="642.2285">SMSNotification</text><line style="stroke:#181818;stroke-width:0.5;" x1="178.5" x2="306.5" y1="652.5" y2="652.5"/><line style="stroke:#181818;stroke-width:0.5;" x1="178.5" x2="306.5" y1="660.5" y2="660.5"/></g><!--MD5=[4d7f47162e377c4884c583baac9698b3]
reverse link VaccinationCenter to HealthCareCenter--><g id="link_VaccinationCenter_HealthCareCenter"><path d="M806.5,536.24 C806.5,564.41 806.5,591.42 806.5,611.29 " fill="none" id="VaccinationCenter-backto-HealthCareCenter" style="stroke:#181818;stroke-width:1.0;"/><polygon fill="none" points="799.5,536.13,806.5,516.12,813.5,536.12,799.5,536.13" style="stroke:#181818;stroke-width:1.0;"/></g><!--MD5=[a09fc339ad85d4e67aa3195beeccb7d9]
reverse link VaccinationCenter to MassVaccinationCenter--><g id="link_VaccinationCenter_MassVaccinationCenter"><path d="M915.64,531.74 C939.59,561.52 962.78,590.36 979.6,611.29 " fill="none" id="VaccinationCenter-backto-MassVaccinationCenter" style="stroke:#181818;stroke-width:1.0;"/><polygon fill="none" points="910.16,536.1,903.09,516.12,921.07,527.33,910.16,536.1" style="stroke:#181818;stroke-width:1.0;"/></g><!--MD5=[a069fefa93fe627f96a6b9d57d25b567]
reverse link Notification to EmailNotification--><g id="link_Notification_EmailNotification"><path d="M215.29,436.09 C179.75,488.44 118.73,578.34 90.14,620.46 " fill="none" id="Notification-backto-EmailNotification" style="stroke:#181818;stroke-width:1.0;"/><polygon fill="none" points="209.67,431.9,226.69,419.28,221.25,439.76,209.67,431.9" style="stroke:#181818;stroke-width:1.0;"/></g><!--MD5=[0e746bf0fb50d7a50210c7c405534661]
reverse link Notification to SMSNotification--><g id="link_Notification_SMSNotification"><path d="M242.5,439.57 C242.5,492.34 242.5,579.26 242.5,620.46 " fill="none" id="Notification-backto-SMSNotification" style="stroke:#181818;stroke-width:1.0;"/><polygon fill="none" points="235.5,439.28,242.5,419.28,249.5,439.28,235.5,439.28" style="stroke:#181818;stroke-width:1.0;"/></g><!--MD5=[6b276e2dfed8b8354946f9f8bab747bb]
link VaccinationCenter to VaccineType--><g id="link_VaccinationCenter_VaccineType"><path codeLine="52" d="M700.77,498.71 C685.89,514.23 671.06,530.3 657.5,546 C644.51,561.04 631.21,578.18 619.59,593.86 " fill="none" id="VaccinationCenter-VaccineType" style="stroke:#181818;stroke-width:1.0;"/><polygon fill="#000000" points="659.2547,558.9795,667.3612,554.006,662.8897,550.191,659.2547,558.9795" style="stroke:#000000;stroke-width:1.0;"/><text fill="#000000" font-family="sans-serif" font-size="13" lengthAdjust="spacing" textLength="126" x="671.5" y="560.4951">where is administered</text><text fill="#000000" font-family="sans-serif" font-size="13" lengthAdjust="spacing" textLength="20" x="672.9944" y="502.6574">1..*</text><text fill="#000000" font-family="sans-serif" font-size="13" lengthAdjust="spacing" textLength="20" x="603.1183" y="583.1457">1..*</text></g><!--MD5=[d35dbd40ed3ec06d2ee641990798b91e]
link SNSUser to VaccineType--><g id="link_SNSUser_VaccineType"><path codeLine="53" d="M504.58,193.55 C511.05,204.07 516.88,214.99 521.5,226 C574.01,351.03 583.53,513.39 584.77,593.82 " fill="none" id="SNSUser-VaccineType" style="stroke:#181818;stroke-width:1.0;"/><polygon fill="#000000" points="587.4822,400.0784,588.5871,390.6322,582.8237,391.7868,587.4822,400.0784" style="stroke:#000000;stroke-width:1.0;"/><text fill="#000000" font-family="sans-serif" font-size="13" lengthAdjust="spacing" textLength="47" x="595.5" y="400.4951">recieves</text><text fill="#000000" font-family="sans-serif" font-size="13" lengthAdjust="spacing" textLength="20" x="512.5155" y="198.8154">1..*</text><text fill="#000000" font-family="sans-serif" font-size="13" lengthAdjust="spacing" textLength="20" x="563.4017" y="583.1">1..*</text></g><!--MD5=[1d6d671bbc18d64756cbd8abf269fed7]
link SNSUser to Notification--><g id="link_SNSUser_Notification"><path codeLine="54" d="M368.62,196.34 C329.44,257.75 281.22,333.31 257.35,370.73 " fill="none" id="SNSUser-Notification" style="stroke:#181818;stroke-width:1.0;"/><polygon fill="#000000" points="349.8106,239.3909,357.1534,233.3465,352.1982,230.1849,349.8106,239.3909" style="stroke:#000000;stroke-width:1.0;"/><text fill="#000000" font-family="sans-serif" font-size="13" lengthAdjust="spacing" textLength="47" x="361.5" y="240.4951">recieves</text><text fill="#000000" font-family="sans-serif" font-size="13" lengthAdjust="spacing" textLength="20" x="343.4882" y="217.4049">1..*</text><text fill="#000000" font-family="sans-serif" font-size="13" lengthAdjust="spacing" textLength="20" x="238.5928" y="360.001">1..*</text></g><!--MD5=[4bf92790d4930e6927233f0345ffcb5c]
link SNSUser to VaccineSchedule--><g id="link_SNSUser_VaccineSchedule"><path codeLine="55" d="M428.5,196.34 C428.5,238.78 428.5,287.97 428.5,326.67 " fill="none" id="SNSUser-VaccineSchedule" style="stroke:#181818;stroke-width:1.0;"/><polygon fill="#000000" points="433.5,240.1758,436.4389,231.1307,430.5611,231.1307,433.5,240.1758" style="stroke:#000000;stroke-width:1.0;"/><text fill="#000000" font-family="sans-serif" font-size="13" lengthAdjust="spacing" textLength="70" x="442.5" y="240.4951">can shedule</text><text fill="#000000" font-family="sans-serif" font-size="13" lengthAdjust="spacing" textLength="20" x="407.7656" y="217.4049">1..*</text><text fill="#000000" font-family="sans-serif" font-size="13" lengthAdjust="spacing" textLength="20" x="407.4688" y="316.3093">1..*</text></g><!--MD5=[0627282f411ece888f894017ff17802b]
link VaccineSchedule to VaccineType--><g id="link_VaccineSchedule_VaccineType"><path codeLine="56" d="M455.76,463.12 C470.03,494.92 489,532.7 510.5,564 C517.44,574.1 525.62,584.2 533.98,593.64 " fill="none" id="VaccineSchedule-VaccineType" style="stroke:#181818;stroke-width:1.0;"/><polygon fill="#000000" points="518.0703,559.4646,515.9415,550.1953,510.8997,553.2168,518.0703,559.4646" style="stroke:#000000;stroke-width:1.0;"/><text fill="#000000" font-family="sans-serif" font-size="13" lengthAdjust="spacing" textLength="33" x="524.5" y="560.4951">to get</text><text fill="#000000" font-family="sans-serif" font-size="13" lengthAdjust="spacing" textLength="7" x="451.2103" y="484.4807">1</text><text fill="#000000" font-family="sans-serif" font-size="13" lengthAdjust="spacing" textLength="7" x="519.7211" y="583.261">1</text></g><!--MD5=[6fcfb8d93ece2a8d810f2bf7de6c5609]
link VaccineSchedule to VaccinationEvent--><g id="link_VaccineSchedule_VaccinationEvent"><path codeLine="57" d="M418.72,463.05 C415.4,488.91 412.13,518.77 410.5,546 C410.02,553.99 410.35,556 410.5,564 C410.86,582.92 411.69,604.36 412.39,620.2 " fill="none" id="VaccineSchedule-VaccinationEvent" style="stroke:#181818;stroke-width:1.0;"/><polygon fill="#000000" points="415.2988,560.1717,418.5993,551.2523,412.7263,551.0157,415.2988,560.1717" style="stroke:#000000;stroke-width:1.0;"/><text fill="#000000" font-family="sans-serif" font-size="13" lengthAdjust="spacing" textLength="45" x="424.5" y="560.4951">fullfilling</text><text fill="#000000" font-family="sans-serif" font-size="13" lengthAdjust="spacing" textLength="7" x="410.3505" y="484.4035">1</text><text fill="#000000" font-family="sans-serif" font-size="13" lengthAdjust="spacing" textLength="7" x="404.2087" y="609.4633">1</text></g><!--MD5=[e05ae8238b0ccdc5aa68187c9fb55b14]
@startuml
'https://plantuml.com/sequence-diagram
class SNSUser {
-name
-sex
-Birth Date
-Addresss
-Phone number
-E-mail
-SNS number
-Citizen card number
}
class VaccinationCenter {
-name
-addres
-phone number
-e-mail addres
-fax number
-website addres
-opening hours
-closing hours
-slot duration
-maximum number of vaccines
-coordinator
}
class HealthCareCenter extends VaccinationCenter{
-ARG/AGES
}
class MassVaccinationCenter extends VaccinationCenter{
-VaccineType
}

class Notification

class VaccineSchedule{
-snsUserNumber
-vaccinationCenter
-vaccineType
-day
-hour
}
class VaccineType {
-Code
-Description
-Technology
}
class VaccinationEvent
class EmailNotification extends Notification
class SMSNotification extends Notification



VaccinationCenter "1..*" - - "1..*" VaccineType :  where is administered >
SNSUser "1..*" - - "1..*" VaccineType : recieves >
SNSUser "1..*" - - "1..*" Notification : recieves >
SNSUser "1..*" - - "1..*" VaccineSchedule : can shedule >
VaccineSchedule "1" - - "1" VaccineType : to get >
VaccineSchedule "1" - - "1" VaccinationEvent : fullfilling >







@enduml

@startuml
class SNSUser {
-name
-sex
-Birth Date
-Addresss
-Phone number
-E-mail
-SNS number
-Citizen card number
}
class VaccinationCenter {
-name
-addres
-phone number
-e-mail addres
-fax number
-website addres
-opening hours
-closing hours
-slot duration
-maximum number of vaccines
-coordinator
}
class HealthCareCenter extends VaccinationCenter{
-ARG/AGES
}
class MassVaccinationCenter extends VaccinationCenter{
-VaccineType
}

class Notification

class VaccineSchedule{
-snsUserNumber
-vaccinationCenter
-vaccineType
-day
-hour
}
class VaccineType {
-Code
-Description
-Technology
}
class VaccinationEvent
class EmailNotification extends Notification
class SMSNotification extends Notification



VaccinationCenter "1..*" - - "1..*" VaccineType :  where is administered >
SNSUser "1..*" - - "1..*" VaccineType : recieves >
SNSUser "1..*" - - "1..*" Notification : recieves >
SNSUser "1..*" - - "1..*" VaccineSchedule : can shedule >
VaccineSchedule "1" - - "1" VaccineType : to get >
VaccineSchedule "1" - - "1" VaccinationEvent : fullfilling >







@enduml

PlantUML version 1.2022.4(Sat Apr 09 14:29:17 BST 2022)
(GPL source distribution)
Java Runtime: OpenJDK Runtime Environment
JVM: OpenJDK 64-Bit Server VM
Default Encoding: Cp1252
Language: pt
Country: PT
--></g></svg>