<?xml version="1.0" encoding="UTF-8" standalone="no"?><svg xmlns="http://www.w3.org/2000/svg" xmlns:xlink="http://www.w3.org/1999/xlink" contentStyleType="text/css" height="431px" preserveAspectRatio="none" style="width:475px;height:431px;background:#FFFFFF;" version="1.1" viewBox="0 0 475 431" width="475px" zoomAndPan="magnify"><defs/><g><rect fill="#FFFFFF" height="247.8125" style="stroke:#181818;stroke-width:1.0;" width="10" x="79" y="92.6094"/><rect height="141.7578" style="stroke:#000000;stroke-width:1.5;fill:none;" width="458" x="10" y="190.6641"/><line style="stroke:#181818;stroke-width:0.5;fill:none;stroke-dasharray:5.0,5.0;" x1="84" x2="84" y1="82.6094" y2="349.4219"/><line style="stroke:#181818;stroke-width:0.5;fill:none;stroke-dasharray:5.0,5.0;" x1="428" x2="428" y1="82.6094" y2="349.4219"/><text fill="#000000" font-family="sans-serif" font-size="14" lengthAdjust="spacing" textLength="122" x="20" y="79.5332">Center Coordinator</text><ellipse cx="84" cy="13.5" fill="#E2E2F0" rx="8" ry="8" style="stroke:#181818;stroke-width:0.5;"/><path d="M84,21.5 L84,48.5 M71,29.5 L97,29.5 M84,48.5 L71,63.5 M84,48.5 L97,63.5 " fill="none" style="stroke:#181818;stroke-width:0.5;"/><text fill="#000000" font-family="sans-serif" font-size="14" lengthAdjust="spacing" textLength="122" x="20" y="362.9551">Center Coordinator</text><ellipse cx="84" cy="374.5313" fill="#E2E2F0" rx="8" ry="8" style="stroke:#181818;stroke-width:0.5;"/><path d="M84,382.5313 L84,409.5313 M71,390.5313 L97,390.5313 M84,409.5313 L71,424.5313 M84,409.5313 L97,424.5313 " fill="none" style="stroke:#181818;stroke-width:0.5;"/><rect fill="#E2E2F0" height="31.6094" rx="2.5" ry="2.5" style="stroke:#181818;stroke-width:0.5;" width="60" x="398" y="50"/><text fill="#000000" font-family="sans-serif" font-size="14" lengthAdjust="spacing" textLength="46" x="405" y="71.5332">System</text><rect fill="#E2E2F0" height="31.6094" rx="2.5" ry="2.5" style="stroke:#181818;stroke-width:0.5;" width="60" x="398" y="348.4219"/><text fill="#000000" font-family="sans-serif" font-size="14" lengthAdjust="spacing" textLength="46" x="405" y="369.9551">System</text><rect fill="#FFFFFF" height="247.8125" style="stroke:#181818;stroke-width:1.0;" width="10" x="79" y="92.6094"/><polygon fill="#181818" points="416,110.9609,426,114.9609,416,118.9609,420,114.9609" style="stroke:#181818;stroke-width:1.0;"/><line style="stroke:#181818;stroke-width:1.0;" x1="89" x2="422" y1="114.9609" y2="114.9609"/><text fill="#000000" font-family="sans-serif" font-size="13" font-weight="bold" lengthAdjust="spacing" textLength="7" x="96" y="110.1045">1</text><text fill="#000000" font-family="sans-serif" font-size="13" lengthAdjust="spacing" textLength="262" x="107" y="110.1045">Selects option to analyze center performance</text><polygon fill="#181818" points="100,141.3125,90,145.3125,100,149.3125,96,145.3125" style="stroke:#181818;stroke-width:1.0;"/><line style="stroke:#181818;stroke-width:1.0;stroke-dasharray:2.0,2.0;" x1="94" x2="427" y1="145.3125" y2="145.3125"/><text fill="#000000" font-family="sans-serif" font-size="13" font-weight="bold" lengthAdjust="spacing" textLength="7" x="106" y="140.4561">2</text><text fill="#000000" font-family="sans-serif" font-size="13" lengthAdjust="spacing" textLength="182" x="117" y="140.4561">request the day for the analysis</text><polygon fill="#181818" points="416,171.6641,426,175.6641,416,179.6641,420,175.6641" style="stroke:#181818;stroke-width:1.0;"/><line style="stroke:#181818;stroke-width:1.0;" x1="89" x2="422" y1="175.6641" y2="175.6641"/><text fill="#000000" font-family="sans-serif" font-size="13" font-weight="bold" lengthAdjust="spacing" textLength="7" x="96" y="170.8076">3</text><text fill="#000000" font-family="sans-serif" font-size="13" lengthAdjust="spacing" textLength="304" x="107" y="170.8076">types the day of the analysis duration of the intervals</text><path d="M10,190.6641 L71,190.6641 L71,199.0156 L61,209.0156 L10,209.0156 L10,190.6641 " fill="#EEEEEE" style="stroke:#000000;stroke-width:1.5;"/><rect fill="none" height="141.7578" style="stroke:#000000;stroke-width:1.5;" width="458" x="10" y="190.6641"/><text fill="#000000" font-family="sans-serif" font-size="13" font-weight="bold" lengthAdjust="spacing" textLength="16" x="25" y="205.1592">alt</text><text fill="#000000" font-family="sans-serif" font-size="11" font-weight="bold" lengthAdjust="spacing" textLength="154" x="86" y="204.083">[if is a valid day and interval]</text><polygon fill="#181818" points="100,227.3672,90,231.3672,100,235.3672,96,231.3672" style="stroke:#181818;stroke-width:1.0;"/><line style="stroke:#181818;stroke-width:1.0;stroke-dasharray:2.0,2.0;" x1="94" x2="427" y1="231.3672" y2="231.3672"/><text fill="#000000" font-family="sans-serif" font-size="13" font-weight="bold" lengthAdjust="spacing" textLength="7" x="106" y="226.5107">4</text><text fill="#000000" font-family="sans-serif" font-size="13" lengthAdjust="spacing" textLength="252" x="117" y="226.5107">shows how many intervals will be generated</text><polygon fill="#181818" points="416,257.7188,426,261.7188,416,265.7188,420,261.7188" style="stroke:#181818;stroke-width:1.0;"/><line style="stroke:#181818;stroke-width:1.0;" x1="89" x2="422" y1="261.7188" y2="261.7188"/><text fill="#000000" font-family="sans-serif" font-size="13" font-weight="bold" lengthAdjust="spacing" textLength="7" x="96" y="256.8623">5</text><text fill="#000000" font-family="sans-serif" font-size="13" lengthAdjust="spacing" textLength="251" x="107" y="256.8623">Confirms the intervals that will be generated</text><polygon fill="#181818" points="100,288.0703,90,292.0703,100,296.0703,96,292.0703" style="stroke:#181818;stroke-width:1.0;"/><line style="stroke:#181818;stroke-width:1.0;stroke-dasharray:2.0,2.0;" x1="94" x2="427" y1="292.0703" y2="292.0703"/><text fill="#000000" font-family="sans-serif" font-size="13" font-weight="bold" lengthAdjust="spacing" textLength="7" x="106" y="287.2139">6</text><text fill="#000000" font-family="sans-serif" font-size="13" lengthAdjust="spacing" textLength="264" x="117" y="287.2139">Shows the performance analysis of the center</text><line style="stroke:#000000;stroke-width:1.0;stroke-dasharray:2.0,2.0;" x1="10" x2="468" y1="301.0703" y2="301.0703"/><polygon fill="#181818" points="100,320.4219,90,324.4219,100,328.4219,96,324.4219" style="stroke:#181818;stroke-width:1.0;"/><line style="stroke:#181818;stroke-width:1.0;stroke-dasharray:2.0,2.0;" x1="94" x2="427" y1="324.4219" y2="324.4219"/><text fill="#000000" font-family="sans-serif" font-size="13" font-weight="bold" lengthAdjust="spacing" textLength="7" x="106" y="319.5654">7</text><text fill="#000000" font-family="sans-serif" font-size="13" lengthAdjust="spacing" textLength="142" x="117" y="319.5654">no analysis will be made</text><!--MD5=[f5e3dca006cb26c62e63f24cbb65eade]
@startuml
'https://plantuml.com/sequence-diagram

actor "Center Coordinator" as CenterCoordinator

autonumber


activate CenterCoordinator

CenterCoordinator -> System: Selects option to analyze center performance

System - -> CenterCoordinator: request the day for the analysis

CenterCoordinator -> System: types the day of the analysis duration of the intervals


alt if is a valid day and interval

System - -> CenterCoordinator: shows how many intervals will be generated

CenterCoordinator -> System: Confirms the intervals that will be generated

CenterCoordinator <- - System: Shows the performance analysis of the center

else

System - -> CenterCoordinator: no analysis will be made

end

@enduml

@startuml

actor "Center Coordinator" as CenterCoordinator

autonumber


activate CenterCoordinator

CenterCoordinator -> System: Selects option to analyze center performance

System - -> CenterCoordinator: request the day for the analysis

CenterCoordinator -> System: types the day of the analysis duration of the intervals


alt if is a valid day and interval

System - -> CenterCoordinator: shows how many intervals will be generated

CenterCoordinator -> System: Confirms the intervals that will be generated

CenterCoordinator <- - System: Shows the performance analysis of the center

else

System - -> CenterCoordinator: no analysis will be made

end

@enduml

PlantUML version 1.2022.5(Sat Apr 30 11:55:52 BST 2022)
(GPL source distribution)
Java Runtime: OpenJDK Runtime Environment
JVM: OpenJDK 64-Bit Server VM
Default Encoding: Cp1252
Language: en
Country: GB
--></g></svg>